<svg width="1500" height="1559" viewBox="0 0 1500 1559" fill="none" xmlns="http://www.w3.org/2000/svg">
<mask id="mask0_1_1755" style="mask-type:luminance" maskUnits="userSpaceOnUse" x="0" y="0" width="1500" height="1559">
<path d="M1500 0H0V1558.07H1500V0Z" fill="white"/>
</mask>
<g mask="url(#mask0_1_1755)">
<path d="M705.126 1183.72C672.005 1183.3 643.078 1176.87 619.358 1164.59C585.659 1147.17 566.278 1120.89 561.649 1086.9C558.468 1062.77 561.65 1038.35 571.34 1014.08C575.39 1003.94 579.729 993.656 583.923 983.803L584.935 981.233C587.539 975.092 588.262 971.237 584.791 967.667C582.477 965.239 579.873 964.097 576.547 964.097C574.522 964.097 572.208 964.525 569.604 965.525C554.273 970.951 538.364 975.092 522.309 977.948C513.197 979.662 503.941 980.519 494.684 980.519C479.353 980.519 464.311 978.234 449.848 973.521C423.814 965.096 403.855 947.246 390.404 920.4C383.027 905.549 378.833 888.698 377.531 868.849C374.783 827.294 383.461 785.168 403.999 740.043C429.31 684.351 466.481 633.514 514.644 588.96C515.801 587.961 516.813 586.961 517.97 585.819C521.875 582.249 525.78 578.536 529.541 574.823C536.194 568.112 535.471 564.113 533.591 560.971C531.855 557.973 529.541 556.687 525.925 556.687C524.045 556.687 522.02 557.116 519.561 557.83C511.317 560.257 503.073 562.971 494.829 565.684C455.923 578.679 422.946 584.819 390.982 584.819H389.102C371.891 584.676 357.138 582.249 343.976 577.251C314.327 566.112 297.838 543.978 295.09 511.42C293.499 492.999 296.103 474.006 303.334 451.872C319.533 401.892 347.158 354.768 390.404 303.503C472.121 206.113 570.472 128.144 682.418 71.4521C724.796 50.0321 763.847 35.3237 802.03 26.4701C818.952 22.3288 836.453 19.7584 853.953 18.616C857.135 18.4732 860.173 18.3304 863.355 18.3304C897.199 18.3304 928.15 28.4693 951.581 37.1801C976.747 46.4621 999.599 61.7417 1017.82 81.1626C1048.49 114.435 1063.09 155.704 1060.92 204.114C1058.9 251.38 1044.15 297.362 1014.79 348.77C999.888 374.76 981.086 400.75 955.341 430.738C954.04 432.166 952.883 433.736 951.581 435.164L947.242 440.305C944.639 443.304 944.349 446.303 945.94 450.73C948.977 458.869 953.027 458.869 954.474 458.869C956.643 458.869 959.102 458.012 961.995 456.299C984.847 442.162 1009 429.31 1033.59 418.314C1078.57 398.465 1116.32 387.041 1152.62 382.471C1163.61 381.043 1177.93 379.472 1192.54 379.472C1200.21 379.472 1207.29 379.901 1214.38 380.758C1235.79 383.185 1256.9 390.325 1275.42 401.464C1297.11 414.887 1310.85 435.45 1317.5 464.724C1322.57 487.287 1321.7 511.848 1314.76 541.693C1308.68 567.969 1298.99 593.244 1286.26 616.949C1258.93 668.5 1223.06 716.624 1179.67 760.321C1177.93 762.034 1176.2 763.891 1174.61 765.604C1172.44 767.889 1170.27 770.317 1167.81 772.601C1161.44 778.599 1159.85 785.453 1162.89 793.879C1168.53 809.872 1170.56 826.437 1168.96 843.145C1166.65 869.134 1158.84 894.553 1145.25 920.971C1127.74 954.672 1104.31 985.802 1073.8 1016.22C1021.44 1068.34 960.404 1109.75 892.426 1139.6C847.011 1159.59 807.671 1171.87 768.764 1178.3C748.082 1182.01 726.531 1183.72 705.126 1183.72C705.27 1183.72 705.27 1183.72 705.126 1183.72ZM728.556 770.317C732.172 773.315 736.367 775.6 740.85 777.028C753.578 781.455 765.872 783.74 777.587 783.74C798.704 783.74 818.663 776.457 836.887 762.034C853.23 749.182 860.317 732.046 858.003 711.197C858.003 710.769 858.003 710.341 858.148 709.912C858.292 709.484 858.292 708.77 858.148 707.913C858.148 706.913 858.003 705.771 858.292 704.486C855.255 706.199 852.073 707.913 849.181 709.769C842.094 713.911 834.717 718.195 826.762 721.479C804.344 730.618 783.951 735.188 764.281 735.188C754.012 735.188 743.743 733.903 733.763 731.475C723.928 729.047 714.382 725.335 705.27 721.907C704.403 721.622 703.535 721.193 702.667 720.908C711.634 728.048 721.614 733.903 732.461 737.901C743.887 742.328 745.189 745.184 741.429 756.751C739.838 762.034 736.222 766.461 731.449 769.174C730.726 769.603 729.858 769.888 729.135 770.174C728.99 770.174 728.846 770.317 728.556 770.317ZM861.908 700.916C862.342 700.916 862.776 701.059 863.21 701.201C869.863 704.343 873.19 705.914 875.938 706.342C862.487 697.774 858.437 694.347 852.796 686.064V686.35C853.23 689.349 855.111 691.919 857.135 694.775L857.425 695.061C857.569 695.347 857.859 695.489 858.003 695.775C859.016 696.917 860.462 698.774 860.317 701.487C860.896 701.059 861.33 700.916 861.908 700.916ZM718.143 606.239C719.011 606.239 719.734 606.668 720.312 607.239C720.891 607.953 721.035 608.667 720.891 609.524C719.011 620.662 718.721 629.944 723.783 637.941C723.639 637.512 723.639 637.084 723.494 636.656C720.746 618.806 730.147 602.384 746.491 596.529C750.107 595.244 754.012 594.53 758.062 594.53C769.488 594.53 780.624 599.956 787.856 608.952C787.277 606.953 786.265 604.954 784.963 602.812C780.769 596.243 774.405 591.531 767.029 589.103C762.401 587.532 760.52 584.676 760.665 579.821C760.954 571.396 761.243 562.257 760.954 553.403C760.231 538.695 757.483 526.271 752.71 515.704C745.623 500.139 733.763 490.143 717.709 486.144C712.791 484.859 707.585 484.288 702.522 484.288C681.261 484.288 661.88 495.426 650.888 514.133C641.632 529.698 638.594 547.977 641.776 569.825C643.801 582.392 647.272 594.815 652.335 606.668C653.781 610.38 654.649 614.807 650.31 619.234C647.562 622.09 645.392 625.374 643.801 629.087C662.604 613.522 686.468 606.239 718.143 606.239ZM864.222 605.954C890.401 605.954 914.989 612.522 937.696 625.517C936.973 624.803 936.105 624.089 935.382 623.375C928.295 618.092 929.163 611.951 930.898 606.668C937.985 584.534 939.576 564.113 935.816 544.264C931.766 522.844 921.642 507.993 904.72 498.568C896.476 493.998 888.087 491.713 879.843 491.713C871.454 491.713 862.921 494.141 854.677 498.853C839.345 507.707 829.51 521.701 824.593 541.551C819.531 561.828 820.543 582.82 822.279 600.527C822.713 604.24 822.713 608.667 820.254 612.522C820.543 612.38 820.832 612.38 820.977 612.237C825.027 610.809 829.221 609.381 833.705 608.667C844.118 606.81 854.387 605.954 864.222 605.954Z" fill="#F08CB6"/>
<path d="M954.473 1423.2C948.687 1423.2 947.53 1417.2 946.952 1413.49C944.927 1401.49 942.902 1389.5 941.167 1378.36C940.877 1376.5 940.588 1374.5 940.443 1372.65C940.009 1369.22 939.576 1365.94 938.852 1362.94C937.117 1356.51 939.865 1351.94 942.902 1348.23C957.944 1329.95 978.627 1319.1 1004.37 1315.96C1005.96 1315.81 1007.7 1315.67 1009.72 1315.67C1011.17 1315.67 1012.62 1315.67 1014.06 1315.81C1015.36 1315.81 1016.81 1315.96 1018.11 1315.96C1019.7 1315.81 1021.15 1315.81 1022.74 1315.81C1035.47 1315.81 1047.62 1318.38 1058.75 1321.24C1064.25 1322.67 1067.29 1325.52 1068.73 1330.52C1074.08 1349.51 1079.73 1368.79 1085.22 1387.36L1085.8 1389.5C1085.8 1389.78 1085.94 1390.07 1085.94 1390.5C1087.1 1395.21 1087.68 1398.64 1085.66 1401.07C1084.06 1403.06 1081.46 1403.35 1079.29 1403.35C1077.99 1403.35 1076.54 1403.21 1074.23 1403.06C1072.78 1402.92 1071.34 1402.78 1069.89 1402.49C1066.85 1402.07 1063.96 1401.64 1061.07 1401.64H1055.72C1021.44 1401.64 991.354 1407.78 963.585 1420.49C963.151 1420.63 962.717 1420.77 962.428 1421.06L961.849 1421.34C958.378 1422.63 956.208 1423.2 954.473 1423.2ZM977.759 1509.45C958.233 1509.45 937.985 1505.88 917.881 1498.88C912.818 1497.17 908.046 1494.6 903.707 1491.46C900.814 1489.32 898.644 1487.46 898.355 1484.75C898.21 1482.03 899.946 1479.89 902.26 1477.61C906.021 1473.75 909.926 1469.9 914.12 1466.33C945.795 1439.34 984.412 1421.91 1025.78 1415.92C1030.69 1415.2 1035.61 1414.77 1040.39 1414.49L1045.59 1414.06C1046.46 1414.06 1047.47 1413.92 1048.63 1413.92C1050.65 1413.92 1053.84 1414.06 1056.87 1415.77C1057.31 1416.06 1057.6 1416.35 1057.89 1416.77C1062.37 1423.63 1065.41 1431.63 1066.56 1439.76C1067.14 1443.62 1066.56 1447.05 1066.13 1450.47C1065.84 1452.62 1065.55 1454.62 1065.55 1456.61C1065.7 1465.9 1063.82 1475.04 1061.94 1483.75L1061.5 1485.89C1058.9 1498.46 1051.81 1501.74 1046.17 1502.45C1043.86 1502.74 1041.54 1503.03 1039.23 1503.45C1036.34 1503.88 1033.3 1504.45 1030.26 1504.6C1027.8 1504.74 1025.49 1505.02 1023.03 1505.17C1014.06 1505.88 1004.95 1506.6 996.127 1508.45H995.838C989.908 1509.17 983.833 1509.45 977.759 1509.45Z" fill="#24B59F"/>
<path d="M994.536 1542.15C969.225 1542.15 944.348 1538.15 923.521 1534.16C910.793 1531.73 898.065 1528.44 885.771 1524.45L885.048 1524.16C883.313 1523.59 881.432 1523.02 879.697 1522.3C876.949 1521.16 875.213 1519.45 874.49 1517.31C873.767 1515.16 874.345 1512.74 876.081 1510.31C878.974 1506.17 881.722 1502.03 884.759 1497.74C886.639 1495.03 888.953 1493.6 891.557 1493.6C893.582 1493.6 895.607 1494.46 897.921 1496.17C915.132 1509.02 935.67 1512.88 955.34 1515.31C963.295 1516.31 971.539 1516.31 979.349 1516.45C985.568 1516.45 991.932 1516.59 998.296 1517.02C998.875 1517.02 999.453 1517.31 999.887 1517.59C1001.04 1518.59 1002.49 1519.02 1004.23 1519.02C1005.38 1519.02 1006.83 1518.73 1008.42 1518.3C1012.18 1517.31 1015.94 1517.16 1019.56 1517.02C1023.32 1516.88 1026.93 1516.73 1030.4 1515.59C1031.71 1515.16 1032.86 1514.88 1033.88 1514.88C1036.48 1514.88 1038.5 1516.31 1039.52 1518.73C1040.67 1521.87 1038.36 1524.02 1037.35 1525.16L1036.62 1525.87C1029.39 1534.58 1019.12 1540.3 1007.7 1541.87H1007.41C1003.07 1542.01 998.73 1542.15 994.536 1542.15ZM897.342 1463.9C896.908 1463.9 896.474 1463.76 896.04 1463.61C894.594 1462.9 890.834 1460.9 891.412 1456.04C895.751 1425.91 902.983 1402.49 914.12 1382.22C914.264 1381.93 914.553 1381.5 914.698 1381.07C916.144 1378.36 918.169 1374.08 923.232 1374.08C924.244 1374.08 925.401 1374.22 926.558 1374.65C927.426 1374.93 928.149 1375.65 928.438 1376.65C930.608 1384.22 931.476 1392.07 932.488 1399.78C932.922 1403.78 933.5 1407.92 934.079 1411.92C934.658 1415.35 935.091 1418.92 935.525 1422.34C935.67 1423.91 935.959 1425.48 936.104 1427.06C936.393 1428.77 937.261 1434.2 931.91 1437.48C923.665 1442.76 916.144 1449.19 908.768 1455.47C905.731 1458.04 902.549 1460.76 899.367 1463.33C898.644 1463.76 898.065 1463.9 897.342 1463.9ZM1130.78 1417.77C1130.49 1417.77 1130.06 1417.77 1129.77 1417.63C1126.73 1416.49 1123.84 1415.49 1120.95 1414.35C1116.61 1412.78 1112.41 1411.2 1108.07 1409.63C1104.02 1408.35 1100.84 1404.92 1099.97 1400.78C1098.67 1395.92 1097.23 1391.07 1095.78 1386.21C1093.03 1377.36 1090.28 1368.22 1088.69 1358.8V1358.23C1088.69 1356.94 1088.84 1355.51 1089.13 1354.23V1354.08C1090.14 1350.09 1092.02 1348.09 1094.77 1348.09C1096.36 1348.09 1097.95 1348.8 1099.83 1350.37C1103.88 1353.51 1107.64 1357.37 1110.82 1361.51C1119.35 1373.51 1129.04 1387.5 1135.84 1403.06C1138.88 1410.2 1138.88 1412.63 1132.66 1417.2C1131.94 1417.63 1131.36 1417.77 1130.78 1417.77ZM475.591 1497.74C466.913 1497.74 466.335 1495.31 465.756 1487.46L465.612 1486.32C465.322 1482.6 465.033 1478.75 464.455 1475.18C463.442 1469.04 465.322 1464.47 470.819 1460.47C496.853 1440.76 523.176 1420.63 548.92 1400.64C555.863 1395.35 562.661 1389.64 569.169 1384.22C572.351 1381.64 575.388 1379.07 578.57 1376.5C579.727 1375.65 580.74 1374.65 581.897 1373.79C584.934 1371.22 587.971 1368.51 591.732 1366.37C592.021 1366.22 592.455 1366.08 592.744 1366.08C593.468 1365.94 594.191 1365.94 595.059 1365.94C599.687 1365.94 604.315 1367.94 607.497 1371.22C613.861 1377.65 621.092 1380.5 630.638 1380.5C635.122 1380.5 640.184 1379.79 646.403 1378.36C646.548 1378.36 646.837 1378.22 647.127 1378.07C647.85 1377.79 648.862 1377.36 650.019 1377.36C651.032 1377.36 652.044 1377.65 652.912 1378.36C656.238 1381.07 654.937 1384.93 654.503 1386.36C654.069 1387.64 653.635 1388.78 653.201 1389.93C652.623 1391.21 652.189 1392.5 651.755 1393.78C648.717 1403.49 642.932 1411.49 637.291 1419.2C634.543 1422.91 631.795 1426.77 629.481 1430.63C624.708 1438.34 618.489 1444.91 611.113 1450.19C609.233 1451.62 607.063 1453.05 605.183 1454.47C601.856 1456.9 598.674 1459.04 595.637 1461.61C584.356 1471.04 571.628 1478.32 557.743 1483.46C547.04 1487.6 536.337 1491.74 525.49 1495.89C525.201 1496.03 524.911 1496.03 524.622 1496.03C510.448 1497.03 495.262 1497.6 476.893 1497.74H475.591ZM308.685 1458.76C296.969 1458.76 286.266 1455.19 275.997 1451.9L273.683 1451.19C270.067 1450.05 265.873 1447.05 265.873 1439.48C265.873 1438.91 266.018 1438.48 266.307 1438.05C271.225 1429.91 278.601 1424.2 285.688 1418.63L285.833 1418.49C311.577 1398.64 340.504 1388.64 372.034 1388.64C376.084 1388.64 380.278 1388.79 384.328 1389.07C392.572 1389.93 400.816 1391.78 408.482 1394.5C410.651 1395.07 412.531 1396.07 414.267 1397.5L414.412 1397.64C422.656 1405.64 432.925 1416.77 439.288 1431.2C439.433 1431.63 439.578 1432.2 439.433 1432.77C438.565 1438.05 434.805 1440.62 431.478 1442.48C414.701 1451.62 396.188 1454.9 378.253 1458.19L376.807 1458.47C374.782 1458.76 372.757 1458.9 370.877 1458.9H354.967C339.781 1458.9 324.594 1459.04 309.552 1459.19L308.685 1458.76ZM450.281 1430.34C449.413 1430.34 448.545 1429.91 447.966 1429.2C445.797 1426.48 443.627 1423.63 441.603 1420.91C435.239 1412.63 428.73 1404.06 420.775 1396.92C419.04 1395.35 418.172 1393.64 418.172 1391.78C418.172 1389.07 420.052 1386.93 422.222 1385.21C428.875 1379.5 435.528 1373.93 442.181 1368.36L444.206 1366.65C462.574 1351.23 480.364 1339.66 498.588 1331.09C507.845 1326.67 518.837 1321.95 530.986 1320.81H531.42C532.288 1320.81 533.155 1320.81 533.879 1320.95C535.759 1320.95 537.639 1321.1 539.519 1321.24C543.858 1321.53 546.606 1322.95 548.053 1325.24C549.354 1327.52 549.354 1330.38 547.763 1333.81C545.449 1339.66 542.267 1345.37 538.652 1350.66C533.589 1357.51 527.659 1363.65 522.019 1369.51C518.547 1373.08 515.076 1376.79 511.75 1380.5C504.807 1388.5 496.708 1395.5 488.898 1402.35C484.559 1406.06 480.075 1410.06 475.881 1414.06C475.013 1414.77 474.29 1415.63 473.422 1416.49C467.492 1422.2 460.694 1428.77 450.859 1430.34H450.281ZM351.062 1537.01C303.188 1533.3 266.018 1518.02 237.236 1490.46C233.765 1486.89 230.583 1483.18 227.545 1479.32C225.52 1476.89 225.376 1474.61 225.665 1473.18C225.954 1471.75 226.967 1469.61 230.004 1467.75C234.632 1465.18 238.393 1463.47 241.864 1463.47C246.058 1463.47 249.24 1465.75 253.145 1469.32C267.03 1482.32 284.097 1489.89 305.358 1497.31C335.586 1507.88 367.116 1513.31 399.08 1513.31C410.506 1513.31 421.932 1512.59 433.214 1511.31C437.697 1510.74 442.326 1509.88 446.809 1509.02C448.979 1508.59 451.148 1508.17 453.318 1507.88H454.186C454.475 1507.88 454.62 1507.74 454.764 1507.59C454.764 1507.59 454.909 1507.31 455.053 1507.31C455.632 1506.45 456.5 1506.02 457.512 1506.02H457.657C460.405 1506.17 462.864 1507.59 464.31 1509.74C464.744 1510.45 464.889 1511.16 464.744 1512.02C464.599 1512.88 464.021 1513.45 463.298 1513.88C455.921 1517.73 447.966 1520.59 439.722 1522.16C436.83 1522.59 434.082 1523.3 431.334 1523.87C426.271 1525.02 421.065 1526.16 415.713 1526.44C413.688 1526.59 411.663 1527.02 409.783 1527.87C391.704 1536.3 372.468 1537.01 351.062 1537.15C351.207 1537.01 351.207 1537.01 351.062 1537.01Z" fill="#24B59F"/>
<path d="M1000.18 1510.02C997.574 1510.02 995.549 1509.31 993.669 1508.02C992.801 1507.31 992.367 1506.17 992.657 1505.17C992.946 1504.17 993.814 1503.17 994.826 1503.03C1003.79 1501.17 1012.91 1500.45 1021.73 1499.74C1024.33 1499.6 1026.93 1499.31 1029.68 1499.17C1032.58 1498.88 1035.61 1498.46 1038.36 1498.03C1040.67 1497.6 1043.13 1497.31 1045.45 1497.03C1050.8 1496.46 1054.13 1492.46 1055.72 1485.03L1056.15 1482.89C1057.89 1474.47 1059.77 1465.61 1059.62 1456.9C1059.62 1454.47 1059.91 1452.05 1060.2 1449.76C1060.63 1446.76 1061.07 1443.76 1060.63 1440.76C1059.62 1433.34 1057.02 1426.2 1052.97 1419.92C1052.39 1419.2 1052.39 1418.2 1052.68 1417.35C1052.97 1416.49 1053.84 1415.92 1054.7 1415.63C1057.74 1414.92 1060.92 1414.63 1064.39 1414.63C1070.76 1414.63 1076.98 1415.77 1083.05 1417.06C1084.06 1417.2 1085.08 1417.49 1086.09 1417.63C1115.59 1423.2 1140.18 1435.48 1159.42 1454.19C1164.05 1458.76 1167.08 1462.04 1166.36 1465.61C1165.64 1469.18 1161.73 1471.04 1155.37 1473.47C1115.31 1489.46 1078.28 1500.03 1041.98 1505.6C1031.85 1507.17 1021.58 1508.17 1011.6 1509.17C1009.14 1509.45 1006.83 1509.59 1004.37 1509.88C1004.08 1509.88 1003.65 1510.02 1003.36 1510.02C1002.49 1509.88 1001.33 1510.02 1000.18 1510.02Z" fill="#1F9C89"/>
<path d="M1019.56 1542.3C1015.22 1542.3 1010.88 1542.15 1006.69 1541.72C1005.24 1541.58 1004.08 1540.44 1004.08 1539.01C1004.08 1537.58 1005.09 1536.3 1006.54 1536.16C1016.52 1534.87 1025.49 1529.87 1031.85 1522.16L1033.01 1521.02L1033.44 1520.59C1033.15 1520.59 1032.72 1520.73 1032.14 1520.88C1027.95 1522.3 1023.75 1522.45 1019.7 1522.59C1016.23 1522.73 1013.05 1522.87 1009.87 1523.73C1007.7 1524.3 1005.82 1524.59 1004.08 1524.59C1001.04 1524.59 998.296 1523.73 996.127 1521.88C995.259 1521.16 994.97 1520.16 995.115 1519.16C995.259 1518.16 995.982 1517.31 996.995 1517.02C1003.07 1514.73 1009.43 1514.45 1015.51 1514.16C1018.11 1514.02 1020.86 1513.88 1023.46 1513.59C1060.34 1509.31 1096.65 1500.17 1131.21 1486.46C1141.77 1482.18 1152.33 1477.04 1162.31 1471.32C1164.91 1469.9 1166.79 1469.04 1168.53 1469.04C1172 1469.04 1173.88 1471.89 1175.47 1474.32C1180.25 1481.18 1183.43 1486.46 1182.13 1491.32C1180.97 1496.17 1175.62 1499.31 1168.1 1503.17C1135.7 1520.16 1100.84 1531.59 1064.68 1537.44C1050.22 1540.01 1034.89 1542.3 1019.56 1542.3ZM888.664 1473.04C887.507 1473.04 884.47 1472.61 883.458 1468.04C882.734 1465.47 882.156 1462.61 882.011 1459.76V1459.61C880.71 1421.49 888.664 1388.5 906.31 1358.51C908.335 1355.37 910.504 1352.37 912.674 1349.52L912.963 1349.09C914.12 1347.52 915.855 1344.95 919.182 1344.95C919.616 1344.95 919.905 1344.95 920.339 1345.09C924.678 1345.95 925.257 1350.09 925.546 1352.09V1352.51C926.414 1358.65 927.137 1364.79 928.005 1370.94L928.728 1377.08C928.873 1378.08 928.439 1379.07 927.715 1379.65C927.137 1380.07 926.558 1380.36 925.835 1380.36C925.546 1380.36 925.257 1380.36 924.967 1380.22C924.389 1380.07 923.955 1379.93 923.521 1379.93C922.364 1379.93 921.641 1380.93 920.194 1383.64C919.905 1384.07 919.761 1384.64 919.471 1385.07C908.624 1404.49 901.681 1427.2 897.342 1456.9C897.198 1457.47 897.198 1457.76 898.933 1458.76C900.235 1459.47 900.814 1461.04 900.235 1462.47C898.644 1465.75 896.33 1468.9 893.437 1471.18C891.702 1472.32 890.111 1473.04 888.664 1473.04ZM1142.06 1423.49C1137.87 1423.49 1134.83 1421.34 1132.37 1419.63C1131.36 1418.92 1130.35 1418.2 1129.33 1417.63C1128.47 1417.2 1127.89 1416.35 1127.74 1415.35C1127.6 1414.35 1128.03 1413.35 1128.9 1412.78C1129.77 1412.06 1131.65 1410.63 1131.79 1410.06C1131.94 1409.35 1130.78 1406.78 1130.2 1405.35C1123.69 1390.36 1114.15 1376.65 1105.76 1364.94C1102.87 1361.22 1099.4 1357.8 1095.63 1354.8C1095.2 1354.51 1094.91 1354.23 1094.62 1354.08C1094.48 1354.37 1094.33 1354.8 1094.19 1355.37C1094.04 1356.37 1093.9 1357.37 1093.9 1358.23C1093.9 1359.51 1092.89 1360.65 1091.58 1360.94H1091.01C1089.85 1360.94 1088.84 1360.37 1088.4 1359.23C1085.37 1352.8 1083.63 1345.95 1082.04 1339.23C1081.46 1336.81 1080.74 1334.24 1080.16 1331.67C1079.58 1329.52 1078.42 1325.38 1082.47 1322.81C1083.49 1322.24 1084.5 1321.95 1085.51 1321.95C1087.39 1321.95 1089.13 1322.95 1090.28 1323.53L1090.57 1323.67C1100.12 1328.95 1108.36 1336.09 1115.02 1344.66C1128.32 1361.08 1138.01 1380.65 1142.93 1401.07C1143.22 1402.49 1143.65 1403.92 1144.09 1405.49C1145.39 1410.06 1146.83 1414.77 1146.4 1420.2C1146.26 1421.49 1145.39 1422.63 1143.94 1422.77C1143.51 1423.34 1142.79 1423.49 1142.06 1423.49ZM660.722 1496.31C645.102 1496.17 628.469 1496.03 607.063 1496.03H524.478C523.031 1496.03 521.874 1495.03 521.585 1493.74C521.296 1492.46 522.019 1491.03 523.321 1490.6C534.024 1486.46 544.871 1482.32 555.574 1478.18C568.88 1473.32 581.029 1466.33 591.732 1457.33C594.914 1454.62 598.385 1452.19 601.712 1449.9C603.737 1448.48 605.762 1447.05 607.642 1445.62C614.44 1440.76 620.08 1434.62 624.419 1427.63C626.878 1423.49 629.771 1419.63 632.519 1415.77C638.16 1408.06 643.366 1400.78 646.114 1391.93C646.548 1390.5 647.127 1389.07 647.705 1387.64C648.139 1386.5 648.573 1385.5 648.862 1384.36C649.152 1383.64 649.152 1383.22 649.296 1382.93C648.862 1383.07 648.284 1383.36 647.561 1383.5C640.908 1385.07 635.412 1385.79 630.494 1385.79C619.502 1385.79 610.679 1382.22 603.158 1374.65C600.989 1372.36 597.951 1371.08 594.914 1371.08C594.48 1371.08 593.902 1371.08 593.468 1371.22H593.034C592.022 1371.22 591.009 1370.65 590.431 1369.65C589.852 1368.65 589.997 1367.37 590.864 1366.37L593.757 1363.08C597.518 1358.8 601.278 1356.94 605.617 1356.94C608.654 1356.94 611.836 1357.94 615.741 1359.94C621.382 1362.8 627.167 1364.22 633.387 1364.22C641.197 1364.22 649.73 1361.94 659.71 1357.37C665.061 1354.94 669.545 1351.23 674.318 1347.37C675.475 1346.37 676.777 1345.37 677.934 1344.37C680.103 1342.66 681.983 1341.52 684.008 1341.52C687.769 1341.52 689.36 1345.52 690.083 1347.52C693.699 1357.23 696.157 1367.22 697.459 1377.36C701.654 1405.64 700.497 1432.62 693.988 1457.61C691.819 1465.75 688.492 1476.18 681.694 1485.18C676.198 1492.46 669.545 1495.89 660.722 1495.89C661.156 1496.31 660.722 1496.31 660.722 1496.31ZM402.986 1506.74C367.695 1506.74 332.694 1501.17 299.284 1490.17C284.676 1485.6 270.936 1478.75 258.497 1470.04C250.108 1464.18 249.53 1461.18 254.737 1452.47L255.46 1451.19C258.497 1446.19 261.824 1440.91 267.031 1437.05C267.609 1436.62 268.188 1436.48 268.766 1436.48C269.2 1436.48 269.634 1436.62 270.068 1436.77C271.08 1437.19 271.659 1438.34 271.659 1439.34C271.514 1443.76 273.539 1444.91 275.419 1445.62L277.589 1446.33C288.002 1449.76 297.837 1453.05 308.685 1453.05H309.119C323.727 1452.9 338.624 1452.76 353.377 1452.76H370.588C372.324 1452.76 374.059 1452.62 375.795 1452.47L377.096 1452.19C394.597 1449.05 412.676 1445.91 428.586 1437.19C431.768 1435.34 433.359 1434.2 433.648 1431.63C433.793 1430.48 434.66 1429.63 435.673 1429.34C435.962 1429.2 436.251 1429.2 436.541 1429.2C437.409 1429.2 438.132 1429.48 438.71 1430.2C447.677 1440.05 451.583 1452.05 455.488 1463.76L456.789 1467.61C459.248 1474.75 459.393 1482.03 459.248 1488.75C458.959 1497.03 456.789 1499.88 448.835 1502.03C440.157 1504.17 431.334 1505.6 422.511 1506.02C416.003 1506.6 409.494 1506.74 402.986 1506.74ZM460.839 1449.62C457.223 1449.62 455.632 1446.19 454.186 1443.19C453.607 1442.05 452.884 1440.76 452.306 1439.62C450.281 1436.05 448.256 1432.34 447.677 1427.77C447.533 1426.2 448.545 1424.77 450.136 1424.63C458.091 1423.34 463.876 1417.77 469.517 1412.35C470.385 1411.49 471.253 1410.78 471.976 1409.92C476.315 1405.78 480.799 1401.92 485.138 1398.07C492.803 1391.36 500.758 1384.5 507.556 1376.79C510.882 1372.93 514.498 1369.22 517.969 1365.65C523.61 1359.94 529.395 1353.94 534.168 1347.37C537.639 1342.52 540.387 1337.23 542.702 1331.67C543.569 1329.67 543.569 1328.67 543.28 1328.24C542.991 1327.81 541.689 1327.1 539.23 1326.95C537.495 1326.81 535.759 1326.81 533.879 1326.67C533.011 1326.67 532.143 1326.67 531.276 1326.52C529.829 1326.52 528.672 1325.38 528.527 1323.95C528.383 1322.53 529.395 1321.24 530.842 1320.96C536.627 1319.81 542.268 1319.1 547.474 1319.1C566.421 1319.1 582.476 1326.95 595.203 1342.52C597.084 1344.8 597.807 1346.94 597.518 1349.23C597.228 1351.37 595.927 1353.37 593.757 1354.94C593.323 1355.23 592.889 1355.66 592.455 1355.94C591.732 1356.51 591.009 1357.08 590.141 1357.65C554.995 1380.65 520.862 1406.49 487.886 1431.48C482.245 1435.77 476.749 1439.91 471.108 1444.19C470.674 1444.48 470.385 1444.76 469.951 1445.05C469.372 1445.48 468.649 1446.05 468.071 1446.48C465.033 1448.33 463.009 1449.62 460.839 1449.62ZM370.733 1538.73C366.538 1538.73 362.344 1538.58 358.149 1538.44H356.992C354.823 1538.3 352.075 1538.3 349.616 1536.58C348.604 1535.87 348.17 1534.58 348.459 1533.44C348.893 1532.3 349.905 1531.44 351.207 1531.44C372.613 1531.3 390.403 1530.59 407.469 1522.73C410.073 1521.59 412.676 1521.02 415.424 1520.88C420.486 1520.59 425.404 1519.59 430.466 1518.45L438.71 1516.73C443.194 1515.88 447.677 1514.59 452.016 1513.02C451.727 1512.74 451.583 1512.45 451.438 1512.02C451.004 1511.02 451.149 1510.02 451.872 1509.17C453.029 1507.59 454.764 1506.6 456.645 1506.31C459.248 1504.31 461.996 1504.02 464.021 1504.02C465.033 1504.02 465.901 1504.02 466.914 1504.17C467.348 1504.17 467.781 1504.17 468.215 1504.31C496.564 1505.74 526.503 1506.45 565.409 1506.45C583.777 1506.45 602.435 1506.31 620.514 1506.17C629.337 1506.17 638.015 1506.02 646.838 1506.02C656.817 1505.88 667.086 1505.31 677.066 1504.88L683.574 1504.6C684.587 1504.6 685.599 1504.45 686.467 1504.45C692.976 1504.45 694.856 1507.31 696.302 1513.88C697.315 1518.16 697.893 1522.45 695.434 1525.59C693.12 1528.59 688.781 1529.16 684.731 1529.3C677.789 1529.59 671.714 1529.73 665.929 1529.73C661.012 1529.73 656.528 1529.59 652.044 1529.44C630.928 1528.59 609.956 1528.44 590.286 1528.44H572.641C561.938 1528.44 550.367 1528.44 538.796 1528.3C534.602 1528.3 529.974 1528.16 524.767 1528.16H495.262C488.175 1528.16 482.245 1528.16 476.749 1528.02H474.29C459.827 1528.02 445.363 1530.59 431.334 1533.16L423.958 1534.44C406.457 1537.15 388.522 1538.73 370.733 1538.73Z" fill="#1F9C89"/>
<path d="M54.9981 541.122C54.1303 541.122 53.4072 540.694 52.8286 540.122C49.7914 536.695 47.6218 532.411 46.4648 527.984C43.1382 516.846 43.5721 515.561 53.4072 509.706C62.3744 504.565 69.0276 496.568 72.2095 487.001C73.3666 483.716 74.8129 480.003 79.2965 477.861C91.4457 472.149 97.5203 461.868 98.3881 445.589C98.9667 436.592 99.8345 435.45 108.657 433.736H108.946C125.435 430.309 137.439 419.313 147.708 408.032C148.287 407.318 148.721 406.461 149.01 405.462C149.299 403.891 148.576 402.32 147.13 401.463C146.985 401.463 146.985 401.321 146.84 401.321C146.551 401.178 146.406 401.035 146.406 401.035C146.406 401.035 145.828 401.035 144.526 402.463C138.162 409.032 131.075 414.887 123.265 419.885C116.323 424.311 109.38 426.596 102.438 426.596C95.6401 426.596 89.1316 424.454 83.2017 420.17C70.9078 410.888 65.5564 395.466 69.7508 380.757C77.4163 354.768 94.1938 338.631 119.36 332.919C123.41 332.062 127.459 331.634 131.365 331.634C140.187 331.634 149.154 333.919 157.832 338.488C170.705 345.2 181.842 355.053 190.23 366.763C210.045 394.609 219.302 424.883 217.711 456.87C217.132 467.58 214.673 478.004 210.19 487.857C208.599 491.428 206.429 494.855 201.078 494.855C200.065 494.855 198.908 494.712 197.607 494.426C187.338 492.427 176.779 491.428 166.221 491.428C148.721 491.428 131.365 494.141 114.732 499.567C88.4084 507.992 70.1846 520.844 57.3123 539.98C56.8784 540.694 56.0106 541.122 55.1428 541.265C55.1428 541.122 54.9981 541.122 54.9981 541.122Z" fill="#F7F6F5"/>
<path d="M88.8424 604.811C88.4085 604.811 88.1193 604.811 87.6854 604.668C72.4989 598.528 60.7836 586.247 57.1677 572.538C54.9982 563.97 54.709 550.832 66.4243 536.695C75.3915 525.842 87.1068 517.132 100.124 511.42C121.819 501.566 144.382 496.711 167.523 496.711C179.094 496.711 190.954 497.996 202.813 500.424C216.698 503.28 230.005 509.563 240.997 518.417C261.535 534.982 264.138 557.116 247.794 577.679C243.455 583.534 238.104 588.532 232.029 592.387C231.596 592.673 231.017 592.816 230.438 592.816C229.571 592.816 228.847 592.53 228.269 591.816C225.232 588.389 223.062 584.533 221.182 580.821C220.459 579.393 219.591 577.965 218.868 576.537C218.434 575.823 218.434 574.966 218.723 574.109C219.012 573.252 219.591 572.681 220.459 572.395C221.327 572.11 222.194 571.967 222.918 571.967C224.942 571.967 226.533 572.966 227.69 573.538C228.124 573.823 228.558 574.109 228.847 574.109C228.992 574.109 228.992 574.109 229.137 574.252C229.426 574.395 229.715 574.395 230.005 574.395C230.728 574.395 231.451 573.966 231.885 573.395C232.608 572.395 232.608 571.11 231.885 570.111L231.74 569.968C229.137 566.255 225.087 563.97 221.471 562.256C212.649 557.83 203.103 555.116 193.268 553.974C186.325 553.26 179.528 552.832 172.874 552.832C146.985 552.832 122.687 558.401 100.702 569.397C94.4831 572.395 88.8424 576.108 83.7803 580.535C84.2142 580.392 84.6481 580.392 85.2266 580.392C86.0944 580.392 86.8176 580.535 87.5407 580.821C88.5532 581.249 89.2763 582.249 89.421 583.391C89.421 585.676 89.9995 587.961 90.578 590.531C91.3012 594.101 92.169 597.814 91.7351 601.812C91.5905 602.669 91.1566 603.526 90.2888 603.954C89.8549 604.668 89.421 604.811 88.8424 604.811ZM82.9125 345.629C82.6232 345.629 82.3339 345.629 82.1893 345.486C81.3215 345.2 80.4537 344.486 80.1644 343.629C69.8955 312.499 66.135 287.794 68.0152 263.376C69.7508 241.813 76.1147 224.391 87.6854 210.111C92.7475 203.828 99.256 197.402 108.802 197.402C110.537 197.402 112.418 197.687 114.298 198.116C125.724 200.829 129.195 210.539 131.654 219.25C134.547 229.96 135.414 240.956 136.282 251.523L136.716 257.521C137.005 261.091 137.295 264.804 137.584 268.374C139.03 285.938 140.332 304.216 143.948 322.78C144.092 323.637 143.948 324.494 143.369 325.208C142.791 325.779 142.067 326.208 141.2 326.208H138.018C117.046 326.208 99.6899 332.348 84.9373 344.915C84.2142 345.343 83.6356 345.629 82.9125 345.629ZM67.0028 471.007C62.6638 471.007 58.3248 469.722 54.4197 467.152C47.6219 462.868 42.849 456.442 40.6795 448.73C30.8445 414.887 38.51 384.613 63.6762 358.909L63.9655 358.623C65.2672 357.624 66.5689 356.767 67.8706 356.053C68.3045 355.767 68.883 355.625 69.3169 355.625C70.0401 355.625 70.6186 355.91 71.1972 356.339C72.065 357.195 72.4989 358.481 71.9203 359.623C71.0525 361.765 70.1847 363.764 69.4616 365.621C68.0152 369.048 66.7135 372.047 65.5565 375.045C57.6016 397.037 63.6762 415.315 83.3464 427.881C89.2763 431.594 91.3012 436.021 90.4334 443.018C89.7102 449.016 88.8424 454.871 85.5159 460.154C81.4661 467.009 74.6684 471.007 67.0028 471.007Z" fill="#F7F6F5"/>
<path d="M36.0506 506.279C29.6867 506.279 24.046 503.137 19.2731 496.711C14.5002 490.428 11.6076 483.003 9.72732 472.578C5.82222 451.729 8.13635 430.167 16.5251 410.317C18.2607 405.891 20.7194 401.892 23.7567 398.179C24.3353 397.465 25.2031 397.18 25.9262 397.18C26.2155 397.18 26.6494 397.18 26.9387 397.322C29.5421 398.322 30.1206 400.607 30.2652 401.607C30.2652 401.749 30.4099 402.035 30.4099 402.178C30.8438 402.749 30.8438 403.32 30.8438 404.034C29.3974 413.173 28.6743 422.598 28.6743 431.88C28.9635 445.446 33.7364 458.013 43.2822 469.865C46.7534 474.006 51.2371 477.148 56.4439 478.719C56.8778 478.861 57.3117 479.004 57.6009 479.147C59.3365 479.718 61.506 480.432 63.3863 482.431C64.1094 483.288 64.3987 484.431 63.9648 485.43C60.6382 493.427 54.419 499.996 46.4642 503.709C42.8483 505.422 39.3771 506.279 36.0506 506.279ZM1370.58 1241.99C1367.83 1241.99 1364.8 1241.56 1361.76 1240.7C1349.61 1237.56 1339.2 1229.99 1332.4 1219.42C1328.06 1212.57 1324.3 1205.29 1321.12 1197.72C1315.91 1185.44 1308.82 1174.01 1299.86 1164.02L1299.57 1163.73C1298.41 1162.45 1297.4 1161.3 1296.24 1160.16C1297.4 1163.3 1297.4 1166.02 1296.39 1168.3C1295.08 1171.16 1292.34 1173.16 1288 1174.16C1285.68 1174.73 1283.37 1175.01 1281.05 1175.01C1272.81 1175.01 1265.72 1171.16 1260.37 1164.02C1252.13 1152.88 1251.11 1140.17 1251.11 1130.32C1250.97 1117.18 1254.88 1104.47 1262.11 1093.47C1268.62 1083.48 1276.86 1078.77 1286.98 1078.77C1290.02 1078.77 1293.2 1079.19 1296.67 1080.05C1304.34 1081.91 1312.58 1082.91 1320.83 1082.91C1334.28 1082.91 1348.31 1080.48 1365.09 1075.48C1389.82 1068.06 1409.78 1056.49 1426.12 1040.21C1428.72 1037.64 1430.6 1035.78 1433.21 1035.78C1435.81 1035.78 1437.84 1037.78 1440.3 1040.35C1473.99 1074.91 1489.62 1115.04 1486.72 1159.73C1486.29 1169.73 1483.11 1179.44 1477.47 1187.86C1473.42 1193.72 1470.52 1195.58 1463 1197.29H1462.42C1461.7 1197.29 1460.98 1197 1460.4 1196.58C1459.68 1195.86 1459.39 1195 1459.53 1194.01C1461.7 1179.3 1461.99 1167.3 1456.78 1157.02C1461.7 1170.59 1460.25 1186.44 1452.44 1200.43C1443.62 1216.42 1428.44 1226.99 1411.8 1228.42C1410.65 1228.56 1409.78 1228.56 1408.91 1228.56C1407.17 1228.56 1404.86 1228.42 1403.27 1226.56C1401.53 1224.42 1401.97 1221.28 1402.69 1218.14C1404.43 1210.43 1406.02 1202.29 1403.7 1194.01C1403.12 1191.15 1401.68 1188.72 1399.8 1186.58C1399.65 1186.29 1399.36 1186.15 1399.36 1186.15V1186.44L1399.8 1187.72C1399.94 1188.01 1400.09 1188.44 1400.09 1188.72C1404.57 1203.57 1401.39 1218.14 1390.4 1231.99C1385.62 1238.56 1378.68 1241.99 1370.58 1241.99Z" fill="#F7F6F5"/>
<path d="M1321.99 1078.48C1319.09 1078.48 1316.06 1078.34 1313.16 1078.19C1303.47 1077.77 1293.78 1075.05 1285.39 1070.34C1270.93 1062.2 1265.87 1049.35 1271.08 1033.78C1273.24 1026.36 1277.44 1019.65 1283.22 1014.22C1283.8 1013.65 1284.53 1013.36 1285.25 1013.36C1285.83 1013.36 1286.41 1013.51 1286.98 1013.93C1293.2 1018.5 1294.65 1025.07 1295.08 1029.5C1295.23 1031.64 1293.64 1032.64 1292.63 1033.35C1292.48 1033.5 1292.19 1033.64 1292.05 1033.78C1291.9 1033.78 1291.9 1033.93 1291.76 1033.93C1297.4 1035.93 1303.47 1036.78 1310.7 1036.78C1315.77 1036.78 1320.97 1036.35 1324.88 1035.92C1338.18 1034.35 1351.06 1030.36 1362.92 1024.07C1376.66 1017.08 1389.39 1008.65 1401.24 998.797C1403.99 996.369 1406.74 993.799 1409.2 990.943C1411.37 988.515 1411.22 987.944 1410.79 987.23C1409.78 985.659 1408.91 985.659 1408.62 985.659C1408.19 985.659 1407.9 985.802 1407.32 985.945C1406.02 986.516 1405.01 986.802 1403.99 986.802C1402.69 986.802 1400.38 986.373 1399.08 983.374C1398.06 981.375 1398.21 978.948 1399.51 977.234C1400.38 975.949 1401.97 974.664 1404.57 974.664C1405.73 974.664 1406.74 974.949 1407.61 975.092C1418.6 977.948 1426.85 982.66 1432.92 989.372C1439.72 996.941 1441.16 1006.65 1437.11 1018.07C1433.35 1028.21 1426.99 1036.92 1418.46 1043.49C1389.96 1066.91 1357.57 1078.48 1321.99 1078.48ZM936.827 1339.38C935.381 1339.38 934.079 1338.38 933.935 1336.95C930.753 1312.39 926.848 1287.54 923.087 1263.55C921.93 1255.84 920.628 1247.98 919.471 1240.27C918.025 1231.13 916.434 1220.42 914.843 1209.57C913.686 1201.72 915.711 1198.86 923.666 1197.29L939.575 1194.15C941.456 1193.72 942.757 1193.58 943.914 1193.58C950.134 1193.58 951.291 1199 952.159 1202.57L955.051 1215.28C958.378 1229.56 961.704 1244.27 965.031 1258.84C965.465 1260.55 966.043 1262.26 966.622 1264.12C967.634 1267.12 968.647 1270.26 968.936 1273.83C968.936 1274.69 969.225 1275.4 970.238 1276.11C970.238 1275.69 970.238 1274.97 969.948 1274.12C969.225 1270.4 968.647 1266.55 968.068 1262.83C967.2 1257.12 966.333 1251.27 964.742 1245.7C961.27 1232.7 958.812 1219.14 956.498 1206.14L955.63 1201.14C954.328 1193.43 955.919 1192.15 963.295 1189.72L963.585 1189.58C969.515 1187.72 973.13 1186.44 976.023 1186.44C982.387 1186.44 983.833 1191.43 986.581 1201.29C991.354 1218.42 996.272 1235.56 1001.04 1252.55C1002.06 1256.69 1003.65 1260.69 1005.53 1264.41C1005.96 1265.12 1006.4 1265.4 1006.54 1265.4H1006.69C1007.41 1265.26 1007.84 1264.55 1007.7 1263.98C1007.41 1262.26 1007.12 1260.69 1006.69 1258.98V1258.84C1004.23 1245.7 1000.47 1232.7 996.706 1219.99C994.97 1214 993.09 1207.86 991.499 1201.57C991.065 1200.15 990.776 1198.72 990.342 1197.15C989.908 1195.43 989.474 1193.72 989.04 1192.15C988.317 1189.44 988.461 1187.01 989.619 1185.15C990.776 1183.29 992.656 1182.01 995.404 1181.3C998.441 1180.58 1001.48 1179.72 1004.52 1179.01C1008.13 1178.15 1011.75 1177.3 1015.36 1176.3C1016.38 1176.01 1017.24 1175.87 1018.11 1175.87C1020.28 1175.87 1024.04 1176.73 1025.78 1182.01C1026.64 1185.01 1027.66 1188.15 1028.52 1191.15C1029.1 1193.15 1029.68 1195.29 1030.26 1197.29L1061.94 1308.25C1062.22 1309.39 1061.79 1310.67 1060.92 1311.39C1059.62 1312.24 1058.32 1312.81 1056.73 1312.81C1055.28 1312.81 1054.12 1312.39 1052.97 1312.1C1052.53 1311.96 1052.1 1311.82 1051.67 1311.82C1039.23 1309.1 1027.95 1307.82 1017.24 1307.82C1005.38 1307.82 994.391 1309.39 983.689 1312.67C969.225 1316.96 955.774 1324.67 944.782 1334.81C944.493 1335.09 944.348 1335.38 944.059 1335.52C942.902 1336.81 941.022 1338.8 937.261 1339.23C936.972 1339.38 936.972 1339.38 936.827 1339.38ZM630.783 1356.37C626.444 1356.37 622.105 1355.51 618.056 1353.94C614.006 1352.51 610.535 1349.51 608.799 1345.52C599.398 1326.1 583.054 1314.24 560.202 1310.53H560.058C553.694 1309.53 550.512 1308.96 548.776 1306.39C547.041 1303.82 547.764 1300.68 549.21 1294.96C553.404 1278.11 556.586 1260.84 559.913 1243.98C561.504 1235.7 563.095 1226.99 564.831 1218.57C566.422 1211 567.145 1207.14 574.81 1207.14C576.112 1207.14 577.558 1207.29 579.583 1207.29C585.224 1207.57 591.009 1208.14 596.795 1208.86C604.171 1209.86 606.051 1212.14 605.039 1219.57C604.171 1225.99 603.158 1232.56 602.291 1238.84C601.567 1243.27 600.989 1247.7 600.266 1252.12C599.253 1259.69 598.241 1267.26 597.228 1274.69C596.939 1277.4 596.505 1280.11 596.216 1282.83C596.216 1283.26 596.071 1283.83 596.071 1284.25V1285.54C595.927 1285.97 596.216 1286.4 596.65 1286.54H596.795C596.939 1286.54 597.228 1286.11 597.518 1285.25C597.952 1283.54 598.385 1281.68 598.819 1279.97C600.266 1274.12 601.567 1267.98 602.724 1262.12C604.315 1253.84 605.762 1245.27 607.208 1236.99C608.076 1231.7 609.088 1226.28 610.101 1220.99C611.113 1215.71 611.981 1210.57 619.213 1210.57C620.225 1210.57 621.527 1210.71 623.262 1210.86C624.419 1211 625.721 1211 626.878 1211H631.073C638.304 1211.28 641.342 1214.43 641.197 1221.57C641.052 1229.42 640.618 1237.27 640.184 1243.84C639.317 1256.55 639.027 1266.98 639.461 1276.4C639.461 1278.4 639.606 1280.26 640.04 1281.97C640.184 1282.4 640.618 1282.68 641.197 1282.68C641.342 1282.68 641.631 1282.4 641.775 1282.11V1281.97C642.643 1279.11 643.366 1276.11 643.8 1272.97C644.523 1265.12 644.957 1256.98 645.536 1248.98C645.825 1244.27 646.114 1239.7 646.548 1234.99C646.838 1231.99 646.982 1228.85 647.271 1225.85C647.416 1223.85 647.705 1221.85 647.85 1219.85C648.284 1215 651.321 1212.28 656.239 1212.28H656.962C658.264 1212.28 659.565 1212.43 660.722 1212.43C663.615 1212.57 666.652 1212.57 669.69 1213C678.657 1214 680.682 1216.28 680.682 1225.56C680.682 1234.99 680.393 1244.41 680.248 1253.7C680.103 1257.98 680.103 1262.26 679.959 1266.4V1273.26C680.393 1273.83 680.682 1274.4 680.682 1275.26V1287.4C680.682 1298.53 680.537 1309.96 680.971 1321.1C681.26 1329.38 678.512 1335.38 672.293 1340.23C661.156 1349.37 647.416 1354.66 632.953 1355.65C631.796 1356.37 631.217 1356.37 630.783 1356.37ZM723.493 602.955H722.915C721.902 602.669 721.035 601.955 720.745 600.955C717.419 589.531 715.538 578.536 713.658 567.826C713.369 565.827 712.935 563.685 712.646 561.685C712.067 557.973 710.91 556.973 707.15 556.687C701.798 556.116 696.447 555.973 690.806 555.831C686.323 555.688 681.839 555.688 676.777 555.259C675.62 555.117 674.607 554.403 674.173 553.26C673.884 552.118 674.173 550.833 675.186 550.119C680.248 546.263 685.021 543.835 689.215 541.693L693.554 539.551C697.17 537.552 699.773 536.267 700.207 535.267C700.641 534.268 699.918 531.554 698.906 527.842L698.761 527.413C695.724 515.561 689.794 507.85 680.248 503.423C679.236 502.994 678.657 501.995 678.512 500.852C678.512 499.71 679.091 498.71 680.103 498.282C687.335 494.426 695.434 492.427 703.389 492.427C719.733 492.427 734.485 500.852 742.729 514.847C747.792 523.558 750.829 533.554 752.131 546.406C752.998 557.83 753.143 569.254 752.275 580.535V580.963C752.275 582.82 752.131 586.818 747.358 587.961C739.258 589.96 732.171 594.529 725.663 601.955C725.084 602.669 724.216 602.955 723.493 602.955ZM917.591 609.095C916.434 609.095 915.132 608.809 913.541 607.953C905.442 603.811 896.909 601.098 887.941 599.813C881.144 598.813 880.854 594.101 881.144 590.674C881.722 584.819 882.011 578.679 882.445 572.967C882.59 570.682 882.735 568.254 882.879 565.969C883.024 562.828 883.168 560.4 882.879 559.686C882.445 559.115 879.986 558.258 877.528 557.401C870.585 555.117 863.643 552.975 856.267 550.69L851.349 549.119C850.192 548.833 849.469 547.834 849.324 546.691C849.18 545.549 849.903 544.407 850.915 543.978C856.267 541.265 861.618 540.265 866.825 539.266C869.139 538.837 871.453 538.409 873.623 537.838L874.346 537.695C876.515 537.124 878.685 536.553 878.974 536.124C879.263 535.696 879.408 533.268 879.553 531.412C879.987 520.416 877.962 512.419 873.189 505.136C872.61 504.28 872.61 503.28 872.899 502.423C873.333 501.566 874.056 500.852 875.069 500.71C877.094 500.281 879.119 500.138 881.144 500.138C884.181 500.138 887.074 500.567 889.966 501.424C905.731 505.993 917.157 516.275 923.666 531.983C930.753 548.833 930.03 566.112 928.439 580.678C927.426 588.532 925.835 596.243 923.666 603.669C922.943 604.811 921.786 609.095 917.591 609.095Z" fill="#F7F6F5"/>
<path d="M1497.72 1136.46C1491.5 1099.04 1475.88 1065.91 1447.24 1039.64C1437.11 1030.36 1437.69 1032.36 1443.04 1020.5C1450.57 1004.08 1445.21 988.087 1429.74 978.091C1423.23 973.95 1415.71 971.237 1408.04 970.237C1402.4 969.38 1398.21 967.524 1396.33 961.241C1392.57 949.388 1387.22 938.107 1381.72 926.969C1371.45 905.834 1359.88 885.556 1347.59 865.564C1320.4 821.154 1287.85 781.312 1247.93 747.611C1242.29 742.899 1237.52 736.901 1230.58 733.76C1230.58 731.903 1231.45 730.333 1232.75 729.047C1251.26 707.342 1267.89 684.208 1282.79 659.932C1305.5 622.804 1324.88 584.391 1333.56 541.408C1339.63 511.134 1341.08 481.146 1332.83 451.158C1327.19 430.738 1317.21 412.745 1301.3 398.465C1290.31 388.754 1277.73 381.186 1263.99 375.759C1247.64 369.048 1230.58 363.764 1212.93 363.05C1194.42 362.193 1175.91 361.908 1157.39 364.193C1134.83 366.906 1112.56 371.618 1090.86 378.187C1059.04 388.04 1028.24 399.893 998.875 415.744C995.838 417.457 992.801 419.599 989.04 419.742C990.197 417.029 991.788 414.601 993.813 412.316C1016.67 382.185 1036.77 350.341 1051.96 315.641C1065.99 283.368 1075.82 249.952 1078.71 214.966C1081.32 183.693 1077.84 152.991 1065.84 123.574C1052.68 90.5874 1029.54 62.4557 999.598 42.7493C979.06 29.0405 957.221 18.4733 933.067 12.3328C904.574 5.05003 876.371 -1.80438 846.432 1.62283C831.245 3.19363 816.203 5.47844 801.306 8.62004C757.771 18.1877 716.84 35.1809 676.921 54.1733C640.908 71.3094 607.353 92.301 574.232 114.435C531.131 142.995 491.357 175.696 453.463 210.54C431.334 230.96 410.362 252.523 390.692 275.228C368.563 300.504 348.315 327.35 330.091 355.482C321.268 369.191 312.156 382.899 305.648 397.894C300.875 409.032 296.247 420.313 292.052 431.737C287.569 443.875 282.217 456.013 280.048 468.865C277.3 485.144 275.564 501.424 277.878 518.131C281.494 544.549 293.209 565.969 314.76 581.677C335.298 596.529 359.307 601.527 384.184 602.669C394.308 602.955 404.577 602.526 414.701 601.384C435.818 599.385 456.79 595.529 477.183 589.817C481.088 588.818 485.138 587.818 490.923 586.39C482.1 597.1 473.278 605.097 465.468 613.95C445.797 636.513 427.863 660.789 412.242 686.35C405.734 697.06 400.672 708.341 393.44 718.623C364.224 712.483 337.901 700.059 313.603 683.351C293.932 669.642 276.432 653.363 261.39 634.799C254.158 626.088 247.794 616.806 241.286 607.524C237.236 601.812 237.67 600.956 242.588 596.243C246.637 592.245 250.976 588.532 254.737 584.391C273.539 563.256 272.382 532.411 248.518 512.705C243.6 508.849 238.249 505.422 232.608 502.709C227.401 500.139 227.112 498.425 229.571 493.57C235.79 481.146 237.67 467.58 238.393 454.014C239.116 440.876 236.658 428.024 233.042 415.458C226.099 391.61 215.83 369.476 197.607 351.626C188.061 342.201 176.635 334.776 164.052 329.635C157.543 327.065 154.94 322.781 153.927 316.497C153.06 310.643 152.192 304.788 151.613 298.933C150.022 279.798 146.985 260.805 146.84 241.527C146.696 229.96 144.237 218.536 139.753 207.826C129.195 182.551 100.124 179.266 82.7678 198.402C67.7259 214.824 58.7587 235.672 57.0231 257.806C54.7089 285.51 56.8784 312.785 70.474 338.203C71.9203 340.916 72.2095 342.915 68.883 344.629C55.4321 351.626 46.1756 362.765 38.6546 375.474C36.1959 379.615 32.8693 383.042 28.8196 385.613C21.8772 389.897 16.3811 396.037 12.9099 403.32C2.0624 424.312 -0.685633 446.731 1.33923 469.722C2.0624 480.718 5.24433 491.428 10.5958 500.995C13.3438 505.708 16.5257 510.135 21.5879 512.419C27.8071 515.133 30.5552 519.702 31.5676 525.985C32.8693 534.553 37.7868 542.265 45.1631 547.12C49.0682 549.69 50.2253 552.546 48.6343 556.83C47.4773 560.257 47.3326 563.827 48.2004 567.397C52.3948 588.532 64.544 603.526 84.7926 611.094C91.3011 613.522 94.3384 616.949 96.3633 623.09C102.583 640.797 110.827 657.647 120.951 673.355C143.948 709.484 173.887 739.043 207.876 764.747C240.852 789.595 276.866 810.015 315.194 825.723C329.512 831.578 343.831 837.861 359.017 841.574C358.728 858.71 359.307 875.846 362.778 892.696C368.852 922.399 381.869 948.103 405.445 968.523C426.417 986.802 451.004 995.37 478.051 997.512C501.337 999.511 524.767 997.512 547.33 991.371C551.958 990.086 556.586 987.801 562.372 988.23C561.07 991.657 560.202 994.513 559.19 997.226C551.814 1014.36 546.318 1031.93 544.003 1050.63C540.388 1080.62 544.293 1108.9 559.913 1135.03C561.938 1138.31 564.686 1141.17 564.831 1145.31C562.95 1158.16 560.925 1171.01 558.901 1183.87C555.574 1205.43 552.103 1226.99 548.776 1248.55C546.607 1262.55 544.148 1276.54 542.702 1290.54C541.111 1305.96 541.545 1305.96 526.358 1309.67C504.374 1315.1 485.572 1326.52 467.637 1339.52C451.149 1351.37 434.805 1363.22 418.462 1375.36C412.676 1379.65 407.036 1381.07 399.949 1378.93C395.031 1377.5 389.969 1376.65 384.907 1376.36C367.84 1375.79 350.918 1376.08 334.285 1381.36C297.838 1392.78 267.465 1411.63 248.518 1445.48C246.927 1448.76 243.889 1450.9 240.273 1451.33C234.054 1452.33 228.124 1454.9 223.351 1458.76C211.347 1468.61 210.19 1477.46 219.446 1490.03C232.029 1506.88 248.518 1519.16 266.886 1528.73C294.366 1543.01 324.016 1549.58 354.968 1550.43C375.361 1551.01 395.754 1550.43 415.714 1546.72C425.693 1544.72 435.528 1541.87 444.93 1538.3C449.702 1536.58 454.765 1535.73 459.971 1536.01C472.265 1536.3 484.559 1537.01 496.708 1537.58C527.804 1539.01 559.045 1537.15 590.141 1539.44C603.592 1540.44 617.043 1540.01 630.639 1539.72C649.296 1539.44 667.809 1540.87 686.323 1541.44C696.591 1541.72 700.497 1537.73 702.955 1527.73C705.269 1518.16 704.98 1508.31 702.232 1498.88C700.786 1494.03 701.364 1488.89 703.534 1484.32C706.282 1478.75 708.451 1472.89 709.898 1466.75C714.381 1446.48 716.406 1426.2 713.948 1405.21C711.055 1380.22 705.848 1356.23 691.819 1334.81C689.938 1331.81 688.492 1328.81 689.071 1324.81C692.686 1302.96 691.819 1280.68 693.41 1258.55C694.856 1239.7 692.831 1220.71 695.29 1201.86C723.927 1202.57 752.709 1200.15 780.768 1194.72C815.191 1188.44 848.746 1178.3 880.999 1164.59C885.627 1162.59 890.111 1160.16 895.173 1159.3C895.896 1166.87 896.33 1174.58 897.632 1182.15C900.525 1201.43 902.694 1220.71 906.021 1239.99C910.36 1266.12 913.252 1292.54 917.736 1318.81C918.748 1324.95 917.302 1328.67 913.397 1332.95C902.694 1344.52 894.016 1357.94 888.086 1372.51C880.42 1391.07 875.503 1410.78 873.478 1430.77C871.887 1446.05 872.466 1460.9 876.949 1475.46C878.974 1481.03 877.962 1487.32 874.491 1492.03C868.994 1500.17 864.8 1509.17 862.197 1518.59C859.159 1529.59 862.197 1534.87 873.189 1537.73C879.553 1539.44 885.917 1540.87 892.28 1542.44C928.005 1551.43 964.452 1556.43 1001.33 1557.29C1024.33 1557.72 1047.47 1556 1070.18 1552.29C1100.84 1547.58 1130.35 1539.3 1157.83 1524.59C1170.55 1517.88 1182.56 1510.16 1192.68 1499.74C1196.59 1495.74 1198.61 1491.6 1196.3 1486.17C1195.29 1484.03 1194.71 1481.75 1193.7 1479.61C1186.9 1464.18 1176.92 1450.9 1165.06 1439.05C1161.44 1435.48 1158.98 1431.05 1158.12 1426.06C1152.33 1397.07 1141.92 1369.79 1124.13 1345.66C1114.73 1333.09 1103.88 1321.81 1088.84 1316.38C1080.59 1313.39 1077.27 1308.53 1075.24 1300.68C1068.3 1273.97 1061.07 1247.41 1053.55 1220.99C1041.11 1177.87 1028.24 1134.74 1015.51 1091.62C1017.68 1088.76 1020.28 1086.33 1023.32 1084.33C1040.38 1071.48 1057.31 1058.34 1072.78 1043.49C1087.39 1029.5 1101.13 1014.79 1114.29 999.368C1132.37 978.091 1148.14 955.1 1161.3 930.539C1172.87 909.118 1180.97 886.128 1185.16 862.137C1185.6 859.71 1185.45 857.282 1188.78 856.996C1199.48 870.562 1210.62 883.7 1220.6 897.694C1242.44 928.825 1261.53 961.812 1277.44 996.227C1284.38 1011.08 1283.95 1010.08 1274.11 1020.93C1266.45 1029.36 1262.11 1039.21 1262.83 1050.92C1263.41 1057.2 1265.72 1063.2 1269.77 1068.06C1272.23 1071.34 1272.67 1074.34 1268.33 1076.91C1257.62 1083.19 1252.27 1093.33 1248.37 1104.47C1241.43 1124.32 1241.43 1144.02 1251.12 1162.87C1260.52 1181.15 1275.12 1185.01 1292.77 1174.58C1298.99 1170.87 1298.84 1171.01 1302.61 1177.58C1309.11 1189.01 1313.45 1201.29 1318.51 1213.28C1327.92 1235.42 1343.25 1249.7 1368.41 1252.27C1375.79 1252.98 1383.46 1252.98 1387.79 1248.13C1396.33 1238.84 1406.6 1237.56 1418.02 1236.27C1431.04 1234.7 1441.31 1227.28 1449.55 1217.42C1453.17 1213 1458.23 1210.14 1463.87 1209.14C1476.6 1206.71 1485.13 1198.86 1491.21 1188.01C1500.32 1171.44 1500.46 1153.59 1497.72 1136.46ZM70.9079 263.661C72.3542 244.669 77.7056 227.104 89.9995 211.968C96.0741 204.542 103.016 198.259 113.575 200.829C123.41 203.257 126.447 211.396 128.761 219.964C132.088 232.388 132.666 245.097 133.679 257.806C135.414 279.369 136.571 300.932 141.055 323.352C119.505 322.781 100.124 328.064 82.9124 342.773C74.0898 316.069 68.7384 290.365 70.9079 263.661ZM65.8457 360.908C67.0028 360.051 68.1598 359.195 69.4615 358.481C66.8581 364.764 64.6886 369.333 63.0977 373.903C54.8536 396.894 61.3621 416.886 82.0446 430.024C87.2514 433.308 88.5531 436.878 87.83 442.447C87.1068 448.016 86.3836 453.586 83.3463 458.441C77.4163 468.151 65.8457 470.722 56.1553 464.581C50.0807 460.726 45.597 454.728 43.5722 447.874C33.7371 414.744 41.5473 385.756 65.8457 360.908ZM21.5879 494.998C16.3811 488.143 14.067 480.432 12.6206 472.15C8.71554 451.729 11.0297 430.595 19.1291 411.46C20.7201 407.318 23.0342 403.463 25.9269 400.036C26.2162 398.465 27.084 397.037 28.5303 397.322C30.4105 397.608 29.5427 399.464 29.2535 400.75C28.9642 401.749 28.3857 402.892 27.8071 403.748C26.3608 413.03 25.6376 422.455 25.6376 432.023C25.9269 447.16 31.5676 460.154 40.9688 471.864C44.7292 476.576 49.936 480.004 55.5767 481.717C57.6016 482.431 59.6265 482.717 61.3621 484.573C58.3248 491.999 52.5394 497.854 45.1631 501.281C35.6173 505.565 27.9518 503.423 21.5879 494.998ZM49.0682 527.128C45.8863 517.132 45.8863 517.132 54.7089 511.991C64.1101 506.565 71.3417 497.997 74.6683 487.715C75.6807 484.573 76.9825 481.86 80.309 480.289C95.0616 473.292 100.268 460.726 101.136 445.589C101.57 437.735 101.57 437.878 109.38 436.307C126.447 432.737 138.596 421.884 149.733 409.746C150.745 408.604 151.324 407.318 151.613 405.748C152.047 403.034 150.89 400.321 148.431 398.75C145.973 396.894 143.803 398.465 142.212 400.178C135.993 406.604 129.05 412.316 121.53 417.172C108.802 425.454 95.7848 425.597 84.7926 417.457C73.5112 409.032 68.5937 394.609 72.3542 381.043C79.4412 357.053 94.4831 340.916 119.939 335.204C132.811 332.348 144.815 334.347 156.386 340.488C168.969 347.057 179.672 356.481 187.772 367.905C206.574 394.324 216.409 423.598 214.818 456.156C214.239 466.438 211.781 476.719 207.586 486.144C205.706 490.428 203.826 492.142 198.185 491.142C170.126 485.716 141.055 487.572 113.864 496.426C90.2887 503.994 69.6062 515.989 54.8536 537.838C52.1055 534.839 50.2253 531.126 49.0682 527.128ZM221.182 575.251C224.075 574.252 225.665 576.394 227.69 577.108C230.004 578.107 232.608 577.393 234.054 575.394C235.501 573.395 235.501 570.682 233.91 568.825C231.017 564.827 226.967 562.399 222.628 560.257C213.516 555.688 203.681 552.832 193.557 551.689C160.725 548.262 129.05 552.689 99.256 567.397C92.4582 570.682 86.239 574.823 80.7429 579.821C79.4412 580.963 77.7056 581.963 78.4288 584.248C81.0322 586.39 83.3463 582.82 86.3836 583.962C86.5283 589.96 89.2763 595.672 88.6977 602.098C63.9654 592.102 47.3326 564.541 68.5937 538.695C77.4164 528.127 88.5531 519.702 101.136 514.133C133.534 499.425 167.234 495.997 201.946 503.28C215.541 506.136 228.124 511.991 238.827 520.702C258.208 536.267 260.522 556.545 245.191 575.965C241.141 581.535 235.934 586.39 230.149 590.103C226.533 585.533 224.364 580.392 221.182 575.251ZM551.958 1295.82C558.177 1270.55 562.372 1244.84 567.579 1219.28C569.459 1209.86 569.603 1209.86 579.294 1210.43C584.935 1210.71 590.72 1211.28 596.361 1212C602.001 1212.71 602.869 1213.57 602.146 1219.57C600.7 1230.42 598.819 1241.27 597.373 1251.98C595.927 1262.26 594.625 1272.55 593.323 1282.83C593.179 1283.68 593.179 1284.54 593.179 1285.54C592.889 1287.4 593.902 1289.25 595.782 1289.82C598.241 1290.4 599.687 1288.68 600.266 1286.54C602.001 1278.69 603.882 1270.97 605.473 1263.12C608.076 1249.41 610.39 1235.7 612.849 1221.99C614.295 1214.28 615.163 1213.43 622.829 1214.28C625.577 1214.57 628.18 1214.43 630.783 1214.43C636.424 1214.71 638.16 1216.28 638.16 1222.14C638.015 1229.56 637.581 1236.99 637.147 1244.27C636.424 1255.27 635.99 1266.12 636.424 1277.11C636.424 1279.11 636.569 1281.26 637.003 1283.26C637.437 1285.11 639.172 1286.25 641.052 1286.25C642.643 1286.11 643.945 1285.11 644.379 1283.54C645.391 1280.4 646.115 1277.26 646.404 1274.12C647.416 1261.41 648.284 1248.7 649.152 1235.99C649.441 1230.99 650.02 1225.99 650.453 1220.99C650.743 1217.28 652.912 1215.85 656.384 1216C660.578 1216.14 664.772 1216.14 668.967 1216.71C676.487 1217.57 677.355 1218.57 677.355 1226.42C677.355 1239.99 676.921 1253.7 676.632 1267.26V1276.12H677.355C677.355 1291.54 677.066 1306.82 677.5 1322.24C677.789 1329.38 675.62 1334.52 669.979 1339.09C659.276 1347.8 646.115 1352.94 632.23 1353.8C627.746 1353.94 623.262 1353.23 619.068 1351.51C615.597 1350.37 612.849 1347.94 611.402 1344.66C601.134 1323.52 583.922 1311.82 560.636 1308.1C549.644 1306.1 549.499 1306.1 551.958 1295.82ZM424.102 1387.5C431.334 1381.36 438.71 1375.22 445.942 1369.08C462.43 1355.23 480.075 1343.09 499.746 1333.81C509.725 1329.09 519.994 1324.81 531.131 1323.81C558.756 1318.1 578.281 1326.95 592.6 1344.52C595.204 1347.66 595.059 1350.37 591.732 1352.8C590.575 1353.66 589.418 1354.66 588.117 1355.51C546.896 1382.36 507.99 1412.49 468.794 1442.05C467.782 1442.76 466.914 1443.48 465.901 1444.19C460.261 1447.9 459.393 1447.76 456.5 1441.91C454.186 1437.19 450.86 1432.77 450.136 1427.34C441.314 1416.2 433.359 1404.35 422.511 1394.78C419.474 1391.93 421.788 1389.5 424.102 1387.5ZM257.196 1453.9C260.377 1448.62 263.559 1443.05 268.766 1439.34C273.539 1431.48 280.626 1426.06 287.569 1420.63C315.917 1398.78 348.17 1389.07 384.039 1391.78C392.138 1392.64 399.949 1394.35 407.614 1397.07C409.35 1397.5 410.941 1398.35 412.242 1399.49C422.078 1409.06 430.9 1419.49 436.396 1432.05C445.942 1442.48 449.558 1455.76 453.897 1468.61C456.066 1475.18 456.356 1482.03 456.066 1488.74C455.777 1495.88 454.475 1497.6 447.678 1499.45C439.289 1501.6 430.611 1502.88 421.933 1503.31C380.568 1505.74 339.058 1500.31 299.718 1487.46C285.399 1482.89 271.948 1476.18 259.654 1467.61C253.001 1462.61 252.712 1461.47 257.196 1453.9ZM684.442 1526.02C673.595 1526.44 662.892 1526.59 652.045 1526.16C614.295 1524.59 576.546 1525.59 538.797 1525.02C518.114 1524.73 497.431 1525.3 476.749 1524.87C458.525 1524.44 441.024 1528.3 423.379 1531.44C401.829 1535.01 379.989 1536.44 358.15 1535.58C355.835 1535.44 353.377 1535.58 351.207 1534.16C308.83 1530.87 270.357 1518.45 239.261 1488.32C235.934 1484.89 232.753 1481.32 229.86 1477.61C227.546 1474.61 228.269 1472.18 231.451 1470.32C241.286 1464.75 244.323 1465.04 251.266 1471.47C266.307 1485.46 285.254 1493.31 304.491 1500.17C345.856 1514.73 390.114 1519.45 433.648 1514.16C440.446 1513.31 447.244 1511.88 453.897 1510.74C454.765 1509.59 456.066 1508.88 457.513 1508.88C460.405 1506.02 464.166 1506.74 467.637 1506.88C527.226 1510.02 586.815 1508.88 646.548 1508.59C658.842 1508.45 671.136 1507.74 683.285 1507.02C690.228 1506.59 691.385 1507.31 692.976 1514.16C695.29 1523.02 693.699 1525.59 684.442 1526.02ZM695.001 1378.07C699.05 1404.64 698.472 1431.05 691.529 1457.19C689.071 1466.61 685.744 1475.75 679.669 1483.75C674.897 1490.03 669.256 1493.31 660.723 1493.31C622.395 1492.89 584.067 1493.17 545.739 1493.17H524.478C508.568 1494.31 492.803 1494.74 476.894 1494.89C469.083 1494.89 469.083 1494.89 468.505 1487.03C468.216 1482.89 467.926 1478.75 467.203 1474.61C466.335 1469.32 467.926 1465.9 472.41 1462.61C498.589 1442.91 524.623 1422.91 550.657 1402.78C560.781 1394.92 570.471 1386.5 580.451 1378.5C584.645 1375.08 588.406 1371.22 593.179 1368.65L596.071 1365.37C601.567 1359.22 606.774 1358.65 614.584 1362.79C630.06 1370.93 645.97 1367.36 661.156 1360.37C668.388 1357.08 674.029 1351.8 680.103 1346.94C684.442 1343.52 685.889 1343.8 687.914 1348.8C691.24 1358.37 693.699 1368.22 695.001 1378.07ZM908.624 1359.94C910.504 1356.94 912.529 1354.08 914.843 1351.23C916 1349.51 917.302 1347.37 919.761 1347.8C922.22 1348.23 922.364 1350.66 922.653 1352.8C923.81 1360.94 924.823 1369.22 925.835 1377.36C929.162 1388.78 929.451 1400.64 931.331 1412.35C932.199 1417.34 932.633 1422.34 933.212 1427.34C933.646 1430.48 933.212 1433.2 930.319 1435.05C918.459 1442.62 908.335 1452.33 897.487 1461.04C896.186 1464.04 894.161 1466.61 891.557 1468.75C889.243 1470.75 887.074 1470.75 886.351 1467.32C885.627 1464.75 885.193 1462.18 884.904 1459.47C883.458 1424.2 890.4 1390.78 908.624 1359.94ZM1173.01 1476.18C1182.85 1490.6 1182.13 1492.89 1166.79 1500.88C1134.69 1517.59 1100.12 1529.16 1064.25 1534.87C1045.45 1538.01 1026.36 1540.72 1006.97 1538.87C978.916 1540.44 951.435 1536.44 923.955 1531.3C911.372 1528.87 898.789 1525.73 886.64 1521.73C884.615 1521.02 882.59 1520.45 880.71 1519.59C876.805 1518.02 876.082 1515.31 878.396 1511.88C881.288 1507.74 884.181 1503.6 886.929 1499.45C889.532 1495.6 892.57 1495.88 896.041 1498.46C913.397 1511.31 933.79 1515.59 954.762 1518.16C969.081 1519.88 983.544 1518.73 997.863 1519.88C1006.25 1516.88 1015.07 1517.59 1023.61 1516.59C1060.78 1512.31 1097.37 1503.02 1132.08 1489.32C1142.93 1484.89 1153.34 1479.89 1163.47 1474.04C1168.82 1471.04 1169.83 1471.47 1173.01 1476.18ZM1154.36 1470.61C1117.91 1485.17 1080.59 1496.6 1041.69 1502.6C1029.25 1504.45 1016.81 1505.6 1004.23 1506.74C1001.33 1507.02 998.152 1507.74 995.549 1505.6C969.225 1508.45 943.77 1504.74 918.893 1496.17C914.12 1494.46 909.492 1492.17 905.442 1489.17C900.091 1485.17 899.946 1484.03 904.43 1479.46C908.19 1475.61 911.951 1471.89 916.145 1468.47C947.386 1441.91 985.569 1424.63 1026.36 1418.77C1032.86 1417.77 1039.37 1417.49 1046.03 1416.92C1049.35 1416.63 1052.68 1416.63 1055.72 1418.34C1065.99 1415.92 1075.96 1418.34 1085.8 1420.2C1113.14 1425.34 1137.58 1436.48 1157.68 1456.04C1166.36 1464.75 1166.07 1466.04 1154.36 1470.61ZM1084.21 1325.67C1085.94 1324.52 1087.68 1325.81 1089.27 1326.67C1098.38 1331.81 1106.48 1338.66 1112.85 1346.8C1126.01 1363.08 1135.41 1381.93 1140.18 1402.21C1141.63 1408.21 1144.09 1413.92 1143.65 1420.49C1137.72 1421.49 1134.69 1417.2 1130.64 1415.06C1123.4 1412.35 1116.17 1409.63 1108.8 1407.06C1105.61 1406.06 1103.16 1403.49 1102.43 1400.21C1098.82 1386.21 1093.47 1372.65 1091.15 1358.37C1087.1 1349.8 1085.51 1340.38 1083.05 1331.24C1082.62 1329.38 1081.89 1327.09 1084.21 1325.67ZM1065.84 1331.38C1071.48 1351.09 1077.27 1370.65 1082.91 1390.21C1082.91 1390.5 1083.05 1390.78 1083.2 1391.07C1085.37 1400.35 1084.5 1401.21 1074.66 1400.21C1070.18 1399.78 1065.7 1398.92 1061.21 1398.78C1026.93 1398.21 993.813 1403.49 962.428 1417.77C961.849 1418.06 961.271 1418.2 960.692 1418.49C952.882 1421.63 951.146 1420.91 949.844 1412.92C947.82 1401.21 945.939 1389.64 944.059 1377.93C943.191 1372.65 942.902 1367.22 941.6 1362.22C940.299 1357.23 942.034 1353.8 945.072 1350.09C960.547 1331.38 980.796 1321.81 1004.66 1318.81C1009.14 1318.24 1013.63 1318.67 1018.11 1318.67C1031.71 1317.96 1044.87 1320.67 1058.03 1323.95C1062.08 1325.1 1064.68 1327.09 1065.84 1331.38ZM1015.94 1179.01C1019.56 1178.01 1021.73 1179.58 1022.74 1182.87C1024.33 1188.01 1025.63 1193.15 1027.22 1198.15C1037.78 1235.13 1048.34 1272.12 1058.9 1308.96C1056.58 1310.67 1054.27 1309.24 1052.1 1308.82C1028.96 1303.82 1005.82 1302.68 982.821 1309.53C967.924 1313.96 954.184 1321.81 942.757 1332.38C941.311 1333.81 940.299 1335.81 936.972 1336.09C932.778 1303.53 927.426 1271.4 922.364 1239.27C920.773 1228.99 919.327 1218.85 917.736 1208.57C916.723 1202.14 917.736 1200.86 924.244 1199.57L940.154 1196.43C946.373 1195.15 947.82 1196.15 949.266 1202.72C953.605 1221.42 957.944 1240.13 962.138 1258.84C963.295 1263.69 965.61 1268.26 965.899 1273.4C966.043 1276.26 968.068 1277.97 970.816 1279.26C973.564 1277.69 973.13 1274.97 972.697 1272.97C970.816 1263.41 969.949 1253.84 967.345 1244.27C963.44 1229.71 960.981 1214.85 958.233 1200C957.076 1194.01 957.655 1193.86 964.308 1191.72C979.494 1186.87 979.494 1186.86 983.689 1201.57C988.462 1218.71 993.235 1235.85 998.152 1252.84C999.164 1257.12 1000.76 1261.26 1002.92 1265.26C1003.94 1266.83 1005.24 1268.26 1007.26 1267.69C1009.43 1267.26 1010.88 1265.12 1010.45 1262.98C1010.16 1261.26 1009.87 1259.55 1009.43 1257.84C1005.82 1238.27 999.309 1219.57 994.247 1200.43C993.379 1197.29 992.801 1194.15 991.788 1191.01C990.631 1187.15 992.077 1184.58 995.983 1183.58C1002.64 1182.3 1009.29 1180.72 1015.94 1179.01ZM1177.93 758.464C1173.88 762.463 1170.27 766.747 1166.22 770.745C1158.98 777.742 1157.25 785.739 1160.58 795.021C1166.07 810.444 1168.1 826.866 1166.51 843.145C1164.05 870.277 1155.66 895.695 1143.07 919.971C1124.71 955.386 1100.41 986.516 1072.06 1014.51C1020.14 1066.2 958.956 1107.75 891.557 1137.17C851.928 1154.59 811.43 1168.59 768.474 1175.58C747.503 1179.01 726.241 1180.72 705.125 1180.87C679.235 1180.58 648.573 1176.58 620.659 1162.02C589.708 1146.02 569.17 1121.75 564.541 1086.48C561.215 1061.91 564.831 1038.07 574.087 1015.08C578.426 1004.08 583.054 993.085 587.683 982.232C589.997 976.52 591.877 970.808 587.104 965.667C581.897 960.241 575.533 960.384 568.88 962.669C553.694 967.952 537.929 972.093 522.019 974.949C498.299 979.519 473.856 977.948 450.86 970.665C424.102 962.097 405.445 943.676 393.151 918.972C385.196 903.121 381.725 885.985 380.568 868.42C377.53 823.581 388.378 781.455 406.746 741.043C432.925 683.494 470.24 633.942 516.668 590.817C521.73 586.104 526.792 581.535 531.565 576.679C537.929 570.253 539.231 564.827 536.049 559.401C532.867 553.974 527.226 552.261 518.693 554.831C510.448 557.259 502.06 559.972 493.96 562.685C459.971 574.109 425.404 581.963 389.246 581.677C374.059 581.535 359.307 579.678 345.133 574.395C315.627 563.256 300.73 541.408 298.127 510.991C296.391 490.999 300.007 471.721 306.226 452.443C324.305 397.037 355.546 349.199 392.717 305.073C473.856 208.683 570.761 131.143 683.864 74.0226C721.758 54.8873 761.098 38.8937 802.897 29.1833C819.819 25.0421 837.03 22.4717 854.386 21.3293C888.086 19.4729 919.905 28.1837 950.712 39.7505C975.589 48.8897 997.863 63.7409 1015.94 83.1618C1047.47 117.434 1060.34 158.275 1058.32 203.971C1056.01 255.807 1038.07 302.789 1012.47 347.342C995.693 376.616 975.3 403.177 953.316 428.881C950.568 432.023 948.109 435.307 945.361 438.449C941.89 442.447 941.745 446.731 943.625 451.729C948.109 463.296 955.774 463.724 963.874 458.726C986.726 444.589 1010.59 432.023 1035.18 421.027C1072.93 404.32 1111.98 390.611 1153.34 385.47C1173.59 382.9 1193.84 381.329 1214.38 383.756C1235.64 386.184 1256.03 393.038 1274.26 404.034C1297.4 418.171 1309.26 439.734 1315.04 465.438C1320.83 491.142 1318.23 515.989 1312.44 541.122C1306.37 567.112 1296.96 592.245 1284.24 615.664C1255.89 668.643 1220.16 715.91 1177.93 758.464ZM988.895 419.456C988.751 419.742 988.606 420.17 988.606 420.17C988.028 420.028 988.172 419.742 988.895 419.456ZM1273.82 1034.93C1275.85 1027.93 1279.9 1021.65 1285.1 1016.5C1289.88 1019.93 1291.47 1024.79 1292.05 1030.07C1292.05 1030.5 1290.75 1031.21 1290.02 1031.64C1289.3 1033.07 1287.42 1033.78 1287.85 1035.64C1299.86 1040.64 1312.44 1040.07 1325.02 1038.78C1338.76 1037.21 1352.07 1033.07 1364.22 1026.64C1378.1 1019.5 1391.12 1010.94 1402.98 1001.08C1405.87 998.511 1408.77 995.798 1411.22 992.942C1412.96 990.943 1414.84 988.658 1412.96 985.802C1411.37 983.375 1408.91 982.232 1406.02 983.517C1404.14 984.231 1402.55 984.517 1401.53 982.375C1400.96 981.233 1401.1 979.947 1401.68 978.948C1402.98 977.234 1404.86 977.52 1406.6 978.091C1415.71 980.519 1424.1 984.374 1430.46 991.514C1437.4 999.225 1437.26 1008.22 1434.08 1017.36C1430.61 1026.93 1424.39 1035.21 1416.29 1041.49C1386.35 1065.91 1351.93 1077.34 1313.16 1075.34C1303.91 1074.91 1294.79 1072.48 1286.55 1067.91C1273.39 1060.63 1268.91 1049.21 1273.82 1034.93ZM1483.98 1159.3C1483.54 1168.87 1480.5 1178.01 1475.15 1186.01C1471.54 1191.29 1469.37 1192.58 1462.42 1194.15C1465.32 1175.3 1465.75 1156.88 1448.83 1142.31C1447.09 1147.17 1450.28 1149.74 1451.72 1152.45C1467.2 1181.72 1444.92 1222.42 1411.51 1225.42C1405.15 1225.99 1404.14 1224.99 1405.58 1218.57C1407.46 1210.14 1408.91 1201.72 1406.6 1193.15C1405.87 1190.01 1404.28 1187.01 1402.11 1184.58C1401.1 1183.58 1399.8 1182.44 1398.21 1183.29C1396.62 1184.15 1396.47 1185.58 1396.76 1187.15L1397.63 1189.72C1402.26 1205 1397.92 1218.42 1388.52 1230.42C1382.01 1238.7 1372.75 1240.84 1362.63 1238.13C1351.2 1235.13 1341.22 1227.99 1335 1218.14C1330.66 1211.28 1327.05 1204.14 1324.01 1196.72C1318.66 1184.15 1311.43 1172.44 1302.32 1162.16C1299.42 1158.88 1296.53 1155.45 1292.19 1153.88C1290.75 1156.02 1292.05 1157.45 1292.91 1158.88C1296.39 1165.44 1294.65 1169.59 1287.71 1171.3C1278.02 1173.73 1269.19 1170.59 1263.12 1162.3C1256.03 1152.74 1254.3 1141.6 1254.3 1130.32C1254.15 1117.75 1257.77 1105.47 1264.71 1095.04C1272.52 1083.19 1282.36 1079.34 1296.1 1082.76C1319.96 1088.62 1343.25 1085.05 1366.1 1078.05C1389.53 1070.91 1410.79 1059.49 1428.29 1042.07C1433.06 1037.35 1433.5 1037.21 1438.27 1042.07C1470.24 1074.77 1486.87 1113.32 1483.98 1159.3Z" fill="#2C2729"/>
<path d="M725.953 645.367C726.676 646.795 727.544 648.937 729.279 647.509C730.726 646.223 729.279 644.51 728.122 643.367C727.544 641.083 726.821 638.798 726.531 636.513C723.928 619.948 732.606 604.954 747.648 599.528C761.822 594.387 778.889 600.527 787.711 613.665C788.579 614.95 788.579 617.235 791.182 617.378C792.34 611.523 790.604 606.382 787.422 601.527C782.938 594.387 775.996 589.246 767.897 586.676C764.425 585.533 763.413 583.82 763.558 580.25C763.991 571.396 764.136 562.542 763.847 553.689C763.268 540.408 760.954 527.271 755.313 514.99C747.937 498.996 735.933 488.286 718.432 483.86C690.952 476.862 662.893 488.572 648.429 513.134C637.727 531.126 636.136 550.547 638.884 570.682C640.909 583.534 644.524 596.101 649.587 608.096C651.033 611.809 651.178 614.522 648.14 617.663C643.946 621.947 641.053 627.231 639.607 633.086C638.305 634.371 637.293 636.085 638.884 637.227C639.896 637.941 641.342 636.656 641.776 635.085C663.182 615.379 689.361 609.524 718.143 609.524C715.684 622.947 715.829 635.371 725.953 645.367ZM715.395 561.115C714.527 556.259 712.502 554.26 707.44 553.689C698.039 552.689 688.493 553.118 676.922 552.404C683.431 547.406 689.361 545.121 694.857 542.122C704.403 536.981 704.258 537.124 701.655 526.7C698.762 515.276 692.976 506.136 681.55 500.853C703.245 489.429 728.556 496.283 740.272 516.418C745.768 525.843 748.226 536.124 749.239 546.834C750.107 557.973 750.251 569.254 749.384 580.535C749.239 582.535 749.383 584.677 746.635 585.248C737.379 587.533 730.003 592.673 723.35 600.099C719.444 586.676 717.709 573.824 715.395 561.115ZM851.784 679.068C852.073 678.211 851.495 677.354 850.627 677.068C850.338 676.354 850.048 674.926 849.759 675.069C848.168 675.212 848.602 676.354 848.747 677.354V680.924C848.168 682.923 848.602 685.208 850.048 686.779C850.627 690.777 852.941 693.776 855.255 696.775C856.412 698.346 858.148 699.774 857.28 702.201C846.866 707.913 836.887 714.482 825.75 719.052C796.389 731.19 766.306 736.616 734.631 728.905C722.337 725.906 710.911 721.051 699.196 716.624C696.882 714.482 693.7 713.34 690.518 713.34C691.241 715.767 693.121 717.624 695.435 718.48C705.994 728.191 718.287 735.759 731.738 740.9C741.573 744.756 742.296 746.041 738.97 756.18C737.524 760.749 734.486 764.605 730.292 767.032C728.412 768.175 725.374 768.032 724.94 771.174C729.279 775.315 734.486 778.314 740.127 780.17C775.851 792.879 809.262 788.31 838.911 764.748C855.978 751.324 863.499 733.189 861.04 711.34C861.908 709.056 860.317 706.342 861.908 704.058C874.925 710.198 876.372 710.484 884.76 708.77C862.342 694.49 860.607 692.919 851.784 679.068ZM944.638 630.944C943.048 627.088 940.444 623.661 937.118 621.091C932.055 617.235 931.766 613.237 933.502 607.525C940.155 586.676 942.614 565.398 938.419 543.693C934.514 523.272 924.824 506.565 906.021 496.14C888.521 486.43 870.731 486.287 853.086 496.426C835.44 506.565 826.328 522.273 821.555 540.98C816.638 560.686 817.217 580.821 819.097 600.956C819.675 606.668 819.097 611.523 813.89 614.807C812.154 615.379 810.853 616.807 810.274 618.663C809.551 618.949 809.262 619.52 809.696 619.948C810.853 620.662 811.865 620.091 812.588 619.091C813.89 618.949 815.192 618.092 815.915 617.092C821.845 615.236 827.775 612.808 833.849 611.666C872.177 604.811 908.191 610.523 941.312 631.372C942.18 632.657 943.047 634.514 945.072 633.657C946.374 633.086 945.796 631.658 944.638 630.944ZM925.258 580.107C924.245 587.675 922.799 595.244 920.629 602.669C919.617 605.954 918.315 607.096 914.989 605.383C906.745 601.241 897.777 598.385 888.521 597.1C884.471 596.529 883.748 594.53 884.182 591.103C884.905 582.82 885.339 574.538 885.917 566.255C886.496 557.687 886.496 557.545 878.541 554.831C870.008 551.975 861.474 549.405 852.218 546.549C859.594 542.836 867.115 542.408 874.347 540.551C882.012 538.552 882.012 538.838 882.301 531.412C882.735 521.844 881.434 512.562 875.359 503.423C879.843 502.566 884.471 502.709 888.955 503.994C904.43 508.421 914.699 518.417 920.919 532.983C927.138 548.262 927.138 564.113 925.258 580.107Z" fill="#2C2729"/>
</g>
</svg>
