<svg width="1229" height="1412" viewBox="0 0 1229 1412" fill="none" xmlns="http://www.w3.org/2000/svg">
<mask id="mask0_1_2857" style="mask-type:luminance" maskUnits="userSpaceOnUse" x="269" y="238" width="960" height="1174">
<path d="M1229 238.508H269.73V1411.78H1229V238.508Z" fill="white"/>
</mask>
<g mask="url(#mask0_1_2857)">
<path d="M306.768 558.44C305.567 562.213 305.232 566.202 305.786 570.119C307.073 566.312 305.405 562.247 306.768 558.44Z" fill="#F4DD90"/>
<path d="M306.77 558.44C305.45 562.247 307.076 566.312 305.789 570.119C307.817 566.376 307.217 562.397 306.77 558.44ZM883.449 1143.93C882.358 1141.12 883.961 1139.72 886.164 1138.55C884.365 1138.92 883.852 1138.11 884.223 1136.47C881.976 1137.96 881.224 1140.37 880.362 1142.7C881.856 1141.83 882.358 1143.55 883.449 1143.93Z" fill="#F4DD90"/>
<path d="M880.318 1142.74L883.405 1143.93C882.358 1143.55 881.856 1141.83 880.318 1142.74ZM886.121 1138.59C885.466 1137.9 884.823 1137.2 884.179 1136.52C883.808 1138.15 884.321 1138.97 886.121 1138.59Z" fill="#F4DD90"/>
<path d="M1190.66 469.514C1184.51 433.897 1172.4 400.441 1152.92 370.136C1111.39 305.503 1051.56 268.875 975.346 259.229C939.802 254.733 904.53 258.153 870.001 267.348C818.424 281.124 772.999 306.579 732.318 340.82C713.919 356.306 697.668 373.91 681.341 391.45C679.716 393.192 677.753 395.268 675.386 393.364C673.336 391.708 676.008 390.138 676.586 388.536C677.308 386.811 678.226 385.174 679.323 383.653C695.977 358.661 716.787 337.411 739.581 318.053C743.551 314.666 743.29 313.494 739.014 310.956C724.661 302.428 710.101 294.394 694.298 288.824C694.298 290.62 693.207 291.846 692.117 293.125C678.977 307.559 667.566 323.436 658.11 340.443C643.463 367.253 638.119 396.365 634.89 426.014C634.247 431.896 633.691 439.327 640.224 442.263C646.757 445.199 651.686 439.575 655.853 435.176C667.021 423.401 677.753 411.205 688.997 399.505C705.182 382.664 723.603 368.318 742.101 354.198C749.932 348.219 758.46 343.067 767.753 336.787L767.905 336.68V336.841C766.935 341.605 766.259 344.745 765.659 347.896C762.987 361.78 768.353 372.243 781.811 376.835C795.589 381.613 809.603 385.697 823.801 389.073C855.811 396.483 881.889 413.98 905.948 435.241C924.151 451.372 936.126 472.945 954.864 488.786C969.533 501.185 983.22 512.036 1004.41 508.143C1021.94 504.917 1035.79 497.055 1043.24 481.193C1051.29 464.062 1050.87 445.382 1046.51 427.423C1044.55 419.217 1040.22 410.861 1031.85 406.183C1032.07 407.022 1032.28 407.85 1032.48 408.689C1035.76 422.046 1037.77 435.488 1035.21 449.329C1030.69 473.816 1008.79 484.301 986.711 472.407C976.895 467.105 969.129 459.502 961.288 451.523C936.203 426.078 909.962 401.817 877.81 384.976C853.218 372.163 827.613 361.338 801.246 352.606C796.589 351.047 791.594 350.456 786.763 349.38C778.256 347.444 774.766 341.605 777.176 333.163C782.127 315.591 795.411 305.202 809.895 296.083C840.182 277.048 871.909 278.22 904.258 290.028C910.725 292.394 917.149 294.9 923.584 297.341L924.042 297.513C924.587 297.083 925.133 296.244 925.689 296.287C937.37 297.363 949.334 297.911 960.35 301.826C974.583 306.891 987.3 315.193 999.7 323.807C1017.04 335.862 1031.96 350.52 1045.35 366.694C1052.68 375.556 1060.13 384.546 1064.43 395.354C1069.86 409.377 1074.43 423.714 1078.1 438.284C1086.04 468.611 1089.71 499.583 1091.31 530.651C1092.58 555.278 1091.12 579.948 1088.84 604.532C1086.37 630.987 1082.37 656.99 1072.48 681.961C1060.42 712.578 1047.25 742.647 1031.82 771.715C1019.92 794.119 1007.24 816.069 993.778 837.562C971.801 872.793 945.659 904.754 919.014 936.403C908.86 948.469 897.921 959.815 887.146 971.333C873.534 985.937 860.327 1000.8 842.767 1011.19C829.058 1019.32 815.327 1026.67 798.891 1026.92C801.072 1028.15 803.471 1028 805.816 1028C833.246 1027.61 857.513 1019.7 879.086 1001.72C915.851 971.096 950.654 938.49 982.348 902.786C1017.91 862.738 1054.33 823.453 1089.09 782.706C1115.11 752.229 1139 720.558 1156.71 684.435C1174.31 648.774 1186.65 611.501 1192.1 572.184C1196.93 538.088 1196.44 503.465 1190.66 469.514ZM415.943 572.065C399.409 560.683 384.996 546.567 373.343 530.339C358.27 509.648 349.436 486.248 340.962 462.589C334.047 480.677 330.666 499.572 328.212 518.671C327.918 520.994 327.852 523.145 329.663 525.253C338.933 536.136 347.713 547.438 357.267 558.074C376.898 579.97 398.799 599.553 420.993 618.878C436.666 632.525 448.892 648.849 447.529 671.648C446.961 681.155 442.959 689.188 438.749 697.307C441.934 697.501 444.398 697.039 446.503 693.855C455.872 679.66 459.068 663.744 460.104 647.236C460.442 641.859 460.704 636.482 459.133 631.105C451.869 606.199 437.429 586.723 415.943 572.065Z" fill="#E6639A"/>
<path d="M617.679 1226.98C616.174 1225.9 614.265 1225.29 613.425 1223.42C602.846 1221.14 592.18 1219.04 582.189 1214.72C566.517 1207.93 551.248 1200.55 544.017 1183.53C542.621 1180.31 540.21 1179.55 536.633 1179.86C527.33 1180.68 518.528 1183.39 510.01 1186.75C464.029 1204.86 428.616 1235.68 401.971 1276.87C418.669 1302.31 443.623 1317.14 470.529 1329.19C499.863 1342.29 531.992 1348.15 564.139 1346.26C585.614 1345.19 606.423 1340.27 627.037 1334.43C634.06 1332.45 641.03 1330.26 648.108 1328.48C651.173 1327.71 654.564 1326.49 657.444 1329.29C657.673 1335 653.877 1338.37 649.907 1341.35C625.531 1359.72 598.004 1371.56 568.927 1380.34C541.92 1388.71 513.778 1392.96 485.471 1392.96C484.041 1392.8 482.61 1393.24 481.534 1394.18C502.889 1397.5 524.2 1396.51 545.642 1394.62C579.201 1391.69 611.353 1383.49 642.633 1371.38C653.812 1367.08 665.133 1363.16 666.507 1348.3C666.943 1343.6 669.659 1339.01 671.742 1334.57C673.509 1330.79 673.018 1324.8 678.886 1324.41C684.753 1324.02 684.71 1330.29 687.436 1333.5C688.952 1324.66 685.79 1316.52 683.008 1308.54C670.913 1273.69 647.148 1248.04 617.679 1226.98ZM1025.45 1264.61C1011.27 1250.63 994.333 1240.37 976.13 1232.34C967.329 1228.45 958.593 1224.35 949.3 1221.69C938.237 1222.37 927.133 1221.91 916.166 1220.32C894.539 1216.96 875.311 1209.66 862.049 1190.84C860.38 1188.48 862.169 1182.68 856.694 1183.78C853.2 1184.45 849.894 1185.85 846.998 1187.89C845.111 1189.24 842.712 1189.89 840.759 1191.18C795.181 1221.57 766.454 1264.48 748.142 1315.11C767.283 1325.72 788.419 1329.33 809.698 1332.02C833.103 1334.99 856.683 1335.47 880.252 1334.87C917.748 1333.93 953.412 1326.02 985.891 1306.34C992.926 1302.04 1000.46 1298.68 1007.7 1294.72C1010.91 1292.97 1014.08 1292.08 1016.6 1295.23C1018.88 1298.08 1018 1301.25 1016.54 1304.48C1010.91 1316.99 1000.76 1325.45 990.068 1333.09C955.476 1358.08 915.197 1374.33 872.759 1380.41C828.042 1386.86 785.038 1381.58 743.223 1365.05C742.542 1364.85 741.845 1364.72 741.14 1364.64C743.005 1373.43 750.639 1376.42 757.303 1379.99C774.35 1389.12 793.229 1392.57 811.977 1395.87C849.299 1402.44 885.628 1397.88 921.216 1385.28C964.329 1370.01 1000.83 1345.55 1029.19 1309.49C1030.35 1308.02 1031.74 1306.74 1031.98 1304.7C1033.01 1296.1 1034.09 1287.49 1035.16 1278.82C1034.69 1272.22 1029.36 1268.47 1025.45 1264.61Z" fill="#FFCC5C"/>
<path d="M871.711 1175.13C871.645 1183.03 874.863 1188.87 880.905 1193.89C892.215 1203.31 905.783 1206.93 919.732 1208.94C932.492 1210.73 945.482 1211.19 958.21 1207.8C972.388 1200.28 987.548 1194.34 1000.93 1182.42C980.208 1188.67 960.576 1191.69 940.552 1187.93C913.711 1182.89 889.466 1173.95 878.756 1145.56C872.91 1154.56 871.798 1164.68 871.711 1175.13ZM551.17 1160.4C550.08 1168.21 549.164 1176.19 554.442 1183.33C563.538 1195.52 575.688 1202.81 590.248 1206.54C603.336 1206.47 616.424 1208.78 629.588 1206.42C650.103 1202.73 668.426 1194.68 686.159 1181.05C683.64 1181.24 682.669 1181.05 681.917 1181.41C663.496 1189.58 644.028 1189.69 624.385 1189.41C592.408 1188.96 567.574 1172.87 555.566 1144.17C554.071 1149.57 551.89 1154.89 551.17 1160.4Z" fill="#FFCC5C"/>
<path d="M1006.69 379.825C984.878 355.413 959.979 334.249 930.564 318.967C904.389 305.363 876.937 295.91 847.173 294.308C824.848 293.114 810.091 306.267 796.262 321.193C792.39 324.151 790.209 328.388 788.322 332.614C786.544 336.625 785.257 341.217 792.957 339.69C795.072 339.441 797.215 339.547 799.294 340.002C822.776 343.626 844.458 352.595 865.823 362.371L894.42 377.609C912.23 389.084 928.077 402.871 943.15 417.701C955.333 429.67 965.716 443.338 978.607 454.609C985.751 460.857 993.287 466.341 1003.23 467.126C1014.26 469.277 1023.48 462.825 1025.67 449.468C1029.97 423.54 1024.14 399.365 1006.69 379.825ZM844.185 344.53C839.452 344.282 833.802 338.314 834.216 333.453C834.696 327.775 838.579 325.603 843.88 325.495C849.18 325.387 853.041 329.732 852.997 335.636C852.91 340.454 848.668 344.756 844.185 344.53ZM855.811 311.913C854.481 317.763 851.154 321.688 844.796 321.516C837.892 321.312 836.485 315.752 835.056 310.472V310.353C836.649 305.062 840.728 302.03 845.756 301.954C851.634 301.879 854.263 306.665 855.877 311.762L855.811 311.913ZM863.151 331.27L862.061 330.678C858.789 328.786 856.313 326.377 857.48 321.978C858.276 318.999 859.956 316.322 863.457 315.741C868.016 314.988 871.506 316.462 873.807 320.225C874.014 320.57 874.232 320.903 874.418 321.301C873.632 329.979 872.444 331.012 863.119 331.324L863.151 331.27ZM963.207 378.201C957.754 383.685 951.973 388.858 947.142 394.827C942.659 400.354 938.918 400.053 934.316 395.579C932.495 393.805 930.466 392.235 928.535 390.579L928.459 390.514C915.033 375.545 898.554 365.231 879.576 358.747C871.309 355.918 870.142 352.068 876.304 345.842C883.852 338.174 891.693 330.786 899.546 323.441C903.222 320 907.431 319.021 912.568 320.742C934.782 327.97 955.14 339.865 972.238 355.606C976.906 359.908 977.145 363.457 972.51 367.834C969.315 370.856 966.632 374.415 963.709 377.738L963.207 378.201ZM980.036 440.962C974.07 441.155 967.973 435.38 968.039 429.562C968.039 424.185 973.372 419.002 979.054 418.808C985.391 418.636 990.898 423.368 991.051 429.132C991.16 434.66 985.391 440.843 980.003 441.015L980.036 440.962ZM992.033 414.593C992.938 406.463 996.864 402.279 1002.99 402.903C1008.65 403.484 1013.71 408.979 1013.51 414.313C1013.26 421.292 1007.36 426.057 999.449 425.68L999.264 425.53C995.686 422.734 992.415 419.722 992.055 414.776C992.033 414.765 992.011 414.711 992.011 414.646L992.033 414.593ZM1006.45 452.813C1006.05 452.872 1005.65 452.912 1005.25 452.931C998.326 453.393 995.174 448.629 993.68 442.79C992.229 437.133 995.152 432.993 1000.1 430.347L1000.77 429.993C1005.44 430.294 1010.25 430.154 1013.46 434.531C1019.08 442.295 1017.23 447.102 1006.43 452.867L1006.45 452.813ZM424.439 633.6C416.805 626.707 408.505 620.501 400.511 613.984C392.876 606.682 385.187 599.509 377.76 592.046C360.059 574.248 342.925 555.912 328.932 534.974C323.991 527.586 322.584 527.167 315.844 533.479C309.551 540.62 306.89 549.073 306.77 558.44C307.217 562.397 307.86 566.376 305.788 570.118C305.69 571.914 304.927 573.764 306.05 575.291C310.238 568.839 314.328 562.3 318.658 555.934C321.755 551.396 324.635 552.589 327.383 556.536C330.043 560.396 332.911 564.112 335.977 567.667C349.294 582.722 362.578 597.875 378.207 610.683C380.127 612.275 384.315 613.963 381.479 617.942C373.332 629.503 368.784 642.945 361.716 655.076C355.969 664.948 353.319 665.83 343.775 659.539C342.937 659.048 342.074 658.6 341.191 658.195C340.471 661.7 341.605 664.109 343.884 666.561C358.886 682.992 378.1 695.132 399.507 701.706C413.882 706.158 426.893 700.781 434.877 688.328C443.722 674.584 436.284 644.236 424.439 633.6ZM378.632 655.108C378.807 648.914 382.373 645.182 388.099 645.214C394.329 645.253 399.403 650.161 399.562 656.302C399.638 662.313 395.134 666.335 388.383 666.292C382.068 666.196 378.48 662.088 378.665 655.119L378.632 655.108ZM395.297 692.489C390.073 692.92 384.849 687.112 384.805 681.445C384.751 675.498 388.743 673.121 393.64 672.39C398.537 671.659 403.957 677.584 404.088 684.531C403.804 688.984 400.685 692.048 395.33 692.5L395.297 692.489ZM414.471 674.885C407.589 674.734 403.434 670.777 403.772 664.712C404.11 658.646 408.418 654.226 413.915 654.388C419.662 654.549 424.919 660.152 424.821 666.013C424.745 671.562 420.699 675.035 414.471 674.885Z" fill="#F7B520"/>
<path d="M1091.34 530.608C1089.73 499.485 1086.06 468.567 1078.12 438.241C1074.46 423.672 1069.91 409.335 1064.5 395.311C1060.2 384.503 1052.75 375.512 1045.42 366.651C1032.03 350.52 1017.06 335.819 999.765 323.764C987.365 315.16 974.68 306.847 960.415 301.782C949.399 297.868 937.435 297.351 925.754 296.244C925.242 296.244 924.664 297.04 924.107 297.47C958.79 314.096 987.245 338.4 1010.9 368.339C1019.9 379.767 1026.98 392.544 1031.87 406.183C1040.24 410.861 1044.57 419.217 1046.53 427.422C1050.89 445.414 1051.29 464.094 1043.26 481.193C1035.81 497.055 1021.96 504.938 1004.43 508.143C983.297 512.003 969.533 501.152 954.885 488.785C936.148 472.944 924.173 451.339 905.97 435.24C881.91 413.98 855.8 396.526 823.823 389.073C809.625 385.697 795.61 381.612 781.833 376.835C768.374 372.243 763.008 361.779 765.68 347.896C766.28 344.745 766.956 341.605 767.927 336.84L767.807 336.787C758.471 343.067 749.986 348.218 742.155 354.198C723.614 368.35 705.237 382.664 689.052 399.505C677.807 411.205 667.075 423.4 655.907 435.176C651.741 439.574 646.974 445.263 640.278 442.263C633.581 439.263 634.301 431.896 634.945 426.013C638.217 396.311 643.517 367.253 658.164 340.443C667.62 323.436 679.031 307.558 692.171 293.125C693.261 291.867 694.352 290.641 694.352 288.823C647.222 269.925 598.644 264.731 548.62 273.241C514.144 279.137 481.331 292.183 452.349 311.515C414.678 336.346 385.602 369.071 363.81 408.301C354.235 425.508 346.044 443.446 340.994 462.61C349.468 486.269 358.303 509.702 373.375 530.36C385.029 546.588 399.441 560.704 415.976 572.086C437.462 586.744 451.902 606.22 459.165 631.126C460.736 636.503 460.474 641.88 460.136 647.257C459.1 663.754 455.904 679.681 446.536 693.876C444.431 697.103 441.966 697.522 438.781 697.329C437.091 698.952 435.509 700.652 433.699 702.189C426.272 708.717 417.339 712.556 407.752 710.793C394.762 708.417 382.309 703.762 370.987 697.049C364.094 692.984 357.267 688.811 348.509 683.553C352.969 693.446 356.492 701.469 360.189 709.416C376.549 744.647 399.453 775.253 426.566 802.977C464.292 841.606 504.689 876.976 549.645 907.141C577.737 925.904 606.771 943.258 636.635 959.137C671.667 977.849 706.971 996.034 743.246 1012.22C760.86 1020.08 779.433 1025.45 798.869 1026.94C815.305 1026.69 829.036 1019.34 842.745 1011.21C860.305 1000.8 873.512 985.936 887.178 971.321C897.954 959.804 908.893 948.458 919.047 936.392C945.691 904.743 971.834 872.782 993.81 837.551C1007.25 816 1019.93 794.051 1031.85 771.704C1047.28 742.668 1060.45 712.556 1072.51 681.95C1082.33 656.947 1086.37 630.944 1088.87 604.521C1091.14 579.948 1092.6 555.213 1091.34 530.608Z" fill="#F08CB6"/>
<path d="M1007.62 1294.72C1000.41 1298.68 992.871 1302.1 985.803 1306.34C953.324 1326.02 917.66 1333.93 880.164 1334.87C856.595 1335.47 833.015 1334.99 809.61 1332.02C788.331 1329.33 767.195 1325.72 748.054 1315.11C745.174 1317.68 745.872 1321.66 744.204 1324.71C742.121 1328.62 743.517 1331.06 747.018 1333.32C765.995 1345.52 786.39 1354.48 808.726 1357.91C861.339 1365.98 910.822 1355.49 957.817 1331.51C975.835 1322.31 992.369 1310.77 1008.98 1299.35C1009.99 1298.28 1010.79 1295.7 1012.51 1297.41C1014.24 1299.12 1011.91 1300.05 1010.58 1300.89C1009.75 1302.02 1008.85 1303.1 1007.89 1304.12C965.561 1344.73 913.777 1364.34 856.387 1370.19C815.074 1374.36 775.189 1368.56 738.892 1346.39C737.398 1354.22 737.714 1356.81 741.074 1364.67C741.779 1364.75 742.476 1364.89 743.157 1365.08C784.972 1381.61 828.02 1386.94 872.693 1380.44C915.131 1374.36 955.41 1358.11 990.002 1333.12C1000.69 1325.49 1010.84 1316.99 1016.47 1304.52C1017.93 1301.29 1018.82 1298.06 1016.54 1295.27C1014 1292.08 1010.82 1292.94 1007.62 1294.72ZM691.177 1319.44C699.476 1313.73 706.446 1306.54 713.306 1299.36C730.069 1281.55 746.374 1263.39 742.273 1235.99C741.477 1230.61 741.739 1225.11 740.616 1219.86C738.587 1210.45 737.42 1200.72 732.905 1191.35C714.865 1212.63 691.242 1220.01 665.743 1223.61C648.292 1226.09 630.842 1224.77 613.392 1223.42C614.232 1225.29 616.14 1225.9 617.645 1226.98C647.093 1248.04 670.88 1273.69 682.975 1308.49C685.756 1316.47 688.919 1324.63 687.403 1333.46C688.383 1335.31 689.261 1337.21 690.031 1339.15C691.515 1343.55 693.783 1343.88 697.197 1341.05C706.816 1333.07 715.836 1324.55 723.002 1314.24C728.989 1305.63 734.093 1296.6 735.642 1284.5C721.42 1298.32 709.848 1313.56 691.177 1319.44ZM1048.38 1258.74C1047.22 1254.84 1048.82 1253.53 1049.72 1251.98C1057.22 1239 1065.09 1226.23 1071.21 1212.48C1073.55 1207.25 1074.97 1202.21 1073.39 1196.23C1069.66 1182.65 1064.92 1169.44 1059.75 1155.71C1056.65 1162.82 1055.77 1170.35 1050.41 1175.55C1031.31 1194.31 1009.19 1207.82 983.099 1215.05C971.941 1218.13 960.49 1219.12 949.289 1221.64C958.581 1224.31 967.317 1228.41 976.118 1232.3C994.321 1240.37 1011.22 1250.65 1025.44 1264.56C1029.35 1268.43 1034.68 1272.18 1035.02 1278.78C1038.55 1268.6 1040.74 1267.12 1046.94 1270.47C1050.02 1272.14 1052.04 1277.42 1055.6 1275.69C1058.53 1274.3 1059.97 1269.81 1062.07 1266.72C1063.92 1264.02 1065.87 1261.34 1067.69 1258.66C1075.95 1246.41 1079.76 1233.22 1076.23 1217.52C1067.35 1231.79 1059.39 1245.63 1048.38 1258.74ZM648.074 1328.43C640.996 1330.22 634.027 1332.41 627.003 1334.39C606.39 1340.19 585.559 1345.06 564.106 1346.22C531.959 1348.11 499.83 1342.25 470.496 1329.14C443.589 1317.1 418.635 1302.26 401.938 1276.82C397.782 1282.2 395.394 1288.8 391.598 1294.27C385.36 1303.13 388.435 1309.18 394.739 1316.21C418.286 1342.39 448.443 1356.18 482.34 1362.02C533.971 1370.91 583.083 1361.17 630.46 1340.1C638.847 1336.37 646.482 1330.75 655.862 1329.35H656.069C656.074 1329.4 656.074 1329.45 656.069 1329.51C655.643 1332.22 653.124 1332.84 651.27 1334.06C599.312 1368.03 542.554 1381.32 480.868 1372.94C455.486 1369.59 431.254 1360.42 410.107 1346.18C399.626 1339.15 390.606 1330.39 380.932 1320.04C380.354 1330.26 373.635 1338.67 380.605 1347.56C383.637 1351.43 386.374 1355.62 389.897 1358.99C415.494 1383.38 447.581 1391.25 481.511 1394.14C482.587 1393.2 484.019 1392.75 485.448 1392.91C513.743 1392.92 541.874 1388.68 568.872 1380.33C597.948 1371.55 625.476 1359.71 649.863 1341.34C653.822 1338.36 657.617 1334.99 657.388 1329.28C654.531 1326.48 651.139 1327.7 648.074 1328.43Z" fill="#F7B520"/>
<path d="M624.431 1189.41C644.062 1189.69 663.541 1189.58 681.962 1181.41C682.715 1181.08 683.685 1181.24 686.205 1181.05C668.471 1194.68 650.148 1202.73 629.633 1206.42C616.425 1208.78 603.458 1206.47 590.294 1206.54C592.562 1208.36 595.332 1209 598.07 1209.66C615.271 1214.03 633.072 1215.64 650.792 1214.44C671.852 1212.82 692.236 1208.76 710.832 1197.85C727.344 1188.17 730.278 1180.98 724.268 1163.02C722.985 1159.01 721.297 1155.13 719.23 1151.44C712.544 1139.89 703.808 1130.56 690.404 1125.28C690.862 1132.54 691.254 1138.89 691.68 1145.62C693.937 1144.55 695.552 1143.58 697.286 1142.96C699.02 1142.33 701.376 1140.49 703.001 1142.96C704.626 1145.42 702.695 1147.6 700.819 1148.95C697.612 1151.32 694.229 1153.45 690.698 1155.32C662.265 1170.52 631.433 1173.68 599.989 1171.97C586.814 1171.26 573.814 1167.67 564.325 1157.18C562.318 1155.03 559.428 1152.4 562.035 1149.26C564.903 1145.8 566.779 1150.33 569.211 1150.88C569.582 1150.96 570.029 1150.7 570.706 1150.53C570.284 1142.76 569.141 1135.04 567.292 1127.48C560.748 1131.68 558.163 1137.95 555.535 1144.16C567.619 1172.87 592.453 1188.96 624.431 1189.41ZM940.554 1187.88C960.622 1191.64 980.199 1188.62 1000.93 1182.37C987.55 1194.29 972.434 1200.27 958.212 1207.75C990.124 1204.17 1017.82 1191.4 1041.44 1169.8C1044.78 1166.76 1045.8 1162.67 1046.31 1158.41C1047.86 1144.53 1043.45 1131.89 1037.09 1120.02C1032.34 1111.14 1026.55 1102.75 1017.19 1095.53C1019.72 1110.19 1024.94 1122.52 1027.89 1135.65C1028.69 1135.27 1029.52 1134.95 1030.37 1134.69C1032.55 1134.25 1034.07 1129.96 1036.8 1132.91C1039.54 1135.87 1036.37 1138.29 1034.87 1140.28C1029.85 1146.94 1022.88 1151.46 1015.7 1155.41C993.025 1167.77 968.453 1170.35 943.106 1169.77C919.646 1169.27 899.775 1161.35 883.731 1144.27C882.935 1143.27 881.67 1140.78 886.6 1138.81C888.781 1139.78 890.352 1142.16 893.078 1142.27C893.711 1140.33 893.217 1138.2 891.791 1136.73C889.883 1134.69 892.217 1130.11 888.727 1130.28C886.676 1130.34 885.455 1133.1 884.56 1135.53C883.328 1136.6 879.205 1140.63 879.107 1143.91C878.832 1144.42 878.725 1144.99 878.802 1145.56C889.468 1173.94 913.713 1182.83 940.554 1187.88Z" fill="#F7B520"/>
<path d="M1132.44 904.151C1124.06 902.355 1115.4 901.344 1107.25 907.119C1102.59 910.47 1096.81 911.957 1091.09 911.281C1086.86 910.743 1082.87 909.614 1084.54 903.753C1110.48 895.064 1127.93 876.363 1142.86 854.682C1147.66 850.553 1149.15 844.369 1152.49 839.336C1155.6 834.647 1154.28 831.454 1149.9 828.195C1135.34 817.429 1120.03 807.673 1104.1 798.998C1101.03 797.309 1099.4 797.589 1097.05 800.374C1086.87 812.397 1076.52 824.266 1066 835.981C1046.17 857.998 1025.93 879.625 1005.26 900.86C1003.83 902.334 1001 903.678 1002.21 906.668C1008.29 921.723 1016.39 934.972 1033.54 941.414C1029.44 930.036 1027.1 919.099 1024.88 908.076C1021.01 888.784 1029.77 880.277 1047.86 872.362C1049.24 871.749 1050.69 871.287 1051.64 872.814C1052.13 873.503 1052.31 874.362 1052.13 875.187C1051.96 876.011 1051.45 876.729 1050.72 877.169C1047.9 879.32 1044.89 881.191 1042.2 883.471C1036.63 888.192 1031.36 894.042 1032.68 901.484C1038.06 931.66 1044.95 944.307 1078.62 945.974C1080.8 946.081 1082.87 946.081 1085 946.049C1111.24 945.651 1135.67 938.252 1159.16 927.133C1162.94 925.348 1162.21 923.1 1160.33 920.368C1153.66 910.593 1143.31 906.474 1132.44 904.151ZM1000.77 1110.89C994.432 1086 990.866 1060.66 988.161 1035.18C987.867 1032.35 987.07 1031.21 984.409 1032.51C976.393 1036.35 967.766 1037.46 959.074 1038.37C957.045 1038.59 954.853 1038.57 955.976 1042.15C958.79 1051.07 958.648 1060.72 962.302 1069.48C962.76 1082.9 967.471 1095.8 967.122 1109.27C967.122 1111.24 967.875 1114.03 964.887 1114.43C961.898 1114.82 962.106 1111.91 961.528 1110.03C957.241 1096.11 954.024 1081.93 950.85 1067.73C950.403 1061.9 950.087 1056.06 949.476 1050.26C948.385 1039.5 948.276 1039.5 937.173 1039.94C933.651 1040.06 930.128 1040.22 926.594 1040.22C924.173 1040.22 922.515 1040.64 922.831 1043.69C923.846 1053.2 923.268 1062.86 925.405 1072.27C925.498 1074.59 925.864 1076.89 926.496 1079.12C928.874 1088.91 931.557 1098.66 932.473 1108.74C932.691 1111.16 933.88 1114.91 930.848 1115.61C927.456 1116.39 927.576 1112.48 926.932 1110.17C922.679 1094.12 918.469 1078.07 914.303 1062.01C913.495 1055.74 912.612 1049.49 911.936 1043.21C911.674 1040.83 910.485 1039.99 908.282 1039.92C899.11 1039.92 890.145 1037.77 880.591 1036.8C881.283 1042.7 883.018 1048.43 885.717 1053.73C890.712 1072.28 895.794 1090.81 900.68 1109.39C903.832 1121.42 907.715 1133.37 907.944 1145.9C908.01 1149.6 908.751 1151.15 912.143 1152.36C937.741 1161.4 963.491 1160.59 989.372 1153.84C996.559 1152.46 1003.23 1149.68 1009.88 1146.73C1012.35 1145.66 1012.58 1144.91 1011.16 1142.19C1006.05 1132.39 1003.5 1121.59 1000.77 1110.89ZM673.379 1137.34C668.548 1104.8 663.563 1072.27 661.557 1039.39C661.36 1036.17 660.749 1034.48 657.052 1035.59C651.867 1037.2 646.457 1038.01 641.02 1037.96C638.086 1037.96 637.366 1039.28 637.846 1041.92C638.806 1047.22 639.656 1052.56 640.551 1057.87C642.808 1077.56 647.585 1097 647.454 1118.95C643.975 1115.31 643.79 1112.76 643.168 1110.35C638.806 1093.52 636.515 1076.29 633.189 1059.27C632.295 1053.31 631.346 1047.35 630.539 1041.38C630.244 1039.17 628.848 1038.8 627.07 1038.93C618.345 1039.59 609.751 1038.45 601.113 1037.86C598.19 1037.64 597.263 1038.45 597.841 1041.3C599.226 1047.89 600.491 1054.49 601.811 1061.1C602.171 1063.65 602.564 1066.18 602.902 1068.73C605.083 1085.27 608.758 1101.61 609.369 1118.33C609.446 1120.48 610.58 1123.79 607.613 1124.36C604.341 1125 604.549 1121.32 603.992 1119.33C598.474 1099.62 595.954 1079.31 591.93 1059.3C592.104 1052.43 589.639 1045.94 588.887 1039.2C588.85 1037.5 587.631 1036.04 585.942 1035.68C579.944 1034.21 573.945 1032.68 567.161 1030.97C568.939 1038.5 570.488 1045.14 572.025 1051.7C572.025 1051.92 572.135 1052.14 572.178 1052.36C575.287 1068.5 578.537 1084.49 581.46 1100.6C584.622 1118.1 589.301 1135.48 588.8 1153.39C588.647 1158.66 590.425 1159.21 594.362 1159.64C616.578 1162.06 638.489 1160.12 660.204 1155.21C666.279 1155.3 671.492 1152.22 677.109 1150.64C676.018 1146.9 674.862 1143.18 673.761 1139.44C673.588 1138.75 673.46 1138.05 673.379 1137.34ZM368.282 827.593C378.949 820.441 389.462 813.15 398.144 803.493C401.1 800.191 401.209 797.718 398.297 794.438C394.763 790.437 391.633 786.082 388.328 781.888C384.555 775.973 380.694 770.123 377.051 764.133C374.87 760.466 372.939 762.272 371.358 764.369C367.41 769.596 363.374 774.801 359.928 780.35C349.021 797.954 342.881 816.914 345.324 837.874C346.873 851.194 353.417 861.59 364.956 869.061C361.193 859.823 366.984 851.177 366.352 841.423C365.552 842.254 364.676 843.01 363.734 843.681C361.738 844.756 362.098 850.037 358.575 847.563C356.143 845.853 357.888 842.358 358.914 839.734C360.844 834.82 365.479 831.884 368.282 827.593Z" fill="#F7F6F5"/>
<path d="M1132.72 760.273C1131.05 759.122 1129.76 759.38 1128.55 761.079C1125.44 765.445 1120.98 768.768 1118.61 773.726L1107.88 787.158C1123.23 795.952 1137.75 806.102 1151.24 817.484C1156.47 823.173 1161.75 828.819 1166.89 834.573C1168.14 835.971 1169.15 837.799 1167.84 839.67C1167.47 840.197 1166.16 840.326 1165.33 840.208C1159.23 839.39 1158.08 840.821 1158.92 848.392C1177.06 842.756 1183.83 830.518 1177.91 812.71C1170.08 789.18 1152.34 773.855 1132.72 760.273ZM656.036 1329.42C656.041 1329.37 656.041 1329.31 656.036 1329.26H655.828L656.036 1329.42ZM525.823 917.691C525.095 915.023 523.379 912.72 521.014 911.239C480.927 882.376 444.398 848.995 412.167 811.774C411.407 810.908 410.718 809.984 410.106 809.01C407.39 803.923 405.613 804.709 402.908 809.354C399.723 814.796 394.99 819.108 390.289 823.399C386.526 826.84 381.335 828.776 378.892 833.573C368.247 854.349 378.815 891.118 398.709 903.302C402.744 905.776 404.511 905.453 405.962 900.517C407.532 895.14 407.739 889.677 408.056 884.138C411.829 891.763 413.084 899.194 410.444 907.346C407.456 916.551 402.984 925.004 398.589 933.521C391.14 947.985 386.101 962.955 388.915 979.473C390.006 985.689 391.805 991.798 397.825 995.411C402.581 997.562 404.587 993.056 407.14 991.034C435.365 968.687 450.351 938.844 455.99 903.861C456.96 903.571 457.957 903.376 458.967 903.281C461.148 903.453 461.628 905.625 461.639 908.658C461.81 919.721 459.906 930.721 456.022 941.103C447.035 964.375 433.206 984.119 412.157 998.046C406.976 1001.47 407.718 1003.05 412.233 1005.57C423.567 1012.12 437.911 1010.59 447.559 1001.8C469.961 988.378 484.521 968.698 493.3 944.512C494.271 941.823 494.598 939.479 498.219 940.662C499.364 944.254 499.6 948.068 498.906 951.771C496.856 963.998 490.301 973.935 483.256 983.678C477.715 991.335 470.321 997.282 462.828 1004.28C478.021 1007.76 490.847 1004.76 502.811 997.089C514.644 990.765 522.279 980.57 528.277 969.063C531.549 962.772 535.912 956.384 534.2 948.856C531.822 938.382 528.561 928.101 525.823 917.691ZM816.829 515.154C818.108 517.25 819.13 519.488 819.872 521.822C822.152 529.156 821.933 536.878 821.519 544.492C820.276 544.75 819.032 545.029 817.778 545.309L790.13 551.45C802.127 554.988 814.855 557.837 826.329 562.515C826.329 577.571 825.369 592.165 824.682 607.231C829.536 608.845 834.254 610.83 838.795 613.167C846.604 588.196 849.789 552.869 834.214 530.361C829.77 523.964 823.8 518.742 816.829 515.154ZM614.918 553.719C627.352 554.977 640.418 555.332 652.6 557.837C654.291 558.182 656.297 580.926 656.657 583.507C657.344 588.422 658.49 593.627 659.198 598.778C660.289 598.112 661.38 597.509 662.47 596.939C665.203 595.618 668.079 594.608 671.043 593.928C675.231 538.588 661.325 509.863 628.606 506.218C632.79 509.038 636.17 512.871 638.422 517.348C642.097 524.414 643.34 532.404 644.387 540.276L640.865 541.878C632.234 545.822 623.585 549.768 614.918 553.719Z" fill="#F7F6F5"/>
<path d="M1216.75 549.17C1217 546.6 1217.7 544.062 1217.84 541.492C1219.92 493.657 1213.16 447.318 1194.47 402.946C1178.54 365.157 1156.1 331.969 1125.17 304.729C1079.69 264.746 1026.29 243.603 965.931 239.667C921.4 236.763 878.494 244.119 836.952 260.24C810.125 270.651 784.749 284.383 761.435 301.105C758.273 303.364 756.353 303.256 752.983 301.105C713.393 276.07 670.443 259.949 623.698 255.002C578.88 250.138 533.546 256.669 492.013 273.973C442.127 294.47 401.948 327.055 370.723 370.759C339.28 414.668 321.491 463.804 315.22 517.284C314.991 519.252 314.587 520.747 312.81 522.016C304.379 528.017 300.933 537.233 298.719 546.567C293.595 567.512 294.575 589.457 301.543 609.877C303.075 613.847 302.673 618.292 300.453 621.932C293.898 633.595 288.152 645.681 283.253 658.109C272.063 686.435 267.144 715.686 272.347 745.916C278.269 780.566 294.356 810.538 317.15 837.025C324.643 845.736 333.597 853.307 340.359 862.512C347.285 871.954 354.799 879.719 366.317 882.945C368.381 883.42 370.084 884.85 370.886 886.784C377.049 899.28 383.68 911.422 399.341 914.508C392.896 926.854 385.228 937.791 381.695 950.556C377.572 965.472 374.355 981.248 383.985 994.755C389.875 1003.03 398.763 1009.81 407.543 1015.27C422.485 1024.6 437.427 1020.74 451.169 1011.5C454.953 1008.95 458.062 1008.64 462.13 1010.67C477.715 1018.46 492.908 1015.41 507.555 1007.98C520.643 1001.36 529.292 990.282 536.566 978C537.297 976.774 537.722 975.075 539.282 975.075C541.212 975.075 540.896 977.022 541.125 978.301C548.942 1021.73 556.783 1065.2 564.65 1108.71C564.956 1110.34 565.447 1111.73 563.44 1112.89C546.284 1122.83 540.983 1139.16 539.762 1157.44C539.467 1162 537.984 1163.5 533.611 1163.8C518.978 1164.9 504.631 1168.39 491.152 1174.11C462.086 1186.21 436.077 1204.47 414.97 1227.59C392.361 1252.08 376.002 1280.02 370.254 1313.16C368.662 1322.29 366.229 1331.73 368.531 1341.12C372.173 1355.9 381.368 1367.13 393.441 1375.96C419.158 1394.78 449.064 1402.18 480.005 1405.67C508.962 1408.9 537.919 1408.14 566.93 1404.39C598.546 1400.4 629.471 1392.22 658.86 1380.05C662.339 1378.6 664.641 1376.57 665.611 1372.68C668.382 1361.58 673.071 1351.17 678.187 1340.41C682.713 1346.2 684.73 1352.71 687.141 1359C688.766 1363.21 690.533 1364.14 694.775 1361.28C706.969 1353.15 718.475 1344.27 729.141 1332.39V1347.05C729.305 1366.86 737.07 1381.46 755.928 1390.36C779.333 1401.35 804.243 1406.11 829.415 1409.82C854.806 1413.56 879.781 1409.38 904.474 1403.53C947.906 1393.48 987.893 1372.34 1020.42 1342.23C1033.74 1329.99 1043.32 1317.02 1040.4 1297.98C1040.22 1297.05 1040.22 1296.09 1040.4 1295.16C1041.7 1289.66 1041.31 1283.76 1044.01 1278.05C1050.55 1282.76 1054.27 1289.18 1059.68 1294.27C1064.13 1289.64 1067.99 1284.5 1071.18 1278.96C1079.11 1265.9 1087.36 1252.88 1088.78 1237.15C1090.96 1212.61 1084.72 1189.66 1075.13 1167.34C1069.37 1153.92 1060.95 1141.93 1054.49 1128.98C1045.95 1111.91 1034.86 1097.62 1019.03 1086.93C1016.76 1085.39 1013.92 1083.8 1013.36 1080.18C1012.47 1074.37 1010.72 1068.7 1009.76 1062.91C1002.83 1020.58 998.029 978.043 997.658 935.092C997.658 933.199 996.186 930.424 998.891 929.575C1001.17 928.854 1003.34 930.22 1005.02 932.177C1009.17 937.005 1014.21 941.018 1019.87 944.007C1029.85 949.33 1041.25 950.212 1051.68 954.642C1067.34 961.299 1084.09 958.718 1100.6 956.256C1121.42 953.193 1141.52 946.515 1159.98 936.533C1170.5 930.865 1171.98 921.273 1164.23 912.067C1161.08 908.586 1157.33 905.674 1153.16 903.464C1144.51 898.431 1134.81 896.871 1124.13 895.28C1134.72 885.063 1144.03 875.137 1150.3 862.824C1151.11 861.222 1152.49 861.071 1154.31 860.791C1176.21 857.425 1191.11 840.423 1188.43 819.27C1187.49 811.789 1185.17 804.543 1181.57 797.891C1180.35 795.611 1179.12 793.428 1182.08 791.148C1194.49 781.566 1200.85 767.908 1206.68 753.982C1218.81 725.032 1224.65 694.555 1227.16 663.529C1229.64 632.676 1229.34 601.736 1218.99 572.044C1216.27 564.161 1216.02 556.87 1216.75 549.17ZM341.265 658.227C342.148 658.633 343.011 659.081 343.849 659.572C353.393 665.82 356.043 664.949 361.791 655.109C368.858 642.978 373.406 629.535 381.553 617.975C384.356 613.996 380.168 612.307 378.281 610.716C362.652 597.864 349.368 582.755 336.051 567.699C332.985 564.144 330.117 560.429 327.457 556.569C324.665 552.622 321.786 551.428 318.732 555.967C314.369 562.344 310.301 568.871 306.113 575.324C305.022 573.797 305.753 571.947 305.851 570.151C305.297 566.235 305.632 562.245 306.833 558.472C306.953 549.105 309.614 540.653 315.907 533.512C322.647 527.199 324.054 527.619 328.995 535.007C342.988 555.945 360.122 574.281 377.823 592.079C385.25 599.542 392.983 606.715 400.574 614.017C408.568 620.534 416.846 626.739 424.503 633.633C436.314 644.268 443.785 674.66 434.984 688.392C427 700.846 413.989 706.223 399.614 701.771C378.207 695.197 358.992 683.057 343.991 666.626C341.679 664.142 340.545 661.733 341.265 658.227ZM368.28 827.594C365.477 831.895 360.842 834.777 358.9 839.735C357.875 842.359 356.13 845.854 358.562 847.564C362.085 850.037 361.725 844.768 363.721 843.682C364.663 843.011 365.539 842.255 366.338 841.423C366.971 851.177 361.18 859.824 364.942 869.061C353.425 861.62 346.881 851.224 345.311 837.875C342.868 816.915 348.975 797.955 359.915 780.351C363.361 774.802 367.396 769.597 371.345 764.37C372.926 762.219 374.813 760.466 377.038 764.134C380.68 770.124 384.541 775.963 388.315 781.889C391.587 786.083 394.75 790.492 398.283 794.439C401.196 797.665 401.086 800.192 398.131 803.494C389.46 813.151 378.946 820.442 368.28 827.594ZM528.267 969.064C522.268 980.571 514.633 990.766 502.8 997.089C490.803 1004.76 478.01 1007.76 462.817 1004.28C470.31 997.282 477.704 991.378 483.245 983.679C490.29 973.935 496.845 963.999 498.895 951.771C499.589 948.068 499.353 944.254 498.208 940.662C494.587 939.479 494.26 941.824 493.29 944.512C484.564 968.698 469.95 988.378 447.548 1001.8C437.9 1010.59 423.556 1012.12 412.222 1005.57C407.707 1003.05 406.965 1001.47 412.146 998.046C433.195 984.066 447.046 964.375 456.011 941.103C459.895 930.722 461.799 919.722 461.628 908.658C461.628 905.615 461.159 903.442 458.956 903.281C457.946 903.376 456.949 903.571 455.979 903.862C450.34 938.845 435.354 968.687 407.129 991.034C404.576 993.056 402.57 997.551 397.815 995.411C391.794 991.798 389.962 985.733 388.904 979.474C386.09 962.955 391.085 947.986 398.578 933.521C402.941 925.004 407.445 916.551 410.433 907.346C413.073 899.216 411.818 891.763 408.045 884.139C407.728 889.677 407.521 895.14 405.951 900.517C404.5 905.464 402.733 905.776 398.698 903.302C378.805 891.118 368.236 854.35 378.881 833.573C381.324 828.809 386.515 826.841 390.278 823.399C394.979 819.098 399.712 814.796 402.897 809.355C405.602 804.73 407.379 803.978 410.095 809.01C410.711 809.981 411.404 810.901 412.167 811.764C444.401 848.966 480.93 882.329 521.014 911.174C523.379 912.656 525.095 914.958 525.823 917.627C528.561 928.037 531.822 938.318 534.189 948.814C535.89 956.342 531.538 962.794 528.267 969.064ZM551.17 1160.4C551.923 1154.89 554.082 1149.57 555.609 1144.17C558.237 1137.96 560.8 1131.69 567.366 1127.49C569.216 1135.06 570.359 1142.77 570.78 1150.54C570.104 1150.71 569.689 1150.97 569.286 1150.89C566.854 1150.36 564.978 1145.81 562.109 1149.27C559.503 1152.41 562.393 1154.99 564.389 1157.2C573.921 1167.71 586.889 1171.27 600.075 1171.98C631.507 1173.69 662.339 1170.53 690.773 1155.34C694.303 1153.46 697.686 1151.33 700.894 1148.96C702.715 1147.61 704.722 1145.55 703.075 1142.97C701.428 1140.39 699.225 1142.28 697.36 1142.97C695.495 1143.66 694.012 1144.55 691.754 1145.64C691.329 1138.9 690.936 1132.55 690.478 1125.29C703.86 1130.55 712.596 1139.9 719.282 1151.42C721.35 1155.11 723.038 1158.99 724.321 1163C730.33 1180.96 727.396 1188.1 710.884 1197.82C692.343 1208.74 671.904 1212.79 650.844 1214.42C633.125 1215.63 615.324 1214.03 598.122 1209.67C595.385 1209.01 592.669 1208.37 590.346 1206.55C575.786 1202.83 563.636 1195.53 554.54 1183.34C549.163 1176.19 550.112 1168.2 551.17 1160.4ZM609.378 1118.31C608.767 1101.59 605.07 1085.25 602.91 1068.71C602.572 1066.16 602.179 1063.62 601.82 1061.08C600.5 1054.47 599.235 1047.87 597.85 1041.28C597.261 1038.43 598.188 1037.62 601.122 1037.84C609.759 1038.47 618.386 1039.61 627.079 1038.91C628.857 1038.78 630.253 1039.15 630.547 1041.36C631.354 1047.33 632.303 1053.29 633.197 1059.25C636.469 1076.27 638.814 1093.5 643.177 1110.33C643.799 1112.72 643.984 1115.27 647.463 1118.93C647.594 1096.98 642.817 1077.54 640.559 1057.85C639.665 1052.54 638.814 1047.2 637.854 1041.9C637.375 1039.26 638.094 1037.9 641.028 1037.94C646.466 1037.98 651.876 1037.18 657.061 1035.57C660.758 1034.49 661.423 1036.15 661.565 1039.37C663.616 1072.25 668.556 1104.78 673.388 1137.32C673.473 1138.02 673.604 1138.72 673.78 1139.4C674.871 1143.14 675.962 1146.86 677.129 1150.59C671.512 1152.17 666.299 1155.26 660.224 1155.16C638.509 1160.08 616.598 1162.01 594.381 1159.59C590.444 1159.16 588.666 1158.62 588.819 1153.35C589.321 1135.44 584.642 1118.06 581.479 1100.55C578.556 1084.42 575.306 1068.4 572.198 1052.32C572.12 1052.11 572.069 1051.88 572.045 1051.66C570.507 1045.1 568.958 1038.49 567.181 1030.93C573.986 1032.64 579.963 1034.16 585.962 1035.64C587.651 1036 588.869 1037.46 588.906 1039.16C589.659 1045.9 592.124 1052.39 591.949 1059.26C595.974 1079.27 598.493 1099.58 604.012 1119.29C604.568 1121.28 604.361 1124.96 607.633 1124.32C610.588 1123.77 609.454 1120.46 609.378 1118.31ZM670.454 996.551C678.154 1000 685.527 1003.44 693.008 1006.64C719.184 1017.81 744.945 1029.9 773.509 1034.48C797.133 1038.23 821.299 1036.88 844.346 1030.54C851.606 1028.43 858.67 1025.71 865.461 1022.41C869.431 1039.46 873.292 1055.91 877.076 1072.39C880.239 1086.12 883.162 1099.91 886.478 1113.6C887.361 1117.22 886.838 1119.87 884.231 1122.51C873.063 1133.89 863.509 1146.25 860.237 1162.36C859.833 1164.38 858.23 1164.72 856.671 1165.28C813.721 1180.65 786.139 1213.2 761.861 1249.46C760.977 1250.77 760.028 1252.05 757.716 1255.32C757.576 1245.19 756.425 1235.1 754.281 1225.19C751.212 1210.98 745.94 1197.31 738.652 1184.67C737.004 1182.1 735.992 1179.18 735.696 1176.16C734.18 1153.83 725.411 1135 708.256 1120.23C703.697 1116.31 698.723 1113.01 692.692 1112.57C688.1 1112.23 686.933 1109.9 686.235 1106.04C680.553 1074.57 675.329 1043.02 671.708 1011.25C671.185 1006.62 669.243 1002.11 670.497 996.551H670.454ZM722.99 1314.24C715.825 1324.55 706.805 1333.07 697.186 1341.05C693.772 1343.88 691.503 1343.55 690.02 1339.16C689.249 1337.21 688.372 1335.31 687.392 1333.46C684.665 1330.23 684.687 1323.98 678.841 1324.37C672.995 1324.76 673.464 1330.75 671.697 1334.53C669.614 1338.97 666.898 1343.55 666.462 1348.25C665.088 1363.12 653.767 1367.02 642.588 1371.34C611.308 1383.45 579.156 1391.65 545.597 1394.58C524.155 1396.46 502.844 1397.45 481.489 1394.14C447.559 1391.2 415.472 1383.39 389.875 1358.99C386.352 1355.62 383.614 1351.46 380.582 1347.56C373.613 1338.67 380.331 1330.26 380.91 1320.05C390.584 1330.39 399.603 1339.16 410.084 1346.18C431.223 1360.38 455.436 1369.52 480.791 1372.86C542.478 1381.24 599.235 1367.94 651.193 1333.97C653.047 1332.76 655.556 1332.13 655.992 1329.42L655.817 1329.29C646.438 1330.73 638.803 1336.36 630.416 1340.05C583.039 1361.12 533.927 1370.86 482.296 1361.96C448.399 1356.13 418.242 1342.34 394.695 1316.15C388.391 1309.13 385.316 1303.08 391.554 1294.21C395.393 1288.75 397.738 1282.19 401.894 1276.77C428.538 1235.58 463.951 1204.72 509.933 1186.65C518.451 1183.3 527.252 1180.59 536.555 1179.77C540.133 1179.46 542.543 1180.17 543.939 1183.44C551.203 1200.5 566.472 1207.89 582.112 1214.62C592.102 1218.92 602.768 1221.08 613.348 1223.33C630.798 1224.68 648.194 1225.99 665.699 1223.52C691.198 1219.91 714.778 1212.53 732.861 1191.25C737.376 1200.62 738.543 1210.35 740.571 1219.76C741.662 1225.01 741.433 1230.52 742.229 1235.89C746.33 1263.3 730.025 1281.45 713.262 1299.27C706.456 1306.5 699.432 1313.64 691.132 1319.35C709.804 1313.46 721.376 1298.26 735.631 1284.41C734.126 1296.6 729.021 1305.6 723.034 1314.24H722.99ZM1059.69 1155.71C1064.86 1169.44 1069.61 1182.65 1073.34 1196.23C1074.97 1202.21 1073.55 1207.25 1071.16 1212.48C1065.04 1226.23 1057.16 1239 1049.66 1251.98C1048.77 1253.53 1047.16 1254.84 1048.33 1258.73C1059.33 1245.65 1067.3 1231.84 1076.18 1217.56C1079.72 1233.26 1075.9 1246.45 1067.64 1258.7C1065.82 1261.42 1063.87 1264.08 1062.03 1266.76C1059.9 1269.86 1058.48 1274.34 1055.56 1275.74C1051.99 1277.46 1049.99 1272.18 1046.9 1270.51C1040.7 1267.17 1038.5 1268.63 1034.98 1278.82C1033.89 1287.43 1032.8 1296.03 1031.81 1304.7C1031.57 1306.74 1030.17 1308.02 1029.01 1309.5C1000.66 1345.55 964.186 1370.01 921.04 1385.28C885.453 1397.88 849.123 1402.49 811.801 1395.87C793.053 1392.57 774.174 1389.12 757.127 1379.99C750.464 1376.42 742.829 1373.43 740.964 1364.64C737.692 1356.82 737.343 1354.23 738.783 1346.36C775.079 1368.52 814.964 1374.32 856.278 1370.16C913.668 1364.36 965.451 1344.69 1007.78 1304.09C1008.74 1303.06 1009.64 1301.99 1010.47 1300.86C1011.8 1300.02 1014.11 1299.05 1012.4 1297.38C1010.7 1295.7 1009.88 1298.27 1008.87 1299.32C992.26 1310.74 975.725 1322.28 957.708 1331.48C910.712 1355.46 861.229 1365.94 808.617 1357.88C786.28 1354.45 765.885 1345.49 746.908 1333.28C743.407 1331.03 742.011 1328.58 744.094 1324.68C745.73 1321.63 745.065 1317.65 747.944 1315.08C766.256 1264.45 794.984 1221.52 840.562 1191.15C842.514 1189.86 844.924 1189.21 846.8 1187.86C849.696 1185.82 853.003 1184.42 856.496 1183.75C861.949 1182.67 860.182 1188.45 861.851 1190.81C875.113 1209.63 894.341 1216.92 915.969 1220.29C926.955 1221.87 938.078 1222.31 949.157 1221.61C960.347 1219.09 971.799 1218.1 982.967 1215.02C1009.06 1207.83 1031.17 1194.28 1050.28 1175.52C1055.77 1170.35 1056.65 1162.82 1059.69 1155.71ZM1015.7 1155.41C1022.93 1151.46 1029.88 1146.94 1034.87 1140.28C1036.37 1138.31 1039.51 1135.84 1036.8 1132.91C1034.1 1129.99 1032.59 1134.25 1030.37 1134.69C1029.52 1134.95 1028.69 1135.27 1027.89 1135.66C1024.94 1122.52 1019.72 1110.19 1017.19 1095.53C1026.55 1102.75 1032.33 1111.14 1037.09 1120.02C1043.44 1131.85 1047.86 1144.53 1046.31 1158.41C1045.84 1162.71 1044.77 1166.76 1041.44 1169.8C1017.81 1191.4 990.122 1204.21 958.21 1207.75C945.482 1211.14 932.492 1210.68 919.732 1208.89C905.782 1206.93 892.215 1203.31 880.905 1193.84C874.862 1188.81 871.645 1182.97 871.711 1175.08C871.798 1164.63 872.91 1154.51 878.756 1145.45C878.584 1144.29 879.223 1143.16 880.316 1142.69C881.177 1140.36 881.93 1137.95 884.177 1136.46C885.104 1133.87 886.358 1130.25 888.725 1130.17C892.215 1130.05 889.881 1134.63 891.789 1136.62C893.215 1138.09 893.709 1140.22 893.076 1142.15C890.153 1142.05 888.583 1139.3 886.118 1138.48C883.937 1139.56 882.268 1141.01 883.402 1143.86C899.5 1161.19 919.492 1169.21 943.104 1169.67C968.451 1170.35 993.023 1167.77 1015.7 1155.41ZM1000.77 1110.89C1003.49 1121.59 1006.05 1132.4 1011.19 1142.23C1012.61 1144.95 1012.38 1145.67 1009.91 1146.76C1003.26 1149.71 996.589 1152.5 989.402 1153.87C963.521 1160.63 937.771 1161.4 912.174 1152.39C908.782 1151.18 908.04 1149.64 907.974 1145.94C907.745 1133.41 903.863 1121.45 900.711 1109.43C895.825 1090.84 890.742 1072.31 885.747 1053.76C883.048 1048.46 881.313 1042.73 880.621 1036.84C890.175 1037.86 899.162 1039.92 908.313 1039.95C910.494 1039.95 911.705 1040.86 911.966 1043.25C912.642 1049.53 913.526 1055.77 914.333 1062.04C918.528 1078.1 922.738 1094.16 926.963 1110.2C927.584 1112.51 927.486 1116.43 930.878 1115.64C933.91 1114.94 932.721 1111.19 932.503 1108.77C931.587 1098.69 928.904 1088.94 926.526 1079.15C925.894 1076.92 925.528 1074.62 925.436 1072.3C923.254 1062.89 923.876 1053.24 922.862 1043.72C922.546 1040.68 924.203 1040.26 926.625 1040.26C930.158 1040.26 933.681 1040.09 937.204 1039.98C948.307 1039.57 948.383 1039.56 949.506 1050.29C950.117 1056.1 950.433 1061.94 950.88 1067.76C954.054 1081.96 957.272 1096.14 961.558 1110.06C962.136 1111.94 961.82 1114.88 964.917 1114.46C968.014 1114.04 967.098 1111.23 967.153 1109.31C967.502 1095.8 962.79 1082.9 962.332 1069.52C958.679 1060.75 958.82 1051.11 956.007 1042.18C954.916 1038.6 957.097 1038.62 959.104 1038.41C967.829 1037.49 976.423 1036.38 984.44 1032.55C987.144 1031.24 987.897 1032.38 988.191 1035.21C990.863 1060.66 994.43 1086 1000.77 1110.89ZM1152.52 839.369C1149.18 844.402 1147.69 850.586 1142.89 854.715C1127.96 876.396 1110.51 895.097 1084.57 903.786C1082.87 909.615 1086.86 910.744 1091.12 911.314C1096.84 911.99 1102.62 910.504 1107.28 907.152C1115.43 901.377 1124.09 902.388 1132.47 904.184C1143.38 906.507 1153.69 910.637 1160.42 920.466C1162.29 923.198 1163.02 925.445 1159.25 927.23C1135.76 938.35 1111.33 945.749 1085.08 946.147C1082.9 946.147 1080.83 946.147 1078.7 946.071C1045.04 944.405 1038.14 931.758 1032.77 901.582C1031.45 894.14 1036.71 888.29 1042.29 883.569C1044.97 881.289 1047.98 879.385 1050.81 877.267C1051.53 876.826 1052.04 876.109 1052.22 875.284C1052.39 874.46 1052.21 873.601 1051.72 872.911C1050.77 871.427 1049.32 871.836 1047.95 872.46C1029.85 880.375 1021.1 888.881 1024.97 908.174C1027.15 919.165 1029.53 930.102 1033.63 941.512C1016.47 935.059 1008.38 921.799 1002.29 906.765C1001.08 903.776 1003.92 902.464 1005.35 900.958C1026.04 879.737 1046.29 858.11 1066.09 836.079C1076.6 824.335 1086.94 812.445 1097.1 800.407C1099.45 797.622 1101.08 797.342 1104.15 799.031C1120.08 807.706 1135.39 817.462 1149.96 828.228C1154.31 831.487 1155.63 834.68 1152.52 839.369ZM1158.92 848.392C1158.08 840.864 1159.23 839.391 1165.33 840.208C1166.16 840.326 1167.52 840.208 1167.84 839.67C1169.15 837.81 1168.14 835.971 1166.89 834.573C1161.75 828.82 1156.47 823.174 1151.24 817.485C1137.75 806.103 1123.23 795.952 1107.88 787.158L1118.61 773.726C1120.98 768.769 1125.44 765.446 1128.55 761.079C1129.76 759.38 1131.05 759.122 1132.72 760.273C1152.36 773.855 1170.08 789.18 1177.91 812.71C1183.83 830.519 1177.06 842.757 1158.92 848.392ZM1192.1 572.184C1186.65 611.501 1174.33 648.774 1156.77 684.478C1139.02 720.601 1115.13 752.229 1089.15 782.749C1054.37 823.496 1017.98 862.781 982.411 902.829C950.717 938.511 915.882 971.118 879.149 1001.77C857.576 1019.75 833.342 1027.65 805.879 1028.04C803.534 1028.04 801.124 1028.19 798.954 1026.96C779.497 1025.47 760.934 1020.1 743.331 1012.24C707.056 996.056 671.752 977.828 636.72 959.159C606.845 943.284 577.8 925.934 549.698 907.174C504.741 877.062 464.344 841.638 426.618 803.01C399.516 775.253 376.645 744.647 360.242 709.449C356.545 701.502 353.022 693.479 348.561 683.585C357.286 688.844 364.146 693.017 371.039 697.082C382.362 703.795 394.814 708.45 407.805 710.826C417.435 712.557 426.346 708.675 433.751 702.222C435.518 700.684 437.143 698.996 438.834 697.361C443.044 689.242 447.046 681.23 447.613 671.702C448.977 648.903 436.707 632.579 421.078 618.932C398.883 599.574 377.005 580.023 357.352 558.128C347.798 547.492 339.018 536.19 329.736 525.307C327.937 523.156 328.002 521.005 328.297 518.725C330.751 499.626 334.132 480.731 341.046 462.642C346.096 443.479 354.287 425.552 363.863 408.334C385.676 369.157 414.73 336.432 452.401 311.601C481.36 292.246 514.154 279.171 548.618 273.241C598.7 264.703 647.27 269.9 694.328 288.835C710.131 294.405 724.692 302.439 739.044 310.967C743.32 313.505 743.582 314.677 739.612 318.064C716.817 337.422 695.986 358.661 679.354 383.664C678.261 385.187 677.343 386.824 676.616 388.547C676.038 390.117 673.344 391.773 675.416 393.375C677.783 395.279 679.779 393.203 681.371 391.461C697.731 373.921 713.949 356.327 732.348 340.831C773.029 306.59 818.509 281.135 870.031 267.359C904.561 258.143 939.832 254.744 975.376 259.239C1051.59 268.918 1111.41 305.482 1152.96 370.146C1172.43 400.452 1184.58 433.918 1190.69 469.525C1196.46 503.474 1196.94 538.093 1192.1 572.184Z" fill="#2C2729"/>
<path d="M767.894 336.68L767.742 336.787L767.862 336.841L767.894 336.68ZM1031.83 406.183C1026.94 392.544 1019.86 379.767 1010.86 368.34C987.201 338.4 958.746 314.085 924.064 297.47L923.606 297.298C917.171 294.857 910.747 292.351 904.279 289.985C871.931 278.156 840.204 277.005 809.917 296.04C795.411 305.159 782.127 315.537 777.198 333.12C774.831 341.562 778.288 347.401 786.784 349.337C791.616 350.412 796.6 351.015 801.268 352.563C827.635 361.295 853.24 372.12 877.831 384.933C909.983 401.774 936.181 426.035 961.309 451.48C969.151 459.427 976.916 467.062 986.732 472.364C1008.81 484.29 1030.66 473.805 1035.21 449.318C1037.77 435.477 1035.78 422.035 1032.48 408.678C1032.26 407.882 1032.05 407.022 1031.83 406.183ZM1025.67 449.468C1023.49 462.782 1014.26 469.321 1003.23 467.127C993.287 466.342 985.783 460.857 978.607 454.609C965.715 443.339 955.332 429.67 943.15 417.701C928.077 402.871 912.23 389.084 894.42 377.61L865.823 362.371C844.414 352.596 822.732 343.627 799.294 340.003C797.215 339.547 795.072 339.441 792.957 339.691C785.257 341.207 786.544 336.626 788.322 332.614C790.209 328.388 792.39 324.151 796.262 321.194C810.059 306.267 824.848 293.115 847.173 294.308C876.937 295.911 904.367 305.364 930.564 318.968C960.011 334.249 984.889 355.413 1006.69 379.825C1024.14 399.365 1029.97 423.54 1025.67 449.468ZM388.383 666.239C395.134 666.239 399.638 662.26 399.562 656.248C399.369 650.145 394.324 645.28 388.132 645.225C382.406 645.225 378.84 648.925 378.665 655.119C378.48 662.088 382.068 666.196 388.383 666.239ZM414.471 674.885C420.698 675.036 424.745 671.562 424.821 666.013C424.919 660.152 419.662 654.549 413.915 654.388C408.461 654.227 404.099 658.614 403.783 664.712C403.466 670.809 407.589 674.735 414.471 674.885ZM393.672 672.433C388.775 673.165 384.784 675.541 384.838 681.488C384.838 687.188 390.106 692.963 395.33 692.533C400.554 692.102 403.804 689.016 404.121 684.575C403.99 677.595 398.733 671.637 393.672 672.433Z" fill="#2C2729"/>
<path d="M972.194 355.628C955.095 339.886 934.732 327.994 912.514 320.774C907.388 319.053 903.178 320.032 899.502 323.473C891.65 330.829 883.808 338.206 876.261 345.874C870.109 352.133 871.276 355.983 879.532 358.779C898.51 365.231 914.989 375.577 928.415 390.546L928.492 390.611C930.433 392.267 932.451 393.837 934.272 395.611C938.874 400.085 942.615 400.386 947.098 394.859C951.929 388.89 957.743 383.717 963.163 378.233L963.654 377.738C966.577 374.415 969.26 370.845 972.455 367.834C977.102 363.478 976.862 359.94 972.194 355.628ZM1000.75 430.046L1000.08 430.401C995.13 433.046 992.207 437.187 993.658 442.854C995.108 448.522 998.304 453.447 1005.23 452.985C1005.63 452.965 1006.03 452.926 1006.43 452.866C1017.23 447.102 1019.08 442.273 1013.44 434.584C1010.24 430.207 1005.41 430.347 1000.75 430.046ZM992.011 414.646C992.005 414.707 992.005 414.768 992.011 414.829C992.36 419.776 995.632 422.787 999.209 425.583L999.394 425.734C1007.3 426.11 1013.2 421.346 1013.45 414.367C1013.66 408.99 1008.6 403.537 1002.94 402.956C996.875 402.333 992.916 406.516 992.011 414.646ZM845.69 301.954C840.662 302.029 836.583 305.062 834.991 310.353V310.471C836.419 315.752 837.826 321.311 844.73 321.516C851.088 321.688 854.415 317.763 855.746 311.912V311.762C854.197 306.664 851.568 301.879 845.69 301.954ZM873.807 320.279C871.505 316.515 868.015 315.042 863.456 315.795C859.955 316.375 858.276 319.021 857.48 322.032C856.313 326.387 858.81 328.839 862.06 330.732L863.151 331.323C872.476 331.012 873.643 329.979 874.45 321.333C874.221 320.956 874.014 320.623 873.807 320.279ZM978.988 418.905C973.306 419.066 967.995 424.228 967.973 429.659C967.973 435.477 974.037 441.252 979.97 441.058C985.358 440.886 991.127 434.703 990.964 429.229C990.833 423.465 985.325 418.733 978.988 418.905ZM843.847 325.495C838.601 325.602 834.663 327.775 834.184 333.453C833.769 338.314 839.419 344.282 844.152 344.529C848.667 344.755 852.943 340.454 852.964 335.636C853.008 329.732 849.191 325.376 843.847 325.495ZM850.074 743.603C844.501 728.548 826.789 715.094 810.811 714.051C799.076 713.288 789.107 717.514 780.895 725.881C779.324 727.472 779.16 729.053 780.24 730.376C781.32 731.699 782.825 731.935 784.81 730.688C789.94 727.594 795.642 725.532 801.584 724.622C807.418 723.503 813.45 723.971 819.034 725.977C818.675 727.58 817.246 728.128 816.188 729.01C797.134 744.56 775.409 754.82 751.84 761.573C732.327 767.247 712.247 770.813 691.953 772.209C679.963 772.902 667.934 772.473 656.027 770.93C642.699 769.306 629.437 767.284 616.589 763.197C606.228 759.907 596.379 755.562 587.851 748.658C587.358 748.246 586.825 747.886 586.258 747.582C584.876 746.707 583.053 746.953 581.961 748.163C580.952 749.268 580.801 750.896 581.59 752.164C582.116 753.059 582.734 753.898 583.433 754.669C591.068 764.133 601.287 770.048 612.303 774.758C615.051 775.93 617.854 776.973 620.624 778.07C628.259 780.06 635.893 782.135 643.768 783.609C663.874 787.56 684.488 788.348 704.844 785.942C731.707 782.598 757.533 775.758 781.898 763.95C794.849 757.672 806.709 749.411 817.039 739.474C819.825 736.897 822.3 734.01 824.411 730.871C825.317 729.472 826.124 729.15 827.552 730.128C830.115 731.892 832.864 733.355 834.947 735.764C840.062 739.506 843.814 744.507 847.555 749.507C848.087 750.108 848.409 750.863 848.471 751.658C848.471 752.551 848.875 753.196 849.867 753.11C850.676 753.008 851.327 752.405 851.481 751.615C851.836 750.356 851.836 749.025 851.481 747.765C851.088 746.354 850.618 744.965 850.074 743.603ZM855.506 624.803C853.946 623.351 852.234 621.996 850.587 620.695C860.61 591.379 864.482 550.363 845.45 522.832C833.213 505.163 812.731 495.184 793.099 497.431C789.797 497.817 786.544 498.538 783.392 499.582C776.109 502.255 769.395 506.245 763.597 511.347C762.386 512.422 761.209 513.584 760.096 514.756C757.926 516.981 755.921 519.356 754.098 521.865H754.185C751.674 525.31 749.456 528.953 747.554 532.758C745.141 537.568 743.332 542.649 742.166 547.889H742.046C737.498 566.849 739.428 591.132 741.021 610.952C741.173 612.887 741.326 614.748 741.468 616.544C737.334 619.588 733.719 623.261 730.758 627.427C741.407 621.588 753.07 617.765 765.146 616.157C776.871 614.535 788.754 614.347 800.526 615.597C812.329 616.753 823.957 619.254 835.176 623.05C846.421 626.921 857.185 632.137 866.99 640.256C864.227 634.412 860.325 629.161 855.506 624.803ZM838.797 613.167C834.256 610.829 829.538 608.845 824.684 607.231C825.371 592.175 826.276 577.528 826.331 562.515C814.857 557.837 802.108 554.987 790.132 551.449L817.78 545.309C819.034 545.029 820.278 544.749 821.521 544.491C821.936 536.963 822.154 529.156 819.874 521.822C819.132 519.488 818.11 517.25 816.831 515.154C823.805 518.748 829.775 523.977 834.216 530.382C849.791 552.869 846.606 588.196 838.797 613.167ZM562.951 647.29C569.168 641.278 574.948 636.224 581.492 632.417C587.862 628.614 594.688 625.609 601.811 623.469C609.102 621.302 616.567 619.748 624.125 618.824C627.975 618.329 631.902 617.985 635.872 617.748C637.9 617.598 639.896 617.598 641.957 617.555H643.343C642.257 620.392 641.567 623.363 641.292 626.384C640.722 632.4 641.736 638.46 644.237 643.977C646.525 649.248 650.337 653.736 655.198 656.882C652.73 652.361 651.15 647.421 650.541 642.321C649.974 637.636 650.345 632.886 651.631 628.341C652.877 624.105 655.047 620.188 657.99 616.866C660.892 613.57 664.434 610.879 668.406 608.951C670.355 607.985 672.407 607.235 674.524 606.714C676.602 606.139 678.746 605.832 680.904 605.8C685.444 605.717 689.957 606.51 694.188 608.134C702.913 611.446 711.072 617.716 714.016 628.47C715.412 622.768 714.558 616.756 711.628 611.651C708.629 606.352 704.274 601.922 698.998 598.799C696.353 597.19 693.523 595.897 690.567 594.949C689.065 594.452 687.531 594.054 685.976 593.756C685.507 593.68 685.027 593.594 684.547 593.541C688.91 531.242 670.489 497.431 629.786 493.054C621.258 492.165 612.636 493.195 604.57 496.065C603.185 496.56 601.822 497.141 600.469 497.689C589.639 501.787 580.427 509.201 574.185 518.843C572.822 520.76 571.559 522.745 570.4 524.79C565.503 533.84 562.367 543.714 561.152 553.901H561.261C560.567 560.291 560.545 566.735 561.195 573.129C562.951 591.003 569.146 607.779 575.788 623.286C575.439 623.631 575.079 623.932 574.763 624.276C568.382 630.469 564.233 638.552 562.951 647.29ZM640.889 541.899L644.411 540.297C643.321 532.447 642.121 524.435 638.445 517.369C636.194 512.892 632.814 509.06 628.63 506.239C661.349 509.884 675.255 538.609 671.067 593.949C668.103 594.629 665.227 595.639 662.494 596.96C661.404 597.53 660.313 598.133 659.222 598.799C658.513 593.648 657.368 588.443 656.681 583.529C656.321 580.948 654.314 558.203 652.624 557.859C640.441 555.353 627.375 554.998 614.942 553.74C623.602 549.789 632.251 545.835 640.889 541.878V541.899Z" fill="#2C2729"/>
</g>
<mask id="mask1_1_2857" style="mask-type:luminance" maskUnits="userSpaceOnUse" x="144" y="942" width="213" height="194">
<path d="M204.722 942.02L144.107 1018.38L295.493 1135.22L356.108 1058.86L204.722 942.02Z" fill="white"/>
</mask>
<g mask="url(#mask1_1_2857)">
<path d="M186.796 968.976C182.189 971.925 178.121 975.62 174.763 979.906C158.269 1000.92 161.988 1031.36 183.054 1047.78L220.198 1076.72L257.342 1105.66C278.409 1122.07 308.966 1118.33 325.462 1097.32C328.837 1093.03 331.456 1088.2 333.209 1083.05C339.821 1063.62 333.376 1042.09 317.173 1029.46L280.028 1000.52L242.884 971.582C226.688 958.946 204.125 957.898 186.796 968.976Z" fill="#2C2729"/>
<path d="M203.99 1021.09C189.227 1009.59 184.085 990.38 189.786 973.628C185.701 976.238 182.094 979.511 179.117 983.309C164.484 1001.95 167.771 1028.86 186.46 1043.42L223.605 1072.36L241.134 1050.03L203.99 1021.09Z" fill="#E6639A"/>
<path d="M241.2 1049.95L223.672 1072.28L260.818 1101.22C279.507 1115.78 306.518 1112.47 321.15 1093.84C324.139 1090.03 326.459 1085.75 328.011 1081.19C333.705 1064.43 328.57 1045.23 313.807 1033.72L276.662 1004.78L241.2 1049.95Z" fill="#2C2729"/>
<path d="M203.99 1021.09L241.134 1050.03L276.593 1004.87L239.446 975.923C224.684 964.42 204.73 964.077 189.784 973.626C184.085 990.381 189.227 1009.59 203.99 1021.09Z" fill="#F08CB6"/>
</g>
<mask id="mask2_1_2857" style="mask-type:luminance" maskUnits="userSpaceOnUse" x="757" y="0" width="195" height="199">
<path d="M951.736 38.0617L798.864 0L757.875 160.063L910.747 198.125L951.736 38.0617Z" fill="white"/>
</mask>
<g mask="url(#mask2_1_2857)">
<path d="M903.607 34.1015C900.808 33.0098 897.916 32.5128 894.939 32.4115C889.415 32.2302 883.98 32.9604 878.617 34.2457C872.514 35.7117 866.589 37.7513 860.817 40.1973C848.116 45.5844 836.267 52.4746 825.044 60.4585C823.791 61.3494 822.558 62.2671 821.346 63.2117C820.826 63.6146 820.945 64.234 821.552 64.471C824.301 65.5487 827.05 66.6297 829.808 67.6861C838.601 71.0522 847.119 75.0833 855.747 78.8483C862.168 81.6503 868.516 84.6121 874.903 87.4867C877.299 88.5639 879.728 89.5667 882.115 90.6604C883.571 91.3274 884.64 91.1831 885.882 89.9612C893.27 82.6955 899.866 74.8205 904.949 66.3739C907.161 62.6234 908.82 59.1675 910.097 55.5429C911.307 52.108 912.029 48.5856 911.752 44.927C911.347 39.5978 908.594 36.0454 903.607 34.1015ZM793.98 138.039C800.402 137.983 806.645 136.702 812.779 134.889C822.082 132.139 830.973 128.375 839.547 123.827C847.993 119.328 856.103 114.241 863.817 108.605C864.414 108.172 865.205 107.882 865.347 107.003C865.197 106.844 865.077 106.623 864.896 106.542C858.319 103.83 851.73 101.147 845.157 98.4268C831.289 92.6876 817.484 86.808 804.006 80.2028C802.74 79.5848 802.342 79.6466 801.363 80.556C800.961 80.9242 800.601 81.3466 800.221 81.7435C794.289 87.9373 788.827 94.4919 784.146 101.696C781.169 106.311 778.783 111.27 777.041 116.462C776.128 119.147 775.592 121.957 775.667 124.837C775.815 130.649 778.525 134.511 783.943 136.596C787.177 137.842 790.571 138.069 793.98 138.039Z" fill="white"/>
<path d="M895.458 91.9727C895.095 92.2176 894.767 92.5105 894.485 92.8432C886.858 101.229 878.352 108.657 869.308 115.474C856.886 124.845 843.557 132.665 829.216 138.735C820.073 142.6 810.643 145.504 800.719 146.573C800.393 146.609 800.07 146.638 799.742 146.681C798.992 146.777 798.565 147.209 798.467 147.951C798.139 150.355 798.01 152.783 798.836 155.088C800.052 158.476 802.048 161.294 805.545 162.698C807.264 163.413 809.068 163.91 810.914 164.177C814.289 164.613 817.705 164.649 821.089 164.285C829.35 163.431 837.239 161.092 844.96 158.15C859.009 152.797 871.925 145.355 884.165 136.709C886.347 135.168 888.181 133.307 889.524 130.992C890.239 129.766 890.931 128.515 891.633 127.276C895.413 120.909 896.899 116.121 898.036 108.801C898.813 103.792 898.716 98.7802 897.114 93.9005C896.903 93.2909 896.635 92.7018 896.314 92.1406C896.141 91.8151 895.727 91.8057 895.458 91.9727Z" fill="white"/>
<path d="M902.512 25.8849C898.956 25.0432 895.363 24.7886 891.731 24.891C882.515 25.1529 873.682 27.4468 865.072 30.5082C853.976 34.4789 843.36 39.6476 833.417 45.9202C816.962 56.2584 801.846 68.2157 789.036 82.8886C781.867 91.1032 775.453 99.8397 771.294 110.016C769.203 115.137 767.825 120.411 767.987 125.96C768.129 131.011 769.548 135.633 773.113 139.423C774.228 140.621 775.281 141.873 776.268 143.174C781.311 149.763 786.525 156.21 791.991 162.456C794.237 165.02 796.914 167.085 799.573 169.166C800.495 169.892 801.663 170.353 802.771 170.809C807.607 172.805 812.694 173.471 817.896 173.386C826.665 173.244 835.108 171.273 843.356 168.455C852.53 165.32 861.275 161.191 869.719 156.439C886.488 147 901.628 135.443 914.983 121.597C922.173 114.144 928.637 106.128 933.726 97.0789C934.321 96.0299 934.941 94.9934 935.504 93.9319C937.926 89.3613 939.957 84.6275 940.983 79.5516C942.108 73.99 942.242 68.4548 939.636 63.2097C938.229 60.3841 936.797 57.5757 934.599 55.2181C933.108 53.6233 931.854 51.8253 930.462 50.1441C925.521 44.1743 920.593 38.1949 914.974 32.8239C911.416 29.4348 907.353 27.031 902.512 25.8849ZM775.668 124.838C775.593 121.957 776.129 119.147 777.042 116.462C778.784 111.27 781.17 106.311 784.147 101.697C788.828 94.4922 794.29 87.9377 800.222 81.7439C800.602 81.3469 800.961 80.929 801.364 80.5563C802.343 79.6469 802.747 79.5866 804.007 80.2031C817.484 86.8079 831.289 92.6875 845.156 98.4267C851.73 101.146 858.319 103.83 864.896 106.542C865.078 106.617 865.197 106.844 865.346 107.003C865.205 107.882 864.413 108.175 863.817 108.605C856.103 114.241 847.992 119.328 839.546 123.827C830.973 128.371 822.083 132.135 812.779 134.885C806.645 136.697 800.402 137.979 793.981 138.034C790.572 138.064 787.178 137.837 783.945 136.592C778.526 134.511 775.816 130.648 775.668 124.838ZM896.319 92.1369C896.64 92.698 896.907 93.2871 897.119 93.8967C898.719 98.7743 898.818 103.787 898.04 108.797C896.903 116.117 895.414 120.905 891.638 127.272C890.936 128.511 890.245 129.758 889.529 130.989C888.182 133.307 886.349 135.162 884.167 136.705C871.918 145.356 859.003 152.795 844.953 158.148C837.235 161.091 829.343 163.429 821.082 164.283C817.699 164.647 814.283 164.611 810.909 164.175C809.063 163.908 807.259 163.411 805.54 162.697C802.042 161.292 800.046 158.474 798.831 155.086C797.997 152.779 798.134 150.354 798.462 147.949C798.563 147.208 798.99 146.776 799.736 146.679C800.064 146.636 800.388 146.607 800.714 146.572C810.644 145.504 820.074 142.6 829.217 138.735C843.557 132.665 856.886 124.845 869.308 115.474C878.354 108.652 886.856 101.224 894.487 92.8387C894.769 92.5059 895.096 92.213 895.46 91.9682C895.728 91.8055 896.142 91.8149 896.319 92.1369ZM911.757 44.9285C912.034 48.5871 911.313 52.1094 910.102 55.5444C908.826 59.1689 907.167 62.6248 904.954 66.3753C899.871 74.8219 893.275 82.6969 885.888 89.9627C884.646 91.1845 883.577 91.3288 882.12 90.6619C879.733 89.5682 877.304 88.5654 874.908 87.4881C868.522 84.6136 862.167 81.6503 855.752 78.8498C847.125 75.0848 838.614 71.0555 829.813 67.6875C827.056 66.6311 824.306 65.5501 821.557 64.4724C820.95 64.2354 820.827 63.6149 821.351 63.2131C822.567 62.2735 823.8 61.3558 825.049 60.46C836.274 52.4765 848.122 45.5829 860.821 40.2031C866.594 37.7572 872.518 35.7175 878.622 34.2516C883.984 32.9648 889.426 32.2376 894.943 32.4174C897.925 32.5153 900.806 33.0094 903.612 34.1074C908.593 36.0454 911.346 39.5978 911.757 44.9285Z" fill="#2C2729"/>
</g>
<mask id="mask3_1_2857" style="mask-type:luminance" maskUnits="userSpaceOnUse" x="5" y="498" width="215" height="222">
<path d="M121.589 498.464L5.82471 574.81L103.803 719.254L219.567 642.908L121.589 498.464Z" fill="white"/>
</mask>
<g mask="url(#mask3_1_2857)">
<path d="M162.942 559.587C161.304 557.458 159.458 558.539 157.472 559.209C150.987 561.395 144.444 563.373 137.76 564.927C124.093 568.11 111.304 566.183 99.2422 559.096C90.3144 553.866 82.0813 547.562 74.7327 540.327C73.03 538.651 71.4211 536.877 69.7072 535.21C68.8618 534.388 67.8193 534.077 66.5812 534.836C65.0404 536.261 65.4057 538.137 65.8998 539.871C67.906 546.903 68.9797 554.153 71.3218 561.112C76.4906 576.493 77.5087 592.23 74.8597 608.2C73.2628 617.824 69.1845 626.314 62.5169 633.534C60.2805 635.967 57.8337 638.213 55.5852 640.636C54.2139 642.116 52.7208 643.713 54.1744 645.945C55.5881 648.115 57.5529 647.663 59.6051 647.012C78.4678 641.034 96.1987 644.389 113.238 653.359C126.329 660.247 137.399 669.543 146.751 680.871C147.807 682.142 148.797 683.507 150.04 684.574C151.538 685.857 153.565 686.184 155.233 685.231C157.096 684.167 156.2 682.342 155.64 680.8C155.204 679.599 154.717 678.414 154.213 677.237C151.837 671.687 149.307 666.195 147.087 660.584C138.816 639.687 137.688 618.651 146.083 597.475C150.537 586.235 154.998 575.003 162.168 565.075C163.389 563.386 164.491 561.607 162.942 559.587ZM150.793 569.987C146.971 577.085 143.735 584.436 140.646 591.863C131.03 614.972 131.4 638.053 140.667 661.144C141.28 662.67 141.812 664.222 142.383 665.762C142.519 665.856 142.64 665.97 142.741 666.101C142.901 666.363 142.947 666.643 142.742 666.81C142.319 667.158 142.052 667.057 141.853 666.801C141.756 666.625 141.668 666.444 141.592 666.258C133.208 658.769 124.238 652.103 114.091 647.07C99.69 639.927 84.6795 636.317 68.5099 639.363C67.787 639.501 67.0562 639.724 66.5161 638.971C66.5015 638.823 66.4134 638.608 66.4845 638.532C78.003 625.858 81.6588 610.574 81.9258 594.064C82.1502 580.19 78.9541 566.972 74.6857 553.915C74.2892 552.703 73.9155 551.482 73.5333 550.268C73.1217 549.773 72.4771 549.284 73.3477 548.725C73.4497 548.658 74.0462 549.34 74.4132 549.674C79.9137 553.976 85.3991 558.284 91.2699 562.111C107.424 572.647 124.618 575.392 143.116 569.213C145.912 568.278 148.75 567.475 151.579 566.608C152.686 568.034 151.327 568.995 150.793 569.987Z" fill="#2C2729"/>
<path d="M151.571 566.61C148.743 567.477 145.903 568.281 143.108 569.214C124.617 575.389 107.423 572.645 91.2622 562.113C85.3914 558.286 79.9114 553.974 74.4055 549.676C74.0394 549.343 73.4429 548.661 73.34 548.727C72.4726 549.282 73.1185 549.781 73.5256 550.27C73.9096 551.486 74.2833 552.708 74.678 553.917C78.9464 566.974 82.1425 580.192 81.9181 594.066C81.6511 610.575 77.9953 625.859 66.4768 638.534C66.4057 638.609 66.4938 638.825 66.5084 638.973C67.0485 639.726 67.7793 639.503 68.5022 639.365C84.6804 636.317 99.6908 639.926 114.089 647.069C124.21 652.083 133.172 658.737 141.537 666.211C141.605 666.377 141.684 666.538 141.776 666.694L141.939 666.176L142.613 665.923C142.536 665.832 142.45 665.75 142.355 665.677C141.797 664.167 141.271 662.646 140.671 661.152C131.401 638.053 131.031 614.972 140.645 591.864C143.736 584.436 146.972 577.085 150.794 569.987C151.327 568.995 152.687 568.034 151.571 566.61Z" fill="white"/>
<path d="M141.778 666.691C141.985 667.018 142.264 667.202 142.743 666.807C142.993 666.602 142.871 666.219 142.611 665.913L141.937 666.166L141.778 666.691Z" fill="white"/>
</g>
<mask id="mask4_1_2857" style="mask-type:luminance" maskUnits="userSpaceOnUse" x="0" y="247" width="355" height="368">
<path d="M194.002 247.67L0 372.847L160.645 614.911L354.647 489.735L194.002 247.67Z" fill="white"/>
</mask>
<g mask="url(#mask4_1_2857)">
<path d="M261.804 350.101C259.112 346.53 256.022 348.299 252.704 349.382C241.872 352.914 230.947 356.097 219.794 358.575C196.988 363.648 175.733 360.229 155.775 348.232C141.002 339.379 127.404 328.748 115.294 316.584C112.488 313.765 109.84 310.787 107.015 307.983C105.622 306.601 103.892 306.066 101.818 307.309C99.2288 309.655 99.805 312.784 100.598 315.679C103.818 327.417 105.482 339.503 109.263 351.127C117.606 376.817 119.034 403.03 114.353 429.569C111.531 445.564 104.598 459.629 93.3763 471.537C89.6122 475.55 85.5011 479.249 81.717 483.246C79.409 485.686 76.8965 488.321 79.2784 492.06C81.5948 495.696 84.873 494.975 88.3004 493.927C119.801 484.286 149.26 490.163 177.472 505.377C199.147 517.059 217.417 532.716 232.791 551.727C234.528 553.86 236.153 556.149 238.204 557.946C240.676 560.107 244.044 560.684 246.837 559.125C249.957 557.385 248.496 554.332 247.59 551.757C246.885 549.75 246.095 547.769 245.274 545.802C241.414 536.523 237.296 527.339 233.695 517.963C220.282 483.04 218.762 448.005 233.096 412.893C240.7 394.256 248.317 375.633 260.421 359.223C262.483 356.432 264.348 353.489 261.804 350.101ZM241.402 367.213C234.92 378.966 229.408 391.148 224.14 403.461C207.74 441.77 207.965 480.198 223 518.79C223.994 521.339 224.853 523.931 225.776 526.504C226.002 526.663 226.201 526.855 226.367 527.074C226.629 527.513 226.701 527.98 226.357 528.256C225.647 528.828 225.204 528.654 224.878 528.225C224.718 527.931 224.576 527.628 224.452 527.317C210.623 514.712 195.805 503.467 178.998 494.921C155.147 482.793 130.222 476.536 103.253 481.341C102.048 481.558 100.827 481.918 99.9411 480.655C99.9194 480.409 99.7764 480.048 99.896 479.923C119.285 459.015 125.631 433.633 126.355 406.155C126.964 383.064 121.869 361.008 114.985 339.203C114.345 337.179 113.744 335.139 113.128 333.112C112.452 332.281 111.387 331.457 112.846 330.541C113.017 330.431 113.998 331.575 114.603 332.139C123.687 339.39 132.745 346.652 142.452 353.12C169.164 370.925 197.74 375.777 228.637 365.798C233.306 364.287 238.045 362.997 242.768 361.601C244.587 363.993 242.308 365.571 241.402 367.213Z" fill="#2C2729"/>
<path d="M242.753 361.604C238.03 363.001 233.289 364.292 228.62 365.799C197.736 375.773 169.16 370.921 142.437 353.123C132.729 346.655 123.68 339.388 114.588 332.142C113.984 331.581 113.003 330.436 112.831 330.544C111.377 331.454 112.444 332.296 113.113 333.116C113.732 335.147 114.333 337.186 114.97 339.206C121.853 361.011 126.949 383.067 126.34 406.158C125.615 433.637 119.27 459.019 99.8808 479.927C99.7612 480.051 99.9042 480.412 99.926 480.658C100.812 481.921 102.033 481.561 103.238 481.344C130.221 476.536 155.146 482.793 178.993 494.921C195.756 503.435 210.562 514.659 224.359 527.238C224.469 527.516 224.599 527.786 224.748 528.045L225.029 527.186L226.155 526.776C226.028 526.624 225.886 526.486 225.73 526.363C224.827 523.84 223.976 521.3 223.004 518.803C207.964 480.199 207.739 441.77 224.137 403.463C229.407 391.149 234.919 378.966 241.401 367.214C242.307 365.571 244.586 363.993 242.753 361.604Z" fill="white"/>
<path d="M224.755 528.041C225.093 528.59 225.556 528.899 226.36 528.251C226.779 527.914 226.582 527.274 226.155 526.761L225.029 527.17L224.755 528.041Z" fill="white"/>
</g>
</svg>
