<svg width="959" height="1145" viewBox="0 0 959 1145" fill="none" xmlns="http://www.w3.org/2000/svg">
<mask id="mask0_1_4117" style="mask-type:luminance" maskUnits="userSpaceOnUse" x="0" y="0" width="959" height="1145">
<path d="M958.362 0H0V1144.98H958.362V0Z" fill="white"/>
</mask>
<g mask="url(#mask0_1_4117)">
<path d="M113.443 350.743C107.884 350.743 102.326 350.113 96.8718 348.854C92.5718 347.804 88.4815 346.125 84.8108 343.712C80.9302 341.088 78.518 338.045 77.5741 334.372C77.3643 333.638 77.1546 332.798 77.1546 331.959C77.0497 327.552 78.0985 323.249 80.1961 319.471C81.2449 317.582 83.0278 316.533 85.0205 316.533C72.2176 312.964 60.2911 306.783 49.9909 298.379L49.886 298.274C49.7812 298.169 49.6763 298.169 49.6763 298.064C49.4665 297.959 49.2568 297.749 49.047 297.539L48.7324 297.225L48.5226 297.015C48.1031 296.805 47.7885 296.49 47.4738 296.07C46.9494 295.651 46.5299 295.126 46.3202 294.496C45.7958 293.132 46.0055 291.558 46.8445 290.404L47.1592 289.984C47.9982 288.935 49.1519 288.305 50.5153 288.305H51.0397C48.208 287.151 45.4811 285.577 42.964 283.688C34.2591 277.601 26.8126 269.521 20.3101 259.027C15.1711 250.632 12.1296 242.657 11.1857 234.682C10.3466 229.54 10.7662 224.188 12.5491 219.151V219.046C13.493 216.633 14.8564 214.429 16.7443 212.435C19.576 209.392 23.6663 207.608 27.9663 207.608C28.9102 207.608 29.8541 207.713 30.798 207.818C35.0981 208.448 38.5591 210.022 41.286 212.54C41.286 212.33 41.1811 212.12 41.1811 211.911C38.4542 203.726 34.6786 195.855 30.0639 188.51C28.8054 186.516 27.6517 184.627 26.3931 182.738C23.5614 178.331 20.6248 173.713 17.8979 168.991C12.0247 158.602 8.14418 147.374 6.46611 135.516C5.73196 130.06 4.89292 124.498 5.31244 118.621C5.73195 110.961 7.5149 103.405 10.6613 96.2697C11.3954 94.6957 12.3393 93.2265 13.3881 91.8624C15.6955 88.7142 19.2614 86.8254 23.2468 86.8254C25.0297 86.8254 26.9175 87.2451 28.4907 88.0846C32.581 89.8685 36.3566 92.5969 39.2933 96.0598C43.3835 100.887 46.8445 106.134 49.6763 111.8C54.291 120.825 58.2764 130.269 61.3179 137.405C62.3666 140.029 63.4154 142.652 64.5691 145.171C66.8764 150.837 69.2887 156.714 71.9106 162.17V162.275C74.0082 166.997 76.4204 171.615 79.0424 176.127C80.301 178.226 81.7693 180.115 83.5522 181.794C85.0205 183.158 86.0693 183.787 87.1181 183.787C88.4815 183.787 89.8449 184.312 90.7889 185.361C89.9498 175.812 88.062 166.473 85.1254 157.343C84.1815 154.51 83.2376 151.677 82.2937 148.948C80.9302 144.961 79.4619 140.868 78.3083 136.671C75.1619 125.862 73.5887 114.634 73.6936 103.301V100.677C73.6936 96.8993 73.6936 93.0167 74.1131 89.134C74.5326 84.2019 75.6863 79.3748 77.7839 74.7576C77.7839 74.7576 77.7839 74.6526 77.8887 74.6526C81.14 67.9366 86.3839 66.4675 90.2645 66.4675C91.6279 66.4675 92.9913 66.6774 94.4596 66.9922C101.382 68.5663 107.57 72.5539 111.765 78.4304C115.016 82.9427 117.638 87.7698 119.631 92.9117C122.987 101.202 125.399 109.807 127.706 118.202L128.021 119.461C129.279 123.868 130.433 128.276 131.587 132.683C132.321 135.306 132.95 137.825 133.684 140.448L135.362 146.43C136.936 152.411 138.614 158.498 140.292 164.479C142.075 170.985 145.221 177.071 149.521 182.213L149.941 182.633C150.255 182.948 150.57 183.263 150.78 183.578L150.885 183.682C151.409 184.102 152.353 184.942 152.982 186.516C153.192 187.04 153.297 187.565 153.297 188.09C154.031 187.775 154.765 187.46 155.604 187.355C156.968 187.145 158.226 187.04 159.59 187.04C164.519 187.04 169.343 188.3 173.538 190.818C180.251 194.491 185.39 200.158 189.165 208.133C193.046 216.213 195.039 224.923 195.144 233.843C195.563 252.102 190.424 269.626 179.621 285.786C174.168 294.181 167.141 301.317 158.751 306.879C155.08 309.292 151.199 311.286 147.214 312.86C150.255 312.231 153.192 311.181 155.919 309.817C161.058 307.299 165.673 304.151 169.868 300.373L170.077 300.163C170.182 300.058 170.392 299.848 170.602 299.743C171.546 298.904 172.699 297.959 174.587 297.959C176.58 297.959 177.838 299.114 178.678 299.953L178.782 300.058C178.992 300.268 179.202 300.478 179.412 300.583C184.865 305.2 186.334 312.755 183.082 319.052C183.082 319.052 183.082 319.157 182.978 319.157C180.251 323.984 176.685 328.181 172.28 331.539C164.729 337.416 156.233 341.823 147.109 344.761C138.299 347.7 129.07 349.483 119.631 350.113C117.428 350.638 115.435 350.743 113.443 350.743ZM69.3935 293.237C70.757 293.447 72.1204 293.447 73.4838 293.447C74.7424 293.447 76.1058 293.342 77.3643 293.237C84.4961 292.188 89.2157 287.78 90.684 280.749C91.3133 277.601 91.1035 274.138 90.2645 270.885C89.0059 265.743 86.9083 260.916 83.9717 256.614C81.2449 252.416 77.9936 248.429 74.5326 244.861C79.5668 250.528 83.5522 256.719 86.5937 263.54C88.6913 268.052 89.7401 273.194 89.6352 278.231C89.6352 280.12 89.2157 282.009 88.4815 283.793C87.223 286.941 84.2864 291.033 77.7839 292.502C75.6863 292.922 73.5887 293.132 71.596 293.132C70.8619 293.237 70.1277 293.237 69.3935 293.237ZM55.2349 289.879C55.13 289.879 55.0251 289.774 54.9202 289.774H55.0251C55.13 289.774 55.13 289.879 55.2349 289.879ZM104.948 264.484C109.772 268.682 115.645 270.99 122.567 271.305H124.14C130.014 271.305 135.782 269.836 140.921 267.003C143.963 265.429 146.689 263.54 149.311 261.546C147.424 262.91 145.536 264.169 143.543 265.324C138.509 268.367 132.74 270.256 126.762 270.885C125.609 270.99 124.455 271.095 123.301 271.095C116.379 270.99 110.191 268.787 104.948 264.484ZM97.5011 255.25C97.5011 255.355 97.5011 255.46 97.606 255.565C97.7109 255.669 97.7109 255.774 97.8158 255.879C98.3402 256.824 98.9694 257.663 99.4938 258.503C98.9694 257.348 98.6548 256.089 98.6548 254.725C98.6548 249.163 100.962 244.651 102.955 241.293C105.891 236.676 109.562 232.688 113.862 229.54C114.177 229.33 114.492 229.015 114.806 228.806L114.701 228.91C107.36 233.947 101.906 240.978 98.8646 249.268C98.445 251.157 97.9206 253.151 97.5011 255.25Z" fill="#F7F6F5"/>
<path d="M333.583 1072.5C332.535 1072.5 331.486 1072.08 330.647 1071.35L329.178 1069.98C328.13 1068.93 327.71 1067.36 328.025 1065.89C329.493 1060.64 329.598 1054.98 328.339 1047.84C328.234 1047.21 328.13 1046.48 328.025 1045.85C327.186 1040.81 326.452 1036.09 323.725 1032.52C319.844 1027.38 318.376 1022.03 317.432 1016.99C314.181 999.674 306.944 982.779 294.568 963.891C266.775 921.601 230.487 889.07 186.962 867.139C168.609 857.904 151.513 852.867 134.418 851.608C133.055 851.503 131.691 851.503 130.223 851.503C126.762 851.503 123.301 851.713 119.84 852.132H119.315C117.637 852.132 116.169 851.188 115.435 849.614C114.701 847.935 115.12 845.941 116.589 844.682C123.301 839.12 130.433 837.546 136.725 836.287C137.879 836.077 139.138 835.762 140.291 835.447C140.606 835.343 140.921 835.343 141.235 835.343C141.864 835.343 142.494 835.447 143.123 835.762C145.43 836.917 147.947 837.546 150.569 837.546H150.779C157.177 837.861 163.574 838.91 169.762 840.904C180.984 844.577 191.997 849.089 202.589 854.441C207.099 856.645 211.609 859.163 215.909 861.577C219.79 863.781 223.775 865.984 227.76 867.978C245.275 876.898 261.846 887.496 277.158 899.669C277.473 899.984 277.788 900.299 277.997 900.614C278.627 901.558 279.676 902.293 280.934 903.237C281.563 903.657 282.193 904.076 282.822 904.601H283.136C284.185 904.601 285.234 905.021 285.968 905.755C292.366 911.737 297.924 918.558 303.378 925.064L308.412 931.045C308.727 931.465 309.042 931.885 309.356 932.2C309.776 931.99 310.3 931.885 310.72 931.78H311.244C312.817 931.78 314.181 932.619 314.915 933.984C316.383 936.712 318.271 939.23 320.473 941.329C323.83 944.687 326.766 948.465 329.074 952.662C329.808 954.027 329.808 955.706 328.969 956.965C328.759 957.28 328.549 957.594 328.234 957.804C328.864 958.854 329.598 959.903 330.227 961.057C330.856 962.107 331.591 963.156 332.22 964.311C343.861 982.884 350.888 1001.04 353.825 1019.51C354.979 1026.75 355.084 1034.09 354.14 1041.44C352.881 1050.36 349.735 1057.18 344.596 1062.43C343.547 1063.48 342.603 1064.53 341.554 1065.68C339.876 1067.67 338.093 1069.67 335.891 1071.45C335.471 1072.08 334.527 1072.5 333.583 1072.5ZM390.742 1014.05C389.694 1014.05 388.645 1013.95 387.701 1013.74H387.596C382.876 1012.58 380.255 1009.22 380.464 1004.82C381.723 982.255 370.186 963.891 360.118 950.459C348.476 934.823 335.261 917.194 324.983 897.675C323.83 895.472 322.466 893.373 321.103 891.064L319.215 887.916C318.271 886.447 318.481 884.453 319.53 883.089C320.369 882.04 321.522 881.515 322.781 881.515C323.2 881.515 323.725 881.62 324.144 881.725C327.71 882.984 330.437 885.188 332.744 887.182C333.059 887.496 333.478 887.811 333.793 888.126C339.771 893.058 345.225 898.515 350.574 903.762C352.671 905.86 354.874 907.959 356.971 910.058C360.327 913.416 364.208 916.144 368.403 918.243C369.032 917.613 369.871 917.194 370.71 917.089H371.34C372.913 917.089 374.381 918.033 375.115 919.502C379.415 928.527 385.918 935.768 392.84 943.533C393.784 944.582 394.728 945.632 395.567 946.681C401.86 953.817 409.411 963.576 412.452 976.168C413.291 979.526 413.816 983.094 414.026 986.557C414.55 998.94 407.628 1009.01 395.777 1013.11C394.308 1013.74 392.525 1014.05 390.742 1014.05Z" fill="#5B8FCB"/>
<path d="M360.327 1035.25C360.013 1035.25 359.803 1035.25 359.488 1035.14C357.705 1034.72 356.342 1033.26 356.132 1031.37C353.72 1004.5 343.337 980.891 324.459 959.274C323.2 957.91 323.095 955.916 324.039 954.342C319.739 939.651 314.705 924.75 308.517 908.589C307.888 907.015 307.258 905.546 306.524 903.867C304.741 899.88 302.854 895.787 302.329 890.96C302.119 889.176 303.063 887.497 304.636 886.763C305.266 886.448 305.895 886.343 306.419 886.343C307.468 886.343 308.517 886.763 309.356 887.497C318.481 896.417 326.137 906.491 333.059 916.145C338.617 923.805 344.805 931.781 353.091 941.96C354.139 943.219 355.293 944.583 356.342 945.842C360.327 950.564 364.418 955.392 367.564 960.848C378.052 979.107 380.045 995.687 373.542 1011.64C370.815 1018.88 367.564 1026.01 363.788 1032.84C363.264 1034.41 361.796 1035.25 360.327 1035.25ZM249.575 1068.41C248.631 1068.41 247.687 1068.09 246.953 1067.46C245.799 1066.52 245.275 1065.16 245.485 1063.69C247.163 1049.94 256.182 1045.64 263.943 1043.33C275.27 1040.08 286.597 1036.09 297.505 1032.21C302.329 1030.53 307.363 1028.74 312.293 1027.06C314.6 1026.33 316.278 1025.7 317.851 1025.7C322.361 1025.7 323.829 1029.37 325.298 1033.36C325.403 1033.67 325.507 1033.88 325.612 1034.2L326.242 1035.77C326.242 1035.88 326.346 1035.98 326.346 1036.09C328.025 1042.28 326.556 1044.8 320.368 1046.69C314.81 1048.37 309.146 1050.04 303.588 1051.72C294.568 1054.45 285.129 1057.29 276.005 1060.12C270.341 1061.9 264.782 1063.69 258.909 1065.68C256.287 1066.52 253.665 1067.46 250.938 1068.3C250.519 1068.41 249.995 1068.41 249.575 1068.41Z" fill="#5B8FCB"/>
<path d="M282.403 913.731C281.04 913.731 279.781 913.206 278.837 912.157C278.208 911.422 277.264 910.793 276.32 910.058C274.747 909.009 273.069 907.749 271.601 905.86C256.813 894.212 240.871 883.929 224.09 875.429C220 873.33 216.015 871.126 212.134 868.923C207.834 866.509 203.324 863.99 198.919 861.787C188.746 856.645 178.153 852.237 167.351 848.775C161.897 847.096 156.338 846.046 150.57 845.836C146.69 845.836 142.914 844.892 139.453 843.108C137.985 842.373 137.041 840.694 137.146 839.015C137.251 837.336 138.404 835.867 140.082 835.343C145.955 833.454 152.038 832.509 158.331 832.509C166.302 832.509 174.692 833.978 183.922 837.127C206.156 844.577 227.971 856.435 250.625 873.645C259.539 880.361 269.818 888.546 278.837 898.305C281.984 900.509 284.606 903.342 286.913 906.49C288.067 908.064 287.962 910.163 286.598 911.632C285.445 912.996 283.976 913.731 282.403 913.731Z" fill="#9AC5F0"/>
<path d="M327.606 960.743C326.452 960.743 325.404 960.218 324.669 959.484L324.04 958.854C323.621 958.434 323.306 958.015 322.887 957.7C322.677 957.49 322.467 957.175 322.257 956.86C320.369 953.397 317.852 950.249 315.021 947.416C312.189 944.688 309.882 941.539 307.994 937.972C295.094 912.472 274.957 893.163 256.918 877.633C239.508 862.417 220 849.719 199.129 839.855C196.927 839.645 195.458 838.596 194.515 837.861C194.305 837.652 193.99 837.442 193.885 837.442C192.417 836.602 191.578 835.028 191.788 833.349C191.998 831.67 193.151 830.306 194.724 829.781C196.298 829.257 197.766 829.047 199.129 829.047C201.017 829.047 202.695 829.466 204.268 830.306C224.405 833.454 244.018 840.485 264.154 851.713C279.047 860.003 292.786 870.287 304.847 882.46C305.162 882.879 305.582 883.194 305.896 883.509C307.469 884.978 309.147 886.657 310.301 888.966C310.511 889.386 310.616 889.91 310.721 890.33C311.14 893.898 312.608 897.256 314.182 900.719C314.916 902.293 315.65 903.972 316.279 905.756C322.467 922.126 327.606 937.237 331.906 952.033C332.326 953.397 333.27 956.755 330.438 959.589C329.809 960.218 328.76 960.743 327.606 960.743ZM369.977 927.478C369.033 927.478 367.985 927.268 366.936 926.743C361.063 924.12 355.819 920.552 351.204 916.04C348.897 913.836 346.589 911.527 344.282 909.219C339.248 904.182 334.004 899.04 328.445 894.423C328.026 894.108 327.711 893.793 327.291 893.478C325.194 891.694 323.411 890.225 321.313 889.49C320.684 889.281 320.16 888.966 319.635 888.441C318.482 887.287 317.433 886.133 316.279 884.978C313.657 882.25 311.035 879.417 308.203 876.898C305.582 874.589 304.113 871.126 304.428 867.664C304.742 861.577 306.001 855.596 307.994 849.824C309.882 844.367 314.077 841.219 319.845 841.219H320.265C324.984 841.324 329.704 841.849 334.318 842.898C339.772 844.053 343.862 847.516 346.589 853.287C348.582 857.485 350.365 861.787 351.833 866.194C355.504 877.738 360.748 888.966 365.887 899.774C367.985 904.182 370.187 908.799 372.18 913.416C372.809 914.78 373.438 916.25 374.172 917.614L375.011 919.398C375.326 920.132 375.536 920.972 375.326 921.811C374.697 927.163 371.026 927.478 369.977 927.478Z" fill="#9AC5F0"/>
<path d="M842.141 1138.19C837.002 1138.19 831.549 1136.72 825.99 1133.99C824.417 1133.15 823.473 1131.37 823.788 1129.59C824.207 1126.86 826.2 1125.6 827.039 1125.07L827.249 1124.97C850.427 1109.65 869.934 1087.93 887.134 1058.33C893.637 1047 899.196 1035.56 903.81 1023.81C890.595 1056.13 872.976 1083.1 850.322 1105.66C842.141 1113.85 832.912 1120.98 823.053 1126.96C820.956 1128.22 819.068 1128.85 817.075 1128.85C814.768 1128.85 812.67 1128.01 810.573 1126.33C809.629 1125.6 808.685 1124.86 807.636 1124.13C804.909 1122.14 802.078 1120.04 799.665 1117.1C798.721 1115.84 798.512 1114.27 799.141 1112.8C799.77 1111.43 801.134 1110.38 802.707 1110.28C803.441 1110.17 804.175 1109.65 805.539 1108.28C806.273 1107.55 807.007 1106.82 807.951 1106.08C820.012 1097.06 830.5 1086.14 839.1 1073.76C852.839 1053.72 860.285 1030.84 865.11 1013.11C871.612 989.391 873.081 964.521 874.549 940.385L874.654 938.706C874.968 933.879 874.549 929.157 874.025 924.12C873.605 919.712 873.186 915.095 873.29 910.373C873.081 910.058 872.871 909.743 872.766 909.429C872.347 908.589 872.242 907.645 872.451 906.805L873.395 902.083C874.025 898.935 874.654 895.682 875.178 892.534C877.59 877.633 875.912 865.145 869.934 854.337L869.62 853.707C869.305 852.763 869.095 851.713 868.99 850.769C868.781 848.67 870.249 846.781 872.347 846.361C882.31 844.368 893.008 843.423 904.964 843.423C908.844 843.423 912.935 843.528 917.235 843.738C922.059 843.948 925.101 846.466 926.464 851.398C928.667 859.478 930.24 867.349 931.184 875.114C930.974 867.349 930.135 859.793 927.513 852.133C927.093 850.769 927.303 849.3 928.247 848.145C929.086 847.096 930.24 846.571 931.498 846.571H931.918C937.162 847.096 941.567 848.565 945.867 850.034C946.811 850.349 947.859 850.664 948.803 850.979C953.418 852.448 953.733 856.96 953.838 858.639C953.942 860.108 954.047 861.577 954.257 863.046C954.781 869.552 955.411 876.268 954.991 883.089C954.362 894.003 953.418 905.546 952.264 917.404L952.159 918.453C951.635 924.75 949.537 926.009 943.14 926.638C939.679 927.058 936.113 927.688 932.757 928.527C935.589 933.459 938.84 938.181 942.511 942.589C946.391 947.101 947.964 953.187 946.706 958.959C936.952 1011.11 920.381 1054.14 895.944 1090.76C886.715 1104.82 875.703 1117.83 863.327 1129.17C856.72 1135.15 849.588 1138.19 842.141 1138.19Z" fill="#5B8FCB"/>
<path d="M810.469 975.749C809.525 975.749 808.686 975.434 807.952 974.909C807.008 974.175 806.378 973.125 806.378 971.866C806.064 967.879 808.161 965.045 809.734 963.051C810.469 962.107 811.203 961.163 812.042 960.218C813.3 958.644 814.454 957.28 815.293 955.811C823.369 941.644 827.983 928.212 829.347 914.78C829.452 914.151 829.452 913.416 829.557 912.786C829.871 909.638 830.291 906.595 829.557 903.867C829.347 903.027 829.452 902.293 829.661 901.453C830.71 898.515 831.969 895.577 833.122 892.848C834.696 889.071 836.269 885.503 837.422 881.83C839.101 876.163 840.149 870.392 840.674 864.515C839.415 866.824 837.108 868.188 833.961 868.188H832.913C825.571 867.663 818.23 866.719 810.993 865.25C809.315 864.935 808.056 863.571 807.742 861.892C807.427 860.213 808.161 858.534 809.525 857.589C819.488 850.978 830.71 843.633 844.449 843.633C846.023 843.633 847.596 843.738 849.169 843.948C857.979 844.997 864.586 850.454 868.572 860.003C871.823 867.873 872.977 876.478 871.928 884.978C868.467 918.978 853.05 947.101 825.991 968.403C821.796 971.656 817.181 974.909 811.308 975.959C810.993 975.749 810.783 975.749 810.469 975.749Z" fill="#5B8FCB"/>
<path d="M802.918 1118.78C801.869 1118.78 800.925 1118.36 800.086 1117.73C787.71 1106.82 778.376 1092.75 771.559 1074.81C762.015 1049.83 760.547 1026.64 767.154 1003.98C769.461 996.107 773.027 988.656 777.852 981.94C778.901 980.471 780.684 977.848 784.249 977.848C785.193 977.848 786.242 978.058 787.186 978.477C790.962 980.051 794.737 980.786 798.828 980.786C804.386 980.786 810.155 979.422 817.077 976.484C817.811 976.169 818.44 975.959 819.069 975.749C819.174 975.749 819.174 975.749 819.279 975.644C830.816 968.928 841.618 959.379 852.106 946.576C860.706 934.089 867.523 920.552 872.348 906.176C872.872 904.602 874.34 903.447 876.019 903.342H876.333C877.906 903.342 879.375 904.182 880.109 905.651C880.109 905.756 880.214 905.861 880.319 905.966C880.843 906.7 881.577 907.96 881.577 909.639V909.743C881.472 914.151 881.787 918.558 882.206 923.175C882.626 928.317 883.15 933.669 882.836 939.126L882.731 940.805C881.263 965.36 879.794 990.755 872.977 1015.31C867.943 1033.67 860.287 1057.39 845.709 1078.48C836.584 1091.6 825.467 1103.14 812.672 1112.69C812.252 1113.01 811.728 1113.53 811.098 1114.16C809.316 1115.95 806.903 1118.25 803.023 1118.57C803.128 1118.78 803.023 1118.78 802.918 1118.78Z" fill="#9AC5F0"/>
<path d="M797.254 978.897C788.863 978.897 781.102 974.7 776.592 967.669C774.914 965.15 773.656 962.422 772.712 959.589C770.719 953.922 769.565 950.459 771.453 947.311C773.341 944.163 776.907 943.533 782.885 942.694C791.59 941.225 799.561 937.342 805.958 931.256L806.063 931.151C814.873 923.28 822.32 914.151 828.088 903.762C828.508 902.923 829.032 902.188 829.556 901.558C829.766 901.244 829.976 900.929 830.29 900.509C831.025 899.25 832.388 898.62 833.856 898.62C834.066 898.62 834.276 898.62 834.59 898.725C836.269 899.04 837.632 900.299 837.947 901.873C838.891 906.071 838.471 910.058 838.052 913.731C837.947 914.361 837.947 914.99 837.842 915.62C836.373 930.311 831.444 944.793 822.739 960.008C821.585 962.107 820.012 963.891 818.649 965.675C817.915 966.515 817.285 967.354 816.656 968.194L816.551 968.299C815.398 969.873 814.873 970.712 814.978 971.447C815.083 972.916 814.349 974.385 813.09 975.224C808.161 978.477 802.498 979.002 798.722 979.002C797.988 978.897 797.673 978.897 797.254 978.897Z" fill="#9AC5F0"/>
<path d="M789.493 829.466H785.508C781.837 829.466 778.586 827.262 777.222 823.904C763.168 794.941 747.227 761.991 736.319 727.257C735.585 724.738 734.956 722.22 734.432 719.806C734.432 719.806 734.117 718.442 734.117 718.337C734.117 718.442 734.117 718.547 734.012 718.757C733.593 721.695 733.697 724.738 734.222 727.677V727.782C735.69 736.806 737.683 745.936 740.2 754.751C740.305 754.96 740.305 755.275 740.41 755.485C740.829 756.849 741.458 758.738 740.934 760.942C740.619 762.306 739.675 763.46 738.312 763.985C737.788 764.195 737.263 764.3 736.844 764.3C736.005 764.3 735.166 763.985 734.432 763.565C731.6 761.571 730.866 758.738 730.236 756.639C730.131 756.115 729.922 755.59 729.817 755.17C721.427 733.343 716.497 714.769 714.295 696.615C713.036 686.541 711.778 676.152 712.092 665.659C712.302 660.412 712.722 655.165 713.456 650.023V649.813C713.875 647.505 714.819 645.301 716.078 643.412C718.385 639.529 721.846 637.326 725.622 637.326C729.083 637.326 732.334 639.11 734.746 642.468C739.361 648.659 741.983 655.69 744.5 662.825L746.807 669.437C752.156 684.757 757.715 700.603 764.322 715.714C776.908 744.467 790.332 765.559 806.588 782.139C814.454 774.794 823.264 768.917 831.864 763.25C835.85 760.627 840.045 757.794 843.925 754.96C844.24 754.751 844.659 754.436 844.974 754.226C845.813 753.701 846.547 753.177 847.176 752.652C847.281 752.547 847.386 752.442 847.491 752.442C847.596 752.337 847.701 752.232 847.596 752.022C847.596 751.917 847.491 751.812 847.491 751.707C843.401 736.701 840.569 721.276 837.947 706.374C837.318 703.121 836.793 699.763 836.164 696.51C833.437 681.714 830.606 666.393 829.347 650.968C828.823 645.196 828.298 639.215 827.774 633.548C827.04 625.783 826.201 617.702 825.676 609.622C825.152 601.752 824.732 593.777 824.313 586.011C823.998 579.61 823.579 572.894 823.159 566.388C822.845 560.617 822.74 554.845 822.635 549.178C822.53 543.407 822.53 537.425 822.11 531.549C821.481 522.839 821.167 514.024 820.747 505.419C820.432 497.759 820.118 489.889 819.593 482.228C819.279 478.031 819.069 473.624 818.859 469.531C818.44 461.346 818.02 452.951 817.076 444.766C815.503 431.229 813.72 417.692 811.727 403.84C808.896 383.168 804.176 362.915 799.981 345.81C795.681 328.075 790.017 310.446 784.669 294.076C770.09 249.897 757.085 214.114 743.661 181.373C735.48 161.33 726.041 140.238 712.931 121.454C706.429 112.115 699.297 102.985 692.375 94.0653C688.39 88.9234 684.195 83.5716 680.209 78.2198L679.475 77.1704C675.28 71.5038 670.875 65.6273 666.155 60.2755C663.219 56.9175 661.016 53.0348 659.653 48.7324C659.128 47.1583 659.653 45.4793 660.806 44.325C661.541 43.5904 662.589 43.2756 663.638 43.2756C664.267 43.2756 664.792 43.3806 665.316 43.6954C680.314 50.4114 693.319 59.436 704.122 67.3063C746.283 98.1578 780.578 137.929 808.791 188.614C835.535 236.465 853.994 289.983 863.747 347.489C865.53 358.612 866.369 369.945 866.16 381.174C866.055 395.025 866.055 408.982 865.95 422.939C865.845 444.976 865.635 467.747 865.635 490.099V499.123C865.635 522 865.53 545.715 866.264 569.012C867.733 614.764 875.179 655.9 889.128 694.831C898.462 720.961 910.943 739.115 928.353 751.917C928.563 752.022 928.772 752.232 928.982 752.442C929.611 753.072 930.136 753.806 930.66 754.646C931.709 756.325 931.499 758.423 930.031 759.892C927.199 762.726 923.633 764.929 919.753 766.294C917.97 766.923 916.187 767.238 914.404 767.238C910.838 767.238 907.482 765.979 904.336 763.355C897.414 757.689 891.54 750.343 885.982 740.164C875.808 721.695 866.684 702.387 859.028 682.659C857.769 679.301 856.301 675.838 854.938 672.48C851.581 664.4 848.435 655.795 847.701 646.455C847.491 647.714 847.491 648.974 847.596 650.338L847.701 651.492C848.33 656.529 848.855 661.251 850.218 665.659C857.56 689.479 866.684 717.393 879.269 743.417C882.416 750.133 886.191 756.43 890.596 762.306C891.855 763.985 891.645 766.399 890.177 767.868C885.562 772.275 881.262 777.102 877.067 781.719C871.194 788.226 865.111 795.046 858.189 800.923C848.12 809.423 837.108 816.768 825.362 822.645C813.196 828.626 799.771 829.466 789.493 829.466ZM225.139 761.886C224.51 761.886 223.775 761.781 222.936 761.676C216.434 760.627 210.036 760.417 205.107 760.417C202.275 760.417 199.339 760.522 196.612 760.522C193.78 760.522 190.843 760.627 187.907 760.627C181.824 760.627 176.79 760.417 172.28 759.788C170.707 759.578 169.343 758.528 168.819 756.954C167.98 754.436 168.819 752.232 171.441 750.238C171.546 750.133 171.756 750.028 171.86 749.923C181.614 738.905 187.487 725.683 193.57 710.782C207.309 676.887 216.329 644.566 221.049 611.931C223.671 593.567 225.244 575.098 226.712 556.209C227.761 542.148 227.866 527.771 227.971 513.919C228.076 505 228.076 495.765 228.39 486.636C229.649 450.537 231.641 420.735 234.578 392.927C238.039 359.452 243.493 325.872 250.834 293.026C254.61 276.236 260.273 258.817 269.083 236.675C269.083 236.57 269.188 236.465 269.188 236.36C269.713 235.311 270.237 234.262 270.971 233.317C271.81 232.058 273.069 231.428 274.432 231.428C274.852 231.428 275.271 231.533 275.691 231.638C277.474 232.163 278.732 233.842 278.627 235.731C278.417 245.385 277.578 255.039 276.635 263.959C276.635 264.379 276.53 264.693 276.53 265.113C276.425 265.428 276.425 265.848 276.425 265.953V266.058C276.215 271.409 276.005 276.761 275.795 281.903C275.166 294.391 274.537 307.403 275.271 319.995C275.586 325.977 275.9 332.063 276.215 337.94C276.635 347.174 277.054 356.828 277.893 366.168C278.208 370.575 278.417 374.982 278.522 379.285C278.627 381.698 278.732 384.007 278.837 386.421C279.991 409.087 279.991 431.963 279.886 454.21C279.886 471.105 279.886 488.525 280.305 505.629C280.62 517.382 280.725 529.345 280.83 540.993C280.935 549.073 280.935 557.364 281.144 565.549V567.228C281.983 568.172 282.403 569.431 282.298 570.69C281.354 578.351 279.676 585.801 277.893 592.937C277.264 595.351 276.739 597.869 276.215 600.283C274.956 605.949 273.698 611.616 272.439 617.388C268.034 637.745 263.525 658.733 257.756 679.091C252.198 698.924 246.429 716.658 240.032 733.448C239.612 734.498 239.193 735.652 238.773 736.701C236.466 742.788 234.054 749.189 232.376 755.485C231.222 760.837 227.761 761.886 225.139 761.886Z" fill="#CDC5A8"/>
<path d="M600.711 909.009C591.376 909.009 582.147 906.071 572.603 900.089C568.198 897.571 565.471 892.849 565.576 887.812V887.707C565.891 880.781 564.423 874.17 562.745 867.139C562.325 865.145 561.801 863.047 561.381 861.053C552.781 818.448 545.649 778.677 539.566 739.325C538.203 730.406 536.42 721.276 534.742 712.462C533.798 707.739 532.854 702.807 532.015 697.98C531.7 696.091 531.491 694.098 531.281 692.314C531.176 691.264 531.071 690.32 530.966 689.27V689.06C530.652 689.06 530.337 689.165 529.917 689.165H529.498C528.344 689.165 527.295 688.746 526.561 687.906C525.722 687.067 525.198 685.807 525.408 684.548C525.722 681.4 527.82 680.036 528.869 679.301C528.973 679.196 529.183 679.091 529.288 678.987C531.386 677.308 534.217 675.314 537.678 675.314C542.083 675.314 545.125 678.777 546.908 681.4C551.837 688.536 555.927 696.301 558.969 704.486C567.884 727.468 575.33 751.288 582.357 774.375L584.664 781.72C586.657 788.226 588.859 794.942 590.957 801.343C592.74 806.695 594.523 812.257 596.201 817.714C597.669 822.436 600.501 827.053 605.116 832.195C607.318 834.609 609.835 835.868 612.457 835.868C615.079 835.868 617.596 834.609 619.799 832.195C625.777 825.584 631.65 818.763 637.314 812.152C638.782 810.473 640.25 808.689 641.823 807.01C659.128 786.862 679.37 776.998 703.807 776.893H706.114C717.965 776.893 729.712 778.467 741.144 781.72C741.668 780.671 742.717 779.936 743.976 779.621C744.29 779.516 744.605 779.516 744.919 779.516C746.597 779.516 748.171 780.566 748.8 782.245C752.471 791.899 756.246 801.553 760.022 811.312C760.861 813.411 761.7 815.51 762.644 817.924L763.903 820.862C764.427 822.226 764.217 823.8 763.378 824.954C762.539 826.004 761.281 826.633 760.022 826.633H759.602C757.61 826.423 755.512 826.319 753.415 826.319C745.758 826.319 738.312 827.578 730.971 828.837C729.502 829.047 728.034 829.362 726.67 829.572C704.856 833.139 688.914 840.695 676.329 853.392L668.148 861.577C661.226 868.398 653.989 875.429 647.801 883.09C638.677 894.318 628.818 901.768 617.806 906.071C611.933 907.855 606.269 909.009 600.711 909.009Z" fill="#CDC5A8"/>
<path d="M548.691 877.108C547.642 877.108 546.593 876.688 545.859 875.953C542.188 872.49 538.518 868.818 534.952 865.25C529.079 859.373 522.891 853.182 516.388 847.725C511.249 843.528 505.691 839.645 499.922 836.182C489.434 829.466 478.107 826.318 465.102 826.318C460.593 826.318 455.873 826.738 451.049 827.472C437.1 829.676 423.256 834.188 409.936 838.596L406.999 839.54C397.036 842.793 386.758 844.892 376.375 845.836C375.536 845.941 374.697 846.046 373.858 846.046C370.921 846.046 367.879 845.312 365.257 844.052C363.475 843.213 362.635 841.219 363.055 839.33C363.475 837.651 363.789 835.867 364.209 834.083C365.048 830.201 365.887 826.108 367.25 822.121C373.438 803.757 377.948 784.028 381.828 758.004C382.458 754.121 382.982 750.133 383.611 746.251C385.394 734.918 387.177 723.165 388.331 711.621C390.009 693.572 391.477 677.832 392.946 663.56C394.204 651.283 395.463 638.795 396.826 626.727C397.35 622.005 397.875 617.178 398.294 612.456C400.392 592.623 401.86 575.203 402.804 559.043C402.909 557.888 403.433 556.839 404.272 556.104C405.007 555.475 406.055 555.055 406.999 555.055H407.314C413.921 555.58 416.543 556.944 418.326 563.765C421.997 578.036 426.507 596.82 428.5 616.338C429.024 621.795 429.968 627.252 430.807 632.604C431.541 637.536 432.38 642.573 433.009 647.61C433.848 654.641 434.373 661.671 434.897 668.492C435.212 672.27 435.422 676.048 435.841 679.826C436.261 684.233 436.68 688.64 437.1 692.943C437.834 700.918 438.673 709.208 439.197 717.498C439.617 724.004 440.141 730.405 440.561 736.911C441.609 750.134 443.183 765.874 446.748 781.51C447.168 783.189 447.483 784.238 447.692 784.658C448.322 784.868 449.79 785.078 451.258 785.288L451.992 785.392C470.346 788.016 491.637 791.794 510.41 802.812C518.486 807.534 524.779 814.25 530.022 820.337C529.708 818.028 529.393 815.719 529.079 813.516C528.554 810.053 528.135 806.485 527.715 803.022C526.666 794.522 526.247 786.022 525.722 777.732C525.408 771.96 525.093 766.084 524.569 760.312C524.044 753.806 524.044 747.3 524.149 740.899C524.149 737.751 524.254 734.393 524.149 731.245V727.362C524.254 723.899 524.254 720.646 523.415 717.708C521.947 712.356 524.779 709.628 526.142 708.683C526.876 708.159 527.715 707.949 528.554 707.949C528.974 707.949 529.393 708.054 529.813 708.159C531.071 708.578 532.015 709.523 532.54 710.782C534.008 714.875 534.218 718.967 534.427 722.85C534.532 724.424 534.637 725.893 534.742 727.362C535.791 737.436 536.84 747.72 537.783 757.584C538.413 764.3 539.042 771.016 539.776 777.732C541.769 797.88 544.915 819.077 548.901 840.694C549.53 843.842 550.054 847.096 550.684 850.244C551.837 856.855 553.096 863.781 554.669 870.392C554.984 871.756 554.564 873.33 553.62 874.274L552.257 875.639C550.789 876.688 549.74 877.108 548.691 877.108ZM342.394 835.343C340.401 835.343 338.618 834.398 336.625 833.244C327.606 828.207 319.635 822.016 313.028 816.664C295.408 802.287 276.635 788.96 257.232 776.997C253.037 774.374 248.632 771.856 243.703 769.337C240.661 767.763 237.41 764.615 239.927 759.263C240.766 757.374 241.5 755.38 242.339 753.282C243.178 750.973 244.017 748.559 245.171 746.146C259.644 715.504 267.72 682.554 274.327 651.597C280.62 622.11 285.025 598.184 288.381 576.147C290.479 562.086 292.052 547.709 293.52 533.753C294.045 528.296 294.674 522.839 295.303 517.487C296.352 508.253 297.296 498.809 298.24 489.679C299.079 481.914 299.813 473.834 300.757 465.858C301.386 460.297 301.491 454.735 301.596 448.859C301.596 446.655 301.701 444.556 301.701 442.352V441.933C301.701 440.673 301.596 437.84 304.113 435.846C304.847 435.217 305.791 434.902 306.735 434.902C307.05 434.902 307.364 434.902 307.679 435.007C308.937 435.322 309.986 436.161 310.511 437.315C317.537 452.112 322.047 468.692 324.774 489.469C326.347 501.327 327.816 515.284 326.767 529.24C326.452 532.703 326.242 536.376 326.033 539.839C325.508 548.234 324.984 556.839 323.516 565.444C322.572 571.11 322.047 576.987 321.628 582.654C321.313 585.907 321.103 589.16 320.684 592.518C320.579 593.987 320.369 595.351 320.264 596.82C319.635 603.011 318.901 609.413 317.852 615.709C317.223 618.962 317.013 622.32 316.698 625.783C316.489 627.882 316.384 630.19 316.069 632.394C315.755 635.122 315.44 637.746 315.125 640.474C313.972 650.758 312.713 661.357 311.245 671.745C308.623 690.739 305.581 710.047 302.33 729.041C300.757 738.066 298.869 747.195 296.876 756.115C296.771 756.43 296.771 756.535 296.771 756.745C296.876 756.849 297.086 756.954 297.401 757.164C303.903 761.362 310.301 765.874 316.698 770.386C329.703 779.516 341.24 790.639 350.784 803.337C350.889 803.547 351.099 803.756 351.204 803.966C351.413 804.281 351.833 804.806 352.043 805.016H352.148C353.406 805.016 354.665 805.645 355.504 806.695C356.343 807.849 356.552 809.318 356.133 810.577C355.504 812.361 354.874 814.25 354.245 816.139C352.777 820.442 351.309 824.849 349.526 829.151C348.057 831.67 346.484 835.343 342.394 835.343Z" fill="#CDC5A8"/>
<path d="M527.925 714.14C526.037 714.14 524.359 712.881 523.939 711.097C521.842 703.541 521.737 695.566 523.834 688.011C524.359 686.122 526.037 684.863 527.925 684.863H528.449C530.546 685.177 532.12 686.856 532.12 688.955C532.12 695.881 532.225 702.807 532.225 709.838C532.225 711.936 530.651 713.72 528.659 714.035C528.344 714.14 528.134 714.14 527.925 714.14Z" fill="#CDC5A8"/>
<path d="M414.97 450.538C398.504 450.538 383.612 438.89 372.914 417.798C362.741 397.545 357.077 369.946 357.077 340.039C357.077 316.533 360.538 294.286 367.25 275.712C374.382 255.564 384.87 241.188 397.351 234.262C402.7 231.219 408.783 229.54 414.97 229.54C431.436 229.54 446.329 241.188 457.027 262.28C467.2 282.533 472.864 310.132 472.864 340.144C472.864 366.063 468.459 390.934 460.488 410.347C451.363 432.594 437.729 446.55 422.207 449.908C419.795 450.328 417.383 450.538 414.97 450.538ZM387.387 377.711C389.275 386.421 391.792 394.501 394.939 401.532C399.029 410.662 403.853 417.168 408.573 420.421C406.475 415.174 403.539 410.242 400.497 404.89L400.287 404.575C398.295 401.217 396.197 397.65 394.309 393.977C391.792 388.625 389.485 383.273 387.387 377.711Z" fill="#2C2729"/>
<path d="M527.819 450.538C511.353 450.538 496.46 438.89 485.762 417.798C475.589 397.545 469.926 369.946 469.926 340.039C469.926 316.533 473.387 294.286 480.099 275.712C487.336 255.564 497.719 241.188 510.199 234.262C515.548 231.219 521.631 229.54 527.819 229.54C544.285 229.54 559.178 241.188 569.875 262.28C580.049 282.533 585.712 310.132 585.607 340.144C585.607 366.063 581.202 391.039 573.232 410.347C564.107 432.594 550.473 446.55 534.951 449.908C532.643 450.328 530.231 450.538 527.819 450.538ZM500.236 377.607C502.124 386.421 504.641 394.501 507.787 401.532C511.877 410.662 516.702 417.168 521.526 420.421C519.429 415.069 516.492 410.032 513.346 404.785C511.143 401.008 509.151 397.545 507.263 393.977C504.746 388.625 502.333 383.168 500.236 377.607Z" fill="#2C2729"/>
<path d="M612.458 843.948C607.529 843.948 602.704 841.639 598.928 837.546C593.475 831.565 590.119 826.003 588.231 819.917C586.553 814.67 584.875 809.528 583.197 804.281C580.994 797.565 578.792 790.639 576.694 783.819L574.387 776.368C567.36 753.492 560.018 729.776 551.104 707.004C548.272 699.449 544.496 692.313 539.986 685.807C538.413 683.498 537.679 683.289 537.679 683.289C537.574 683.289 536.84 683.289 534.638 685.177C534.323 685.492 534.008 685.702 533.589 685.912L531.911 690.319C530.338 696.406 530.338 702.702 532.016 708.788C532.12 708.998 532.121 709.313 532.121 709.523L532.33 711.936C532.435 713.196 531.911 714.56 530.967 715.399C530.967 715.504 530.967 715.609 531.072 715.714C532.225 719.912 532.121 723.899 532.121 727.782V741.214C532.016 747.3 532.016 753.701 532.54 759.788C533.064 765.454 533.379 771.226 533.694 776.788C534.113 785.183 534.638 793.788 535.686 802.183C536.106 805.855 536.63 809.633 537.155 813.306C537.784 817.818 538.413 822.435 538.938 826.948C538.938 827.263 539.043 827.472 539.147 827.787C539.462 829.361 539.986 831.985 538.413 835.028C537.784 836.287 536.525 837.127 535.162 837.232H534.742C533.484 837.232 532.33 836.707 531.491 835.763C530.338 834.398 529.289 833.139 528.24 831.88C527.086 830.516 526.038 829.151 524.884 827.787C519.43 821.386 513.452 814.67 505.796 810.158C488.281 799.874 468.039 796.306 450.42 793.788L449.79 793.683C442.239 792.633 440.142 791.479 438.254 783.399C434.478 767.029 432.8 750.344 431.856 737.541C431.332 731.035 430.912 724.529 430.388 718.023C429.863 710.572 429.129 703.017 428.395 695.671C427.871 690.739 427.451 685.597 427.032 680.455C426.717 676.678 426.402 672.795 426.088 669.017C425.563 662.196 425.039 655.27 424.305 648.449C423.78 643.622 422.941 638.795 422.207 634.073C421.263 628.511 420.424 622.845 419.795 617.073C417.907 598.079 413.502 579.715 409.832 565.759C409.517 564.5 409.307 563.975 409.202 563.66C408.783 563.555 407.839 563.45 406.371 563.345C405.427 563.24 404.588 562.925 403.853 562.296C395.463 601.857 386.653 642.783 380.78 683.498C376.06 716.659 369.873 749.714 364.419 778.152C362.426 789.17 359.49 800.084 355.609 810.578C354.98 812.152 353.511 813.306 351.833 813.306H351.519C347.324 813.306 345.226 810.473 343.967 808.689L343.653 808.164C334.633 796.096 323.726 785.602 311.35 776.998C305.057 772.485 298.765 768.078 292.367 763.985C289.955 762.411 287.018 759.683 288.277 754.016C290.269 745.202 292.052 736.282 293.626 727.362C296.877 708.578 299.813 689.375 302.54 670.381C304.009 660.097 305.162 649.604 306.421 639.425L307.365 631.24C307.574 629.141 307.784 627.147 307.994 624.943C308.309 621.376 308.623 617.703 309.253 614.03C310.301 608.049 310.931 601.752 311.56 595.666C311.665 594.197 311.875 592.833 311.979 591.363C312.294 588.215 312.609 584.962 312.818 581.814C313.343 575.938 313.867 569.851 314.811 563.87C316.175 555.58 316.699 546.975 317.223 538.685C317.433 535.327 317.643 531.864 317.853 528.401C318.901 515.179 317.433 501.852 315.965 490.309C313.553 472.155 309.882 457.568 304.323 444.661C297.821 478.346 290.479 518.117 284.606 559.358C284.186 562.191 283.557 564.919 283.033 567.543C282.823 568.697 282.508 569.851 282.299 571.006C281.984 572.475 281.04 573.629 279.677 574.049C279.152 574.259 278.733 574.259 278.208 574.259C277.264 574.259 276.425 573.944 275.586 573.419C272.545 571.111 272.755 567.753 272.755 566.179V565.549C272.65 557.469 272.545 549.074 272.44 540.994C272.335 529.451 272.23 517.488 271.916 505.84C271.391 488.63 271.391 471.105 271.496 454.105C271.496 431.964 271.496 409.192 270.447 386.736L270.133 379.495C270.028 375.298 269.818 370.995 269.503 366.798C268.769 357.248 268.245 347.594 267.825 338.255C267.511 332.378 267.301 326.397 266.881 320.415C266.147 307.403 266.777 294.181 267.406 281.484C267.616 276.342 267.93 270.99 268.035 265.743C268.035 265.009 268.14 264.379 268.245 263.749C268.245 263.539 268.35 263.225 268.35 263.015C269.294 253.675 270.028 244.546 270.238 235.416C270.238 234.996 270.342 234.577 270.447 234.157C274.957 221.145 281.25 208.657 287.333 196.904C307.574 157.972 331.172 125.547 359.385 97.8434C400.288 57.5474 444.651 32.3625 495.098 20.8194C513.662 16.517 532.435 14.4182 550.894 14.4182C584.77 14.4182 618.855 21.7638 651.892 36.2452C652.731 36.56 653.57 36.9797 654.409 37.2945C658.395 38.9735 662.485 40.7575 666.261 43.3809C666.995 43.9056 667.624 44.6402 667.834 45.5846C668.883 48.7327 670.456 51.671 672.658 54.0845C677.588 59.6462 682.098 65.7326 686.502 71.5041L687.237 72.5535C691.222 77.8003 695.312 83.1522 699.298 88.2941C706.22 97.2138 713.352 106.553 720.064 115.998C733.593 135.306 743.242 157.028 751.737 177.596C764.952 209.916 778.062 245.91 792.955 290.928C798.408 307.508 804.072 325.347 808.477 343.292C812.672 360.606 817.496 381.174 820.328 402.162C822.321 416.643 824.104 429.76 825.677 443.297C826.621 451.797 827.04 460.297 827.46 468.587C827.67 472.679 827.879 476.982 828.194 481.179C828.718 489.155 829.033 497.34 829.453 505.105C829.767 513.395 830.187 522 830.711 530.395C831.131 536.376 831.236 542.463 831.236 548.339C831.34 553.901 831.34 559.672 831.76 565.234C832.179 571.845 832.494 578.456 832.914 584.962C833.333 592.623 833.753 600.598 834.277 608.468C834.801 616.339 835.64 624.314 836.375 632.079C836.899 637.851 837.528 643.832 838.053 649.709C839.311 664.61 842.038 679.721 844.66 694.202V694.412C845.289 697.56 845.814 700.813 846.338 703.961C848.96 718.757 851.687 734.078 855.672 748.769C856.931 752.337 855.777 756.43 852.736 758.738C851.897 759.473 850.953 759.998 850.114 760.627C849.799 760.837 849.484 761.047 849.17 761.362C845.184 764.195 841.094 766.924 837.109 769.547C828.509 775.214 819.699 781.09 812.148 788.226C811.099 789.275 809.316 790.639 806.904 790.639C804.282 790.639 802.499 789.065 801.24 787.911C784.04 770.387 769.881 748.35 756.981 718.548C749.954 702.492 744.081 685.702 738.418 669.437L736.949 665.029C734.642 658.523 732.335 652.122 728.454 646.875C727.615 645.826 726.776 645.091 726.042 645.091C725.308 645.091 724.364 645.931 723.63 647.19C723.63 647.295 723.525 647.295 723.525 647.4C722.791 648.449 722.371 649.604 722.056 650.863C721.427 655.69 721.008 660.622 720.798 665.449C720.483 675.313 721.742 685.387 723 695.146C725.098 712.566 729.922 730.615 738.103 751.813C738.418 752.652 738.627 753.387 738.837 754.016C739.257 755.38 739.466 756.115 739.781 756.325C740.515 756.85 741.04 757.584 741.354 758.424C743.871 766.189 746.283 773.849 748.801 781.615C748.905 781.93 749.01 782.244 749.01 782.664C749.115 783.504 749.22 786.127 747.437 788.121C746.703 788.96 745.34 789.905 743.137 789.905C741.983 789.905 740.83 789.59 739.886 789.38C728.874 786.232 717.547 784.658 706.01 784.658H703.807C681.888 784.763 663.744 793.683 648.117 811.837L646.753 813.831C640.041 821.596 633.119 829.676 626.092 837.546C622.316 841.639 617.492 843.948 612.458 843.948Z" fill="#FEF8E4"/>
<path d="M725.098 629.456C722.581 629.456 720.168 628.826 717.966 627.777C713.561 625.573 709.89 622.005 707.478 617.703C707.478 617.598 707.373 617.493 707.373 617.388C706.114 614.66 706.534 611.511 708.632 609.413C708.841 609.203 709.051 608.993 709.366 608.783C710.415 608.048 711.463 607.209 712.512 606.37C714.085 605.11 715.763 603.851 717.651 602.697C717.756 602.592 717.756 602.487 717.861 602.382C718.176 601.962 718.385 601.437 718.805 600.913C716.812 602.802 714.4 604.481 711.568 605.95C709.156 607.314 706.534 608.363 703.807 609.203H703.702C697.514 610.672 691.851 612.036 685.768 612.141H681.573C668.148 612.141 654.724 610.567 641.614 607.314C619.275 602.172 598.089 591.468 580.679 576.567C579.945 575.938 579.211 575.203 578.582 574.469C576.904 572.685 575.75 570.586 575.225 568.172C573.967 561.981 573.757 555.685 574.596 549.493C575.435 542.358 578.057 535.327 581.938 529.241C582.777 527.981 583.721 526.827 584.769 525.673L584.874 525.568C585.608 524.938 586.343 524.309 587.182 523.679C588.44 522.734 589.909 522.21 591.482 522.21C594.418 522.21 596.935 523.994 597.774 526.512C598.089 527.562 598.509 528.716 598.823 529.765C599.453 531.864 600.082 533.858 600.816 535.642C601.865 538.265 603.333 540.574 605.326 542.463C605.85 542.987 606.375 543.407 606.899 543.722C603.543 540.154 601.235 535.747 600.187 530.92C598.089 521.056 598.089 510.667 600.501 500.803C601.55 496.08 603.018 490.519 606.375 485.587C606.479 485.482 606.479 485.377 606.584 485.272C607.318 484.432 608.262 483.698 609.311 483.383C609.94 483.173 610.675 482.963 611.304 482.963C613.506 482.963 615.499 484.223 616.443 486.111C616.967 487.056 617.387 488 617.806 488.84C618.541 490.414 619.275 491.883 620.219 493.037C621.267 494.401 622.631 495.451 624.099 496.185C624.519 496.185 625.043 495.871 625.148 495.766L625.253 495.661C625.463 495.451 625.567 495.031 625.358 494.716C625.043 493.982 624.519 493.247 624.099 492.618C620.114 488.63 618.96 483.698 618.121 479.395C617.806 477.716 617.701 476.037 617.911 474.358C618.331 471.21 619.065 468.167 620.114 465.229V465.124C621.897 460.297 625.882 456.624 630.811 455.26C633.328 454.525 635.846 453.896 638.467 453.476C640.67 453.056 643.082 452.846 645.39 452.846C647.697 452.846 650.109 453.056 652.312 453.476C658.604 454.63 664.897 456.414 670.875 458.828H670.98C674.965 460.612 679.056 462.081 683.251 463.235H683.356C688.809 464.704 693.949 466.068 699.192 466.488C698.668 466.068 698.144 465.649 697.829 465.019C697.724 464.914 697.724 464.809 697.619 464.704C696.466 462.605 696.466 460.087 697.829 458.093C700.556 453.791 704.332 450.013 708.632 447.285C711.883 445.186 715.449 443.717 719.224 443.087C720.063 442.982 720.798 442.877 721.637 442.877C722.685 442.877 723.629 442.982 724.573 443.192C729.188 444.136 733.278 446.76 736.215 450.433C737.893 452.531 739.466 454.84 740.725 457.254C744.081 463.655 746.178 470.476 747.122 477.507C747.751 481.809 748.171 486.216 748.486 489.994C748.905 494.401 748.905 498.809 748.486 503.111C748.381 504.266 748.276 505.525 748.171 506.679C747.961 508.358 747.856 509.932 747.751 511.611C747.017 521.37 744.92 530.92 742.822 539.105C744.081 535.642 745.339 531.969 746.388 527.876C747.017 525.778 747.542 523.679 748.066 521.58L749.01 518.117C748.905 517.383 748.905 516.753 748.8 516.019V515.704C749.01 511.926 749.849 508.253 751.212 504.79C752.156 502.377 754.254 500.593 756.771 499.963C758.03 499.648 759.288 499.438 760.547 499.438C763.378 499.438 766.105 500.278 768.413 501.852C771.035 503.531 773.132 505.735 774.81 508.358C776.698 511.086 778.062 514.235 778.796 517.593C780.264 523.469 780.893 529.555 780.893 535.642C780.684 542.568 779.949 549.389 778.586 556.105C777.013 564.08 774.601 571.845 771.559 579.296C767.154 590.419 761.281 600.808 753.939 610.252C750.164 615.079 745.654 619.487 740.725 623.159C737.264 625.678 733.488 627.567 729.398 628.616C728.034 629.246 726.566 629.456 725.098 629.456Z" fill="#F7F6F5"/>
<path d="M414.969 444.137C400.496 444.137 387.176 433.013 377.632 412.761C368.507 393.557 363.578 367.742 363.578 340.039C363.578 317.163 366.934 295.651 373.332 277.811C380.044 259.132 389.378 245.91 400.496 239.824C404.9 237.305 409.83 235.941 414.969 235.941C429.547 235.941 442.762 247.065 452.306 267.317C461.43 286.521 466.36 312.336 466.36 340.039C466.36 365.119 462.164 389.15 454.403 407.828C446.118 427.976 434.162 440.674 420.737 443.507C418.849 443.927 416.962 444.137 414.969 444.137ZM384.344 288.83C379.834 303.626 377.212 321.465 377.212 339.934C377.212 388.205 394.517 428.921 414.969 428.921C415.913 428.921 416.962 428.816 417.905 428.606H418.01C417.276 425.563 416.437 422.52 415.283 419.686C412.871 413.39 409.62 407.619 406.054 401.532C404.061 398.174 402.069 394.606 400.181 391.039C389.693 370.156 383.925 346.755 383.715 323.354C383.505 310.866 383.4 299.638 384.344 288.83ZM527.924 444.137C513.45 444.137 500.131 433.013 490.587 412.761C481.462 393.557 476.533 367.742 476.533 340.039C476.533 317.268 479.889 295.755 486.287 277.811C492.894 259.132 502.333 245.91 513.345 239.824C517.75 237.305 522.68 235.941 527.819 235.941C557.185 235.941 579.314 280.749 579.314 340.039C579.314 365.119 575.119 389.15 567.358 407.828C559.073 427.976 547.116 440.674 533.692 443.507C531.804 443.927 529.811 444.137 527.924 444.137ZM497.194 288.83C492.684 303.626 490.062 321.465 490.062 340.039C490.062 388.31 507.367 429.026 527.819 429.026C528.867 429.026 529.811 428.921 530.86 428.711C530.126 425.668 529.287 422.625 528.133 419.791C525.721 413.495 522.365 407.724 518.904 401.637C516.911 398.279 514.919 394.711 513.031 391.143C502.543 370.261 496.775 346.86 496.565 323.459C496.355 310.866 496.25 299.638 497.194 288.83ZM724.886 642.258C724.362 642.258 723.838 642.153 723.313 641.944C722.055 641.419 720.691 641.104 719.328 640.894C718.908 640.789 718.489 640.684 718.174 640.579L710.308 637.012C709.889 636.802 709.469 636.487 709.05 636.172C708.525 635.647 707.896 635.123 707.267 634.703C706.952 634.493 706.638 634.178 706.428 633.968C703.281 630.086 700.869 625.783 699.086 621.166C691.325 622.95 683.249 623.894 675.279 623.999H675.174C674.964 623.999 674.754 623.999 674.44 623.894C673.601 623.789 672.762 623.685 671.818 623.685H670.769C669.93 623.685 668.881 623.685 667.832 623.37C667.098 623.16 666.154 623.055 665.21 622.95L655.037 621.586H654.827C650.108 620.641 645.493 619.487 641.193 618.333C640.773 618.228 640.354 618.018 639.934 617.808C639.725 617.703 639.41 617.598 639.2 617.598H638.99C638.571 617.598 638.151 617.598 637.837 617.493L633.956 616.444C633.222 616.234 632.698 615.919 632.173 615.395C632.068 615.29 631.859 615.185 631.649 615.185H631.439C631.125 615.29 630.81 615.29 630.495 615.29C629.971 615.29 629.447 615.185 628.922 614.975C624.727 613.191 620.532 611.512 616.337 609.728C603.017 604.271 590.327 597.24 578.685 588.845C575.539 586.537 572.497 584.018 569.665 581.5C567.253 579.191 565.47 576.358 564.631 573.21C561.904 563.87 561.065 554.216 562.009 544.562C562.639 537.426 564.736 530.5 568.092 524.099C568.826 522.84 569.561 521.581 570.504 520.321C573.651 516.019 578.895 510.247 587.705 509.198L588.334 504.476C588.649 502.377 588.963 500.278 589.278 498.075C590.327 491.359 592.529 485.062 595.78 479.186C598.193 474.569 601.654 470.476 605.954 467.538C606.478 467.118 606.898 466.593 607.107 465.859C607.107 465.754 607.527 464.704 607.632 464.18C608.156 462.606 608.68 461.032 609.415 459.353C612.246 452.637 617.91 447.18 624.727 444.557C627.768 443.297 630.915 442.458 634.166 442.038C637.627 441.513 641.088 441.303 644.654 441.303C646.437 441.303 648.115 441.408 649.898 441.513H650.003C657.03 442.248 663.847 444.032 670.349 446.76L685.242 453.266C690.067 446.026 696.569 441.094 702.337 437.106C707.791 433.328 714.294 431.229 720.901 431.125H721.74C726.774 431.125 731.704 432.489 736.004 435.007C740.828 437.945 744.918 441.933 748.065 446.55C752.26 452.952 755.092 459.982 756.665 467.433C758.028 473.834 758.972 480.445 759.392 486.951C760.65 487.056 761.804 487.161 763.062 487.161H763.167C770.089 487.476 776.487 490.414 781.416 495.241C783.514 497.235 785.297 499.439 786.765 501.957C787.499 503.216 788.129 504.476 788.863 505.735C789.387 506.679 789.807 507.519 790.331 508.463H790.436C791.065 508.253 791.694 508.149 792.324 507.939C799.141 506.365 803.441 501.852 805.958 493.982C805.958 493.877 806.063 493.772 806.063 493.562C806.168 493.352 806.168 493.038 806.273 492.828C806.797 491.044 806.902 489.365 806.482 487.686C805.224 481.914 804.804 476.143 805.224 470.371C805.538 463.76 807.007 457.254 809.524 450.958C812.356 443.612 816.236 436.791 821.061 430.6C821.795 429.76 822.529 428.921 823.158 428.186C823.892 427.347 824.626 426.612 825.151 425.773C825.465 425.353 825.885 424.933 826.304 424.618C828.087 423.464 829.556 421.995 830.814 420.421C830.919 420.211 831.129 420.001 831.339 419.896C833.751 417.693 836.373 415.699 839.205 413.915C844.449 410.347 850.427 407.933 856.719 406.779L857.139 406.674C857.454 406.569 857.768 406.569 858.083 406.569H858.397C860.076 406.674 861.649 406.884 863.117 407.094C863.222 407.094 863.327 407.094 863.432 407.199C865.844 407.724 868.151 408.248 870.563 408.773L876.227 410.032C876.332 410.032 876.437 410.137 876.542 410.137C878.22 410.662 879.898 411.186 881.681 411.711C882.1 411.816 882.52 412.026 882.834 412.341C883.044 412.551 883.359 412.656 883.568 412.761L884.512 413.39C900.664 424.094 912.725 439.415 919.437 457.569C922.479 465.649 924.471 474.149 925.31 482.754C926.779 496.5 925.625 510.352 921.954 523.679C917.235 541.099 909.369 557.259 898.356 571.636C885.456 588.74 869.515 602.907 850.951 613.611C845.497 616.864 839.729 619.802 833.856 622.215C831.863 623.055 829.87 623.894 828.192 624.524C827.878 624.629 827.563 624.839 827.353 625.049C827.039 625.259 826.619 625.468 826.304 625.573C825.675 625.783 825.046 625.993 824.417 626.308L824.207 626.413C823.892 626.518 823.473 626.623 823.158 626.728L822.109 626.833C819.592 627.882 817.075 628.931 814.768 629.981C814.558 630.086 814.348 630.191 814.034 630.191C811.936 630.715 809.734 631.24 807.636 631.87H807.531C807.112 631.975 806.692 632.079 806.273 632.079C805.958 632.079 805.538 632.079 805.224 631.975C803.231 632.079 801.238 632.289 799.351 632.709C793.477 633.968 787.394 634.703 781.416 634.703H778.585C777.431 634.703 776.277 634.703 775.019 634.598C772.187 634.598 769.25 634.493 766.419 634.493L763.272 634.808H762.643C762.328 634.808 762.014 634.808 761.699 634.703C760.44 634.388 759.077 634.283 757.714 634.073C755.511 633.759 753.309 633.444 751.001 632.814C749.218 633.758 747.435 634.808 745.128 636.277C742.087 638.166 738.94 639.215 735.899 640.16C735.269 640.37 734.535 640.579 733.906 640.789C733.801 640.789 733.696 640.789 733.696 640.894C731.913 641.419 730.025 641.734 728.138 641.839C726.984 641.944 725.935 642.049 724.991 642.049C725.096 642.258 724.991 642.258 724.886 642.258ZM715.447 614.66C717.021 617.073 719.223 618.962 721.845 620.326C722.894 620.851 724.047 621.166 725.201 621.166C725.83 621.166 726.565 621.061 727.194 620.851C730.34 620.012 733.277 618.543 735.899 616.654C740.199 613.401 744.079 609.623 747.435 605.425C754.253 596.611 759.811 586.852 763.901 576.463C766.733 569.432 768.936 562.086 770.509 554.741C771.767 548.549 772.502 542.148 772.606 535.852C772.711 530.5 772.082 525.043 770.719 519.797C770.194 517.383 769.25 515.179 767.887 513.186C766.838 511.507 765.475 510.142 763.901 509.093C762.853 508.463 761.804 508.044 760.65 508.044C760.126 508.044 759.601 508.149 759.077 508.253C758.133 510.772 757.504 513.5 757.399 516.124C757.399 516.648 757.504 517.173 757.609 517.698C757.714 518.327 757.714 518.957 757.504 519.587C757.084 521.056 756.77 522.42 756.35 523.889C755.826 525.988 755.197 528.087 754.672 530.185C751.106 543.093 746.806 553.062 741.038 561.457C741.038 561.562 740.933 561.562 740.933 561.667C740.409 562.401 739.779 563.136 739.15 563.87C738.311 564.71 737.262 565.234 736.109 565.234H735.689C731.284 564.815 729.606 561.037 729.082 559.883C728.662 558.938 728.662 557.889 728.977 556.944L730.026 553.796C731.704 548.759 733.382 543.512 734.64 538.266C736.738 530.185 738.94 520.636 739.674 511.087C739.779 509.303 739.989 507.624 740.199 505.945L740.513 502.482C740.828 498.599 740.828 494.717 740.513 490.834C740.199 487.161 739.674 482.859 739.15 478.661C738.311 472.575 736.528 466.698 733.696 461.242C732.648 459.353 731.389 457.464 730.026 455.785C728.243 453.581 725.83 452.112 723.103 451.482H722.999C722.684 451.377 722.264 451.377 721.95 451.377C721.635 451.377 721.425 451.377 721.111 451.482C718.384 452.007 715.867 453.056 713.455 454.526C712.825 454.945 712.196 455.365 711.567 455.89C713.035 455.995 714.399 456.624 715.342 457.674C717.021 459.458 717.545 462.186 716.496 464.495C715.342 467.118 713.35 470.791 709.155 472.995C709.05 473.099 708.945 473.204 708.945 473.309C708.211 474.359 707.057 475.093 705.694 475.198C704.855 475.303 703.911 475.303 703.072 475.303C695.52 475.303 688.493 473.414 681.571 471.63L681.362 471.525C676.747 470.161 672.342 468.587 668.042 466.698C662.588 464.495 656.925 462.816 651.156 461.871C649.269 461.556 647.486 461.347 645.703 461.347C643.92 461.347 642.137 461.556 640.354 461.871C638.047 462.291 635.739 462.816 633.432 463.445C631.125 464.075 629.237 465.859 628.293 468.167C627.454 470.686 626.825 473.204 626.51 475.828C626.405 476.562 626.405 477.297 626.615 478.032V478.241C627.244 482.124 628.083 484.957 630.286 487.056L630.495 487.266C631.544 488.525 632.488 489.889 633.117 491.359C634.795 494.822 634.061 498.914 631.439 501.747C629.656 503.636 626.825 504.895 624.098 504.895C623.049 504.895 622 504.686 621.161 504.266C618.224 503.007 615.707 501.013 613.715 498.494C612.666 497.235 611.932 495.766 611.198 494.507C610.044 497.235 609.31 500.173 608.68 503.007C606.583 511.716 606.583 520.846 608.471 529.451C609.205 532.809 610.778 535.852 613.085 538.37L613.19 538.475C613.61 539 614.029 539.42 614.554 539.84C617.281 542.148 618.644 545.716 617.91 549.284C617.595 550.963 616.232 552.327 614.554 552.642C614.344 552.642 614.134 552.747 613.82 552.852C612.456 553.272 610.988 553.586 609.624 553.586C606.058 553.586 602.807 552.117 599.556 549.074C596.724 546.241 594.522 542.988 593.158 539.315C592.319 537.111 591.585 534.908 590.956 532.809C590.851 532.599 590.851 532.389 590.746 532.179C590.117 532.809 589.592 533.543 589.068 534.278C585.817 539.21 583.719 544.982 583.09 550.963C582.461 556.315 582.67 561.667 583.719 566.913C583.929 567.648 584.349 568.487 584.873 569.012L584.978 569.117C585.397 569.642 585.922 570.062 586.341 570.481C602.807 584.543 622.629 594.512 643.71 599.444C656.191 602.487 668.881 604.061 681.676 604.061H685.662C691.22 603.851 696.779 602.487 701.813 601.333C703.806 600.808 705.798 599.969 707.686 598.919C707.686 598.919 707.791 598.919 707.791 598.814C712.406 596.401 715.447 593.463 717.335 589.58C717.65 588.845 718.069 588.216 718.384 587.691C718.699 587.166 718.908 586.747 719.118 586.327C720.377 583.494 722.894 581.919 725.935 581.919C726.984 581.919 727.928 582.129 728.872 582.234C730.865 582.549 732.228 584.228 732.333 586.222V587.271C732.333 588.216 732.438 589.055 732.438 590C732.438 592.518 731.913 595.142 730.865 597.45C729.816 599.969 728.557 602.382 726.879 604.586C726.879 604.691 726.774 604.691 726.774 604.796C726.25 605.425 725.725 606.265 725.201 607.104C724.886 607.524 724.677 607.944 724.362 608.364C723.943 608.993 723.418 609.413 722.789 609.728C721.111 610.672 719.538 611.932 717.755 613.191C716.916 613.611 716.181 614.135 715.447 614.66Z" fill="#2C2729"/>
<path d="M955.832 859.793C954.993 854.441 952.58 850.349 947.232 848.04C935.695 842.898 923.424 839.645 910.734 838.596C896.995 837.546 883.465 838.281 870.146 841.744C866.999 842.583 864.377 842.583 861.441 840.8C854.938 836.917 847.177 835.553 839.731 836.917C840.255 836.602 840.779 836.392 841.304 836.077C846.023 833.349 850.533 830.096 855.358 827.368C864.063 822.436 871.928 816.139 878.746 808.794C885.563 801.448 892.065 793.893 897.204 785.288C901.295 778.572 906.329 774.269 915.348 774.584C926.361 775.004 935.905 770.072 943.141 761.467C947.441 756.325 946.917 752.757 940.939 749.924C934.017 746.671 929.192 741.529 925.207 735.233C919.858 726.523 915.558 717.288 912.202 707.634C905.07 687.381 900.665 666.394 897.204 645.301C893.219 621.166 889.548 596.925 888.604 572.475C888.08 556.524 887.346 540.679 886.716 524.728C886.087 509.827 884.619 494.926 885.038 480.13C885.668 456.834 886.612 433.643 887.031 410.347C887.346 394.081 886.716 377.711 885.248 361.551C884.304 351.267 882.311 340.983 880.319 330.699C868.887 270.046 847.911 213.17 815.084 160.911C783.515 110.751 743.452 69.0906 691.851 39.0785C653.675 16.9368 612.772 3.60974 568.618 0.986303C524.464 -1.63713 482.303 6.96773 442.239 25.7515C395.358 47.7883 356.867 80.4238 324.879 120.825C291.003 163.534 267.196 211.595 251.464 263.539C238.879 305.514 229.859 348.539 224.3 392.088C223.881 395.236 223.566 398.384 223.147 401.532C192.103 366.903 177.734 332.378 177.734 332.378C182.454 328.181 186.334 323.459 188.327 317.372C189.271 314.854 189.69 312.125 189.585 309.397C189.061 303.835 186.124 299.638 182.034 296.175C180.985 295.231 180.985 295.335 181.824 294.181C193.781 279.07 200.703 260.706 201.751 241.398C202.486 231.638 201.122 221.774 197.766 212.54C193.885 202.151 187.593 193.546 178.154 187.46C173.119 184.312 167.561 182.213 161.792 181.269C159.695 181.059 157.912 179.695 157.178 177.806C154.766 172.769 152.039 167.942 150.151 162.59C145.012 147.794 140.712 132.788 136.097 117.886C133.79 110.226 131.378 102.566 128.441 95.22C125.714 87.9793 121.938 81.2633 117.324 75.177C111.136 67.5165 103.27 62.7944 93.5162 61.6401C88.2722 60.9055 82.9234 62.3746 78.8331 65.6277C75.8965 68.1462 73.6941 71.3992 72.3306 74.9671C70.6526 79.2695 69.6038 83.6769 69.1843 88.2941C68.555 94.4854 68.4501 100.677 68.6599 106.868C68.8696 116.837 70.3379 126.806 72.9599 136.355C74.9526 143.701 77.8892 150.627 80.4063 157.763C81.9795 161.96 83.3429 166.263 84.3917 170.67C84.9161 171.929 85.2308 173.293 85.4405 174.762C84.8112 174.343 84.3917 173.713 84.2868 172.979C80.6161 166.053 77.1551 159.022 74.0087 151.781C69.1842 140.763 64.6745 129.639 59.4305 118.831C55.6549 111.066 51.5646 103.51 46.3206 96.7941C42.6499 91.862 37.9303 87.8744 32.4766 85.0411C27.5473 82.6275 22.5131 81.9979 17.374 84.0966C13.7032 85.5658 10.6618 88.2941 8.66905 91.6521C6.15196 95.7447 4.15925 100.152 3.00558 104.874C0.593359 113.059 -0.0359091 121.664 1.01288 130.164C1.64216 134.362 2.06167 138.454 3.00558 142.652C4.369 148.843 6.36171 154.824 9.08856 160.491C12.9691 168.046 17.4789 175.392 22.618 182.108C27.1278 188.404 31.6376 194.701 35.8327 201.207C36.2522 201.731 36.5669 202.361 36.6718 202.991C33.3156 201.836 30.0644 202.466 26.918 202.886C23.3521 203.305 19.8911 204.565 16.8496 206.558C10.6617 210.651 7.4105 216.632 6.15195 223.768C4.78852 231.639 5.94219 239.299 8.45928 246.854C12.4447 258.502 19.1569 269.101 28.1765 277.601C28.8058 278.231 29.3302 278.965 29.54 279.91C29.9595 281.589 30.5888 283.163 31.3229 284.632C34.7839 291.138 39.5035 297.014 45.167 301.737C54.0817 309.187 64.3598 314.854 75.477 318.212C76.1063 318.422 76.8404 318.422 77.2599 319.051C76.5258 320.101 75.8965 321.255 75.1624 322.409C71.2818 329.02 72.016 337.31 76.9453 343.082C79.3575 345.81 82.2941 348.119 85.6503 349.693C89.0064 351.372 92.6772 352.526 96.3479 353.261C97.2918 353.366 98.1309 354.1 98.2358 355.045C98.5504 356.514 98.9699 357.983 99.3894 359.347C112.185 401.112 134.419 439.414 164.31 471.315C179.727 487.686 197.032 502.062 215.91 514.235C215.176 544.037 212.764 573.734 208.569 603.221C202.486 646.561 190.529 688.535 177 729.986C174.063 739.22 169.134 747.615 162.422 754.541C158.331 758.739 158.541 761.362 163.261 764.93C165.673 766.819 168.714 767.763 171.861 767.658C174.483 767.448 177.21 767.553 179.727 768.183C189.376 770.911 199.339 771.541 209.303 772.38C216.644 772.905 223.776 774.899 230.278 778.362C236.886 781.93 243.283 785.917 249.471 790.325C267.406 803.127 284.501 817.084 301.386 831.25C304.323 833.664 307.155 836.077 310.196 838.386C307.574 840.38 305.582 843.108 304.428 846.256C303.169 849.929 302.33 853.707 301.911 857.589C301.701 859.583 302.121 861.682 300.547 863.361C298.764 863.256 297.611 861.892 296.352 860.948C264.784 837.022 229.544 822.54 189.481 820.652C171.127 819.707 153.297 821.911 136.202 828.837C124.246 833.769 113.024 840.065 105.368 850.978C104.109 852.762 102.221 853.497 100.543 854.651C91.4186 860.318 85.86 868.503 82.9234 878.787C80.1965 888.441 80.5112 898.2 82.2941 907.854C85.6503 926.218 93.3064 942.904 103.375 958.329C132.531 1002.82 170.078 1037.77 219.581 1058.86C221.783 1059.91 224.3 1060.12 226.608 1059.49C232.376 1058.12 238.04 1056.66 244.123 1055.19C244.647 1058.12 243.283 1060.12 242.654 1062.22C240.137 1070.51 240.766 1072.5 247.793 1077.85C252.513 1081.42 257.652 1084.36 263.21 1086.46C276.111 1091.18 289.116 1095.38 303.065 1091.07C303.799 1090.87 304.638 1090.76 305.477 1090.87C317.013 1091.7 326.348 1086.46 335.158 1079.85C344.702 1072.61 352.253 1063.58 359.175 1053.93C365.887 1044.38 371.551 1034.2 376.06 1023.5C377.109 1021.08 378.053 1020.35 380.465 1021.92C384.87 1024.65 390.219 1025.49 395.253 1024.12C408.048 1020.87 424.095 1010.38 424.41 990.125C424.619 976.693 420.005 964.94 412.663 954.132C410.985 951.613 410.041 949.305 410.775 946.262C414.97 928.002 419.166 909.743 424.934 891.904C430.178 876.058 436.366 860.738 444.546 846.256H444.651C459.125 841.009 473.703 840.904 488.071 847.306C500.342 852.972 511.459 860.843 520.793 870.497C532.645 882.565 544.181 894.947 557.711 905.336C577.533 920.552 599.033 923.385 622.107 914.256C634.273 909.533 644.446 901.768 653.151 892.324C680.314 925.169 715.973 943.638 759.813 948.045C764.323 948.465 764.323 948.36 765.057 952.768C766.42 961.163 769.252 969.033 775.335 975.224C777.328 977.323 776.698 978.477 775.02 980.156C763.064 992.539 758.03 1007.96 756.771 1024.44C754.254 1055.61 762.854 1083.83 781.208 1108.91C792.535 1124.44 806.694 1136.51 825.572 1141.76C839.206 1145.54 852.84 1146.17 865.741 1138.19C870.041 1135.46 873.921 1132.11 877.487 1128.43C890.492 1115.11 901.609 1100.2 910.734 1084.04C933.283 1044.59 946.602 1002.09 953.839 957.49C954.573 952.768 953.734 949.41 950.378 946.052C945.449 941.329 941.149 935.978 935.695 929.996C942.302 929.472 947.336 929.157 952.476 928.737C956.356 928.422 957.405 927.688 957.405 924.015C957.51 902.503 958.978 880.99 955.832 859.793ZM169.449 328.601C162.317 334.162 154.136 338.465 145.536 341.193C137.041 344.026 128.126 345.81 119.107 346.335C111.975 346.965 104.843 346.44 97.8162 344.761C94.0406 343.921 90.3698 342.347 87.1186 340.144C84.4966 338.36 82.399 336.261 81.56 333.113C81.4551 332.693 81.3502 332.168 81.3502 331.644C81.2453 328.076 82.0844 324.613 83.8673 321.465C84.3917 320.625 84.9161 320.625 85.7552 320.73C92.7821 322.094 99.9138 322.724 107.046 322.304C110.821 322.199 114.597 321.57 118.268 320.625C119.526 320.311 120.68 319.786 121.729 319.051C122.463 318.736 122.882 317.792 122.463 316.953C122.253 316.428 121.729 316.008 121.099 316.008C119.526 315.693 117.953 315.693 116.485 315.693C108.829 316.008 101.067 315.378 93.5162 314.014C78.5185 311.181 64.4647 304.57 52.7183 294.916C52.5085 294.811 52.4036 294.601 52.1939 294.391C51.9841 294.391 51.7743 294.181 51.7743 293.971C51.5646 293.971 51.4597 293.866 51.3548 293.656C51.1451 293.656 50.9353 293.552 50.9353 293.342H50.7255C50.7255 293.027 50.5158 292.817 50.2011 292.817L50.5158 292.397L50.8304 292.502C50.9353 292.712 51.1451 292.817 51.3548 292.712L51.7743 293.027C52.089 292.922 52.2987 293.027 52.5085 293.342C52.8231 293.237 53.1378 293.342 53.2426 293.552C55.9695 294.181 58.8012 294.706 61.4232 295.545C66.772 297.329 72.3306 297.959 77.8892 297.224C86.6991 295.965 92.8869 290.194 94.7747 281.484C95.5089 277.601 95.404 273.508 94.3552 269.731C92.9918 264.169 90.6845 258.922 87.4332 254.2C79.2526 241.608 67.7159 231.638 54.0817 225.447C50.4109 223.768 46.4255 222.614 42.3352 222.089C41.7059 221.984 41.1816 221.984 40.5523 222.089C39.5035 222.194 38.7693 223.139 38.8742 224.188C38.8742 224.818 39.2937 225.342 39.7132 225.657C40.2376 225.972 40.8669 226.287 41.4962 226.602C46.5304 228.805 51.3548 231.324 55.8646 234.367C67.5062 242.342 77.0502 252.206 82.7137 265.323C84.6015 269.416 85.5454 273.823 85.3356 278.231C85.3356 279.7 85.021 281.064 84.4966 282.428C83.0283 285.891 80.3014 287.78 76.7355 288.515C72.7501 289.354 68.555 289.249 64.5696 288.2C60.8988 287.36 57.3329 286.206 53.6622 285.052C50.6207 283.897 47.7889 282.323 45.167 280.329C36.1474 274.138 29.3302 266.058 23.6667 256.823C19.3667 249.793 16.1155 242.342 15.0667 234.052C14.3325 229.54 14.752 224.923 16.2203 220.515C16.9545 218.626 18.1082 216.842 19.4716 215.373C22.0936 212.54 25.9741 211.281 29.8546 212.015C34.2595 212.645 38.0352 214.534 40.3425 218.521C40.6572 219.361 41.4962 219.886 42.4401 219.781C43.4889 219.676 44.4328 218.941 44.6426 217.997C45.4816 215.688 45.5865 213.17 44.8523 210.756C42.0206 202.256 38.1401 194.071 33.3156 186.411C29.2253 179.904 25.0302 173.608 21.2545 166.997C15.5911 157.133 11.9203 146.22 10.3471 134.991C9.61296 129.744 8.77393 124.393 9.19345 119.041C9.50809 111.8 11.291 104.769 14.2276 98.1582C14.8569 96.899 15.5911 95.6397 16.4301 94.4854C18.6326 91.2324 22.9326 90.183 26.3936 91.9669C29.9595 93.541 33.2107 95.8496 35.7278 98.8928C39.6084 103.405 42.8596 108.337 45.4816 113.689C49.7816 121.979 53.4524 130.479 57.0183 139.084C60.5842 147.479 63.7306 155.979 67.6111 164.164C69.8135 169.096 72.2258 173.818 74.9526 178.435C76.4209 180.849 78.099 183.053 80.1966 185.046C81.9795 186.725 83.9722 188.09 86.4893 188.194C87.3283 188.194 87.4332 188.614 87.5381 189.349C88.1674 193.546 87.5381 197.849 85.86 201.731C85.3356 202.886 84.7064 204.04 84.0771 205.299C83.6576 206.139 83.3429 206.978 82.9234 207.713C82.6088 208.342 82.7137 209.077 83.238 209.497C83.8673 209.916 84.7064 209.916 85.2308 209.392C85.3356 209.287 85.5454 209.182 85.6503 209.077C91.943 204.46 95.2991 196.904 94.7747 189.139C94.2503 178.016 92.1528 166.892 88.6918 156.294C86.4893 149.473 83.8673 142.757 81.8746 135.831C78.8331 125.337 77.3648 114.528 77.4697 103.615C77.4697 98.9977 77.4697 94.3805 77.8892 89.7633C78.2039 85.251 79.3575 80.8436 81.1405 76.751C83.6576 71.6091 87.7478 70.14 92.8869 71.2943C98.865 72.6585 104.109 76.1214 107.78 81.0535C110.821 85.251 113.233 89.7633 115.121 94.5904C118.582 103.09 120.995 111.905 123.407 120.72C125.399 127.751 127.182 134.781 129.07 141.707C131.273 149.787 133.37 157.868 135.678 165.843C137.565 172.979 141.026 179.485 145.746 185.151C146.165 185.676 146.69 186.096 147.109 186.62C147.529 187.145 148.158 187.355 148.473 188.194C144.697 190.503 141.761 193.651 138.614 196.799C134.839 200.787 131.482 205.089 128.441 209.602C126.553 212.12 124.56 214.639 122.358 216.947C119.316 220.305 115.646 222.824 111.975 225.552C104.004 231.114 97.9211 238.879 94.565 248.009C93.8308 250.212 93.3064 252.521 92.8869 254.83C92.6772 256.089 92.9918 257.243 93.726 258.188C100.124 268.786 109.353 274.978 121.834 275.712C128.965 276.027 136.202 274.453 142.495 270.99C154.241 264.799 162.632 255.249 168.61 243.496C171.336 238.25 173.224 232.688 174.273 226.811C174.588 224.818 174.797 222.929 174.797 220.935C174.797 220.305 174.693 219.781 174.588 219.151C174.483 218.416 173.958 217.997 173.224 217.892C172.595 217.787 171.966 218.102 171.651 218.626C171.336 219.151 171.127 219.676 170.917 220.305C168.819 226.392 166.722 232.478 163.575 238.145C158.017 248.009 150.78 256.194 140.817 261.965C136.202 264.694 131.168 266.373 125.819 266.897C116.799 267.737 109.248 264.904 103.375 257.978C102.641 257.138 102.326 256.089 102.326 255.04C102.326 250.842 104.004 247.169 105.997 243.706C108.619 239.614 111.975 235.941 115.855 233.108C117.429 231.848 119.002 230.694 120.575 229.54C126.763 224.818 131.482 218.731 135.782 212.33C139.348 206.768 143.439 201.626 148.158 196.904C149.941 195.225 151.934 193.756 154.031 192.497C154.451 192.287 154.87 192.077 155.395 191.972C160.639 191.238 166.092 192.287 170.602 194.91C177 198.478 181.51 203.935 184.656 210.441C188.222 217.892 190.11 226.077 190.215 234.262C190.634 252.416 185.39 268.891 175.427 283.897C170.288 291.873 163.575 298.589 155.709 303.835C149.836 307.718 143.229 310.551 136.412 312.125C135.258 312.335 134.209 312.65 133.16 313.07C132.112 313.28 131.378 314.224 131.378 315.274C131.378 316.428 132.217 316.953 133.16 317.372C134.629 317.897 136.307 318.212 137.88 318.317C144.487 318.527 151.095 317.057 157.073 314.119C162.527 311.496 167.561 308.138 171.966 304.15L172.49 303.625C173.749 302.471 173.749 302.471 174.902 303.625C175.217 303.94 175.532 304.255 175.846 304.465C179.727 307.823 180.776 313.385 178.468 317.897C176.685 321.885 173.329 325.662 169.449 328.601ZM228.391 754.541C227.657 757.479 226.188 757.899 223.671 757.479C206.89 754.646 189.9 757.689 172.805 755.695C172.385 754.436 174.063 753.807 174.902 752.862C185.39 741.109 191.473 726.838 197.346 712.461C210.456 680.245 220.105 647.085 225.139 612.561C227.866 593.987 229.335 575.308 230.803 556.629C231.642 545.716 231.852 534.802 232.061 523.784C241.186 528.716 250.625 533.123 260.274 537.006C267.615 539.944 275.062 542.463 282.613 544.771C281.879 549.494 281.25 554.216 280.516 558.938C279.991 562.716 279.047 566.493 278.208 570.271C277.055 580.24 274.328 589.789 272.23 599.549C266.462 625.783 261.113 652.227 253.876 678.042C248.737 696.301 242.969 714.35 236.257 732.084C233.425 739.535 230.383 746.881 228.391 754.541ZM319.216 1042.59C304.428 1047.11 289.535 1051.51 274.747 1056.03C266.462 1058.54 258.176 1061.38 249.576 1064.21C250.73 1054.24 256.184 1049.94 264.993 1047.42C281.355 1042.7 297.401 1036.51 313.552 1031.05C319.111 1029.16 319.216 1029.16 321.314 1034.93C321.628 1035.67 321.943 1036.4 322.153 1037.24C323.411 1041.12 323.306 1041.33 319.216 1042.59ZM369.872 1010.27C367.146 1017.41 363.999 1024.33 360.328 1031.05C357.707 1001.56 345.96 977.533 327.711 956.545C327.082 955.916 326.557 955.286 325.928 954.656C324.984 954.552 323.935 953.607 323.096 954.447C322.257 955.286 322.992 956.335 323.411 957.175C325.299 960.323 327.187 963.471 329.179 966.514C339.562 983.094 347.114 1000.72 350.155 1020.14C351.204 1026.96 351.309 1033.99 350.365 1040.81C349.421 1047.74 347.219 1054.24 341.975 1059.38C339.143 1062.22 336.731 1065.58 333.584 1068.2C333.06 1069.14 332.536 1070.72 331.277 1069.67C330.228 1068.83 331.172 1067.57 332.116 1066.83C334.004 1060.22 333.689 1053.82 332.536 1046.9C331.487 1040.81 330.857 1034.62 327.082 1029.69C323.831 1025.49 322.572 1020.98 321.628 1015.94C317.957 996.002 309.148 978.057 298.135 961.268C270.342 919.083 234.159 885.923 188.956 863.151C171.966 854.546 154.031 848.565 134.839 847.201C129.699 846.886 124.56 847.096 119.526 847.725C126.658 841.849 134.314 841.114 141.551 839.33C155.5 834.818 169.239 836.497 182.768 841.114C206.786 849.09 228.181 861.787 248.213 877.003C258.071 884.453 267.72 892.324 276.216 901.453C279.047 903.447 281.564 905.966 283.557 908.799C291.633 916.459 298.45 925.274 305.582 933.774C306.735 935.138 307.889 936.607 309.148 937.971C309.672 938.601 310.406 939.231 311.14 938.811C312.189 938.181 311.455 936.922 311.665 935.978C299.184 911.317 280.201 892.219 259.645 874.379C241.71 858.744 221.678 845.732 200.073 835.553C198.29 835.763 197.242 834.398 195.878 833.664C198.29 832.929 200.598 832.824 202.695 834.188C223.776 837.442 243.388 844.892 261.952 855.281C276.53 863.361 289.955 873.435 301.701 885.188C303.379 886.867 305.372 888.441 306.421 890.645C315.23 899.145 322.572 908.904 329.704 918.768C336.101 927.688 342.919 936.292 349.841 944.792C354.77 950.774 360.119 956.545 363.999 963.156C372.599 977.848 376.69 993.483 369.872 1010.27ZM394.519 1009.12C392.631 1009.85 390.534 1010.06 388.541 1009.64C386.129 1009.01 384.451 1007.65 384.556 1005.03C385.709 982.885 376.06 964.73 363.37 947.836C350.68 930.941 338.409 914.256 328.655 895.577C326.872 892.219 324.775 888.966 322.782 885.608C319.006 881.62 315.23 877.633 311.245 873.855C309.567 872.386 308.623 870.182 308.833 867.978C309.147 862.312 310.301 856.645 312.189 851.293C313.448 847.411 316.174 845.522 320.055 845.522C323.516 847.725 327.082 849.719 330.753 851.398C335.577 853.602 339.982 855.491 343.967 857.17C345.541 860.633 346.904 864.096 348.058 867.663C353.302 884.244 361.587 899.459 368.509 915.2C369.453 917.194 370.397 919.188 371.341 921.286C376.585 932.095 384.66 940.595 392.421 949.41C399.553 957.595 405.741 966.305 408.363 977.113C409.097 980.261 409.622 983.514 409.727 986.767C410.356 997.366 404.483 1005.76 394.519 1009.12ZM550.684 874.379C550.055 874.904 549.006 873.96 548.796 872.91C538.833 863.571 529.603 853.392 519.22 844.577C513.871 840.275 508.103 836.287 502.23 832.719C489.33 824.429 475.381 821.596 460.907 822.331C466.99 814.985 474.227 808.689 482.303 803.757C491.322 798.405 500.971 795.047 511.459 797.041C520.269 798.72 527.086 796.201 532.855 789.905C534.008 788.751 534.952 787.491 536.001 786.232C538.099 804.806 540.93 823.17 544.391 841.534C546.279 851.503 547.747 861.577 550.16 871.441C550.999 872.386 551.733 873.54 550.684 874.379ZM740.62 726.103C739.781 723.375 739.256 720.541 738.627 717.813C738.103 715.504 737.369 713.301 734.642 713.196C731.391 713.196 730.761 715.714 730.342 718.128C729.922 721.591 729.922 725.054 730.552 728.517C732.02 737.751 734.013 746.986 736.634 756.01C737.054 757.374 737.683 758.634 737.369 760.208C739.886 767.973 742.298 775.633 744.815 783.399C748.591 793.053 752.261 802.707 756.037 812.466C757.191 815.405 758.449 818.448 759.918 822.121C752.681 821.596 745.549 821.911 738.417 823.065C734.642 819.287 731.181 815.3 727.93 811.102C724.049 805.75 720.903 800.084 718.281 794.102C715.659 788.436 709.576 787.177 706.115 792.004C704.017 794.837 702.024 795.257 698.983 795.047C689.334 794.417 679.79 796.411 671.085 800.609C659.024 806.275 648.221 814.145 639.097 823.8C637.524 825.374 636.37 827.263 633.853 827.787C630.602 828.522 629.343 831.04 629.133 834.188C628.819 838.491 629.133 842.793 629.868 846.991C632.07 858.849 636.79 870.077 643.712 880.046L644.131 880.571C636.58 889.805 627.455 897.571 616.024 901.978C601.341 907.75 587.706 904.811 574.701 896.626C571.555 894.842 569.667 891.589 569.667 888.021C570.087 878.472 567.255 869.447 565.472 860.318C559.074 828.627 553.201 796.936 547.957 765.035C551.628 753.911 552.047 741.949 549.74 729.146C549.425 727.572 548.481 725.998 548.796 724.424C549.845 719.492 547.433 715.714 544.601 712.146C542.398 709.418 540.091 706.795 537.469 704.486C537.05 702.072 536.525 699.764 536.106 697.35C535.581 694.517 535.477 691.684 535.057 688.85C534.533 684.758 534.323 684.653 529.498 685.073L527.82 689.585V697.35C518.067 691.474 506.74 688.64 494.469 688.221C475.486 687.591 457.971 693.677 441.505 702.702C419.69 714.77 401.861 731.14 387.178 750.553C389.17 737.856 391.163 725.264 392.421 712.461C393.995 696.406 395.463 680.35 397.036 664.4C398.714 647.4 400.602 630.295 402.385 613.295C404.273 595.456 405.846 577.617 406.895 559.672C406.266 557.889 406.895 556 406.79 554.216C406.895 553.376 406.37 552.642 405.636 552.222C404.692 551.802 403.539 552.117 402.909 552.957C401.861 554.426 401.126 556.105 400.812 557.994C391.792 599.549 382.773 641.104 376.69 683.289C372.18 714.98 366.307 746.356 360.328 777.732C358.336 788.541 355.504 799.139 351.728 809.528C349.631 815.615 347.743 821.911 345.331 827.892C343.443 832.51 342.919 832.509 338.619 830.096C330.333 825.584 322.887 819.812 315.65 813.936C297.821 799.454 278.942 786.022 259.435 773.954C254.925 771.121 250.31 768.603 245.591 766.084C243.493 764.93 242.549 763.985 243.703 761.362C245.696 757.164 246.849 752.547 248.842 748.35C263.211 717.918 271.286 685.492 278.313 652.857C283.662 627.777 288.591 602.592 292.367 577.197C293.835 567.753 294.884 558.308 295.933 548.759C300.443 549.808 304.847 550.858 309.462 551.802C320.684 554.006 332.116 555.58 343.443 556.524C344.492 556.629 345.436 556.839 346.38 557.259C349.211 558.728 352.567 557.889 354.35 555.265C415.39 526.722 381.724 472.05 381.724 472.05C355.609 473.624 329.494 469.636 305.057 460.297C305.372 454.525 305.267 448.649 305.477 442.877C305.477 441.723 305.162 440.359 306.316 439.519C306.421 438.155 306.211 437.001 304.743 436.581C303.484 436.266 302.226 437.001 301.911 438.26C301.282 439.939 300.757 441.723 300.443 443.507C299.604 448.124 298.66 452.741 297.821 457.359C273.594 446.865 253.352 431.859 236.676 415.908C237.305 408.563 238.04 401.322 238.774 393.977C242.235 360.501 247.688 327.341 255.03 294.496C259.33 275.397 265.832 256.928 273.069 238.774C273.489 237.83 274.013 236.99 274.537 236.151C278.942 223.453 285.025 211.386 291.213 199.528C310.091 163.324 333.27 130.269 362.531 101.516C400.392 64.3684 444.232 37.5045 496.252 25.5416C549.216 13.0541 600.606 18.6158 650.424 40.4427C655.039 42.4365 659.863 44.2205 664.058 47.1587C677.692 53.2451 690.068 61.5351 702.024 70.3499C745.759 102.356 779.32 143.281 805.54 190.398C833.018 239.719 850.638 292.397 860.077 348.014C861.86 358.927 862.594 369.946 862.489 380.964C862.384 417.273 861.965 453.581 861.965 489.889C861.965 516.228 861.755 542.568 862.594 568.907C863.958 612.351 870.984 654.956 885.668 695.986C893.953 719.177 906.014 740.06 926.361 755.066C926.885 755.59 927.305 756.115 927.724 756.745C925.312 759.158 922.375 761.047 919.124 762.097C915.034 763.566 911.258 762.726 907.797 759.893C900.351 753.806 895.002 746.251 890.492 737.961C880.319 719.597 871.404 700.498 863.853 680.98C862.489 677.517 861.126 674.159 859.762 670.801C855.672 660.937 852.211 650.968 852.736 640.055C852.84 638.166 852.631 636.172 850.219 635.857C848.226 635.542 847.492 637.221 846.758 638.69C844.87 642.363 844.031 646.456 844.45 650.548C845.079 656.005 845.709 661.462 847.282 666.813C855.462 693.573 864.377 719.912 876.543 745.202C879.689 752.023 883.675 758.634 888.185 764.615C877.172 775.214 868.048 787.596 856.301 797.46C846.443 805.75 835.745 812.886 824.208 818.658C812.252 824.744 799.247 825.689 786.032 825.374C783.935 825.479 782.047 824.219 781.418 822.331C766.106 790.954 751.003 759.473 740.62 726.103ZM794.423 846.781C803.442 846.676 812.462 845.732 821.272 843.843C815.923 846.991 811.099 850.978 807.113 855.596C804.701 858.429 802.603 858.744 799.247 857.694C794.003 856.015 788.759 854.336 783.725 852.238C777.957 849.824 772.293 847.096 766.84 844.053C775.859 845.732 785.089 846.676 794.423 846.781ZM783.411 946.681C792.955 945.107 801.659 940.7 808.686 934.089C817.811 925.904 825.572 916.354 831.55 905.651C832.179 904.601 832.913 903.657 833.543 902.608C835.955 895.892 839.206 889.595 841.304 882.774C843.506 875.114 844.87 867.244 845.079 859.373V857.484C844.87 855.386 844.66 853.077 842.038 852.972C839.835 852.762 838.996 854.546 838.472 856.435C838.052 857.799 837.633 859.164 837.423 860.528C837.109 863.151 835.64 863.781 833.228 863.676C826.096 863.151 818.86 862.207 811.833 860.738C823.789 852.867 834.696 846.046 848.645 847.725C856.721 848.67 861.65 854.022 864.692 861.262C867.628 868.503 868.677 876.373 867.733 884.139C864.377 917.299 849.484 944.163 823.369 964.835C819.594 967.774 815.504 970.607 810.574 971.551C806.903 973.965 802.603 974.595 798.303 974.7C790.962 975.119 784.04 971.551 780.054 965.36C778.586 963.156 777.432 960.743 776.593 958.224C773.237 948.465 773.342 948.255 783.411 946.681ZM950.797 882.984C950.168 894.422 949.224 905.756 948.071 917.089C947.651 921.811 948.071 922.021 942.617 922.546C938.736 922.965 934.961 923.7 931.185 924.644C927.305 925.694 926.885 926.848 928.773 930.311C931.814 935.663 935.275 940.7 939.156 945.422C942.197 948.885 943.456 953.712 942.407 958.224C933.702 1004.71 918.704 1048.89 892.275 1088.56C883.255 1102.41 872.453 1115 860.287 1126.23C850.533 1135.04 839.835 1136.41 827.774 1130.22C827.879 1129.27 828.613 1128.96 829.348 1128.54C855.672 1111.12 874.97 1087.4 890.492 1060.54C905.7 1034.41 916.187 1006.5 920.802 976.483C921.956 968.823 922.9 961.058 922.48 953.292C922.375 950.984 922.69 947.311 920.068 947.101C916.922 946.891 917.446 950.774 917.236 952.873C915.034 971.132 911.678 989.076 905.595 1006.5C893.009 1042.8 874.446 1075.54 847.072 1102.83C839.101 1110.7 830.187 1117.62 820.643 1123.4C817.811 1125.18 815.608 1125.18 812.986 1123.08C809.525 1120.25 805.54 1118.04 802.708 1114.48C789.913 1103.14 781.313 1088.98 775.335 1073.24C766.84 1050.99 764.323 1028.32 771.035 1005.03C773.237 997.576 776.593 990.545 781.103 984.249C782.152 982.675 783.096 981.311 785.508 982.255C796.835 986.872 807.847 984.773 818.65 980.261C819.384 979.946 820.223 979.737 820.957 979.527C834.487 971.761 845.604 961.163 855.462 949.2C864.377 936.397 871.404 922.336 876.333 907.54C877.277 902.713 878.221 897.99 879.06 893.163C881.368 878.892 880.529 865.145 873.292 852.238C873.082 851.608 872.977 850.978 872.872 850.349C887.451 847.516 902.029 847.096 916.712 847.83C919.858 847.935 921.222 849.299 922.061 852.343C926.885 870.077 928.878 887.916 926.78 906.175C926.361 909.638 926.151 912.996 925.941 916.459C925.941 916.669 926.151 916.774 926.466 917.299C929.402 916.879 929.927 914.361 930.661 912.157C932.863 905.336 934.646 898.41 934.961 891.274C935.38 877.842 935.905 864.305 931.395 850.664C937.373 851.188 942.302 853.287 947.441 854.966C949.329 855.596 949.539 857.275 949.644 858.954C950.273 867.034 951.217 875.009 950.797 882.984Z" fill="#2C2729"/>
</g>
</svg>
