<svg width="1571" height="1871" viewBox="0 0 1571 1871" fill="none" xmlns="http://www.w3.org/2000/svg">
<mask id="mask0_1_3991" style="mask-type:luminance" maskUnits="userSpaceOnUse" x="0" y="0" width="1571" height="1871">
<path d="M1570.47 0H0V1870.84H1570.47V0Z" fill="white"/>
</mask>
<g mask="url(#mask0_1_3991)">
<path d="M967.99 519.326C934.729 519.326 892.723 507.489 852.775 486.903C816.084 468.033 784.709 443.845 764.649 418.799C743.903 393.067 737.559 369.222 746.475 351.724C754.533 335.942 774.593 327.365 802.882 327.365C836.144 327.365 878.15 339.201 918.098 359.787C954.789 378.657 986.164 402.845 1006.22 427.891C1026.97 453.623 1033.31 477.468 1024.4 494.966C1016.51 510.577 996.451 519.326 967.99 519.326Z" fill="#ED4F30"/>
<path d="M638.803 1380.66C617.372 1380.66 595.94 1379.29 574.68 1376.55C545.705 1372.94 517.072 1366.42 489.297 1357.16C423.288 1334.69 362.766 1298.49 309.616 1249.94C309.273 1249.6 308.93 1249.43 308.587 1249.09C307.044 1247.89 304.987 1246.17 304.301 1243.25C303.958 1242.22 304.129 1241.19 304.815 1240.51C305.33 1239.65 306.187 1239.14 307.216 1238.96C309.102 1238.79 310.987 1238.62 312.873 1238.62C320.76 1238.62 328.647 1240.68 335.677 1244.45C339.106 1246.17 342.878 1247.54 346.821 1248.57C354.536 1250.8 362.252 1252.69 369.452 1254.4C385.055 1258.18 401 1261.09 416.945 1262.98C419.345 1263.32 421.745 1263.5 424.146 1263.67C428.775 1264.01 433.747 1264.53 438.548 1265.38C444.891 1266.41 451.406 1266.93 457.922 1266.93H459.293C472.324 1267.1 485.525 1267.1 498.384 1267.27H504.728C505.585 1267.44 506.614 1267.44 507.471 1267.44C508.843 1267.44 510.214 1267.27 511.586 1267.1C517.072 1265.55 522.73 1265.38 528.045 1265.21C532.846 1265.04 537.304 1264.87 541.59 1264.01C546.734 1262.81 552.22 1262.3 557.364 1261.61C562.336 1261.09 567.479 1260.41 572.451 1259.38L575.537 1258.69C588.225 1255.95 601.255 1253.2 613.943 1249.6C641.546 1242.05 668.807 1231.93 694.696 1219.75C699.326 1217.52 704.126 1214.95 708.584 1212.55L714.242 1209.46L717.157 1207.91C723.5 1204.48 730.015 1200.88 736.188 1197.11C750.418 1188.36 764.306 1178.92 777.508 1168.8C791.395 1158.17 803.225 1148.22 813.684 1138.61C822.942 1130.2 831.343 1120.6 839.402 1111.33C841.459 1108.93 843.516 1106.53 845.745 1104.13C861.519 1086.29 875.064 1066.05 886.551 1048.55C890.666 1042.37 894.095 1035.51 897.524 1029.16C898.552 1027.28 899.41 1025.39 900.438 1023.67L900.781 1023.16C905.239 1014.75 909.868 1006 913.812 997.255C921.356 980.444 927.528 963.117 932.5 945.276C936.786 930.009 941.587 912.682 944.33 895.356C945.016 890.896 945.702 886.093 946.216 881.633C946.387 879.917 946.73 878.202 946.902 876.486C947.245 873.913 947.588 871.511 948.102 869.11C949.131 863.277 949.988 857.788 950.159 852.298C950.159 847.666 950.331 843.034 950.502 838.574C951.017 813.185 951.531 786.767 947.588 761.035C945.359 746.282 943.13 733.073 940.387 719.864C936.1 699.793 930.1 679.722 922.727 660.508C918.784 649.701 914.326 639.065 909.354 628.944C908.325 626.885 907.982 626.885 906.954 626.885H906.096C903.525 627.228 900.953 627.4 898.381 627.4C893.409 627.4 888.265 626.714 883.465 625.341C879.35 624.312 874.892 623.626 870.606 623.111C868.034 622.768 865.462 622.425 862.891 622.253C858.261 621.739 853.632 621.396 848.831 620.367C820.885 614.534 798.596 607.329 778.536 597.722C772.535 594.806 766.706 591.718 761.048 588.802C758.305 587.258 755.39 585.886 752.647 584.342C746.132 581.082 739.96 577.137 733.959 573.02C720.586 563.241 705.326 551.748 691.782 537.852C674.122 519.668 662.292 502.685 654.234 484.158C647.719 469.234 644.632 456.539 644.118 444.188C643.089 428.405 646.861 412.623 654.748 398.899C646.004 398.899 637.431 398.728 628.345 398.728H620.972C617.886 398.728 615.486 398.385 613.257 397.87C611.714 397.527 610.685 396.155 610.685 394.611C610.685 393.067 611.714 391.694 613.085 391.351C614.8 390.837 616.686 390.494 618.4 390.322H618.743L624.573 390.15C633.66 389.979 642.918 389.807 652.176 389.807H655.091C674.808 390.15 694.525 391.694 714.07 394.439C716.128 394.782 718.7 395.297 720.071 397.527C721.443 399.757 720.757 402.33 719.9 404.217C719.385 405.418 718.7 406.791 718.185 407.991C717.157 410.05 716.128 412.108 715.785 414.167C713.899 426.347 715.099 436.125 719.557 444.874C721.957 449.677 724.529 454.309 727.272 458.941C738.759 476.782 753.161 492.564 769.964 505.773C791.567 522.928 815.056 538.024 839.745 550.547C870.606 565.986 899.238 575.421 927.185 579.538C935.586 580.739 942.958 581.425 949.988 581.425C958.561 581.425 966.276 580.568 973.648 578.681C989.422 574.735 998.509 567.187 1002.28 554.836C1002.8 553.292 1004 549.518 1008.11 549.175H1008.45C1008.97 549.175 1009.48 549.346 1010 549.518C1012.74 550.89 1014.63 553.12 1016 555.007C1016.34 555.522 1016.68 556.036 1017.2 556.379C1088.52 637.864 1131.56 742.336 1138.24 850.583C1140.47 887.465 1138.76 924.862 1133.1 961.402C1130.87 975.64 1127.44 989.879 1124.18 1003.6C1123.15 1007.72 1122.13 1011.84 1121.27 1015.95C1120.58 1018.7 1119.9 1021.27 1119.21 1023.5C1111.67 1048.72 1101.89 1073.59 1090.58 1097.44C1061.77 1157.65 1021.83 1210.66 971.591 1254.58C879.178 1336.06 761.22 1380.66 638.803 1380.66Z" fill="#ED4F30"/>
<path d="M507.3 1274.13C506.271 1274.13 505.071 1274.13 504.042 1273.96H498.727C485.697 1273.96 472.324 1273.79 459.122 1273.62H457.751C450.892 1273.62 444.034 1273.1 437.176 1272.07C432.719 1271.22 427.918 1270.87 423.46 1270.53C421.06 1270.36 418.488 1270.19 416.088 1269.84C399.8 1267.96 383.512 1265.04 367.738 1261.27C360.537 1259.55 352.822 1257.66 344.935 1255.43C340.649 1254.4 336.534 1252.86 332.591 1250.8C326.59 1247.54 319.732 1245.83 313.045 1245.83C311.331 1245.83 309.788 1246 308.073 1246.17H307.73C307.044 1246.17 306.53 1246 305.844 1245.65C304.987 1245.14 303.958 1244.45 303.101 1243.6L302.93 1243.42C272.068 1214.09 244.979 1180.98 222.347 1144.96C208.631 1123.34 196.801 1100.53 186.857 1077.02C176.227 1052.32 167.483 1026.42 160.625 1000.34C159.425 995.711 158.567 991.079 157.882 986.619C157.539 984.217 157.024 981.987 156.51 979.585C152.566 959.686 149.823 939.443 148.452 919.201C146.394 889.695 147.08 859.674 150.338 830.34C153.938 797.403 160.796 764.637 171.083 733.072C201.602 639.579 255.78 561.011 332.076 499.426C403.743 441.957 489.983 405.418 581.024 394.096L584.796 393.581C592.854 392.552 601.084 391.522 609.314 391.522C610.685 391.522 612.229 391.522 613.6 391.694C613.772 391.694 614.115 391.694 614.286 391.866C615.829 392.38 617.715 392.552 620.115 392.552H626.973C635.546 392.723 646.69 392.723 658.006 392.723C659.035 392.723 660.064 393.238 660.749 394.096C663.664 397.698 661.264 400.958 660.578 401.987C660.406 402.158 660.406 402.33 660.235 402.502C652.691 415.196 649.262 429.777 650.119 444.702C650.634 456.367 653.72 468.204 659.721 482.442C667.265 500.112 678.752 516.409 695.897 534.078C707.727 546.258 720.929 556.551 737.045 568.387C742.703 572.505 748.704 576.107 754.876 579.195C757.791 580.739 760.534 582.111 763.449 583.655C769.107 586.571 774.936 589.659 780.766 592.576C800.311 602.011 822.085 609.044 849.346 614.705C853.633 615.563 857.919 616.077 862.548 616.421C865.12 616.592 867.692 616.935 870.263 617.278C874.893 617.793 879.522 618.479 884.151 619.68C888.437 620.881 892.895 621.395 897.353 621.395C899.582 621.395 901.982 621.224 904.211 620.881C904.897 620.881 905.411 620.709 905.925 620.709C910.726 620.709 912.783 623.454 914.326 626.542C919.47 637.006 924.099 647.985 928.043 658.793C935.586 678.349 941.587 698.591 946.045 719.177C948.96 732.558 951.017 745.938 953.417 760.863C957.532 787.11 957.018 813.7 956.504 839.603C956.332 844.235 956.332 848.695 956.161 853.327C955.989 859.331 955.132 865.335 954.103 871.168C953.76 873.569 953.246 875.971 952.903 878.373C952.732 880.088 952.389 881.804 952.217 883.519C951.703 887.979 951.017 892.783 950.331 897.414C947.588 915.255 942.616 932.753 938.33 948.192C933.358 966.205 926.842 984.046 919.299 1001.03C915.355 1010.12 910.555 1018.87 906.097 1027.45L905.925 1027.96C904.897 1029.85 904.039 1031.56 903.011 1033.45C899.582 1040.14 895.981 1047 891.695 1053.52C880.208 1071.19 866.491 1091.61 850.375 1109.79C848.318 1112.19 846.089 1114.59 844.031 1116.99C835.802 1126.43 827.229 1136.04 817.799 1144.79C807.169 1154.56 795.167 1164.51 781.108 1175.32C767.735 1185.61 753.505 1195.22 739.103 1203.97C732.759 1207.91 726.073 1211.52 719.729 1214.95L716.985 1216.49L711.328 1219.58C706.698 1221.98 701.898 1224.55 697.097 1226.96C670.865 1239.31 643.261 1249.43 615.315 1257.15C602.456 1260.75 589.254 1263.5 576.395 1266.24L573.309 1266.93C568.165 1268.13 562.679 1268.64 557.535 1269.33C552.22 1270.01 547.248 1270.53 542.448 1271.56C537.476 1272.59 532.504 1272.76 527.703 1272.93C522.388 1273.1 517.416 1273.27 512.615 1274.47H512.272C510.901 1273.96 509.186 1274.13 507.3 1274.13Z" fill="#FF7A61"/>
<path d="M649.606 1771.1C646.52 1771.1 644.634 1769.39 642.919 1768.19L642.576 1767.84C642.062 1767.5 641.719 1766.99 641.548 1766.3C636.747 1752.92 631.946 1739.2 622.517 1727.87C621.316 1726.5 621.488 1724.44 622.859 1723.24C623.717 1722.38 624.574 1721.53 625.26 1720.67C625.774 1719.98 626.288 1719.47 626.974 1718.95C658.007 1687.22 687.325 1652.74 713.215 1622.37C715.443 1619.8 718.187 1616.88 722.644 1616.88C723.845 1616.88 725.216 1617.05 726.588 1617.57C729.16 1618.25 731.731 1618.6 734.303 1618.6H734.474C739.275 1618.94 744.247 1619.28 749.219 1619.28C758.649 1619.28 768.251 1618.6 777.509 1617.05C815.4 1610.36 844.375 1595.44 866.321 1571.42C866.664 1569.88 867.521 1568.51 868.721 1567.48C869.235 1565.93 870.264 1564.56 871.979 1564.05C872.493 1563.87 873.008 1563.7 873.522 1563.7C874.208 1563.7 874.722 1563.87 875.236 1564.22C878.323 1566.28 879.523 1570.22 877.98 1573.48C874.379 1582.74 869.236 1591.32 862.549 1598.87C850.89 1611.74 836.317 1621.86 820.2 1628.2C811.113 1631.98 800.826 1636.1 790.025 1637.98C782.481 1639.53 774.423 1640.73 766.536 1641.24C760.878 1641.58 755.22 1642.27 749.734 1643.47C745.962 1644.16 745.447 1645.36 745.276 1646.39C745.104 1647.59 744.59 1649.48 744.59 1650.16C744.933 1650.51 745.962 1651.02 746.476 1651.36C757.449 1657.88 769.279 1661.14 781.624 1661.14C788.139 1661.14 794.997 1660.28 801.855 1658.4C805.627 1657.37 809.399 1656.17 813.171 1655.14C814.885 1654.62 816.771 1654.11 818.486 1653.59C818.829 1653.42 819.172 1653.42 819.515 1653.42C819.857 1653.42 820.029 1653.42 820.372 1653.59C820.886 1653.76 821.401 1653.76 821.743 1653.76C823.458 1653.76 825.172 1653.25 827.058 1652.56C828.087 1652.22 829.116 1651.88 830.144 1651.71C834.259 1650.68 838.374 1650.16 842.661 1650.16C850.719 1650.16 858.777 1652.05 867.521 1655.82C876.265 1659.77 884.152 1665.94 892.039 1675.21C897.525 1681.9 901.126 1689.96 902.84 1698.37C903.354 1700.25 903.012 1702.31 901.811 1703.86C900.611 1705.57 898.725 1706.6 896.325 1706.94C885.181 1708.49 873.865 1710.03 862.892 1712.09C846.09 1715.35 828.087 1719.3 807.856 1724.1C787.624 1729.07 761.049 1735.59 734.474 1743.14C717.844 1747.77 702.756 1752.75 688.525 1758.07C681.839 1760.64 674.981 1762.87 668.294 1765.1C663.151 1766.81 657.664 1768.53 652.521 1770.42C651.663 1770.93 650.635 1771.1 649.606 1771.1ZM484.669 1811.42C473.182 1811.42 462.038 1809.19 451.408 1807.13H451.236C445.578 1805.58 440.263 1803.53 435.291 1800.61C432.377 1799.07 430.319 1796.32 429.633 1793.06V1792.2C429.633 1790.66 429.805 1789.29 430.148 1787.74V1787.57C434.263 1774.02 439.578 1760.64 445.75 1747.94C451.579 1736.11 458.952 1725.13 468.039 1715.35C482.441 1700.43 499.243 1691.51 518.274 1689.1C521.703 1688.59 525.303 1688.42 528.732 1688.42C541.248 1688.42 554.107 1691.16 567.652 1696.99L569.709 1697.85C577.253 1701.11 585.14 1704.37 591.141 1711.06C591.655 1711.58 591.998 1712.43 591.998 1713.12C592.855 1728.04 589.598 1742.8 581.711 1758.24C573.653 1774.02 560.965 1786.71 543.992 1795.81C529.418 1803.35 513.988 1808.33 497.7 1810.56C493.585 1811.07 489.299 1811.42 484.669 1811.42ZM290.072 1768.02C277.727 1768.02 265.897 1764.76 255.781 1761.5C248.58 1759.27 247.895 1754.29 248.066 1751.2C248.066 1749.83 247.895 1748.46 247.723 1747.09V1746.23C248.752 1734.56 253.381 1723.58 262.468 1711.4C274.47 1695.11 290.586 1683.27 311.675 1674.87C326.42 1669.03 342.193 1666.12 358.652 1666.12C366.368 1666.12 374.597 1666.8 382.656 1668C392.6 1669.55 404.087 1671.95 413.003 1679.84C413.345 1680.18 413.688 1680.53 413.86 1680.87C415.574 1684.64 415.403 1688.93 413.174 1692.36C411.288 1695.11 409.574 1697.85 407.859 1700.43L404.259 1706.09C392.943 1723.41 376.483 1737.31 354.366 1748.8L353.337 1749.32C343.565 1754.29 333.62 1759.44 322.476 1762.53C313.046 1765.27 303.102 1766.99 293.158 1767.67C292.129 1768.02 291.1 1768.02 290.072 1768.02ZM610.172 1705.23C609.486 1705.23 608.972 1705.06 608.286 1704.71L595.942 1696.99C573.138 1682.58 551.193 1675.55 528.904 1675.55C526.675 1675.55 524.446 1675.55 522.389 1675.72H521.017C518.274 1675.72 516.388 1674.18 515.531 1671.43C515.188 1670.23 515.531 1669.03 516.216 1668.17C516.902 1667.32 517.76 1666.46 518.617 1665.6C519.817 1664.23 521.189 1662.69 522.389 1661.31L529.933 1653.25C549.135 1632.84 569.024 1611.74 587.026 1589.78C596.284 1578.28 609.486 1571.08 624.231 1569.36H626.117C635.89 1569.36 641.205 1575.71 644.634 1581.03C652.178 1592.69 654.749 1606.42 652.178 1620.14C652.006 1621.51 651.663 1623.06 651.492 1624.6C650.292 1631.98 649.092 1639.53 646.348 1646.73C641.205 1660.11 634.69 1675.55 624.745 1689.28C622.345 1692.71 619.945 1696.48 617.716 1700.08L617.544 1700.43C616.001 1702.83 613.601 1704.71 610.686 1705.23H610.172Z" fill="#9AC5F0"/>
<path d="M417.117 1673.32H415.574C414.545 1673.15 413.345 1672.81 412.316 1672.29H412.145C393.628 1664.06 374.768 1659.77 356.251 1659.77C347.679 1659.77 338.935 1660.63 330.362 1662.34L329.848 1662.51C329.162 1662.69 328.133 1662.86 327.105 1662.86C325.562 1662.86 324.19 1662.34 322.99 1661.48C322.304 1660.8 321.79 1659.94 321.618 1658.91C321.447 1655.48 323.676 1653.59 324.876 1652.39L325.562 1651.71L329.162 1648.1C330.877 1646.39 332.591 1644.67 334.134 1642.96L346.479 1628.89C366.367 1606.08 386.77 1582.4 406.83 1559.07C413.173 1551.18 422.26 1545.69 432.205 1543.46H433.233C438.377 1544.15 442.149 1547.58 443.177 1553.24C443.52 1554.78 443.863 1556.15 444.035 1557.7C445.063 1562.16 446.092 1566.96 445.921 1571.94V1573.48C445.749 1577.77 445.578 1581.89 446.949 1585.83C447.635 1588.06 447.635 1590.46 446.949 1592.69C445.749 1596.47 445.406 1600.59 445.749 1604.7V1604.87C446.092 1617.4 443.349 1630.26 437.348 1644.33L434.776 1650.51C432.719 1655.48 430.49 1660.46 428.433 1665.43C426.89 1670.06 422.26 1673.32 417.117 1673.32Z" fill="#9AC5F0"/>
<path d="M905.583 563.241C905.24 563.241 904.897 563.241 904.554 563.07C904.211 563.07 903.868 562.898 903.354 562.727C901.811 562.212 900.096 561.698 898.553 561.354C894.267 560.154 889.98 558.781 885.694 557.237L873.864 552.606C869.406 550.719 864.949 548.832 860.319 547.288C850.375 543.857 841.117 539.053 832.201 534.25C829.115 532.706 826.2 530.991 823.114 529.618C817.799 527.045 817.799 523.957 819.514 519.154C821.057 514.694 822.771 510.233 824.314 505.773C826.372 500.284 828.258 494.794 830.144 489.305C831.172 486.388 832.201 483.472 833.058 480.727C833.744 478.84 834.43 476.782 835.116 474.895C835.116 474.723 835.116 474.723 835.287 474.552C835.802 473.522 836.316 472.665 837.002 471.807C837.516 471.121 838.374 470.606 839.231 470.606H840.259C843.003 470.606 844.717 471.807 846.089 472.665C846.432 472.836 846.603 473.008 846.946 473.179C870.264 486.903 894.953 497.882 920.842 505.773C921.185 505.945 921.356 505.945 921.699 505.945L923.756 506.459C925.3 506.974 926.5 507.832 927.185 509.204C928.043 510.577 928.214 512.292 927.871 513.836C927.871 514.179 927.7 514.351 927.528 514.694C925.814 519.325 923.928 523.957 922.213 528.417C918.441 538.196 914.498 548.145 911.412 558.267C911.069 561.183 908.497 563.241 905.583 563.241ZM762.078 484.33C761.735 484.33 761.392 484.33 761.22 484.158C758.306 483.301 756.42 481.585 754.877 480.041C754.191 479.355 753.676 478.84 753.162 478.497C748.704 475.238 747.504 470.949 749.561 465.288C753.676 454.652 757.791 443.673 761.735 433.209C763.278 428.92 764.821 424.803 766.535 420.514C767.221 418.113 769.45 416.569 771.85 416.569H772.193C773.05 416.569 773.736 416.912 774.422 417.598L776.822 420C778.537 421.715 780.423 423.602 782.309 425.146C786.252 428.406 787.281 432.523 785.052 437.498C780.766 447.619 776.479 457.74 772.193 467.69L767.05 479.87C767.05 480.041 766.878 480.213 766.878 480.213C766.192 481.242 765.506 482.271 764.478 483.129C763.792 483.987 762.935 484.33 762.078 484.33Z" fill="#ED4F30"/>
<path d="M650.634 1812.45C649.777 1812.45 648.919 1812.27 648.234 1811.93C647.719 1811.76 647.205 1811.42 646.69 1810.9C645.319 1809.19 644.805 1806.96 645.147 1804.9C645.662 1796.66 644.633 1788.77 643.604 1780.37L643.261 1777.11C643.09 1775.91 642.747 1774.71 642.404 1773.5C641.718 1770.93 641.033 1768.19 641.547 1764.93C641.718 1763.73 642.576 1762.7 643.776 1762.18C644.119 1762.01 644.633 1762.01 644.976 1762.01C645.833 1762.01 646.519 1762.35 647.205 1762.87L647.548 1763.21C648.748 1764.24 649.262 1764.58 649.777 1764.58C649.948 1764.58 650.291 1764.58 650.634 1764.41C655.949 1762.53 661.435 1760.64 666.75 1758.92C673.266 1756.69 680.124 1754.46 686.639 1752.06C701.212 1746.57 716.471 1741.6 733.274 1736.97C759.849 1729.42 786.595 1722.73 806.998 1717.92C827.401 1712.95 845.575 1709 862.377 1705.92C873.521 1703.86 884.665 1702.31 896.153 1700.77C896.667 1700.77 896.839 1700.6 896.839 1700.6V1700.43C895.295 1693.05 892.038 1686.02 887.409 1680.18C880.036 1671.61 873.35 1666.12 865.291 1662.69C857.405 1659.25 850.204 1657.54 843.174 1657.54C839.574 1657.54 835.973 1658.05 832.373 1658.91C831.516 1659.08 830.658 1659.43 829.801 1659.77C827.572 1660.46 825.172 1661.31 822.428 1661.31C821.4 1661.31 820.371 1661.14 819.342 1660.97C818.142 1660.63 817.285 1659.94 816.942 1658.74C816.599 1657.71 816.771 1656.34 817.456 1655.48C819.342 1653.25 821.743 1652.39 823.629 1651.71C824.314 1651.54 825 1651.19 825.515 1651.02L827.058 1650.33C843.86 1642.79 855.519 1634.72 864.434 1624.43L864.091 1624.6C848.661 1636.78 830.144 1645.36 805.798 1651.36C796.025 1653.77 787.109 1654.97 778.365 1654.97C768.936 1654.97 759.677 1653.59 750.933 1650.68C749.39 1650.16 747.847 1649.82 746.304 1649.48C745.961 1649.48 745.447 1649.3 745.104 1649.3C744.418 1649.3 743.904 1649.3 743.218 1649.48C742.875 1649.48 742.704 1649.65 742.361 1649.65C741.503 1649.65 740.646 1649.3 739.96 1648.79C739.103 1647.93 738.76 1646.9 738.932 1645.7C739.446 1642.61 741.675 1638.5 748.704 1637.3C754.362 1636.1 760.363 1635.24 766.364 1635.07C773.908 1634.55 781.452 1633.52 788.824 1631.98C798.768 1630.26 808.198 1626.49 817.456 1622.72L817.799 1622.54C832.887 1616.54 846.603 1606.93 857.576 1594.92C863.577 1588.06 868.378 1580.17 871.635 1571.59V1571.42C871.807 1571.08 871.635 1570.74 871.464 1570.56C870.606 1570.05 869.921 1569.02 869.921 1567.82C869.749 1565.59 870.778 1564.05 871.464 1562.85C871.635 1562.5 871.807 1562.33 871.978 1561.99C874.55 1556.5 877.122 1550.84 879.522 1545.35C880.379 1543.12 880.379 1540.72 879.522 1538.66C879.351 1538.49 879.179 1538.31 879.008 1538.31H878.836C878.836 1538.31 878.665 1538.31 878.665 1538.49C878.15 1539 877.636 1539.86 877.122 1540.72C876.093 1542.6 874.721 1545 871.978 1546.38C871.464 1546.55 870.949 1546.72 870.435 1546.72C869.235 1546.72 868.035 1546.03 867.52 1545C862.205 1535.57 857.062 1519.79 857.062 1512.58C857.062 1510.87 858.433 1509.32 860.148 1509.15C860.834 1509.15 861.348 1508.98 862.034 1508.98C862.72 1508.98 863.234 1508.98 863.92 1509.15C864.091 1509.15 864.263 1509.15 864.434 1509.32C882.094 1514.13 896.839 1528.71 903.182 1547.23C908.84 1564.05 906.44 1581.2 896.324 1594.41C896.153 1594.75 895.981 1594.92 895.638 1595.27C895.295 1595.61 894.953 1596.13 894.781 1596.47C894.781 1596.64 894.61 1596.64 894.61 1596.81C894.267 1597.15 894.267 1597.67 894.438 1598.18H894.953C895.296 1598.18 895.81 1598.18 896.667 1597.84C897.524 1597.5 898.382 1597.15 899.239 1596.64C899.753 1596.47 900.268 1596.13 900.611 1595.95C901.125 1595.78 901.639 1595.61 901.982 1595.61C903.182 1595.61 904.382 1596.3 904.897 1597.33C906.611 1600.24 907.64 1603.33 908.326 1606.59C913.812 1629.41 920.67 1652.05 928.729 1674.18C930.786 1679.67 933.015 1685.16 935.244 1690.65C936.272 1693.22 937.301 1695.79 938.33 1698.2L938.501 1698.71C940.044 1702.48 941.587 1706.6 940.559 1711.4C937.987 1721.7 932.672 1729.25 924.957 1733.53C918.613 1737.31 911.755 1740.22 904.554 1742.28C894.095 1745.03 883.637 1747.94 873.35 1750.86C859.462 1754.63 845.232 1758.58 831.001 1762.35C762.763 1780.2 706.87 1795.98 655.435 1811.93C655.092 1812.1 654.92 1812.1 654.577 1812.27C653.377 1812.1 652.177 1812.45 650.634 1812.45ZM356.937 1797.69C340.306 1797.69 323.676 1795.98 307.388 1792.72C288.528 1788.77 273.612 1783.8 260.41 1776.94C255.952 1774.88 251.837 1771.62 248.751 1767.84C248.751 1767.84 248.408 1767.33 248.237 1767.16C247.38 1765.96 246.008 1764.41 246.179 1762.35V1758.41C246.008 1754.29 245.836 1749.66 248.237 1745.03C248.923 1744 249.951 1743.31 251.323 1743.31H251.837C253.209 1743.48 254.409 1744.69 254.58 1746.06C254.923 1747.77 255.095 1749.49 255.095 1751.38V1751.72C254.923 1753.09 255.095 1754.29 258.01 1754.98C268.125 1758.07 278.927 1761.15 290.071 1761.15H293.157C302.587 1760.64 312.017 1758.92 320.932 1756.35C331.734 1753.43 341.849 1748.12 351.451 1743.14C372.539 1732.16 388.141 1718.95 398.771 1702.66C400.143 1700.43 401.686 1698.2 403.058 1695.97C404.601 1693.56 406.144 1691.16 407.687 1688.93C408.544 1687.56 408.716 1685.67 408.03 1684.13C407.344 1682.76 407.687 1681.21 408.716 1680.18C409.401 1679.5 410.259 1679.33 411.116 1679.33C411.63 1679.33 412.316 1679.5 412.83 1679.67C425.861 1686.7 436.834 1697.17 444.378 1709.86C445.235 1711.4 446.092 1713.12 446.606 1714.66C449.178 1720.5 448.664 1727.02 445.235 1732.33C437.691 1744.86 431.862 1758.58 428.261 1772.82C426.718 1779.17 422.26 1784.48 416.259 1787.06C414.202 1788.09 411.973 1788.94 409.916 1789.8L409.058 1790.14C397.228 1794.95 385.055 1796.32 374.597 1797.01C368.596 1797.35 362.767 1797.69 356.937 1797.69ZM554.449 1835.6C532.847 1835.6 511.244 1833.37 490.155 1829.09C467.866 1824.63 451.407 1818.96 436.662 1811.07C435.462 1810.39 434.433 1809.87 433.576 1809.36C429.633 1807.3 426.718 1805.93 426.204 1802.5C425.861 1799.75 427.061 1797.01 429.804 1790.83C430.318 1789.63 431.519 1788.77 432.89 1788.77H433.233C434.776 1788.94 435.976 1789.97 436.148 1791.52C436.319 1792.72 437.177 1793.75 438.205 1794.26C438.205 1794.26 438.377 1794.26 438.377 1794.43C442.834 1797.01 447.635 1799.07 452.779 1800.27C462.894 1802.32 473.696 1804.38 484.497 1804.38C488.784 1804.38 492.727 1804.04 496.67 1803.53C512.101 1801.3 526.846 1796.66 540.733 1789.46C556.678 1780.88 567.994 1769.56 575.538 1754.98C582.739 1740.57 585.825 1727.02 584.968 1713.46C584.968 1712.09 585.482 1710.89 586.682 1710.2C587.197 1709.86 587.883 1709.69 588.397 1709.69C589.083 1709.69 589.769 1709.86 590.283 1710.2C601.942 1718.1 611.714 1728.73 618.572 1741.08C631.431 1763.38 635.718 1787.74 638.975 1810.9C639.49 1814.68 637.604 1818.28 634.175 1819.99C628.345 1823.43 622.173 1826 615.658 1827.89C600.913 1832 585.825 1834.4 570.566 1835.09C565.422 1835.43 559.936 1835.6 554.449 1835.6ZM428.604 1681.04C427.918 1681.04 427.404 1680.87 426.718 1680.53L414.373 1672.64C413.002 1671.78 412.487 1670.06 413.002 1668.69C413.516 1667.32 414.716 1666.46 416.259 1666.46H417.117C419.346 1666.46 421.232 1665.09 421.917 1662.86C421.917 1662.86 421.917 1662.69 422.089 1662.69C424.146 1657.71 426.375 1652.74 428.432 1647.76L431.176 1641.59C436.834 1628.03 439.405 1616.54 439.063 1605.05C438.72 1600.24 439.234 1595.27 440.606 1590.64C440.948 1589.78 440.948 1588.75 440.606 1587.89C438.891 1582.92 439.063 1577.94 439.234 1573.14V1571.59C439.405 1567.48 438.548 1563.36 437.519 1559.07L436.491 1554.44C435.805 1551.01 434.09 1550.32 432.547 1550.15C431.176 1549.98 429.976 1549.12 429.633 1547.75C429.29 1546.38 429.633 1545 430.661 1544.15L430.833 1543.98C431.347 1543.46 432.033 1542.6 433.405 1542.26C442.834 1539.17 452.779 1537.46 462.894 1537.46C469.067 1537.46 475.239 1538.14 481.411 1539.34C487.755 1540.72 493.927 1542.77 499.756 1545.86C511.929 1551.87 521.359 1562.16 526.331 1574.68C528.046 1578.46 527.017 1582.92 523.76 1585.32C512.444 1596.47 501.128 1607.79 491.698 1617.23C476.268 1632.84 460.665 1648.62 445.406 1664.23C442.149 1667.66 438.891 1671.09 435.633 1674.87L431.004 1680.01C430.49 1680.7 429.461 1681.04 428.604 1681.04ZM617.029 1710.2C616.686 1710.2 616.172 1710.2 615.829 1710.03C612.572 1708.83 609.657 1706.77 607.428 1704.03C606.742 1703.17 606.571 1701.8 606.914 1700.77C607.257 1699.74 608.285 1698.88 609.486 1698.54C610.514 1698.37 611.2 1697.85 611.714 1697L612.229 1696.14C614.458 1692.53 616.686 1688.93 619.258 1685.5C628.688 1672.29 635.032 1657.37 640.004 1644.5C642.576 1637.81 643.604 1630.95 644.805 1623.74C644.976 1622.2 645.319 1620.66 645.49 1619.11C647.891 1607.28 645.49 1595.1 638.975 1584.97C635.203 1578.8 631.431 1576.4 626.288 1576.4H624.916C623.545 1576.4 622.173 1575.54 621.659 1574.17C621.144 1572.62 621.659 1571.08 622.859 1570.22C624.916 1568.85 627.316 1567.99 629.888 1567.99H630.231C632.803 1567.82 635.375 1567.65 637.946 1567.65C660.064 1567.65 679.952 1576.23 696.926 1593.38C701.727 1598.01 705.67 1603.5 708.928 1609.33C710.642 1611.91 710.299 1615.51 708.07 1617.74C707.556 1618.25 706.87 1618.94 706.356 1619.63L705.327 1620.66L699.155 1626.83C674.123 1652.22 648.234 1678.47 624.23 1705.57C622.687 1707.8 620.63 1709.35 618.23 1710.2H617.029ZM455.35 1713.29H454.665C453.464 1713.12 452.607 1712.26 452.093 1711.23C448.321 1701.97 442.32 1694.59 436.491 1688.25C435.291 1686.87 435.291 1684.82 436.662 1683.44C438.548 1681.56 440.434 1679.84 442.32 1678.12C445.921 1674.69 449.35 1671.61 452.607 1668.18C476.096 1644.16 499.928 1619.8 523.588 1595.44C525.303 1593.55 527.189 1591.84 529.075 1589.95C530.275 1588.75 531.818 1588.06 533.532 1588.06C534.733 1588.06 535.933 1588.41 536.961 1589.09C542.448 1592.52 548.792 1594.58 555.478 1594.75C557.707 1594.92 559.422 1596.13 560.279 1597.84C561.136 1599.73 560.622 1601.96 559.079 1603.84C554.107 1609.51 549.134 1615.17 544.334 1620.66C539.705 1625.8 535.247 1631.12 530.789 1636.27C519.988 1648.96 508.672 1662.17 495.813 1673.66C486.898 1681.73 478.668 1690.3 469.924 1699.57C465.98 1703.69 462.037 1707.97 457.751 1712.26C457.065 1712.95 456.208 1713.29 455.35 1713.29Z" fill="#5B8FCB"/>
<path d="M228.005 1289.23C224.919 1289.23 222.347 1287 222.176 1284.08C221.833 1279.79 221.833 1275.5 221.833 1271.39V1271.22C221.833 1270.36 222.176 1269.5 222.69 1268.64C223.719 1267.1 225.262 1266.24 227.148 1266.24C228.177 1266.24 229.034 1266.58 229.891 1267.1C235.892 1270.53 240.35 1275.16 244.979 1281.17C245.836 1282.19 246.008 1283.74 245.322 1284.94C244.808 1286.14 243.607 1286.83 242.236 1286.83H241.036C238.121 1286.83 235.892 1287.51 233.492 1288.2C231.949 1288.71 230.406 1289.06 228.691 1289.4C228.52 1289.23 228.348 1289.23 228.005 1289.23ZM1085.26 1590.64H1080.46C1075.66 1590.64 1074.29 1587.55 1073.95 1584.97C1073.78 1583.6 1074.46 1582.23 1075.66 1581.54C1078.41 1579.83 1080.81 1577.6 1083.38 1575.02C1084.75 1573.65 1086.29 1572.28 1087.84 1570.91C1088.18 1569.54 1089.21 1568.33 1090.41 1567.65C1090.92 1566.62 1091.61 1565.42 1092.29 1564.39C1105.32 1543.46 1108.41 1520.99 1101.55 1496.11C1101.04 1494.23 1100.35 1492.68 1099.49 1491.14H1099.15V1503.32C1099.15 1507.44 1099.32 1511.55 1098.98 1515.84C1097.44 1534.2 1092.12 1548.09 1082.35 1559.24C1071.89 1571.25 1059.2 1577.43 1044.46 1577.43C1042.92 1577.43 1041.37 1577.43 1039.66 1577.26C1015.48 1575.2 991.651 1556.5 983.079 1533C982.736 1531.97 982.907 1530.77 983.422 1529.91C985.136 1527.33 987.708 1526.99 989.251 1526.65C989.422 1526.65 989.765 1526.65 989.937 1526.48C995.937 1525.28 1001.6 1522.36 1006.05 1518.07C1014.8 1510.01 1020.11 1499.2 1020.97 1487.36C1021.48 1481.7 1020.63 1476.21 1018.4 1471.24C1017.88 1470.38 1017.37 1469.35 1016.51 1468.67H1016.17C1016.17 1468.67 1015.83 1468.67 1015.83 1468.84C1015.48 1469.52 1015.31 1470.38 1015.31 1471.24V1471.41C1015.31 1472.27 1015.48 1472.95 1015.48 1473.81C1015.83 1476.39 1016.17 1479.47 1014.8 1482.73C1013.77 1496.28 1006.4 1506.41 993.023 1512.41C989.937 1513.78 986.851 1514.47 984.107 1514.47C977.078 1514.47 971.42 1510.01 968.334 1502.12C963.362 1489.08 959.247 1475.7 956.161 1462.15C953.417 1451 953.589 1439.16 956.675 1428.18C958.904 1419.95 961.476 1411.88 964.047 1403.99L965.933 1397.82L966.105 1397.47C966.448 1396.1 967.477 1392.33 972.277 1392.16H972.449C973.649 1392.16 974.677 1392.67 975.363 1393.7C976.22 1394.9 976.906 1396.1 977.764 1397.47C979.135 1399.7 980.507 1401.76 982.05 1403.99C992.337 1418.23 1006.4 1428.7 1025.08 1435.73C1040 1441.39 1055.77 1444.13 1071.72 1444.13C1083.21 1444.13 1095.38 1442.59 1107.55 1439.85C1111.67 1438.82 1115.95 1437.79 1119.9 1436.76C1121.78 1436.24 1123.5 1435.73 1125.38 1435.39L1126.93 1434.36C1127.1 1434.36 1127.27 1434.18 1127.44 1434.18C1148.19 1426.47 1164.47 1415.49 1177.33 1400.22L1179.91 1396.1C1181.79 1393.01 1183.85 1389.75 1186.08 1386.49C1187.11 1384.95 1187.96 1383.06 1188.82 1381.18C1190.19 1377.92 1191.91 1374.14 1195.34 1370.88C1196.02 1370.2 1196.88 1370.03 1197.74 1370.03C1198.08 1370.03 1198.25 1370.03 1198.59 1370.2C1199.79 1370.54 1200.65 1371.23 1200.99 1372.26C1201.85 1374.66 1202.71 1376.89 1203.57 1379.12C1205.11 1383.24 1206.65 1387.01 1208.02 1390.96C1212.48 1403.82 1217.28 1419.09 1218.14 1435.73C1219 1451 1218.14 1466.44 1215.74 1481.53C1215.05 1488.05 1213.51 1494.57 1211.45 1500.75C1205.97 1515.5 1197.22 1529.05 1185.91 1539.69C1185.22 1540.37 1184.36 1540.54 1183.51 1540.54C1182.99 1540.54 1182.48 1540.37 1182.13 1540.2C1179.22 1538.83 1178.53 1536.26 1178.36 1534.88C1178.36 1534.54 1178.19 1534.37 1178.19 1534.03C1177.85 1533.17 1178.02 1532.48 1178.19 1531.62C1183.85 1517.56 1185.91 1502.29 1184.02 1487.36V1487.19C1183.51 1480.85 1182.31 1474.5 1180.08 1468.49C1179.73 1467.64 1178.7 1466.95 1177.68 1466.95H1177.5C1176.48 1467.12 1175.79 1467.98 1175.62 1469.01C1175.45 1472.61 1175.45 1476.21 1175.62 1480.16C1176.3 1497.66 1173.22 1514.81 1166.53 1531.11C1158.65 1550.15 1148.53 1564.56 1135.5 1575.37C1127.96 1581.89 1118.7 1586.35 1108.92 1588.23C1101.21 1589.95 1093.32 1590.64 1085.26 1590.64Z" fill="#F7F6F5"/>
<path d="M1071.21 1438.13C1067.09 1438.13 1062.63 1437.96 1058.18 1437.62C1045.66 1436.76 1033.49 1433.67 1022.17 1428.7C1011.03 1424.23 1000.74 1417.2 992.338 1408.28C975.879 1390.27 970.392 1370.03 975.879 1348.41C979.136 1335.72 985.823 1323.88 994.91 1314.44C995.596 1313.76 996.967 1312.39 999.196 1312.39C999.711 1312.39 1000.4 1312.56 1000.91 1312.73C1003.14 1313.59 1004.34 1315.47 1004.34 1318.39C1004.51 1326.45 1004.51 1332.63 1004.51 1338.46C1004.51 1342.24 1001.94 1343.95 999.711 1343.95H999.368C997.825 1343.78 996.281 1343.09 995.424 1341.89L995.253 1341.72C994.738 1341.03 994.396 1340.18 994.053 1339.49C993.881 1339.15 993.538 1338.63 993.367 1338.29C993.367 1338.12 993.195 1338.12 993.195 1337.95C993.195 1337.78 993.024 1337.78 993.024 1337.78C992.681 1337.78 992.51 1338.12 992.338 1338.63V1338.8C991.481 1341.55 991.995 1344.47 993.71 1346.87C996.624 1350.98 1000.4 1354.59 1004.68 1357.5C1013.94 1364.02 1024.4 1368.65 1035.37 1371.23C1039.66 1372.26 1043.77 1373.29 1048.06 1374.31L1050.12 1374.83L1054.58 1375C1057.83 1375.17 1061.09 1375.34 1064.35 1375.34C1066.58 1375.52 1068.81 1375.52 1071.03 1375.52C1096.41 1375.52 1120.41 1368.65 1144.42 1354.42C1152.65 1349.78 1159.85 1343.78 1165.85 1336.57C1167.73 1334.17 1169.62 1331.6 1171.51 1329.03C1172.19 1328 1172.88 1326.97 1173.73 1325.94V1323.88C1173.56 1323.02 1173.05 1322.68 1172.71 1322.68C1172.53 1322.68 1172.36 1322.68 1172.19 1322.85C1170.65 1324.22 1169.28 1325.77 1167.73 1327.31C1166.88 1328.34 1165.85 1329.2 1164.82 1330.23C1163.96 1331.08 1162.08 1332.97 1159.5 1332.97C1158.65 1332.97 1157.79 1332.8 1156.93 1332.46C1155.56 1331.77 1154.7 1330.4 1154.87 1328.85C1156.07 1319.42 1157.27 1309.98 1158.65 1300.55C1158.65 1300.38 1158.65 1300.21 1158.82 1300.04C1159.16 1298.83 1159.85 1297.8 1161.05 1297.29C1161.22 1297.12 1161.39 1297.12 1161.56 1297.12C1162.25 1296.78 1163.1 1296.6 1163.96 1296.6H1164.3C1165.16 1296.6 1166.02 1296.95 1166.7 1297.63C1174.08 1305.01 1181.62 1312.56 1184.88 1323.54C1186.08 1324.91 1186.76 1326.8 1186.76 1328.68C1191.05 1337.78 1190.54 1347.21 1189.51 1355.1C1187.45 1370.37 1180.76 1384.26 1170.13 1395.42C1154.7 1412.4 1134.81 1425.09 1112.87 1432.13C1100.01 1436.24 1086.47 1438.13 1071.21 1438.13ZM559.937 1585.66C555.308 1585.66 550.507 1584.97 545.706 1583.6C537.991 1581.89 531.99 1576.05 529.933 1568.51C526.332 1556.5 518.446 1546.72 506.101 1538.49C503.872 1537.11 501.472 1535.74 499.243 1534.37C498.386 1533.85 497.7 1533.51 496.843 1533C495.986 1532.82 494.957 1532.65 494.1 1532.48C493.928 1532.48 493.757 1532.48 493.757 1532.31C484.841 1528.54 474.725 1526.65 463.067 1526.65C461.352 1526.65 459.638 1526.65 457.923 1526.82H456.38C455.009 1526.82 453.808 1526.99 452.78 1526.99C450.722 1526.99 448.493 1526.82 446.95 1525.1C445.064 1523.05 445.064 1520.3 445.236 1515.5V1514.81C446.093 1492.85 447.122 1470.72 447.979 1448.77C447.979 1447.74 448.15 1446.71 448.493 1445.68C448.493 1445.51 448.665 1445.34 448.665 1445.16C449.694 1443.45 451.237 1442.42 452.951 1442.42C453.637 1442.42 454.837 1442.59 456.037 1443.45L456.38 1443.62C457.752 1444.82 459.295 1446.02 460.666 1447.22C468.21 1454.08 476.269 1460.6 484.498 1466.44C485.87 1467.46 487.241 1468.15 488.785 1469.18C492.214 1471.24 495.814 1473.3 498.386 1476.9C498.9 1477.59 499.072 1478.27 499.072 1479.13C498.729 1484.62 498.557 1489.94 498.214 1495.43C498.043 1497.49 498.043 1499.37 497.871 1501.43C497.529 1506.06 497.357 1510.87 497.186 1515.5C497.186 1517.73 497.357 1519.96 497.7 1522.19H497.871C498.043 1522.19 498.043 1522.02 498.214 1522.02C498.9 1519.27 499.586 1516.7 500.272 1513.95L500.786 1507.78L502.844 1486.68C503.358 1482.56 506.101 1481.19 508.501 1481.19C509.53 1481.19 510.559 1481.36 511.588 1481.87C513.474 1482.56 515.531 1483.25 517.417 1483.93C521.36 1485.48 525.475 1487.02 529.59 1488.05C538.334 1490.45 547.592 1491.65 556.679 1491.65H557.537C563.537 1491.65 566.281 1492.85 566.624 1499.54C566.795 1502.46 566.966 1505.38 567.138 1508.12C567.652 1515.84 567.995 1523.9 567.481 1531.97L567.995 1536.77C568.51 1541.06 569.024 1545.18 569.367 1549.46V1549.64C569.538 1552.38 570.053 1555.13 570.91 1557.7C571.253 1556.67 571.424 1555.81 571.767 1554.78C571.939 1554.1 572.11 1553.41 572.281 1552.9C572.281 1550.67 572.281 1548.61 572.453 1546.38C572.624 1541.4 572.624 1536.43 572.624 1531.45V1499.03C572.624 1492.51 573.653 1490.11 580.168 1488.22C593.37 1484.45 605.2 1477.07 614.459 1467.12C614.63 1466.95 614.63 1466.78 614.802 1466.78C615.659 1465.92 617.202 1464.21 619.774 1464.21C620.802 1464.21 621.66 1464.38 622.688 1464.89C623.717 1465.41 624.574 1466.44 624.574 1467.81C624.746 1469.87 624.917 1471.75 625.089 1473.81C625.432 1477.76 625.774 1481.7 625.774 1485.82C625.774 1487.88 625.946 1490.11 626.117 1492.17C626.46 1497.31 626.803 1502.46 626.289 1507.78C627.832 1518.41 629.375 1547.75 628.861 1553.92C628.689 1555.13 628.003 1556.15 626.975 1556.67C626.289 1557.01 625.603 1557.36 624.746 1557.53C624.574 1557.53 624.574 1557.53 624.403 1557.7C610.687 1560.61 597.656 1566.96 587.026 1576.05C579.482 1582.4 570.224 1585.66 559.937 1585.66ZM1359.59 380.029C1358.56 380.029 1357.7 379.686 1357.02 378.828C1356.33 377.97 1355.64 377.112 1354.96 376.426C1353.24 374.368 1351.53 372.481 1349.64 370.594C1343.64 364.418 1333.53 357.213 1319.98 357.213C1313.98 357.213 1307.81 358.585 1301.64 361.502C1295.64 364.418 1289.98 368.364 1285.01 372.995L1284.49 373.51C1283.63 374.368 1282.09 375.74 1279.69 375.74C1278.83 375.74 1277.98 375.569 1277.12 375.225C1275.92 374.711 1275.06 373.51 1275.06 372.138V363.56C1275.06 358.414 1274.38 353.439 1272.66 348.636C1268.55 336.97 1260.66 329.766 1248.32 326.678C1245.4 325.992 1242.31 325.648 1239.23 325.648C1234.94 325.648 1230.31 326.335 1224.83 327.707C1224.14 327.879 1223.45 328.05 1222.77 328.393C1220.88 329.079 1218.65 329.766 1215.74 329.766H1214.2C1213.17 329.594 1212.31 329.251 1211.8 328.393C1211.28 327.707 1210.94 326.678 1211.11 325.648C1211.97 320.674 1211.97 315.699 1211.11 310.895C1210.77 308.151 1209.57 305.577 1208.54 302.661C1207.51 300.431 1206.65 298.029 1205.8 295.456C1205.45 294.427 1205.8 293.226 1206.48 292.368C1207.17 291.511 1208.2 290.996 1209.22 290.996H1210.25C1219 290.996 1224.48 285.678 1229.11 280.017C1234.26 273.498 1238.03 265.607 1239.74 257.201C1243.51 240.904 1240.09 227.867 1229.11 216.888C1221.91 209.683 1214.2 202.992 1206.14 196.817C1204.6 195.787 1203.4 194.587 1202.02 193.214C1200.31 191.499 1201.34 188.926 1201.51 188.239C1202.2 186.524 1203.57 186.009 1204.42 185.838C1205.8 185.666 1207.17 185.495 1208.37 185.323C1209.57 185.151 1210.94 185.151 1212.14 184.98C1222.94 183.436 1231 179.147 1236.49 171.771C1239.06 168.511 1240.77 164.737 1241.97 160.792C1242.49 159.419 1243.69 158.39 1245.23 158.39H1248.66C1249.69 158.39 1250.72 158.905 1251.4 159.763C1251.92 160.62 1252.26 161.478 1252.09 162.507C1252.77 162.85 1253.29 163.365 1253.8 163.88C1262.2 178.29 1276.43 188.411 1292.72 191.67C1297.87 192.7 1303.01 193.214 1308.15 193.214C1315.18 193.214 1322.04 192.356 1328.73 190.469C1340.04 187.553 1350.84 182.235 1363.87 173.143C1364.39 172.8 1365.07 172.457 1365.76 172.457C1366.45 172.457 1367.3 172.629 1367.82 173.143L1370.39 175.202C1371.59 176.059 1371.93 177.603 1371.59 178.976L1370.73 181.377C1368.85 187.21 1366.96 192.7 1366.27 198.532C1364.56 214.314 1372.28 226.323 1387.53 231.469C1392.16 233.185 1396.96 234.042 1401.94 234.214C1403.48 234.214 1405.02 234.385 1407.08 234.385C1408.11 234.385 1409.48 234.557 1410.85 234.557C1412.22 234.557 1413.42 235.586 1413.94 236.787C1414.45 237.988 1414.11 239.532 1413.08 240.39C1409.99 243.306 1406.57 245.708 1402.79 247.595C1397.82 250.339 1393.54 254.113 1390.28 258.574C1388.91 260.632 1387.19 263.892 1387.88 266.979C1388.56 270.067 1391.48 272.297 1393.88 273.498C1398.68 276.071 1403.99 277.615 1409.48 278.301C1409.99 278.301 1410.34 278.301 1410.85 278.473C1413.08 278.473 1416.34 278.645 1419.42 281.732C1420.28 282.419 1420.62 283.619 1420.45 284.649C1420.28 285.678 1419.6 286.707 1418.74 287.222C1407.25 293.569 1400.91 301.117 1398.51 310.895C1396.11 320.845 1398.68 330.452 1406.39 340.401C1407.08 341.259 1407.25 342.288 1406.91 343.318C1406.57 344.347 1405.88 345.205 1405.02 345.548C1403.48 346.234 1401.94 346.577 1400.22 346.577C1398.68 346.577 1397.14 346.234 1395.94 346.062C1395.42 345.891 1394.74 345.719 1394.22 345.719C1392.85 345.548 1391.65 345.376 1390.45 345.376C1380.68 345.376 1372.79 350.523 1368.67 359.786C1367.13 363.903 1366.1 368.192 1365.59 372.652V373.338C1365.42 374.539 1365.25 378.485 1360.62 379.514C1359.93 380.029 1359.76 380.029 1359.59 380.029ZM721.273 1607.96C718.187 1607.96 715.272 1606.25 713.901 1603.5C712.015 1600.41 710.3 1597.15 708.414 1594.07L706.014 1590.12C705.157 1589.43 704.128 1588.58 703.442 1587.72L703.271 1587.55C697.27 1580.51 690.069 1574.34 682.011 1569.71C673.095 1564.56 663.322 1560.79 653.207 1558.9C645.834 1557.53 644.463 1555.98 643.948 1548.26C642.577 1532.14 641.377 1515.67 640.005 1499.54L638.976 1483.59L638.633 1478.44C638.633 1477.41 638.976 1476.56 639.662 1475.87C640.348 1475.18 641.205 1474.84 642.062 1474.84H642.234C645.834 1475.01 648.235 1476.73 650.12 1478.1C650.463 1478.27 650.806 1478.62 651.149 1478.79C656.636 1482.39 662.465 1485.65 668.466 1488.22C676.353 1491.65 684.582 1494.23 692.812 1496.11C697.956 1497.14 699.67 1499.03 699.841 1504.35L700.356 1514.13C700.527 1519.44 700.87 1524.76 701.213 1530.08C701.728 1536.43 702.413 1542.77 703.099 1549.12L703.271 1549.98C703.442 1552.04 703.956 1554.1 704.985 1555.81C705.499 1555.3 705.671 1554.44 705.842 1552.9L707.9 1529.74C707.042 1525.96 707.042 1522.19 707.042 1518.41C707.042 1516.36 707.043 1514.47 706.871 1512.58C706.7 1510.18 706.7 1507.95 706.7 1505.72V1505.21C706.7 1501.77 709.614 1499.03 713.043 1499.03H718.187C720.244 1499.03 722.302 1499.2 724.531 1499.2C737.732 1499.2 750.934 1497.49 763.793 1494.23C765.165 1493.88 766.536 1493.71 767.736 1493.37H768.079C768.422 1493.37 768.937 1493.2 769.279 1493.2C772.194 1493.2 774.937 1495.26 775.452 1498.17C775.966 1500.06 776.48 1502.12 776.995 1504C778.709 1510.18 780.595 1516.7 781.453 1523.39C781.624 1523.9 781.795 1524.25 781.967 1524.76C782.481 1525.96 782.824 1527.33 783.167 1528.54V1528.71C785.567 1537.11 788.139 1545.69 790.711 1554.27C791.568 1556.67 792.597 1559.24 793.797 1561.47C794.14 1561.99 794.654 1562.33 795.34 1562.33H795.683C796.197 1562.16 796.369 1561.64 796.369 1561.13C796.197 1557.18 795.854 1553.24 795.34 1549.29C794.14 1542.6 792.768 1535.74 791.568 1529.22L790.368 1523.56C787.968 1517.04 786.425 1510.35 785.225 1504L783.167 1494.74C782.824 1493.03 782.31 1488.91 787.968 1486.33C799.112 1481.53 809.571 1475.53 819.172 1468.15C820.544 1466.95 821.915 1466.44 823.287 1466.44C825.001 1466.44 827.402 1467.29 828.602 1471.41C828.945 1472.78 829.459 1474.16 829.973 1475.53C831.345 1479.3 832.717 1483.08 832.888 1487.36C835.974 1495.43 838.546 1503.66 840.946 1511.55C842.661 1517.04 844.204 1522.53 846.09 1528.02C847.633 1532.65 848.833 1537.28 850.205 1541.74C852.091 1548.95 853.977 1555.81 857.063 1562.33C858.606 1565.25 857.577 1568.85 854.834 1570.74L853.119 1572.11C850.376 1574.34 847.633 1576.57 844.718 1578.46C830.659 1587.55 815.571 1594.41 799.455 1598.7C773.394 1605.9 746.305 1607.1 723.159 1607.62H722.13C721.616 1607.96 721.444 1607.96 721.273 1607.96ZM170.57 1430.07C169.713 1430.07 168.684 1429.9 167.313 1429.55C151.882 1425.26 135.937 1422.18 119.992 1420.46C117.42 1420.12 114.848 1419.77 112.277 1419.6C101.647 1418.4 90.6737 1417.2 79.8722 1414.8C61.184 1410.51 46.2677 1403.65 33.9232 1393.36C26.8936 1387.52 21.0643 1379.98 17.2924 1371.74C15.2349 1367.62 14.892 1362.48 16.6066 1358.02C18.3211 1353.56 19.6927 1349.1 20.8929 1344.64C22.2645 1339.49 24.3219 1334.34 26.7222 1329.71C28.2653 1326.45 30.8371 1323.37 33.7517 1321.14C43.353 1313.76 53.2972 1306.9 63.5843 1300.55C65.4703 1299.52 67.0133 1298.49 69.0708 1298.49C71.814 1298.49 73.5285 1300.38 75.4145 1302.27C86.5588 1314.27 99.2463 1324.91 113.134 1333.49C115.877 1334.69 117.592 1337.43 117.592 1340.35C117.592 1341.38 117.249 1342.24 116.563 1342.92C115.877 1343.44 115.02 1343.78 114.163 1343.78H113.82C112.791 1343.61 111.762 1343.61 110.905 1343.44C108.505 1343.26 106.276 1342.92 104.047 1342.92H102.504C96.6745 1342.58 90.5022 1342.41 84.5014 1342.24H83.9871C80.2151 1342.24 76.2717 1343.09 73.0142 1344.98C73.0142 1344.98 72.8427 1344.98 72.8427 1345.15C72.4998 1345.32 72.3284 1345.49 72.1569 1345.67C71.9854 1346.18 71.9854 1346.52 71.9854 1346.7C71.9854 1346.87 72.1569 1347.21 72.6713 1347.55C72.8427 1347.55 72.8427 1347.73 73.0142 1347.73C73.3571 1348.07 73.8714 1348.24 74.2143 1348.41C84.5014 1353.04 95.8172 1357.16 108.162 1357.16C109.362 1357.16 110.734 1357.16 111.934 1356.99C116.22 1356.65 120.678 1356.47 124.964 1356.47L127.707 1356.3H129.25C135.423 1356.3 141.252 1358.02 146.395 1361.45C161.312 1371.57 171.77 1384.61 177.257 1400.22C180 1408.45 179.657 1417.37 176.228 1425.26C176.057 1426.64 174.514 1430.07 170.57 1430.07Z" fill="#F7F6F5"/>
<path d="M229.72 1479.99C224.919 1479.99 219.947 1479.64 215.147 1479.13H214.975C210.346 1479.13 206.574 1475.7 205.888 1471.07C202.631 1457.34 201.431 1443.45 202.116 1429.38C202.459 1421.83 204.345 1414.63 207.431 1407.77C212.404 1396.79 219.433 1389.75 229.206 1385.81C232.12 1384.61 235.035 1384.09 237.778 1384.09C244.808 1384.09 250.98 1387.87 255.095 1394.56C258.867 1400.05 260.239 1407.08 258.695 1413.6C256.809 1423.03 255.609 1432.81 255.095 1442.42C254.924 1443.96 255.095 1445.68 255.095 1447.22V1449.8C255.095 1450.14 255.266 1450.31 255.438 1450.48H255.781C256.124 1450.48 256.467 1450.31 256.638 1450.14L256.81 1449.97C259.038 1447.74 260.41 1444.82 260.753 1441.56V1441.39C263.153 1428.52 265.211 1413.26 262.124 1397.99C259.553 1384.95 249.609 1376.37 236.75 1376.37C232.635 1376.37 228.349 1377.23 224.234 1379.12C214.632 1383.41 207.088 1390.78 201.259 1401.42C200.916 1402.11 200.573 1402.96 200.23 1403.82C199.373 1406.05 198.344 1408.8 195.601 1410.85C195.087 1411.37 194.23 1411.54 193.544 1411.54C192.858 1411.54 192.001 1411.2 191.315 1410.85C190.629 1410.34 189.943 1409.65 189.258 1409.14L186.171 1406.57C183.771 1405.02 182.228 1402.45 181.714 1399.7C179.142 1388.55 173.655 1377.57 164.054 1364.19L163.711 1363.85C162.854 1362.82 160.282 1360.08 162.683 1355.96C163.368 1354.93 164.397 1354.24 165.597 1354.24H166.283C174.341 1355.79 182.742 1356.65 190.972 1356.65C198.859 1356.65 206.574 1355.96 214.289 1354.42C230.406 1351.5 245.665 1344.47 258.353 1334.17C259.038 1333.66 259.724 1333.32 260.581 1333.32H260.924C261.782 1333.49 262.639 1333.83 263.325 1334.69C286.814 1364.88 294.529 1396.1 286.642 1430.24C284.242 1440.36 279.613 1450.14 273.097 1458.37C262.982 1471.24 250.637 1478.1 235.378 1479.47C233.835 1479.99 231.778 1479.99 229.72 1479.99Z" fill="#F7F6F5"/>
<path d="M199.201 1346.87C190.114 1346.87 180.684 1345.84 171.254 1343.61C140.736 1336.75 113.132 1321.82 86.7284 1297.98C83.8137 1295.58 82.0992 1291.63 82.6136 1287.68C83.2994 1274.48 86.8999 1261.27 93.2436 1249.6C94.7866 1247.03 96.3297 1244.8 98.2157 1242.74C99.4158 1241.37 101.302 1239.14 104.902 1239.14C105.588 1239.14 106.102 1239.14 106.788 1239.31C107.988 1239.65 109.017 1240.51 109.36 1241.71C109.874 1243.43 110.389 1244.97 110.903 1246.86C111.76 1250.12 112.789 1253.55 113.989 1257.66C114.332 1258.86 113.989 1260.07 113.132 1260.92C112.446 1261.61 111.589 1261.95 110.732 1261.95H110.046C109.017 1261.78 108.16 1261.44 107.303 1261.27C105.931 1260.92 105.074 1260.75 104.045 1260.58H103.359C102.845 1260.58 102.502 1260.75 102.159 1261.27C102.159 1261.27 102.159 1261.61 102.331 1261.78L102.673 1262.12C105.245 1264.87 107.988 1267.27 110.903 1269.33C127.534 1281.17 145.879 1290.43 165.425 1296.78C177.255 1300.38 188.056 1302.27 198.515 1302.27C204.687 1302.27 210.688 1301.58 216.689 1300.38C229.033 1297.81 237.092 1293.35 242.749 1286.31C243.435 1285.45 244.293 1285.11 245.321 1285.11C246.35 1285.11 247.379 1285.63 248.064 1286.48C254.751 1295.4 260.409 1308.61 261.609 1317.88V1318.22C262.466 1325.94 262.466 1327.83 256.294 1331.26C255.78 1331.43 255.265 1331.77 254.751 1332.12C237.606 1341.72 218.746 1346.87 199.201 1346.87ZM67.6972 1486.68C66.1542 1486.68 64.4397 1486.68 62.8966 1486.51C59.4676 1486.34 56.0385 1485.13 53.1239 1483.08C47.6374 1479.47 42.3224 1475.53 37.3503 1471.24C29.8064 1464.72 24.6629 1456.32 22.434 1446.71C19.5193 1434.7 19.5193 1422.69 19.6908 1411.2V1406.39C19.6908 1405.02 20.548 1403.65 21.9196 1403.14C22.0911 1402.96 22.434 1402.96 22.434 1402.96C22.9484 1402.79 23.6342 1402.45 24.4914 1402.45C25.0058 1402.45 25.6916 1402.62 26.2059 1402.96C33.5784 1406.74 41.1222 1410.68 48.6661 1414.46C48.6661 1414.46 48.8376 1414.46 48.8376 1414.63C49.5234 1414.97 50.0377 1415.49 50.5521 1416.17C51.2379 1417.03 53.1239 1419.43 51.4093 1422.35C51.0664 1422.86 50.895 1423.38 50.5521 1423.89C49.8663 1425.09 49.3519 1426.12 48.6661 1427.32C44.3798 1436.07 43.5226 1445.68 43.3511 1454.94V1455.29C43.3511 1455.8 43.694 1456.32 44.2084 1456.49H44.3798C44.8942 1456.49 45.4085 1456.14 45.58 1455.63V1455.29C46.2658 1453.23 46.9516 1451.34 47.6374 1449.28C47.9803 1447.91 48.4947 1446.71 48.8376 1445.51C50.895 1438.65 53.6382 1431.96 57.0672 1425.44C58.2674 1423.21 59.9819 1419.78 64.2682 1419.78C65.2969 1419.78 66.4971 1419.95 67.8687 1420.46C73.3552 1422.01 78.8416 1422.86 84.671 1423.72L94.4437 1425.27C97.3584 1425.78 100.445 1426.12 103.359 1426.64C105.245 1426.81 106.96 1427.15 108.846 1427.32C109.531 1427.5 110.046 1427.5 110.56 1427.5C116.732 1428.18 118.447 1430.41 118.275 1437.96C118.275 1441.05 117.933 1444.14 117.075 1447.22C114.161 1458.89 107.131 1469.01 96.3297 1477.07C88.2715 1483.25 77.9843 1486.68 67.6972 1486.68Z" fill="#F7F6F5"/>
<path d="M130.107 1505.38C118.963 1505.38 107.133 1503.15 92.7306 1498.51C91.359 1498 90.5018 1497.14 89.816 1496.28L89.1302 1495.6C88.2729 1494.91 87.93 1493.71 88.1015 1492.68C88.2729 1491.65 88.9587 1490.62 89.816 1490.11L91.1876 1489.42C92.2163 1488.74 93.245 1488.22 94.2737 1487.71C100.103 1484.79 105.247 1481.02 109.876 1476.39C120.677 1465.23 126.164 1452.71 126.335 1438.3C126.335 1432.3 130.45 1431.61 132.165 1431.61C132.85 1431.61 133.708 1431.78 134.736 1431.95C135.251 1432.13 135.936 1432.3 136.451 1432.47C136.794 1432.64 137.137 1432.64 137.48 1432.81L139.023 1433.16C146.052 1434.53 152.739 1435.73 159.597 1435.73H161.826C170.227 1435.39 174.513 1433.5 177.256 1428.52C178.457 1426.64 179.828 1425.61 181.714 1425.61C182.743 1425.61 183.6 1425.95 184.8 1426.47C186 1427.15 186.858 1428.52 186.686 1429.9C186 1435.73 186.343 1441.73 186.686 1448.08C186.858 1451.85 187.029 1455.63 187.029 1459.4C187.201 1471.93 181.714 1483.59 172.113 1491.65C164.74 1497.83 155.653 1502.12 146.224 1503.83C141.251 1504.86 135.765 1505.38 130.107 1505.38ZM666.922 1476.56C666.408 1476.56 666.065 1476.39 665.551 1476.21C655.435 1471.93 646.177 1465.41 638.976 1457.34C636.747 1454.94 636.575 1452.03 636.404 1449.97V1449.11C635.89 1443.11 635.204 1437.27 634.689 1431.27C634.175 1426.81 633.832 1422.18 633.318 1417.72C632.975 1414.63 632.632 1410.68 632.461 1407.08C632.461 1406.22 632.289 1403.65 634.004 1401.76C635.718 1399.88 638.118 1399.88 638.976 1399.88C645.319 1399.7 651.492 1399.53 657.664 1399.53C662.636 1399.53 664.865 1401.59 665.208 1406.74C665.722 1413.77 666.237 1420.8 666.751 1427.67C667.265 1434.7 667.78 1441.73 668.294 1448.59C668.637 1453.91 669.151 1459.23 669.666 1465.23L670.352 1472.95C670.523 1474.16 670.008 1475.36 668.98 1476.04C668.294 1476.21 667.608 1476.56 666.922 1476.56ZM961.648 281.046C959.762 281.046 957.876 280.36 956.676 278.988C954.276 276.929 953.59 273.327 955.133 270.41C955.99 268.695 957.019 267.151 958.39 265.779C965.077 258.231 973.135 252.055 981.879 247.08C992.338 241.591 1001.94 239.017 1011.37 239.017H1013.25C1025.94 239.017 1038.63 242.448 1049.77 248.796C1054.75 251.54 1059.03 255.143 1062.46 259.603C1063.49 260.804 1064.35 262.348 1064.86 263.892C1064.86 264.063 1064.86 264.063 1065.03 264.235C1065.38 265.95 1065.03 267.837 1064.18 269.21C1064.18 269.381 1064 269.381 1064 269.381C1064 269.381 1063.83 269.553 1063.83 269.724C1062.8 270.925 1061.43 271.611 1059.89 271.611C1058.69 271.611 1057.66 271.268 1056.8 270.582C1049.43 265.95 1041.54 262.519 1032.97 260.461C1027.49 258.917 1022 258.059 1016.51 258.059C1006.57 258.059 996.795 260.632 988.051 265.264C982.051 268.695 976.05 272.469 970.392 276.586C968.849 277.787 966.963 278.988 965.248 280.017C963.877 280.703 962.677 281.046 961.648 281.046ZM471.467 1446.19C470.439 1446.19 469.41 1445.85 468.553 1445.16L468.381 1444.99L467.01 1443.79C462.209 1439.67 457.237 1435.56 453.465 1430.07C449.522 1427.15 449.693 1423.03 449.693 1420.12V1418.92C450.036 1406.05 450.207 1393.19 450.379 1380.49V1377.4C450.379 1371.91 450.55 1366.94 455.865 1366.94C457.58 1366.94 459.637 1367.62 463.066 1368.83C464.095 1369.17 465.124 1369.51 466.495 1370.03C467.01 1370.2 467.524 1370.37 467.867 1370.54C472.153 1371.23 475.239 1375.17 474.896 1379.63C474.896 1384.78 474.896 1389.75 475.068 1394.9V1401.93C475.411 1403.48 475.582 1405.02 475.754 1406.74C476.611 1414.11 476.611 1421.49 476.611 1428.7C476.611 1432.81 476.611 1436.93 476.782 1441.05V1441.56C476.611 1442.42 476.44 1443.11 475.925 1443.79C474.725 1445.34 473.182 1446.19 471.467 1446.19ZM433.92 844.235H433.234C431.862 843.892 430.833 842.691 430.662 841.319C429.805 835.143 428.262 828.624 426.547 822.277C425.69 818.674 424.661 814.9 423.975 811.298C423.804 810.612 423.461 808.553 422.947 805.98C421.918 799.804 418.66 781.62 416.774 776.817C404.944 775.273 392.6 775.273 380.427 775.102C374.94 775.102 369.454 774.93 363.967 774.758C362.424 774.758 361.053 773.558 360.71 772.185C360.367 770.641 361.053 769.097 362.424 768.411L401.172 746.968C398.943 735.989 396.372 726.211 391.228 717.633C385.742 708.541 377.512 702.194 368.939 700.65C367.568 700.307 366.539 699.278 366.196 697.905C366.025 696.533 366.539 695.161 367.739 694.303C378.541 687.956 390.714 684.525 403.23 684.525C405.116 684.525 407.173 684.525 409.059 684.696C458.78 690.186 479.869 733.244 473.868 816.444C473.696 817.988 472.668 819.189 471.125 819.532C466.495 820.39 461.866 821.934 457.58 824.164C453.636 826.051 450.036 828.453 446.607 831.369C443.349 834.114 440.435 837.373 437.863 840.804C437.349 841.49 437.006 842.176 436.491 842.863C436.148 843.72 435.12 844.235 433.92 844.235ZM712.529 848.181C712.014 848.181 711.5 848.009 710.985 847.837C695.383 839.775 678.753 834.628 661.264 832.57C659.378 832.398 658.178 830.854 658.178 828.967L658.35 826.737C659.379 809.411 660.236 793.114 660.579 776.131C649.777 771.842 637.947 768.583 626.631 765.323C621.488 763.951 616.001 762.407 610.858 760.863C609.315 760.349 608.457 758.976 608.457 757.432C608.457 755.888 609.486 754.516 611.029 754.173L654.235 743.537C654.921 732.901 655.092 722.437 652.178 712.658C650.634 706.997 647.72 701.679 643.948 697.219C643.091 696.362 642.919 694.989 643.262 693.788C643.605 692.587 644.634 691.73 645.834 691.558C646.691 691.387 647.548 691.215 648.577 691.215C650.463 691.044 652.52 690.872 654.406 690.872C674.809 690.872 696.069 702.88 708.585 721.579C731.56 755.202 727.273 807.867 715.615 845.607C715.272 846.637 714.586 847.323 713.729 847.837C713.386 848.009 713.043 848.181 712.529 848.181Z" fill="#F7F6F5"/>
<path d="M1558.99 275.385C1552.13 274.699 1545.27 274.185 1538.58 273.327C1523.67 271.44 1509.09 267.323 1495.55 260.976C1490.92 258.745 1486.46 256.001 1482.18 253.084C1459.03 236.616 1451.66 213.457 1461.43 187.039C1467.09 171.771 1476.17 158.562 1487.15 146.554C1493.49 139.692 1500.35 133.345 1507.04 126.654C1508.92 124.767 1510.98 123.395 1512.01 120.822C1512.52 119.621 1512.52 118.248 1511.66 117.219C1510.81 116.19 1509.44 115.675 1508.24 116.19C1507.04 116.533 1505.84 117.219 1504.81 117.905C1489.89 128.198 1473.09 134.031 1455.6 138.663C1445.14 141.407 1434.51 142.951 1423.71 143.294C1366.79 144.667 1322.9 112.587 1312.27 59.4079C1309.01 42.9394 1309.18 26.1278 1312.95 9.83083C1313.47 7.94381 1313.64 6.0568 1313.64 4.16978C1313.3 1.93967 1311.24 0.567294 1309.18 0.910388C1308.15 1.08193 1307.12 1.76812 1306.44 2.62586C1305.75 4.34133 1305.07 6.22834 1304.55 8.11536C1300.27 20.2952 1294.61 31.7888 1286.38 41.9101C1270.43 60.9518 1247.63 65.2405 1225.34 56.4916C1214.71 52.2029 1205.11 46.0272 1196.71 38.3076C1194.31 36.0775 1191.91 34.0189 1189.34 31.9604C1187.45 30.4165 1185.22 30.9311 1183.16 32.6466C1181.28 34.1905 1181.45 35.906 1182.31 37.793C1184.71 43.454 1187.11 48.9435 1189.34 54.6046C1194.99 69.0145 1197.57 84.2822 1196.71 99.7214C1196.19 107.441 1194.31 114.989 1190.88 121.851C1183.51 136.776 1170.82 145.01 1154.36 147.755C1138.24 150.499 1123.16 146.554 1108.58 140.55C1103.1 138.319 1098.12 135.403 1092.81 132.658C1091.44 131.972 1090.07 130.943 1088.52 130.428C1085.09 129.056 1082.35 130.085 1080.29 133.516C1078.58 136.089 1079.09 138.319 1082.18 140.893C1083.38 141.922 1084.92 142.78 1086.12 143.637C1090.75 147.24 1095.21 151.014 1099.67 154.788C1101.04 155.989 1103.44 157.19 1102.75 159.248C1102.07 161.65 1099.49 160.621 1097.61 160.621C1081.32 160.277 1065.03 162.165 1049.09 166.282C1014.28 175.031 984.794 192.185 961.476 219.461C954.275 227.695 947.932 236.616 942.617 246.223C941.417 248.453 939.531 250.34 937.302 251.712C907.812 271.783 886.895 298.716 872.493 330.795C868.721 339.372 869.235 338.343 861.177 335.77C847.975 331.138 834.431 327.707 820.543 325.134C805.97 322.732 791.396 321.36 776.651 323.59C769.793 324.448 763.278 326.678 757.277 329.766C749.048 334.398 743.047 340.745 740.647 350.18C738.932 357.042 734.989 363.046 732.074 369.565C730.874 372.138 728.988 372.481 726.416 371.966C721.615 371.109 716.815 370.251 711.843 369.565C677.552 364.59 642.919 363.046 608.286 364.933C584.454 366.305 560.965 369.222 537.648 374.025C503.7 380.887 470.61 390.837 438.72 404.046C393.971 422.573 351.966 447.275 314.075 477.296C272.069 510.748 235.378 550.375 205.203 594.977C172.627 642.839 148.452 696.019 133.536 751.943C123.592 789.169 117.934 827.252 116.562 865.679C114.505 918.515 120.506 971.523 134.222 1022.64C135.594 1026.93 135.251 1031.56 133.365 1035.51C124.792 1052.66 119.991 1070.85 115.362 1089.2C108.676 1117.17 104.046 1145.64 101.646 1174.46C100.446 1186.64 100.446 1198.82 101.646 1210.83C102.16 1215.98 102.675 1220.95 103.361 1226.1C103.704 1228.16 102.675 1230.04 100.617 1230.73C90.3303 1235.19 83.6437 1243.42 78.1572 1252.69C74.0424 1260.06 71.1277 1267.78 69.2417 1276.02C69.0703 1276.71 68.8988 1277.22 68.8988 1277.91C68.5559 1284.6 65.1269 1288.37 58.4403 1291.11C44.8956 1296.78 33.0654 1305.7 21.7496 1314.79C16.6061 1319.25 12.6627 1324.91 10.6052 1331.43C7.00476 1341.72 3.91861 1352.19 1.68974 1362.82C-0.196229 1370.03 1.1754 1377.75 5.29024 1384.09C9.06217 1389.93 9.40509 1395.76 8.89073 1402.28C7.69057 1418.23 7.51911 1434.19 10.0909 1450.14C14.2057 1474.84 34.2656 1490.28 53.9825 1493.71C61.8693 1495.08 69.5846 1498 76.6142 1501.95C97.8742 1514.3 122.563 1519.96 147.081 1517.9C157.196 1517.04 166.969 1513.78 175.542 1508.29C182.4 1504 188.058 1498 191.83 1490.8C194.23 1486.34 194.059 1484.79 201.945 1486.34C206.746 1487.19 211.547 1488.05 216.347 1488.74C230.921 1491.14 245.837 1489.59 259.725 1484.28C275.327 1478.27 288.014 1466.44 295.044 1451.34C299.844 1441.22 302.587 1430.24 303.102 1418.92C304.645 1388.21 293.501 1361.96 275.155 1337.95C273.784 1336.06 272.412 1334.34 270.869 1332.8C268.983 1331.09 268.126 1328.34 268.812 1325.77C272.412 1303.29 264.182 1284.25 250.466 1267.1C244.98 1260.24 238.122 1254.58 230.235 1250.8C228.006 1249.94 226.806 1247.71 227.32 1245.31C228.349 1236.39 230.235 1227.64 232.807 1219.07C233.15 1218.04 234.178 1217.52 235.207 1217.69C235.378 1217.69 235.721 1217.86 235.893 1218.04C237.264 1219.41 238.465 1220.95 239.836 1222.32C285.271 1274.99 341.164 1317.88 403.915 1347.9C415.06 1353.21 426.376 1358.02 437.691 1363.16C441.806 1365.05 441.978 1365.39 441.463 1369.68C439.92 1385.64 438.206 1401.59 436.834 1417.37C436.491 1421.83 436.491 1426.29 436.148 1430.75C434.091 1457.86 432.205 1484.96 430.148 1512.07C429.805 1517.21 429.462 1522.19 429.119 1527.34C425.347 1531.11 419.689 1531.28 415.403 1534.2C413.517 1535.4 411.288 1536.26 409.402 1537.28C407.344 1538.14 405.63 1539.86 404.601 1541.92C402.544 1547.92 397.743 1552.04 393.8 1556.5C374.426 1579.31 354.537 1601.96 335.335 1624.95C324.362 1638.5 312.703 1651.54 300.53 1663.89C297.101 1667.32 293.329 1670.23 289.043 1672.64C272.583 1681.04 258.524 1693.56 248.066 1709C243.094 1716.55 239.15 1724.61 236.579 1733.36C235.55 1736.97 234.35 1740.05 230.406 1741.25C229.206 1741.77 228.177 1742.45 227.149 1743.31C217.376 1751.2 211.547 1775.56 219.948 1787.74C220.805 1789.12 221.834 1790.32 223.034 1791.52C238.807 1806.61 257.496 1818.28 277.898 1825.83C299.501 1834.23 322.476 1838.69 345.793 1838.86C365.51 1839.04 384.884 1836.63 403.058 1828.4C404.258 1827.89 405.63 1827.54 407.002 1827.03C408.716 1828.91 410.602 1830.8 412.317 1832.69C422.432 1844.7 435.634 1852.07 450.207 1857.22C463.752 1861.85 477.811 1865.11 492.042 1867C513.473 1869.91 535.076 1870.77 556.507 1869.23C579.653 1867.86 602.628 1864.6 625.26 1859.62C640.176 1856.19 654.921 1852.24 669.494 1847.61C680.124 1844.18 690.754 1841.44 701.556 1838.69C758.478 1824.8 815.228 1809.87 871.807 1794.78C888.438 1790.32 904.897 1785.17 921.528 1780.02C927.015 1778.14 932.501 1776.08 937.816 1773.51C950.332 1767.84 957.533 1758.07 961.819 1745.89C966.106 1734.05 966.791 1721.18 963.534 1709C961.476 1701.46 958.219 1694.42 951.704 1689.62C948.96 1687.56 947.075 1684.3 946.389 1680.87C942.788 1665.95 938.33 1651.19 933.015 1636.78C927.529 1621.69 922.043 1606.59 916.042 1591.84C913.813 1586.52 913.127 1580.69 914.327 1575.2C919.471 1548.44 910.212 1526.82 888.609 1510.01C881.066 1504.18 871.979 1500.57 862.377 1499.89C856.719 1499.37 854.833 1496.8 853.29 1492C846.089 1470.38 838.546 1448.94 831.173 1427.32C825.687 1411.54 820.2 1395.76 813.685 1380.49C813.171 1379.29 812.828 1378.09 812.313 1376.89C811.799 1375.52 812.485 1373.8 813.856 1373.29C814.028 1373.29 814.028 1373.11 814.199 1373.11C816.257 1372.26 818.486 1371.4 820.543 1370.71C863.749 1355.27 904.726 1334 942.102 1307.41C959.591 1295.23 976.393 1281.68 991.995 1267.27C993.366 1265.9 994.909 1264.7 996.453 1263.67C997.481 1262.98 998.339 1263.67 998.681 1264.53C999.024 1265.04 999.024 1265.73 999.024 1266.41C999.196 1274.13 999.367 1281.85 999.71 1289.4C999.882 1292.32 998.853 1295.06 996.795 1297.29C993.709 1301.06 990.623 1304.84 987.709 1308.44C979.307 1318.73 972.278 1329.88 968.677 1342.75C966.963 1349.27 965.248 1355.79 965.591 1362.65C965.934 1370.37 964.22 1378.09 960.791 1384.95C956.333 1394.21 952.39 1403.65 948.961 1413.43C947.075 1419.26 945.189 1425.09 943.474 1430.75C940.216 1441.9 939.873 1453.57 942.445 1464.89C944.846 1476.21 946.732 1487.54 950.675 1498.52C955.476 1511.72 959.762 1525.28 964.905 1538.31C972.621 1558.21 986.508 1574 1005.2 1585.15C1016.34 1592.01 1029.37 1595.44 1042.4 1595.1C1047.55 1595.1 1052.86 1595.27 1058 1596.13C1077.55 1598.36 1097.27 1597.84 1116.47 1594.24C1126.07 1592.35 1135.16 1588.23 1142.87 1582.23C1147.16 1579.31 1151.1 1576.05 1154.7 1572.11C1161.22 1564.22 1169.45 1558.9 1178.02 1553.58C1206.48 1535.91 1224.14 1510.7 1230.48 1478.1C1235.11 1454.43 1236.31 1430.41 1230.66 1406.57C1226.37 1387.01 1217.63 1368.83 1205.11 1353.04C1202.37 1349.96 1200.82 1346.01 1200.48 1341.89C1199.11 1326.63 1193.11 1312.39 1183.16 1300.72C1178.88 1295.4 1173.73 1290.94 1168.08 1287.17C1164.99 1285.45 1163.1 1282.02 1163.62 1278.42C1164.13 1263.67 1164.48 1248.91 1164.3 1234.16C1164.13 1218.72 1162.76 1203.45 1161.73 1188.19C1160.02 1165.89 1156.93 1143.58 1153.5 1121.45C1149.73 1097.1 1145.27 1072.91 1139.44 1048.89C1137.73 1042.37 1138.07 1035.68 1139.96 1029.16C1150.24 994.853 1156.93 959.343 1159.67 923.661C1162.59 887.637 1161.39 851.269 1156.42 815.415C1142.53 713.688 1101.38 623.969 1034.17 545.572C1030.06 540.597 1025.6 535.794 1021.31 531.162C1019.08 529.103 1018.74 525.844 1020.11 523.271C1024.06 514.522 1027.31 505.43 1031.26 496.681C1037.09 483.815 1035.89 471.121 1030.4 458.598C1026.63 450.02 1021.66 442.129 1015.66 434.924C1007.77 424.974 999.024 415.882 989.594 407.648C987.194 405.59 984.794 403.188 982.394 401.129C973.478 395.125 964.905 388.778 956.847 381.916C951.875 378.828 946.903 375.912 942.102 372.653C935.759 368.535 935.759 368.535 939.016 362.188C939.359 361.331 939.874 360.473 940.388 359.615C940.902 358.586 942.274 358.071 943.302 358.586C943.645 358.757 943.988 359.1 944.331 359.444C949.132 366.305 954.275 372.824 959.762 379.171C968.335 386.376 977.421 392.895 987.023 398.728C990.452 399.929 993.709 401.301 997.138 402.502C1018.57 410.05 1039.66 407.648 1060.06 398.899C1073.95 392.895 1083.89 382.259 1091.27 369.393C1103.27 347.95 1105.5 325.134 1100.7 301.461C1096.58 281.047 1086.29 262.519 1071.03 248.281C1070.35 247.595 1069.66 246.909 1068.98 246.394C1068.29 245.879 1067.78 244.679 1068.29 243.992C1068.98 243.306 1069.83 242.792 1070.69 242.62C1072.58 242.277 1074.63 242.277 1076.52 242.105C1095.38 241.076 1114.41 243.135 1132.59 248.453C1134.47 248.967 1136.7 249.31 1137.56 251.197C1139.1 255.314 1142.7 255.829 1146.13 256.344C1149.22 256.687 1151.44 259.089 1151.62 262.176C1151.79 263.377 1151.96 264.75 1151.96 265.95C1150.76 282.762 1148.19 299.059 1137.39 312.954C1136.53 313.984 1136.01 315.184 1135.5 316.385C1134.64 318.272 1135.33 320.502 1137.04 321.532C1139.1 323.076 1141.84 323.762 1144.42 323.419C1147.67 323.247 1150.93 322.561 1154.19 322.389C1167.05 321.703 1179.73 323.247 1191.22 329.423C1210.08 339.544 1218.83 356.013 1220.2 376.598C1221.57 395.64 1215.74 413.309 1206.82 429.949C1201.17 441.1 1193.28 451.221 1183.85 459.455C1178.88 463.572 1174.59 468.376 1169.96 473.008C1168.25 474.38 1166.88 476.438 1166.36 478.497C1166.02 479.698 1166.36 481.07 1167.22 482.1C1168.25 483.3 1169.96 483.987 1171.68 483.472C1172.88 483.129 1174.08 482.614 1175.11 481.756C1181.62 475.581 1188.99 470.091 1195.34 463.744C1209.05 450.192 1225.34 439.727 1243.51 433.037C1252.43 429.606 1261.86 427.891 1271.29 428.062C1285.18 428.062 1298.38 433.552 1308.15 443.501C1319.3 454.48 1325.64 468.204 1329.58 482.957C1333.87 498.74 1336.44 514.865 1335.24 531.333C1334.73 536.137 1335.58 540.94 1337.3 545.4C1337.64 546.258 1338.16 547.287 1339.36 546.944C1340.21 546.773 1341.07 546.258 1341.76 545.572C1343.47 542.141 1344.5 538.367 1344.84 534.593C1346.21 526.359 1347.41 518.124 1348.96 510.062C1351.53 497.882 1354.62 485.702 1361.13 474.723C1363.7 470.263 1366.79 465.974 1370.39 462.372C1381.36 451.564 1393.71 449.163 1407.94 455.338C1414.11 458.083 1419.94 462.029 1424.91 466.66C1430.57 471.635 1435.71 476.953 1440.34 482.614C1441.37 483.815 1442.4 485.016 1443.6 486.045C1444.97 487.074 1446.86 487.074 1448.23 486.217C1449.94 485.016 1451.31 483.472 1450.46 481.413C1449.6 479.355 1448.57 477.468 1447.2 475.581C1438.28 460.999 1434.17 444.016 1435.2 426.861C1436.91 398.899 1456.8 377.284 1486.63 372.138C1495.55 370.251 1504.81 370.079 1513.89 371.623C1516.98 372.31 1520.92 373.682 1523.5 369.908C1522.12 366.305 1518.52 366.134 1515.61 364.933C1500.01 359.272 1485.43 351.381 1471.89 341.603C1466.23 337.657 1461.43 332.854 1457.83 327.193C1452 317.929 1453.37 310.381 1461.77 303.519C1466.4 299.917 1471.55 297.172 1477.2 295.113C1486.29 291.682 1495.89 289.281 1505.66 288.08C1519.89 286.365 1534.12 284.649 1548.53 287.565C1552.13 288.08 1555.73 288.423 1559.33 288.423C1566.7 289.109 1569.1 286.021 1569.62 282.076C1568.59 278.645 1565.16 275.9 1558.99 275.385ZM752.82 466.489C758.649 451.564 764.135 436.64 769.793 421.543C770.136 420.514 770.994 419.828 772.022 420C774.594 422.573 777.166 425.489 780.252 427.891C783.338 430.292 783.338 433.037 781.966 436.297C775.966 450.363 769.965 464.602 763.964 478.669C763.45 479.526 762.935 480.212 762.25 480.727C759.163 479.869 757.62 477.125 755.22 475.581C751.62 473.179 751.277 470.434 752.82 466.489ZM20.0351 1358.88C21.7496 1354.42 23.2927 1349.78 24.4928 1345.15C25.8644 1340.18 27.7504 1335.37 30.1507 1330.91C31.5223 1328 33.5798 1325.42 36.1515 1323.54C45.5814 1316.16 55.5256 1309.3 65.6412 1303.12C69.4132 1300.89 69.9275 1300.89 73.0137 1304.32C84.5009 1316.68 97.5313 1327.48 111.762 1336.4C113.305 1337.09 114.505 1338.63 114.505 1340.35C110.904 1340.01 107.818 1339.66 104.561 1339.49C98.0456 1339.15 91.5304 1338.81 85.0153 1338.63C80.3861 1338.46 75.9283 1339.66 71.8135 1341.72C69.4132 1342.75 68.213 1345.67 69.4132 1348.07C69.7561 1348.93 70.4419 1349.78 71.4706 1350.3C71.985 1350.64 72.6708 1350.98 73.1851 1351.33C85.7011 1356.99 98.56 1361.28 112.79 1360.25C117.934 1359.91 123.249 1359.73 128.393 1359.56C134.222 1359.22 140.051 1360.76 145.023 1364.02C158.74 1373.29 169.027 1385.47 174.685 1401.08C177.256 1408.45 176.913 1416.52 173.656 1423.55C172.456 1426.47 171.598 1426.98 168.512 1426.12C152.91 1421.66 136.794 1418.57 120.677 1417.03C107.475 1415.49 94.1022 1414.29 81.0719 1411.37C64.6125 1407.6 49.5248 1401.42 36.4944 1390.61C29.8078 1385.12 24.3214 1378.09 20.7209 1370.03C18.8349 1366.42 18.6635 1362.48 20.0351 1358.88ZM63.0695 1483.25C60.1548 1483.08 57.4115 1482.05 54.8398 1480.5C49.5248 1476.9 44.2098 1472.95 39.2377 1468.84C32.3796 1462.83 27.579 1454.94 25.5215 1446.19C22.264 1432.98 22.7783 1419.78 22.7783 1406.57C23.6356 1406.22 24.1499 1405.88 24.3214 1406.05C31.8653 1409.83 39.2377 1413.77 46.7815 1417.55C47.1244 1417.72 47.2959 1417.89 47.4674 1418.23C48.1532 1418.92 48.6675 1419.78 48.1532 1420.8C47.2959 1422.52 46.2672 1424.24 45.4099 1425.95C40.9522 1435.04 39.9235 1444.99 39.752 1454.94C39.4091 1457.34 41.1236 1459.4 43.3525 1459.92C45.7528 1460.26 47.9817 1458.89 48.6675 1456.66C49.8677 1453.4 50.7249 1449.97 51.9251 1446.71C53.9825 1440.02 56.7257 1433.33 59.8119 1427.15C61.8693 1423.38 62.898 1422.69 66.67 1423.72C75.414 1426.29 84.6724 1427.15 93.5879 1428.7C98.3885 1429.55 103.189 1430.07 108.161 1430.75C113.476 1431.61 114.848 1430.75 114.505 1437.96C114.505 1440.88 114.162 1443.79 113.476 1446.54C110.562 1458.2 103.532 1467.29 93.9308 1474.5C85.3582 1481.19 74.2138 1484.45 63.0695 1483.25ZM170.055 1488.91C163.026 1494.74 154.625 1498.69 145.709 1500.4C127.878 1504.18 110.733 1500.75 93.9308 1495.26C93.2449 1494.91 92.5592 1494.05 91.5304 1493.2C93.245 1492.34 94.6166 1491.48 95.9882 1490.8C102.16 1487.71 107.647 1483.76 112.448 1478.96C123.42 1467.64 129.764 1454.26 129.936 1438.47C129.936 1435.39 130.964 1434.7 134.222 1435.39C135.251 1435.56 136.108 1436.07 136.965 1436.24C145.366 1437.79 153.596 1439.33 162.169 1438.99C169.712 1438.65 176.399 1437.27 180.514 1430.07C180.857 1429.38 181.543 1428.35 183.6 1429.38C182.571 1439.16 183.943 1449.28 183.771 1459.4C183.943 1470.9 178.799 1481.7 170.055 1488.91ZM283.899 1430.07C281.67 1439.85 277.213 1448.94 271.04 1456.66C262.125 1468.15 250.809 1475.18 235.721 1476.39C228.863 1476.73 222.177 1476.56 215.319 1475.7C212.232 1475.87 209.661 1473.64 209.489 1470.55C206.403 1457.17 205.031 1443.45 205.717 1429.55C206.06 1422.52 207.775 1415.49 210.689 1409.14C214.804 1400.05 220.976 1392.84 230.578 1388.9C239.493 1385.47 247.38 1388.04 252.352 1396.27C255.61 1401.08 256.81 1407.08 255.438 1412.74C253.381 1422.52 252.181 1432.3 251.838 1442.25C251.666 1444.82 251.838 1447.39 251.838 1449.97C251.838 1451.68 252.866 1453.06 254.41 1453.74C256.296 1454.6 258.353 1453.91 259.725 1452.37C262.468 1449.62 264.182 1446.02 264.697 1442.08C267.44 1427.32 269.154 1412.4 266.068 1397.3C261.953 1377.23 242.579 1367.62 223.377 1376.03C212.232 1381.01 204.517 1389.41 198.859 1399.88C197.316 1402.62 196.973 1406.05 194.23 1408.11C192.515 1406.57 190.801 1405.02 188.915 1403.82C187.372 1402.79 186.172 1401.08 185.829 1399.19C182.743 1385.47 175.713 1373.63 167.484 1362.31C166.626 1361.11 164.912 1360.25 166.283 1357.85C182.571 1361.11 199.202 1361.11 215.49 1358.19C232.292 1355.1 247.894 1347.9 261.096 1337.09C283.385 1365.57 291.786 1395.93 283.899 1430.07ZM245.323 1288.2C251.495 1296.43 257.153 1309.13 258.181 1318.05C259.21 1326.28 259.21 1325.25 253.038 1328.68C227.663 1343.44 200.402 1346.52 171.941 1340.18C139.88 1332.97 112.79 1317.02 88.9587 1295.4C86.7298 1293.52 85.5296 1290.77 85.8725 1287.86C86.3869 1274.99 89.9874 1262.47 96.1596 1251.14C97.5312 1248.91 99.0743 1246.86 100.789 1244.97C101.989 1243.6 103.361 1242.05 106.104 1242.57C107.475 1247.2 108.847 1252.17 110.562 1258.35C107.647 1257.66 106.104 1257.15 104.389 1256.98C102.503 1256.46 100.446 1257.32 99.2458 1258.86C98.2171 1260.58 98.56 1262.81 100.103 1264.01C102.675 1266.76 105.589 1269.33 108.847 1271.73C125.821 1283.74 144.509 1293.17 164.226 1299.69C181.543 1305.01 199.202 1307.24 217.205 1303.29C228.177 1301.24 238.122 1297.12 245.323 1288.2ZM228.177 1270.19C233.321 1273.1 237.436 1277.05 242.408 1283.4C236.236 1283.05 232.635 1285.28 228.52 1285.8C227.149 1285.97 225.777 1285.28 225.606 1283.91C225.434 1279.79 225.263 1275.68 225.263 1271.56C225.434 1270.53 226.291 1269.84 227.32 1270.01C227.663 1270.01 228.006 1270.01 228.177 1270.19ZM328.134 1653.94C331.048 1650.85 334.135 1648.1 336.878 1645.02C361.224 1617.05 385.399 1589.09 409.573 1560.96C415.574 1553.58 423.804 1548.61 433.062 1546.55C433.577 1546.21 433.919 1545.52 434.605 1545.35C449.522 1540.37 465.467 1539.51 480.897 1542.43C486.898 1543.63 492.899 1545.69 498.385 1548.61C509.873 1554.27 518.617 1564.05 523.417 1575.88C524.617 1578.28 523.932 1581.03 521.703 1582.57C510.73 1593.21 500.1 1603.84 489.298 1614.65C473.868 1630.26 458.437 1645.87 443.006 1661.66C438.034 1666.63 433.577 1672.12 428.604 1677.61L416.26 1669.72C415.231 1669.55 414.374 1669.2 413.517 1668.86C386.599 1656.85 358.824 1652.91 329.677 1658.74C328.134 1659.08 326.591 1659.6 325.219 1658.4C325.048 1656.34 326.934 1655.31 328.134 1653.94ZM473.353 1441.22C473.182 1442.08 472.325 1442.76 471.467 1442.76C471.124 1442.76 470.953 1442.59 470.782 1442.42C465.467 1437.96 459.98 1433.5 456.037 1427.49C452.779 1425.44 453.294 1422.01 453.294 1418.92C453.465 1406.22 453.808 1393.36 453.979 1380.66C454.151 1368.14 452.951 1369 465.467 1373.46C466.152 1373.63 466.667 1373.97 467.353 1373.97C470.096 1374.32 471.982 1376.72 471.639 1379.46C471.639 1387.18 471.81 1394.73 471.81 1402.45C472.153 1403.99 472.496 1405.54 472.496 1407.08C473.696 1418.4 472.839 1429.9 473.353 1441.22ZM454.151 1446.19C455.694 1447.39 457.237 1448.59 458.609 1449.97C466.324 1457 474.382 1463.35 482.783 1469.35C487.241 1472.44 492.556 1474.5 495.985 1478.96C495.642 1484.45 495.471 1489.77 495.128 1495.26C494.785 1501.95 494.271 1508.64 494.099 1515.33C494.099 1518.24 494.442 1521.16 494.956 1523.9C495.471 1526.31 497.357 1526.65 500.1 1524.93C500.614 1524.59 501.129 1524.08 501.471 1523.56C502.157 1520.47 503.015 1517.39 503.7 1514.3C504.558 1505.21 505.415 1495.94 506.444 1486.85C506.615 1484.45 507.987 1483.93 510.558 1484.79C516.731 1486.85 522.731 1489.42 528.904 1491.14C538.334 1493.71 548.106 1495.08 557.879 1494.91C562.68 1494.91 563.366 1495.43 563.537 1499.54C563.88 1510.35 565.08 1521.16 564.223 1531.97C564.909 1537.97 565.594 1543.8 566.109 1549.64C566.28 1553.75 567.309 1557.7 569.023 1561.3C569.538 1561.99 570.395 1562.5 571.252 1562.5C572.11 1562.5 572.967 1561.99 573.481 1561.13C574.338 1558.56 575.024 1555.64 575.71 1553.07C575.882 1545.69 576.053 1538.49 576.053 1531.11C576.053 1520.3 576.224 1509.49 576.053 1498.69C576.053 1493.37 576.396 1492.51 581.196 1491.14C594.913 1487.19 607.257 1479.47 617.03 1469.01C618.059 1467.98 618.916 1466.44 621.145 1467.47C621.488 1473.3 622.173 1479.47 622.345 1485.48C622.688 1492.85 623.716 1500.06 623.031 1507.44C624.574 1517.04 626.288 1547.23 625.602 1553.24C625.088 1553.58 624.402 1553.75 623.888 1553.92C609.486 1557.01 596.113 1563.53 584.968 1572.97C573.824 1582.06 560.279 1583.95 546.22 1580C539.705 1578.63 534.562 1573.65 532.847 1567.31C528.561 1553.58 519.645 1543.29 507.644 1535.4C504.386 1533.34 500.957 1531.45 497.7 1529.39C496.671 1529.39 495.814 1529.22 494.785 1528.88C482.783 1523.73 470.267 1522.53 457.408 1523.05C447.979 1523.39 448.15 1524.08 448.493 1514.64C449.35 1492.51 450.379 1470.55 451.236 1448.42C451.236 1447.74 451.236 1447.22 451.579 1446.54C452.265 1446.19 452.951 1445.51 454.151 1446.19ZM694.355 1595.61C698.984 1600.07 702.756 1605.22 705.842 1610.88C706.699 1612.25 706.699 1613.97 705.499 1615.17C704.642 1616.02 703.613 1616.88 702.756 1617.91C675.152 1645.87 647.548 1673.66 621.488 1703.17C620.459 1704.89 618.916 1706.09 617.03 1706.77C614.287 1705.74 611.886 1704.03 610.172 1701.8L597.827 1694.08C574.853 1679.5 550.164 1670.75 522.217 1672.29C521.017 1672.29 519.474 1672.81 518.96 1670.58C520.846 1668.52 522.903 1666.12 525.132 1663.71C547.249 1640.21 569.538 1617.05 589.941 1592.01C598.685 1581.37 611.201 1574.34 624.917 1572.8C626.46 1571.77 628.517 1571.08 630.403 1571.25C655.778 1569.02 676.867 1577.94 694.355 1595.61ZM638.976 1403.14C645.148 1402.96 651.32 1402.79 657.493 1402.79C660.579 1402.79 661.264 1403.48 661.607 1406.74C662.807 1420.8 663.665 1434.7 664.865 1448.77C665.379 1456.31 666.237 1463.86 666.922 1473.13C657.15 1469.01 648.577 1462.83 641.547 1455.11C639.833 1453.23 640.004 1451 639.661 1448.77L636.575 1417.37C636.232 1413.94 635.89 1410.34 635.718 1406.91C635.547 1404.34 636.404 1403.31 638.976 1403.14ZM493.585 1671.26C480.383 1683.1 468.724 1696.31 455.351 1710.03C451.579 1700.77 445.921 1693.39 439.234 1686.02C445.064 1680.53 450.379 1675.89 455.351 1670.75C479.011 1646.56 502.672 1622.37 526.332 1598.01C528.046 1596.13 529.932 1594.41 531.818 1592.52C532.676 1591.49 534.219 1591.32 535.419 1592.18C541.42 1596.13 548.449 1598.18 555.65 1598.53C557.536 1598.7 558.051 1600.24 556.679 1601.96C551.878 1607.62 546.906 1613.11 541.934 1618.6C525.989 1636.27 511.587 1655.14 493.585 1671.26ZM414.545 1784.14C412.145 1785.34 409.745 1786.2 407.344 1787.23C396.714 1791.52 385.227 1793.06 373.911 1793.92C351.794 1795.46 329.505 1794.09 307.731 1789.63C291.786 1786.37 276.184 1781.74 261.611 1774.19C257.496 1772.3 253.895 1769.39 250.98 1765.96C250.295 1764.93 249.095 1763.73 249.095 1762.7C249.266 1757.38 247.894 1751.89 250.638 1746.74C251.666 1734.22 257.324 1723.41 264.697 1713.64C276.87 1697.17 293.329 1685.84 312.532 1678.47C334.82 1669.55 358.138 1668.18 381.798 1671.95C392.085 1673.49 402.372 1675.72 410.431 1682.93C422.947 1689.79 433.405 1699.74 440.778 1711.92C441.635 1713.29 442.321 1714.84 442.835 1716.21C444.892 1721.01 444.549 1726.33 441.635 1730.79C433.748 1743.66 427.919 1757.72 424.147 1772.3C423.461 1777.28 419.689 1781.91 414.545 1784.14ZM632.803 1817.08C627.146 1820.34 621.145 1822.91 614.972 1824.8C600.571 1828.91 585.654 1831.14 570.738 1831.83C543.991 1833.2 517.245 1831.14 491.013 1825.66C472.839 1821.88 455.008 1816.91 438.549 1807.99C428.433 1802.5 427.747 1804.21 433.234 1792.2C433.234 1791 433.405 1789.63 433.748 1788.43C437.863 1774.88 443.006 1761.84 449.179 1749.15C454.837 1737.48 462.038 1726.84 470.782 1717.41C483.812 1703.69 499.757 1694.59 518.788 1692.19C535.419 1690.13 551.192 1693.39 566.452 1699.91C574.51 1703.34 582.74 1706.43 588.74 1713.12C600.056 1720.67 609.315 1730.79 615.83 1742.8C628.174 1764.07 632.461 1787.74 635.89 1811.42C636.232 1813.82 634.861 1816.22 632.803 1817.08ZM882.78 1536.6C881.923 1534.54 879.694 1533.68 877.636 1534.54C877.122 1534.71 876.779 1535.05 876.265 1535.4C874.207 1537.46 873.693 1541.06 870.607 1542.6C865.463 1533.34 860.663 1518.24 860.491 1511.9C861.52 1511.72 862.377 1511.72 863.406 1511.9C894.953 1520.47 915.527 1562.67 893.581 1591.67C893.067 1592.52 892.381 1593.21 891.867 1593.9C890.667 1595.44 890.495 1597.67 891.524 1599.38C892.553 1600.93 894.953 1601.27 897.696 1600.24C899.239 1599.73 900.611 1598.87 901.983 1598.18C903.526 1600.76 904.383 1603.67 905.069 1606.59C910.727 1629.58 917.413 1652.39 925.472 1674.69C928.558 1682.76 931.815 1690.82 934.901 1698.88C936.273 1702.48 937.988 1706.09 936.959 1710.03C934.901 1718.44 930.615 1725.81 923.071 1730.1C916.899 1733.71 910.384 1736.62 903.354 1738.51C878.837 1745.03 854.491 1752.06 829.802 1758.58C770.994 1774.02 712.186 1790.14 654.064 1808.16C652.52 1808.67 650.977 1809.53 649.434 1808.84C648.577 1807.81 648.406 1806.61 648.577 1805.41C649.091 1795.81 647.72 1786.2 646.52 1776.76C646.005 1772.99 644.291 1769.39 644.805 1765.44C639.833 1751.55 634.861 1737.65 625.26 1725.81C626.803 1724.1 628.003 1722.56 629.374 1721.18C659.55 1690.13 687.668 1657.37 715.786 1624.43C718.529 1621.17 720.93 1619.11 725.559 1620.66C728.302 1621.51 731.217 1621.86 734.303 1621.86C748.876 1623.06 763.621 1622.54 778.194 1620.14C813.856 1613.97 845.404 1599.9 869.578 1572.62C869.578 1571.25 870.436 1569.88 871.807 1569.36L871.979 1569.02C871.807 1568.16 872.321 1567.13 873.179 1566.96H873.35C873.179 1565.25 874.55 1564.05 875.065 1562.67C877.636 1557.18 880.208 1551.69 882.437 1546.03C883.98 1542.95 883.98 1539.51 882.78 1536.6ZM821.057 1470.9C823.115 1469.18 824.486 1469.7 825.344 1472.44C826.887 1477.59 829.459 1482.56 829.459 1488.05C834.774 1501.43 838.203 1515.5 842.832 1529.05C846.775 1540.54 848.661 1552.72 853.805 1563.7C854.491 1565.25 853.976 1566.96 852.605 1567.99C849.347 1570.56 846.089 1573.31 842.66 1575.71C829.116 1584.63 814.028 1591.32 798.426 1595.61C773.737 1602.3 748.362 1603.85 722.816 1604.53H721.787C719.729 1604.7 717.843 1603.67 716.986 1601.79C714.243 1596.98 711.5 1592.35 708.757 1587.72C707.728 1586.86 706.871 1586.18 705.842 1585.15C699.498 1577.77 692.126 1571.42 683.725 1566.62C674.466 1561.3 664.351 1557.36 653.721 1555.47C647.72 1554.27 647.72 1554.1 647.205 1547.92C645.834 1531.62 644.634 1515.5 643.433 1499.2C642.919 1492.17 642.576 1485.31 642.062 1478.1C645.148 1478.27 647.034 1479.99 649.263 1481.53C654.921 1485.31 660.922 1488.57 667.265 1491.31C675.323 1494.74 683.725 1497.49 692.297 1499.54C696.069 1500.4 696.583 1501.09 696.755 1504.69C697.269 1513.27 697.441 1521.85 698.127 1530.59C698.641 1537.28 699.327 1543.98 700.184 1550.67C700.527 1554.27 701.727 1557.53 703.956 1560.27C707.899 1559.76 709.271 1557.01 709.614 1553.58C710.3 1545.69 711.157 1537.8 711.843 1529.91C710.471 1524.25 711.157 1518.41 710.643 1512.75C710.471 1510.52 710.471 1508.29 710.471 1506.06C710.3 1504.52 711.5 1503.15 713.043 1502.98H718.186C733.789 1503.66 749.562 1501.95 764.65 1498.17C765.85 1497.83 767.222 1497.66 768.422 1497.31C769.965 1496.8 771.679 1497.83 772.022 1499.37V1499.54C774.251 1507.78 776.823 1516.01 778.023 1524.59C778.709 1526.31 779.395 1528.19 779.909 1530.08C782.481 1538.66 784.881 1547.23 787.624 1555.81C788.482 1558.56 789.682 1561.13 791.053 1563.7C792.254 1565.76 794.654 1566.79 796.883 1566.1C798.769 1565.42 799.969 1563.7 799.969 1561.64C799.797 1557.53 799.455 1553.41 798.94 1549.29C797.397 1540.54 795.683 1531.8 793.968 1523.05C790.368 1513.78 789.167 1503.83 786.767 1494.23C786.253 1492 787.453 1490.8 789.51 1489.94C800.483 1484.62 811.285 1478.44 821.057 1470.9ZM1197.74 1373.29C1200.31 1379.98 1202.54 1385.98 1204.59 1391.98C1209.57 1406.22 1213.68 1420.63 1214.71 1435.9C1215.57 1451 1214.71 1466.09 1212.31 1480.85C1211.62 1487.19 1210.25 1493.54 1208.2 1499.54C1203.05 1513.78 1194.48 1526.65 1183.51 1537.11C1182.82 1538.83 1181.62 1540.37 1180.08 1541.4C1179.39 1541.92 1178.53 1542.43 1177.68 1541.92C1177.33 1541.4 1177.16 1540.72 1177.33 1540.2C1178.36 1537.63 1178.88 1534.88 1181.11 1533C1187.11 1518.41 1189.16 1502.63 1187.28 1487.02C1186.76 1480.33 1185.39 1473.81 1183.16 1467.47C1182.13 1464.89 1179.56 1463.52 1176.99 1463.69C1174.42 1464.03 1172.36 1466.26 1172.19 1469.01C1172.02 1472.78 1172.02 1476.73 1172.19 1480.5C1172.88 1497.49 1169.79 1514.47 1163.28 1530.08C1156.42 1546.55 1147.16 1561.3 1133.1 1572.97C1125.9 1579.14 1117.33 1583.26 1108.07 1585.15C1099.15 1586.86 1090.07 1587.55 1080.98 1587.2C1079.61 1587.2 1077.72 1587.55 1077.21 1584.63C1082.18 1581.54 1085.95 1576.74 1090.58 1572.97L1090.75 1572.8C1090.58 1571.77 1091.44 1570.74 1092.47 1570.56C1093.32 1569.19 1094.01 1567.82 1094.87 1566.45C1108.75 1544.15 1111.33 1520.47 1104.47 1495.43C1103.95 1493.2 1103.1 1491.14 1101.9 1489.25C1100.87 1487.88 1099.15 1487.36 1097.44 1488.05C1096.07 1488.39 1095.21 1489.59 1095.21 1490.8V1498.52C1095.21 1504.35 1095.55 1510.01 1095.04 1515.84C1093.67 1531.11 1089.55 1545.52 1079.26 1557.36C1068.98 1569.19 1055.77 1575.54 1039.66 1574.17C1016.68 1572.11 994.052 1554.1 985.994 1532.14C987.023 1530.59 988.737 1530.59 990.28 1530.25C996.967 1528.88 1003.14 1525.62 1008.11 1520.82C1017.37 1512.24 1023.2 1500.4 1024.06 1487.88C1024.74 1481.88 1023.71 1475.7 1021.31 1470.04C1020.63 1468.67 1019.77 1467.29 1018.57 1466.26C1016.86 1464.89 1014.45 1465.06 1013.08 1466.78C1012.91 1466.95 1012.91 1467.12 1012.74 1467.29C1011.88 1468.67 1011.71 1470.38 1011.88 1471.93C1012.05 1475.36 1013.08 1478.96 1011.37 1482.22C1010.68 1495.43 1003.48 1504.35 991.652 1509.49C982.222 1513.78 975.021 1510.35 971.421 1501.09C966.448 1488.22 962.505 1475.01 959.419 1461.63C956.847 1451 957.019 1439.85 959.933 1429.38C962.848 1419.26 965.934 1409.14 969.192 1399.02C969.535 1397.65 969.878 1395.93 972.278 1395.76C974.507 1399.19 976.564 1402.79 978.965 1406.05C990.28 1421.66 1005.54 1432.3 1023.54 1438.99C1051.32 1449.45 1079.61 1449.97 1108.07 1443.28C1114.41 1441.73 1120.58 1440.02 1126.93 1438.47C1127.44 1437.96 1127.96 1437.62 1128.47 1437.27C1148.7 1429.9 1166.19 1418.57 1180.08 1402.11C1182.99 1397.47 1185.74 1392.84 1188.99 1388.38C1192.25 1383.92 1192.94 1377.75 1197.74 1373.29ZM1146.13 1357.5C1154.53 1352.7 1162.07 1346.35 1168.42 1338.98C1171.5 1335.2 1174.08 1331.26 1176.82 1327.31C1176.99 1326.11 1176.99 1324.74 1176.99 1323.54C1176.31 1319.76 1172.53 1318.05 1169.79 1320.45C1167.05 1322.85 1164.82 1325.42 1162.42 1328C1161.39 1329.03 1160.19 1330.23 1158.13 1329.37C1159.33 1319.93 1160.53 1310.5 1161.9 1301.06C1161.9 1300.72 1162.25 1300.55 1162.42 1300.38C1162.93 1300.21 1163.45 1300.04 1164.13 1300.04C1171.33 1307.24 1178.88 1314.79 1181.62 1325.42C1182.82 1326.45 1183.33 1328 1182.99 1329.37C1186.94 1337.43 1186.94 1346.01 1185.74 1354.59C1183.85 1369 1177.33 1382.55 1167.22 1393.01C1152.13 1409.65 1132.76 1422.01 1111.5 1428.87C1094.18 1434.36 1076.35 1435.56 1058.35 1434.36C1046.34 1433.5 1034.51 1430.58 1023.37 1425.78C1012.57 1421.49 1002.62 1414.8 994.567 1406.22C979.65 1389.93 973.478 1371.23 978.965 1349.44C982.051 1337.26 988.394 1326.11 997.138 1317.02C997.824 1316.33 998.51 1315.65 999.71 1315.99C1000.91 1316.33 1000.91 1317.36 1000.91 1318.39C1001.08 1325.08 1001.08 1331.77 1001.08 1338.46C1001.08 1339.32 1000.91 1340.52 999.539 1340.52C998.853 1340.52 998.339 1340.18 997.996 1339.66C997.31 1338.63 996.796 1337.43 996.11 1336.4C995.252 1334.86 993.709 1334.17 991.995 1334.52C990.452 1335.03 989.252 1336.23 988.909 1337.95C987.88 1341.72 988.566 1345.67 990.795 1348.93C994.052 1353.39 997.996 1357.33 1002.62 1360.42C1012.23 1367.11 1023.03 1371.91 1034.51 1374.66C1039.49 1376.03 1044.46 1377.23 1049.6 1378.43C1054.4 1378.6 1059.38 1378.78 1064.18 1379.12C1093.84 1380.32 1120.93 1372.26 1146.13 1357.5ZM1113.38 735.989C1125.04 773.386 1132.07 811.984 1134.47 850.925C1136.7 887.636 1134.99 924.519 1129.33 961.059C1126.58 979.414 1121.61 997.427 1117.33 1015.44C1116.81 1018.01 1116.13 1020.41 1115.44 1022.82C1107.9 1048.03 1098.29 1072.56 1086.98 1096.24C1058.52 1155.76 1018.4 1208.94 968.849 1252.35C861.006 1347.38 717.672 1391.47 575.196 1373.11C546.392 1369.51 518.102 1363.16 490.499 1353.9C423.289 1330.91 364.139 1294.89 312.017 1247.37C310.303 1245.83 308.245 1244.63 307.731 1242.4C306.874 1241.88 306.188 1241.37 305.331 1240.68C274.641 1211.52 247.894 1178.58 225.263 1142.9C211.718 1121.45 199.888 1098.98 190.115 1075.48C179.485 1050.78 170.913 1025.22 164.055 999.142C162.34 992.28 161.311 985.418 159.94 978.556C155.996 958.828 153.253 938.758 151.881 918.686C149.824 889.352 150.51 859.846 153.767 830.511C157.368 797.746 164.226 765.323 174.342 733.93C204.517 641.295 257.496 563.756 334.306 501.999C405.458 444.874 491.013 408.677 581.539 397.355C592.169 395.983 602.799 394.268 613.772 394.782C615.315 394.268 616.858 394.096 618.402 393.924C630.403 393.753 642.576 393.41 654.578 393.41C674.123 393.753 693.669 395.297 713.043 398.042C716.815 398.556 717.501 399.757 716.129 403.188C714.757 406.619 712.357 409.878 711.843 413.824C710.128 425.146 710.643 436.125 715.958 446.589C718.358 451.564 720.93 456.196 723.844 460.828C735.674 479.012 750.248 495.137 767.393 508.518C789.339 525.844 812.828 540.94 837.688 553.635C865.806 567.701 894.953 578.509 926.329 582.969C942.274 585.199 958.219 585.885 973.992 581.94C988.737 578.337 1000.4 570.961 1005.03 555.865C1005.37 554.492 1005.88 552.777 1007.94 552.605C1010.68 553.978 1012.23 556.551 1014.11 558.609C1059.38 610.417 1092.98 670.801 1113.38 735.989ZM822.943 520.183L833.745 490.334C835.459 485.53 837.002 480.556 838.545 475.752C838.888 475.066 839.403 474.38 839.917 473.694C842.489 473.351 843.86 474.895 845.575 475.752C869.064 489.648 894.096 500.627 920.156 508.689C921.014 509.032 922.043 509.032 922.9 509.547C924.443 509.89 925.3 511.434 924.786 512.806C924.786 512.978 924.614 513.149 924.614 513.321C919.128 527.903 912.784 542.312 908.326 557.409C907.984 558.953 906.612 559.81 905.24 559.639C905.069 559.639 904.897 559.467 904.726 559.467C898.896 557.752 892.896 556.036 887.066 553.978C878.494 550.89 870.264 546.944 861.691 543.856C848.661 539.396 837.002 532.363 824.829 526.359C821.743 524.815 821.572 523.957 822.943 520.183ZM960.791 403.016C972.792 411.937 983.765 422.058 993.709 433.037C1002.97 443.501 1011.2 454.48 1015.83 467.861C1017.2 471.807 1018.06 475.924 1017.88 480.041C1017.88 485.702 1015.14 490.848 1010.51 493.936C1007.77 495.823 1004.85 497.196 1001.77 498.225C994.395 500.627 987.023 500.284 979.479 500.284C967.649 500.455 956.161 497.882 944.674 495.48C930.272 492.735 916.385 488.275 903.011 482.1C895.639 480.727 889.124 477.125 882.437 474.208C870.607 469.234 859.291 463.401 848.49 456.711C846.432 455.681 844.375 454.824 842.489 453.794C827.744 445.388 814.028 435.953 800.14 426.175C784.367 414.853 771.165 400.443 761.392 383.632C758.478 378.657 755.391 373.682 755.049 367.678C752.648 361.845 751.962 356.013 755.22 350.18C759.163 342.803 760.021 342.117 767.05 340.402C767.564 342.803 766.193 344.519 765.164 346.406C763.964 356.527 765.507 366.648 769.451 375.912V376.77C769.965 377.113 770.308 377.627 770.651 378.142C782.309 399.757 799.797 415.882 820.2 429.435C820.372 429.435 820.543 429.435 820.886 429.606C823.115 430.635 825.515 431.665 827.744 432.694C826.715 431.322 826.029 429.949 825.344 428.405C821.229 423.259 816.771 418.627 811.97 414.167C806.484 408.677 801.855 402.502 797.74 395.811C793.625 389.121 791.911 381.401 792.596 373.682C792.768 367.849 796.026 362.36 801.169 359.444C805.97 356.527 811.285 354.812 816.771 354.297C830.487 353.096 844.203 353.954 857.577 357.042C861.177 357.9 862.034 358.929 861.349 362.36C859.977 369.908 858.434 377.456 856.891 385.004C856.719 386.548 855.348 387.749 853.633 387.577H853.462C849.518 387.234 845.747 386.548 841.803 386.376C832.888 386.033 827.744 391.523 832.888 400.615C836.66 406.962 841.46 412.795 847.118 417.598C861.863 430.979 878.322 442.129 895.982 450.878C908.498 457.225 921.357 462.715 935.073 465.631C938.159 466.489 941.417 466.832 944.846 466.66C953.761 465.974 958.562 457.911 955.133 450.02C953.59 446.418 951.189 443.33 948.446 440.585C944.674 437.154 940.731 433.723 936.787 430.464C933.53 427.891 930.101 425.318 926.672 422.916C924.786 421.715 923.757 419.485 924.1 417.083C924.957 408.163 926.5 399.242 929.072 390.665C929.586 388.95 929.243 386.719 932.158 385.69C941.417 391.18 951.704 396.155 960.791 403.016ZM849.69 404.903C850.719 405.761 851.747 407.305 853.119 407.134C851.919 407.305 850.719 405.761 849.69 404.903ZM926.672 439.899C925.986 439.556 924.957 439.727 924.614 440.585C924.614 440.757 924.443 440.928 924.443 441.1C923.928 443.158 924.443 445.217 925.643 446.932C924.443 445.217 924.1 443.158 924.443 441.1C924.614 440.242 925.471 439.727 926.157 439.899C926.329 439.727 926.5 439.899 926.672 439.899C930.615 442.472 934.387 445.388 936.959 449.849C936.102 450.192 935.416 450.363 934.387 450.535C935.244 450.535 936.102 450.363 936.959 449.849C934.387 445.388 930.615 442.644 926.672 439.899ZM933.187 450.363C931.472 450.02 929.758 449.334 928.215 448.648C927.529 448.476 926.843 447.962 926.157 447.447C926.672 447.962 927.357 448.305 928.215 448.648C929.758 449.506 931.472 450.02 933.187 450.363ZM1028 334.055C1020.97 342.803 1011.03 344.862 1000.91 339.544C989.595 333.54 981.879 318.101 983.937 305.406C984.622 300.26 986.851 295.457 990.452 291.682C994.395 287.737 998.681 284.306 1005.03 284.821C1009.83 284.649 1014.63 286.021 1018.74 288.766C1027.66 294.256 1033.31 303.691 1033.83 314.327C1034.51 321.532 1032.46 328.565 1028 334.055ZM1061.09 267.666C1060.4 268.524 1059.38 268.524 1058.52 268.009C1050.8 263.034 1042.4 259.432 1033.49 257.373C1017.71 252.741 1000.57 254.628 986.165 262.691C979.993 266.122 973.992 270.068 968.163 274.185C966.62 275.385 964.905 276.415 963.362 277.273C961.819 277.959 960.105 277.787 958.905 276.586C957.533 275.557 957.362 273.67 958.219 272.126C958.905 270.754 959.762 269.381 960.962 268.181C967.477 260.976 975.193 254.8 983.594 250.168C993.023 245.365 1002.8 242.105 1013.08 242.62C1025.26 242.62 1037.43 245.879 1048.06 251.884C1052.69 254.457 1056.63 257.716 1059.89 261.833C1060.75 262.863 1061.26 263.892 1061.78 265.093C1061.78 265.95 1061.6 266.98 1061.09 267.666ZM1394.73 310.381C1391.82 322.389 1395.76 333.025 1403.14 342.803C1399.71 344.347 1396.96 342.975 1394.22 342.632C1381.19 340.916 1370.22 346.921 1365.07 358.757C1363.36 363.218 1362.16 368.021 1361.82 372.653C1361.64 374.025 1361.99 375.912 1359.42 376.427C1357.02 373.682 1354.62 370.594 1351.87 367.849C1339.18 355.155 1321.18 348.293 1299.92 358.071C1293.58 361.159 1287.58 365.276 1282.43 370.079C1281.23 371.109 1280.38 372.653 1278.15 371.623V363.046C1278.32 357.556 1277.29 352.067 1275.58 346.921C1271.12 334.055 1262.2 326.163 1248.66 322.732C1240.09 320.674 1231.86 321.532 1223.45 323.762C1220.71 324.448 1218.14 326.163 1214.02 325.649C1215.05 320.331 1215.05 314.841 1214.02 309.523C1213.34 304.205 1210.25 299.574 1208.54 293.913C1218.83 294.256 1225.34 288.766 1231 281.733C1236.66 274.699 1240.43 266.294 1242.31 257.545C1246.09 241.076 1243.17 226.495 1230.83 214.143C1223.63 206.767 1215.74 199.905 1207.34 193.901C1206.14 192.871 1204.94 191.842 1203.74 190.641C1203.57 190.47 1203.91 189.097 1204.08 189.097C1206.65 188.754 1209.22 188.583 1211.8 188.24C1222.6 186.696 1231.86 182.407 1238.37 173.658C1241.11 170.056 1243.17 165.939 1244.37 161.65C1243.86 160.277 1244.2 158.734 1245.4 158.562C1247.46 158.219 1247.97 159.763 1247.8 161.65C1249.17 162.336 1250.03 163.88 1249.86 165.424C1258.77 180.692 1273.86 191.327 1291.18 194.758C1303.69 197.332 1316.55 196.817 1328.73 193.386C1342.1 189.955 1353.93 183.265 1365.07 175.545C1365.59 174.001 1366.79 172.8 1368.16 172.286C1369.19 171.771 1370.05 172.457 1369.87 173.658C1369.87 175.202 1369.02 176.746 1367.65 177.432C1365.42 184.123 1363.02 190.813 1362.16 197.846C1360.27 215.173 1369.02 228.725 1385.65 234.386C1390.62 236.101 1395.76 237.131 1400.91 237.302C1403.31 237.302 1405.88 237.474 1409.82 237.817C1406.91 240.561 1403.82 242.792 1400.22 244.507C1394.91 247.595 1390.28 251.54 1386.51 256.515C1380.85 264.578 1382.56 271.955 1391.31 276.586C1396.62 279.331 1402.28 281.047 1408.11 281.733C1410.51 282.076 1413.25 281.39 1416.17 284.134C1405.88 290.653 1397.65 298.544 1394.73 310.381Z" fill="#2C2729"/>
<path d="M867.178 1617.05C865.292 1618.43 863.577 1619.8 861.863 1621.17C845.06 1634.55 825.515 1642.1 804.769 1647.25C787.11 1651.71 769.279 1652.39 751.791 1646.56C750.076 1646.05 748.362 1645.53 746.647 1645.36C745.104 1645.19 743.733 1645.19 742.189 1645.53C740.989 1651.53 741.161 1651.88 745.104 1654.11C763.449 1664.92 782.824 1666.8 803.226 1661.66C808.884 1660.28 814.371 1658.4 820.029 1656.68C821.743 1654.62 824.486 1654.28 826.887 1653.25L828.43 1652.56C843.689 1645.7 857.748 1637.12 868.378 1623.92C869.235 1623.06 870.092 1622.03 870.778 1621C871.635 1619.46 873.864 1617.91 872.15 1616.02C870.435 1614.14 868.721 1616.02 867.178 1617.05ZM736.703 861.733C734.474 859.674 732.074 857.616 729.673 855.729C744.075 812.842 749.733 752.8 722.301 712.487C704.642 686.583 674.98 672.002 646.862 675.261C634.689 676.805 623.202 681.265 613.258 688.47C603.142 693.788 594.055 704.767 586.854 716.775C581.882 724.667 577.939 733.244 575.024 741.993C565.08 773.386 569.366 820.218 571.595 850.067C565.937 854.356 560.965 859.674 556.85 865.507C572.281 856.929 589.083 851.44 606.4 849.038C612.401 848.18 618.401 847.666 624.231 847.323C630.06 846.98 635.718 847.151 640.69 847.151C646.176 847.323 651.834 847.666 657.321 848.18C674.466 849.896 691.268 853.498 707.385 859.16C724.187 864.649 739.618 873.226 753.334 884.377C749.219 875.799 743.732 868.08 736.703 861.733ZM712.528 844.75C696.583 836.515 679.438 831.197 661.607 829.31C662.636 810.783 663.836 792.599 664.008 774.072C647.548 767.039 629.031 762.922 611.886 757.775L652.006 747.997L657.492 746.625C658.178 734.959 658.693 723.294 655.435 712.144C653.72 705.968 650.634 700.307 646.519 695.504C647.377 695.332 648.234 695.161 649.091 695.161C669.837 692.759 692.64 704.253 706.013 723.98C728.473 756.403 723.844 808.21 712.528 844.75ZM440.777 866.707C442.492 860.532 445.749 854.699 450.036 849.896C454.151 845.093 459.294 841.147 465.124 838.402C467.867 837.03 470.953 835.829 474.039 835.143C476.954 834.285 480.04 833.942 483.297 833.77C489.813 833.599 496.328 834.8 502.5 837.201C515.016 842.005 526.846 851.268 531.132 866.879C533.19 858.473 531.99 849.724 527.703 842.348C523.417 834.628 517.073 828.109 509.53 823.478C505.758 821.076 501.643 819.189 497.356 817.817C495.128 817.13 493.07 816.616 490.67 816.101H490.498C496.842 724.667 470.267 675.09 411.459 668.742C381.969 665.483 350.765 679.893 332.077 705.453C316.475 726.897 309.445 755.545 312.532 786.08C315.103 812.327 324.019 836.687 333.62 859.503C333.106 860.017 332.591 860.36 332.077 860.875C322.819 869.967 316.989 881.804 315.103 894.498C324.019 885.749 332.42 878.201 341.85 872.712C351.108 867.222 360.881 862.762 371.168 859.674C381.627 856.415 392.428 854.185 403.401 852.812C408.887 852.126 414.545 851.611 420.375 851.268C423.289 851.097 426.204 851.097 429.119 850.925C427.576 855.042 426.547 859.503 426.204 863.791C425.347 872.54 426.89 881.461 430.49 889.523C433.748 897.243 439.406 903.762 446.264 908.393C442.663 901.703 440.434 894.327 439.577 886.779C438.377 880.26 438.891 873.398 440.777 866.707ZM435.291 838.745L433.748 840.804C432.376 830.683 429.119 820.218 427.061 810.44C426.204 806.666 421.06 773.729 418.66 773.386C400.829 770.984 381.969 771.842 363.967 771.156L400.143 751.256L405.115 748.512C402.887 737.19 400.143 725.524 394.143 715.575C388.656 706.483 379.912 698.935 369.625 696.876C381.455 689.843 395.171 686.583 408.887 687.784C456.208 692.93 476.439 734.788 470.439 815.758C465.466 816.787 460.666 818.331 456.037 820.561C451.922 822.62 447.978 825.193 444.549 828.109C441.292 831.54 438.034 834.971 435.291 838.745ZM474.039 1090.92C474.039 1044.6 500.957 1007.03 534.219 1007.03C540.734 1007.03 547.249 1008.58 553.078 1011.32C548.449 1006.18 543.134 1001.89 536.962 998.456C507.644 982.159 477.982 1001.89 464.095 1028.65C446.435 1062.79 444.892 1107.39 458.951 1143.07C469.581 1170.17 494.956 1199.51 527.532 1189.04C538.676 1185.44 548.449 1178.58 555.65 1169.32C549.135 1172.92 541.762 1174.63 534.39 1174.81C500.957 1174.81 474.039 1137.24 474.039 1090.92Z" fill="#2C2729"/>
<path d="M525.645 1152.51C544.678 1152.51 560.107 1125.39 560.107 1091.95C560.107 1058.5 544.678 1031.39 525.645 1031.39C506.612 1031.39 491.183 1058.5 491.183 1091.95C491.183 1125.39 506.612 1152.51 525.645 1152.51Z" fill="#2C2729"/>
</g>
</svg>
