<svg width="2228" height="2304" viewBox="0 0 2228 2304" fill="none" xmlns="http://www.w3.org/2000/svg">
<mask id="mask0_1_423" style="mask-type:luminance" maskUnits="userSpaceOnUse" x="0" y="0" width="2228" height="2304">
<path d="M2227.88 0H0V2304H2227.88V0Z" fill="white"/>
</mask>
<g mask="url(#mask0_1_423)">
<path d="M1602.93 651.103C1617.18 645.237 1630.72 639.143 1643.56 632.822C1607 584.074 1585.06 517.265 1585.06 453.137C1585.06 296.997 1709.37 169.96 1862.17 169.96C2014.97 169.96 2139.26 296.997 2139.26 453.137C2139.26 609.277 2015.05 736.314 1862.27 736.314C1848.45 736.306 1834.64 735.255 1820.98 733.17L1819.03 775.946C1833.57 777.892 1848.23 778.869 1862.9 778.871C2044.07 778.871 2191.44 631.506 2191.44 450.334C2191.44 269.162 2044.17 121.797 1863 121.797C1681.83 121.797 1534.46 269.187 1534.46 450.334C1534.53 522.975 1558.6 593.558 1602.93 651.103Z" fill="#FFC545"/>
<path d="M970.669 1113.82C951.986 1126.71 929.723 1133.4 907.029 1132.95C890.201 1132.78 873.499 1130.03 857.501 1124.81C838.705 1118.66 824.495 1103.13 820.038 1083.86C814.708 1060.87 809.654 1038.12 804.877 1015.62C775.77 1021.92 747.003 1029.7 718.691 1038.94C719.617 1078.91 721.567 1119.38 723.566 1158.64C725.637 1201.76 727.807 1246.19 728.587 1290.26C831.347 1322.65 964.21 1340.42 1104.56 1340.42C1250.34 1340.42 1388.02 1321.24 1492.32 1286.44C1589.43 1254.02 1647.68 1211.02 1652.21 1168.44L1652.56 1162.52C1652.17 1119.3 1596.15 1075.28 1498.73 1041.7C1393.7 1005.48 1253.72 985.636 1104.56 985.636C1062.05 985.636 1019.81 987.318 978.761 990.511L992.923 1056.32C997.656 1078.21 988.906 1100.82 970.669 1113.82Z" fill="#FF7E27" stroke="#FF7E27" stroke-width="9.74959" stroke-miterlimit="10" stroke-linecap="round"/>
<path d="M717.35 2075.86C725.735 2080.42 733.705 2084.71 741.431 2089.09C796.517 2113.47 852.772 2123.71 912.342 2134.58C928.819 2137.6 945.88 2140.69 963.235 2144.18C1109.75 2167.24 1259.33 2153.93 1407.89 2104.33L1408.38 2104.18C1479.91 2082.71 1559.28 2053.56 1598.49 1978.66C1613.12 1737.52 1628.21 1488.93 1647.24 1242.93C1616.04 1272.18 1567.34 1298.38 1503.44 1319.75C1395.65 1355.73 1254.02 1375.52 1104.56 1375.52C963.966 1375.52 830.275 1358 725.198 1325.97L754.447 1995.04C754.683 2000.93 751.941 2006.54 747.15 2009.98C742.359 2013.41 736.162 2014.21 730.658 2012.1L610.714 1966.42C610.726 1966.61 610.726 1966.79 610.714 1966.98C612.688 2019.41 665.896 2048.12 717.35 2075.86Z" fill="#FC6B08" stroke="#FC6B08" stroke-width="9.74959" stroke-miterlimit="10" stroke-linecap="round"/>
<path d="M1027.73 1581.16L987.243 1599.45L1033.12 1610.29C1034.37 1620.86 1035 1631.5 1034.99 1642.15C1034.99 1704.45 1014.42 1755.44 988.389 1759.63C997.529 1768.26 1007.72 1773.13 1018.37 1773.13C1035.43 1773.13 1052.49 1759.88 1065.58 1736.57C1054.17 1709.57 1048.18 1677.81 1048.18 1644.17C1048.18 1609.54 1054.86 1575.92 1067.09 1548.38C1053.86 1523.28 1036.33 1509.04 1018.34 1509.04C1006.94 1509.04 996.042 1514.67 986.439 1524.47C1003.94 1525.64 1019.2 1548.07 1027.73 1581.16ZM1171.19 1612.1C1172.61 1622.71 1173.42 1633.39 1173.63 1644.1C1173.63 1705.03 1154.13 1755.05 1128.83 1761.24C1137.51 1768.84 1147.04 1773.13 1157.01 1773.13C1194.57 1773.13 1226.28 1712.64 1226.28 1641.05C1226.28 1569.47 1194.59 1508.97 1157.01 1508.97C1144.82 1508.97 1133.34 1515.33 1123.27 1526.32H1123.74C1141.51 1526.32 1157.08 1548.11 1165.98 1580.95L1122.4 1600.44L1171.19 1612.1ZM1900.22 1729.21C1897.78 1753.59 1916.92 1771.31 1934.88 1785.27C1942.44 1791.41 1950.28 1796.48 1958.06 1802.6C1950.02 1802.83 1941.98 1802.19 1934.08 1800.68C1933.12 1803.12 1931.49 1805.23 1929.37 1806.77C1907.56 1823.03 1892.81 1842.31 1885.72 1868.8C1880.16 1889.38 1879.16 1910.92 1882.77 1931.93C1889.86 1971.34 1914.04 2003.71 1952.57 2012.37C1950.87 1995.13 1951.38 1977.83 1949.6 1960.62C1949.21 1957.96 1949.76 1955.24 1951.16 1952.94C1943.41 1947.63 1933.3 1940.75 1928.74 1937.54L1918.99 1930.54C1918.67 1930.32 1918.51 1929.94 1918.57 1929.56C1918.64 1929.18 1918.91 1928.87 1919.28 1928.76L1920.28 1928.47C1956.84 1918.5 1995.47 1945.24 2000.86 1982.09C2000.86 1982.8 2001.3 1984.09 2000.15 1984.24C1999.94 1984.31 1999.71 1984.31 1999.49 1984.24L1989.01 1977.85C1985.07 1975.41 1981.02 1972.76 1976.83 1970.1C1976.78 1970.69 1976.69 1971.28 1976.56 1971.86C1976.92 1980.78 1976.83 1989.7 1977.46 1998.67C1977.9 2005.1 1976.95 2018.63 1982.6 2022.63C1987.8 2026.28 1999.67 2026.7 2005.86 2026.26C2014.27 2025.38 2021.97 2021.12 2027.18 2014.46C2036.64 2003.13 2035.91 1991.48 2034.5 1977.78C2033.89 1971.61 2033.03 1965.59 2031.81 1959.38C2030.84 1956.42 2030.1 1953.4 2029.6 1950.33V1950.04C2019.24 1942.97 2026.43 1923.23 2041.15 1926.54C2058.53 1930.57 2059.16 1961.89 2060.65 1975.29C2062.14 1988.7 2061.75 2002.1 2057.36 2014.12C2072.15 2011.34 2086.46 2004.83 2096.36 1993.13C2110.69 1976.07 2109.3 1953.36 2103.23 1933.2C2098.36 1916.89 2123.75 1909.97 2128.65 1926.18C2133.26 1940.71 2134.75 1956.05 2133.04 1971.2C2163.6 1955.45 2167.16 1914.33 2162.7 1883.23C2157.83 1850.13 2143.52 1806.5 2113.22 1788.03C2099.81 1796.94 2083.88 1801.33 2067.79 1800.53C2051.78 1799.92 2051.75 1775.01 2067.79 1775.62C2102.96 1776.96 2123.17 1749.27 2121.29 1715.73C2119.24 1679.29 2091.48 1653.92 2055.31 1654.6C2054.34 1654.62 2053.37 1654.53 2052.41 1654.34C2056.05 1671.96 2057.41 1689.98 2056.46 1707.96C2061.35 1703.2 2065.53 1697.75 2068.86 1691.8C2070.69 1688.32 2074.27 1686.1 2078.2 1686.02C2082.13 1685.94 2085.79 1688 2087.77 1691.4C2089.74 1694.8 2089.7 1699.01 2087.68 1702.38C2072.59 1729.19 2045.49 1746.57 2011.32 1751.12C2005.37 1751.92 1999.38 1752.31 1993.38 1752.29C1967.52 1752.29 1942.7 1745.18 1931.35 1733.65C1927.16 1729.4 1927.21 1722.56 1931.45 1718.38C1935.7 1714.19 1942.54 1714.24 1946.73 1718.49C1949.03 1720.55 1951.66 1722.2 1954.52 1723.36C1956.97 1710.83 1957.57 1698.02 1956.3 1685.32C1954.45 1677.44 1951.88 1669.74 1948.63 1662.33C1925.98 1679.17 1903.71 1702.13 1900.22 1729.21ZM239.084 1715.08C237.757 1727.77 238.282 1740.58 240.644 1753.12C243.539 1751.95 246.217 1750.31 248.565 1748.25C251.292 1745.39 255.351 1744.23 259.175 1745.22C262.999 1746.21 265.988 1749.19 266.989 1753.01C267.989 1756.83 266.843 1760.89 263.994 1763.63C252.587 1775.06 227.921 1782.08 202.133 1782.08C195.782 1782.09 189.437 1781.66 183.146 1780.79C148.681 1775.91 121.431 1758.29 106.368 1731.06C104.404 1727.65 104.432 1723.45 106.442 1720.07C108.452 1716.68 112.131 1714.64 116.065 1714.74C120 1714.83 123.579 1717.04 125.428 1720.51C128.758 1726.54 132.937 1732.05 137.834 1736.89C136.989 1718.79 138.447 1700.66 142.173 1682.93C141.263 1683.08 140.341 1683.15 139.419 1683.12C102.858 1682.22 74.6325 1707.5 72.3658 1744.35C70.2696 1778.18 90.3538 1806.36 125.989 1805.28C142.197 1804.75 142.124 1829.93 125.989 1830.44C109.607 1831.24 93.3921 1826.83 79.678 1817.84C49.2592 1836.53 34.6836 1880.06 29.6138 1913.31C24.8609 1944.61 28.2489 1986.31 59.0088 2002.37C57.2686 1987.07 58.7887 1971.58 63.4693 1956.91C68.5147 1940.56 94.2048 1947.58 89.1594 1963.98C82.8709 1984.31 81.311 2007.12 95.6429 2024.55C105.393 2036.45 119.871 2043.15 134.812 2046.05C130.473 2033.86 130.132 2020.75 131.741 2006.91C133.349 1993.06 134.178 1961.64 151.606 1957.72C166.547 1954.36 173.762 1974.51 163.183 1981.51C163.08 1981.86 162.998 1982.22 162.939 1982.58C162.403 1985.7 161.331 1988.82 160.697 1991.94C159.406 1998.49 158.454 2005.11 157.845 2011.76C156.602 2024.77 156.407 2035.98 165.377 2046.71C170.669 2053.38 178.41 2057.65 186.875 2058.58C192.846 2059.07 204.985 2058.58 210.176 2055.07C216.148 2051.02 215.295 2035.57 215.709 2028.82C216.319 2018.92 216.245 2009 216.903 1999.13C216.783 1998.04 216.783 1996.95 216.903 1995.86L217.854 1989.06C218.299 1985.17 220.916 1981.86 224.606 1980.53C216.709 1975.51 206.764 1969.13 202.206 1966.15L192.042 1959.38C191.728 1959.16 191.563 1958.78 191.614 1958.4C191.665 1958.02 191.925 1957.7 192.286 1957.57L193.285 1957.26C229.846 1946.09 269.673 1971.88 276.157 2008.9C276.279 2009.64 276.693 2010.9 275.523 2011.1C275.302 2011.17 275.062 2011.17 274.84 2011.1L264.482 2005C257.876 2001.13 250.954 1996.91 244.178 1992.82C242.277 2010.17 242.594 2027.65 240.863 2045.03C279.667 2036.59 304.235 2004.35 311.743 1964.59C315.644 1943.25 314.812 1921.31 309.305 1900.32C302.31 1873.65 287.564 1854.01 265.725 1837.6C263.586 1836.02 261.945 1833.85 260.996 1831.36C252.961 1832.85 244.788 1833.46 236.622 1833.17C248.175 1824.42 259.948 1816.74 270.746 1807.21C284.493 1795.02 297.703 1778.67 295.461 1759.41C292.17 1732.06 269.819 1708.76 247.03 1691.58C243.664 1699.15 241.004 1707.02 239.084 1715.08Z" fill="white" stroke="white" stroke-width="9.74959" stroke-miterlimit="10" stroke-linecap="round"/>
<path d="M2107.72 453.137C2107.74 429.688 2104.54 406.348 2098.21 383.769L1855.4 479.193L2055.97 607.351C2089.65 563.004 2107.83 508.823 2107.72 453.137ZM1792.1 496.401L1628.79 532.694C1637.77 563.524 1652.43 592.406 1672.01 617.857C1736.45 581.564 1778.23 539.445 1792.1 496.401ZM1616.8 453.137C1616.85 469.49 1618.38 485.805 1621.36 501.885L1788.42 464.812L1662.77 306.747C1632.75 349.651 1616.69 400.773 1616.8 453.137ZM1910.09 206.424L1848.5 447.994L2087.78 353.886C2056.24 278.912 1990.11 222.681 1910.09 206.424Z" fill="#FF7E27" stroke="#FF7E27" stroke-width="9.74959" stroke-miterlimit="10" stroke-linecap="round"/>
<path d="M163.403 1981.29C164.036 1979.14 164.768 1979.97 163.403 1981.29V1981.29Z" fill="white"/>
<path d="M1822.42 701.362C1900.45 714.442 1979.94 688.367 2035.06 631.603L1831.51 501.544L1822.42 701.362Z" fill="#FF7E27" stroke="#FF7E27" stroke-width="9.74959" stroke-miterlimit="10" stroke-linecap="round"/>
<path d="M1831.85 476.17V477.292L1832.58 476.146L1832.02 474.708C1831.9 475.195 1831.9 475.683 1831.85 476.17Z" fill="white"/>
<path d="M597.26 213.151C608.631 217.301 619.72 222.186 630.457 227.775C635.759 228.271 640.552 231.138 643.497 235.575C668.164 252.198 684.226 275.231 695.609 316.57C732.925 452.211 757.177 581.32 779.406 706.334C814.481 713.451 850.944 719.374 888.504 724.03L779.748 218.781C779.309 216.783 778.797 214.662 778.261 212.59C762.881 153.215 716.814 109.147 660.924 100.275L227.384 41.168C235.866 61.2116 238.796 83.169 235.867 104.735C233.629 125.852 225.758 145.98 213.077 163.014C246.079 167.474 292.755 172.641 341.503 178.052C433.881 188.289 538.567 199.989 589.436 210.811C592.101 211.385 594.717 212.167 597.26 213.151Z" fill="#FFFEF3"/>
<path d="M1862.27 201.598C1793.94 201.73 1728.84 230.731 1683.05 281.447L1815.74 448.36L1878.53 202.183C1873.14 201.817 1867.73 201.598 1862.27 201.598Z" fill="#FF7E27" stroke="#FF7E27" stroke-width="9.74959" stroke-miterlimit="10" stroke-linecap="round"/>
<path d="M182.073 34.977L178.344 34.4896C176.653 34.2691 175.008 33.7839 173.469 33.0515C168.233 33.2792 163.219 35.2332 159.21 38.6088C146.658 48.1634 137.274 67.6625 134.593 89.5016C131.034 119.019 141.563 154.068 162.33 157.188C168.513 157.829 174.687 155.889 179.392 151.826C191.945 142.247 201.329 122.748 204.01 100.909C207.276 74.2435 199.037 43.0448 182.073 34.977Z" fill="#DDDCD7" stroke="#DDDCD7" stroke-width="9.74959" stroke-miterlimit="10" stroke-linecap="round"/>
<path d="M529.427 831.104L584.195 1918.87L718.106 1969.88L669.748 863.546L529.427 831.104Z" fill="white" stroke="white" stroke-width="7.3122" stroke-miterlimit="10" stroke-linecap="round"/>
<path d="M896.377 760.298C858.5 755.911 821.622 750.256 786.06 743.407L787.377 750.914C805.877 855.503 824.986 963.65 851.163 1076.65C853.062 1084.97 859.173 1091.69 867.275 1094.37C890.966 1102 924.943 1106.99 952.194 1087.71C960.002 1082.07 963.694 1072.32 961.577 1062.93L896.377 760.298Z" fill="#FFFEF3"/>
<path d="M1863 813.994C2063.53 813.994 2226.66 650.859 2226.66 450.334C2226.66 249.809 2063.53 86.7718 1863 86.7718C1749.77 86.7685 1643.02 139.577 1574.31 229.579C1441.89 183 1273.17 157.408 1097.61 157.408C989.315 157.408 897.864 165.573 802.513 183.731C779.187 122.675 727.417 78.4846 665.726 68.7837H665.409L189.97 3.90021C187.1 2.90945 184.147 2.17536 181.147 1.70657C166.403 -0.288913 151.489 3.89149 139.93 13.2598C120.431 28.1036 106.611 55.2318 102.955 85.7968C96.6666 138.055 120.699 183.293 157.675 188.899C160.152 189.266 162.653 189.454 165.157 189.459C168.691 189.448 172.213 189.055 175.663 188.289C177.563 189.538 179.706 190.368 181.951 190.727C213.637 196.04 274.085 202.743 337.945 209.836C429.566 219.976 533.4 231.48 582.684 242.058C583.584 242.265 584.471 242.526 585.341 242.838C523.577 267.578 473.415 296.461 436.001 328.659C387.375 370.656 362.709 416.406 362.709 464.52V465.275L363.123 475.025V475.707C363.415 479.022 363.83 482.313 364.342 485.579C363.412 487.9 362.988 490.393 363.099 492.891L407.216 1461.93L393.542 1463.1C356.298 1466.07 321.443 1469.95 287.466 1486.74C257.981 1501.63 231.833 1522.36 210.615 1547.68C183.316 1579.8 160.136 1619.19 147.559 1661.01C145.331 1658.92 142.382 1657.76 139.321 1657.77C100.055 1656.8 66.5647 1678.56 52.8909 1715.54C43.1413 1741.89 45.0669 1774.3 60.6662 1798.17C25.2021 1823.61 7.79902 1873.38 2.53424 1914.58C-3.33989 1961.52 9.62706 2013.24 58.2775 2030.82C61.3582 2032.09 64.8413 2031.95 67.8078 2030.43C69.9185 2034.29 72.3654 2037.96 75.12 2041.39C92.4011 2062.65 119.237 2072.18 145.805 2074.15C148.554 2074.44 151.318 2073.77 153.629 2072.25C172.323 2087.07 199.013 2089.07 220.876 2079.25C224.227 2077.77 227.295 2075.73 229.944 2073.2C286.491 2068.04 326.781 2027.11 337.189 1971.66C342.238 1945.23 341.255 1918 334.313 1892.01C326.343 1862.59 310.402 1840.82 288.002 1821.98C290.586 1820.64 293.145 1819.18 295.631 1817.57C328.999 1796.44 336.775 1755.59 314.936 1723.22C300.236 1701.36 277.079 1686.63 251.051 1682.59C252.636 1679.49 254.293 1676.44 255.926 1673.49C270.404 1648.61 290.805 1625.5 315.959 1611.05C329.779 1603.1 344.526 1599.93 360.222 1597.79C377.747 1595.35 395.223 1592.57 412.748 1590.31L431.37 1998.81C431.59 2082.64 502.713 2160.22 631.7 2217.28C756.348 2272.41 921.75 2302.78 1097.24 2302.78C1272.74 2302.78 1438.11 2272.41 1562.79 2217.28C1691.72 2160.22 1762.85 2082.66 1763.09 1998.84L1783 1560.91C1791.29 1561.96 1799.53 1563.35 1807.82 1564.52C1826.15 1567.35 1845.62 1568.56 1863.32 1574.27C1892.1 1583.68 1916.01 1608.63 1932.39 1633.25C1936.7 1639.7 1940.62 1646.4 1944.14 1653.31C1918.31 1657.13 1895.25 1671.58 1880.55 1693.16C1858.61 1725.07 1866.17 1765.6 1899.1 1786.74C1901.54 1788.34 1903.97 1789.81 1906.61 1791.15C1884.67 1809.4 1868.83 1830.63 1860.66 1859.39C1853.53 1885.34 1852.42 1912.56 1857.39 1939C1867.31 1994.06 1906.95 2034.84 1962.91 2040.42C1964.87 2042.34 1967.08 2043.98 1969.49 2045.29C1991.68 2056.96 2018.58 2054.85 2038.69 2039.88C2040.99 2041.43 2043.75 2042.13 2046.51 2041.86C2072.84 2040.08 2099.53 2030.74 2116.73 2009.78C2119.48 2006.41 2121.93 2002.81 2124.05 1999.01C2127 2000.53 2130.47 2000.69 2133.55 1999.45C2181.74 1982.39 2195.02 1931.05 2189.39 1884.6C2184.52 1843.65 2167.46 1794.41 2132.36 1769.02C2137.49 1761.46 2141.26 1753.06 2143.47 1744.2C2151.76 1711.57 2142.28 1673.23 2116.66 1650.66C2099.6 1635.71 2077.95 1629.18 2055.48 1629.6C2052.43 1629.57 2049.49 1630.72 2047.27 1632.81C2037.07 1599.38 2021.35 1567.88 2000.76 1539.63C1960.42 1483.57 1903.78 1445.35 1834.41 1437.6C1819.39 1435.92 1804.34 1434.53 1789.27 1433.43L1817.59 811.093C1832.65 812.994 1847.82 813.962 1863 813.994ZM295.461 1759.41C297.703 1778.67 284.492 1795.12 270.746 1807.21C259.948 1816.74 248.175 1824.42 236.622 1833.17C244.788 1833.46 252.961 1832.85 260.996 1831.36C261.945 1833.85 263.586 1836.02 265.725 1837.6C287.661 1854.11 302.285 1873.65 309.305 1900.32C314.812 1921.31 315.644 1943.25 311.743 1964.59C304.26 2004.22 279.666 2036.47 240.863 2045.03C242.594 2027.65 242.277 2010.17 244.178 1992.82C250.954 1997.01 257.876 2001.23 264.481 2005L275.108 2011.02C275.33 2011.1 275.57 2011.1 275.791 2011.02C276.961 2010.83 276.547 2009.56 276.425 2008.83C269.868 1971.78 229.943 1946.02 193.553 1957.18L192.554 1957.5C192.193 1957.63 191.933 1957.95 191.882 1958.33C191.831 1958.71 191.996 1959.08 192.31 1959.3L202.474 1966.08C207.032 1969.05 216.977 1975.44 224.874 1980.46C221.184 1981.79 218.567 1985.09 218.122 1988.99L217.172 1995.79C217.051 1996.88 217.051 1997.97 217.172 1999.06C216.513 2008.81 216.587 2018.85 215.977 2028.74C215.563 2035.47 216.416 2050.95 210.444 2055C205.253 2058.51 193.114 2058.99 187.143 2058.51C178.678 2057.58 170.937 2053.31 165.645 2046.64C156.675 2035.91 156.87 2024.7 158.113 2011.68C158.722 2005.03 159.674 1998.42 160.965 1991.87C161.599 1988.75 162.671 1985.63 163.208 1982.51C163.267 1982.15 163.348 1981.79 163.451 1981.43C174.03 1974.44 166.815 1954.28 151.874 1957.65C134.349 1961.57 133.544 1993.3 132.009 2006.83C130.473 2020.36 130.741 2033.86 135.08 2045.98C120.139 2043.08 105.661 2036.37 95.911 2024.48C81.5791 2007.05 83.139 1984.24 89.4275 1963.91C94.4729 1947.51 68.7827 1940.49 63.7373 1956.84C58.9967 1971.46 57.4019 1986.92 59.0575 2002.2C28.2975 1986.14 24.9339 1944.44 29.6625 1913.14C34.7323 1879.89 49.3079 1836.36 79.7266 1817.67C93.4408 1826.66 109.656 1831.07 126.037 1830.27C142.173 1829.76 142.246 1804.58 126.037 1805.11C90.4756 1806.23 70.3914 1778.06 72.4145 1744.18C74.6812 1707.4 102.979 1682.05 139.467 1682.95C140.389 1682.98 141.312 1682.91 142.222 1682.76C138.465 1700.54 136.991 1718.73 137.834 1736.89C132.936 1732.05 128.758 1726.54 125.428 1720.51C123.579 1717.04 120 1714.83 116.065 1714.74C112.131 1714.64 108.452 1716.68 106.442 1720.07C104.432 1723.45 104.404 1727.65 106.367 1731.07C121.431 1758.24 148.778 1775.89 183.145 1780.76C189.437 1781.63 195.781 1782.06 202.133 1782.06C227.92 1782.06 252.587 1775.04 263.994 1763.6C266.843 1760.87 267.989 1756.81 266.989 1752.99C265.988 1749.16 262.999 1746.18 259.175 1745.2C255.351 1744.21 251.291 1745.37 248.565 1748.22C246.217 1750.28 243.539 1751.93 240.644 1753.1C238.282 1740.56 237.757 1727.74 239.084 1715.05C241.004 1706.99 243.664 1699.13 247.03 1691.56C269.819 1708.76 292.17 1732.02 295.461 1759.41ZM163.354 1981.22C163.987 1979.07 164.719 1979.9 163.354 1981.22V1981.22ZM1956.33 1685.29C1957.59 1697.99 1956.99 1710.81 1954.55 1723.34C1951.69 1722.17 1949.05 1720.52 1946.75 1718.46C1942.56 1714.22 1935.73 1714.17 1931.48 1718.35C1927.23 1722.54 1927.18 1729.38 1931.37 1733.62C1942.73 1745.15 1967.54 1752.27 1993.4 1752.27C1999.4 1752.28 2005.39 1751.89 2011.34 1751.1C2045.46 1746.52 2072.62 1729.16 2087.7 1702.35C2089.73 1698.98 2089.76 1694.78 2087.79 1691.38C2085.82 1687.97 2082.15 1685.91 2078.22 1686C2074.29 1686.08 2070.71 1688.29 2068.89 1691.77C2065.55 1697.73 2061.37 1703.17 2056.48 1707.93C2057.43 1689.96 2056.07 1671.94 2052.43 1654.31C2053.39 1654.5 2054.36 1654.59 2055.34 1654.58C2091.51 1653.9 2119.27 1679.27 2121.32 1715.71C2123.19 1749.25 2102.99 1776.94 2067.82 1775.6C2051.78 1774.99 2051.8 1799.97 2067.82 1800.51C2083.92 1801.34 2099.87 1796.98 2113.32 1788.08C2143.62 1806.55 2158.05 1850.18 2162.8 1883.28C2167.26 1914.38 2163.7 1955.5 2133.14 1971.25C2134.85 1956.1 2133.36 1940.76 2128.75 1926.23C2123.88 1910.02 2098.38 1916.94 2103.33 1933.25C2109.4 1953.4 2110.79 1976.07 2096.45 1993.18C2086.7 2004.88 2072.35 2011.39 2057.46 2014.17C2061.84 2002.2 2062.33 1989.14 2060.75 1975.34C2059.16 1961.55 2058.67 1930.57 2041.25 1926.59C2026.62 1923.21 2019.31 1943.02 2029.69 1950.09V1950.38C2030.2 1953.45 2030.94 1956.47 2031.91 1959.43C2033.13 1965.52 2033.98 1971.61 2034.59 1977.83C2035.96 1991.53 2036.69 2003.18 2027.28 2014.51C2022.08 2021.11 2014.43 2025.32 2006.08 2026.21C1999.84 2026.65 1988.01 2026.21 1982.82 2022.58C1977.17 2018.58 1978.12 2005.05 1977.68 1998.62C1977.05 1989.7 1977.14 1980.78 1976.78 1971.81C1976.91 1971.23 1977 1970.64 1977.05 1970.05C1981.12 1972.71 1985.16 1975.32 1989.23 1977.8L1999.59 1984.09C1999.81 1984.17 2000.04 1984.17 2000.25 1984.09C2001.4 1983.95 2001.05 1982.65 2000.96 1981.95C1995.57 1945.07 1956.82 1918.33 1920.38 1928.32L1919.38 1928.62C1919.01 1928.72 1918.73 1929.03 1918.67 1929.41C1918.61 1929.79 1918.77 1930.18 1919.08 1930.4L1928.83 1937.39C1933.39 1940.58 1943.46 1947.48 1951.26 1952.8C1949.86 1955.09 1949.3 1957.81 1949.7 1960.47C1951.48 1977.68 1950.97 1994.99 1952.67 2012.22C1914.14 2003.62 1889.96 1971.25 1882.87 1931.79C1879.25 1910.78 1880.26 1889.24 1885.81 1868.66C1892.91 1842.16 1907.75 1822.88 1929.47 1806.62C1931.59 1805.08 1933.22 1802.97 1934.17 1800.53C1942.07 1802.04 1950.12 1802.69 1958.16 1802.46C1950.38 1796.34 1942.53 1791.27 1934.98 1785.13C1917.01 1771.11 1897.86 1753.44 1900.32 1729.07C1903.75 1701.99 1926.08 1679.03 1948.75 1662.16C1951.98 1669.62 1954.52 1677.36 1956.33 1685.29ZM1863 121.797C2044.17 121.797 2191.54 269.187 2191.54 450.334C2191.54 631.482 2044.17 778.993 1863 778.993C1848.33 778.991 1833.67 778.014 1819.13 776.068L1821.08 733.292C1834.71 735.331 1848.48 736.341 1862.27 736.314C2015.05 736.314 2139.35 609.277 2139.35 453.137C2139.35 296.997 2015.05 169.96 1862.27 169.96C1709.49 169.96 1585.16 296.997 1585.16 453.137C1585.16 517.265 1606.93 583.977 1643.66 632.822C1630.84 639.143 1617.29 645.237 1603.03 651.103C1558.69 593.558 1534.62 522.975 1534.56 450.334C1534.46 269.187 1681.9 121.797 1863 121.797ZM2035.06 631.603C1979.93 688.367 1900.45 714.442 1822.42 701.362L1831.51 501.495L2035.06 631.603ZM1831.73 477.292V474.708L1832.29 476.146L1831.73 477.292ZM1848.5 448.043L1910.09 206.472C1990.11 222.73 2056.33 278.961 2087.78 353.935L1848.5 448.043ZM2098.21 383.817C2119.79 460.876 2104.17 543.594 2055.97 607.473L1855.4 479.193L2098.21 383.817ZM1628.74 532.816L1792.05 496.523C1778.18 539.567 1736.4 581.588 1671.86 618.027C1652.31 592.555 1637.69 563.656 1628.74 532.816ZM1621.43 502.056C1618.45 485.976 1616.93 469.661 1616.87 453.308C1616.77 400.943 1632.82 349.821 1662.84 306.918L1788.42 464.812L1621.43 502.056ZM1097.68 192.506C1265.4 192.506 1426.32 216.246 1553.67 259.559C1476.09 385.054 1482.14 545.013 1568.98 664.289C1439.31 711.063 1273.08 736.704 1097.68 736.704C1039.07 736.738 980.499 733.793 922.189 727.881L812.189 217.538C904.177 200.208 992.801 192.433 1097.61 192.433L1097.68 192.506ZM992.874 1056.27L978.712 990.462C1019.76 987.22 1062 985.587 1104.51 985.587C1253.68 985.587 1393.66 1005.52 1498.68 1041.65C1596.18 1075.23 1652.24 1119.25 1652.51 1162.47L1652.17 1168.39C1647.63 1210.97 1589.38 1253.97 1492.27 1286.39C1387.98 1321.19 1250.29 1340.37 1104.51 1340.37C964.161 1340.37 831.298 1322.61 728.538 1290.21C727.758 1246.1 725.588 1201.66 723.517 1158.59C721.615 1119.33 719.666 1078.87 718.642 1038.89C746.954 1029.65 775.721 1021.87 804.828 1015.57C809.703 1038.14 814.757 1060.89 819.989 1083.81C824.446 1103.08 838.656 1118.61 857.452 1124.76C873.45 1129.98 890.152 1132.73 906.98 1132.9C929.674 1133.35 951.937 1126.66 970.62 1113.77C988.867 1100.75 997.601 1078.1 992.825 1056.2L992.874 1056.27ZM730.561 2012.32C736.065 2014.42 742.254 2013.61 747.041 2010.18C751.828 2006.75 754.573 2001.14 754.35 1995.25L725.101 1326.19C830.177 1358.22 963.966 1375.74 1104.46 1375.74C1253.92 1375.74 1395.56 1355.95 1503.34 1319.97C1567.32 1298.6 1616.02 1272.42 1647.14 1243.15C1628.13 1489.15 1613.02 1737.74 1598.4 1978.88C1559.18 2053.78 1479.82 2082.93 1408.28 2104.4L1407.79 2104.55C1259.11 2154.05 1109.65 2167.46 963.137 2144.4C945.783 2140.91 928.721 2137.82 912.244 2134.8C852.674 2123.93 796.419 2113.66 741.334 2089.31C733.607 2084.93 725.637 2080.64 717.253 2076.08C665.799 2048.34 612.591 2019.63 610.568 1967.3C610.58 1967.11 610.58 1966.92 610.568 1966.74L730.561 2012.32ZM584.195 1918.99L529.427 831.104L669.748 863.546L718.106 1969.88L584.195 1918.99ZM952.242 1087.84C924.992 1107.12 891.015 1102.12 867.323 1094.49C859.221 1091.81 853.11 1085.09 851.212 1076.77C825.034 963.772 805.925 855.625 787.425 751.036L786.109 743.529C821.671 750.378 858.549 756.033 896.426 760.42L961.626 1063.05C963.679 1072.41 959.973 1082.11 952.193 1087.71L952.242 1087.84ZM204.131 100.909C201.499 122.845 191.944 142.344 179.514 151.826C174.809 155.889 168.635 157.829 162.452 157.188C141.685 154.068 131.156 119.019 134.714 89.5016C137.347 67.565 146.779 48.0659 159.332 38.6088C163.341 35.2332 168.355 33.2792 173.591 33.0515C175.13 33.7839 176.775 34.2691 178.466 34.4896L182.195 34.977C199.037 43.0448 207.276 74.2435 204.131 100.909ZM341.503 178.052C292.755 172.641 246.079 167.474 213.077 163.014C225.758 145.98 233.628 125.852 235.866 104.735C238.796 83.169 235.866 61.2117 227.384 41.168L660.924 100.275C716.814 109.147 762.881 153.215 778.261 212.59C778.797 214.662 779.309 216.783 779.747 218.781L888.577 724.03C851.017 719.374 814.554 713.451 779.479 706.334C757.25 581.32 732.998 452.211 695.682 316.57C684.299 275.134 668.237 252.198 643.57 235.575C640.625 231.138 635.832 228.271 630.53 227.775C619.793 222.186 608.704 217.301 597.333 213.151C594.769 212.131 592.128 211.316 589.435 210.713C538.567 199.891 433.954 188.289 341.503 178.052ZM397.88 464.178C398.148 389.034 482.141 316.277 628.678 263.995C645.301 276.182 656.171 293.512 664.849 324.93C700.727 455.258 723.614 575.153 745.721 698.9C697.786 688.045 650.702 673.724 604.84 656.051C479.241 606.913 403.974 540.225 398.246 473.051L397.88 464.178ZM1753.98 1433.39C1745.34 1434.42 1736.99 1437.11 1729.38 1441.31C1701.38 1457.39 1700.72 1495.59 1706.01 1523.67C1710.39 1547.07 1727.94 1555.04 1748.32 1557.79L1728.21 1997.69V1998.5C1728.21 2032.62 1712.71 2066.01 1682.15 2097.99C1651.09 2130.46 1606.22 2159.83 1548.82 2185.23C1428.56 2238.43 1268.3 2267.73 1097.54 2267.73C926.771 2267.73 766.488 2238.48 646.227 2185.23C588.802 2159.83 543.856 2130.46 512.877 2097.99C482.361 2065.94 466.859 2032.45 466.859 1998.42V1997.69L448.188 1587.67C463.3 1586.33 477.851 1582.8 486.65 1569.42C494.718 1557.23 495.498 1539.41 495.303 1525.18C495.108 1510.04 492.866 1494.3 483.36 1482.01C472.952 1468.44 458.328 1463.1 442.436 1461.46L401.634 565.014C439.462 612.055 504.151 654.491 592.019 688.882C644.147 708.911 697.763 724.827 752.376 736.485C753.545 743.147 754.724 749.809 755.91 756.471C768.804 829.471 782.014 904.178 797.735 981.2C766.829 987.976 737.8 995.824 711.062 1004.48L704.237 848.678C703.903 840.794 698.348 834.103 690.661 832.323L514.656 791.667C509.293 790.43 503.659 791.78 499.44 795.314C495.221 798.849 492.904 804.158 493.183 809.655L549.706 1932.08C550.059 1939.03 554.486 1945.12 560.991 1947.6L580.905 1955.18C577.323 1958.64 575.389 1963.47 575.591 1968.44C578.37 2040.79 646.276 2077.37 700.654 2106.77C709.16 2111.37 717.179 2115.69 724.808 2120.05C725.32 2120.34 725.832 2120.61 726.368 2120.85C785.549 2147.13 844.07 2157.83 906.029 2169.11C922.482 2172.14 939.519 2175.23 956.703 2178.67H957.409C1005.67 2186.3 1054.45 2190.13 1103.31 2190.12C1208.12 2190.12 1313.73 2172.58 1418.74 2137.6C1504.04 2112.01 1588.79 2076.49 1631.5 1991.11C1632.55 1989 1633.17 1986.69 1633.32 1984.34C1649.22 1721.78 1665.69 1450.28 1687.12 1183.06C1687.3 1180.87 1687.06 1178.66 1686.41 1176.56C1686.7 1174.85 1686.92 1173.14 1687.09 1171.44V1170.68L1687.46 1163.83V1162.86C1687.46 1102.7 1624.45 1047.84 1509.99 1008.38C1401.6 971.06 1257.43 950.44 1104.46 950.44C1059.39 950.44 1014.64 952.268 971.205 955.851L929.769 763.857C984.196 769.048 1040.4 771.754 1097.54 771.754C1287.04 771.681 1466.36 742.432 1602.81 689.004C1690.8 654.612 1755.58 612.153 1793.49 565.062L1753.98 1433.39ZM1683.05 281.447C1728.84 230.731 1793.94 201.73 1862.27 201.598C1867.73 201.598 1873.14 201.817 1878.53 202.158L1815.74 448.335L1683.05 281.447Z" fill="black"/>
<path d="M1246 1758.83C1244.14 1783.37 1252.33 1803.65 1266.01 1817.71C1255.77 1847.82 1214.63 1883.72 1147.16 1892.74C1092.27 1900.05 1043.52 1883.72 1006.23 1845.45C999.758 1839.11 989.407 1839.1 982.921 1845.43C976.435 1851.75 976.19 1862.1 982.368 1868.73C1020.34 1907.73 1068.02 1927.81 1121.57 1927.81C1131.6 1927.8 1141.63 1927.11 1151.57 1925.76C1182.17 1921.7 1211.65 1911.58 1238.3 1896C1265.5 1879.75 1284.85 1858.98 1294.84 1835.53C1316.29 1842.48 1341.62 1839.68 1364.06 1823.91C1380.49 1812.13 1393.31 1791.34 1389.95 1770.99C1372.89 1797.8 1338.16 1810.65 1308.71 1804.87C1295.13 1801.95 1283.04 1794.29 1274.59 1783.27C1263.89 1770.14 1257.72 1753.78 1250.56 1737.5C1248.14 1744.39 1246.61 1751.55 1246 1758.83Z" fill="black"/>
<path d="M1018.32 1801.63C1044.79 1801.63 1069.51 1784.79 1087.64 1755.05C1105.24 1783.96 1129.68 1801.63 1157.11 1801.63C1211.92 1801.63 1254.87 1731.09 1254.87 1641.05C1254.87 1551.01 1211.92 1480.48 1157.11 1480.48C1129.68 1480.48 1105.24 1498.12 1087.66 1527.03C1069.58 1497.25 1044.94 1480.48 1018.32 1480.48C963.503 1480.48 920.581 1551.01 920.581 1641.05C920.581 1731.09 963.503 1801.63 1018.32 1801.63ZM1123.74 1526.3H1123.45C1133.51 1515.31 1145.04 1508.94 1157.18 1508.94C1194.74 1508.94 1226.45 1569.42 1226.45 1641.03C1226.45 1712.64 1194.76 1773.11 1157.18 1773.11C1147.21 1773.11 1137.68 1768.82 1129 1761.22C1154.18 1755.02 1173.8 1704.94 1173.8 1644.07C1173.59 1633.37 1172.78 1622.68 1171.36 1612.07L1122.49 1600.52L1166.08 1581.02C1157.01 1548.09 1141.43 1526.3 1123.74 1526.3ZM1018.39 1508.97C1036.36 1508.97 1053.88 1523.2 1067.14 1548.31C1054.95 1575.78 1048.23 1609.46 1048.23 1644.1C1048.23 1677.73 1054.22 1709.49 1065.63 1736.5C1052.59 1759.88 1035.6 1773.06 1018.42 1773.06C1007.77 1773.06 997.578 1768.19 988.438 1759.56C1014.47 1755.37 1035.04 1704.38 1035.04 1642.08C1035.05 1631.43 1034.42 1620.79 1033.16 1610.22L987.243 1599.45L1027.78 1581.17C1019.25 1548.07 1003.99 1525.64 986.341 1524.4C996.018 1514.6 1006.91 1508.97 1018.32 1508.97H1018.39Z" fill="black"/>
</g>
</svg>
