<svg width="2304" height="1870" viewBox="0 0 2304 1870" fill="none" xmlns="http://www.w3.org/2000/svg">
<mask id="mask0_1_255" style="mask-type:luminance" maskUnits="userSpaceOnUse" x="0" y="0" width="2304" height="1870">
<path d="M2304 0H0V1869.74H2304V0Z" fill="white"/>
</mask>
<g mask="url(#mask0_1_255)">
<path d="M257.761 1342.68C253.073 1370.78 275.13 1397.96 306.939 1403.26L938.216 1508.46C970.004 1513.75 999.699 1495.21 1004.39 1467.11L1010.67 1428.79L264.144 1304.38L257.761 1342.68ZM271.552 1104.11C271.133 1104.11 270.735 1104.11 270.317 1104.01L189.205 1090.49C126.006 1080.02 83.043 1020.59 93.4646 958.146L122.385 784.454C127.357 754.29 144.308 727.415 169.387 709.933C194.486 692.208 225.588 685.156 255.877 690.325L338.203 704.032L349.002 639.159L347.788 639.033L219.653 617.667C152.039 606.409 87.5423 653.996 75.9279 723.745L29.889 1000.42C24.1099 1033.83 31.6688 1068.18 50.9413 1096.07C69.6425 1123.43 98.6948 1141.98 131.384 1147.43L260.732 1168.98L271.552 1104.11ZM2221.74 728.056C2208.62 658.558 2143.12 612.373 2075.78 625.096L1948.12 649.183C1947.7 649.183 1947.31 649.309 1946.91 649.35L1959.11 713.972L2041.1 698.487C2071.28 692.68 2102.52 699.061 2128.01 716.232C2153.45 733.184 2170.97 759.695 2176.58 789.748L2209.23 962.687C2220.99 1024.88 2179.3 1085.17 2116.35 1097.06L2035.55 1112.31H2034.32L2046.52 1176.98L2175.37 1152.77C2207.93 1146.62 2236.58 1127.45 2254.68 1099.7C2273.36 1071.42 2280.22 1036.95 2273.76 1003.68L2221.74 728.056ZM1301.97 1452.96L1309.42 1490.98C1312.1 1504.6 1320.47 1516.42 1332.44 1523.46C1345.64 1531.33 1361.3 1534.02 1376.38 1531.02L2005.25 1412.28C2020.4 1409.62 2034.02 1401.41 2043.44 1389.26C2052.04 1378.39 2055.57 1364.36 2053.13 1350.71L2045.91 1312.54L1301.97 1452.96Z" fill="#DDDCD7" stroke="#DDDCD7" stroke-width="8.37072" stroke-miterlimit="10" stroke-linecap="round"/>
<path d="M1891.08 491.667C1871.64 519.052 1842.32 537.811 1809.32 543.984C1778.45 549.802 1734.86 532.286 1711.57 521.299C1710.6 522.89 1709.47 524.668 1708.66 526.28C1696.1 547.793 1670.13 592.555 1600.95 601.888C1594.82 602.717 1588.65 603.13 1582.47 603.123C1528.18 603.123 1474.17 572.151 1451.8 528.833C1447.85 532.328 1443.08 536.325 1437.38 540.991C1423.26 552.585 1407.63 564.513 1403.54 567.401C1374.54 587.93 1323.19 608.564 1280.7 597.515C1305.62 643.253 1291.28 700.455 1247.74 729.04C1229.51 741.271 1208.03 747.778 1186.07 747.727C1179.7 747.725 1173.34 747.193 1167.05 746.137C1165.75 745.927 1164.48 745.655 1163.18 745.383L1297.11 1427.89L2041.35 1287.39L1891.08 491.667ZM1076.71 625.891C1079.69 608.236 1087.36 591.706 1098.91 578.032C1080.99 567.484 1065.26 553.588 1052.58 537.099C1024.27 564.534 983.586 577.09 942.779 570.247C908.459 564.534 869.117 529.189 845.637 508.032L842.665 505.374C819.855 555.598 755.191 591.174 693.876 584.289C624.503 576.441 597.612 532.244 584.575 511.045L581.541 506.148C558.521 517.616 515.307 536.074 484.294 530.905C451.173 525.47 421.463 507.369 401.445 480.429L268.35 1279.12L1014.98 1403.53L1125.89 738.059C1126.25 735.937 1127.14 733.938 1128.46 732.241C1091.36 710.436 1069.51 668.896 1076.71 625.891Z" fill="#FFC545"/>
<path d="M369.351 1196.47L467.624 602.204L522.729 611.317L424.456 1205.58L369.351 1196.47Z" fill="white" stroke="white" stroke-width="8.37072" stroke-miterlimit="10" stroke-linecap="round"/>
<path d="M670.73 987.611C668.318 987.073 665.856 986.793 663.385 986.774C658.866 986.764 654.393 987.683 650.243 989.473C642.792 992.626 636.94 998.668 634.025 1006.21C625.445 1028.42 627.349 1047.4 639.654 1062.72L668.826 990.666C669.265 989.538 669.911 988.502 670.73 987.611ZM708.189 1013.27C704.381 1010.36 700.74 1007.24 697.182 1004.16C693.624 1001.09 690.548 998.472 687.305 996.003C687.201 996.614 687.025 997.211 686.781 997.781L656.082 1073.66C655.725 1074.5 655.261 1075.29 654.701 1076.01C662.006 1080.77 669.917 1084.54 678.222 1087.2L708.043 1013.52L708.189 1013.27ZM724.931 1023.25L697.182 1091.89C706.92 1093.46 716.805 1093.92 726.647 1093.25L751.382 1032.18C742.314 1030.01 733.461 1027.02 724.931 1023.25ZM798.384 812.307C781.852 809.587 767.329 823.921 760.151 832.732C746.234 849.808 736.085 874.167 731.565 901.309C729.582 913.177 728.832 925.218 729.325 937.24C741.748 935.651 754.301 935.357 766.784 936.361C767.057 927.509 767.931 918.685 769.4 909.952C770.938 901.99 772.929 894.122 775.364 886.388L813.242 883.856L783.128 863.787C793.466 841.186 807.194 827.102 820.064 828.211C815.125 820.699 808.01 813.898 798.384 812.307ZM770.677 1035.87L748.976 1089.48C752.345 1088.58 755.693 1087.56 759.021 1086.36C785.598 1076.86 802.569 1061.04 801.753 1052.21C801.272 1047.04 792.692 1040.26 770.677 1035.87ZM732.151 1718.52C715.116 1749.47 714.656 1791.28 730.518 1819.89C779.759 1803.15 811.379 1768.7 853.233 1718.63C874.871 1692.74 899.272 1672.4 923.756 1659.82C945.771 1648.54 967.703 1643.35 989.445 1644.25C969.586 1623.47 938.51 1615.27 907.35 1624.14C876.19 1633.01 847.248 1653.33 822.868 1683.05C821.82 1684.32 820.506 1685.35 819.018 1686.06C810.829 1696.44 803.515 1707.48 797.149 1719.07C795.52 1722.34 792.226 1724.47 788.567 1724.6C784.908 1724.73 781.47 1722.85 779.611 1719.69C777.751 1716.54 777.768 1712.62 779.654 1709.48C785.065 1699.65 791.097 1690.18 797.714 1681.12C766.994 1686 744.937 1695.25 732.151 1718.52Z" fill="white" stroke="white" stroke-width="8.37072" stroke-miterlimit="10" stroke-linecap="round"/>
<path d="M978.354 73.2146C992.743 75.6128 1006.35 65.8922 1008.75 51.503C1011.15 37.1139 1001.43 23.5051 987.039 21.1069C985.601 20.8655 984.144 20.7465 982.686 20.7511C968.939 20.745 957.486 31.2866 956.354 44.9875C955.223 58.6884 964.792 70.9657 978.354 73.2146Z" fill="#FFFDEB"/>
<path d="M404.374 1615.58C403.983 1614.74 403.708 1613.84 403.558 1612.92C377.4 1599.11 382.631 1571.97 385.31 1560.04C379.246 1558.41 373.352 1556.21 367.71 1553.45C364.195 1551.86 360.888 1550.37 357.624 1549.27C345.969 1545.39 333.489 1544.71 321.483 1547.3C283.815 1554.92 268.183 1589.72 266.341 1617.19C261.884 1683.24 294.006 1750.69 344.44 1781.22C385.582 1806.12 439.447 1809.85 481.678 1790.76C500.784 1782.12 514.91 1765.06 518.551 1746.27C520.643 1735.01 520.099 1718.23 504.76 1702.32C495.071 1692.2 484.587 1690.9 471.277 1689.24C463.899 1688.5 456.602 1687.1 449.471 1685.06C444.616 1685.37 439.259 1685.79 435.764 1686.19C429.486 1686.9 423.208 1687.82 416.93 1688.97C409.862 1690.25 402.875 1691.94 396.003 1694.04C398.751 1691.21 401.68 1688.57 404.772 1686.13C414.482 1678.45 420.237 1673.57 427.666 1670.89C419.881 1660.43 414.67 1645.01 409.92 1630.82C407.827 1624.71 405.923 1618.99 404.374 1615.58Z" fill="white" stroke="white" stroke-width="8.37072" stroke-miterlimit="10" stroke-linecap="round"/>
<path d="M1145.77 189.379C1177.42 188.181 1202.26 161.84 1201.61 130.177C1200.96 98.5139 1175.05 73.2156 1143.38 73.3192H1140.93C1108.89 74.6541 1083.99 101.717 1085.32 133.766C1086.66 165.815 1113.72 190.714 1145.77 189.379Z" fill="#FFFDEB"/>
<path d="M1922.59 1704.84C1915.68 1702.87 1908.66 1701.33 1901.56 1700.21C1895.23 1699.18 1888.91 1698.38 1882.6 1697.82C1879.11 1697.51 1873.75 1697.22 1868.87 1696.99C1861.79 1699.18 1854.53 1700.73 1847.17 1701.61C1833.93 1703.56 1823.46 1705.09 1813.98 1715.42C1799 1731.73 1798.75 1748.53 1801.15 1759.75C1805.19 1778.46 1819.67 1795.2 1838.97 1803.42C1881.6 1821.61 1935.38 1816.71 1975.98 1790.87C2025.74 1759.27 2056.42 1691.13 2050.54 1625.19C2048.09 1597.75 2031.81 1563.31 1993.91 1556.48C1981.81 1554.18 1969.32 1555.17 1957.73 1559.33C1954.51 1560.5 1951.2 1562.09 1947.73 1563.75C1942.15 1566.62 1936.31 1568.95 1930.29 1570.72C1933.27 1582.58 1939.04 1609.6 1913.18 1623.97C1913.03 1624.89 1912.78 1625.79 1912.42 1626.65C1910.94 1630.08 1909.16 1635.84 1907.25 1641.91C1902.82 1656.18 1897.94 1671.81 1890.36 1682.36C1897.86 1684.89 1903.72 1689.64 1913.59 1697.11C1916.77 1699.47 1919.78 1702.06 1922.59 1704.84ZM901.93 829.551C889.06 827.458 874.725 835.557 862.169 852.005C867.798 874.041 868.551 899.969 864.261 925.73C861.948 939.807 858.102 953.589 852.793 966.831C855.723 968.421 858.611 970.137 861.457 971.937C864.596 971.497 867.735 971.162 870.979 970.89C869.913 955.801 870.671 940.638 873.239 925.73C874.544 917.788 876.333 909.933 878.596 902.209L914.172 899.823L886.214 881.156C896.342 858.325 909.924 843.697 922.752 843.886C916.976 836.017 909.965 830.89 901.93 829.551Z" fill="white" stroke="white" stroke-width="8.37072" stroke-miterlimit="10" stroke-linecap="round"/>
<path d="M1342.48 474.088C1335.7 513.476 1313.49 548.531 1280.77 571.482C1296.55 577.467 1314.25 576.253 1327.64 573.574C1349.8 569.007 1370.8 560.002 1389.38 547.102C1399.4 540.008 1437.38 509.999 1444.42 501.586C1446.17 496.431 1451.09 493.032 1456.53 493.22C1461.97 493.408 1466.65 497.139 1468.04 502.402C1480.39 549.069 1542.21 584.749 1597.79 577.258C1654.98 569.536 1675.22 534.588 1687.44 513.724C1693.55 503.26 1697.9 495.601 1706.69 493.948C1709.68 493.399 1712.77 493.941 1715.4 495.476C1744.11 509.852 1782.7 523.748 1804.88 519.562C1837.06 513.473 1864.63 492.964 1878.58 464.692C1880.36 461.111 1883.75 458.608 1887.7 457.972C1891.64 457.337 1895.65 458.647 1898.46 461.491C1915.11 478.037 1938.89 485.222 1961.91 480.659C1980.01 477.393 1996.16 467.293 2007.01 452.45C2017.4 438.439 2021.5 420.737 2018.31 403.586C2014.13 381.508 1998.39 363.49 1976.19 355.454C1969.89 353.168 1966.57 346.278 1968.69 339.927C1989.11 278.968 1964.98 211.967 1910.37 178.037C1876.14 156.27 1834.85 148.486 1795.04 156.294C1760.15 162.786 1728.39 180.662 1704.74 207.125C1701.52 210.745 1696.47 212.14 1691.84 210.692C1687.21 209.244 1683.86 205.221 1683.27 200.408C1682.9 197.018 1682.48 194.13 1682 191.639C1675.45 157.428 1654.98 127.474 1625.49 108.937C1594.8 89.4107 1557.77 82.4351 1522.07 89.4539C1453.81 102.324 1411.16 156.692 1407.9 234.853C1407.71 239.139 1405.32 243.024 1401.58 245.118C1397.83 247.212 1393.27 247.216 1389.52 245.128C1338.69 216.731 1285.77 210.181 1244.33 227.194C1215.85 238.892 1194.11 261.64 1180.84 293.469C1189.92 293.485 1198.99 294.241 1207.94 295.729C1295.98 310.315 1356.31 390.381 1342.48 474.088Z" fill="#FFFDEB"/>
<path d="M1539.3 1728.57C1540.62 1730.85 1540.98 1733.58 1540.3 1736.13C1539.62 1738.69 1537.95 1740.87 1535.66 1742.19C1534.14 1743.07 1532.43 1743.54 1530.68 1743.53C1527.11 1743.53 1523.81 1741.63 1522.03 1738.53C1515.4 1727.09 1507.84 1716.21 1499.43 1706.01C1497.92 1705.34 1496.59 1704.33 1495.52 1703.08C1470.41 1673.88 1440.84 1654.15 1409.72 1646.01C1378.6 1637.87 1347.5 1646.66 1328.1 1667.86C1349.76 1666.5 1371.86 1671.21 1394.09 1682.02C1418.86 1694.08 1443.68 1713.88 1465.86 1739.3C1508.79 1788.46 1541.2 1822.26 1590.71 1837.91C1605.97 1808.97 1604.61 1767.18 1586.93 1736.58C1573.64 1713.56 1551.35 1704.83 1520.57 1700.61C1527.4 1709.52 1533.66 1718.86 1539.3 1728.57Z" fill="white" stroke="white" stroke-width="8.37072" stroke-miterlimit="10" stroke-linecap="round"/>
<path d="M1771.89 625.911L1826.76 615.493L1939.11 1207.26L1884.24 1217.68L1771.89 625.911Z" fill="white" stroke="white" stroke-width="8.37072" stroke-miterlimit="10" stroke-linecap="round"/>
<path d="M1613.96 1061.06C1624.32 1039.91 1629.01 1012.07 1627.17 982.672C1626.83 977.4 1626.29 972.144 1625.54 966.915L1584.75 969.489C1585.27 973.841 1585.73 978.257 1586.01 982.798C1586.36 991.476 1586.22 1000.17 1585.59 1008.83L1546.62 1020.74L1582.91 1034.4C1577.63 1060.16 1566.92 1078.08 1553.46 1080.44C1561.84 1088.08 1570.83 1091.97 1579.35 1091.43C1597.05 1090.28 1608.63 1071.9 1613.96 1061.06Z" fill="white" stroke="white" stroke-width="8.37072" stroke-miterlimit="10" stroke-linecap="round"/>
<path d="M1323.31 754.968C1321.17 754.619 1319 754.444 1316.82 754.445C1295.82 754.501 1278.6 771.11 1277.78 792.096C1276.97 813.083 1292.85 830.979 1313.78 832.668C1334.71 834.356 1353.26 819.235 1355.81 798.389C1358.37 777.543 1344.03 758.389 1323.31 754.968ZM1233.93 708.468C1251.58 696.871 1263.61 678.457 1267.14 657.637C1271.6 630.935 1261.33 603.981 1239.65 585.544C1236.41 582.794 1234.81 578.573 1235.42 574.369C1236.03 570.165 1238.76 566.569 1242.64 564.848C1282.9 546.997 1311.05 511.568 1317.97 470.029C1329.69 399.756 1278.47 332.456 1203.78 320.004C1192.49 318.146 1181.03 317.626 1169.63 318.456C1166.53 320.763 1162.54 321.491 1158.83 320.423C1158.32 320.276 1157.82 320.094 1157.34 319.879C1130.04 324.069 1104.65 336.403 1084.47 355.266C1080.25 359.304 1073.77 359.825 1068.95 356.516C1064.14 353.207 1062.3 346.973 1064.55 341.58C1067.32 334.909 1069.32 327.944 1070.52 320.821C1074.87 294.325 1068.02 267.212 1051.6 245.965C1014.59 198.279 946.374 188.673 897.639 224.285C893.722 227.235 888.431 227.587 884.158 225.183C879.884 222.778 877.439 218.073 877.926 213.194C884.707 145.015 833.729 82.2551 761.866 70.264C726.024 64.028 689.156 71.8047 658.886 91.986C629.773 111.137 609.928 141.526 604.099 175.882C603.66 178.456 603.325 181.239 602.99 184.671C602.535 189.523 599.267 193.654 594.65 195.214C590.032 196.774 584.929 195.472 581.624 191.891C557.41 165.944 525.28 148.753 490.258 143.006C406.383 129.026 327.447 181.908 314.284 260.865C310.429 284.174 312.59 308.081 320.562 330.321C322.831 336.623 319.653 343.583 313.405 345.995C291.369 354.555 276.009 372.907 272.326 395.069C269.509 412.285 273.982 429.897 284.673 443.682C295.852 458.268 312.205 468.007 330.356 470.887C353.53 475.03 377.245 467.355 393.597 450.42C396.345 447.519 400.327 446.124 404.285 446.677C408.243 447.229 411.691 449.66 413.54 453.203C428.189 481.183 456.105 501.084 488.395 506.483C510.682 510.187 548.957 495.476 577.355 480.471C579.929 478.901 582.976 478.293 585.956 478.755C594.787 480.22 599.37 487.733 605.711 498.112C618.267 518.725 639.34 553.234 696.679 559.721C752.366 565.999 813.43 529.021 824.751 482.103C826.087 476.552 831.054 472.641 836.763 472.644C843.293 472.644 847.227 476.244 862.189 489.637C882.279 507.697 919.654 541.305 946.838 545.825C984.507 552.103 1021.74 538.208 1044.15 509.559C1046.49 506.572 1050.08 504.829 1053.88 504.83H1054.57C1058.61 505.057 1062.28 507.245 1064.41 510.689C1078.8 533.895 1099.76 552.301 1124.63 563.571C1128.48 565.339 1131.16 568.953 1131.72 573.149C1132.29 577.345 1130.67 581.54 1127.44 584.268C1113.43 595.789 1104.07 611.996 1101.09 629.888C1093.93 672.851 1125.36 714.014 1171.17 721.631C1193.01 725.456 1215.48 720.744 1233.93 708.468Z" fill="#FFFDEB"/>
<path d="M1482.29 975.934L1472.31 976.562C1472.94 981.417 1473.44 986.356 1473.78 991.441C1474.28 1000.06 1474.28 1008.71 1473.78 1017.33L1437.17 1028.44L1470.93 1041.16C1465.97 1067.03 1455.61 1085.36 1442.49 1088.79C1450.46 1095.57 1458.9 1099 1466.89 1098.48C1473.98 1098.02 1480.81 1094.69 1487.21 1088.54C1493.69 1081.97 1498.9 1074.27 1502.59 1065.81C1491.42 1044.11 1484.34 1017.24 1482.59 989.285C1482.42 984.807 1482.31 980.35 1482.29 975.934Z" fill="white" stroke="white" stroke-width="8.37072" stroke-miterlimit="10" stroke-linecap="round"/>
<path d="M1604.23 906.583C1597.81 896.789 1584.69 880.759 1567.78 880.759H1566.08C1546.22 882.014 1526.82 907.503 1520.23 947.076L1619.8 940.798C1616.28 928.707 1611.03 917.184 1604.23 906.583ZM1491.92 913.718C1481.04 897.103 1467.98 887.832 1455.36 887.832H1453.75C1436.02 888.941 1424.45 907.315 1419.14 918.176C1413.72 929.573 1409.96 941.687 1407.98 954.149L1483.82 949.357C1485.28 937.229 1487.99 925.285 1491.92 913.718Z" fill="#FFC545"/>
<path d="M905.843 806.155C886.025 802.848 865.663 811.973 848.462 831.267C838.417 807.138 822.157 792.134 802.423 788.827C781.496 785.312 759.92 795.566 741.923 817.665C725.433 837.88 713.505 866.173 708.315 897.333C705.19 915.536 704.732 934.098 706.955 952.433C707.372 955.7 709.129 958.645 711.803 960.566C714.478 962.487 717.831 963.21 721.059 962.562C739.956 958.72 759.397 958.373 778.42 961.536H778.859C794.923 963.566 810.426 968.751 824.48 976.792C825.681 977.466 826.991 977.927 828.351 978.152C829.161 979.286 830.176 980.258 831.344 981.019C833.562 982.505 835.717 984.033 837.789 985.602C838.322 986.006 838.889 986.363 839.484 986.669C843.813 988.918 848.005 991.42 852.04 994.161C854.002 995.519 856.33 996.248 858.716 996.254C859.367 996.257 860.018 996.208 860.662 996.107C867.398 994.976 874.199 994.277 881.024 994.015C881.407 994.036 881.791 994.036 882.175 994.015C895.134 992.279 908.26 992.173 921.245 993.701C922.273 993.837 923.314 993.837 924.342 993.701C928.632 993.073 932.504 992.634 936.208 992.382C940.611 992.077 944.481 989.352 946.253 985.309C952.612 970.632 957.132 955.225 959.708 939.438C970.967 871.572 947.32 813.082 905.843 806.155ZM783.128 863.787L813.179 883.835L775.364 886.388C772.964 894.125 771.008 901.992 769.505 909.952C768.035 918.686 767.161 927.509 766.889 936.361C754.406 935.357 741.852 935.652 729.43 937.24C728.943 925.217 729.7 913.176 731.69 901.309C736.21 874.104 746.339 849.808 760.276 832.732C767.454 823.922 781.977 809.587 798.509 812.307C808.073 813.898 815.104 820.678 820.127 828.191C807.194 827.123 793.466 841.207 783.128 863.787ZM886.13 881.136L914.088 899.802L878.513 902.188C876.25 909.912 874.461 917.767 873.155 925.71C870.588 940.617 869.829 955.78 870.895 970.87C867.693 971.142 864.513 971.477 861.374 971.916C858.527 970.116 855.64 968.4 852.71 966.81C858.011 953.568 861.85 939.786 864.157 925.71C868.447 899.949 867.693 874.02 862.064 851.984C874.725 835.536 889.039 827.396 901.825 829.53C909.861 830.869 916.871 835.996 922.563 843.865C909.84 843.698 896.258 858.325 886.13 881.156V881.136ZM769.212 1015.99C768.961 1015.86 768.731 1015.69 768.479 1015.59C766.952 1014.99 765.294 1014.78 763.666 1015C752.113 1012.93 740.864 1009.41 730.183 1004.54C723.236 1001.26 716.665 995.584 709.717 989.599C701.597 982.61 693.206 975.39 683.349 971.414C670.24 966.117 655.56 966.268 642.563 971.832C630.381 977.004 620.81 986.885 616.028 999.225C601.609 1036.48 613.454 1061.75 625.947 1076.4C638.44 1091.05 657.798 1102.27 681.403 1108.21C693.486 1111.26 705.899 1112.8 718.36 1112.82C728.076 1112.84 737.769 1111.85 747.281 1109.87C753.463 1108.53 759.552 1106.79 765.508 1104.65C794.659 1094.19 823.119 1073.45 820.985 1050.54C819.311 1033.11 801.92 1021.53 769.212 1015.99ZM634.088 1006.09C637.003 998.542 642.855 992.501 650.306 989.348C654.455 987.557 658.928 986.638 663.448 986.649C665.919 986.667 668.381 986.948 670.793 987.486C669.986 988.339 669.341 989.332 668.889 990.415L639.717 1062.59C627.412 1047.32 625.508 1028.33 634.088 1006.09ZM678.222 1087.16C669.917 1084.49 662.006 1080.73 654.7 1075.96C655.261 1075.25 655.725 1074.46 656.082 1073.62L686.781 997.719C687.025 997.149 687.201 996.552 687.304 995.94C690.548 998.409 693.813 1001.21 697.182 1004.1C700.551 1006.99 704.381 1010.38 708.189 1013.2L708.043 1013.46L678.222 1087.16ZM726.647 1093.12C716.805 1093.8 706.92 1093.34 697.182 1091.76L724.931 1023.25C733.464 1026.99 742.317 1029.95 751.382 1032.1L726.647 1093.12ZM759.021 1086.32C755.693 1087.52 752.345 1088.54 748.976 1089.44L770.677 1035.83C792.692 1040.22 801.272 1047 801.753 1052.17C802.569 1061.04 785.598 1076.86 759.021 1086.36V1086.32ZM1689.57 1024.38C1687.98 1031.28 1687.52 1038.4 1688.21 1045.45C1690.47 1064.83 1697.96 1078.25 1707.99 1086.32C1699.41 1100.97 1684.78 1114.99 1672.85 1126.42C1658.2 1140.44 1619.47 1177.63 1589.94 1178.92C1582.84 1179.32 1577.33 1185.26 1577.48 1192.37C1577.64 1199.48 1583.4 1205.18 1590.5 1205.27H1591.09C1626.06 1203.74 1662.91 1172.5 1691.1 1145.46C1705.18 1131.96 1722.66 1115.18 1732.95 1095.76C1759.3 1097.14 1788.12 1076.07 1792.45 1038.8C1774.14 1055 1758.36 1072.05 1733.85 1071.55C1711.65 1069.31 1700.06 1041.67 1689.57 1024.38ZM1581.05 1117.73C1604.07 1116.27 1624.13 1100.28 1637.67 1072.66C1650.04 1047.55 1655.67 1014.92 1653.54 981.019C1651.4 947.118 1641.73 915.539 1626.33 892.08C1609.44 866.382 1587.51 853.052 1564.49 854.412C1542.44 855.814 1523.6 870.777 1510.59 894.278C1494.3 871.97 1473.48 860.167 1452.16 861.485C1429.14 862.929 1409.05 878.938 1395.51 906.541C1383.16 931.653 1377.53 964.299 1379.67 998.2C1384.19 1070.19 1421.52 1124.85 1465.47 1124.83H1468.79C1490.27 1123.49 1509.31 1109.17 1522.66 1085.07C1537.73 1105.64 1557.02 1117.92 1577.82 1117.92C1578.77 1117.84 1579.9 1117.8 1581.05 1117.73ZM1407.98 954.191C1409.96 941.722 1413.72 929.601 1419.14 918.197C1424.45 907.336 1436.02 888.899 1453.75 887.853H1455.36C1467.92 887.853 1481.04 897.124 1491.92 913.74C1487.99 925.286 1485.28 937.208 1483.82 949.315L1407.98 954.191ZM1487.31 1088.54C1480.91 1094.69 1474.09 1098.02 1466.99 1098.48C1459 1099 1450.57 1095.57 1442.59 1088.79C1455.72 1085.36 1466.07 1067.03 1471.03 1041.16L1437.28 1028.44L1473.88 1017.33C1474.38 1008.71 1474.38 1000.06 1473.88 991.441C1473.54 986.356 1473.04 981.417 1472.42 976.562L1482.4 975.934C1482.4 980.35 1482.52 984.807 1482.79 989.285C1484.55 1017.24 1491.63 1044.11 1502.8 1065.81C1499.08 1074.28 1493.83 1081.98 1487.31 1088.54ZM1520.23 947.118C1526.82 907.545 1546.22 882.056 1566.08 880.801H1567.78C1584.69 880.801 1597.81 896.831 1604.23 906.624C1611.04 917.239 1616.28 928.776 1619.8 940.882L1520.23 947.118ZM1553.46 1080.42C1566.92 1078.02 1577.63 1060.1 1582.91 1034.38L1546.62 1020.74L1585.59 1008.89C1586.22 1000.23 1586.36 991.539 1586.01 982.861C1585.73 978.32 1585.27 973.904 1584.75 969.551L1625.54 966.977C1626.27 972.146 1626.83 977.441 1627.17 982.735C1629.01 1012.14 1624.32 1039.97 1613.96 1061.13C1608.63 1071.97 1597.05 1090.42 1579.35 1091.47C1570.83 1091.89 1561.86 1088.06 1553.46 1080.42ZM1326.68 734.585C1294.08 729.153 1263.25 751.176 1257.82 783.774C1252.39 816.372 1274.41 847.201 1307.01 852.633C1310.3 853.181 1313.63 853.461 1316.97 853.47C1348.08 853.398 1373.95 829.501 1376.48 798.492C1379.02 767.483 1357.37 739.705 1326.68 734.585ZM1355.56 800.065C1352.13 820.606 1333.25 834.887 1312.55 832.599C1291.85 830.311 1276.54 812.251 1277.68 791.457C1278.82 770.663 1296 754.379 1316.82 754.361C1319 754.36 1321.17 754.535 1323.31 754.884C1344.68 758.481 1359.1 778.69 1355.56 800.065ZM975.194 92.5092C977.698 92.9234 980.232 93.1334 982.77 93.137C1005.23 93.0995 1024.38 76.8639 1028.1 54.7154C1031.19 36.3402 1022.89 17.9153 1007.09 8.04165C991.289 -1.83199 971.094 -1.20738 955.933 9.62394C940.771 20.4553 933.633 39.3574 937.851 57.5067C942.069 75.656 956.81 89.4736 975.194 92.5092ZM956.695 42.8081C958.846 30.0904 969.85 20.7745 982.749 20.7512C984.207 20.7466 985.663 20.8656 987.102 21.107C1001.49 23.5132 1011.2 37.1236 1008.79 51.5083C1006.39 65.893 992.779 75.6059 978.394 73.2036C964.009 70.8013 954.295 57.1934 956.695 42.8081Z" fill="#090100"/>
<path d="M2248.17 723.055C2232.31 638.992 2152.72 583.201 2070.77 598.645L1943.12 622.753C1942.72 622.753 1942.33 622.92 1941.93 623.045L1919.14 502.256C1934.49 507.03 1950.77 507.95 1966.56 504.935C1990.86 500.502 2012.53 486.895 2027.08 466.932C2042.46 446.139 2047.81 419.592 2041.69 394.465C2035.57 369.338 2018.61 348.224 1995.4 336.83C2001.44 313.582 2002.27 289.287 1997.84 265.679C1989.47 220.958 1963.11 182.432 1923.79 157.173C1884.24 131.979 1836.52 122.944 1790.5 131.935C1758.22 138.003 1728.1 152.492 1703.22 173.936C1693.03 138.345 1670.09 107.759 1638.76 88.0311C1602.76 65.06 1559.3 56.8177 1517.39 65.0116C1476.24 72.7754 1442.05 93.5976 1418.65 125.218C1400.43 149.786 1388.81 180.444 1384.65 214.764C1332.33 190.217 1278.59 186.241 1234.85 204.3C1196.6 219.995 1168.62 251.428 1153.45 295.52C1133.21 298.714 1113.73 305.647 1096.03 315.966C1098.72 285.565 1089.85 255.267 1071.21 231.108C1050.33 203.723 1019.72 185.412 985.721 179.962C957.528 175.209 928.554 179.432 902.892 192.037C898.539 120.509 842.205 58.587 765.864 45.8636C723.797 38.5699 680.537 47.7255 645.032 71.4361C614.14 91.84 591.855 122.917 582.44 158.722C557.093 137.81 526.672 123.964 494.255 118.584C396.924 102.387 305.244 164.351 289.842 256.701C285.921 280.387 287.279 304.647 293.818 327.747C270.861 339.645 254.366 361.116 248.786 386.363C243.205 411.611 249.114 438.033 264.918 458.498C279.898 478.144 301.859 491.279 326.254 495.183C342.081 497.893 358.331 496.664 373.57 491.604L353.375 612.833C352.976 612.727 352.571 612.644 352.162 612.582L224.027 591.216C141.785 577.509 63.4137 635.016 49.33 719.392L3.29106 996.086C-3.61542 1036.4 5.5582 1077.81 28.8427 1111.44C51.6758 1144.78 87.1212 1167.37 126.989 1173.99L256.317 1195.54L232.502 1338.47C225.492 1380.51 257.008 1420.9 302.733 1428.46L490.844 1459.85C489.517 1461.28 488.593 1463.04 488.165 1464.95C485.089 1479.14 473.642 1501.26 464.622 1510.49C456.063 1519.26 443.423 1524.13 430.135 1528.74C427.184 1529.74 424.15 1530.83 421.22 1532.06C410.589 1536.25 399.582 1540.43 390.855 1538.34C386.06 1537.01 381.401 1535.23 376.939 1533.03C373.089 1531.29 369.112 1529.49 364.843 1528.02C349.456 1522.86 332.963 1521.92 317.088 1525.3C270.233 1534.76 246.649 1577.45 244.096 1615.56C241.916 1651.33 248.556 1687.09 263.432 1719.69C279.378 1754.6 303.402 1782.47 332.888 1800.32C360.301 1816.64 391.624 1825.21 423.522 1825.12C446.716 1825.27 469.676 1820.49 490.885 1811.1C516.479 1799.53 535.46 1776.32 540.44 1750.54C544.939 1727.29 537.992 1704.67 520.874 1686.82C505.702 1670.98 488.897 1668.88 474.06 1667.02C464.957 1665.89 456.356 1664.93 448.488 1660.62C442.21 1657.27 434.676 1634.6 431.014 1623.7C429.8 1620.08 428.691 1616.73 427.603 1613.72C466.82 1599.07 561.869 1559.83 570.533 1474.6C570.564 1474.13 570.564 1473.66 570.533 1473.2L694.419 1493.85C694.856 1495.19 695.569 1496.42 696.512 1497.47C730.33 1535.89 762.766 1586.81 746.946 1673.36C746.955 1673.45 746.955 1673.54 746.946 1673.63C732.409 1681.42 720.465 1693.28 712.584 1707.76C691.113 1746.81 691.657 1800.6 713.881 1835.67C715.931 1838.9 719.492 1840.86 723.319 1840.86C724.343 1841.67 725.516 1842.28 726.772 1842.64C743.514 1847.51 765.236 1849.36 787.899 1849.36C828.037 1849.36 870.958 1843.56 893.538 1838.35C929.406 1829.98 954.979 1819.7 976.408 1804.74C999.784 1788.34 1017.27 1764.87 1026.28 1737.77C1035.19 1711.77 1034.19 1683.38 1023.47 1658.06C1023.53 1656.22 1023.13 1654.38 1022.3 1652.73C1000.66 1609.03 950.856 1588.42 901.155 1602.61C874.453 1610.23 849.027 1625.21 826.426 1646.43C829.795 1599.26 827.493 1553.99 793.864 1510.4L933.927 1533.76C938.893 1534.58 943.918 1534.99 948.952 1534.99C988.713 1534.99 1023.33 1508.71 1029.56 1471.33L1144.32 782.717L1284.26 1495.78C1288.29 1516.49 1300.98 1534.5 1319.15 1545.25C1332.7 1553.5 1348.27 1557.85 1364.14 1557.8C1369.88 1557.81 1375.6 1557.27 1381.24 1556.19L1520.76 1529.87C1488.07 1574.25 1486.75 1619.56 1491.12 1666.66C1468.1 1645.91 1442.32 1631.49 1415.47 1624.43C1365.5 1611.33 1316.13 1632.99 1295.44 1677.15C1294.69 1678.78 1294.34 1680.57 1294.43 1682.36C1284.25 1707.9 1283.87 1736.3 1293.34 1762.11C1302.91 1789.01 1320.87 1812.12 1344.57 1828.03C1366.32 1842.53 1392.1 1852.35 1428.15 1859.86C1449.08 1864.21 1487.27 1868.69 1524.56 1868.69C1550.53 1868.69 1576.09 1866.6 1594.96 1860.57C1596.22 1860.19 1597.39 1859.55 1598.39 1858.71C1602.21 1858.63 1605.73 1856.6 1607.71 1853.33C1629.18 1817.76 1628.63 1764 1606.26 1725.43C1598.12 1711.09 1585.96 1699.45 1571.27 1691.94C1571.27 1691.94 1571.27 1691.76 1571.27 1691.67C1561.35 1643.31 1559.16 1584.46 1617.94 1514.76C1618.84 1513.68 1619.5 1512.42 1619.89 1511.07L1743.35 1487.78C1743.32 1488.25 1743.32 1488.72 1743.35 1489.18C1753.82 1574.21 1849.7 1611.38 1889.23 1625.21C1888.21 1628.26 1887.14 1631.63 1886.03 1635.27C1882.62 1646.24 1875.57 1669.07 1869.29 1672.55C1861.53 1676.92 1852.95 1678.17 1843.87 1679.51C1829.07 1681.61 1812.33 1684.14 1797.49 1700.29C1780.75 1718.52 1774.3 1741.29 1779.29 1764.43C1784.81 1790.09 1804.4 1812.9 1830.14 1823.93C1850.36 1832.36 1872.08 1836.63 1893.99 1836.49C1927.17 1836.56 1959.71 1827.28 1987.86 1809.72C2016.95 1791.24 2040.37 1762.84 2055.58 1727.6C2069.73 1694.73 2075.61 1658.89 2072.7 1623.22C2069.31 1585.18 2044.85 1543.01 1997.8 1534.55C1981.86 1531.51 1965.39 1532.81 1950.11 1538.3C1946.02 1539.85 1942.01 1541.61 1938.1 1543.57C1933.69 1545.88 1929.08 1547.76 1924.31 1549.18C1915.64 1551.38 1904.55 1547.36 1893.82 1543.49C1890.87 1542.4 1887.81 1541.29 1884.84 1540.35C1871.45 1536.04 1858.72 1531.44 1849.96 1522.86C1840.75 1513.82 1828.84 1491.95 1825.45 1477.82C1824.99 1475.92 1824.03 1474.18 1822.67 1472.78L2010.05 1437.45C2031.44 1433.6 2050.64 1421.93 2063.91 1404.7C2076.91 1388.08 2082.16 1366.67 2078.33 1345.92L2051.46 1203.62L2180.31 1179.28C2220.02 1171.82 2254.97 1148.47 2277.07 1114.64C2299.62 1080.52 2307.89 1038.91 2300.09 998.765L2248.17 723.055ZM427.54 1670.81C420.111 1673.51 414.356 1678.36 404.646 1686.04C401.554 1688.49 398.625 1691.13 395.878 1693.95C402.749 1691.86 409.737 1690.17 416.805 1688.89C423.083 1687.74 429.361 1686.8 435.639 1686.11C439.133 1685.71 444.491 1685.29 449.346 1684.98C456.476 1687.01 463.774 1688.41 471.151 1689.16C484.44 1690.81 494.924 1692.11 504.634 1702.24C519.974 1718.23 520.602 1735.01 518.425 1746.19C514.784 1765.02 500.658 1782.03 481.552 1790.68C439.322 1809.76 385.456 1806.04 344.314 1781.13C294.048 1750.66 261.883 1683.22 266.341 1617.15C268.182 1589.68 283.731 1554.87 321.483 1547.26C333.489 1544.67 345.969 1545.35 357.624 1549.22C360.888 1550.35 364.195 1551.84 367.71 1553.41C373.352 1556.17 379.245 1558.37 385.31 1560C382.589 1571.93 377.399 1599.07 403.558 1612.88C403.708 1613.8 403.983 1614.7 404.374 1615.54C405.923 1618.95 407.827 1624.66 409.857 1630.69C414.607 1644.92 419.818 1660.43 427.603 1670.81H427.54ZM1907.27 1641.91C1909.18 1635.84 1910.96 1630.08 1912.44 1626.65C1912.8 1625.79 1913.06 1624.89 1913.2 1623.97C1939.06 1609.6 1933.29 1582.58 1930.31 1570.72C1936.33 1568.95 1942.17 1566.62 1947.75 1563.75C1951.22 1562.09 1954.53 1560.5 1957.75 1559.33C1969.32 1555.21 1981.78 1554.26 1993.85 1556.57C2031.75 1563.39 2048.03 1597.84 2050.48 1625.27C2056.36 1691.21 2025.68 1759.35 1975.91 1790.95C1935.32 1816.71 1881.53 1821.61 1838.91 1803.51C1819.61 1795.28 1805.13 1778.54 1801.09 1759.83C1798.68 1748.61 1799 1731.81 1813.92 1715.51C1823.4 1705.17 1833.86 1703.64 1847.11 1701.7C1854.47 1700.81 1861.73 1699.26 1868.81 1697.07C1873.69 1697.3 1879.04 1697.59 1882.54 1697.91C1888.83 1698.48 1895.15 1699.28 1901.5 1700.29C1908.6 1701.41 1915.62 1702.96 1922.53 1704.92C1919.74 1702.14 1916.76 1699.56 1913.61 1697.2C1903.74 1689.73 1897.88 1684.98 1890.39 1682.44C1898.02 1671.81 1902.9 1656.18 1907.34 1641.91H1907.27ZM1244.25 227.111C1285.69 210.097 1338.61 216.647 1389.44 245.045C1393.19 247.132 1397.75 247.128 1401.49 245.034C1405.24 242.94 1407.63 239.056 1407.81 234.77C1411.06 156.608 1453.73 102.24 1521.99 89.3704C1557.69 82.3515 1594.72 89.3271 1625.41 108.853C1654.9 127.39 1675.37 157.344 1681.91 191.556C1682.39 194.151 1682.81 196.934 1683.19 200.324C1683.74 205.174 1687.1 209.242 1691.76 210.704C1696.42 212.166 1701.5 210.747 1704.72 207.084C1728.37 180.62 1760.13 162.744 1795.02 156.252C1834.83 148.444 1876.12 156.228 1910.35 177.995C1964.95 211.926 1989.09 278.927 1968.67 339.885C1966.54 346.236 1969.87 353.126 1976.16 355.413C1998.37 363.49 2014.13 381.508 2018.29 403.544C2021.48 420.695 2017.38 438.398 2006.99 452.408C1996.15 467.263 1980.01 477.378 1961.91 480.66C1938.84 485.318 1914.96 478.159 1898.25 461.574C1895.45 458.731 1891.44 457.421 1887.49 458.056C1883.54 458.692 1880.15 461.195 1878.37 464.776C1864.42 493.048 1836.86 513.556 1804.67 519.646C1782.49 523.832 1743.98 509.936 1715.19 495.559C1712.56 494.025 1709.47 493.482 1706.48 494.032C1697.75 495.685 1693.34 503.281 1687.23 513.808C1675.09 534.734 1654.77 569.619 1597.58 577.341C1542.04 584.833 1480.22 549.153 1467.83 502.486C1466.44 497.222 1461.76 493.492 1456.32 493.304C1450.88 493.116 1445.96 496.515 1444.21 501.67C1437.17 510.041 1399.19 540.092 1389.17 547.186C1370.59 560.085 1349.59 569.09 1327.43 573.658C1314.04 576.253 1296.34 577.467 1280.56 571.566C1313.38 548.634 1335.67 513.54 1342.48 474.089C1356.42 390.381 1296.09 310.315 1207.96 295.646C1199.01 294.158 1189.94 293.402 1180.86 293.386C1194.11 261.556 1215.77 238.809 1244.25 227.111ZM131.384 1147.45C98.6914 1142 69.6386 1123.44 50.9414 1096.07C31.656 1068.2 24.0675 1033.88 29.8053 1000.48L75.8443 723.808C87.4586 654.059 151.955 606.471 219.57 617.73L347.704 639.096L348.918 639.222L338.12 704.095L255.794 690.388C225.505 685.219 194.402 692.271 169.303 709.996C144.274 727.511 127.379 754.39 122.448 784.538L93.5274 958.23C83.064 1020.68 126.069 1080.02 189.268 1090.57L270.38 1104.09C270.798 1104.09 271.196 1104.09 271.614 1104.19L260.795 1169.07L131.384 1147.45ZM333.809 729.96L275.821 1078.41L274.628 1078.16L193.599 1064.68C144.652 1056.52 111.357 1010.67 119.372 962.478L148.314 788.89C152.16 765.651 165.221 744.947 184.538 731.467C204.021 717.731 228.151 712.269 251.65 716.274L333.809 729.96ZM797.714 1681.13C791.097 1690.18 785.065 1699.65 779.654 1709.48C777.768 1712.62 777.751 1716.54 779.611 1719.69C781.47 1722.85 784.907 1724.73 788.567 1724.6C792.226 1724.47 795.52 1722.34 797.149 1719.07C803.514 1707.48 810.829 1696.44 819.018 1686.06C820.506 1685.35 821.82 1684.32 822.868 1683.05C847.248 1653.33 876.462 1632.95 907.35 1624.14C938.238 1615.33 969.586 1623.43 989.445 1644.36C967.765 1643.46 945.771 1648.54 923.756 1659.93C899.251 1672.48 874.871 1692.84 853.233 1718.73C811.379 1768.81 779.759 1803.3 730.518 1820C714.656 1791.39 715.116 1749.58 732.151 1718.63C744.937 1695.25 766.994 1686 797.714 1681.13ZM1004.39 1467.11C999.7 1495.21 970.005 1513.75 938.217 1508.46L306.939 1403.26C275.13 1397.96 253.073 1370.78 257.761 1342.68L264.144 1304.38L1010.77 1428.81L1004.39 1467.11ZM1125.89 737.955L1014.98 1403.43L268.35 1279.1L401.444 480.408C421.463 507.348 451.173 525.449 484.294 530.884C515.307 536.053 558.5 517.595 581.54 506.127L584.575 511.024C597.528 532.265 624.503 576.462 693.875 584.268C755.191 591.216 819.855 555.536 842.665 505.353L845.636 508.011C869.116 529.147 908.417 564.513 942.737 570.205C983.586 577.007 1024.35 564.43 1052.54 537.057C1065.22 553.546 1080.95 567.442 1098.87 577.99C1087.32 591.681 1079.67 608.226 1076.71 625.892C1069.55 668.896 1091.36 710.436 1128.5 732.137C1127.16 733.829 1126.26 735.828 1125.89 737.955ZM1101.05 629.951C1104.03 612.059 1113.39 595.852 1127.39 584.331C1130.63 581.603 1132.25 577.408 1131.68 573.212C1131.11 569.016 1128.44 565.402 1124.59 563.634C1099.72 552.363 1078.76 533.957 1064.36 510.752C1062.24 507.308 1058.57 505.12 1054.53 504.893H1053.84C1050.04 504.892 1046.45 506.635 1044.11 509.622C1021.69 538.271 984.381 552.166 946.797 545.888C919.592 541.368 882.237 507.76 862.148 489.7C847.248 476.307 843.314 472.707 836.722 472.707C831.012 472.704 826.045 476.615 824.71 482.166C813.388 529.084 752.324 566.083 696.638 559.784C639.298 553.297 618.246 518.788 605.669 498.175C599.391 487.712 594.745 480.283 585.914 478.818C582.934 478.356 579.887 478.964 577.313 480.534C548.915 495.538 510.64 510.25 488.353 506.546C456.063 501.147 428.063 481.245 413.498 453.266C411.649 449.723 408.202 447.292 404.243 446.74C400.285 446.187 396.303 447.582 393.555 450.483C377.203 467.418 353.488 475.093 330.314 470.95C312.163 468.07 295.81 458.331 284.631 443.745C273.911 429.933 269.437 412.277 272.284 395.027C275.967 372.866 291.327 354.513 313.363 345.954C319.611 343.541 322.789 336.581 320.52 330.28C312.548 308.04 310.387 284.133 314.242 260.824C327.405 181.867 406.32 128.985 490.216 142.964C525.238 148.711 557.368 165.902 581.582 191.849C584.888 195.431 589.991 196.733 594.608 195.172C599.226 193.612 602.493 189.482 602.948 184.629C603.283 181.197 603.618 178.351 604.058 175.84C609.887 141.484 629.731 111.095 658.844 91.9444C689.114 71.7631 725.982 63.9863 761.825 70.2223C833.687 82.2134 884.665 144.973 877.885 213.152C877.397 218.031 879.843 222.737 884.116 225.141C888.39 227.546 893.681 227.193 897.598 224.244C946.35 188.613 1014.6 198.24 1051.6 245.966C1067.99 267.225 1074.81 294.337 1070.43 320.821C1069.24 327.945 1067.24 334.909 1064.47 341.58C1062.22 346.973 1064.05 353.207 1068.87 356.516C1073.69 359.825 1080.16 359.304 1084.39 355.266C1104.57 336.399 1129.97 324.065 1157.28 319.879C1157.76 320.095 1158.26 320.276 1158.76 320.423C1162.47 321.491 1166.47 320.763 1169.56 318.456C1180.97 317.626 1192.43 318.146 1203.71 320.005C1278.4 332.561 1329.63 399.757 1317.91 470.029C1310.99 511.568 1282.84 546.997 1242.58 564.848C1238.69 566.569 1235.97 570.165 1235.36 574.369C1234.75 578.573 1236.35 582.794 1239.58 585.545C1261.26 603.981 1271.54 630.935 1267.08 657.637C1263.54 678.461 1251.51 696.875 1233.85 708.469C1215.4 720.771 1192.92 725.506 1171.07 721.694C1125.32 714.077 1093.89 672.914 1101.05 629.951ZM1163.18 745.321C1164.48 745.593 1165.75 745.865 1167.05 746.074C1173.34 747.131 1179.7 747.663 1186.07 747.665C1208.03 747.715 1229.51 741.208 1247.74 728.977C1291.28 700.393 1305.62 643.191 1280.7 597.452C1323.19 608.501 1374.54 587.868 1403.54 567.338C1407.73 564.45 1423.26 552.522 1437.38 540.929C1443.08 536.262 1447.85 532.265 1451.8 528.77C1474.17 572.089 1528.18 603.06 1582.47 603.06C1588.65 603.067 1594.82 602.655 1600.95 601.826C1670.13 592.492 1696.14 547.793 1708.7 526.217C1709.62 524.606 1710.65 522.827 1711.61 521.237C1734.9 532.223 1778.57 549.739 1809.36 543.921C1842.37 537.749 1871.68 518.989 1891.12 491.604L2041.31 1287.26L1297.03 1427.83L1163.18 745.321ZM1964.01 739.712L2046 724.227C2069.41 719.714 2093.65 724.658 2113.42 737.975C2133.04 751.021 2146.55 771.445 2150.88 794.603L2183.53 967.542C2192.59 1015.55 2160.3 1062.11 2111.52 1071.32L2030.72 1086.57C2030.32 1086.57 2029.93 1086.74 2029.53 1086.85L1964.01 739.712ZM1587.01 1736.58C1604.69 1767.18 1606.05 1808.97 1590.8 1837.91C1541.29 1822.23 1508.87 1788.46 1465.95 1739.3C1443.77 1713.88 1418.95 1694.08 1394.17 1682.03C1371.95 1671.21 1349.85 1666.5 1328.19 1667.86C1347.59 1646.66 1378.41 1637.79 1409.8 1646.01C1441.19 1654.23 1470.49 1673.88 1495.6 1703.08C1496.67 1704.33 1498.01 1705.34 1499.52 1706.01C1507.9 1716.21 1515.43 1727.09 1522.03 1738.53C1523.81 1741.62 1527.11 1743.52 1530.68 1743.51C1532.43 1743.51 1534.15 1743.05 1535.66 1742.17C1537.95 1740.85 1539.62 1738.67 1540.3 1736.11C1540.99 1733.56 1540.62 1730.83 1539.3 1728.55C1533.68 1718.84 1527.46 1709.5 1520.65 1700.59C1551.54 1704.84 1573.72 1713.58 1587.01 1736.58ZM2053.24 1350.67C2055.67 1364.31 2052.15 1378.35 2043.55 1389.22C2034.12 1401.37 2020.51 1409.57 2005.36 1412.24L1376.49 1531.02C1361.41 1534.02 1345.75 1531.33 1332.54 1523.46C1320.58 1516.42 1312.2 1504.6 1309.52 1490.98L1302.07 1452.96L2046.12 1312.5L2053.24 1350.67ZM2254.7 1099.7C2236.6 1127.45 2207.95 1146.62 2175.39 1152.77L2046.52 1177.08L2034.32 1112.42H2035.56L2116.35 1097.16C2179.3 1085.28 2220.99 1024.99 2209.23 962.792L2176.58 789.853C2170.97 759.8 2153.45 733.289 2128.01 716.337C2102.53 699.165 2071.28 692.785 2041.1 698.591L1959.11 714.077L1946.91 649.455C1947.31 649.455 1947.7 649.455 1948.12 649.288L2075.78 625.201C2143.12 612.477 2208.62 658.684 2221.74 728.161L2273.72 1003.68C2280.19 1036.94 2273.36 1071.41 2254.7 1099.7Z" fill="#090100"/>
<path d="M1143.26 211.164H1146.61C1190.42 210.246 1225.33 174.225 1224.87 130.404C1224.41 86.5831 1188.75 51.3008 1144.93 51.3008C1101.11 51.3008 1065.45 86.5831 1065 130.404C1064.54 174.225 1099.44 210.246 1143.26 211.164ZM1140.87 73.3819H1143.32C1175.3 74.053 1200.77 100.343 1200.44 132.325C1200.1 164.307 1174.08 190.057 1142.1 190.057C1110.11 190.057 1084.09 164.307 1083.76 132.325C1083.42 100.343 1108.9 74.053 1140.87 73.3819ZM537.489 590.713L460.06 577.927C457.102 577.437 454.07 578.144 451.633 579.89C449.195 581.637 447.552 584.281 447.065 587.239L345.151 1203.81C344.144 1209.96 348.309 1215.78 354.464 1216.8L431.893 1229.59C432.501 1229.69 433.117 1229.74 433.734 1229.73C439.262 1229.73 443.975 1225.73 444.867 1220.27L546.781 603.709C547.801 597.555 543.643 591.738 537.489 590.713ZM424.485 1205.46L369.384 1196.33L467.594 602.014L522.715 611.138L424.485 1205.46ZM1963.32 1214.33L1846.82 600.361C1846.26 597.414 1844.56 594.808 1842.08 593.12C1839.6 591.431 1836.56 590.799 1833.61 591.362L1756.54 606.011C1750.41 607.173 1746.38 613.084 1747.54 619.216L1864.06 1233.21C1865.07 1238.53 1869.73 1242.39 1875.15 1242.39C1875.85 1242.39 1876.55 1242.33 1877.24 1242.21L1954.32 1227.56C1960.44 1226.38 1964.46 1220.47 1963.32 1214.33ZM1884.13 1217.87L1771.84 626.08L1826.71 615.616L1939 1207.38L1884.13 1217.87Z" fill="#090100"/>
</g>
</svg>
