<svg width="2144" height="2304" viewBox="0 0 2144 2304" fill="none" xmlns="http://www.w3.org/2000/svg">
<mask id="mask0_1_297" style="mask-type:luminance" maskUnits="userSpaceOnUse" x="0" y="0" width="2144" height="2304">
<path d="M2143.52 0H0V2304H2143.52V0Z" fill="white"/>
</mask>
<g mask="url(#mask0_1_297)">
<path d="M730.099 496.896C735.104 497.809 739.358 501.085 741.52 505.69C758.592 542.063 793.112 568.891 833.987 577.45C862.128 583.36 911.633 566.663 948.568 549.075C951.969 547.202 955.924 546.595 959.731 547.363C970.753 549.708 976.146 559.487 983.697 573.041C998.636 599.94 1023.56 644.965 1096.26 656.245C1166.83 667.197 1246.35 623.414 1263.35 564.247C1265.36 557.256 1271.89 552.546 1279.16 552.85C1287.46 553.202 1292.36 557.986 1310.6 575.832C1335.23 599.869 1380.96 644.614 1415.36 651.836C1462.89 661.803 1511.08 646.091 1541.13 610.821C1544.12 607.319 1548.5 605.298 1553.11 605.286C1553.62 605.251 1554.14 605.251 1554.66 605.286C1559.78 605.788 1564.33 608.755 1566.85 613.236C1583.93 643.544 1609.65 668.083 1640.72 683.73C1645.51 686.209 1648.7 690.964 1649.17 696.335C1649.65 701.706 1647.35 706.948 1643.07 710.229C1624.63 724.157 1611.86 744.293 1607.12 766.91C1595.72 821.199 1633.55 875.23 1691.54 887.377C1719.16 893.382 1748.03 888.547 1772.19 873.87C1795.26 860.047 1811.55 837.256 1817.17 810.951C1824.2 777.182 1812.48 742.333 1785.98 717.734C1782 714.06 1780.19 708.602 1781.19 703.282C1782.18 697.961 1785.84 693.526 1790.88 691.539C1843.06 670.972 1880.76 627.354 1891.72 574.847C1900.7 531.979 1891.46 487.938 1865.71 450.815C1839.31 413.116 1799.43 387.005 1754.32 377.883C1699.07 366.298 1641.59 380.72 1600.57 416.436C1594.98 421.326 1586.72 421.632 1580.78 417.171C1574.83 412.71 1572.82 404.698 1575.95 397.957C1579.84 389.618 1582.76 380.861 1584.65 371.856C1591.56 338.356 1584.25 303.49 1564.46 275.59C1519.89 212.945 1433.59 197.099 1369.68 239.827C1364.53 243.383 1357.78 243.557 1352.46 240.273C1347.14 236.988 1344.27 230.867 1345.15 224.678C1357.39 138.285 1295.9 55.6909 1205.03 36.6488C1159.74 26.796 1112.41 34.7304 1072.81 58.8099C1034.19 82.6595 1007.76 119.618 998.706 162.791C998.026 166.027 997.44 169.569 996.853 173.907C996.022 180.069 991.641 185.163 985.673 186.908C979.705 188.652 973.27 186.718 969.252 181.974C939.815 147.664 899.832 124.084 855.562 114.928C749.587 92.6964 646.286 155.803 625.368 255.633C619.234 285.092 620.727 315.629 629.706 344.348C632.25 352.485 627.851 361.167 619.786 363.93C591.27 373.662 570.75 396.198 564.864 424.199C555.484 469.084 586.791 513.758 634.724 523.818C664 530.336 694.598 521.831 716.31 501.141C719.943 497.568 725.086 495.984 730.099 496.896Z" fill="#FFFDEB"/>
<path d="M1151.89 2143.15C1147.3 2143.16 1143.07 2140.69 1140.82 2136.69C1138.57 2132.69 1138.65 2127.79 1141.03 2123.87C1148.41 2111.64 1156.57 2099.89 1165.44 2088.7C1126.02 2093.27 1097.58 2103.87 1080.06 2132.81C1056.75 2171.31 1053.91 2224.57 1072.62 2261.79C1136.2 2243.03 1178.15 2200.82 1234.15 2139.33C1263.07 2107.53 1295.13 2083.05 1327.04 2068.22C1355.63 2055.02 1383.91 2049.46 1411.47 2051.81C1387.26 2024.32 1348.15 2012.22 1308.05 2021.86C1267.95 2031.5 1230.03 2055.84 1197.41 2092.36C1195.97 2093.96 1194.19 2095.22 1192.2 2096.04C1181.29 2108.81 1171.45 2122.46 1162.77 2136.84C1160.51 2140.72 1156.38 2143.12 1151.89 2143.15ZM653.509 2083.82C657.138 2080.35 661 2077.14 665.07 2074.2C677.828 2064.82 685.402 2059.06 695.017 2056.03C685.637 2042.38 679.821 2022.38 674.545 2004.09C672.199 1996.3 670.159 1988.91 668.353 1984.5C667.904 1983.4 667.596 1982.24 667.439 1981.06C634.912 1962.09 642.933 1927.85 647.037 1912.84C639.409 1910.42 632.028 1907.27 624.993 1903.46C620.889 1901.29 616.678 1899.32 612.376 1897.57C597.753 1892 581.901 1890.47 566.483 1893.14C536.208 1897.95 498.71 1923.37 492.612 1979.16C483.443 2063 520.753 2150.54 583.32 2192.07C634.35 2225.93 702.733 2233.53 757.49 2211.46C782.255 2201.47 801.133 2180.53 806.737 2156.82C810.091 2142.59 810.185 2121.2 791.518 2100.05C779.792 2086.66 766.449 2084.43 749.634 2081.62C740.252 2080.29 731.007 2078.13 722.009 2075.17C715.842 2075.33 709.017 2075.56 704.609 2075.87C696.565 2076.43 688.474 2077.28 680.384 2078.43C671.327 2079.69 662.353 2081.49 653.509 2083.82Z" fill="white" stroke="white" stroke-width="9.38036" stroke-miterlimit="10" stroke-linecap="round"/>
<path d="M1636.71 898.493C1590.68 868.922 1565 814.891 1576.4 760.532C1581.12 738.223 1591.76 717.594 1607.19 700.802C1584.93 686.428 1565.65 667.909 1550.39 646.255C1512.87 679.602 1460.52 693.462 1408.89 682.628C1365.55 673.552 1317.43 626.463 1288.58 598.345L1285.11 594.827C1271.23 622.476 1246.91 646.56 1214.76 664.101C1176.35 685.09 1131.41 693.556 1091.5 687.341C1003.63 673.693 971.643 616.027 956.283 588.308C955.134 586.221 953.938 583.946 952.672 581.883C922.748 595.273 866.794 616.473 827.608 608.265C785.746 599.583 748.897 574.97 724.846 539.624L512.85 1550.05L1456.49 1747.96L1633.1 905.787C1633.66 903.085 1634.9 900.573 1636.71 898.493Z" fill="#FFC545"/>
<path d="M526.382 1326.57L524.834 1326.33L422.33 1304.83C399.711 1300.1 378.505 1290.17 360.396 1275.82C360.607 1276.71 360.842 1277.62 361.029 1278.54C368.838 1321.69 339.923 1351.24 301.769 1354.4C302.988 1356.75 304.114 1359.26 305.263 1361.7C306.154 1361.8 307.033 1361.99 307.89 1362.26C351.532 1375.51 396.886 1384.82 440.762 1393.82C463.181 1398.51 486.304 1403.2 509.216 1408.46L526.382 1326.57ZM496.224 1629.41C492.789 1646.69 496.912 1664.61 507.551 1678.66C519.238 1694.39 536.369 1705.21 555.601 1709L1353.45 1876.33C1372.61 1880.59 1392.68 1877.57 1409.73 1867.84C1425.08 1859.26 1436.04 1844.56 1439.89 1827.41L1450.23 1778L506.542 1580.02L496.224 1629.41Z" fill="#DDDCD7" stroke="#DDDCD7" stroke-width="9.38036" stroke-miterlimit="10" stroke-linecap="round"/>
<path d="M633.484 1402.43L782.681 674.952L866.647 692.172L717.449 1419.65L633.484 1402.43Z" fill="white" stroke="white" stroke-width="9.38036" stroke-miterlimit="10" stroke-linecap="round"/>
<path d="M285.845 1380.2C282.996 1372.64 279.513 1365.34 275.433 1358.37C274.312 1356.53 273.704 1354.42 273.674 1352.27C266.439 1350.71 259.399 1348.35 252.686 1345.23C269.781 1340.89 287.041 1338.08 303.082 1330.74C316.238 1324.62 326.533 1316.27 330.66 1302.81C337.695 1277.34 326.791 1249.13 313.095 1225.7C308.022 1230.59 303.377 1235.9 299.212 1241.58C292.801 1252.71 288.157 1264.77 285.447 1277.32C288.389 1277.36 291.317 1276.89 294.1 1275.94C299.269 1274.1 304.965 1276.65 307.04 1281.73C309.114 1286.81 306.835 1292.62 301.862 1294.93C296.206 1297.01 290.206 1298.01 284.18 1297.86C266.615 1297.86 244.314 1291.46 225.553 1280.23C197.412 1263.46 180.269 1238.18 177.174 1209.05C176.717 1205.38 178.281 1201.74 181.264 1199.54C184.247 1197.34 188.184 1196.93 191.561 1198.45C194.938 1199.98 197.229 1203.2 197.553 1206.9C198.211 1213.34 199.79 1219.66 202.243 1225.66C208.276 1209.5 216.313 1194.17 226.163 1180.02C224.687 1179.9 223.244 1179.53 221.895 1178.92C190.494 1164.85 157.803 1178.66 142.513 1208.68C128.724 1235.74 135.478 1268.41 165.472 1279.99C179.542 1285.43 173.422 1308.32 159.187 1302.83C143.92 1296.92 130.788 1287.54 122.228 1274.39C89.0217 1280.34 61.0917 1310.97 44.3478 1338.29C28.1432 1364.51 16.4177 1400.6 36.8903 1426.4C41.3874 1412.25 48.7203 1399.16 58.4417 1387.94C68.7836 1375.53 86.4187 1393.35 76.1472 1405.64C63.2023 1421.17 54.4551 1440.82 61.1621 1461.03C65.5708 1474.35 75.2326 1484.48 86.6532 1492.2C87.3802 1479.61 92.4221 1467.69 99.0822 1455.85C106.117 1443.23 117.468 1419.08 135.267 1422.29C148.212 1424.64 146.078 1441.05 136.275 1445.56C135.429 1446.33 134.645 1447.17 133.93 1448.07C132.508 1449.81 131.177 1451.62 129.944 1453.51C126.238 1458.99 122.908 1464.72 119.625 1470.53C113.575 1481.48 109.213 1489.83 112.778 1503.01C114.628 1510.85 119.566 1517.62 126.473 1521.77C131.562 1524.56 144.061 1529.49 149.689 1527.63C155.927 1525.57 161.227 1510.94 163.924 1505.5C167.301 1498.67 170.303 1491.66 173.562 1484.77C164.968 1483.04 156.858 1479.44 149.807 1474.24C149.291 1473.81 148.165 1473.2 148.845 1472.29C148.985 1472.13 149.174 1472.01 149.384 1471.96L160.547 1469.24C171.428 1466.76 183.388 1464.29 194.293 1462.21C205.198 1460.12 217.298 1458.15 228.344 1456.65L239.764 1455.36C240.125 1455.31 240.48 1455.48 240.676 1455.78C240.871 1456.09 240.873 1456.48 240.679 1456.79L240.139 1457.63C231.194 1471.15 217.387 1480.7 201.586 1484.3C201.28 1485.4 200.847 1486.46 200.296 1487.46C193.894 1498.95 188.407 1516.21 180.199 1530.1C216.384 1536.03 249.168 1518.37 269.852 1486.29C281.025 1469 288.336 1449.51 291.286 1429.14C293.341 1415.19 292.333 1400.96 288.331 1387.44C286.969 1385.25 286.12 1382.77 285.845 1380.2Z" fill="white" stroke="white" stroke-width="9.38036" stroke-miterlimit="10" stroke-linecap="round"/>
<path d="M239.014 1162.97C260.331 1137.7 285.766 1116.22 314.244 1099.42L353.571 911.813C370.104 832.901 448.571 782.341 528.445 799.085L632.473 820.894L649.663 738.816C649.15 738.772 648.64 738.694 648.138 738.581L486.116 704.812C444.797 696.135 401.726 704.699 366.868 728.521C331.09 752.668 306.21 789.883 297.571 832.174L229.938 1153.92C229.76 1154.77 229.517 1155.6 229.211 1156.41C230.759 1157.02 232.307 1157.67 233.901 1158.35C236.09 1159.25 237.897 1160.89 239.014 1162.97Z" fill="#DDDCD7" stroke="#DDDCD7" stroke-width="9.38036" stroke-miterlimit="10" stroke-linecap="round"/>
<path d="M2108.73 1324.95C2107.79 1324.08 2103.57 1321.17 2090.84 1323.52C2078.03 1333.77 2062.25 1339.23 2046.84 1344.62C2037.25 1347.74 2027.85 1351.44 2018.7 1355.72C2011.95 1359.73 2006.06 1363.41 2001.61 1366.29C1996.15 1370.18 1988.58 1368.91 1984.7 1363.45C1980.81 1358 1982.08 1350.43 1987.54 1346.55C1993.4 1342.05 1999.68 1338.12 2006.3 1334.82C2035.38 1317.4 2059.7 1306.27 2079.28 1301.43C2081.01 1299.67 2082.58 1297.75 2083.97 1295.7C2102.73 1268.41 2100.01 1259.26 2087.34 1250.12C2077.78 1243.08 2060.89 1250.98 2050.74 1262.17C2036.83 1277.53 2021 1286.51 2005.69 1295.19C1999.75 1298.54 1993.96 1301.8 1988.4 1305.39C1982.35 1309.89 1976.91 1313.86 1972.55 1316.97C1967.27 1320.73 1959.98 1319.66 1956 1314.55C1952.02 1309.45 1952.76 1302.11 1957.68 1297.91C1963.04 1293.41 1968.69 1289.26 1974.59 1285.5C2013.19 1256.73 2036.85 1235.18 2040.11 1228.56C2048.79 1210.98 2043.44 1197.07 2034.3 1191.04C2026.23 1185.77 2013.03 1185.51 2000.18 1200.66C1995.02 1206.73 1990.16 1212.74 1985.5 1218.55C1964.39 1244.75 1946.1 1267.38 1917.77 1273.64C1917.28 1273.75 1916.77 1273.83 1916.27 1273.87C1899.85 1275.4 1892.09 1269.18 1888.55 1263.51C1879.9 1249.93 1890.31 1232.15 1893.73 1226.29C1909.21 1199.88 1913.53 1177.23 1905.46 1164.14C1900.77 1156.29 1891.39 1151.97 1880.48 1152.42C1873.17 1152.77 1866.2 1168.3 1860.08 1181.99C1855.39 1192.59 1850.42 1203.57 1843.67 1212.74C1837.26 1221 1829.67 1228.27 1821.13 1234.31C1809.4 1243.41 1800.02 1250.56 1795.33 1271.03C1791.56 1287.85 1792.99 1309.33 1794.56 1336.53L1794.77 1340.1C1794.84 1341.24 1794.75 1342.38 1794.49 1343.5C1797.95 1346.32 1801.2 1349.4 1804.2 1352.71C1806.24 1355.29 1808.58 1358.15 1810.41 1360.85C1801.74 1357.94 1793.86 1354.54 1785.81 1352.69H1785.51C1784.83 1352.86 1784.14 1352.97 1783.44 1353.02C1780.64 1353.17 1777.87 1352.34 1775.61 1350.67C1764.75 1349.2 1753.99 1350.16 1745.12 1356.18C1728.1 1368.59 1722.07 1390.75 1722.1 1412.3C1722.25 1425.06 1725.16 1437.63 1730.61 1449.17C1745.64 1440.6 1758.34 1428.46 1767.57 1413.83C1768.29 1412.61 1769.27 1411.55 1770.43 1410.73C1767.02 1409.4 1763.37 1408.79 1759.71 1408.93C1754.84 1409.48 1750.44 1405.99 1749.89 1401.12C1749.33 1396.25 1752.82 1391.85 1757.69 1391.29C1773.97 1389.44 1799.91 1402.38 1817.87 1421.42C1837.33 1441.99 1845.73 1467.08 1841.48 1492.06C1840.76 1496.32 1837.08 1499.44 1832.76 1499.45C1832.26 1499.48 1831.76 1499.48 1831.26 1499.45C1826.42 1498.62 1823.17 1494.03 1823.99 1489.2C1825 1483.28 1825.1 1477.23 1824.27 1471.28C1815.92 1482.87 1806.5 1493.64 1796.13 1503.46C1823.99 1525.97 1852.74 1517.97 1869.18 1499.63C1881.47 1485.94 1886.93 1465.63 1871.53 1451.16C1867.04 1446.98 1866.8 1439.95 1870.99 1435.47C1875.17 1430.99 1882.19 1430.75 1886.67 1434.93C1890.91 1438.89 1894.47 1443.52 1897.2 1448.63C1897.92 1448.57 1898.64 1448.57 1899.36 1448.63C1911.67 1450.13 1957.24 1440.98 2010.75 1419.9C2066.64 1397.9 2105.78 1372.32 2115.51 1351.49C2118.98 1344.55 2120.64 1336.09 2108.73 1324.95ZM1925.98 1405.71C1926.12 1401.91 1923.94 1396.03 1923.14 1392.32C1922.17 1388.83 1920.96 1385.41 1919.53 1382.07C1916.43 1373.02 1912.96 1364.18 1909.12 1355.67C1906.4 1349.62 1903.51 1343.73 1900.42 1338.03C1897.84 1333.34 1894.09 1329.24 1892.35 1323.75C1890.61 1318.26 1900.72 1305.91 1903.79 1303.42C1906.87 1300.93 1909.49 1306.35 1911.2 1309.68C1917.93 1322.77 1921.05 1340.17 1923.35 1355.72C1924.1 1360.85 1924.71 1366.03 1925.18 1371.22C1926.19 1382.69 1926.45 1394.21 1925.98 1405.71ZM1270.01 1014.15C1253.73 1010.78 1235.07 1020.34 1218.11 1040.63C1224.12 1068.98 1223.69 1102 1216.87 1134.57C1213.19 1152.33 1207.57 1169.63 1200.13 1186.17C1203.76 1188.35 1207.37 1190.67 1210.89 1193.2C1214.88 1192.8 1218.96 1192.52 1223.06 1192.33C1222.49 1173.09 1224.25 1153.84 1228.31 1135.02C1230.41 1124.98 1233.11 1115.07 1236.38 1105.35L1281.76 1104.2L1247.17 1078.97C1261.24 1050.6 1279.13 1032.75 1295.38 1033.45C1289.47 1024.49 1281.24 1016.52 1270.01 1014.15ZM1139.2 986.739C1118.31 982.353 1099.08 999.871 1089.48 1010.68C1070.86 1031.79 1056.65 1062.16 1049.45 1096.47C1046.31 1111.47 1044.74 1126.75 1044.76 1142.08C1060.66 1140.7 1076.65 1140.99 1092.49 1142.92C1093.3 1131.67 1094.87 1120.49 1097.18 1109.46C1099.52 1099.41 1102.42 1089.51 1105.88 1079.79L1154.21 1078.55L1117.04 1051.44C1131.39 1023.3 1149.61 1006.06 1165.93 1008.1C1159.91 998.277 1151.3 989.271 1139.2 986.739ZM967.423 1203.1C963.821 1202.12 960.108 1201.62 956.377 1201.6C951.224 1201.59 946.112 1202.52 941.298 1204.36C931.681 1207.96 923.925 1215.29 919.794 1224.7C907.669 1252.48 909.1 1276.76 923.968 1296.85L964.913 1206.71C965.514 1205.36 966.366 1204.13 967.423 1203.1Z" fill="white" stroke="white" stroke-width="9.38036" stroke-miterlimit="10" stroke-linecap="round"/>
<path d="M132.101 1446.73C133.448 1446.66 134.768 1446.33 135.994 1445.77C134.758 1446.3 133.443 1446.62 132.101 1446.73Z" fill="#FFE150"/>
<path d="M1013.69 1237.69C1009 1233.79 1004.55 1229.64 1000.16 1225.54C995.775 1221.44 992.046 1217.94 988.06 1214.63C987.879 1215.4 987.62 1216.15 987.286 1216.86L944.183 1311.82C943.7 1312.87 943.068 1313.85 942.307 1314.72C951.351 1321.18 961.218 1326.4 971.644 1330.25L1013.5 1238.06L1013.69 1237.69Z" fill="white" stroke="white" stroke-width="9.38036" stroke-miterlimit="10" stroke-linecap="round"/>
<path d="M1754.76 1040.77C1751.39 1040.06 1747.94 1039.71 1744.49 1039.71C1717.91 1039.75 1696.01 1060.59 1694.66 1087.14C1693.32 1113.69 1713 1136.64 1739.45 1139.35C1765.89 1142.07 1789.83 1123.6 1793.91 1097.33C1797.99 1071.07 1780.78 1046.21 1754.76 1040.77Z" fill="#FFFDEB"/>
<path d="M1820.03 1457.07C1820.38 1457.07 1820.71 1457.35 1821.04 1457.49C1820.75 1456.79 1820.47 1456.09 1820.17 1455.38C1820.15 1455.94 1820.11 1456.51 1820.03 1457.07Z" fill="#FFE150"/>
<path d="M1092.04 1269.77L1061.55 1336.86C1065.87 1335.9 1070.21 1334.77 1074.5 1333.44C1108.83 1322.74 1131.27 1303.51 1130.78 1292.23C1130.34 1285.69 1119.88 1276.52 1092.04 1269.77ZM1034.49 1251.31L995.54 1337.07C1007.88 1339.61 1020.47 1340.72 1033.06 1340.38L1067.77 1263.98C1056.32 1260.75 1045.19 1256.51 1034.49 1251.31Z" fill="white" stroke="white" stroke-width="9.38036" stroke-miterlimit="10" stroke-linecap="round"/>
<path d="M1923.35 1355.72C1921.01 1340.21 1917.94 1322.77 1911.2 1309.68C1909.49 1306.35 1907.19 1300.7 1903.79 1303.42C1900.39 1306.14 1890.71 1318.57 1892.35 1323.75C1893.99 1328.93 1897.84 1333.13 1900.42 1338.03C1903.51 1343.73 1906.4 1349.62 1909.12 1355.67C1912.96 1364.18 1916.43 1373.02 1919.53 1382.07C1920.96 1385.41 1922.17 1388.83 1923.14 1392.32C1923.94 1396.03 1926.12 1401.91 1925.98 1405.71C1926.45 1394.21 1926.19 1382.69 1925.18 1371.22C1924.71 1366.03 1924.1 1360.85 1923.35 1355.72Z" fill="#090100"/>
<path d="M2125.24 1307.29C2121.12 1303.51 2116.06 1300.91 2110.58 1299.76C2121.56 1281.8 2133.21 1253.14 2101.86 1230.49C2091.78 1223.69 2079.27 1221.54 2067.5 1224.6C2073.23 1200.38 2062.51 1180.42 2047.92 1170.85C2030.71 1159.55 2003.67 1159.57 1982.07 1184.92C1976.73 1191.23 1971.8 1197.35 1967.02 1203.26C1948.26 1226.55 1933.32 1245 1913.64 1249.74C1912.41 1249.85 1911.17 1249.85 1909.94 1249.74C1911.04 1245.75 1912.74 1241.94 1914.98 1238.46C1941.1 1193.9 1935.71 1166.54 1926.71 1151.51C1917.33 1135.93 1899.71 1127.23 1879.8 1128.24C1857.69 1129.37 1847.51 1152.07 1838.53 1172.09C1834.31 1181.48 1829.92 1191.35 1824.72 1198.43C1819.64 1204.84 1813.65 1210.47 1806.94 1215.15C1793.79 1225.26 1778.8 1236.75 1772.38 1265.73C1768.25 1284.14 1769.14 1305.86 1770.62 1330.76C1768.86 1330.29 1767.03 1329.9 1765.15 1329.57C1730.42 1323.8 1704.18 1353.44 1700.66 1385.85C1697.45 1409.96 1706.15 1437.44 1725.64 1452.31C1708.29 1461.39 1689.23 1466.72 1669.68 1467.93C1648.82 1469.1 1628.03 1464.67 1609.46 1455.08C1590.58 1445.42 1575.95 1430.45 1560.05 1416.76L1559.56 1416.38L1665.09 912.611C1681.16 918.46 1698.14 921.46 1715.25 921.475C1741.18 921.53 1766.61 914.386 1788.72 900.838C1820.3 881.884 1842.17 850.225 1848.72 813.978C1855.27 777.731 1845.86 740.421 1822.91 711.613C1874.32 684.55 1910.97 637.227 1922.65 581.46C1933.44 530.032 1922.44 477.315 1891.72 433.016C1860.73 388.698 1813.9 357.985 1760.91 347.233C1712.27 336.941 1661.56 343.967 1617.55 367.096C1622.56 328.549 1612.88 289.529 1590.44 257.791C1565.31 221.819 1527.29 196.897 1484.28 188.189C1448.64 180.661 1411.53 184.542 1378.21 199.281C1376.45 108.01 1308.07 26.2131 1211.55 5.97498C1158.39 -5.53926 1102.84 3.83124 1056.4 32.1462C1016.01 56.4806 986.015 94.8442 972.136 139.903C940.982 111.955 903.001 92.726 862.034 84.1603C739.034 58.3409 619.106 132.352 594.553 249.161C588.307 279.092 588.747 310.034 595.843 339.775C564.2 354.687 541.348 383.534 534.073 417.75C521.105 479.59 563.363 541.007 628.275 554.609C648.301 558.86 669.065 558.111 688.732 552.428L656.628 705.633C656.129 705.464 655.62 705.331 655.103 705.234L493.292 671.277C442.924 660.685 390.415 671.094 347.896 700.098C304.696 729.206 274.643 774.104 264.2 825.139L196.403 1146.86C196.226 1147.73 196.117 1148.61 196.075 1149.49C185.063 1149.33 174.148 1151.57 164.088 1156.05C145.337 1164.73 130.184 1179.65 121.22 1198.27C113.434 1214.33 109.729 1232.86 112.942 1250.54C73.2862 1258.79 39.2589 1296.53 20.1464 1329.8C-1.45186 1367.32 -10.3398 1417.65 24.8366 1450.22C27.3238 1452.66 30.7454 1453.9 34.217 1453.62C34.5745 1457.45 35.2571 1461.24 36.2572 1464.95C42.9407 1489.67 62.4284 1508.62 84.6599 1520.06C87.2983 1521.49 90.3663 1521.9 93.2898 1521.23C103.655 1540.65 124.198 1551.93 146.688 1552.68C150.881 1552.87 155.067 1552.17 158.976 1550.64C210.568 1567.92 260.448 1545.2 289.973 1501.25C303.988 1480.12 312.952 1456.05 316.167 1430.9C317.497 1420.78 317.568 1410.54 316.378 1400.41C355.612 1411.36 395.338 1419.53 433.938 1427.45C456.38 1432.14 479.503 1436.83 502.25 1442.06L464.33 1622.73C458.934 1649.07 465.081 1676.45 481.215 1697.96C497.65 1720.24 521.794 1735.61 548.941 1741.06L786.639 1790.92C784.893 1792.68 783.639 1794.87 783.005 1797.27C778.314 1815.17 762.602 1842.74 750.642 1854C739.245 1864.72 722.923 1870.23 705.781 1875.39C701.958 1876.54 698.042 1877.73 694.243 1879.14C680.477 1883.83 666.242 1888.66 655.267 1885.61C649.229 1883.68 643.393 1881.17 637.843 1878.11C633.036 1875.76 628.088 1873.21 622.718 1871.07C603.405 1863.68 582.461 1861.6 562.073 1865.07C501.922 1874.64 469.677 1927.71 464.4 1976.09C459.787 2021.43 466.349 2067.21 483.513 2109.43C501.992 2154.71 531.095 2191.51 567.655 2215.75C604.362 2239.67 647.244 2252.36 691.053 2252.29C717.443 2252.43 743.616 2247.52 768.16 2237.82C801.343 2224.45 826.787 2195.91 834.456 2163.36C841.491 2134.03 833.752 2104.85 812.904 2081.29C794.425 2060.32 773.155 2056.76 754.394 2053.61C742.857 2051.69 731.975 2049.86 722.173 2044.09C714.411 2039.4 705.968 2010.25 701.911 1996.21C700.551 1991.52 699.308 1987.2 698.065 1983.31C721.141 1975.73 760.281 1961.9 797.263 1938.33C850.004 1904.68 880.302 1862.79 887.361 1813.83C887.396 1813.24 887.396 1812.64 887.361 1812.05L1043.92 1844.88C1044.37 1846.59 1045.17 1848.18 1046.26 1849.57C1087.28 1900.22 1125.86 1966.82 1101.16 2076.06V2076.43C1082.26 2085.61 1066.47 2100.13 1055.74 2118.2C1026.35 2166.74 1024.2 2235.24 1050.63 2281.04C1053.06 2285.26 1057.49 2287.92 1062.35 2288.08C1063.62 2289.17 1065.08 2290.02 1066.67 2290.56C1093.59 2299.61 1131.32 2302.83 1168.63 2302.83C1211.99 2302.83 1254.74 2298.49 1279.16 2293.92C1325.24 2285.29 1358.33 2273.44 1386.4 2255.53C1417.03 2235.88 1440.53 2206.9 1453.42 2172.86C1466.15 2138.93 1466.36 2103.17 1454.1 2071.41C1454.28 2069.08 1453.88 2066.73 1452.93 2064.59C1427.69 2007.98 1365.41 1978.99 1301.53 1994.4C1267.15 2002.68 1233.99 2020.41 1204.09 2046.23C1210.87 1986.36 1210.35 1928.62 1169.85 1871.26L1346.88 1908.38C1354.78 1910.04 1362.83 1910.88 1370.9 1910.89C1390.32 1910.97 1409.42 1905.87 1426.22 1896.12C1449.64 1882.92 1466.28 1860.29 1471.9 1834L1532.35 1545.78C1576.44 1579.06 1633.99 1578.62 1685.93 1564.22C1719.94 1555.07 1751.82 1539.32 1779.74 1517.85C1779.92 1518.09 1780.13 1518.31 1780.35 1518.51C1799.41 1534.93 1817.87 1539.12 1831.94 1539.12C1834.4 1539.13 1836.86 1539 1839.3 1538.73C1857.42 1536.66 1874.13 1527.95 1886.21 1514.29C1896.81 1503.02 1902.96 1488.27 1903.49 1472.81C1927.13 1472.45 1974.78 1460.12 2020.04 1442.32C2101.2 1410.36 2128.9 1380.78 2137.86 1361.62C2146.82 1342.47 2142.24 1323.21 2125.24 1307.29ZM704.632 2075.99C709.04 2075.68 715.865 2075.45 722.032 2075.28C731.03 2078.25 740.275 2080.41 749.657 2081.73C766.472 2084.55 779.745 2086.77 791.541 2100.16C810.301 2121.27 810.114 2142.7 806.76 2156.94C801.132 2180.65 782.254 2201.5 757.513 2211.58C702.755 2233.65 634.373 2226.05 583.343 2192.19C520.776 2150.65 483.466 2063.21 492.635 1979.28C498.733 1923.49 536.231 1898.06 566.506 1893.26C581.924 1890.59 597.776 1892.12 612.399 1897.69C616.701 1899.44 620.911 1901.4 625.016 1903.58C632.051 1907.39 639.432 1910.53 647.06 1912.96C642.956 1927.96 634.935 1962.2 667.462 1981.17C667.619 1982.32 667.919 1983.45 668.353 1984.53C670.159 1988.94 672.293 1996.25 674.544 2004.11C679.82 2022.4 685.636 2042.4 695.017 2056.05C685.402 2059.08 677.827 2064.96 665.07 2074.23C661 2077.16 657.137 2080.38 653.509 2083.84C662.361 2081.53 671.343 2079.74 680.407 2078.5C688.497 2077.32 696.494 2076.48 704.632 2075.99ZM634.724 523.794C586.791 513.734 555.46 469.06 564.864 424.175C570.75 396.175 591.27 373.638 619.786 363.906C627.851 361.144 632.249 352.461 629.706 344.325C620.727 315.605 619.234 285.068 625.367 255.61C646.286 155.803 749.657 92.6964 855.562 114.904C899.832 124.061 939.815 147.64 969.252 181.951C973.27 186.695 979.705 188.628 985.673 186.884C991.641 185.14 996.022 180.045 996.853 173.883C997.44 169.545 998.026 166.004 998.706 162.768C1007.76 119.595 1034.09 82.7064 1072.88 58.8802C1112.48 34.8007 1159.81 26.8663 1205.1 36.7191C1295.9 55.7613 1357.53 138.355 1345.22 224.748C1344.34 230.938 1347.21 237.059 1352.53 240.343C1357.85 243.628 1364.6 243.453 1369.75 239.898C1433.66 197.169 1519.96 213.015 1564.53 275.66C1584.32 303.561 1591.63 338.426 1584.72 371.926C1582.83 380.931 1579.91 389.689 1576.02 398.027C1572.89 404.768 1574.9 412.78 1580.85 417.241C1586.79 421.703 1595.05 421.396 1600.64 416.507C1641.66 380.791 1699.14 366.369 1754.39 377.953C1799.5 387.075 1839.38 413.186 1865.78 450.886C1891.58 488.008 1900.77 532.049 1891.79 574.917C1880.77 627.424 1843.06 671.066 1790.95 691.609C1785.91 693.596 1782.25 698.032 1781.26 703.352C1780.26 708.672 1782.07 714.131 1786.05 717.804C1812.64 742.404 1824.32 777.252 1817.24 811.021C1811.62 837.327 1795.33 860.117 1772.26 873.94C1748.1 888.617 1719.23 893.453 1691.61 887.448C1633.71 875.3 1595.88 821.269 1607.19 766.98C1611.93 744.363 1624.7 724.228 1643.14 710.3C1647.42 707.018 1649.72 701.777 1649.24 696.406C1648.77 691.034 1645.58 686.279 1640.79 683.8C1609.72 668.153 1584 643.614 1566.92 613.307C1564.4 608.826 1559.85 605.858 1554.73 605.357C1554.21 605.322 1553.69 605.322 1553.18 605.357C1548.57 605.369 1544.19 607.389 1541.2 610.891C1511.16 646.068 1462.96 661.873 1415.43 651.907C1381.1 644.684 1335.3 599.94 1310.67 575.902C1292.43 558.056 1287.53 553.272 1279.23 552.921C1271.96 552.617 1265.43 557.326 1263.42 564.318C1246.54 623.437 1166.9 667.267 1096.33 656.316C1023.63 645.036 998.729 600.033 983.768 573.112C976.263 559.557 970.823 549.661 959.801 547.433C955.995 546.666 952.04 547.272 948.638 549.145C911.703 566.733 862.198 583.43 834.057 577.521C793.206 568.961 758.662 542.133 741.59 505.761C739.431 501.152 735.174 497.874 730.166 496.966C725.158 496.057 720.021 497.631 716.38 501.188C694.639 521.876 664.01 530.356 634.724 523.794ZM229.938 1153.92L297.571 832.174C306.21 789.883 331.09 752.668 366.868 728.521C401.726 704.698 444.797 696.135 486.116 704.812L648.068 738.769C648.57 738.881 649.079 738.96 649.592 739.003L632.403 821.082L528.375 799.272C448.501 782.528 370.034 833.089 353.501 912.001L314.174 1099.61C285.721 1116.41 260.31 1137.9 239.014 1163.16C237.898 1161.04 236.072 1159.38 233.855 1158.47C232.307 1157.79 230.759 1157.13 229.164 1156.52C229.492 1155.68 229.75 1154.81 229.938 1153.92ZM525.302 1082.14C491.041 1071.07 458.819 1060.89 422.118 1063.54C398.035 1065.39 374.394 1071.04 352.071 1080.26L385.934 918.755C398.714 857.782 459.452 818.854 521.316 831.846L625.344 853.655L573.471 1102.02C559.283 1092.36 541.038 1087.2 525.302 1082.14ZM550.09 1213.13L533.112 1294.06C532.619 1293.9 532.103 1293.78 531.587 1293.66L429.154 1272.16C391.172 1264.28 359.721 1237.78 345.504 1201.69C360.959 1192.93 377.672 1186.6 395.056 1182.93C425.542 1176.76 456.263 1189.05 485.553 1196.79C500.116 1200.66 513.929 1206 528.304 1210.37C535.353 1212.68 542.781 1213.62 550.184 1213.13H550.09ZM291.239 1429.23C288.289 1449.6 280.978 1469.1 269.805 1486.38C249.121 1518.46 216.337 1536.12 180.152 1530.19C188.36 1516.31 193.847 1499.05 200.249 1487.56C200.801 1486.55 201.233 1485.49 201.539 1484.39C217.34 1480.79 231.147 1471.24 240.093 1457.73L240.632 1456.88C240.826 1456.58 240.825 1456.18 240.629 1455.88C240.433 1455.57 240.078 1455.41 239.717 1455.45L228.297 1456.74C217.251 1458.24 205.127 1460.28 194.246 1462.3C183.365 1464.32 171.381 1466.99 160.5 1469.34L149.337 1472.06C149.127 1472.1 148.938 1472.22 148.798 1472.38C148.118 1473.3 149.244 1473.91 149.76 1474.33C156.803 1479.6 164.923 1483.25 173.539 1485.02C170.279 1491.92 167.277 1498.93 163.9 1505.75C161.204 1511.19 155.904 1525.83 149.666 1527.89C144.038 1529.74 131.538 1524.82 126.449 1522.03C119.543 1517.88 114.604 1511.11 112.754 1503.27C109.19 1490.09 113.551 1481.74 119.602 1470.79C122.815 1464.97 126.215 1459.25 129.92 1453.76C131.154 1451.88 132.484 1450.07 133.907 1448.32C134.622 1447.43 135.406 1446.59 136.252 1445.81C146.054 1441.38 148.188 1424.87 135.243 1422.55C117.444 1419.34 106.164 1443.49 99.0588 1456.11C92.3987 1467.83 87.3333 1479.86 86.6298 1492.46C75.2561 1484.79 65.524 1474.61 61.1386 1461.29C54.4317 1441.15 63.1789 1421.42 76.1238 1405.9C86.3953 1393.61 68.7602 1375.79 58.4183 1388.19C48.6969 1399.42 41.364 1412.5 36.8669 1426.65C16.3943 1400.86 28.1901 1364.67 44.3478 1338.34C61.0917 1311.02 89.0217 1280.39 122.228 1274.43C130.788 1287.59 143.92 1296.97 159.187 1302.88C173.422 1308.37 179.566 1285.48 165.472 1280.04C135.455 1268.45 128.724 1235.79 142.513 1208.73C157.803 1178.71 190.494 1164.85 221.895 1178.97C223.244 1179.58 224.687 1179.95 226.163 1180.07C216.313 1194.22 208.277 1209.55 202.243 1225.7C199.79 1219.71 198.211 1213.39 197.553 1206.94C197.229 1203.25 194.938 1200.02 191.561 1198.5C188.184 1196.97 184.247 1197.39 181.264 1199.59C178.281 1201.79 176.717 1205.42 177.174 1209.1C180.269 1238.23 197.459 1263.51 225.553 1280.27C244.314 1291.51 266.662 1297.91 284.18 1297.91C290.206 1298.06 296.206 1297.06 301.862 1294.98C306.835 1292.67 309.114 1286.85 307.04 1281.78C304.965 1276.7 299.269 1274.15 294.1 1275.98C291.317 1276.94 288.389 1277.41 285.447 1277.37C288.157 1264.81 292.801 1252.76 299.212 1241.63C303.377 1235.95 308.022 1230.64 313.095 1225.75C326.791 1249.2 337.789 1277.34 330.66 1302.86C326.486 1316.32 316.238 1324.67 303.082 1330.79C287.041 1338.13 269.781 1340.94 252.686 1345.28C259.399 1348.4 266.439 1350.76 273.674 1352.31C273.704 1354.47 274.312 1356.57 275.433 1358.41C279.513 1365.38 282.996 1372.69 285.845 1380.25C286.063 1382.84 286.865 1385.35 288.19 1387.59C292.216 1401.08 293.257 1415.29 291.239 1429.23ZM132.101 1446.73C133.442 1446.62 134.757 1446.3 135.994 1445.77C134.768 1446.33 133.448 1446.66 132.101 1446.73ZM440.879 1393.82C397.003 1384.82 351.648 1375.51 308.006 1362.26C307.15 1361.99 306.271 1361.8 305.38 1361.7C304.301 1359.35 303.035 1356.84 301.886 1354.4C339.993 1351.21 368.955 1321.69 361.146 1278.54C360.958 1277.62 360.724 1276.71 360.513 1275.82C378.622 1290.17 399.828 1300.1 422.447 1304.83L524.951 1326.33L526.498 1326.57L509.332 1408.46C486.304 1403.2 463.181 1398.42 440.879 1393.82ZM1192.32 2096.2C1194.31 2095.38 1196.09 2094.13 1197.52 2092.52C1230.14 2056.01 1268.39 2031.55 1308.16 2022.03C1347.94 2012.51 1387.38 2024.37 1411.58 2051.97C1384.03 2049.63 1355.75 2055.12 1327.16 2068.39C1295.31 2083.09 1263.19 2107.69 1234.27 2139.49C1178.34 2201.03 1136.32 2243.31 1072.74 2261.95C1053.98 2224.69 1056.86 2171.43 1080.17 2132.97C1097.69 2104.03 1126.14 2093.43 1165.56 2088.86C1156.68 2100.06 1148.53 2111.81 1141.15 2124.04C1138.56 2127.93 1138.32 2132.92 1140.52 2137.04C1142.72 2141.17 1146.99 2143.75 1151.66 2143.78C1156.33 2143.8 1160.64 2141.27 1162.89 2137.17C1171.52 2122.74 1181.33 2109.04 1192.2 2096.2H1192.32ZM1439.89 1827.41C1436.08 1844.65 1425.08 1859.44 1409.66 1868.05C1392.61 1877.78 1372.54 1880.8 1353.38 1876.54L555.601 1709.12C536.369 1705.33 519.238 1694.51 507.55 1678.78C496.911 1664.73 492.789 1646.81 496.223 1629.53L506.542 1580.02L1450.21 1777.9L1439.89 1827.41ZM1456.51 1748.05L512.85 1550.05L724.752 539.624C748.804 574.97 785.652 599.583 827.514 608.265C866.701 616.472 922.655 595.273 952.578 581.882C953.774 583.946 954.923 586.221 956.189 588.308C971.55 616.027 1003.54 673.693 1091.41 687.341C1131.27 693.556 1176.25 684.996 1214.67 664.101C1246.79 646.56 1271.11 622.476 1285.02 594.827L1288.61 598.345C1317.4 626.486 1365.57 673.552 1408.91 682.628C1460.5 693.462 1512.98 679.602 1550.41 646.255C1565.67 667.909 1584.96 686.428 1607.21 700.802C1591.78 717.594 1581.15 738.223 1576.42 760.531C1565.02 814.891 1590.7 868.922 1636.73 898.493C1634.93 900.566 1633.68 903.07 1633.12 905.763L1456.51 1748.05ZM2115.81 1351.35C2106.08 1372.18 2066.94 1397.76 2011.06 1419.76C1957.54 1440.87 1911.98 1449.99 1899.67 1448.49C1898.95 1448.43 1898.23 1448.43 1897.51 1448.49C1894.77 1443.38 1891.22 1438.75 1886.98 1434.79C1882.5 1430.61 1875.47 1430.85 1871.29 1435.33C1867.11 1439.81 1867.35 1446.84 1871.83 1451.02C1887.33 1465.49 1881.87 1485.8 1869.49 1499.49C1853.07 1517.83 1824.3 1525.83 1796.44 1503.32C1806.81 1493.5 1816.23 1482.73 1824.58 1471.14C1825.4 1477.09 1825.31 1483.14 1824.3 1489.06C1823.47 1493.89 1826.73 1498.48 1831.57 1499.31C1832.06 1499.34 1832.57 1499.34 1833.07 1499.31C1837.39 1499.3 1841.07 1496.18 1841.79 1491.92C1846.03 1466.94 1837.64 1441.85 1818.17 1421.28C1800.14 1402.24 1774.27 1389.3 1758 1391.15C1753.13 1391.71 1749.63 1396.11 1750.19 1400.98C1750.75 1405.85 1755.15 1409.34 1760.02 1408.78C1763.67 1408.64 1767.32 1409.26 1770.73 1410.59C1769.57 1411.41 1768.6 1412.47 1767.87 1413.69C1758.64 1428.32 1745.95 1440.46 1730.91 1449.03C1725.53 1437.53 1722.66 1425.02 1722.52 1412.33C1722.52 1390.77 1728.52 1368.61 1745.55 1356.21C1754.46 1350.18 1765.22 1349.17 1776.03 1350.7C1778.29 1352.37 1781.06 1353.2 1783.87 1353.04C1784.56 1352.99 1785.25 1352.88 1785.93 1352.71H1786.23C1794.28 1354.57 1802.16 1357.97 1810.83 1360.87C1809.01 1358.18 1806.66 1355.32 1804.62 1352.74C1801.62 1349.43 1798.37 1346.35 1794.91 1343.52C1795.17 1342.41 1795.27 1341.26 1795.19 1340.12L1794.98 1336.56C1793.29 1309.35 1791.98 1287.87 1795.76 1271.06C1800.45 1250.58 1809.66 1243.43 1821.55 1234.33C1830.09 1228.3 1837.69 1221.03 1844.09 1212.76C1850.82 1203.59 1855.81 1192.61 1860.5 1182.01C1866.62 1168.32 1873.59 1152.79 1880.91 1152.44C1891.74 1151.93 1901.1 1156.24 1905.88 1164.17C1913.83 1177.25 1909.52 1199.91 1894.16 1226.31C1890.73 1232.18 1880.32 1249.95 1888.97 1263.53C1892.51 1269.11 1900.21 1275.42 1916.69 1273.9C1917.2 1273.85 1917.7 1273.77 1918.19 1273.66C1946.52 1267.4 1964.77 1244.77 1985.92 1218.57C1990.61 1212.76 1995.44 1206.85 2000.6 1200.68C2013.45 1185.53 2026.65 1185.79 2034.72 1191.07C2043.87 1197.07 2049.21 1210.98 2040.54 1228.59C2037.28 1235.2 2013.61 1256.73 1975.01 1285.53C1969.11 1289.29 1963.46 1293.43 1958.11 1297.93C1953.18 1302.14 1952.44 1309.47 1956.42 1314.58C1960.4 1319.68 1967.7 1320.75 1972.97 1317C1977.34 1313.88 1982.78 1309.96 1988.83 1305.41C1994.43 1301.83 2000.18 1298.57 2006.11 1295.21C2021.42 1286.54 2037.25 1277.55 2051.16 1262.19C2061.31 1251.01 2078.2 1243.2 2087.77 1250.14C2100.43 1259.29 2103.17 1268.43 2084.39 1295.73C2083 1297.77 2081.43 1299.69 2079.7 1301.45C2060.16 1306.28 2035.83 1317.41 2006.72 1334.84C2000.1 1338.14 1993.82 1342.07 1987.96 1346.57C1982.51 1350.46 1981.24 1358.03 1985.12 1363.48C1989.01 1368.93 1996.58 1370.2 2002.03 1366.32C2006.49 1363.43 2012.37 1359.75 2019.13 1355.74C2028.27 1351.47 2037.67 1347.76 2047.27 1344.65C2062.67 1339.32 2078.46 1333.86 2091.26 1323.54C2103.99 1321.2 2108.22 1324.1 2109.15 1324.97C2120.64 1336.09 2118.98 1344.55 2115.81 1351.35ZM1820.03 1457.07C1820.03 1456.51 1820.07 1455.94 1820.17 1455.38C1820.47 1456.09 1820.75 1456.79 1821.04 1457.49C1820.71 1457.35 1820.38 1457.19 1820.03 1457.07Z" fill="#090100"/>
<path d="M1276.22 984.605C1251.18 979.352 1224.77 989.811 1201.86 1013.54C1190.68 983.526 1171.12 962.561 1145.42 957.261C1093 946.263 1037.85 1004.73 1019.88 1090.35C1014.92 1113.35 1013.34 1136.96 1015.19 1160.42C1015.55 1164.59 1017.63 1168.43 1020.93 1171.02C1024.23 1173.61 1028.45 1174.71 1032.59 1174.06C1056.84 1170.17 1081.6 1170.75 1105.64 1175.78H1106.21C1126.57 1179.13 1146.06 1186.48 1163.57 1197.4C1167.1 1198 1170.2 1200.09 1172.08 1203.14C1174.82 1205.14 1177.5 1207.2 1180.05 1209.31C1180.71 1209.85 1181.41 1210.34 1182.14 1210.77C1187.52 1213.86 1192.71 1217.26 1197.69 1220.97C1200.8 1223.28 1204.69 1224.31 1208.55 1223.83C1217.18 1222.79 1225.88 1222.29 1234.58 1222.35H1236.03C1252.61 1220.85 1269.32 1221.41 1285.77 1224.02C1286.54 1224.14 1287.33 1224.21 1288.11 1224.2H1289.66C1295.17 1223.64 1300.12 1223.29 1304.83 1223.17C1310.46 1223.01 1315.53 1219.74 1317.99 1214.68C1326.88 1196.34 1333.45 1176.97 1337.57 1157.02C1345.83 1117.64 1344.75 1078.55 1334.57 1046.8C1323.55 1012.25 1302.77 990.21 1276.22 984.605ZM1116.99 1051.44L1154.16 1078.55L1105.83 1079.79C1102.38 1089.51 1099.47 1099.41 1097.13 1109.46C1094.82 1120.5 1093.25 1131.67 1092.44 1142.92C1076.6 1140.99 1060.61 1140.7 1044.72 1142.08C1044.69 1126.75 1046.27 1111.47 1049.41 1096.47C1056.61 1062.16 1070.82 1031.69 1089.44 1010.68C1099.03 999.871 1118.26 982.354 1139.15 986.739C1151.25 989.272 1159.86 998.277 1165.84 1008.1C1149.57 1006.06 1131.34 1023.25 1116.99 1051.44ZM1247.17 1078.99L1281.76 1104.23L1236.38 1105.38C1233.11 1115.1 1230.41 1125 1228.31 1135.04C1224.25 1153.86 1222.49 1173.11 1223.06 1192.36C1218.96 1192.54 1214.88 1192.83 1210.89 1193.22C1207.37 1190.76 1203.86 1188.53 1200.13 1186.19C1207.57 1169.65 1213.19 1152.35 1216.87 1134.6C1223.69 1102.02 1224.12 1068.93 1218.11 1040.65C1235.07 1020.37 1253.74 1010.8 1270.01 1014.18C1281.24 1016.52 1289.47 1024.52 1295.38 1033.5C1279.13 1032.77 1261.19 1050.62 1247.17 1078.99ZM1091.36 1244.39C1091.01 1244.21 1090.68 1244.02 1090.31 1243.85C1088.36 1242.98 1086.22 1242.62 1084.09 1242.82C1069.57 1239.54 1055.52 1234.46 1042.25 1227.7C1033.58 1223.15 1025.51 1215.6 1016.97 1207.6C1007.03 1198.22 996.737 1188.65 984.401 1183.05C968.001 1175.62 949.318 1175.03 932.481 1181.4C916.726 1187.37 904.043 1199.43 897.305 1214.87C876.973 1261.54 890.738 1294.34 905.841 1313.64C920.943 1332.94 945.027 1348.23 974.763 1357.05C992.464 1362.29 1010.83 1364.96 1029.29 1364.98C1039.04 1365.02 1048.79 1364.24 1058.41 1362.63C1066.35 1361.28 1074.18 1359.4 1081.86 1356.98C1119.38 1345.26 1156.91 1320.33 1155.31 1291.04C1154.14 1268.85 1132.68 1253.19 1091.36 1244.39ZM919.794 1224.72C923.926 1215.32 931.681 1207.99 941.299 1204.39C946.113 1202.55 951.224 1201.61 956.378 1201.62C960.109 1201.64 963.821 1202.15 967.423 1203.12C966.366 1204.16 965.515 1205.38 964.914 1206.73L923.968 1296.85C909.101 1276.76 907.67 1252.48 919.794 1224.72ZM971.644 1330.25C961.219 1326.41 951.353 1321.2 942.307 1314.75C943.068 1313.87 943.7 1312.89 944.183 1311.84L987.286 1216.86C987.62 1216.15 987.879 1215.4 988.06 1214.63C992.046 1217.94 996.056 1221.67 1000.16 1225.54C1004.26 1229.41 1009 1233.79 1013.69 1237.69L1013.5 1238.04L971.644 1330.25ZM1032.97 1340.4C1020.38 1340.74 1007.79 1339.63 995.447 1337.1L1034.4 1251.34C1045.06 1256.53 1056.17 1260.77 1067.58 1264L1032.97 1340.4ZM1074.52 1333.37C1070.23 1334.7 1065.89 1335.71 1061.58 1336.79L1092.06 1269.7C1119.9 1276.45 1130.41 1285.55 1130.74 1292.16C1131.3 1303.51 1108.86 1322.74 1074.52 1333.44V1333.37ZM1760.16 1015.09C1729.98 1008.76 1698.96 1021.23 1681.56 1046.69C1664.16 1072.14 1663.8 1105.58 1680.67 1131.4C1697.53 1157.21 1728.29 1170.33 1758.59 1164.63C1788.9 1158.93 1812.78 1135.53 1819.11 1105.35C1827.71 1064.16 1801.34 1023.77 1760.16 1015.09ZM1793.43 1099.96C1788.04 1125.66 1763.67 1142.8 1737.66 1139.19C1711.65 1135.58 1692.87 1112.46 1694.67 1086.27C1696.47 1060.07 1718.23 1039.73 1744.49 1039.71C1747.94 1039.71 1751.39 1040.06 1754.76 1040.77C1781.77 1046.46 1799.07 1072.94 1793.43 1099.96ZM897.563 671.957C895.337 668.557 891.839 666.191 887.854 665.391L773.906 641.94C765.624 640.239 757.53 645.572 755.825 653.853L600.346 1411.36C598.644 1419.65 603.977 1427.74 612.259 1429.45L726.207 1452.9C727.226 1453.1 728.263 1453.2 729.302 1453.2C736.562 1453.2 742.82 1448.09 744.288 1440.98L899.697 683.519C900.544 679.534 899.777 675.377 897.563 671.957ZM717.6 1419.76L633.623 1402.52L782.864 675.053L866.725 692.383L717.6 1419.76Z" fill="#090100"/>
</g>
</svg>
