<svg width="2302" height="2295" viewBox="0 0 2302 2295" fill="none" xmlns="http://www.w3.org/2000/svg">
<path d="M2155.88 1508.92C2163.81 1496.27 2167.06 1479.87 2164.2 1462.12C2161.24 1443.01 2151.3 1425.67 2136.3 1413.47C2124.28 1403.85 2103.54 1393.36 2072.23 1397.79C2071.79 1397.87 2071.36 1397.98 2070.93 1398.12C2058.72 1365.3 2040.86 1334.87 2018.17 1308.2C1982.35 1265.58 1933.51 1234.7 1876.8 1232.49C1863.54 1231.93 1850.27 1233.18 1837.35 1236.19V1023.97C1838.54 1021.91 1839.29 1019.64 1839.57 1017.28C1905.34 963.964 1957.41 902.347 1994.19 833.924C2034.26 759.584 2054.55 680.53 2054.55 598.999C2054.55 438.198 1975.19 287.306 1831.32 174.077C1688.58 61.8336 1499.04 0 1297.57 0C1214.64 0 1051.15 25.9985 981.4 43.5312C980.466 43.7526 979.555 44.0669 978.683 44.4692C830.147 66.1146 693.373 122.513 584.064 208.469C440.098 321.698 360.828 472.591 360.828 633.392C360.828 714.922 381.126 793.976 421.17 868.316C458.448 937.509 511.191 999.775 578.027 1053.5V1239.99C561.336 1249.3 544.934 1259.06 526.223 1264.04C504.239 1269.9 481.067 1269.6 459.242 1263.18C439.859 1257.32 421.862 1247.6 406.331 1234.6C429.877 1223.78 445.173 1197.3 447.385 1171.66C451.185 1137.42 430.887 1100.76 393.681 1098.72H387.74C394.955 1073.32 400.92 1051.07 400.872 1031.14C400.872 999.655 388.053 984.383 376.821 970.891C370.996 964.522 366.135 957.335 362.391 949.558C358.639 941.02 356.379 929.909 354.166 919.158C349.5 896.407 344.209 870.601 321.602 864.372C301.279 858.744 281.173 863.722 267.825 877.623C244.496 901.962 250.629 941.357 259.864 970.145C261.37 974.263 262.245 978.585 262.462 982.964C261.167 982.798 259.888 982.524 258.638 982.147C239.397 972.719 228.238 950.232 214.168 921.828C210.609 914.613 206.953 907.157 202.841 899.437C186.366 868.172 158.42 861.919 138.049 869.639C120.781 876.18 105.1 894.338 105.461 920.674C94.0068 914.813 80.5869 914.156 68.6154 918.87C31.0006 935.032 36.46 967.356 43.6751 988.424C37.7029 988.378 31.8262 989.922 26.6474 992.897C5.45903 1005.4 -3.55986 1024.31 1.27427 1046.14C10.0286 1085.78 62.218 1128.08 104.451 1156.61C147.116 1185.47 193.437 1209.13 217.872 1214.93C214.77 1229.55 217.367 1246.2 226.194 1261.76C235.538 1278.69 250.837 1291.54 269.124 1297.83C276.782 1300.4 284.807 1301.71 292.885 1301.7C307.528 1301.52 321.891 1297.67 334.661 1290.5C334.879 1290.37 335.088 1290.22 335.286 1290.06C358.526 1317.8 386.873 1340.81 418.789 1357.86C467.732 1384.32 525.501 1399.3 578.051 1378.47V1766.02C578.051 1819.65 628.028 1863.31 689.477 1863.31H937.941C912.328 1910.32 903.573 1963.76 900.567 2014.27C874.761 1982.38 844.145 1958.23 810.57 1943.63C748.929 1916.82 681.203 1934.81 645.825 1987.38L645.681 1987.65L645.561 1987.81C624.805 2018.94 617.374 2057.56 624.709 2096.52C631.721 2133.45 650.443 2167.13 678.101 2192.58C703.426 2215.81 734.956 2233.78 780.315 2250.78C818.579 2265.21 904.511 2287.29 967.74 2287.29C977.524 2287.37 987.3 2286.71 996.985 2285.32C999.487 2284.94 1001.83 2283.85 1003.72 2282.17C1007.62 2282.14 1011.31 2280.38 1013.77 2277.36C1048.5 2235.89 1058.43 2166.51 1037.41 2112.37C1029.36 2091.28 1015 2073.18 996.288 2060.54C1000.03 2046.33 1004.68 2032.37 1010.21 2018.74C1034.95 1958.26 1074.77 1905.12 1125.9 1864.41C1126.34 1864.03 1126.76 1863.62 1127.15 1863.18H1184.87C1185.06 1864.07 1185.35 1864.93 1185.73 1865.76C1221.81 1943.49 1306.75 1977.33 1395.48 2001.07C1394.66 2004.55 1393.94 2007.99 1393.24 2011.38L1392.59 2014.56C1392.06 2017.11 1391.53 2019.68 1391 2022.28C1387.97 2037.38 1384.85 2052.99 1377.92 2065.21C1374.46 2071.34 1368.01 2075.29 1360.34 2078.22L1358.61 2078.34C1356.64 2078.37 1354.72 2078.89 1353 2079.86C1352.55 2080.18 1352.15 2080.58 1351.82 2081.03C1348 2082.12 1344.01 2083.1 1340.09 2084.06L1337.01 2084.83C1314.96 2090.32 1290.14 2099.26 1273.23 2124.81C1259.37 2145.18 1253.64 2170 1257.16 2194.38C1264.02 2239.14 1301.37 2276.15 1352.33 2288.44C1369.81 2292.67 1387.74 2294.8 1405.72 2294.77C1440.85 2294.65 1475.56 2287.07 1507.55 2272.55C1553.05 2251.9 1590.76 2217.25 1615.18 2173.65C1638.79 2131.33 1651.69 2083.87 1652.74 2035.41C1654.28 1978.17 1641.9 1935.1 1614.89 1903.69C1596.65 1882.68 1571.87 1868.41 1544.54 1863.18H1546.13C1559.83 1863.21 1573.44 1860.97 1586.41 1856.57L1727.71 1828.79C1788.34 1827.95 1837.38 1784.64 1837.38 1731.51V1358.73C1848.96 1356.58 1860.74 1355.6 1872.52 1355.79C1905.99 1356.64 1935.79 1368.11 1959.46 1392.04C1969.4 1402.02 1978.05 1413.22 1985.19 1425.37C1959.55 1427.63 1936.25 1447.02 1925.4 1470.32C1910.06 1501.15 1916.48 1542.47 1950.73 1557.29C1952.58 1558.06 1954.43 1558.73 1956.28 1559.33C1940.72 1580.66 1927.42 1599.52 1920.69 1618.26C1909.89 1647.84 1916.62 1666.57 1922.54 1683.19C1925.85 1691.19 1927.97 1699.64 1928.84 1708.25C1929.42 1717.54 1927.71 1728.77 1926.1 1739.52C1922.64 1762.49 1918.72 1788.53 1937.79 1802.05C1954.94 1814.31 1975.52 1816.48 1992.84 1808.11C2023.12 1793.32 2030.94 1754.21 2032.19 1723.93C2032.55 1714.72 2035 1708.3 2038.92 1706.3C2041.29 1705.23 2043.98 1705.16 2046.4 1706.11C2057.54 1718.33 2058.07 1740.62 2058.67 1766.38C2058.77 1780.95 2059.67 1795.49 2061.36 1809.96C2066.03 1844.76 2089.79 1860.25 2111.46 1860.25H2111.91C2130.41 1860.06 2151.36 1848.39 2160.01 1823.55C2168.74 1833.01 2181.11 1838.26 2193.97 1837.98C2235.48 1835.58 2241.04 1802.51 2241.38 1780.26C2246.7 1783.21 2252.9 1784.17 2258.86 1782.95C2283.06 1778.53 2298.04 1763.88 2301.02 1741.71C2306.46 1701.49 2272.16 1643.77 2242.22 1602.45C2212.16 1561.11 2176.73 1522.78 2155.88 1508.92ZM371.482 1185.37C370.95 1183.78 370.071 1182.33 368.909 1181.12C372.804 1180.52 376.78 1180.71 380.597 1181.69C385.499 1183.39 390.845 1180.79 392.538 1175.88C394.232 1170.98 391.631 1165.64 386.73 1163.94C370.352 1158.27 340.65 1165.72 317.657 1181.24C292.813 1198.07 278.359 1222.12 277.012 1248.79C276.753 1253.97 280.734 1258.38 285.911 1258.65H286.392C291.385 1258.65 295.503 1254.74 295.772 1249.76C296.068 1243.28 297.4 1236.9 299.716 1230.85C299.889 1231.59 300.123 1232.31 300.413 1233.02C306.103 1246.28 313.036 1258.98 321.121 1270.94C287.234 1287.78 259.431 1272.84 246.685 1250.16C237.064 1233.16 236.151 1210.94 255.487 1199.51C259.304 1197.49 261.702 1193.54 261.729 1189.22C261.755 1184.9 259.407 1180.91 255.615 1178.84C251.823 1176.77 247.201 1176.95 243.582 1179.31C238.281 1182.4 233.54 1186.36 229.561 1191.02C228.823 1190.81 228.066 1190.66 227.3 1190.59C214.241 1189.29 169.266 1169.38 118.809 1135.28C66.1382 1099.7 31.5537 1064.28 26.3107 1040.49C24.5791 1032.72 24.8196 1023.66 39.6828 1014.83C40.8612 1014.13 45.8637 1012.11 58.4902 1017.45C69.385 1030.99 84.4406 1040.28 99.1354 1049.32C108.314 1054.74 117.149 1060.73 125.591 1067.24C131.652 1072.94 136.87 1078.11 140.815 1082.08C145.658 1086.82 153.362 1086.98 158.391 1082.43C163.42 1077.88 164.034 1070.2 159.79 1064.9C154.719 1058.89 149.082 1053.37 142.955 1048.43C116.933 1023.75 94.3573 1006.66 75.2293 997.154C73.8091 994.94 72.6012 992.596 71.6217 990.155C58.4902 957.639 63.3965 948.789 78.5963 942.271C90.0924 937.317 105.725 949.245 113.638 963.123C124.509 982.219 138.794 995.11 152.599 1007.59C157.963 1012.4 163.158 1017.21 168.136 1022.02C173.331 1028.06 178.069 1033.4 181.845 1037.63C186.401 1042.83 194.263 1043.47 199.599 1039.07C204.936 1034.68 205.817 1026.84 201.59 1021.37C197.087 1015.45 192.203 1009.83 186.967 1004.54C153.706 966.057 134.201 938.23 132.349 930.631C127.539 910.476 136.149 897.345 146.972 893.256C156.592 889.625 170.228 892.414 180.041 911.029C183.961 918.485 187.569 925.796 191.08 932.867C206.905 964.782 220.566 992.368 248.392 1005.36C248.875 1005.58 249.373 1005.78 249.883 1005.93C266.55 1011.32 275.954 1006.56 280.908 1001.63C292.934 989.602 286.296 968.799 284.107 961.968C274.198 931.112 274.944 906.652 286.175 895.012C292.91 888.013 303.54 885.656 314.651 888.711C322.131 890.779 325.738 908.408 328.937 923.969C331.342 935.994 333.964 948.476 338.798 959.491C343.513 969.51 349.689 978.775 357.124 986.981C367.225 999.006 375.21 1008.63 375.234 1030.82C375.234 1049.08 368.957 1070.99 360.972 1098.72L359.938 1102.33C359.6 1103.48 359.438 1104.68 359.457 1105.89C355.275 1107.99 351.255 1110.4 347.432 1113.1C344.714 1115.27 341.636 1117.69 339.134 1120.08C348.755 1119.04 357.701 1117.36 366.456 1117.29H366.816C367.484 1117.6 368.176 1117.87 368.885 1118.08C371.733 1118.89 374.774 1118.7 377.495 1117.53C389.063 1118.46 399.934 1121.95 407.774 1130.2C422.541 1147.04 423.648 1171.23 418.669 1193.48C415.566 1206.61 409.668 1218.91 401.377 1229.55C387.957 1217.49 377.694 1202.32 371.482 1185.37ZM307.893 1215.94C307.813 1216.37 307.757 1216.8 307.725 1217.24L306.666 1217.65L307.893 1215.94ZM925.988 2031.66L926.109 2031.78H925.988V2031.66ZM1012.98 2121.99C1029.96 2165.69 1023.3 2220.81 997.466 2255.81C935.248 2225.55 899.87 2174.83 853.621 2101.69C829.907 2064.17 801.648 2033.44 771.849 2012.71C744.432 1993.71 715.884 1983.03 686.687 1980.79C716.678 1955.95 759.872 1950.13 800.06 1967.61C839.094 1984.59 873.895 2016.43 900.687 2059.68C910.932 2076.26 919.619 2093.75 926.638 2111.94C928.318 2116.33 932.214 2119.5 936.861 2120.24C941.507 2120.98 946.196 2119.19 949.162 2115.54C952.129 2111.89 952.921 2106.93 951.241 2102.53C945.663 2088.1 939.114 2074.05 931.64 2060.49C972.093 2072.38 999.967 2088.44 1013 2121.99H1012.98ZM1384.15 1874.99L1383.72 1874.68C1378.45 1871.07 1373.42 1867.27 1368.59 1863.31H1497.19C1492.3 1864.26 1487.48 1865.51 1482.76 1867.06C1473.3 1870.56 1464.23 1875.03 1455.7 1880.41C1441.12 1888.89 1428.57 1896.25 1416.04 1892.67C1405.48 1889.64 1394.18 1881.87 1384.15 1874.99ZM1593.82 1921.87C1616.11 1947.79 1626.31 1984.71 1624.94 2034.74C1624.02 2078.63 1612.36 2121.62 1590.98 2159.97C1569.46 2198.43 1536.2 2229.01 1496.08 2247.25C1451.87 2267.21 1403.12 2272.26 1358.82 2261.48C1310.31 2249.7 1288.64 2216.94 1284.56 2190.22C1282.09 2172.67 1286.28 2154.82 1296.29 2140.2C1307.28 2123.68 1323.18 2116.89 1343.67 2111.79L1346.65 2111.07C1354.63 2109.25 1362.49 2106.93 1370.18 2104.12C1377.94 2103.69 1388.09 2103.21 1394.23 2103.18C1403.1 2103.18 1412.05 2103.38 1421.04 2103.95C1431.1 2104.57 1441.12 2105.78 1451.03 2107.59C1446.75 2104.09 1442.24 2100.88 1437.54 2097.97C1425.91 2090.86 1413.29 2085.5 1400.09 2082.07C1400.79 2081.03 1401.46 2080 1402.09 2078.89C1411.21 2062.8 1414.93 2044.19 1418.25 2027.74L1419.77 2020.23L1420.44 2016.99C1421.57 2010.98 1423 2005.03 1424.75 1999.17C1424.95 1998.5 1425.11 1997.83 1425.23 1997.15C1462.99 1972.83 1448.75 1932.91 1443.22 1917.56C1452.43 1913.97 1461.28 1909.52 1469.67 1904.29C1476.57 1899.93 1483.88 1896.25 1491.49 1893.3C1528.24 1881.48 1568.5 1892.72 1593.82 1921.87ZM1622.82 1045.06V1766.02C1622.82 1791.35 1604.26 1813.21 1577.63 1823.04L1576.89 1823.19C1575.21 1823.51 1573.59 1824.09 1572.08 1824.9C1563.62 1827.36 1554.86 1828.61 1546.06 1828.6H689.525C647.22 1828.6 612.804 1800.51 612.804 1766.07V1045.11C612.802 1039.79 610.355 1034.76 606.166 1031.47C470.377 924.907 395.677 783.538 395.677 633.392C395.677 322.251 719.66 69.1209 1117.89 69.1209C1516.11 69.1209 1840.02 322.251 1840.02 633.392C1840.02 783.538 1765.25 924.907 1629.46 1031.47C1625.27 1034.76 1622.83 1039.79 1622.82 1045.11V1045.06ZM1802.63 1250.72C1784.1 1262.45 1771.38 1281.45 1767.58 1303.05C1763.23 1326.52 1768.02 1355.96 1795.05 1362.24C1797.54 1362.81 1800.07 1363.18 1802.63 1363.32V1731.63C1802.63 1766.12 1768.21 1794.16 1725.9 1794.16C1724.78 1794.16 1723.66 1794.26 1722.56 1794.47L1645.6 1809.6C1653.36 1796.37 1657.46 1781.31 1657.48 1765.97V1064.52L1802.63 1036.81V1250.72ZM1809.26 997.058C1807.91 998.135 1806.73 999.407 1805.75 1000.83L1693.77 1022.38C1742.21 978.097 1782.97 926.084 1814.39 868.46C1854.43 793.904 1874.78 714.922 1874.78 633.392C1874.78 472.591 1795.41 321.698 1651.54 208.469C1532.9 115.201 1381.98 56.783 1218.78 39.6832C1248.77 36.6047 1276.23 34.7288 1297.64 34.7288C1695.87 34.7288 2019.85 287.859 2019.85 598.999C2019.85 749.146 1945.05 890.514 1809.29 997.058H1809.26ZM2072.57 1475.44H2073.75L2071.8 1476.79C2071.99 1476.43 2072.33 1475.95 2072.57 1475.44ZM2275.72 1738.58C2274.66 1746.47 2271.3 1754.93 2254.32 1758.06C2253.74 1758.06 2249.15 1755.66 2242.87 1741.35C2239.19 1732.56 2236.05 1723.55 2233.46 1714.39C2230.26 1699.95 2226.02 1684.32 2220.74 1667.49C2217.8 1656 2214.01 1644.75 2209.41 1633.82C2206.76 1627.27 2199.3 1624.11 2192.75 1626.77C2186.2 1629.43 2183.04 1636.89 2185.7 1643.44C2189.52 1654.26 2192.99 1664.64 2196.11 1674.58C2197.65 1680.21 2199.22 1686.13 2200.92 1692.16C2203.5 1701.78 2206.1 1711.74 2208.86 1721.02C2212.68 1737.14 2215 1753.57 2215.81 1770.11C2216.94 1805.18 2209.27 1811.77 2192.77 1812.68C2180.22 1813.3 2169.68 1796.78 2167.04 1781.03L2165.88 1774.1C2164.22 1764.03 2162.56 1754.14 2160.81 1744.35C2157.9 1721.67 2152.94 1696.92 2144.89 1676.58C2142.16 1670.52 2135.24 1667.56 2128.97 1669.77C2122.71 1671.97 2119.17 1678.61 2120.84 1685.04C2126.99 1705.7 2131.9 1726.71 2135.53 1747.96C2138.83 1773.62 2139.4 1796.66 2138.47 1804.89C2136.06 1825.5 2123.41 1834.83 2111.84 1834.95H2111.65C2101.48 1834.95 2089.72 1827.59 2086.95 1806.86C2085.4 1793.28 2084.6 1779.64 2084.54 1765.97C2083.82 1735.48 2083.13 1706.64 2064.01 1687.42C2063.64 1687.05 2063.24 1686.69 2062.83 1686.37C2052.82 1679.32 2039.83 1678.1 2028.68 1683.14C2021 1686.7 2007.92 1696.61 2006.86 1723.12C2005.54 1755.49 1996.42 1778.12 1981.85 1785.24C1973.12 1789.52 1962.32 1788.05 1952.99 1781.37C1946.69 1776.84 1949.36 1759.05 1951.74 1743.34C1953.57 1731.17 1955.44 1718.59 1954.7 1706.59C1953.72 1695.57 1951.12 1684.75 1946.98 1674.49C1941.64 1659.65 1937.36 1648.03 1945.05 1627.06C1951.31 1609.93 1964.77 1591.54 1981.8 1568.25L1984.04 1565.22C1984.73 1564.25 1985.28 1563.18 1985.67 1562.05C1990.39 1561.5 1995.06 1560.61 1999.65 1559.38C2002.94 1558.25 2006.67 1556.98 2009.82 1555.68C2000.42 1553.27 1991.47 1551.83 1983.22 1548.89L1982.86 1548.77C1982.38 1548.24 1981.85 1547.76 1981.27 1547.33C1978.91 1545.61 1976.02 1544.76 1973.1 1544.93C1962.51 1540.12 1953.45 1532.9 1949.04 1522.54C1940.94 1501.76 1948.25 1478.55 1960.59 1459.38C1967.98 1448.2 1977.67 1438.73 1989.02 1431.6C1997.7 1447.87 2002.16 1466.07 2001.98 1484.51C2001.96 1485.85 2002.18 1487.17 2002.63 1488.43C1998.89 1487.65 1995.34 1486.13 1992.19 1483.96C1989.68 1481.37 1985.9 1480.45 1982.48 1481.59C1979.05 1482.73 1976.58 1485.73 1976.12 1489.31C1975.66 1492.89 1977.29 1496.42 1980.31 1498.39C1989.04 1505.6 2004.99 1509.38 2022.47 1509.38C2032.13 1509.39 2041.75 1508.23 2051.14 1505.94C2080.24 1498.73 2102.05 1481.19 2112.56 1456.52C2114.36 1451.8 2112.1 1446.5 2107.46 1444.52C2102.81 1442.54 2097.43 1444.59 2095.27 1449.16C2092.8 1455.01 2089.43 1460.45 2085.29 1465.27C2085.29 1465.27 2085.29 1465.27 2085.29 1465.15C2084.5 1450.09 2082.19 1435.15 2078.39 1420.56C2116.17 1416.33 2137.26 1439.8 2141.45 1465.68C2144.57 1484.92 2137.82 1506.13 2115.74 1510.17C2109.77 1511.27 2105.62 1516.73 2106.16 1522.77C2106.71 1528.81 2111.76 1533.44 2117.83 1533.45C2118.55 1533.45 2119.26 1533.38 2119.97 1533.26C2126.01 1532.17 2131.82 1530.08 2137.17 1527.08C2137.78 1527.55 2138.44 1527.95 2139.14 1528.28C2150.95 1533.98 2186.3 1568.16 2221.94 1617.56C2258.72 1669.34 2278.97 1714.43 2275.72 1738.58Z" fill="#090100"/>
</svg>
