<svg width="2304" height="2233" viewBox="0 0 2304 2233" fill="none" xmlns="http://www.w3.org/2000/svg">
<mask id="mask0_1_335" style="mask-type:luminance" maskUnits="userSpaceOnUse" x="0" y="0" width="2304" height="2233">
<path d="M2304 0H0V2232.69H2304V0Z" fill="white"/>
</mask>
<g mask="url(#mask0_1_335)">
<path d="M1049.64 1978.97C1024.67 1968.72 989.426 1963.72 959.945 1964.04V1964.51C975.464 1978.49 987.788 1995.65 996.076 2014.82C998.414 2020.19 1000.38 2025.71 1001.96 2031.35C994.452 2023.75 986.502 2016.6 978.15 2009.94C970.71 2003.99 963.115 1998.32 955.365 1992.94C948.879 1988.45 936.766 1980.83 929.791 1976.5C928.472 1976.07 927.226 1975.45 926.094 1974.64C879.106 1939.96 827.538 1921.8 780.875 1923.49C734.213 1925.19 691.596 1949.44 668.184 1988.11C648.538 2020.66 639.47 2072.78 665.998 2110.84C696.572 2154.71 766.391 2160.85 817.378 2165.36C883.105 2171.15 945.693 2167.69 1003.38 2155.25C1004.77 2154.97 1006.12 2154.52 1007.4 2153.9C984.986 2098.43 997.238 2032.68 1040.13 1987.92C1043.17 1984.8 1046.34 1981.81 1049.64 1978.97Z" fill="white" stroke="white" stroke-width="9.29992" stroke-miterlimit="10" stroke-linecap="round"/>
<path d="M1299.49 1956.86C1318.49 1965.55 1335.4 1978.24 1349.05 1994.06C1352.88 1998.46 1356.41 2003.12 1359.61 2008.01C1350.18 2003.01 1340.46 1998.57 1330.5 1994.71C1321.6 1991.24 1312.66 1988.14 1303.67 1985.41C1296.21 1983.08 1282.58 1979.5 1274.47 1977.48C1273 1977.46 1271.54 1977.21 1270.14 1976.74C1241.42 1966.72 1211.24 1961.48 1180.82 1961.23C1136.64 1961.23 1092.47 1973.71 1060.27 2007.22C1021.65 2047.49 1013.28 2111.05 1040.39 2158.34C1060.41 2193.22 1087.45 2201.24 1130.34 2203.75C1168.12 2205.91 1261.24 2182.82 1298.49 2170.24C1303.14 2168.69 1308.25 2167.01 1313.81 2165.2C1368.91 2147.2 1483.53 2109.77 1470.88 2054.16C1459.42 2004.08 1428.22 1966.51 1404.06 1952.77C1371.75 1934.4 1338.96 1939.1 1299.14 1955.44C1299.28 1955.86 1299.39 1956.35 1299.49 1956.86ZM265.776 1443.92C266.032 1445.75 265.832 1447.61 265.195 1449.34V1449.62C269.09 1448.36 272.678 1446.3 275.727 1443.57C279.277 1439.82 285.195 1439.66 288.944 1443.21C292.694 1446.76 292.855 1452.68 289.305 1456.43C279.331 1466.96 256.755 1473.66 233.505 1473.66C229.108 1473.65 224.715 1473.4 220.346 1472.91C190.726 1469.54 166.871 1455.01 153.456 1431.99C150.843 1427.54 152.332 1421.82 156.781 1419.21C161.23 1416.59 166.955 1418.08 169.568 1422.53C172.786 1428.06 176.859 1433.04 181.635 1437.29C181.493 1436.77 181.4 1436.23 181.356 1435.69C180.238 1421.19 180.495 1406.62 182.123 1392.17C144.598 1393 126.905 1418.88 126.091 1444.73C125.463 1464.1 134.833 1484.26 157.13 1485.33C163.55 1485.5 168.619 1490.84 168.452 1497.26C168.285 1503.68 162.945 1508.75 156.525 1508.58H155.921C149.817 1508.28 143.806 1506.97 138.134 1504.7C137.592 1505.22 137.001 1505.7 136.367 1506.11C125.44 1513.25 94.9131 1551.5 66.06 1604.76C35.8353 1660.35 21.7227 1707.5 28.0234 1730.89C30.0693 1738.54 34.4868 1746.47 51.6219 1747.38C52.2962 1747.38 56.4579 1744.35 60.7823 1729.45C63.29 1720.28 65.2389 1710.96 66.618 1701.55C67.9665 1686.9 70.152 1670.95 73.1745 1653.68C74.6258 1641.95 76.9574 1630.35 80.1494 1618.97C82.4286 1612.78 89.0527 1609.35 95.4199 1611.07C101.787 1612.79 105.793 1619.08 104.655 1625.57C102.252 1636.73 100.152 1647.42 98.354 1657.63C97.5403 1663.38 96.7498 1669.42 96.029 1675.56C94.7271 1685.51 93.4251 1695.53 91.8906 1705.16C90.1906 1721.55 90.0038 1738.06 91.3326 1754.49C94.6806 1789.23 103.097 1794.78 119.488 1793.53C131.903 1792.62 140.227 1774.93 140.808 1759.03L141.064 1752.05C141.436 1741.91 141.808 1731.94 142.296 1722.01C142.296 1699.27 143.993 1674.23 149.271 1653.12C150.993 1646.54 157.583 1642.47 164.239 1643.88C170.895 1645.29 175.268 1651.68 174.172 1658.4C170.734 1679.56 168.575 1700.91 167.708 1722.34C167.708 1748.07 170.033 1770.88 172.079 1778.88C177.008 1798.9 190.679 1806.52 202.188 1805.13C212.278 1803.94 223.113 1795.2 223.113 1774.25C222.937 1760.7 222.014 1747.16 220.346 1733.71C217.184 1703.48 214.161 1674.98 230.576 1653.56C230.9 1653.15 231.249 1652.75 231.622 1652.38C240.599 1644.16 253.25 1641.3 264.892 1644.85C272.937 1647.36 287.073 1655.49 291.513 1681.49C296.954 1713.25 308.835 1734.43 324.063 1739.61C333.224 1742.7 343.709 1739.89 351.963 1732.1C357.636 1726.82 352.707 1709.62 348.382 1694.41C345.011 1682.65 341.547 1670.49 340.733 1658.54C340.31 1647.57 341.508 1636.61 344.29 1625.99C347.638 1610.69 350.289 1598.58 340.106 1578.98C331.759 1562.87 316.135 1546.43 296.349 1525.64L294.024 1522.81C293.219 1521.94 292.538 1520.96 292.002 1519.9C286.074 1519.98 280.154 1519.46 274.332 1518.34C272.007 1517.79 269.682 1517.34 267.357 1516.67C276.331 1513.16 284.98 1510.53 292.722 1506.58L293.071 1506.42C293.49 1505.84 293.957 1505.29 294.466 1504.79C296.595 1502.79 299.344 1501.59 302.255 1501.37C314.205 1493.84 323.505 1483.24 324.528 1468.82C324.927 1464.52 324.732 1460.19 323.947 1455.94C318.506 1427.69 298.651 1403.61 271.216 1391.07C265.322 1408.03 263.459 1426.12 265.776 1443.92ZM2151.45 1452.1C2150.8 1451.73 2150.17 1451.3 2149.59 1450.83C2144.12 1453.52 2138.23 1455.29 2132.18 1456.06C2131.67 1456.09 2131.15 1456.09 2130.64 1456.06C2124.22 1456.46 2118.69 1451.58 2118.29 1445.16C2117.88 1438.74 2122.76 1433.21 2129.18 1432.81C2151.34 1429.95 2159.12 1409.21 2157.08 1389.96C2154.26 1364.15 2134.57 1339.67 2096.84 1341.85C2099.82 1356.39 2101.33 1371.19 2101.32 1386.03V1386.73C2105.7 1382.14 2109.34 1376.91 2112.11 1371.22C2113.58 1368.22 2116.53 1366.23 2119.86 1366C2123.19 1365.77 2126.39 1367.34 2128.26 1370.11C2130.12 1372.87 2130.37 1376.43 2128.9 1379.43C2117.27 1403.4 2094.58 1419.69 2065.31 1425.32C2057.94 1426.72 2050.45 1427.42 2042.94 1427.41C2023.11 1427.41 2004.65 1422.55 1995.35 1414.14C1991.5 1410.68 1991.18 1404.75 1994.64 1400.9C1998.1 1397.04 2004.03 1396.73 2007.88 1400.19C2010.85 1402.49 2014.25 1404.17 2017.88 1405.14C2017.61 1404.05 2017.51 1402.93 2017.58 1401.82C2018.73 1383.35 2015.24 1364.89 2007.44 1348.11C1981.45 1362.85 1963.85 1388.19 1960.62 1416.32C1960.18 1420.62 1960.33 1424.96 1961.04 1429.23C1963.15 1443.41 1973.24 1453.27 1985.7 1459.87C1988.63 1459.85 1991.47 1460.84 1993.75 1462.68C1994.29 1463.15 1994.8 1463.65 1995.26 1464.19L1995.61 1464.33C2003.65 1467.68 2012.46 1469.63 2021.67 1472.45C2019.35 1473.29 2017.16 1473.91 2014.86 1474.63C2009.14 1476.21 2003.27 1477.19 1997.35 1477.56C1996.9 1478.65 1996.29 1479.68 1995.56 1480.61L1993.24 1483.47C1975.08 1505.72 1960.69 1523.3 1953.71 1540.01C1945.06 1560.33 1948.62 1572.19 1953.13 1587.21C1956.73 1597.62 1958.77 1608.5 1959.18 1619.5C1959.18 1631.48 1956.85 1643.87 1954.29 1655.87C1951.13 1671.35 1947.53 1688.88 1953.57 1693.69C1962.52 1700.83 1973.17 1702.85 1982.08 1699.06C1996.93 1692.74 2007.16 1670.72 2010.16 1638.61C2012.49 1612.34 2026.09 1603.18 2033.92 1600.04C2045.27 1595.62 2058.1 1597.51 2067.68 1605.02C2068.08 1605.37 2068.45 1605.74 2068.8 1606.13C2086.79 1626.25 2085.96 1654.96 2085.07 1685.18C2084.45 1698.73 2084.56 1712.29 2085.4 1725.82C2087.1 1746.75 2098.53 1754.58 2108.65 1755.03C2120.06 1755.51 2133.27 1746.89 2136.55 1726.55C2137.92 1718.41 2138.55 1695.51 2136.55 1669.84C2134.06 1648.54 2130.28 1627.41 2125.23 1606.58C2123.55 1599.94 2127.43 1593.16 2134 1591.24C2140.57 1589.31 2147.49 1592.92 2149.66 1599.42C2156.64 1620.06 2160.26 1644.89 2161.94 1667.58C2163.19 1677.44 2164.26 1687.37 2165.47 1697.48L2166.24 1704.46C2168.03 1720.22 2177.65 1737.24 2190.09 1737.24C2206.53 1737.24 2214.5 1731.03 2215.2 1696.16C2215.25 1679.68 2213.8 1663.22 2210.85 1647.01C2208.53 1637.52 2206.53 1627.64 2204.48 1617.81C2203.23 1611.76 2201.97 1605.81 2200.74 1600.14C2198.15 1590.09 2195.24 1579.59 2192 1568.63C2190.08 1562.1 2193.63 1555.21 2200.07 1552.99C2206.5 1550.77 2213.55 1554 2216.06 1560.33C2220.07 1571.45 2223.25 1582.85 2225.57 1594.44C2229.9 1611.38 2233.29 1627.11 2235.76 1641.64C2237.85 1650.9 2240.5 1660.02 2243.71 1668.96C2249.19 1683.58 2253.59 1686.14 2254.22 1686.14C2271.21 1683.81 2275.02 1675.67 2276.49 1667.89C2280.98 1644.08 2263.19 1598.14 2228.92 1545.03C2196.25 1494.19 2162.91 1458.38 2151.45 1452.1Z" fill="white" stroke="white" stroke-width="9.29992" stroke-miterlimit="10" stroke-linecap="round"/>
<path d="M1073.61 546.339C1067.85 546.044 1062.1 545.897 1056.39 545.897C884.802 545.897 740.909 680.746 731.818 854.073C722.518 1033.1 860.506 1186.55 1039.58 1195.85C1218.65 1205.15 1372.05 1067.16 1381.35 888.088C1390.65 709.018 1252.68 555.732 1073.61 546.339Z" fill="#FFC23B" stroke="#FFC23B" stroke-width="9.29992" stroke-miterlimit="10" stroke-linecap="round"/>
<path d="M1024.32 889.901C1031.09 896.527 1038.58 900.247 1046.32 900.643C1059.92 901.41 1073.73 891.901 1085.24 874.022C1097.98 854.189 1105.84 827.08 1107.37 797.716C1110.39 740.335 1087.49 690.534 1057.41 688.976H1055.94C1046.64 688.976 1037.72 693.51 1029.62 701.508H1029.88C1044.11 702.252 1055.71 720.364 1061.43 747.031L1025.7 760.981L1064.38 772.304C1065.09 780.871 1065.32 789.472 1065.06 798.064C1062.5 846.703 1044.71 885.902 1024.32 889.901ZM946.228 683.141H944.786C936.393 683.141 927.954 687 920.072 694.277C934.022 696.068 945.275 714.621 950.715 741.451L917.468 754.378L953.784 764.98C954.327 773.495 954.382 782.034 953.947 790.555C951.32 840.379 932.766 880.299 911.795 882.717C918.909 890.18 926.861 894.342 935.045 894.807C948.785 895.528 962.945 885.623 974.407 867.442C966.134 843.43 962.712 818.015 964.34 792.671C965.804 764.933 972.57 738.219 983.521 716.713C974.058 696.044 960.596 683.954 946.228 683.141Z" fill="white" stroke="white" stroke-width="9.29992" stroke-miterlimit="10" stroke-linecap="round"/>
<path d="M1996.12 536.644C1968.01 385.032 1900.31 265.458 1794.87 181.433C1690.15 97.9196 1549.75 50.3505 1377.47 39.9346C1355.45 38.6094 1334.71 38.0049 1314.95 38.0049C1219.18 38.0049 1146.9 52.3035 1065.38 68.4156C983.869 84.5278 891.289 102.849 759.416 108.661C612.756 115.124 483.696 159.811 386.163 238.139C280.074 323.396 213.766 443.784 189.4 596C160.408 776.675 178.24 953.861 241.015 1108.38C307.579 1272.36 422.758 1402.14 574.045 1483.75C864.179 1640.08 1176.21 1675.35 1452.89 1583.07C1614.61 1529.02 1785.08 1422.51 1861.06 1267.9C1858.02 1268.27 1854.97 1268.69 1851.9 1269.15C1841.16 1270.83 1829.93 1272.2 1819.35 1269.15C1793.4 1261.99 1789.13 1233.67 1794.13 1210.77C1804.87 1161.32 1852.51 1141.88 1898.75 1143.84C1900.67 1128.78 1901.71 1113.63 1901.86 1098.45C1902.93 999.129 1929.76 921.544 1955.83 846.517C1988.52 752.053 2019.46 662.727 1996.12 536.644ZM1415.83 890.041C1405.78 1081.76 1246.59 1230.95 1056.8 1230.95C1050.48 1230.95 1044.13 1230.79 1037.76 1230.46C839.674 1220.07 686.969 1050.46 697.339 852.376C707.708 654.288 877.269 501.443 1075.43 511.906C1273.59 522.368 1426.29 691.836 1415.83 889.924V890.041Z" fill="#FFFEF3" stroke="#FFFEF3" stroke-width="9.29992" stroke-miterlimit="10" stroke-linecap="round"/>
<path d="M194.957 1445.64L193.841 1445.78C194.469 1446.13 195.12 1446.45 195.771 1446.78C195.492 1446.41 195.213 1446.04 194.957 1445.64ZM2088.47 1396.1C2088.23 1396.54 2087.96 1396.98 2087.68 1397.4C2088.33 1397.03 2088.98 1396.63 2089.61 1396.21C2089.23 1396.2 2088.84 1396.16 2088.47 1396.1Z" fill="#FFFDEB"/>
<path d="M1174.61 947.142C1172.04 947.027 1169.57 946.153 1167.5 944.631C1166.75 946.956 1165.94 949.281 1165.17 951.606C1192.68 955.257 1216.44 969.067 1235.36 989.434C1246.64 1001.57 1228.39 1019.82 1217.13 1007.64C1202.25 991.619 1183.42 979.018 1161.15 976.902C1158.62 976.685 1156.2 975.749 1154.17 974.205C1151.35 978.814 1148.19 983.205 1144.71 987.341C1154.14 992.839 1163.25 998.879 1171.98 1005.43C1189.26 1017.52 1208.86 1034.07 1230.25 1037.82C1254.68 1042.09 1259.38 1012.82 1254.45 994.781C1244.13 957.442 1209.3 949.235 1174.61 947.142Z" fill="#FF73EF" stroke="#FF73EF" stroke-width="9.29992" stroke-miterlimit="10" stroke-linecap="round"/>
<path d="M1045.13 923.427H1047.83C1068.99 923.427 1089 910.314 1104.47 886.228C1119.32 863.094 1128.46 832.032 1130.2 798.762C1133.97 726.688 1102.54 668.307 1058.62 666.006C1036.67 664.89 1016.35 678.002 1001.03 700.415C987.799 675.77 968.734 661.286 947.414 660.17C925.257 659.031 904.192 672.19 888.08 697.369C873.223 720.503 864.086 751.565 862.343 784.835C860.599 818.106 866.434 849.935 878.803 874.487C892.195 901.131 911.772 916.336 933.929 917.592H936.556C956.853 917.592 976.383 905.223 991.472 883.042C1004.82 908.036 1023.77 922.358 1045.13 923.427ZM1064.38 772.304L1025.7 761.004L1061.43 747.054C1055.71 720.387 1044.11 702.275 1029.88 701.531H1029.62C1037.72 693.533 1046.71 689 1055.94 689H1057.41C1087.49 690.557 1110.39 740.358 1107.37 797.739C1105.84 827.103 1098.07 854.213 1085.24 874.045C1073.73 891.924 1059.92 901.433 1046.32 900.666C1038.58 900.271 1031.09 896.551 1024.32 889.924C1044.71 885.925 1062.5 846.68 1065.06 797.971C1065.31 789.41 1065.09 780.84 1064.38 772.304ZM964.409 792.787C962.782 818.131 966.204 843.547 974.476 867.558C963.037 885.739 948.902 895.644 935.114 894.923C926.861 894.505 918.84 890.273 911.865 882.833C932.789 880.508 951.389 840.495 954.017 790.671C954.451 782.15 954.397 773.611 953.854 765.096L917.538 754.494L950.785 741.567C945.344 714.737 934.091 696.184 920.142 694.394C928.023 687.116 936.416 683.257 944.856 683.257H946.298C960.666 684.001 974.197 696.161 983.66 716.83C972.64 738.219 965.944 764.933 964.409 792.67V792.787ZM1174.61 921.381C1173.97 921.335 1173.32 921.335 1172.68 921.381C1172.84 920.242 1173.01 919.056 1173.12 917.964C1175.05 901.247 1148.87 901.387 1146.97 917.964C1144.2 941.865 1133.2 965.579 1114.67 980.413C1112.95 981.061 1111.44 982.171 1110.3 983.621C1103.85 987.991 1096.71 991.223 1089.17 993.177C1060.52 1000.73 1034.44 985.69 1025.16 957.86C1019.84 941.981 994.564 948.793 999.912 964.835C1013.47 1005.45 1051.67 1028.87 1094.03 1018.94C1104.64 1016.47 1114.72 1012.1 1123.79 1006.06C1136.48 1009.36 1153.22 1023.84 1164.01 1031.35C1181.45 1043.54 1200.16 1057.14 1221.2 1062.23C1241.76 1067.2 1260.73 1060.81 1272.72 1043.02C1288.56 1019.38 1282.79 986.853 1268.75 963.743C1248.85 930.914 1210.32 923.544 1174.61 921.381ZM1230.15 1037.93C1208.76 1034.19 1189.17 1017.64 1171.89 1005.55C1163.16 998.995 1154.05 992.956 1144.62 987.457C1148.1 983.321 1151.26 978.93 1154.08 974.321C1156.1 975.865 1158.52 976.801 1161.06 977.018C1183.33 979.134 1202.16 991.735 1217.04 1007.75C1228.34 1019.94 1246.55 1001.69 1235.27 989.55C1216.34 969.183 1192.58 955.373 1165.08 951.722C1165.94 949.397 1166.75 947.072 1167.4 944.747C1169.47 946.269 1171.95 947.143 1174.52 947.258C1209.21 949.351 1244.03 957.558 1254.26 995.013C1259.29 1012.94 1254.59 1042.21 1230.15 1037.93Z" fill="#090100"/>
<path d="M2169.56 1433.6C2178.1 1421.44 2182.19 1405.33 2180.23 1387.52C2178.3 1368.38 2169.33 1350.64 2155.05 1337.74C2143.71 1327.6 2123.55 1316.07 2092.28 1318.84C2091.86 1318.84 2091.47 1319 2091.05 1319.07C2080.24 1284.6 2063.24 1252.38 2040.88 1224C2013.39 1188.73 1977.54 1161.23 1935.09 1149.6C1937.27 1132.78 1938.46 1115.85 1938.65 1098.89C1939.65 1005.57 1965.55 930.867 1990.59 858.63C2023.48 763.701 2057.5 665.657 2032.44 529.901C2002.7 369.292 1930.53 242.348 1817.96 152.58C1707.19 64.2309 1559.88 13.988 1379.88 3.17687C1246.31 -4.86756 1159.27 12.4768 1058.45 32.2856C978.127 48.1653 887.08 66.1606 757.997 71.8103C603.479 78.6458 467.003 126.192 363.332 209.356C308.394 253.452 262.441 307.692 227.972 369.129C191.4 434.019 166.197 508.372 153.084 590.002C123.022 777.326 141.668 961.301 206.954 1122.07C222.348 1160.13 240.573 1196.97 261.475 1232.3C223.506 1269.47 197.24 1316.94 185.913 1368.85H185.331C153.898 1368.55 134.67 1381.5 124.115 1392.49C110.881 1406.44 103.293 1424.8 102.818 1444.01C102.237 1461.92 107.468 1477.68 116.977 1489.17C98.1912 1505.44 68.1525 1547.71 43.7402 1592.74C-0.0159636 1673.49 -2.3177 1716.11 3.47151 1737.61C9.26071 1759.12 25.9076 1771.65 50.3431 1772.93C56.3896 1773.36 62.3928 1771.62 67.269 1768.02C70.431 1789.97 80.1726 1822.03 121.395 1818.96C132.787 1818.13 144.458 1811.78 153.061 1800.36C163.709 1821.5 182.821 1830.73 199.863 1830.73C201.673 1830.73 203.482 1830.62 205.28 1830.4C226.809 1827.84 248.594 1809.48 248.734 1774.35C248.571 1759.86 247.601 1745.39 245.828 1731.01C243.154 1705.43 240.829 1683.49 250.222 1670.03C252.487 1668.75 255.174 1668.46 257.662 1669.21C261.754 1670.68 265.009 1676.72 266.543 1685.77C275.843 1739.45 298.581 1757.84 316.112 1763.7C334.27 1769.84 354.288 1764.98 369.586 1750.7C386.652 1734.8 379.467 1709.62 373.12 1687.39C370.144 1676.88 367.029 1666.03 366.424 1656.8C366.167 1648.17 367.177 1639.55 369.423 1631.22C373.167 1614.16 377.398 1594.81 362.983 1567.01C353.846 1549.38 338.408 1532.46 320.32 1513.41C322.087 1512.58 323.831 1511.69 325.551 1510.69C357.427 1491.89 358.496 1450.04 339.501 1421.65C325.551 1399.82 299.535 1383.38 273.518 1385.03C283.782 1359.65 301.247 1337.83 323.761 1322.25C387.575 1401.88 466.803 1467.81 556.701 1516.09C678.134 1581.51 803.381 1626.29 928.488 1650.08C909.54 1690.9 900.449 1742.66 902.1 1801.2C903.605 1848.02 910.994 1894.47 924.094 1939.44C877.06 1909.34 826.445 1893.87 779.759 1895.66C723.379 1897.78 672.81 1926.94 644.515 1973.62C619.545 2014.84 609.478 2078.25 643.306 2126.67C681.32 2181.2 758.602 2188.01 815.052 2192.98C836.597 2194.89 857.824 2195.84 878.734 2195.82C922.651 2195.99 966.461 2191.48 1009.42 2182.36C1013.21 2181.56 1016.89 2180.27 1020.35 2178.52C1046.09 2218.51 1081.22 2228.56 1128.83 2231.35C1130.85 2231.46 1132.99 2231.53 1135.27 2231.53C1179.94 2231.53 1269.33 2209.28 1307.46 2196.45C1312.11 2194.91 1317.09 2193.26 1322.55 2191.5C1390.32 2169.36 1516.48 2128.19 1498.11 2047.83C1488.44 2005.61 1459.91 1952.32 1417.9 1928.47C1400.81 1918.59 1381.46 1913.27 1361.73 1913.01C1361.57 1912.57 1361.39 1912.13 1361.19 1911.71C1322.69 1828.47 1319.76 1746.63 1352.15 1648.19C1390.17 1640.3 1427.7 1630.21 1464.56 1617.97C1589.41 1576.31 1703.08 1510.16 1784.62 1431.71C1831.98 1386.15 1869.06 1336.27 1894.82 1283.52C1897.42 1278.22 1899.87 1272.87 1902.21 1267.5C1932.04 1270.99 1958.48 1283.33 1979.1 1305.79C1989.09 1316.65 1997.57 1328.8 2004.3 1341.92C1978.73 1342.81 1954.57 1360.99 1942.58 1383.45C1925.72 1413.21 1929.97 1454.85 1963.2 1471.17C1964.99 1472.03 1966.8 1472.77 1968.61 1473.49C1952.04 1493.88 1937.95 1511.93 1930.18 1530.2C1917.93 1559.01 1923.63 1577.98 1928.65 1594.72C1931.52 1602.83 1933.19 1611.32 1933.6 1619.92C1933.6 1629.22 1931.42 1640.24 1929.23 1650.91C1924.58 1673.58 1919.35 1699.25 1937.6 1713.69C1953.99 1726.75 1974.31 1730.08 1991.96 1722.57C2022.81 1709.46 2032.62 1671 2035.41 1641.08C2036.27 1631.94 2039.06 1625.69 2043.04 1623.9C2045.45 1622.95 2048.15 1623.04 2050.5 1624.13C2060.92 1636.82 2060.27 1659 2059.54 1684.58C2058.88 1699.05 2059.01 1713.55 2059.94 1728.01C2062.78 1763.07 2085.89 1779.67 2107.56 1780.6H2109.44C2127.36 1780.6 2147.69 1770.02 2157.31 1746.63C2166.61 1757.26 2178.82 1762.7 2190.23 1762.7C2231.59 1762.7 2238.82 1729.89 2240.31 1707.78C2245.44 1711 2251.55 1712.27 2257.54 1711.36C2281.81 1708.22 2297.46 1694.46 2301.72 1672.58C2309.18 1632.92 2278 1573.82 2250.57 1531.2C2222.74 1488.26 2189.56 1448.43 2169.56 1433.6ZM194.957 1445.64C195.213 1446.04 195.492 1446.41 195.771 1446.78C195.12 1446.46 194.469 1446.13 193.841 1445.78L194.957 1445.64ZM323.9 1456.06C324.685 1460.3 324.881 1464.64 324.482 1468.94C323.459 1483.24 314.159 1493.84 302.208 1501.49C299.298 1501.7 296.549 1502.91 294.42 1504.91C293.91 1505.41 293.444 1505.95 293.025 1506.53L292.676 1506.7C284.934 1510.65 276.401 1513.28 267.31 1516.79C269.635 1517.46 271.96 1517.9 274.285 1518.46C280.107 1519.58 286.028 1520.1 291.955 1520.02C292.492 1521.08 293.172 1522.05 293.978 1522.92L296.559 1525.62C316.344 1546.43 331.968 1562.82 340.315 1578.96C350.498 1598.56 347.848 1610.67 344.5 1625.97C341.718 1636.58 340.519 1647.55 340.942 1658.52C341.756 1670.47 345.22 1682.63 348.592 1694.39C352.916 1709.6 357.892 1726.8 352.172 1732.08C343.802 1739.87 333.317 1742.68 324.272 1739.59C308.997 1734.43 297.117 1713.25 291.723 1681.46C287.282 1655.47 273.123 1647.33 265.102 1644.82C253.46 1641.27 240.809 1644.14 231.831 1652.36C231.458 1652.73 231.109 1653.12 230.785 1653.54C214.371 1674.95 217.393 1703.48 220.555 1733.68C222.174 1747.19 223.043 1760.77 223.159 1774.37C223.159 1795.3 212.278 1804.06 202.234 1805.25C190.818 1806.64 177.055 1799.02 172.126 1779C170.149 1771 167.778 1748.19 167.755 1722.45C168.622 1701.03 170.78 1679.68 174.218 1658.52C175.315 1651.8 170.942 1645.41 164.286 1644C157.629 1642.59 151.039 1646.66 149.318 1653.24C143.97 1674.35 142.226 1699.39 142.343 1722.13C141.854 1732.06 141.482 1742.03 141.11 1752.17L140.855 1759.14C140.273 1775.02 131.95 1792.74 119.535 1793.64C103.143 1794.9 94.727 1789.34 91.379 1754.61C90.0502 1738.18 90.237 1721.67 91.937 1705.27C93.4715 1695.65 94.7735 1685.63 96.0755 1675.67C96.866 1669.54 97.6565 1663.49 98.4005 1657.75C100.167 1647.46 102.252 1636.73 104.655 1625.57C105.715 1619.09 101.677 1612.87 95.3275 1611.19C88.978 1609.52 82.3967 1612.95 80.1261 1619.11C76.9341 1630.49 74.6025 1642.09 73.1512 1653.82C70.1442 1671.07 67.9587 1687.03 66.5947 1701.69C65.2156 1711.1 63.2668 1720.42 60.759 1729.59C56.4346 1744.49 52.2729 1747.52 51.5986 1747.52C34.4635 1746.61 30.046 1738.68 28.0001 1731.03C21.6994 1707.64 35.9282 1660.49 66.0368 1604.9C94.8898 1551.64 125.417 1513.39 136.344 1506.25C136.977 1505.84 137.569 1505.36 138.111 1504.84C143.783 1507.11 149.794 1508.42 155.897 1508.72H156.502C162.922 1508.89 168.262 1503.82 168.429 1497.4C168.596 1490.98 163.526 1485.64 157.106 1485.47C134.81 1484.31 125.44 1464.24 126.068 1444.87C126.881 1419.02 144.668 1393.14 182.1 1392.31C180.472 1406.76 180.215 1421.33 181.333 1435.83C181.376 1436.37 181.47 1436.91 181.612 1437.43C176.835 1433.18 172.763 1428.2 169.545 1422.67C166.932 1418.22 161.207 1416.73 156.758 1419.35C152.308 1421.96 150.82 1427.68 153.433 1432.13C166.941 1455.15 190.632 1469.68 220.322 1473.05C224.692 1473.54 229.085 1473.79 233.482 1473.8C256.732 1473.8 279.261 1467.1 289.281 1456.57C292.832 1452.82 292.67 1446.9 288.921 1443.35C285.172 1439.8 279.254 1439.96 275.703 1443.71C272.654 1446.44 269.066 1448.5 265.171 1449.76V1449.48C265.809 1447.75 266.008 1445.89 265.753 1444.06C263.44 1426.3 265.286 1408.25 271.147 1391.33C298.674 1403.72 318.46 1427.81 323.9 1456.06ZM1007.44 2153.9C1006.17 2154.52 1004.82 2154.97 1003.42 2155.25C945.693 2167.76 883.105 2171.15 817.424 2165.36C766.437 2160.85 696.525 2154.71 666.044 2110.84C639.516 2072.78 648.584 2020.54 668.23 1988.11C691.666 1949.44 733.725 1925.33 780.736 1923.49C827.747 1921.66 878.966 1939.77 925.954 1974.64C927.086 1975.45 928.332 1976.07 929.651 1976.5C936.742 1980.83 948.855 1988.45 955.226 1992.94C962.976 1998.3 970.57 2003.97 978.01 2009.94C986.362 2016.6 994.312 2023.75 1001.82 2031.35C1000.24 2025.71 998.275 2020.19 995.936 2014.82C987.648 1995.65 975.325 1978.49 959.806 1964.51V1964.04C989.286 1963.72 1024.53 1968.69 1049.5 1978.97C1046.24 1981.86 1043.09 1984.88 1040.06 1988.01C997.284 2032.68 985.032 2098.43 1007.44 2153.9ZM1195.77 1820.22C1211.19 1863.88 1232.05 1905.43 1257.85 1943.88C1199.86 1928.4 1130.09 1927.4 1074.96 1960.28C1061.43 1952.96 1046.97 1947.52 1031.97 1944.09C1032.25 1942.65 1032.28 1941.18 1032.09 1939.72C1021.72 1860.14 1017.93 1774.04 1093.93 1673.7C1094.92 1672.37 1095.66 1670.87 1096.12 1669.28C1110.26 1669.84 1124.36 1670.13 1138.43 1670.14C1151.01 1670.14 1163.57 1669.89 1176.1 1669.44C1170.12 1714.04 1176.82 1765.7 1195.77 1820.22ZM1404.06 1952.74C1428.22 1966.48 1459.42 2004.06 1470.88 2054.14C1483.6 2109.75 1368.91 2147.13 1313.81 2165.18C1308.25 2166.99 1303.11 2168.66 1298.49 2170.22C1261.29 2182.75 1168.12 2205.89 1130.34 2203.72C1087.45 2201.21 1060.41 2193.22 1040.39 2158.32C1013.28 2111.05 1021.65 2047.49 1060.27 2007.19C1092.38 1973.69 1136.55 1961.21 1180.82 1961.21C1211.24 1961.44 1241.41 1966.65 1270.14 1976.64C1271.54 1977.11 1273 1977.37 1274.47 1977.39C1282.58 1979.41 1296.21 1982.99 1303.67 1985.32C1312.64 1988.14 1321.59 1991.24 1330.5 1994.62C1340.46 1998.47 1350.18 2002.91 1359.61 2007.91C1356.41 2003.03 1352.88 1998.37 1349.05 1993.96C1335.4 1978.14 1318.49 1965.45 1299.49 1956.77C1299.49 1956.25 1299.28 1955.77 1299.14 1955.28C1338.96 1939.03 1371.75 1934.33 1404.06 1952.7V1952.74ZM1901.77 1098.55C1901.61 1113.72 1900.57 1128.87 1898.66 1143.93C1852.46 1141.98 1804.82 1161.41 1794.03 1210.86C1789.03 1233.77 1793.31 1262.01 1819.26 1269.24C1829.93 1272.2 1841.16 1270.83 1851.81 1269.24C1854.88 1268.78 1857.92 1268.36 1860.97 1267.99C1785.08 1422.51 1614.61 1529.02 1452.79 1582.98C1176.24 1675.26 864.179 1639.99 573.952 1483.65C422.666 1402.14 307.486 1272.36 240.875 1108.38C178.101 953.861 160.268 776.675 189.261 596C213.673 443.784 279.935 323.396 386.163 238.186C483.696 159.95 612.756 115.171 759.416 108.708C891.289 102.895 983.776 84.5977 1065.38 68.4623C1146.99 52.327 1219.37 38.0516 1315.04 38.0516C1334.8 38.0516 1355.54 38.6561 1377.56 39.9813C1549.75 50.3507 1690.15 97.9198 1794.87 181.433C1900.31 265.458 1968.01 385.032 1996.12 536.644C2019.37 662.727 1988.52 752.053 1955.73 846.61C1929.72 921.637 1902.91 999.222 1901.77 1098.55ZM2088.47 1396.14C2088.84 1396.2 2089.23 1396.24 2089.61 1396.26C2088.98 1396.68 2088.33 1397.07 2087.68 1397.44C2087.96 1397.01 2088.23 1396.56 2088.47 1396.1V1396.14ZM2276.65 1668C2275.19 1675.79 2271.37 1684.04 2254.38 1686.25C2253.75 1686.25 2249.36 1683.7 2243.87 1669.07C2240.67 1660.14 2238.01 1651.01 2235.92 1641.75C2233.45 1627.25 2230.06 1611.51 2225.73 1594.56C2223.42 1582.97 2220.24 1571.57 2216.23 1560.45C2213.71 1554.12 2206.67 1550.89 2200.23 1553.11C2193.79 1555.33 2190.24 1562.22 2192.16 1568.75C2195.42 1579.71 2198.33 1590.21 2200.9 1600.25C2202.14 1605.93 2203.39 1611.88 2204.65 1617.92C2206.69 1627.76 2208.76 1637.64 2211.02 1647.12C2213.96 1663.34 2215.42 1679.79 2215.37 1696.27C2214.67 1731.15 2206.69 1737.31 2190.26 1737.36C2177.82 1737.36 2168.19 1720.34 2166.4 1704.57L2165.63 1697.6C2164.47 1687.49 2163.31 1677.56 2162.1 1667.7C2160.43 1645.01 2156.78 1620.18 2149.82 1599.53C2147.65 1593.04 2140.73 1589.43 2134.16 1591.35C2127.59 1593.28 2123.72 1600.05 2125.39 1606.69C2130.44 1627.53 2134.22 1648.66 2136.71 1669.96C2138.66 1695.53 2138.04 1718.52 2136.71 1726.66C2133.34 1747.01 2120.13 1755.63 2108.81 1755.14C2098.65 1754.7 2087.21 1746.82 2085.56 1725.94C2084.72 1712.41 2084.61 1698.84 2085.24 1685.3C2086.1 1654.96 2086.93 1626.29 2068.96 1606.25C2068.61 1605.86 2068.24 1605.48 2067.85 1605.14C2058.26 1597.63 2045.43 1595.74 2034.09 1600.16C2026.25 1603.3 2012.77 1612.46 2010.33 1638.73C2007.33 1670.82 1997.1 1692.83 1982.24 1699.18C1973.33 1702.97 1962.69 1700.95 1953.73 1693.81C1947.69 1689 1951.41 1671.47 1954.46 1655.98C1956.9 1643.99 1959.43 1631.59 1959.34 1619.62C1958.93 1608.62 1956.89 1597.73 1953.29 1587.33C1948.78 1572.31 1945.23 1560.45 1953.87 1540.13C1960.99 1523.41 1975.31 1505.84 1993.4 1483.58L1995.72 1480.73C1996.46 1479.8 1997.06 1478.77 1997.51 1477.68C2003.44 1477.31 2009.3 1476.33 2015.02 1474.75C2017.35 1474.03 2019.67 1473.4 2021.83 1472.56C2012.53 1469.75 2003.82 1467.91 1995.77 1464.45L1995.42 1464.31C1994.96 1463.77 1994.45 1463.26 1993.91 1462.8C1991.64 1460.96 1988.79 1459.96 1985.87 1459.99C1973.4 1453.38 1963.31 1443.53 1961.2 1429.34C1960.49 1425.08 1960.35 1420.74 1960.78 1416.44C1964.01 1388.21 1981.7 1362.96 2007.49 1348.25C2015.29 1365.03 2018.77 1383.49 2017.63 1401.95C2017.55 1403.07 2017.66 1404.19 2017.93 1405.28C2014.3 1404.31 2010.9 1402.63 2007.93 1400.33C2004.08 1396.87 1998.15 1397.18 1994.69 1401.04C1991.23 1404.89 1991.55 1410.82 1995.4 1414.28C2004.7 1422.69 2023.16 1427.55 2042.99 1427.55C2050.5 1427.56 2057.98 1426.86 2065.36 1425.46C2094.63 1419.83 2117.23 1403.54 2128.95 1379.57C2130.41 1376.57 2130.17 1373.01 2128.3 1370.24C2126.44 1367.48 2123.24 1365.91 2119.91 1366.14C2116.58 1366.37 2113.63 1368.36 2112.16 1371.36C2109.38 1377.05 2105.75 1382.28 2101.37 1386.87V1386.17C2101.37 1371.33 2099.87 1356.53 2096.88 1341.99C2134.62 1339.81 2154.31 1364.29 2157.12 1390.1C2159.22 1409.35 2151.43 1430.09 2129.22 1432.95C2122.8 1433.35 2117.93 1438.88 2118.33 1445.3C2118.74 1451.72 2124.27 1456.6 2130.69 1456.2C2131.2 1456.23 2131.71 1456.23 2132.22 1456.2C2138.28 1455.43 2144.16 1453.66 2149.64 1450.97C2150.22 1451.44 2150.84 1451.87 2151.5 1452.24C2162.96 1458.52 2196.3 1494.33 2229.13 1545.24C2263.28 1598.23 2281.14 1644.17 2276.65 1667.96V1668Z" fill="#090100"/>
<path d="M1075.43 511.906C877.269 501.49 707.732 654.218 697.339 852.306C686.946 1050.39 839.674 1219.96 1037.76 1230.33C1044.13 1230.65 1050.48 1230.81 1056.8 1230.81C1246.59 1230.81 1405.78 1081.62 1415.83 889.901C1426.29 691.836 1273.49 522.229 1075.43 511.906ZM1381.35 888.111C1372.05 1067.13 1218.6 1205.19 1039.58 1195.87C860.552 1186.55 722.449 1033.12 731.818 854.097C740.909 680.793 884.802 545.92 1056.39 545.92C1062.11 545.92 1067.85 546.068 1073.61 546.362C1252.68 555.732 1390.72 709.041 1381.35 888.111Z" fill="#090100"/>
</g>
</svg>
