<svg width="2127" height="2304" viewBox="0 0 2127 2304" fill="none" xmlns="http://www.w3.org/2000/svg">
<mask id="mask0_1_387" style="mask-type:luminance" maskUnits="userSpaceOnUse" x="0" y="0" width="2127" height="2304">
<path d="M2126.9 0H0V2304H2126.9V0Z" fill="white"/>
</mask>
<g mask="url(#mask0_1_387)">
<path d="M1502.07 651.29C1516.32 645.393 1529.86 639.293 1542.69 632.99C1506.04 584.137 1484.29 517.457 1484.29 453.305C1484.29 297.177 1608.6 170.158 1761.39 170.158C1914.18 170.158 2038.47 297.177 2038.47 453.305C2038.47 609.432 1914.16 736.473 1761.39 736.473C1747.57 736.47 1733.76 735.421 1720.1 733.337L1718.16 776.211C1732.73 778.16 1747.43 779.14 1762.13 779.144C1943.29 779.144 2090.66 631.749 2090.66 450.597C2090.66 269.445 1943.29 121.982 1762.13 121.982C1580.98 121.982 1433.52 269.354 1433.52 450.507C1433.61 523.163 1457.71 593.753 1502.07 651.29Z" fill="#FFC545"/>
<path d="M869.8 1113.99C849.311 1128.47 826.723 1133.12 806.189 1133.12C789.331 1132.96 772.596 1130.22 756.568 1125C737.757 1118.86 723.534 1103.32 719.088 1084.04C713.762 1061.07 708.715 1038.3 703.946 1015.74C674.843 1022.04 646.08 1029.83 617.771 1039.07C618.673 1079.06 620.636 1119.52 622.532 1158.78C624.608 1201.88 626.774 1246.33 627.564 1290.45C730.325 1322.83 863.188 1340.58 1003.52 1340.58C1149.29 1340.58 1286.98 1321.43 1391.26 1286.61C1488.29 1254.21 1546.62 1211.2 1551.15 1168.62L1551.49 1162.7C1551.11 1119.47 1495.08 1075.47 1397.69 1041.89C1292.67 1005.79 1152.68 985.727 1003.52 985.727C961.008 985.727 918.766 987.397 877.72 990.646L891.958 1056.36C896.797 1078.27 888.074 1100.96 869.8 1113.99Z" fill="#FF7E27" stroke="#FF7E27" stroke-width="9.02602" stroke-miterlimit="10" stroke-linecap="round"/>
<path d="M1402.47 1319.92C1294.7 1355.86 1153.06 1375.67 1003.61 1375.67C863.03 1375.67 729.355 1358.14 624.269 1326.03L653.491 1995.06C653.7 1999.85 651.947 2004.51 648.636 2007.97C645.326 2011.43 640.746 2013.38 635.958 2013.38C633.822 2013.38 631.706 2012.99 629.707 2012.23L509.797 1966.67V1967.24C511.828 2019.57 565.036 2048.29 616.484 2076.05C624.856 2080.56 632.821 2084.87 640.584 2089.29C695.642 2113.64 751.897 2123.86 811.469 2134.76C827.964 2137.76 845.001 2140.88 862.353 2144.33C1008.87 2167.41 1158.45 2154.01 1306.88 2104.52L1307.4 2104.34C1378.93 2082.88 1458.3 2053.73 1497.49 1978.84C1512.14 1737.73 1527.21 1489.18 1546.23 1243.22C1515.14 1272.35 1466.46 1298.55 1402.47 1319.92Z" fill="#FC6B08" stroke="#FC6B08" stroke-width="9.02602" stroke-miterlimit="10" stroke-linecap="round"/>
<path d="M926.867 1581.31L886.25 1599.59L932.125 1610.42C933.382 1620.99 934.008 1631.63 933.997 1642.28C933.997 1704.58 913.441 1755.56 887.401 1759.75C896.539 1768.4 906.716 1773.29 917.39 1773.29C934.562 1773.29 951.531 1760.02 964.596 1736.65C953.178 1709.57 947.175 1677.98 947.175 1644.27C947.175 1609.63 953.945 1575.94 966.085 1548.48C952.862 1523.38 935.351 1509.12 917.39 1509.12C905.972 1509.12 895.073 1514.76 885.46 1524.56C903.083 1525.78 918.337 1548.21 926.867 1581.31ZM1070.34 1612.25C1071.78 1622.86 1072.62 1633.54 1072.86 1644.24C1072.86 1705.17 1053.25 1755.17 1028.07 1761.38C1036.74 1768.98 1046.28 1773.27 1056.25 1773.27C1093.8 1773.27 1125.53 1712.8 1125.53 1641.2C1125.53 1569.6 1093.8 1509.1 1056.25 1509.1C1044.09 1509.1 1032.56 1515.46 1022.52 1526.45H1022.84C1040.62 1526.45 1056.21 1548.25 1065.1 1581.08L1021.53 1600.71L1070.34 1612.25Z" fill="white" stroke="white" stroke-width="9.02602" stroke-miterlimit="10" stroke-linecap="round"/>
<path d="M2006.83 453.305C2006.85 429.865 2003.65 406.534 1997.33 383.962L1754.51 479.458L1955.09 607.605C1988.77 563.227 2006.95 509.017 2006.83 453.305ZM1691.21 496.585L1527.86 532.869C1536.88 563.702 1551.56 592.583 1571.17 618.03C1635.59 581.632 1677.36 539.616 1691.21 496.585ZM1515.93 453.305C1515.96 469.677 1517.47 486.013 1520.44 502.113L1687.42 464.993L1561.78 307.038C1531.82 349.921 1515.81 400.995 1515.93 453.305ZM1809.21 206.601L1747.6 448.183L1986.79 354.064C1955.36 279.103 1889.33 222.848 1809.21 206.601ZM1721.54 701.52C1799.57 714.606 1879.05 688.534 1934.17 631.772L1730.63 501.729L1721.54 701.52Z" fill="#FF7E27" stroke="#FF7E27" stroke-width="9.02602" stroke-miterlimit="10" stroke-linecap="round"/>
<path d="M1730.97 476.366L1730.84 477.472L1731.58 476.321L1731.02 474.899C1731.02 475.373 1731.02 475.87 1730.97 476.366Z" fill="white"/>
<path d="M496.506 213.37C507.868 217.528 518.949 222.42 529.677 228.015C534.98 228.498 539.777 231.361 542.719 235.8C567.383 252.408 583.336 275.469 594.844 316.809C632.167 452.447 656.402 581.519 678.651 706.552C713.695 713.66 750.182 719.572 787.73 724.243L678.899 218.944C678.47 216.958 677.951 214.86 677.41 212.761C662.021 153.415 615.965 109.345 560.072 100.477L126.552 41.3569C134.517 59.0931 137.834 81.2971 135.036 104.9C132.328 127.465 124.137 147.977 112.246 163.208C145.258 167.721 191.923 172.821 240.686 178.237C333.045 188.458 437.746 200.08 488.586 211.001C491.28 211.596 493.927 212.388 496.506 213.37Z" fill="#FFFEF3"/>
<path d="M1761.39 201.795C1693.06 201.931 1627.98 230.926 1582.18 281.63L1714.88 448.611L1777.66 202.426C1772.27 202.088 1766.85 201.795 1761.39 201.795Z" fill="#FF7E27" stroke="#FF7E27" stroke-width="9.02602" stroke-miterlimit="10" stroke-linecap="round"/>
<path d="M81.2638 35.1066L77.518 34.5876C75.8586 34.3684 74.2441 33.8886 72.7342 33.166C67.503 33.4145 62.4958 35.3635 58.4731 38.717C45.9269 48.2846 36.4947 67.8034 33.8546 89.6238C30.3119 119.139 40.8272 154.182 61.6096 157.319C67.1832 158.154 72.8921 156.349 78.6914 151.971C91.2375 142.403 100.67 122.885 103.31 101.042C106.514 74.4149 98.2101 43.23 81.2638 35.1066Z" fill="#DDDCD7" stroke="#DDDCD7" stroke-width="9.02602" stroke-miterlimit="10" stroke-linecap="round"/>
<path d="M428.586 831.269L483.351 1918.99L617.252 1970.01L568.895 863.695L428.586 831.269Z" fill="white" stroke="white" stroke-width="6.76952" stroke-miterlimit="10" stroke-linecap="round"/>
<path d="M795.538 760.483C757.651 755.97 720.78 750.419 685.217 743.582C685.646 746.064 686.097 748.591 686.549 751.073C705.029 855.662 724.142 963.816 750.317 1076.82C752.225 1085.14 758.333 1091.85 766.429 1094.54C790.122 1102.14 824.105 1107.17 851.341 1087.77C859.17 1082.13 862.86 1072.35 860.706 1062.94L795.538 760.483Z" fill="#FFFEF3"/>
<path d="M1762.11 86.8707C1648.89 86.8864 1542.16 139.684 1473.44 229.662C1341.03 183.088 1172.31 157.454 996.75 157.454C888.438 157.454 797.005 165.6 701.645 183.742C678.358 122.704 626.571 78.5217 564.878 68.8187C564.774 68.7954 564.666 68.7954 564.562 68.8187L89.139 3.98929C86.2721 2.97235 83.3191 2.21709 80.316 1.73278C66.0775 -0.523721 51.8389 3.58312 39.1123 13.2635C19.616 28.1113 5.80624 55.212 2.12814 85.7876C-4.16751 138.048 19.8868 183.336 56.8484 188.887C59.3276 189.266 61.8321 189.454 64.34 189.451C67.8766 189.432 71.4013 189.038 74.8553 188.278C76.7441 189.575 78.8923 190.445 81.1509 190.828C112.742 196.131 173.239 202.833 237.166 209.918C328.757 220.072 432.602 231.58 481.884 242.163C482.785 242.37 483.674 242.626 484.546 242.931C422.786 267.752 372.624 296.455 335.233 328.678C286.583 370.649 261.92 416.366 261.92 464.542V465.309L262.393 475.125V475.825C262.687 479.119 263.116 482.414 263.612 485.685C262.679 488.068 262.264 490.622 262.393 493.177L306.508 1462.17L312.353 1590.49L330.946 1998.92C331.194 2082.75 402.319 2160.33 531.279 2217.37C655.928 2272.5 821.24 2302.87 996.796 2302.87C1172.35 2302.87 1337.53 2272.5 1462.27 2217.37C1591.2 2160.33 1662.35 2082.75 1662.58 1998.94L1680.16 1611.95V1611.82L1688.28 1433.55L1716.55 811.344C1731.67 813.229 1746.88 814.178 1762.11 814.188C1962.62 814.188 2125.77 651.065 2125.77 450.552C2125.77 250.039 1962.62 86.8707 1762.11 86.8707ZM996.75 192.611C1164.45 192.611 1325.37 216.372 1452.72 259.651C1375.16 385.158 1381.21 545.107 1468.02 664.401C1338.36 711.156 1172.15 736.88 996.75 736.88C938.135 736.922 879.556 733.985 821.24 728.079L711.438 217.725C803.345 200.418 891.958 192.611 996.75 192.611ZM891.958 1056.36L877.787 990.624C918.811 987.374 961.075 985.727 1003.59 985.727C1152.74 985.727 1292.71 1005.63 1397.75 1041.87C1495.17 1075.45 1551.2 1119.45 1551.56 1162.7L1551.22 1168.59C1546.71 1211.17 1488.44 1254.16 1391.32 1286.59C1287.07 1321.38 1149.34 1340.56 1003.59 1340.56C863.233 1340.56 730.393 1322.8 627.631 1290.42C626.819 1246.29 624.675 1201.86 622.599 1158.76C620.704 1119.47 618.763 1079.01 617.838 1039.05C646.151 1029.82 674.913 1022.03 704.014 1015.72C708.813 1038.28 713.86 1061.06 719.155 1084.04C723.589 1103.31 737.783 1118.84 756.568 1125C772.606 1130.22 789.347 1132.95 806.211 1133.12C826.745 1133.12 849.333 1128.47 869.822 1113.99C888.073 1100.94 896.783 1078.27 891.958 1056.36ZM629.707 2012.32C631.706 2013.08 633.822 2013.47 635.958 2013.47C640.746 2013.47 645.326 2011.52 648.636 2008.06C651.947 2004.6 653.7 1999.94 653.491 1995.15L624.269 1326.12C729.355 1358.14 863.03 1375.76 1003.61 1375.76C1153.06 1375.76 1294.7 1355.95 1402.47 1320.01C1466.46 1298.64 1515.14 1272.44 1546.34 1243.28C1527.32 1489.24 1512.25 1737.89 1497.6 1978.91C1458.41 2053.8 1379.05 2082.95 1307.52 2104.41L1307 2104.59C1158.47 2154.08 1008.89 2167.48 862.466 2144.4C845.113 2140.94 828.077 2137.83 811.582 2134.83C752.01 2123.93 695.755 2113.71 640.697 2089.36C632.934 2084.85 624.901 2080.65 616.597 2076.12C565.149 2048.36 511.94 2019.7 509.91 1967.31V1966.74L629.707 2012.32ZM483.35 1918.99L428.585 831.359L568.917 863.785L617.251 1970.1L483.35 1918.99ZM851.341 1087.86C824.06 1107.17 790.1 1102.16 766.406 1094.63C758.308 1091.94 752.199 1085.23 750.295 1076.91C724.12 963.907 705.007 855.775 686.504 751.163C686.075 748.659 685.624 746.176 685.195 743.649C720.78 750.419 757.629 756.15 795.515 760.573L860.683 1063.19C862.786 1072.54 859.111 1082.25 851.341 1087.86ZM103.31 101.109C100.692 122.93 91.2601 142.448 78.6688 152.016C72.9147 156.416 67.1832 158.199 61.6096 157.387C40.8498 154.25 30.3119 119.206 33.8546 89.6914C36.4721 67.8258 45.9043 48.3071 58.4956 38.762C62.5187 35.4062 67.5243 33.4499 72.7568 33.1885C74.2457 33.9283 75.8469 34.4163 77.4954 34.6326L81.2412 35.1516C98.2327 43.2299 106.514 74.4148 103.31 101.109ZM240.686 178.237C191.923 172.821 145.258 167.654 112.246 163.186C124.137 147.977 132.328 127.375 135.036 104.9C137.879 81.2971 134.495 59.0931 126.552 41.3796L560.072 100.545C615.965 109.413 662.021 153.505 677.41 212.851C677.951 214.95 678.448 217.049 678.922 219.057L787.73 724.266C750.182 719.64 713.717 713.705 678.651 706.597C656.402 581.564 632.167 452.492 594.844 316.854C583.562 275.515 567.383 252.453 542.719 235.845C539.784 231.399 534.983 228.533 529.677 228.06C518.944 222.446 507.856 217.538 496.483 213.37C493.914 212.413 491.273 211.659 488.586 211.114C437.724 200.057 333.067 188.549 240.686 178.237ZM297.099 464.339C297.369 389.22 381.356 316.47 527.871 264.187C544.502 276.462 555.378 293.702 563.975 325.248C599.854 455.539 622.644 575.472 644.848 699.196C596.919 688.317 549.839 673.988 503.975 656.322C378.378 607.176 303.146 540.473 297.392 473.32L297.099 464.339ZM1653.1 1433.53L1647.44 1557.86L1627.44 1997.75V1998.54C1627.44 2032.59 1611.94 2066.05 1581.34 2098.03C1550.32 2130.52 1505.46 2159.85 1448.03 2185.29C1327.8 2238.47 1167.52 2267.78 996.728 2267.78C825.933 2267.78 665.699 2238.45 545.427 2185.29C487.999 2159.85 443.14 2130.52 412.09 2098.03C381.514 2066.05 366.012 2032.59 366.012 1998.54V1997.75L347.351 1587.72L341.619 1461.58L300.754 565.205C338.618 612.253 403.267 654.653 491.158 689.064C543.293 709.081 596.913 724.993 651.528 736.654C652.686 743.288 653.852 749.952 655.025 756.647C667.933 829.622 681.133 904.358 696.861 981.349C665.969 988.119 636.928 995.927 610.211 1004.61L603.442 848.915C603.072 841.061 597.551 834.399 589.903 832.578L413.895 791.961C408.52 790.719 402.873 792.076 398.649 795.626C394.425 799.175 392.116 804.504 392.413 810.013L448.826 1932.42C449.198 1939.37 453.616 1945.45 460.108 1947.95L480.033 1955.53C476.456 1958.98 474.526 1963.8 474.731 1968.77C477.506 2040.98 545.314 2077.7 599.809 2107.12C608.293 2111.63 616.326 2116.01 623.931 2120.39C624.439 2120.68 624.967 2120.94 625.51 2121.16C684.676 2147.47 743.21 2158.16 805.151 2169.44C821.623 2172.45 838.66 2175.56 855.832 2178.99L856.531 2179.12C904.792 2186.75 953.577 2190.58 1002.44 2190.57C1107.25 2190.57 1212.86 2173.03 1317.85 2138.06C1403.15 2112.45 1487.9 2076.95 1530.62 1991.56C1531.65 1989.45 1532.27 1987.15 1532.42 1984.79C1548.22 1722.25 1564.8 1450.75 1586.24 1183.55C1586.39 1181.37 1586.15 1179.18 1585.52 1177.08C1585.81 1175.36 1586.04 1173.65 1586.22 1171.96V1171.17L1586.6 1164.4V1163.43C1586.6 1103.29 1523.58 1048.35 1409.15 1008.97C1300.54 971.511 1156.42 950.887 1003.52 950.887C958.39 950.887 913.689 952.714 870.251 956.302L829.002 763.958C883.429 769.148 939.571 771.833 996.75 771.833C1186.09 771.833 1365.49 742.498 1501.94 689.132C1589.94 654.698 1654.7 612.253 1692.59 565.182L1653.1 1433.53ZM1691.19 496.584C1679.07 534.245 1645.59 571.049 1594.16 604.152C1590.91 606.251 1587.62 608.281 1584.25 610.312C1579.97 612.9 1575.57 615.472 1571.08 618.029C1551.5 592.583 1536.84 563.711 1527.84 532.892L1691.19 496.584ZM1520.46 502.203C1517.5 486.101 1515.99 469.766 1515.95 453.395C1515.84 401.037 1531.88 349.919 1561.89 307.015L1687.56 464.971L1520.46 502.203ZM1714.88 448.634L1582.18 281.652C1627.98 230.953 1693.07 201.959 1761.39 201.817C1766.85 201.817 1772.27 202.043 1777.66 202.404L1714.88 448.634ZM1934.19 631.862C1879.09 688.672 1799.58 714.752 1721.54 701.61L1730.57 501.819L1934.19 631.862ZM1730.86 477.382V476.253C1730.89 475.772 1730.89 475.29 1730.86 474.809L1731.42 476.231L1730.86 477.382ZM1754.53 479.367L1997.33 383.872C2018.87 460.929 2003.25 543.622 1955.09 607.514L1754.53 479.367ZM1747.6 448.07L1809.23 206.601C1889.22 222.848 1955.36 279.102 1986.91 354.064L1747.6 448.07ZM1762.11 778.941C1747.41 778.932 1732.73 777.959 1718.16 776.03L1720.1 733.156C1733.76 735.251 1747.57 736.3 1761.39 736.293C1914.16 736.293 2038.44 609.297 2038.44 453.147C2038.44 296.997 1914.16 170.158 1761.39 170.158C1608.62 170.158 1484.31 297.177 1484.31 453.305C1484.31 517.434 1506.04 584.182 1542.69 632.99C1529.86 639.308 1516.32 645.408 1502.07 651.29C1457.74 593.726 1433.68 523.12 1433.63 450.461C1433.63 269.309 1581 121.914 1762.13 121.914C1943.26 121.914 2090.68 269.309 2090.68 450.461C2090.68 631.614 1943.26 779.031 1762.11 779.031V778.941Z" fill="black"/>
<path d="M1145.14 1758.94C1143.29 1783.49 1151.48 1803.76 1165.15 1817.81C1154.91 1847.94 1113.77 1883.84 1046.3 1892.84C991.403 1900.18 942.685 1883.82 905.362 1845.57C898.938 1838.98 888.391 1838.85 881.804 1845.28C875.218 1851.7 875.087 1862.25 881.511 1868.83C919.488 1907.8 967.258 1927.93 1020.69 1927.93C1030.73 1927.92 1040.76 1927.23 1050.7 1925.88C1081.31 1921.82 1110.8 1911.71 1137.47 1896.14C1164.66 1879.89 1184.02 1859.11 1194.01 1835.66C1215.45 1842.61 1240.77 1839.79 1263.24 1824.04C1279.65 1812.26 1292.58 1791.46 1289.13 1771.13C1271.95 1797.87 1237.23 1810.77 1207.89 1804.97C1194.65 1802.24 1183.39 1795.18 1173.75 1783.38C1163.06 1770.25 1156.89 1753.89 1149.72 1737.62C1147.3 1744.51 1145.77 1751.67 1145.14 1758.94Z" fill="black"/>
<path d="M917.48 1801.75C943.949 1801.75 968.702 1784.94 986.777 1755.17C1004.38 1784.1 1028.82 1801.75 1056.25 1801.75C1111.07 1801.75 1154.01 1731.23 1154.01 1641.2C1154.01 1551.16 1111.13 1480.62 1056.25 1480.62C1028.84 1480.62 1004.36 1498.27 986.8 1527.18C968.748 1497.39 944.084 1480.62 917.48 1480.62C862.624 1480.62 819.751 1551.16 819.751 1641.2C819.751 1731.23 862.624 1801.75 917.48 1801.75ZM1022.84 1526.43H1022.57C1032.61 1515.44 1044.14 1509.08 1056.3 1509.08C1093.85 1509.08 1125.57 1569.58 1125.57 1641.17C1125.57 1712.77 1093.85 1773.25 1056.3 1773.25C1046.33 1773.25 1036.78 1768.96 1028.12 1761.36C1053.3 1755.15 1072.91 1705.08 1072.91 1644.22C1072.67 1633.52 1071.82 1622.83 1070.38 1612.22L1021.53 1600.67L1065.1 1581.04C1056.16 1548.23 1040.57 1526.43 1022.84 1526.43ZM917.525 1509.1C935.577 1509.1 952.997 1523.36 966.22 1548.45C953.99 1575.92 947.311 1609.61 947.311 1644.24C947.311 1677.87 953.313 1709.68 964.731 1736.62C951.666 1760 934.697 1773.27 917.525 1773.27C906.852 1773.27 896.675 1768.4 887.536 1759.73C913.576 1755.53 934.133 1704.56 934.133 1642.26C934.143 1631.61 933.517 1620.97 932.26 1610.4L886.385 1599.56L927.002 1581.29C918.473 1548.18 903.219 1525.75 885.686 1524.51C895.163 1514.74 906.062 1509.1 917.48 1509.1H917.525Z" fill="black"/>
<path d="M1680.16 1611.95L1680.13 1611.82L1688.26 1433.62" fill="white"/>
<path d="M1680.16 1611.95L1680.13 1611.82L1688.26 1433.62" stroke="white" stroke-width="9.02602" stroke-miterlimit="10" stroke-linecap="round"/>
</g>
</svg>
