<svg width="23" height="25" viewBox="0 0 23 25" fill="none" xmlns="http://www.w3.org/2000/svg">
<path d="M0.866161 4.12519V7.51636H1.93096e-05V6.71181e-06H0.866161V2.75992H0.939563C1.07169 2.46876 1.26987 2.23754 1.53412 2.06627C1.80081 1.89255 2.15559 1.80569 2.59845 1.80569C2.98258 1.80569 3.31901 1.88276 3.60772 2.03691C3.89643 2.18861 4.12031 2.42227 4.27935 2.7379C4.44083 3.05108 4.52157 3.44989 4.52157 3.93435V7.51636H3.65543V3.99307C3.65543 3.54532 3.53921 3.1991 3.30677 2.95443C3.07678 2.70731 2.75748 2.58375 2.34888 2.58375C2.06506 2.58375 1.8106 2.6437 1.5855 2.76359C1.36285 2.88348 1.18668 3.05842 1.05701 3.28841C0.929776 3.5184 0.866161 3.79733 0.866161 4.12519ZM8.39627 7.6338C7.88736 7.6338 7.44083 7.51269 7.05669 7.27046C6.675 7.02824 6.3765 6.68936 6.16119 6.25385C5.94832 5.81833 5.84189 5.30941 5.84189 4.72709C5.84189 4.13987 5.94832 3.62728 6.16119 3.18932C6.3765 2.75135 6.675 2.41126 7.05669 2.16903C7.44083 1.92681 7.88736 1.80569 8.39627 1.80569C8.90519 1.80569 9.3505 1.92681 9.73219 2.16903C10.1163 2.41126 10.4148 2.75135 10.6277 3.18932C10.843 3.62728 10.9507 4.13987 10.9507 4.72709C10.9507 5.30941 10.843 5.81833 10.6277 6.25385C10.4148 6.68936 10.1163 7.02824 9.73219 7.27046C9.3505 7.51269 8.90519 7.6338 8.39627 7.6338ZM8.39627 6.85574C8.78286 6.85574 9.10093 6.75665 9.3505 6.55846C9.60007 6.36028 9.78479 6.0997 9.90468 5.77673C10.0246 5.45377 10.0845 5.10388 10.0845 4.72709C10.0845 4.35029 10.0246 3.99918 9.90468 3.67377C9.78479 3.34836 9.60007 3.08533 9.3505 2.8847C9.10093 2.68407 8.78286 2.58375 8.39627 2.58375C8.00969 2.58375 7.69162 2.68407 7.44205 2.8847C7.19248 3.08533 7.00776 3.34836 6.88787 3.67377C6.76798 3.99918 6.70803 4.35029 6.70803 4.72709C6.70803 5.10388 6.76798 5.45377 6.88787 5.77673C7.00776 6.0997 7.19248 6.36028 7.44205 6.55846C7.69162 6.75665 8.00969 6.85574 8.39627 6.85574ZM14.7244 1.87909V2.61311H11.803V1.87909H14.7244ZM12.6545 0.5285H13.5206V5.90152C13.5206 6.14619 13.5561 6.32969 13.6271 6.45203C13.7005 6.57192 13.7935 6.65266 13.906 6.69426C14.021 6.7334 14.1421 6.75298 14.2693 6.75298C14.3648 6.75298 14.4431 6.74808 14.5042 6.7383C14.5654 6.72606 14.6143 6.71628 14.651 6.70894L14.8272 7.487C14.7685 7.50902 14.6865 7.53104 14.5813 7.55306C14.4761 7.57753 14.3427 7.58976 14.1813 7.58976C13.9366 7.58976 13.6968 7.53715 13.4619 7.43195C13.2295 7.32674 13.0362 7.16648 12.882 6.95116C12.7303 6.73585 12.6545 6.46426 12.6545 6.1364V0.5285ZM18.3303 7.6338C17.7871 7.6338 17.3186 7.51391 16.9247 7.27413C16.5332 7.03191 16.231 6.69426 16.0181 6.26119C15.8077 5.82567 15.7025 5.3192 15.7025 4.74177C15.7025 4.16434 15.8077 3.65542 16.0181 3.21501C16.231 2.77215 16.5271 2.42716 16.9063 2.18004C17.288 1.93048 17.7333 1.80569 18.2422 1.80569C18.5358 1.80569 18.8258 1.85463 19.112 1.9525C19.3983 2.05037 19.6589 2.2094 19.8938 2.42961C20.1286 2.64737 20.3158 2.93608 20.4553 3.29575C20.5947 3.65542 20.6645 4.09828 20.6645 4.62432V4.99133H16.3191V4.24263H19.7837C19.7837 3.92456 19.72 3.64074 19.5928 3.39117C19.468 3.14161 19.2894 2.94464 19.057 2.80029C18.827 2.65593 18.5554 2.58375 18.2422 2.58375C17.8972 2.58375 17.5987 2.66939 17.3467 2.84066C17.0971 3.00948 16.9051 3.22969 16.7705 3.50128C16.6359 3.77286 16.5687 4.06402 16.5687 4.37476V4.87389C16.5687 5.29962 16.6421 5.66051 16.7889 5.95657C16.9381 6.25018 17.1449 6.47405 17.4091 6.62819C17.6734 6.77989 17.9804 6.85574 18.3303 6.85574C18.5578 6.85574 18.7634 6.82393 18.9469 6.76032C19.1328 6.69426 19.2931 6.59639 19.4277 6.46671C19.5622 6.33459 19.6662 6.17066 19.7396 5.97492L20.5764 6.2098C20.4883 6.49362 20.3403 6.74319 20.1323 6.9585C19.9243 7.17137 19.6674 7.33775 19.3616 7.45764C19.0558 7.57508 18.712 7.6338 18.3303 7.6338ZM22.8482 6.71181e-06V7.51636H21.982V6.71181e-06H22.8482ZM3.66507 24.5164V17H4.53121V19.7746H4.60461C4.66822 19.6767 4.75631 19.5519 4.86886 19.4002C4.98385 19.2461 5.14778 19.1091 5.36065 18.9892C5.57596 18.8669 5.86712 18.8057 6.23413 18.8057C6.7088 18.8057 7.12719 18.9244 7.4893 19.1617C7.85142 19.399 8.13402 19.7354 8.33709 20.171C8.54017 20.6065 8.64171 21.1203 8.64171 21.7124C8.64171 22.3094 8.54017 22.8269 8.33709 23.2649C8.13402 23.7004 7.85264 24.038 7.49297 24.2778C7.1333 24.5151 6.71858 24.6338 6.24881 24.6338C5.8867 24.6338 5.59676 24.5739 5.379 24.454C5.16124 24.3316 4.99364 24.1934 4.8762 24.0392C4.75875 23.8827 4.66822 23.753 4.60461 23.6502H4.50185V24.5164H3.66507ZM4.51653 21.6977C4.51653 22.1235 4.57892 22.499 4.7037 22.8244C4.82849 23.1474 5.01077 23.4006 5.25055 23.5842C5.49033 23.7652 5.78393 23.8557 6.13137 23.8557C6.49348 23.8557 6.79566 23.7603 7.03788 23.5695C7.28255 23.3762 7.46606 23.1168 7.5884 22.7914C7.71318 22.4636 7.77557 22.099 7.77557 21.6977C7.77557 21.3014 7.7144 20.9441 7.59207 20.6261C7.47218 20.3055 7.28989 20.0523 7.04522 19.8663C6.803 19.678 6.49838 19.5838 6.13137 19.5838C5.77904 19.5838 5.48299 19.6731 5.24321 19.8517C5.00343 20.0278 4.82237 20.275 4.70003 20.593C4.5777 20.9087 4.51653 21.2769 4.51653 21.6977ZM12.3302 24.6338C11.787 24.6338 11.3184 24.5139 10.9245 24.2741C10.533 24.0319 10.2309 23.6943 10.018 23.2612C9.80758 22.8257 9.70237 22.3192 9.70237 21.7418C9.70237 21.1643 9.80758 20.6554 10.018 20.215C10.2309 19.7722 10.5269 19.4272 10.9062 19.18C11.2878 18.9305 11.7332 18.8057 12.2421 18.8057C12.5357 18.8057 12.8256 18.8546 13.1119 18.9525C13.3982 19.0504 13.6587 19.2094 13.8936 19.4296C14.1285 19.6474 14.3157 19.9361 14.4551 20.2958C14.5946 20.6554 14.6643 21.0983 14.6643 21.6243V21.9913H10.3189V21.2426H13.7835C13.7835 20.9246 13.7199 20.6407 13.5927 20.3912C13.4679 20.1416 13.2893 19.9446 13.0568 19.8003C12.8268 19.6559 12.5553 19.5838 12.2421 19.5838C11.8971 19.5838 11.5986 19.6694 11.3466 19.8407C11.097 20.0095 10.9049 20.2297 10.7704 20.5013C10.6358 20.7729 10.5685 21.064 10.5685 21.3748V21.8739C10.5685 22.2996 10.6419 22.6605 10.7887 22.9566C10.938 23.2502 11.1447 23.4741 11.409 23.6282C11.6732 23.7799 11.9803 23.8557 12.3302 23.8557C12.5577 23.8557 12.7632 23.8239 12.9467 23.7603C13.1327 23.6943 13.2929 23.5964 13.4275 23.4667C13.5621 23.3346 13.6661 23.1707 13.7395 22.9749L14.5763 23.2098C14.4882 23.4936 14.3401 23.7432 14.1322 23.9585C13.9242 24.1714 13.6673 24.3377 13.3615 24.4576C13.0556 24.5751 12.7118 24.6338 12.3302 24.6338ZM16.848 17V24.5164H15.9819V17H16.848ZM19.3006 17V24.5164H18.4344V17H19.3006Z" fill="#737373"/>
</svg>
