<svg width="35" height="6" viewBox="0 0 35 6" fill="none" xmlns="http://www.w3.org/2000/svg">
<path d="M2.55427 5.84278C2.02578 5.84278 1.57068 5.718 1.189 5.46844C0.807306 5.21887 0.513698 4.8751 0.308173 4.43714C0.102648 3.99917 -0.000114894 3.49882 -0.000114894 2.93607C-0.000114894 2.36354 0.105094 1.85829 0.315513 1.42032C0.528378 0.979911 0.824433 0.636146 1.20368 0.389026C1.58537 0.13946 2.03067 0.0146771 2.53959 0.0146771C2.93596 0.0146771 3.29318 0.088079 3.61126 0.234883C3.92933 0.381686 4.18991 0.587211 4.39299 0.851458C4.59606 1.1157 4.72207 1.42399 4.77101 1.77632H3.90486C3.8388 1.51942 3.692 1.29187 3.46445 1.09368C3.23935 0.893052 2.93596 0.792737 2.55427 0.792737C2.21662 0.792737 1.92057 0.880819 1.66611 1.05698C1.41409 1.2307 1.21713 1.4766 1.07522 1.79467C0.935759 2.1103 0.866027 2.48098 0.866027 2.90671C0.866027 3.34223 0.934535 3.72147 1.07155 4.04444C1.21102 4.36741 1.40675 4.6182 1.65877 4.79681C1.91323 4.97542 2.21173 5.06473 2.55427 5.06473C2.77937 5.06473 2.98367 5.02558 3.16718 4.94728C3.35068 4.86899 3.50605 4.75644 3.63328 4.60963C3.76051 4.46283 3.85104 4.28667 3.90486 4.08114H4.77101C4.72207 4.4139 4.60096 4.71362 4.40767 4.98031C4.21682 5.24456 3.96359 5.45498 3.64796 5.61157C3.33478 5.76571 2.97021 5.84278 2.55427 5.84278ZM7.69607 5.85747C7.33885 5.85747 7.01466 5.79018 6.7235 5.65561C6.43233 5.51859 6.20112 5.32163 6.02985 5.06473C5.85858 4.80537 5.77294 4.49219 5.77294 4.12518C5.77294 3.80221 5.83656 3.54041 5.96379 3.33978C6.09102 3.1367 6.26106 2.97767 6.47393 2.86267C6.68679 2.74767 6.92168 2.66204 7.17859 2.60576C7.43794 2.54704 7.69852 2.50055 7.96032 2.4663C8.30286 2.42226 8.58056 2.38923 8.79343 2.36721C9.00874 2.34274 9.16533 2.30237 9.2632 2.24609C9.36352 2.18982 9.41367 2.09195 9.41367 1.95249V1.92313C9.41367 1.56101 9.31458 1.27964 9.1164 1.079C8.92066 0.878372 8.62338 0.778056 8.22456 0.778056C7.81107 0.778056 7.48688 0.868585 7.25199 1.04964C7.0171 1.2307 6.85195 1.42399 6.75653 1.62952L5.93443 1.33591C6.08123 0.993368 6.27697 0.726675 6.52164 0.53583C6.76876 0.342539 7.0379 0.207968 7.32906 0.13212C7.62267 0.0538247 7.91138 0.0146771 8.1952 0.0146771C8.37626 0.0146771 8.58423 0.0366975 8.81912 0.0807384C9.05645 0.122333 9.28522 0.209192 9.50543 0.341315C9.72808 0.473439 9.91281 0.672847 10.0596 0.93954C10.2064 1.20623 10.2798 1.56346 10.2798 2.01121V5.72534H9.41367V4.96196H9.36963C9.31091 5.0843 9.21304 5.2152 9.07603 5.35466C8.93901 5.49413 8.75673 5.61279 8.52918 5.71066C8.30164 5.80853 8.02393 5.85747 7.69607 5.85747ZM7.82819 5.07941C8.17074 5.07941 8.45945 5.01212 8.69434 4.87755C8.93167 4.74298 9.11028 4.56926 9.23017 4.3564C9.35251 4.14353 9.41367 3.91966 9.41367 3.68477V2.89203C9.37697 2.93607 9.29623 2.97644 9.17145 3.01314C9.04911 3.0474 8.9072 3.07798 8.74572 3.1049C8.58668 3.12936 8.43131 3.15138 8.27962 3.17096C8.13036 3.18808 8.00925 3.20276 7.91628 3.215C7.69118 3.24436 7.48076 3.29207 7.28502 3.35813C7.09173 3.42175 6.93514 3.51839 6.81525 3.64807C6.69781 3.7753 6.63908 3.94902 6.63908 4.16922C6.63908 4.47017 6.75041 4.69772 6.97306 4.85186C7.19816 5.00356 7.4832 5.07941 7.82819 5.07941ZM11.8607 5.72534V0.0880788H12.6975V0.968901H12.7709C12.8883 0.667954 13.078 0.434291 13.3398 0.267913C13.6016 0.0990892 13.916 0.0146771 14.283 0.0146771C14.6549 0.0146771 14.9644 0.0990892 15.2115 0.267913C15.4611 0.434291 15.6556 0.667954 15.795 0.968901H15.8538C15.9981 0.67774 16.2147 0.446525 16.5034 0.275254C16.7921 0.101536 17.1383 0.0146771 17.542 0.0146771C18.046 0.0146771 18.4583 0.172491 18.7788 0.488119C19.0994 0.8013 19.2596 1.28942 19.2596 1.95249V5.72534H18.3935V1.95249C18.3935 1.53654 18.2797 1.23926 18.0522 1.06065C17.8246 0.882042 17.5567 0.792737 17.2484 0.792737C16.852 0.792737 16.545 0.912626 16.3272 1.15241C16.1095 1.38974 16.0006 1.69069 16.0006 2.05525V5.72534H15.1198V1.8644C15.1198 1.54388 15.0158 1.28575 14.8078 1.09001C14.5998 0.891829 14.3319 0.792737 14.004 0.792737C13.7789 0.792737 13.5685 0.852681 13.3728 0.972571C13.1795 1.09246 13.0229 1.25884 12.903 1.4717C12.7856 1.68212 12.7269 1.92557 12.7269 2.20205V5.72534H11.8607ZM23.2068 5.84278C22.6636 5.84278 22.1951 5.7229 21.8012 5.48312C21.4097 5.24089 21.1075 4.90324 20.8946 4.47017C20.6842 4.03465 20.579 3.52818 20.579 2.95075C20.579 2.37332 20.6842 1.8644 20.8946 1.42399C21.1075 0.981135 21.4036 0.636146 21.7828 0.389026C22.1645 0.13946 22.6098 0.0146771 23.1187 0.0146771C23.4123 0.0146771 23.7023 0.0636116 23.9885 0.16148C24.2748 0.25935 24.5354 0.418387 24.7703 0.638593C25.0051 0.856352 25.1923 1.14507 25.3318 1.50473C25.4712 1.8644 25.541 2.30726 25.541 2.83331V3.20032H21.1956V2.45162H24.6602C24.6602 2.13354 24.5965 1.84972 24.4693 1.60016C24.3445 1.35059 24.1659 1.15363 23.9335 1.00927C23.7035 0.864915 23.4319 0.792737 23.1187 0.792737C22.7737 0.792737 22.4752 0.878372 22.2232 1.04964C21.9736 1.21847 21.7816 1.43867 21.647 1.71026C21.5124 1.98185 21.4452 2.27301 21.4452 2.58374V3.08287C21.4452 3.50861 21.5186 3.8695 21.6654 4.16555C21.8146 4.45916 22.0214 4.68304 22.2856 4.83718C22.5499 4.98888 22.8569 5.06473 23.2068 5.06473C23.4343 5.06473 23.6399 5.03292 23.8234 4.9693C24.0093 4.90324 24.1696 4.80537 24.3042 4.6757C24.4387 4.54357 24.5427 4.37964 24.6161 4.1839L25.4529 4.41879C25.3648 4.70261 25.2168 4.95218 25.0088 5.16749C24.8008 5.38035 24.5439 5.54673 24.2381 5.66662C23.9323 5.78406 23.5885 5.84278 23.2068 5.84278ZM26.8585 5.72534V0.0880788H27.6953V0.93954H27.754C27.8568 0.660613 28.0428 0.434291 28.3119 0.260573C28.581 0.0868552 28.8844 -3.69194e-06 29.2221 -3.69194e-06C29.2857 -3.69194e-06 29.3652 0.00121971 29.4606 0.00366651C29.5561 0.00611332 29.6282 0.00978352 29.6772 0.0146771V0.895499C29.6478 0.888159 29.5805 0.877149 29.4753 0.862468C29.3726 0.845341 29.2637 0.836778 29.1487 0.836778C28.8746 0.836778 28.63 0.894276 28.4147 1.00927C28.2018 1.12182 28.033 1.27841 27.9082 1.47904C27.7859 1.67723 27.7247 1.90355 27.7247 2.15801V5.72534H26.8585ZM32.3628 5.85747C32.0055 5.85747 31.6814 5.79018 31.3902 5.65561C31.099 5.51859 30.8678 5.32163 30.6965 5.06473C30.5253 4.80537 30.4396 4.49219 30.4396 4.12518C30.4396 3.80221 30.5033 3.54041 30.6305 3.33978C30.7577 3.1367 30.9278 2.97767 31.1406 2.86267C31.3535 2.74767 31.5884 2.66204 31.8453 2.60576C32.1046 2.54704 32.3652 2.50055 32.627 2.4663C32.9696 2.42226 33.2473 2.38923 33.4601 2.36721C33.6754 2.34274 33.832 2.30237 33.9299 2.24609C34.0302 2.18982 34.0804 2.09195 34.0804 1.95249V1.92313C34.0804 1.56101 33.9813 1.27964 33.7831 1.079C33.5874 0.878372 33.2901 0.778056 32.8913 0.778056C32.4778 0.778056 32.1536 0.868585 31.9187 1.04964C31.6838 1.2307 31.5186 1.42399 31.4232 1.62952L30.6011 1.33591C30.7479 0.993368 30.9437 0.726675 31.1883 0.53583C31.4355 0.342539 31.7046 0.207968 31.9958 0.13212C32.2894 0.0538247 32.5781 0.0146771 32.8619 0.0146771C33.043 0.0146771 33.2509 0.0366975 33.4858 0.0807384C33.7231 0.122333 33.9519 0.209192 34.1721 0.341315C34.3948 0.473439 34.5795 0.672847 34.7263 0.93954C34.8731 1.20623 34.9465 1.56346 34.9465 2.01121V5.72534H34.0804V4.96196H34.0363C33.9776 5.0843 33.8797 5.2152 33.7427 5.35466C33.6057 5.49413 33.4234 5.61279 33.1959 5.71066C32.9683 5.80853 32.6906 5.85747 32.3628 5.85747ZM32.4949 5.07941C32.8374 5.07941 33.1261 5.01212 33.361 4.87755C33.5984 4.74298 33.777 4.56926 33.8969 4.3564C34.0192 4.14353 34.0804 3.91966 34.0804 3.68477V2.89203C34.0437 2.93607 33.9629 2.97644 33.8381 3.01314C33.7158 3.0474 33.5739 3.07798 33.4124 3.1049C33.2534 3.12936 33.098 3.15138 32.9463 3.17096C32.7971 3.18808 32.6759 3.20276 32.583 3.215C32.3579 3.24436 32.1475 3.29207 31.9517 3.35813C31.7584 3.42175 31.6018 3.51839 31.4819 3.64807C31.3645 3.7753 31.3058 3.94902 31.3058 4.16922C31.3058 4.47017 31.4171 4.69772 31.6398 4.85186C31.8649 5.00356 32.1499 5.07941 32.4949 5.07941Z" fill="#737373"/>
</svg>
