<svg width="41" height="25" viewBox="0 0 41 25" fill="none" xmlns="http://www.w3.org/2000/svg">
<path d="M3.9633 2.11396H4.82944V8.16227C4.82944 8.50971 4.76949 8.81065 4.6496 9.06511C4.53216 9.31957 4.35355 9.51654 4.11377 9.656C3.87644 9.79546 3.57671 9.86519 3.2146 9.86519C3.18524 9.86519 3.15587 9.86519 3.12651 9.86519C3.09715 9.86519 3.06779 9.86519 3.03843 9.86519V9.05777C3.06779 9.05777 3.09471 9.05777 3.11917 9.05777C3.14364 9.05777 3.17056 9.05777 3.19992 9.05777C3.46416 9.05777 3.65745 8.97948 3.77979 8.82289C3.90213 8.66874 3.9633 8.44854 3.9633 8.16227V2.11396ZM4.38903 1.17441C4.2202 1.17441 4.07462 1.11692 3.95228 1.00192C3.8324 0.886923 3.77245 0.748683 3.77245 0.587199C3.77245 0.425715 3.8324 0.287475 3.95228 0.172478C4.07462 0.0574823 4.2202 -1.57356e-05 4.38903 -1.57356e-05C4.55785 -1.57356e-05 4.70221 0.0574823 4.8221 0.172478C4.94443 0.287475 5.0056 0.425715 5.0056 0.587199C5.0056 0.748683 4.94443 0.886923 4.8221 1.00192C4.70221 1.11692 4.55785 1.17441 4.38903 1.17441ZM8.77937 7.86866C8.2362 7.86866 7.76765 7.74877 7.37373 7.50899C6.98225 7.26677 6.68008 6.92912 6.46722 6.49605C6.2568 6.06053 6.15159 5.55406 6.15159 4.97663C6.15159 4.3992 6.2568 3.89028 6.46722 3.44987C6.68008 3.00701 6.97614 2.66202 7.35538 2.41491C7.73707 2.16534 8.18237 2.04056 8.69129 2.04056C8.9849 2.04056 9.27484 2.08949 9.5611 2.18736C9.84737 2.28523 10.1079 2.44427 10.3428 2.66447C10.5777 2.88223 10.7649 3.17094 10.9044 3.53061C11.0438 3.89028 11.1136 4.33314 11.1136 4.85919V5.2262H6.76816V4.4775H10.2327C10.2327 4.15942 10.1691 3.8756 10.0419 3.62604C9.9171 3.37647 9.73849 3.17951 9.50605 3.03515C9.27606 2.89079 9.00447 2.81862 8.69129 2.81862C8.3463 2.81862 8.0478 2.90425 7.79579 3.07552C7.54622 3.24435 7.35416 3.46455 7.21959 3.73614C7.08501 4.00773 7.01773 4.29889 7.01773 4.60962V5.10875C7.01773 5.53448 7.09113 5.89538 7.23794 6.19143C7.38719 6.48504 7.59393 6.70891 7.85818 6.86306C8.12243 7.01476 8.42949 7.0906 8.77937 7.0906C9.00692 7.0906 9.21245 7.0588 9.39595 6.99518C9.5819 6.92912 9.74216 6.83125 9.87673 6.70157C10.0113 6.56945 10.1153 6.40552 10.1887 6.20978L11.0255 6.44467C10.9374 6.72849 10.7894 6.97805 10.5814 7.19337C10.3734 7.40623 10.1165 7.57261 9.81067 7.6925C9.50483 7.80994 9.16106 7.86866 8.77937 7.86866ZM13.7083 7.75122L11.9907 2.11396H12.9009L14.1194 6.42999H14.1781L15.3819 2.11396H16.3067L17.4958 6.41531H17.5546L18.773 2.11396H19.6832L17.9656 7.75122H17.1142L15.881 3.42051H15.7929L14.5598 7.75122H13.7083ZM23.0001 7.86866C22.4569 7.86866 21.9883 7.74877 21.5944 7.50899C21.2029 7.26677 20.9008 6.92912 20.6879 6.49605C20.4775 6.06053 20.3723 5.55406 20.3723 4.97663C20.3723 4.3992 20.4775 3.89028 20.6879 3.44987C20.9008 3.00701 21.1968 2.66202 21.5761 2.41491C21.9578 2.16534 22.4031 2.04056 22.912 2.04056C23.2056 2.04056 23.4955 2.08949 23.7818 2.18736C24.0681 2.28523 24.3286 2.44427 24.5635 2.66447C24.7984 2.88223 24.9856 3.17094 25.1251 3.53061C25.2645 3.89028 25.3342 4.33314 25.3342 4.85919V5.2262H20.9889V4.4775H24.4534C24.4534 4.15942 24.3898 3.8756 24.2626 3.62604C24.1378 3.37647 23.9592 3.17951 23.7267 3.03515C23.4968 2.89079 23.2252 2.81862 22.912 2.81862C22.567 2.81862 22.2685 2.90425 22.0165 3.07552C21.7669 3.24435 21.5748 3.46455 21.4403 3.73614C21.3057 4.00773 21.2384 4.29889 21.2384 4.60962V5.10875C21.2384 5.53448 21.3118 5.89538 21.4586 6.19143C21.6079 6.48504 21.8146 6.70891 22.0789 6.86306C22.3431 7.01476 22.6502 7.0906 23.0001 7.0906C23.2276 7.0906 23.4331 7.0588 23.6166 6.99518C23.8026 6.92912 23.9629 6.83125 24.0974 6.70157C24.232 6.56945 24.336 6.40552 24.4094 6.20978L25.2462 6.44467C25.1581 6.72849 25.0101 6.97805 24.8021 7.19337C24.5941 7.40623 24.3372 7.57261 24.0314 7.6925C23.7255 7.80994 23.3818 7.86866 23.0001 7.86866ZM27.518 0.23487V7.75122H26.6518V0.23487H27.518ZM29.1043 7.75122V2.11396H29.9411V2.96542H29.9999C30.1026 2.68649 30.2886 2.46017 30.5577 2.28645C30.8268 2.11273 31.1302 2.02588 31.4679 2.02588C31.5315 2.02588 31.611 2.0271 31.7064 2.02955C31.8019 2.03199 31.874 2.03566 31.923 2.04056V2.92138C31.8936 2.91404 31.8263 2.90303 31.7211 2.88835C31.6184 2.87122 31.5095 2.86266 31.3945 2.86266C31.1205 2.86266 30.8758 2.92015 30.6605 3.03515C30.4476 3.1477 30.2788 3.30429 30.154 3.50492C30.0317 3.70311 29.9705 3.92943 29.9705 4.18389V7.75122H29.1043ZM33.6791 9.86519C33.5323 9.86519 33.4014 9.85296 33.2864 9.82849C33.1714 9.80647 33.0919 9.78445 33.0479 9.76243L33.2681 8.99905C33.4785 9.05288 33.6644 9.07245 33.8259 9.05777C33.9874 9.04309 34.1305 8.97091 34.2553 8.84124C34.3826 8.71401 34.4988 8.50726 34.604 8.22099L34.7655 7.78058L32.6809 2.11396H33.6204L35.1765 6.60615H35.2352L36.7914 2.11396H37.7309L35.338 8.57332C35.2303 8.86448 35.097 9.10549 34.938 9.29633C34.7789 9.48962 34.5942 9.63276 34.3838 9.72573C34.1758 9.81871 33.9409 9.86519 33.6791 9.86519ZM2.39296 24.8687C1.92318 24.8687 1.50846 24.75 1.14879 24.5127C0.789125 24.2729 0.507751 23.9352 0.304673 23.4997C0.101594 23.0618 5.48604e-05 22.5443 5.48604e-05 21.9473C5.48604e-05 21.3552 0.101594 20.8413 0.304673 20.4058C0.507751 19.9703 0.790348 19.6339 1.15246 19.3966C1.51458 19.1592 1.93297 19.0406 2.40764 19.0406C2.77465 19.0406 3.06458 19.1017 3.27745 19.2241C3.49276 19.344 3.65669 19.481 3.76924 19.6351C3.88424 19.7868 3.97354 19.9116 4.03716 20.0095H4.11056V17.2349H4.9767V24.7512H4.13992V23.8851H4.03716C3.97354 23.9878 3.88301 24.1175 3.76557 24.2741C3.64813 24.4283 3.48053 24.5665 3.26277 24.6888C3.04501 24.8087 2.75507 24.8687 2.39296 24.8687ZM2.5104 24.0906C2.85783 24.0906 3.15144 24.0001 3.39122 23.819C3.631 23.6355 3.81328 23.3823 3.93806 23.0593C4.06285 22.7339 4.12524 22.3583 4.12524 21.9326C4.12524 21.5118 4.06407 21.1435 3.94173 20.8279C3.8194 20.5098 3.63834 20.2627 3.39856 20.0865C3.15878 19.9079 2.86273 19.8186 2.5104 19.8186C2.14339 19.8186 1.83755 19.9128 1.59288 20.1012C1.35065 20.2872 1.16837 20.5404 1.04603 20.8609C0.926142 21.179 0.866197 21.5362 0.866197 21.9326C0.866197 22.3339 0.927365 22.6984 1.0497 23.0263C1.17448 23.3517 1.35799 23.611 1.60022 23.8043C1.84489 23.9952 2.14828 24.0906 2.5104 24.0906ZM6.68329 24.7512V19.114H7.54944V24.7512H6.68329ZM7.12371 18.1744C6.95488 18.1744 6.8093 18.1169 6.68696 18.0019C6.56707 17.8869 6.50713 17.7487 6.50713 17.5872C6.50713 17.4257 6.56707 17.2875 6.68696 17.1725C6.8093 17.0575 6.95488 17 7.12371 17C7.29253 17 7.43689 17.0575 7.55678 17.1725C7.67911 17.2875 7.74028 17.4257 7.74028 17.5872C7.74028 17.7487 7.67911 17.8869 7.55678 18.0019C7.43689 18.1169 7.29253 18.1744 7.12371 18.1744ZM10.7947 24.8833C10.4375 24.8833 10.1133 24.8161 9.82214 24.6815C9.53098 24.5445 9.29976 24.3475 9.12849 24.0906C8.95722 23.8313 8.87159 23.5181 8.87159 23.1511C8.87159 22.8281 8.9352 22.5663 9.06243 22.3657C9.18966 22.1626 9.35971 22.0035 9.57258 21.8885C9.78544 21.7736 10.0203 21.6879 10.2772 21.6316C10.5366 21.5729 10.7972 21.5264 11.059 21.4922C11.4015 21.4481 11.6792 21.4151 11.8921 21.3931C12.1074 21.3686 12.264 21.3282 12.3618 21.272C12.4622 21.2157 12.5123 21.1178 12.5123 20.9784V20.949C12.5123 20.5869 12.4132 20.3055 12.215 20.1049C12.0193 19.9043 11.722 19.8039 11.3232 19.8039C10.9097 19.8039 10.5855 19.8945 10.3506 20.0755C10.1157 20.2566 9.95059 20.4499 9.85517 20.6554L9.03307 20.3618C9.17988 20.0192 9.37561 19.7526 9.62029 19.5617C9.86741 19.3684 10.1365 19.2338 10.4277 19.158C10.7213 19.0797 11.01 19.0406 11.2938 19.0406C11.4749 19.0406 11.6829 19.0626 11.9178 19.1066C12.1551 19.1482 12.3839 19.2351 12.6041 19.3672C12.8267 19.4993 13.0115 19.6987 13.1583 19.9654C13.3051 20.2321 13.3785 20.5893 13.3785 21.0371V24.7512H12.5123V23.9878H12.4683C12.4096 24.1102 12.3117 24.2411 12.1747 24.3805C12.0377 24.52 11.8554 24.6387 11.6278 24.7365C11.4003 24.8344 11.1226 24.8833 10.7947 24.8833ZM10.9268 24.1053C11.2694 24.1053 11.5581 24.038 11.793 23.9034C12.0303 23.7689 12.2089 23.5951 12.3288 23.3823C12.4512 23.1694 12.5123 22.9455 12.5123 22.7106V21.9179C12.4756 21.9619 12.3949 22.0023 12.2701 22.039C12.1478 22.0733 12.0058 22.1039 11.8444 22.1308C11.6853 22.1552 11.53 22.1773 11.3783 22.1968C11.229 22.214 11.1079 22.2286 11.0149 22.2409C10.7898 22.2702 10.5794 22.3179 10.3837 22.384C10.1904 22.4476 10.0338 22.5443 9.91389 22.6739C9.79645 22.8012 9.73773 22.9749 9.73773 23.1951C9.73773 23.496 9.84906 23.7236 10.0717 23.8777C10.2968 24.0294 10.5819 24.1053 10.9268 24.1053ZM14.9594 24.7512V19.114H15.7961V19.9948H15.8695C15.987 19.6938 16.1766 19.4602 16.4384 19.2938C16.7002 19.125 17.0146 19.0406 17.3816 19.0406C17.7535 19.0406 18.063 19.125 18.3101 19.2938C18.5597 19.4602 18.7542 19.6938 18.8937 19.9948H18.9524C19.0968 19.7036 19.3133 19.4724 19.602 19.3011C19.8907 19.1274 20.2369 19.0406 20.6407 19.0406C21.1447 19.0406 21.557 19.1984 21.8775 19.514C22.198 19.8272 22.3583 20.3153 22.3583 20.9784V24.7512H21.4921V20.9784C21.4921 20.5624 21.3783 20.2651 21.1508 20.0865C20.9233 19.9079 20.6553 19.8186 20.3471 19.8186C19.9507 19.8186 19.6436 19.9385 19.4259 20.1783C19.2081 20.4156 19.0992 20.7166 19.0992 21.0811V24.7512H18.2184V20.8903C18.2184 20.5698 18.1144 20.3116 17.9064 20.1159C17.6985 19.9177 17.4305 19.8186 17.1027 19.8186C16.8776 19.8186 16.6672 19.8786 16.4714 19.9984C16.2781 20.1183 16.1215 20.2847 16.0017 20.4976C15.8842 20.708 15.8255 20.9515 15.8255 21.2279V24.7512H14.9594ZM26.232 24.8687C25.7231 24.8687 25.2766 24.7476 24.8925 24.5053C24.5108 24.2631 24.2123 23.9242 23.997 23.4887C23.7841 23.0532 23.6777 22.5443 23.6777 21.9619C23.6777 21.3747 23.7841 20.8621 23.997 20.4242C24.2123 19.9862 24.5108 19.6461 24.8925 19.4039C25.2766 19.1617 25.7231 19.0406 26.232 19.0406C26.741 19.0406 27.1863 19.1617 27.568 19.4039C27.9521 19.6461 28.2506 19.9862 28.4635 20.4242C28.6788 20.8621 28.7864 21.3747 28.7864 21.9619C28.7864 22.5443 28.6788 23.0532 28.4635 23.4887C28.2506 23.9242 27.9521 24.2631 27.568 24.5053C27.1863 24.7476 26.741 24.8687 26.232 24.8687ZM26.232 24.0906C26.6186 24.0906 26.9367 23.9915 27.1863 23.7933C27.4358 23.5951 27.6206 23.3346 27.7405 23.0116C27.8603 22.6886 27.9203 22.3387 27.9203 21.9619C27.9203 21.5852 27.8603 21.234 27.7405 20.9086C27.6206 20.5832 27.4358 20.3202 27.1863 20.1196C26.9367 19.9189 26.6186 19.8186 26.232 19.8186C25.8455 19.8186 25.5274 19.9189 25.2778 20.1196C25.0283 20.3202 24.8435 20.5832 24.7236 20.9086C24.6037 21.234 24.5438 21.5852 24.5438 21.9619C24.5438 22.3387 24.6037 22.6886 24.7236 23.0116C24.8435 23.3346 25.0283 23.5951 25.2778 23.7933C25.5274 23.9915 25.8455 24.0906 26.232 24.0906ZM30.9747 21.3601V24.7512H30.1086V19.114H30.9454V19.9948H31.0188C31.1509 19.7085 31.3515 19.4785 31.6207 19.3048C31.8898 19.1286 32.2372 19.0406 32.663 19.0406C33.0447 19.0406 33.3786 19.1189 33.6649 19.2754C33.9512 19.4296 34.1738 19.6645 34.3329 19.9801C34.4919 20.2933 34.5714 20.6897 34.5714 21.1692V24.7512H33.7053V21.2279C33.7053 20.7851 33.5903 20.4401 33.3603 20.193C33.1303 19.9434 32.8147 19.8186 32.4134 19.8186C32.1369 19.8186 31.8898 19.8786 31.672 19.9984C31.4567 20.1183 31.2867 20.2933 31.1619 20.5233C31.0371 20.7533 30.9747 21.0322 30.9747 21.3601ZM38.2828 24.8687C37.813 24.8687 37.3983 24.75 37.0386 24.5127C36.679 24.2729 36.3976 23.9352 36.1945 23.4997C35.9914 23.0618 35.8899 22.5443 35.8899 21.9473C35.8899 21.3552 35.9914 20.8413 36.1945 20.4058C36.3976 19.9703 36.6802 19.6339 37.0423 19.3966C37.4044 19.1592 37.8228 19.0406 38.2975 19.0406C38.6645 19.0406 38.9544 19.1017 39.1673 19.2241C39.3826 19.344 39.5465 19.481 39.6591 19.6351C39.7741 19.7868 39.8634 19.9116 39.927 20.0095H40.0004V17.2349H40.8665V24.7512H40.0298V23.8851H39.927C39.8634 23.9878 39.7729 24.1175 39.6554 24.2741C39.538 24.4283 39.3704 24.5665 39.1526 24.6888C38.9348 24.8087 38.6449 24.8687 38.2828 24.8687ZM38.4002 24.0906C38.7477 24.0906 39.0413 24.0001 39.2811 23.819C39.5208 23.6355 39.7031 23.3823 39.8279 23.0593C39.9527 22.7339 40.0151 22.3583 40.0151 21.9326C40.0151 21.5118 39.9539 21.1435 39.8316 20.8279C39.7092 20.5098 39.5282 20.2627 39.2884 20.0865C39.0486 19.9079 38.7526 19.8186 38.4002 19.8186C38.0332 19.8186 37.7274 19.9128 37.4827 20.1012C37.2405 20.2872 37.0582 20.5404 36.9359 20.8609C36.816 21.179 36.756 21.5362 36.756 21.9326C36.756 22.3339 36.8172 22.6984 36.9395 23.0263C37.0643 23.3517 37.2478 23.611 37.4901 23.8043C37.7347 23.9952 38.0381 24.0906 38.4002 24.0906Z" fill="#737373"/>
</svg>
