<svg width="52" height="25" viewBox="0 0 52 25" fill="none" xmlns="http://www.w3.org/2000/svg">
<path d="M9.66104 7.86865V2.23139H10.5272V7.86865H9.66104ZM10.1015 1.29185C9.93263 1.29185 9.78705 1.23435 9.66471 1.11935C9.54482 1.00436 9.48488 0.866115 9.48488 0.704631C9.48488 0.543147 9.54482 0.404906 9.66471 0.28991C9.78705 0.174914 9.93263 0.117416 10.1015 0.117416C10.2703 0.117416 10.4146 0.174914 10.5345 0.28991C10.6569 0.404906 10.718 0.543147 10.718 0.704631C10.718 0.866115 10.6569 1.00436 10.5345 1.11935C10.4146 1.23435 10.2703 1.29185 10.1015 1.29185ZM14.2422 7.9861C13.7725 7.9861 13.3577 7.86743 12.9981 7.6301C12.6384 7.39032 12.357 7.05267 12.154 6.61715C11.9509 6.17919 11.8493 5.6617 11.8493 5.0647C11.8493 4.47259 11.9509 3.95878 12.154 3.52326C12.357 3.08774 12.6396 2.75132 13.0017 2.51399C13.3639 2.27665 13.7823 2.15799 14.2569 2.15799C14.6239 2.15799 14.9139 2.21916 15.1267 2.34149C15.342 2.46138 15.506 2.5984 15.6185 2.75254C15.7335 2.90424 15.8228 3.02902 15.8864 3.12689H15.9598V0.352302H16.826V7.86865H15.9892V7.00251H15.8864C15.8228 7.10527 15.7323 7.23495 15.6149 7.39154C15.4974 7.54568 15.3298 7.68392 15.112 7.80626C14.8943 7.92615 14.6044 7.9861 14.2422 7.9861ZM14.3597 7.20804C14.7071 7.20804 15.0007 7.11751 15.2405 6.93645C15.4803 6.75294 15.6626 6.49971 15.7873 6.17674C15.9121 5.85132 15.9745 5.47575 15.9745 5.05002C15.9745 4.62918 15.9134 4.26095 15.791 3.94532C15.6687 3.62725 15.4876 3.38013 15.2478 3.20396C15.0081 3.02535 14.712 2.93605 14.3597 2.93605C13.9927 2.93605 13.6868 3.03025 13.4422 3.21864C13.1999 3.4046 13.0176 3.65783 12.8953 3.97835C12.7754 4.29643 12.7155 4.65365 12.7155 5.05002C12.7155 5.45128 12.7766 5.81585 12.899 6.14371C13.0238 6.46912 13.2073 6.72848 13.4495 6.92177C13.6942 7.11261 13.9976 7.20804 14.3597 7.20804ZM23.9496 2.23139V2.96541H20.9108V2.23139H23.9496ZM21.821 7.86865V1.45333C21.821 1.13036 21.8968 0.861221 22.0485 0.645909C22.2002 0.430597 22.3972 0.269113 22.6394 0.161457C22.8816 0.0538005 23.1373 -2.75754e-05 23.4065 -2.75754e-05C23.6193 -2.75754e-05 23.793 0.0170996 23.9276 0.0513541C24.0622 0.0856081 24.1625 0.117415 24.2286 0.146776L23.979 0.895475C23.935 0.880795 23.8738 0.862445 23.7955 0.840424C23.7196 0.818403 23.6193 0.807393 23.4945 0.807393C23.2083 0.807393 23.0015 0.879572 22.8743 1.02393C22.7495 1.16829 22.6871 1.37993 22.6871 1.65885V7.86865H21.821ZM26.6609 8.00078C26.3037 8.00078 25.9795 7.93349 25.6883 7.79892C25.3972 7.6619 25.166 7.46494 24.9947 7.20804C24.8234 6.94868 24.7378 6.6355 24.7378 6.26849C24.7378 5.94552 24.8014 5.68372 24.9286 5.48309C25.0559 5.28001 25.2259 5.12098 25.4388 5.00598C25.6516 4.89098 25.8865 4.80535 26.1434 4.74907C26.4028 4.69035 26.6634 4.64386 26.9252 4.60961C27.2677 4.56557 27.5454 4.53254 27.7583 4.51052C27.9736 4.48605 28.1302 4.44568 28.228 4.3894C28.3284 4.33313 28.3785 4.23526 28.3785 4.0958V4.06644C28.3785 3.70432 28.2794 3.42295 28.0812 3.22231C27.8855 3.02168 27.5882 2.92137 27.1894 2.92137C26.7759 2.92137 26.4517 3.0119 26.2168 3.19295C25.9819 3.37401 25.8168 3.5673 25.7214 3.77283L24.8993 3.47922C25.0461 3.13668 25.2418 2.86999 25.4865 2.67914C25.7336 2.48585 26.0027 2.35128 26.2939 2.27543C26.5875 2.19714 26.8762 2.15799 27.16 2.15799C27.3411 2.15799 27.5491 2.18001 27.784 2.22405C28.0213 2.26564 28.2501 2.3525 28.4703 2.48463C28.6929 2.61675 28.8776 2.81616 29.0245 3.08285C29.1713 3.34954 29.2447 3.70677 29.2447 4.15452V7.86865H28.3785V7.10527H28.3345C28.2758 7.22761 28.1779 7.35851 28.0409 7.49797C27.9039 7.63744 27.7216 7.7561 27.494 7.85397C27.2665 7.95184 26.9888 8.00078 26.6609 8.00078ZM26.793 7.22272C27.1356 7.22272 27.4243 7.15543 27.6592 7.02086C27.8965 6.88629 28.0751 6.71257 28.195 6.49971C28.3173 6.28684 28.3785 6.06297 28.3785 5.82808V5.03534C28.3418 5.07938 28.2611 5.11975 28.1363 5.15645C28.014 5.19071 27.872 5.22129 27.7106 5.24821C27.5515 5.27267 27.3962 5.29469 27.2445 5.31427C27.0952 5.33139 26.9741 5.34608 26.8811 5.35831C26.656 5.38767 26.4456 5.43538 26.2499 5.50144C26.0566 5.56506 25.9 5.6617 25.7801 5.79138C25.6626 5.91861 25.6039 6.09233 25.6039 6.31253C25.6039 6.61348 25.7153 6.84103 25.9379 6.99517C26.163 7.14687 26.448 7.22272 26.793 7.22272ZM33.1157 7.9861C32.5872 7.9861 32.1321 7.86131 31.7504 7.61175C31.3687 7.36218 31.0751 7.01841 30.8696 6.58045C30.6641 6.14249 30.5613 5.64213 30.5613 5.07938C30.5613 4.50685 30.6665 4.0016 30.8769 3.56363C31.0898 3.12322 31.3859 2.77946 31.7651 2.53234C32.1468 2.28277 32.5921 2.15799 33.101 2.15799C33.4974 2.15799 33.8546 2.23139 34.1727 2.37819C34.4908 2.525 34.7513 2.73052 34.9544 2.99477C35.1575 3.25902 35.2835 3.5673 35.3324 3.91963H34.4663C34.4002 3.66273 34.2534 3.43518 34.0259 3.23699C33.8008 3.03636 33.4974 2.93605 33.1157 2.93605C32.778 2.93605 32.482 3.02413 32.2275 3.20029C31.9755 3.37401 31.7786 3.61991 31.6366 3.93798C31.4972 4.25361 31.4274 4.62429 31.4274 5.05002C31.4274 5.48554 31.496 5.86478 31.633 6.18775C31.7724 6.51072 31.9682 6.76151 32.2202 6.94012C32.4746 7.11873 32.7731 7.20804 33.1157 7.20804C33.3408 7.20804 33.5451 7.16889 33.7286 7.09059C33.9121 7.0123 34.0675 6.89975 34.1947 6.75294C34.3219 6.60614 34.4125 6.42998 34.4663 6.22445H35.3324C35.2835 6.55721 35.1624 6.85693 34.9691 7.12362C34.7782 7.38787 34.525 7.59829 34.2094 7.75488C33.8962 7.90902 33.5316 7.9861 33.1157 7.9861ZM38.9622 7.9861C38.419 7.9861 37.9504 7.86621 37.5565 7.62643C37.165 7.3842 36.8629 7.04655 36.65 6.61348C36.4396 6.17796 36.3344 5.67149 36.3344 5.09406C36.3344 4.51663 36.4396 4.00771 36.65 3.5673C36.8629 3.12445 37.1589 2.77946 37.5382 2.53234C37.9198 2.28277 38.3651 2.15799 38.8741 2.15799C39.1677 2.15799 39.4576 2.20692 39.7439 2.30479C40.0301 2.40266 40.2907 2.5617 40.5256 2.7819C40.7605 2.99966 40.9477 3.28838 41.0871 3.64805C41.2266 4.00771 41.2963 4.45057 41.2963 4.97662V5.34363H36.9509V4.59493H40.4155C40.4155 4.27685 40.3519 3.99303 40.2247 3.74347C40.0999 3.4939 39.9213 3.29694 39.6888 3.15258C39.4588 3.00823 39.1872 2.93605 38.8741 2.93605C38.5291 2.93605 38.2306 3.02168 37.9786 3.19295C37.729 3.36178 37.5369 3.58198 37.4024 3.85357C37.2678 4.12516 37.2005 4.41632 37.2005 4.72705V5.22619C37.2005 5.65192 37.2739 6.01281 37.4207 6.30886C37.57 6.60247 37.7767 6.82635 38.041 6.98049C38.3052 7.13219 38.6123 7.20804 38.9622 7.20804C39.1897 7.20804 39.3952 7.17623 39.5787 7.11261C39.7647 7.04655 39.9249 6.94868 40.0595 6.81901C40.1941 6.68688 40.2981 6.52295 40.3715 6.32721L41.2082 6.5621C41.1202 6.84592 40.9721 7.09549 40.7642 7.3108C40.5562 7.52366 40.2993 7.69004 39.9934 7.80993C39.6876 7.92737 39.3438 7.9861 38.9622 7.9861ZM4.24261 20.4939L3.46455 20.7141C3.41562 20.5844 3.34344 20.4584 3.24801 20.3361C3.15504 20.2113 3.02781 20.1085 2.86632 20.0278C2.70484 19.9471 2.49809 19.9067 2.24608 19.9067C1.90109 19.9067 1.6136 19.9862 1.38361 20.1452C1.15606 20.3018 1.04229 20.5012 1.04229 20.7435C1.04229 20.9588 1.12058 21.1288 1.27717 21.2536C1.43376 21.3784 1.67844 21.4824 2.01119 21.5656L2.84797 21.7711C3.352 21.8934 3.72757 22.0806 3.97469 22.3326C4.22181 22.5822 4.34537 22.9039 4.34537 23.2979C4.34537 23.6208 4.2524 23.9095 4.06645 24.164C3.88294 24.4185 3.62603 24.6191 3.29573 24.7659C2.96542 24.9127 2.58128 24.9861 2.14332 24.9861C1.56834 24.9861 1.09245 24.8613 0.71565 24.6117C0.338854 24.3622 0.100298 23.9976 -1.81232e-05 23.5181L0.822083 23.3125C0.900378 23.6159 1.04841 23.8435 1.26616 23.9952C1.48637 24.1469 1.77386 24.2227 2.12864 24.2227C2.53235 24.2227 2.85287 24.1371 3.0902 23.9658C3.32998 23.7921 3.44987 23.5841 3.44987 23.3419C3.44987 23.1462 3.38136 22.9822 3.24434 22.8501C3.10733 22.7155 2.89691 22.6152 2.61309 22.5492L1.67354 22.3289C1.15728 22.2066 0.778042 22.017 0.535815 21.7601C0.296036 21.5007 0.176146 21.1765 0.176146 20.7875C0.176146 20.4694 0.265452 20.1881 0.444063 19.9434C0.625121 19.6987 0.871017 19.5066 1.18175 19.3672C1.49493 19.2277 1.84971 19.158 2.24608 19.158C2.80393 19.158 3.2419 19.2803 3.55997 19.525C3.88049 19.7697 4.10804 20.0926 4.24261 20.4939ZM7.93931 24.9861C7.41082 24.9861 6.95573 24.8613 6.57404 24.6117C6.19235 24.3622 5.89874 24.0184 5.69321 23.5804C5.48769 23.1425 5.38493 22.6421 5.38493 22.0794C5.38493 21.5068 5.49014 21.0016 5.70055 20.5636C5.91342 20.1232 6.20947 19.7795 6.58872 19.5323C6.97041 19.2828 7.41571 19.158 7.92463 19.158C8.321 19.158 8.67822 19.2314 8.9963 19.3782C9.31437 19.525 9.57495 19.7305 9.77803 19.9948C9.98111 20.259 10.1071 20.5673 10.156 20.9196H9.2899C9.22384 20.6627 9.07704 20.4352 8.84949 20.237C8.62439 20.0364 8.321 19.936 7.93931 19.936C7.60166 19.936 7.30561 20.0241 7.05115 20.2003C6.79914 20.374 6.60217 20.6199 6.46026 20.938C6.3208 21.2536 6.25107 21.6243 6.25107 22.05C6.25107 22.4855 6.31958 22.8648 6.45659 23.1877C6.59606 23.5107 6.79179 23.7615 7.04381 23.9401C7.29827 24.1187 7.59677 24.208 7.93931 24.208C8.16441 24.208 8.36871 24.1689 8.55222 24.0906C8.73572 24.0123 8.89109 23.8997 9.01832 23.7529C9.14555 23.6061 9.23608 23.43 9.2899 23.2245H10.156C10.1071 23.5572 9.986 23.8569 9.79271 24.1236C9.60186 24.3879 9.34863 24.5983 9.033 24.7549C8.71982 24.909 8.35525 24.9861 7.93931 24.9861ZM13.0811 25.0008C12.7239 25.0008 12.3997 24.9335 12.1085 24.7989C11.8174 24.6619 11.5862 24.4649 11.4149 24.208C11.2436 23.9487 11.158 23.6355 11.158 23.2685C11.158 22.9455 11.2216 22.6837 11.3488 22.4831C11.4761 22.28 11.6461 22.121 11.859 22.006C12.0718 21.891 12.3067 21.8053 12.5636 21.7491C12.823 21.6904 13.0836 21.6439 13.3454 21.6096C13.6879 21.5656 13.9656 21.5325 14.1785 21.5105C14.3938 21.486 14.5504 21.4457 14.6482 21.3894C14.7486 21.3331 14.7987 21.2353 14.7987 21.0958V21.0664C14.7987 20.7043 14.6996 20.4229 14.5014 20.2223C14.3057 20.0217 14.0084 19.9214 13.6096 19.9214C13.1961 19.9214 12.8719 20.0119 12.637 20.193C12.4021 20.374 12.237 20.5673 12.1416 20.7728L11.3195 20.4792C11.4663 20.1367 11.662 19.87 11.9067 19.6791C12.1538 19.4858 12.4229 19.3513 12.7141 19.2754C13.0077 19.1971 13.2964 19.158 13.5802 19.158C13.7613 19.158 13.9693 19.18 14.2042 19.224C14.4415 19.2656 14.6703 19.3525 14.8905 19.4846C15.1131 19.6167 15.2978 19.8162 15.4447 20.0829C15.5915 20.3495 15.6649 20.7068 15.6649 21.1545V24.8687H14.7987V24.1053H14.7547C14.696 24.2276 14.5981 24.3585 14.4611 24.498C14.324 24.6374 14.1418 24.7561 13.9142 24.854C13.6867 24.9518 13.409 25.0008 13.0811 25.0008ZM13.2132 24.2227C13.5558 24.2227 13.8445 24.1554 14.0794 24.0209C14.3167 23.8863 14.4953 23.7126 14.6152 23.4997C14.7375 23.2868 14.7987 23.063 14.7987 22.8281V22.0353C14.762 22.0794 14.6813 22.1198 14.5565 22.1565C14.4342 22.1907 14.2922 22.2213 14.1308 22.2482C13.9717 22.2727 13.8164 22.2947 13.6647 22.3143C13.5154 22.3314 13.3943 22.3461 13.3013 22.3583C13.0762 22.3877 12.8658 22.4354 12.6701 22.5014C12.4768 22.5651 12.3202 22.6617 12.2003 22.7914C12.0828 22.9186 12.0241 23.0923 12.0241 23.3125C12.0241 23.6135 12.1355 23.841 12.3581 23.9952C12.5832 24.1469 12.8682 24.2227 13.2132 24.2227ZM18.1119 21.4775V24.8687H17.2457V19.2314H18.0825V20.1122H18.1559C18.2881 19.8259 18.4887 19.596 18.7578 19.4222C19.027 19.2461 19.3744 19.158 19.8001 19.158C20.1818 19.158 20.5158 19.2363 20.8021 19.3929C21.0883 19.547 21.311 19.7819 21.47 20.0975C21.6291 20.4107 21.7086 20.8071 21.7086 21.2866V24.8687H20.8424V21.3454C20.8424 20.9025 20.7274 20.5575 20.4975 20.3104C20.2675 20.0608 19.9518 19.936 19.5506 19.936C19.2741 19.936 19.027 19.996 18.8092 20.1159C18.5939 20.2358 18.4238 20.4107 18.2991 20.6407C18.1743 20.8707 18.1119 21.1496 18.1119 21.4775ZM26.198 24.8687V19.2314H27.0348V20.1122H27.1082C27.2256 19.8113 27.4153 19.5776 27.6771 19.4112C27.9389 19.2424 28.2533 19.158 28.6203 19.158C28.9922 19.158 29.3017 19.2424 29.5488 19.4112C29.7984 19.5776 29.9929 19.8113 30.1324 20.1122H30.1911C30.3354 19.8211 30.552 19.5898 30.8407 19.4186C31.1294 19.2448 31.4756 19.158 31.8793 19.158C32.3834 19.158 32.7956 19.3158 33.1161 19.6314C33.4367 19.9446 33.5969 20.4327 33.5969 21.0958V24.8687H32.7308V21.0958C32.7308 20.6799 32.617 20.3826 32.3895 20.204C32.1619 20.0254 31.894 19.936 31.5857 19.936C31.1893 19.936 30.8823 20.0559 30.6645 20.2957C30.4468 20.533 30.3379 20.834 30.3379 21.1986V24.8687H29.4571V21.0077C29.4571 20.6872 29.3531 20.4291 29.1451 20.2333C28.9371 20.0351 28.6692 19.936 28.3414 19.936C28.1163 19.936 27.9058 19.996 27.7101 20.1159C27.5168 20.2358 27.3602 20.4021 27.2403 20.615C27.1229 20.8254 27.0642 21.0689 27.0642 21.3454V24.8687H26.198ZM36.8395 25.0008C36.4822 25.0008 36.158 24.9335 35.8669 24.7989C35.5757 24.6619 35.3445 24.4649 35.1732 24.208C35.002 23.9487 34.9163 23.6355 34.9163 23.2685C34.9163 22.9455 34.9799 22.6837 35.1072 22.4831C35.2344 22.28 35.4044 22.121 35.6173 22.006C35.8302 21.891 36.0651 21.8053 36.322 21.7491C36.5813 21.6904 36.8419 21.6439 37.1037 21.6096C37.4462 21.5656 37.7239 21.5325 37.9368 21.5105C38.1521 21.486 38.3087 21.4457 38.4066 21.3894C38.5069 21.3331 38.5571 21.2353 38.5571 21.0958V21.0664C38.5571 20.7043 38.458 20.4229 38.2598 20.2223C38.064 20.0217 37.7668 19.9214 37.3679 19.9214C36.9545 19.9214 36.6303 20.0119 36.3954 20.193C36.1605 20.374 35.9953 20.5673 35.8999 20.7728L35.0778 20.4792C35.2246 20.1367 35.4204 19.87 35.665 19.6791C35.9121 19.4858 36.1813 19.3513 36.4724 19.2754C36.7661 19.1971 37.0548 19.158 37.3386 19.158C37.5196 19.158 37.7276 19.18 37.9625 19.224C38.1998 19.2656 38.4286 19.3525 38.6488 19.4846C38.8715 19.6167 39.0562 19.8162 39.203 20.0829C39.3498 20.3495 39.4232 20.7068 39.4232 21.1545V24.8687H38.5571V24.1053H38.513C38.4543 24.2276 38.3564 24.3585 38.2194 24.498C38.0824 24.6374 37.9001 24.7561 37.6726 24.854C37.445 24.9518 37.1673 25.0008 36.8395 25.0008ZM36.9716 24.2227C37.3141 24.2227 37.6028 24.1554 37.8377 24.0209C38.0751 23.8863 38.2537 23.7126 38.3736 23.4997C38.4959 23.2868 38.5571 23.063 38.5571 22.8281V22.0353C38.5204 22.0794 38.4396 22.1198 38.3148 22.1565C38.1925 22.1907 38.0506 22.2213 37.8891 22.2482C37.7301 22.2727 37.5747 22.2947 37.423 22.3143C37.2737 22.3314 37.1526 22.3461 37.0597 22.3583C36.8346 22.3877 36.6241 22.4354 36.4284 22.5014C36.2351 22.5651 36.0785 22.6617 35.9586 22.7914C35.8412 22.9186 35.7825 23.0923 35.7825 23.3125C35.7825 23.6135 35.8938 23.841 36.1164 23.9952C36.3415 24.1469 36.6266 24.2227 36.9716 24.2227ZM44.9972 20.4939L44.2191 20.7141C44.1702 20.5844 44.098 20.4584 44.0026 20.3361C43.9096 20.2113 43.7824 20.1085 43.6209 20.0278C43.4594 19.9471 43.2526 19.9067 43.0006 19.9067C42.6556 19.9067 42.3681 19.9862 42.1382 20.1452C41.9106 20.3018 41.7968 20.5012 41.7968 20.7435C41.7968 20.9588 41.8751 21.1288 42.0317 21.2536C42.1883 21.3784 42.433 21.4824 42.7657 21.5656L43.6025 21.7711C44.1065 21.8934 44.4821 22.0806 44.7292 22.3326C44.9764 22.5822 45.0999 22.9039 45.0999 23.2979C45.0999 23.6208 45.0069 23.9095 44.821 24.164C44.6375 24.4185 44.3806 24.6191 44.0503 24.7659C43.72 24.9127 43.3358 24.9861 42.8979 24.9861C42.3229 24.9861 41.847 24.8613 41.4702 24.6117C41.0934 24.3622 40.8548 23.9976 40.7545 23.5181L41.5766 23.3125C41.6549 23.6159 41.803 23.8435 42.0207 23.9952C42.2409 24.1469 42.5284 24.2227 42.8832 24.2227C43.2869 24.2227 43.6074 24.1371 43.8447 23.9658C44.0845 23.7921 44.2044 23.5841 44.2044 23.3419C44.2044 23.1462 44.1359 22.9822 43.9989 22.8501C43.8619 22.7155 43.6515 22.6152 43.3676 22.5492L42.4281 22.3289C41.9118 22.2066 41.5326 22.017 41.2904 21.7601C41.0506 21.5007 40.9307 21.1765 40.9307 20.7875C40.9307 20.4694 41.02 20.1881 41.1986 19.9434C41.3797 19.6987 41.6256 19.5066 41.9363 19.3672C42.2495 19.2277 42.6043 19.158 43.0006 19.158C43.5585 19.158 43.9964 19.2803 44.3145 19.525C44.635 19.7697 44.8626 20.0926 44.9972 20.4939ZM47.2111 22.8134L47.1965 21.7417H47.3726L49.8389 19.2314H50.9106L48.2828 21.8885H48.2094L47.2111 22.8134ZM46.4037 24.8687V17.3523H47.2699V24.8687H46.4037ZM49.9857 24.8687L47.7837 22.0794L48.4002 21.4775L51.0868 24.8687H49.9857Z" fill="#737373"/>
</svg>
