<svg width="78" height="27" viewBox="0 0 78 27" fill="none" xmlns="http://www.w3.org/2000/svg">
<path d="M29.0236 0.23487V7.75122H28.1574V0.23487H29.0236ZM32.9001 7.86866C32.3912 7.86866 31.9446 7.74755 31.5605 7.50532C31.1788 7.2631 30.8803 6.92423 30.665 6.48871C30.4521 6.05319 30.3457 5.54427 30.3457 4.96195C30.3457 4.37473 30.4521 3.86215 30.665 3.42418C30.8803 2.98622 31.1788 2.64612 31.5605 2.4039C31.9446 2.16167 32.3912 2.04056 32.9001 2.04056C33.409 2.04056 33.8543 2.16167 34.236 2.4039C34.6201 2.64612 34.9186 2.98622 35.1315 3.42418C35.3468 3.86215 35.4545 4.37473 35.4545 4.96195C35.4545 5.54427 35.3468 6.05319 35.1315 6.48871C34.9186 6.92423 34.6201 7.2631 34.236 7.50532C33.8543 7.74755 33.409 7.86866 32.9001 7.86866ZM32.9001 7.0906C33.2867 7.0906 33.6047 6.99151 33.8543 6.79333C34.1039 6.59514 34.2886 6.33456 34.4085 6.0116C34.5284 5.68863 34.5883 5.33875 34.5883 4.96195C34.5883 4.58515 34.5284 4.23405 34.4085 3.90863C34.2886 3.58322 34.1039 3.32019 33.8543 3.11956C33.6047 2.91893 33.2867 2.81862 32.9001 2.81862C32.5135 2.81862 32.1954 2.91893 31.9459 3.11956C31.6963 3.32019 31.5116 3.58322 31.3917 3.90863C31.2718 4.23405 31.2118 4.58515 31.2118 4.96195C31.2118 5.33875 31.2718 5.68863 31.3917 6.0116C31.5116 6.33456 31.6963 6.59514 31.9459 6.79333C32.1954 6.99151 32.5135 7.0906 32.9001 7.0906ZM39.0521 9.98264C38.6337 9.98264 38.274 9.92881 37.9731 9.82115C37.6721 9.71594 37.4213 9.57648 37.2207 9.40276C37.0225 9.23149 36.8647 9.04799 36.7473 8.85225L37.4372 8.3678C37.5155 8.47056 37.6146 8.588 37.7345 8.72013C37.8544 8.8547 38.0183 8.97091 38.2263 9.06878C38.4367 9.1691 38.712 9.21926 39.0521 9.21926C39.5072 9.21926 39.8827 9.10916 40.1788 8.88895C40.4749 8.66874 40.6229 8.32376 40.6229 7.85398V6.70891H40.5495C40.4859 6.81168 40.3953 6.93891 40.2779 7.0906C40.1629 7.23985 39.9965 7.3732 39.7788 7.49064C39.5634 7.60564 39.2723 7.66314 38.9053 7.66314C38.4502 7.66314 38.0416 7.55548 37.6795 7.34017C37.3198 7.12486 37.0348 6.81168 36.8243 6.40063C36.6164 5.98958 36.5124 5.49044 36.5124 4.90323C36.5124 4.3258 36.6139 3.823 36.817 3.39482C37.0201 2.9642 37.3027 2.63144 37.6648 2.39655C38.0269 2.15922 38.4453 2.04056 38.92 2.04056C39.287 2.04056 39.5781 2.10172 39.7934 2.22406C40.0112 2.34395 40.1776 2.48097 40.2926 2.63511C40.41 2.78681 40.5005 2.91159 40.5642 3.00946H40.6522V2.11396H41.489V7.9127C41.489 8.39716 41.3789 8.79108 41.1587 9.09447C40.941 9.40032 40.6473 9.62419 40.2779 9.7661C39.9109 9.91046 39.5023 9.98264 39.0521 9.98264ZM39.0227 6.88508C39.3702 6.88508 39.6638 6.80556 39.9035 6.64652C40.1433 6.48749 40.3256 6.25872 40.4504 5.96022C40.5752 5.66171 40.6376 5.30449 40.6376 4.88855C40.6376 4.48239 40.5764 4.12395 40.4541 3.81321C40.3317 3.50248 40.1507 3.25903 39.9109 3.08286C39.6711 2.9067 39.375 2.81862 39.0227 2.81862C38.6557 2.81862 38.3499 2.91159 38.1052 3.09754C37.863 3.28349 37.6807 3.53306 37.5584 3.84624C37.4385 4.15942 37.3785 4.50686 37.3785 4.88855C37.3785 5.28002 37.4397 5.62624 37.562 5.92718C37.6868 6.22569 37.8703 6.46057 38.1125 6.63184C38.3572 6.80067 38.6606 6.88508 39.0227 6.88508ZM43.0745 7.75122V2.11396H43.9406V7.75122H43.0745ZM43.5149 1.17441C43.3461 1.17441 43.2005 1.11692 43.0782 1.00192C42.9583 0.886923 42.8983 0.748683 42.8983 0.587199C42.8983 0.425715 42.9583 0.287475 43.0782 0.172478C43.2005 0.0574823 43.3461 -1.57356e-05 43.5149 -1.57356e-05C43.6837 -1.57356e-05 43.8281 0.0574823 43.948 0.172478C44.0703 0.287475 44.1315 0.425715 44.1315 0.587199C44.1315 0.748683 44.0703 0.886923 43.948 1.00192C43.8281 1.11692 43.6837 1.17441 43.5149 1.17441ZM46.3932 4.36005V7.75122H45.527V2.11396H46.3638V2.99478H46.4372C46.5693 2.70851 46.77 2.47852 47.0391 2.3048C47.3083 2.12864 47.6557 2.04056 48.0814 2.04056C48.4631 2.04056 48.7971 2.11885 49.0834 2.27544C49.3696 2.42959 49.5923 2.66447 49.7513 2.9801C49.9104 3.29328 49.9899 3.68965 49.9899 4.16921V7.75122H49.1237V4.22793C49.1237 3.78507 49.0087 3.44008 48.7787 3.19296C48.5488 2.9434 48.2331 2.81862 47.8319 2.81862C47.5554 2.81862 47.3083 2.87856 47.0905 2.99845C46.8752 3.11834 46.7051 3.29328 46.5804 3.52327C46.4556 3.75327 46.3932 4.03219 46.3932 4.36005ZM3.03883 19.114V19.848H-4.99471e-06V19.114H3.03883ZM0.910178 24.7512V18.3359C0.910178 18.0129 0.986027 17.7438 1.13772 17.5285C1.28942 17.3132 1.48638 17.1517 1.72861 17.044C1.97084 16.9364 2.22652 16.8825 2.49566 16.8825C2.70852 16.8825 2.88224 16.8997 3.01681 16.9339C3.15138 16.9682 3.2517 17 3.31776 17.0293L3.06819 17.778C3.02415 17.7634 2.96298 17.745 2.88469 17.723C2.80884 17.701 2.70852 17.69 2.58374 17.69C2.29747 17.69 2.09072 17.7621 1.96349 17.9065C1.83871 18.0509 1.77632 18.2625 1.77632 18.5414V24.7512H0.910178ZM4.25272 24.7512V19.114H5.11886V24.7512H4.25272ZM4.69313 18.1744C4.5243 18.1744 4.37872 18.1169 4.25639 18.0019C4.1365 17.8869 4.07655 17.7487 4.07655 17.5872C4.07655 17.4257 4.1365 17.2875 4.25639 17.1725C4.37872 17.0575 4.5243 17 4.69313 17C4.86195 17 5.00631 17.0575 5.1262 17.1725C5.24853 17.2875 5.3097 17.4257 5.3097 17.5872C5.3097 17.7487 5.24853 17.8869 5.1262 18.0019C5.00631 18.1169 4.86195 18.1744 4.69313 18.1744ZM7.5714 21.3601V24.7512H6.70525V19.114H7.54204V19.9948H7.61544C7.74756 19.7085 7.94819 19.4785 8.21733 19.3048C8.48647 19.1286 8.83391 19.0406 9.25964 19.0406C9.64133 19.0406 9.97531 19.1189 10.2616 19.2754C10.5478 19.4296 10.7705 19.6645 10.9295 19.9801C11.0886 20.2933 11.1681 20.6897 11.1681 21.1692V24.7512H10.3019V21.2279C10.3019 20.7851 10.1869 20.4401 9.95696 20.193C9.72696 19.9434 9.41134 19.8186 9.01007 19.8186C8.73359 19.8186 8.48647 19.8786 8.26871 19.9984C8.0534 20.1183 7.88335 20.2933 7.75857 20.5233C7.63379 20.7533 7.5714 21.0322 7.5714 21.3601ZM15.0263 26.9826C14.6079 26.9826 14.2482 26.9288 13.9473 26.8212C13.6463 26.7159 13.3955 26.5765 13.1949 26.4028C12.9967 26.2315 12.8389 26.048 12.7215 25.8522L13.4114 25.3678C13.4897 25.4706 13.5888 25.588 13.7087 25.7201C13.8286 25.8547 13.9925 25.9709 14.2005 26.0688C14.4109 26.1691 14.6862 26.2193 15.0263 26.2193C15.4814 26.2193 15.8569 26.1092 16.153 25.8889C16.449 25.6687 16.5971 25.3238 16.5971 24.854V23.7089H16.5237C16.4601 23.8117 16.3695 23.9389 16.2521 24.0906C16.1371 24.2399 15.9707 24.3732 15.753 24.4906C15.5376 24.6056 15.2465 24.6631 14.8795 24.6631C14.4244 24.6631 14.0158 24.5555 13.6537 24.3402C13.294 24.1249 13.0089 23.8117 12.7985 23.4006C12.5906 22.9896 12.4866 22.4904 12.4866 21.9032C12.4866 21.3258 12.5881 20.823 12.7912 20.3948C12.9943 19.9642 13.2769 19.6314 13.639 19.3966C14.0011 19.1592 14.4195 19.0406 14.8941 19.0406C15.2612 19.0406 15.5523 19.1017 15.7676 19.2241C15.9854 19.344 16.1518 19.481 16.2668 19.6351C16.3842 19.7868 16.4747 19.9116 16.5384 20.0095H16.6264V19.114H17.4632V24.9127C17.4632 25.3972 17.3531 25.7911 17.1329 26.0945C16.9151 26.4003 16.6215 26.6242 16.2521 26.7661C15.8851 26.9105 15.4765 26.9826 15.0263 26.9826ZM14.9969 23.8851C15.3443 23.8851 15.638 23.8056 15.8777 23.6465C16.1175 23.4875 16.2998 23.2587 16.4246 22.9602C16.5494 22.6617 16.6118 22.3045 16.6118 21.8885C16.6118 21.4824 16.5506 21.1239 16.4282 20.8132C16.3059 20.5025 16.1249 20.259 15.8851 20.0829C15.6453 19.9067 15.3492 19.8186 14.9969 19.8186C14.6299 19.8186 14.3241 19.9116 14.0794 20.0975C13.8372 20.2835 13.6549 20.5331 13.5325 20.8462C13.4127 21.1594 13.3527 21.5069 13.3527 21.8885C13.3527 22.28 13.4139 22.6262 13.5362 22.9272C13.661 23.2257 13.8445 23.4606 14.0867 23.6318C14.3314 23.8007 14.6348 23.8851 14.9969 23.8851ZM21.4122 24.8687C20.8691 24.8687 20.4005 24.7488 20.0066 24.509C19.6151 24.2668 19.3129 23.9291 19.1001 23.496C18.8897 23.0605 18.7844 22.5541 18.7844 21.9766C18.7844 21.3992 18.8897 20.8903 19.1001 20.4499C19.3129 20.007 19.609 19.662 19.9882 19.4149C20.3699 19.1653 20.8152 19.0406 21.3242 19.0406C21.6178 19.0406 21.9077 19.0895 22.194 19.1874C22.4802 19.2852 22.7408 19.4443 22.9757 19.6645C23.2106 19.8822 23.3978 20.1709 23.5372 20.5306C23.6767 20.8903 23.7464 21.3331 23.7464 21.8592V22.2262H19.401V21.4775H22.8656C22.8656 21.1594 22.802 20.8756 22.6747 20.626C22.55 20.3765 22.3714 20.1795 22.1389 20.0352C21.9089 19.8908 21.6373 19.8186 21.3242 19.8186C20.9792 19.8186 20.6807 19.9043 20.4286 20.0755C20.1791 20.2443 19.987 20.4646 19.8524 20.7361C19.7179 21.0077 19.6506 21.2989 19.6506 21.6096V22.1088C19.6506 22.5345 19.724 22.8954 19.8708 23.1914C20.02 23.485 20.2268 23.7089 20.491 23.8631C20.7553 24.0148 21.0624 24.0906 21.4122 24.0906C21.6398 24.0906 21.8453 24.0588 22.0288 23.9952C22.2148 23.9291 22.375 23.8313 22.5096 23.7016C22.6442 23.5695 22.7481 23.4055 22.8216 23.2098L23.6583 23.4447C23.5702 23.7285 23.4222 23.9781 23.2143 24.1934C23.0063 24.4062 22.7494 24.5726 22.4435 24.6925C22.1377 24.8099 21.7939 24.8687 21.4122 24.8687ZM25.064 24.7512V19.114H25.9008V19.9654H25.9595C26.0622 19.6865 26.2482 19.4602 26.5173 19.2865C26.7865 19.1127 27.0899 19.0259 27.4275 19.0259C27.4911 19.0259 27.5707 19.0271 27.6661 19.0295C27.7615 19.032 27.8337 19.0357 27.8826 19.0406V19.9214C27.8532 19.914 27.786 19.903 27.6808 19.8883C27.578 19.8712 27.4691 19.8627 27.3541 19.8627C27.0801 19.8627 26.8354 19.9202 26.6201 20.0352C26.4072 20.1477 26.2384 20.3043 26.1136 20.5049C25.9913 20.7031 25.9301 20.9294 25.9301 21.1839V24.7512H25.064ZM31.816 26.8652V19.114H32.6528V20.0095H32.7556C32.8192 19.9116 32.9073 19.7868 33.0198 19.6351C33.1348 19.481 33.2988 19.344 33.5116 19.2241C33.7269 19.1017 34.0181 19.0406 34.3851 19.0406C34.8598 19.0406 35.2782 19.1592 35.6403 19.3966C36.0024 19.6339 36.285 19.9703 36.4881 20.4058C36.6911 20.8413 36.7927 21.3552 36.7927 21.9473C36.7927 22.5443 36.6911 23.0618 36.4881 23.4997C36.285 23.9352 36.0036 24.2729 35.6439 24.5127C35.2843 24.75 34.8696 24.8687 34.3998 24.8687C34.0377 24.8687 33.7477 24.8087 33.53 24.6888C33.3122 24.5665 33.1446 24.4283 33.0272 24.2741C32.9097 24.1175 32.8192 23.9878 32.7556 23.8851H32.6822V26.8652H31.816ZM32.6675 21.9326C32.6675 22.3583 32.7299 22.7339 32.8547 23.0593C32.9795 23.3823 33.1617 23.6355 33.4015 23.819C33.6413 24.0001 33.9349 24.0906 34.2823 24.0906C34.6445 24.0906 34.9466 23.9952 35.1888 23.8043C35.4335 23.611 35.617 23.3517 35.7394 23.0263C35.8641 22.6984 35.9265 22.3339 35.9265 21.9326C35.9265 21.5362 35.8654 21.179 35.743 20.8609C35.6231 20.5404 35.4409 20.2872 35.1962 20.1012C34.954 19.9128 34.6493 19.8186 34.2823 19.8186C33.93 19.8186 33.634 19.9079 33.3942 20.0865C33.1544 20.2627 32.9733 20.5098 32.851 20.8279C32.7287 21.1435 32.6675 21.5118 32.6675 21.9326ZM39.7728 24.8833C39.4156 24.8833 39.0914 24.8161 38.8002 24.6815C38.5091 24.5445 38.2778 24.3475 38.1066 24.0906C37.9353 23.8313 37.8497 23.5181 37.8497 23.1511C37.8497 22.8281 37.9133 22.5663 38.0405 22.3657C38.1677 22.1626 38.3378 22.0035 38.5507 21.8885C38.7635 21.7736 38.9984 21.6879 39.2553 21.6316C39.5147 21.5729 39.7752 21.5264 40.037 21.4922C40.3796 21.4481 40.6573 21.4151 40.8702 21.3931C41.0855 21.3686 41.2421 21.3282 41.3399 21.272C41.4402 21.2157 41.4904 21.1178 41.4904 20.9784V20.949C41.4904 20.5869 41.3913 20.3055 41.1931 20.1049C40.9974 19.9043 40.7001 19.8039 40.3013 19.8039C39.8878 19.8039 39.5636 19.8945 39.3287 20.0755C39.0938 20.2566 38.9287 20.4499 38.8332 20.6554L38.0111 20.3618C38.158 20.0192 38.3537 19.7526 38.5984 19.5617C38.8455 19.3684 39.1146 19.2338 39.4058 19.158C39.6994 19.0797 39.9881 19.0406 40.2719 19.0406C40.453 19.0406 40.661 19.0626 40.8958 19.1066C41.1332 19.1482 41.3619 19.2351 41.5821 19.3672C41.8048 19.4993 41.9895 19.6987 42.1363 19.9654C42.2831 20.2321 42.3565 20.5893 42.3565 21.0371V24.7512H41.4904V23.9878H41.4464C41.3876 24.1102 41.2898 24.2411 41.1527 24.3805C41.0157 24.52 40.8334 24.6387 40.6059 24.7365C40.3784 24.8344 40.1007 24.8833 39.7728 24.8833ZM39.9049 24.1053C40.2475 24.1053 40.5362 24.038 40.7711 23.9034C41.0084 23.7689 41.187 23.5951 41.3069 23.3823C41.4292 23.1694 41.4904 22.9455 41.4904 22.7106V21.9179C41.4537 21.9619 41.373 22.0023 41.2482 22.039C41.1258 22.0733 40.9839 22.1039 40.8224 22.1308C40.6634 22.1552 40.508 22.1773 40.3563 22.1968C40.2071 22.214 40.086 22.2286 39.993 22.2409C39.7679 22.2702 39.5575 22.3179 39.3617 22.384C39.1685 22.4476 39.0119 22.5443 38.892 22.6739C38.7745 22.8012 38.7158 22.9749 38.7158 23.1951C38.7158 23.496 38.8271 23.7236 39.0498 23.8777C39.2749 24.0294 39.5599 24.1053 39.9049 24.1053ZM47.9305 20.3765L47.1524 20.5967C47.1035 20.467 47.0313 20.341 46.9359 20.2187C46.8429 20.0939 46.7157 19.9911 46.5542 19.9104C46.3927 19.8296 46.186 19.7893 45.934 19.7893C45.589 19.7893 45.3015 19.8688 45.0715 20.0278C44.8439 20.1844 44.7302 20.3838 44.7302 20.626C44.7302 20.8413 44.8085 21.0114 44.9651 21.1362C45.1216 21.261 45.3663 21.3649 45.6991 21.4481L46.5359 21.6537C47.0399 21.776 47.4155 21.9632 47.6626 22.2152C47.9097 22.4648 48.0333 22.7865 48.0333 23.1804C48.0333 23.5034 47.9403 23.7921 47.7543 24.0466C47.5708 24.301 47.3139 24.5017 46.9836 24.6485C46.6533 24.7953 46.2692 24.8687 45.8312 24.8687C45.2562 24.8687 44.7803 24.7439 44.4035 24.4943C44.0267 24.2447 43.7882 23.8802 43.6879 23.4006L44.51 23.1951C44.5883 23.4985 44.7363 23.726 44.954 23.8777C45.1743 24.0294 45.4617 24.1053 45.8165 24.1053C46.2202 24.1053 46.5408 24.0196 46.7781 23.8484C47.0179 23.6747 47.1378 23.4667 47.1378 23.2245C47.1378 23.0287 47.0692 22.8648 46.9322 22.7327C46.7952 22.5981 46.5848 22.4978 46.301 22.4317L45.3614 22.2115C44.8452 22.0892 44.4659 21.8996 44.2237 21.6427C43.9839 21.3833 43.864 21.0591 43.864 20.6701C43.864 20.352 43.9533 20.0706 44.1319 19.826C44.313 19.5813 44.5589 19.3892 44.8696 19.2498C45.1828 19.1103 45.5376 19.0406 45.934 19.0406C46.4918 19.0406 46.9298 19.1629 47.2479 19.4076C47.5684 19.6522 47.7959 19.9752 47.9305 20.3765ZM53.3301 20.3765L52.5521 20.5967C52.5031 20.467 52.4309 20.341 52.3355 20.2187C52.2425 20.0939 52.1153 19.9911 51.9538 19.9104C51.7923 19.8296 51.5856 19.7893 51.3336 19.7893C50.9886 19.7893 50.7011 19.8688 50.4711 20.0278C50.2436 20.1844 50.1298 20.3838 50.1298 20.626C50.1298 20.8413 50.2081 21.0114 50.3647 21.1362C50.5213 21.261 50.7659 21.3649 51.0987 21.4481L51.9355 21.6537C52.4395 21.776 52.8151 21.9632 53.0622 22.2152C53.3093 22.4648 53.4329 22.7865 53.4329 23.1804C53.4329 23.5034 53.3399 23.7921 53.154 24.0466C52.9704 24.301 52.7135 24.5017 52.3832 24.6485C52.0529 24.7953 51.6688 24.8687 51.2308 24.8687C50.6558 24.8687 50.18 24.7439 49.8032 24.4943C49.4264 24.2447 49.1878 23.8802 49.0875 23.4006L49.9096 23.1951C49.9879 23.4985 50.1359 23.726 50.3537 23.8777C50.5739 24.0294 50.8614 24.1053 51.2161 24.1053C51.6199 24.1053 51.9404 24.0196 52.1777 23.8484C52.4175 23.6747 52.5374 23.4667 52.5374 23.2245C52.5374 23.0287 52.4689 22.8648 52.3319 22.7327C52.1948 22.5981 51.9844 22.4978 51.7006 22.4317L50.7611 22.2115C50.2448 22.0892 49.8655 21.8996 49.6233 21.6427C49.3835 21.3833 49.2637 21.0591 49.2637 20.6701C49.2637 20.352 49.353 20.0706 49.5316 19.826C49.7126 19.5813 49.9585 19.3892 50.2693 19.2498C50.5824 19.1103 50.9372 19.0406 51.3336 19.0406C51.8914 19.0406 52.3294 19.1629 52.6475 19.4076C52.968 19.6522 53.1955 19.9752 53.3301 20.3765ZM56.0139 24.7512L54.2963 19.114H55.2065L56.4249 23.43H56.4836L57.6874 19.114H58.6123L59.8014 23.4153H59.8601L61.0786 19.114H61.9888L60.2712 24.7512H59.4197L58.1866 20.4205H58.0985L56.8653 24.7512H56.0139ZM65.2322 24.8687C64.7233 24.8687 64.2768 24.7476 63.8926 24.5053C63.511 24.2631 63.2125 23.9242 62.9971 23.4887C62.7843 23.0532 62.6778 22.5443 62.6778 21.9619C62.6778 21.3747 62.7843 20.8621 62.9971 20.4242C63.2125 19.9862 63.511 19.6461 63.8926 19.4039C64.2768 19.1617 64.7233 19.0406 65.2322 19.0406C65.7411 19.0406 66.1865 19.1617 66.5681 19.4039C66.9523 19.6461 67.2508 19.9862 67.4636 20.4242C67.679 20.8621 67.7866 21.3747 67.7866 21.9619C67.7866 22.5443 67.679 23.0532 67.4636 23.4887C67.2508 23.9242 66.9523 24.2631 66.5681 24.5053C66.1865 24.7476 65.7411 24.8687 65.2322 24.8687ZM65.2322 24.0906C65.6188 24.0906 65.9369 23.9915 66.1865 23.7933C66.436 23.5951 66.6207 23.3346 66.7406 23.0116C66.8605 22.6886 66.9205 22.3387 66.9205 21.9619C66.9205 21.5852 66.8605 21.234 66.7406 20.9086C66.6207 20.5832 66.436 20.3202 66.1865 20.1196C65.9369 19.9189 65.6188 19.8186 65.2322 19.8186C64.8456 19.8186 64.5276 19.9189 64.278 20.1196C64.0284 20.3202 63.8437 20.5832 63.7238 20.9086C63.6039 21.234 63.544 21.5852 63.544 21.9619C63.544 22.3387 63.6039 22.6886 63.7238 23.0116C63.8437 23.3346 64.0284 23.5951 64.278 23.7933C64.5276 23.9915 64.8456 24.0906 65.2322 24.0906ZM69.1088 24.7512V19.114H69.9455V19.9654H70.0043C70.107 19.6865 70.293 19.4602 70.5621 19.2865C70.8313 19.1127 71.1347 19.0259 71.4723 19.0259C71.5359 19.0259 71.6154 19.0271 71.7109 19.0295C71.8063 19.032 71.8785 19.0357 71.9274 19.0406V19.9214C71.898 19.914 71.8308 19.903 71.7255 19.8883C71.6228 19.8712 71.5139 19.8627 71.3989 19.8627C71.1249 19.8627 70.8802 19.9202 70.6649 20.0352C70.452 20.1477 70.2832 20.3043 70.1584 20.5049C70.0361 20.7031 69.9749 20.9294 69.9749 21.1839V24.7512H69.1088ZM74.9112 24.8687C74.4414 24.8687 74.0267 24.75 73.667 24.5127C73.3073 24.2729 73.026 23.9352 72.8229 23.4997C72.6198 23.0618 72.5183 22.5443 72.5183 21.9473C72.5183 21.3552 72.6198 20.8413 72.8229 20.4058C73.026 19.9703 73.3086 19.6339 73.6707 19.3966C74.0328 19.1592 74.4512 19.0406 74.9259 19.0406C75.2929 19.0406 75.5828 19.1017 75.7957 19.2241C76.011 19.344 76.1749 19.481 76.2875 19.6351C76.4025 19.7868 76.4918 19.9116 76.5554 20.0095H76.6288V17.2349H77.4949V24.7512H76.6581V23.8851H76.5554C76.4918 23.9878 76.4012 24.1175 76.2838 24.2741C76.1664 24.4283 75.9987 24.5665 75.781 24.6888C75.5632 24.8087 75.2733 24.8687 74.9112 24.8687ZM75.0286 24.0906C75.3761 24.0906 75.6697 24.0001 75.9094 23.819C76.1492 23.6355 76.3315 23.3823 76.4563 23.0593C76.5811 22.7339 76.6435 22.3583 76.6435 21.9326C76.6435 21.5118 76.5823 21.1435 76.46 20.8279C76.3376 20.5098 76.1566 20.2627 75.9168 20.0865C75.677 19.9079 75.381 19.8186 75.0286 19.8186C74.6616 19.8186 74.3558 19.9128 74.1111 20.1012C73.8689 20.2872 73.6866 20.5404 73.5643 20.8609C73.4444 21.179 73.3844 21.5362 73.3844 21.9326C73.3844 22.3339 73.4456 22.6984 73.5679 23.0263C73.6927 23.3517 73.8762 23.611 74.1184 23.8043C74.3631 23.9952 74.6665 24.0906 75.0286 24.0906Z" fill="#737373"/>
</svg>
