<svg width="38" height="27" viewBox="0 0 38 27" fill="none" xmlns="http://www.w3.org/2000/svg">
<path d="M7.52144 2.23139V2.96541H4.4826V2.23139H7.52144ZM5.39279 7.86865V1.45333C5.39279 1.13036 5.46864 0.861221 5.62033 0.645909C5.77203 0.430597 5.96899 0.269113 6.21122 0.161457C6.45344 0.0538005 6.70913 -2.75754e-05 6.97827 -2.75754e-05C7.19113 -2.75754e-05 7.36485 0.0170996 7.49942 0.0513541C7.63399 0.0856081 7.73431 0.117415 7.80037 0.146776L7.5508 0.895475C7.50676 0.880795 7.44559 0.862445 7.3673 0.840424C7.29145 0.818403 7.19113 0.807393 7.06635 0.807393C6.78008 0.807393 6.57333 0.879572 6.4461 1.02393C6.32132 1.16829 6.25893 1.37993 6.25893 1.65885V7.86865H5.39279ZM10.7933 7.9861C10.2844 7.9861 9.83788 7.86498 9.45375 7.62276C9.07206 7.38053 8.77355 7.04166 8.55824 6.60614C8.34538 6.17062 8.23894 5.6617 8.23894 5.07938C8.23894 4.49217 8.34538 3.97958 8.55824 3.54161C8.77355 3.10365 9.07206 2.76355 9.45375 2.52133C9.83788 2.2791 10.2844 2.15799 10.7933 2.15799C11.3022 2.15799 11.7476 2.2791 12.1292 2.52133C12.5134 2.76355 12.8119 3.10365 13.0247 3.54161C13.2401 3.97958 13.3477 4.49217 13.3477 5.07938C13.3477 5.6617 13.2401 6.17062 13.0247 6.60614C12.8119 7.04166 12.5134 7.38053 12.1292 7.62276C11.7476 7.86498 11.3022 7.9861 10.7933 7.9861ZM10.7933 7.20804C11.1799 7.20804 11.498 7.10894 11.7476 6.91076C11.9971 6.71257 12.1818 6.452 12.3017 6.12903C12.4216 5.80606 12.4816 5.45618 12.4816 5.07938C12.4816 4.70259 12.4216 4.35148 12.3017 4.02606C12.1818 3.70065 11.9971 3.43763 11.7476 3.23699C11.498 3.03636 11.1799 2.93605 10.7933 2.93605C10.4067 2.93605 10.0887 3.03636 9.83911 3.23699C9.58954 3.43763 9.40481 3.70065 9.28492 4.02606C9.16503 4.35148 9.10509 4.70259 9.10509 5.07938C9.10509 5.45618 9.16503 5.80606 9.28492 6.12903C9.40481 6.452 9.58954 6.71257 9.83911 6.91076C10.0887 7.10894 10.4067 7.20804 10.7933 7.20804ZM15.536 0.352302V7.86865H14.6699V0.352302H15.536ZM19.2511 7.9861C18.7813 7.9861 18.3666 7.86743 18.0069 7.6301C17.6472 7.39032 17.3659 7.05267 17.1628 6.61715C16.9597 6.17919 16.8582 5.6617 16.8582 5.0647C16.8582 4.47259 16.9597 3.95878 17.1628 3.52326C17.3659 3.08774 17.6485 2.75132 18.0106 2.51399C18.3727 2.27665 18.7911 2.15799 19.2657 2.15799C19.6327 2.15799 19.9227 2.21916 20.1356 2.34149C20.3509 2.46138 20.5148 2.5984 20.6273 2.75254C20.7423 2.90424 20.8316 3.02902 20.8953 3.12689H20.9687V0.352302H21.8348V7.86865H20.998V7.00251H20.8953C20.8316 7.10527 20.7411 7.23495 20.6237 7.39154C20.5062 7.54568 20.3386 7.68392 20.1209 7.80626C19.9031 7.92615 19.6132 7.9861 19.2511 7.9861ZM19.3685 7.20804C19.7159 7.20804 20.0095 7.11751 20.2493 6.93645C20.4891 6.75294 20.6714 6.49971 20.7962 6.17674C20.921 5.85132 20.9833 5.47575 20.9833 5.05002C20.9833 4.62918 20.9222 4.26095 20.7998 3.94532C20.6775 3.62725 20.4964 3.38013 20.2567 3.20396C20.0169 3.02535 19.7208 2.93605 19.3685 2.93605C19.0015 2.93605 18.6957 3.03025 18.451 3.21864C18.2088 3.4046 18.0265 3.65783 17.9041 3.97835C17.7842 4.29643 17.7243 4.65365 17.7243 5.05002C17.7243 5.45128 17.7855 5.81585 17.9078 6.14371C18.0326 6.46912 18.2161 6.72848 18.4583 6.92177C18.703 7.11261 19.0064 7.20804 19.3685 7.20804ZM25.9049 7.9861C25.3618 7.9861 24.8932 7.86621 24.4993 7.62643C24.1078 7.3842 23.8056 7.04655 23.5928 6.61348C23.3824 6.17796 23.2772 5.67149 23.2772 5.09406C23.2772 4.51663 23.3824 4.00771 23.5928 3.5673C23.8056 3.12445 24.1017 2.77946 24.4809 2.53234C24.8626 2.28277 25.3079 2.15799 25.8169 2.15799C26.1105 2.15799 26.4004 2.20692 26.6867 2.30479C26.9729 2.40266 27.2335 2.5617 27.4684 2.7819C27.7033 2.99966 27.8905 3.28838 28.0299 3.64805C28.1694 4.00771 28.2391 4.45057 28.2391 4.97662V5.34363H23.8937V4.59493H27.3583C27.3583 4.27685 27.2947 3.99303 27.1674 3.74347C27.0427 3.4939 26.8641 3.29694 26.6316 3.15258C26.4016 3.00823 26.13 2.93605 25.8169 2.93605C25.4719 2.93605 25.1734 3.02168 24.9214 3.19295C24.6718 3.36178 24.4797 3.58198 24.3451 3.85357C24.2106 4.12516 24.1433 4.41632 24.1433 4.72705V5.22619C24.1433 5.65192 24.2167 6.01281 24.3635 6.30886C24.5127 6.60247 24.7195 6.82635 24.9837 6.98049C25.248 7.13219 25.5551 7.20804 25.9049 7.20804C26.1325 7.20804 26.338 7.17623 26.5215 7.11261C26.7075 7.04655 26.8677 6.94868 27.0023 6.81901C27.1369 6.68688 27.2409 6.52295 27.3143 6.32721L28.151 6.5621C28.063 6.84592 27.9149 7.09549 27.707 7.3108C27.499 7.52366 27.2421 7.69004 26.9362 7.80993C26.6304 7.92737 26.2866 7.9861 25.9049 7.9861ZM29.5567 7.86865V2.23139H30.3935V3.08285H30.4522C30.5549 2.80392 30.7409 2.5776 31.01 2.40388C31.2792 2.23017 31.5826 2.14331 31.9202 2.14331C31.9838 2.14331 32.0634 2.14453 32.1588 2.14698C32.2542 2.14942 32.3264 2.15309 32.3753 2.15799V3.03881C32.3459 3.03147 32.2787 3.02046 32.1735 3.00578C32.0707 2.98865 31.9618 2.98009 31.8468 2.98009C31.5728 2.98009 31.3281 3.03759 31.1128 3.15258C30.8999 3.26513 30.7311 3.42172 30.6063 3.62235C30.484 3.82054 30.4228 4.04686 30.4228 4.30132V7.86865H29.5567ZM4.41052e-05 24.8687V19.2314H0.836825V20.1122H0.910227C1.02767 19.8113 1.21729 19.5776 1.47909 19.4112C1.74089 19.2424 2.0553 19.158 2.42231 19.158C2.79421 19.158 3.10372 19.2424 3.35084 19.4112C3.60041 19.5776 3.79492 19.8113 3.93438 20.1122H3.99311C4.13746 19.8211 4.354 19.5898 4.64271 19.4186C4.93143 19.2448 5.27764 19.158 5.68135 19.158C6.18537 19.158 6.59765 19.3158 6.91817 19.6314C7.23869 19.9446 7.39895 20.4327 7.39895 21.0958V24.8687H6.53281V21.0958C6.53281 20.6799 6.41904 20.3826 6.19149 20.204C5.96395 20.0254 5.69603 19.936 5.38774 19.936C4.99137 19.936 4.68431 20.0559 4.46655 20.2957C4.24879 20.533 4.13991 20.834 4.13991 21.1986V24.8687H3.25909V21.0077C3.25909 20.6872 3.1551 20.4291 2.94713 20.2333C2.73916 20.0351 2.47124 19.936 2.14338 19.936C1.91828 19.936 1.70786 19.996 1.51212 20.1159C1.31883 20.2358 1.16224 20.4021 1.04235 20.615C0.924908 20.8254 0.866186 21.0689 0.866186 21.3454V24.8687H4.41052e-05ZM12.5352 22.5638V19.2314H13.4014V24.8687H12.5352V23.9144H12.4765C12.3444 24.2007 12.1389 24.4441 11.8599 24.6448C11.581 24.843 11.2287 24.9421 10.803 24.9421C10.4506 24.9421 10.1375 24.865 9.86342 24.7108C9.58939 24.5542 9.37407 24.3194 9.21748 24.0062C9.06089 23.6906 8.9826 23.293 8.9826 22.8134V19.2314H9.84874V22.7547C9.84874 23.1657 9.96373 23.4936 10.1937 23.7383C10.4262 23.9829 10.7222 24.1053 11.0819 24.1053C11.2972 24.1053 11.5162 24.0502 11.7388 23.9401C11.9639 23.83 12.1523 23.6612 12.304 23.4336C12.4582 23.2061 12.5352 22.9162 12.5352 22.5638ZM15.8539 17.3523V24.8687H14.9878V17.3523H15.8539ZM19.8919 19.2314V19.9654H16.9706V19.2314H19.8919ZM17.822 17.8808H18.6882V23.2538C18.6882 23.4985 18.7236 23.682 18.7946 23.8043C18.868 23.9242 18.961 24.005 19.0735 24.0466C19.1885 24.0857 19.3096 24.1053 19.4369 24.1053C19.5323 24.1053 19.6106 24.1004 19.6717 24.0906C19.7329 24.0784 19.7818 24.0686 19.8185 24.0612L19.9947 24.8393C19.936 24.8613 19.854 24.8833 19.7488 24.9054C19.6436 24.9298 19.5103 24.9421 19.3488 24.9421C19.1041 24.9421 18.8643 24.8894 18.6294 24.7842C18.397 24.679 18.2037 24.5188 18.0496 24.3035C17.8979 24.0881 17.822 23.8166 17.822 23.4887V17.8808ZM21.1948 24.8687V19.2314H22.061V24.8687H21.1948ZM21.6352 18.2918C21.4664 18.2918 21.3208 18.2343 21.1985 18.1194C21.0786 18.0044 21.0187 17.8661 21.0187 17.7046C21.0187 17.5431 21.0786 17.4049 21.1985 17.2899C21.3208 17.1749 21.4664 17.1174 21.6352 17.1174C21.8041 17.1174 21.9484 17.1749 22.0683 17.2899C22.1907 17.4049 22.2518 17.5431 22.2518 17.7046C22.2518 17.8661 22.1907 18.0044 22.0683 18.1194C21.9484 18.2343 21.8041 18.2918 21.6352 18.2918ZM23.6474 26.9826V19.2314H24.4842V20.1269H24.5869C24.6505 20.029 24.7386 19.9042 24.8512 19.7525C24.9662 19.5984 25.1301 19.4614 25.343 19.3415C25.5583 19.2192 25.8494 19.158 26.2164 19.158C26.6911 19.158 27.1095 19.2767 27.4716 19.514C27.8337 19.7513 28.1163 20.0877 28.3194 20.5233C28.5225 20.9588 28.624 21.4726 28.624 22.0647C28.624 22.6617 28.5225 23.1792 28.3194 23.6172C28.1163 24.0527 27.8349 24.3903 27.4753 24.6301C27.1156 24.8674 26.7009 24.9861 26.2311 24.9861C25.869 24.9861 25.5791 24.9262 25.3613 24.8063C25.1435 24.6839 24.9759 24.5457 24.8585 24.3915C24.7411 24.2349 24.6505 24.1053 24.5869 24.0025H24.5135V26.9826H23.6474ZM24.4988 22.05C24.4988 22.4758 24.5612 22.8513 24.686 23.1767C24.8108 23.4997 24.9931 23.7529 25.2329 23.9364C25.4726 24.1175 25.7662 24.208 26.1137 24.208C26.4758 24.208 26.778 24.1126 27.0202 23.9218C27.2649 23.7285 27.4484 23.4691 27.5707 23.1437C27.6955 22.8158 27.7579 22.4513 27.7579 22.05C27.7579 21.6537 27.6967 21.2964 27.5744 20.9784C27.4545 20.6578 27.2722 20.4046 27.0275 20.2186C26.7853 20.0302 26.4807 19.936 26.1137 19.936C25.7613 19.936 25.4653 20.0254 25.2255 20.204C24.9857 20.3801 24.8047 20.6272 24.6823 20.9453C24.56 21.261 24.4988 21.6292 24.4988 22.05ZM30.8114 17.3523V24.8687H29.9452V17.3523H30.8114ZM34.7613 24.9861C34.2182 24.9861 33.7496 24.8662 33.3557 24.6264C32.9642 24.3842 32.662 24.0466 32.4492 23.6135C32.2388 23.178 32.1335 22.6715 32.1335 22.0941C32.1335 21.5166 32.2388 21.0077 32.4492 20.5673C32.662 20.1244 32.9581 19.7795 33.3373 19.5323C33.719 19.2828 34.1643 19.158 34.6732 19.158C34.9669 19.158 35.2568 19.2069 35.5431 19.3048C35.8293 19.4027 36.0899 19.5617 36.3248 19.7819C36.5597 19.9997 36.7468 20.2884 36.8863 20.648C37.0258 21.0077 37.0955 21.4506 37.0955 21.9766V22.3436H32.7501V21.5949H36.2147C36.2147 21.2769 36.1511 20.993 36.0238 20.7435C35.8991 20.4939 35.7204 20.2969 35.488 20.1526C35.258 20.0082 34.9864 19.936 34.6732 19.936C34.3283 19.936 34.0298 20.0217 33.7777 20.193C33.5282 20.3618 33.3361 20.582 33.2015 20.8536C33.067 21.1252 32.9997 21.4163 32.9997 21.7271V22.2262C32.9997 22.6519 33.0731 23.0128 33.2199 23.3089C33.3691 23.6025 33.5759 23.8263 33.8401 23.9805C34.1044 24.1322 34.4114 24.208 34.7613 24.208C34.9889 24.208 35.1944 24.1762 35.3779 24.1126C35.5639 24.0466 35.7241 23.9487 35.8587 23.819C35.9933 23.6869 36.0972 23.523 36.1706 23.3272L37.0074 23.5621C36.9193 23.8459 36.7713 24.0955 36.5633 24.3108C36.3554 24.5237 36.0985 24.69 35.7926 24.8099C35.4868 24.9274 35.143 24.9861 34.7613 24.9861Z" fill="#737373"/>
</svg>
