<svg width="16" height="11" viewBox="0 0 16 11" fill="none" xmlns="http://www.w3.org/2000/svg">
<path d="M2.53968 10.1001C2.12129 10.1001 1.76162 10.0462 1.46067 9.93858C1.15973 9.83338 0.908937 9.69391 0.708306 9.52019C0.510121 9.34892 0.352307 9.16542 0.234864 8.96968L0.924841 8.48523C1.00314 8.58799 1.10223 8.70543 1.22212 8.83756C1.34201 8.97213 1.50594 9.08835 1.71391 9.18622C1.92433 9.28653 2.19959 9.33669 2.53968 9.33669C2.99477 9.33669 3.37035 9.22659 3.6664 9.00638C3.96245 8.78618 4.11048 8.44119 4.11048 7.97141V6.82635H4.03708C3.97347 6.92911 3.88294 7.05634 3.76549 7.20804C3.6505 7.35729 3.48412 7.49063 3.26636 7.60808C3.05105 7.72307 2.75989 7.78057 2.39288 7.78057C1.93779 7.78057 1.52918 7.67291 1.16707 7.4576C0.807398 7.24229 0.522354 6.92911 0.311935 6.51806C0.103964 6.10701 -2.23872e-05 5.60787 -2.23872e-05 5.02066C-2.23872e-05 4.44323 0.101517 3.94043 0.304595 3.51225C0.507674 3.08163 0.790271 2.74887 1.15239 2.51399C1.5145 2.27665 1.93289 2.15799 2.40756 2.15799C2.77457 2.15799 3.06573 2.21916 3.28104 2.34149C3.4988 2.46138 3.66518 2.5984 3.78017 2.75254C3.89762 2.90424 3.98815 3.02902 4.05176 3.12689H4.13984V2.23139H4.97662V8.03014C4.97662 8.51459 4.86652 8.90851 4.64632 9.21191C4.42856 9.51775 4.13495 9.74162 3.76549 9.88353C3.39848 10.0279 2.98988 10.1001 2.53968 10.1001ZM2.51032 7.00251C2.85776 7.00251 3.15136 6.92299 3.39114 6.76395C3.63092 6.60492 3.8132 6.37615 3.93799 6.07765C4.06277 5.77915 4.12516 5.42192 4.12516 5.00598C4.12516 4.59982 4.06399 4.24138 3.94166 3.93064C3.81932 3.61991 3.63826 3.37646 3.39848 3.20029C3.1587 3.02413 2.86265 2.93605 2.51032 2.93605C2.14331 2.93605 1.83747 3.02902 1.5928 3.21497C1.35057 3.40093 1.16829 3.65049 1.04595 3.96367C0.926064 4.27685 0.86612 4.62429 0.86612 5.00598C0.86612 5.39746 0.927288 5.74367 1.04962 6.04462C1.17441 6.34312 1.35791 6.578 1.60014 6.74927C1.84481 6.9181 2.14821 7.00251 2.51032 7.00251ZM6.5621 7.86865V2.23139H7.42825V7.86865H6.5621ZM7.00252 1.29185C6.83369 1.29185 6.68811 1.23435 6.56577 1.11935C6.44588 1.00436 6.38594 0.866115 6.38594 0.704631C6.38594 0.543147 6.44588 0.404906 6.56577 0.28991C6.68811 0.174914 6.83369 0.117416 7.00252 0.117416C7.17134 0.117416 7.3157 0.174914 7.43559 0.28991C7.55792 0.404906 7.61909 0.543147 7.61909 0.704631C7.61909 0.866115 7.55792 1.00436 7.43559 1.11935C7.3157 1.23435 7.17134 1.29185 7.00252 1.29185ZM11.525 2.23139V2.96541H8.48615V2.23139H11.525ZM9.39633 7.86865V1.45333C9.39633 1.13036 9.47218 0.861221 9.62388 0.645909C9.77558 0.430597 9.97254 0.269113 10.2148 0.161457C10.457 0.0538005 10.7127 -2.75754e-05 10.9818 -2.75754e-05C11.1947 -2.75754e-05 11.3684 0.0170996 11.503 0.0513541C11.6375 0.0856081 11.7379 0.117415 11.8039 0.146776L11.5543 0.895475C11.5103 0.880795 11.4491 0.862445 11.3708 0.840424C11.295 0.818403 11.1947 0.807393 11.0699 0.807393C10.7836 0.807393 10.5769 0.879572 10.4497 1.02393C10.3249 1.16829 10.2625 1.37993 10.2625 1.65885V7.86865H9.39633ZM15.1905 2.23139V2.96541H12.2691V2.23139H15.1905ZM13.1206 0.880795H13.9867V6.25381C13.9867 6.49848 14.0222 6.68199 14.0931 6.80433C14.1665 6.92422 14.2595 7.00496 14.3721 7.04655C14.4871 7.0857 14.6082 7.10527 14.7354 7.10527C14.8308 7.10527 14.9091 7.10038 14.9703 7.09059C15.0315 7.07836 15.0804 7.06857 15.1171 7.06123L15.2933 7.83929C15.2345 7.86131 15.1526 7.88333 15.0474 7.90535C14.9422 7.92982 14.8088 7.94205 14.6473 7.94205C14.4026 7.94205 14.1629 7.88945 13.928 7.78424C13.6955 7.67903 13.5023 7.51877 13.3481 7.30346C13.1964 7.08815 13.1206 6.81656 13.1206 6.4887V0.880795Z" fill="#737373"/>
</svg>
