<svg width="47" height="25" viewBox="0 0 47 25" fill="none" xmlns="http://www.w3.org/2000/svg">
<path d="M2.42413 5.46111L2.40945 4.38944H2.58561L5.05192 1.87909H6.12358L3.4958 4.53624H3.42239L2.42413 5.46111ZM1.61671 7.51636V6.71181e-06H2.48285V7.51636H1.61671ZM5.19872 7.51636L2.99666 4.72709L3.61324 4.12519L6.29975 7.51636H5.19872ZM9.36978 7.6338C8.82661 7.6338 8.35806 7.51391 7.96413 7.27413C7.57266 7.03191 7.27049 6.69426 7.05762 6.26119C6.8472 5.82567 6.74199 5.3192 6.74199 4.74177C6.74199 4.16434 6.8472 3.65542 7.05762 3.21501C7.27049 2.77215 7.56654 2.42716 7.94578 2.18004C8.32747 1.93048 8.77278 1.80569 9.2817 1.80569C9.57531 1.80569 9.86524 1.85463 10.1515 1.9525C10.4378 2.05037 10.6984 2.2094 10.9332 2.42961C11.1681 2.64737 11.3553 2.93608 11.4948 3.29575C11.6342 3.65542 11.704 4.09828 11.704 4.62432V4.99133H7.35857V4.24263H10.8231C10.8231 3.92456 10.7595 3.64074 10.6323 3.39117C10.5075 3.14161 10.3289 2.94464 10.0965 2.80029C9.86647 2.65593 9.59488 2.58375 9.2817 2.58375C8.93671 2.58375 8.63821 2.66939 8.3862 2.84066C8.13663 3.00948 7.94456 3.22969 7.80999 3.50128C7.67542 3.77286 7.60814 4.06402 7.60814 4.37476V4.87389C7.60814 5.29962 7.68154 5.66051 7.82834 5.95657C7.97759 6.25018 8.18434 6.47405 8.44859 6.62819C8.71283 6.77989 9.0199 6.85574 9.36978 6.85574C9.59733 6.85574 9.80285 6.82393 9.98636 6.76032C10.1723 6.69426 10.3326 6.59639 10.4671 6.46671C10.6017 6.33459 10.7057 6.17066 10.7791 5.97492L11.6159 6.2098C11.5278 6.49362 11.3798 6.74319 11.1718 6.9585C10.9638 7.17137 10.7069 7.33775 10.4011 7.45764C10.0952 7.57508 9.75147 7.6338 9.36978 7.6338ZM13.4078 9.63033C13.261 9.63033 13.1301 9.6181 13.0151 9.59363C12.9001 9.57161 12.8206 9.54959 12.7765 9.52757L12.9967 8.76419C13.2072 8.81802 13.3931 8.83759 13.5546 8.82291C13.7161 8.80823 13.8592 8.73605 13.984 8.60638C14.1112 8.47915 14.2275 8.2724 14.3327 7.98613L14.4941 7.54572L12.4095 1.87909H13.3491L14.9052 6.37129H14.9639L16.52 1.87909H17.4596L15.0667 8.33846C14.959 8.62962 14.8257 8.87062 14.6666 9.06147C14.5076 9.25476 14.3229 9.39789 14.1125 9.49087C13.9045 9.58384 13.6696 9.63033 13.4078 9.63033ZM18.7203 7.51636V6.71181e-06H19.5864V2.7746H19.6598C19.7234 2.67673 19.8115 2.55194 19.924 2.40025C20.039 2.2461 20.203 2.10909 20.4158 1.9892C20.6312 1.86686 20.9223 1.80569 21.2893 1.80569C21.764 1.80569 22.1824 1.92436 22.5445 2.16169C22.9066 2.39902 23.1892 2.73545 23.3923 3.17097C23.5954 3.60648 23.6969 4.1203 23.6969 4.71241C23.6969 5.30941 23.5954 5.82689 23.3923 6.26486C23.1892 6.70037 22.9078 7.03802 22.5482 7.2778C22.1885 7.51513 21.7738 7.6338 21.304 7.6338C20.9419 7.6338 20.652 7.57386 20.4342 7.45397C20.2164 7.33163 20.0488 7.19339 19.9314 7.03925C19.8139 6.88265 19.7234 6.75298 19.6598 6.65022H19.557V7.51636H18.7203ZM19.5717 4.69773C19.5717 5.12346 19.6341 5.49903 19.7589 5.82444C19.8837 6.14741 20.066 6.40065 20.3057 6.58415C20.5455 6.76521 20.8391 6.85574 21.1866 6.85574C21.5487 6.85574 21.8508 6.76032 22.0931 6.56947C22.3377 6.37618 22.5213 6.11683 22.6436 5.79141C22.7684 5.46355 22.8308 5.09899 22.8308 4.69773C22.8308 4.30136 22.7696 3.94413 22.6473 3.62606C22.5274 3.30554 22.3451 3.0523 22.1004 2.86635C21.8582 2.67795 21.5536 2.58375 21.1866 2.58375C20.8342 2.58375 20.5382 2.67306 20.2984 2.85167C20.0586 3.02783 19.8776 3.27495 19.7552 3.59303C19.6329 3.90866 19.5717 4.27689 19.5717 4.69773ZM27.3119 7.6338C26.803 7.6338 26.3565 7.51269 25.9724 7.27046C25.5907 7.02824 25.2922 6.68936 25.0769 6.25385C24.864 5.81833 24.7576 5.30941 24.7576 4.72709C24.7576 4.13987 24.864 3.62728 25.0769 3.18932C25.2922 2.75135 25.5907 2.41126 25.9724 2.16903C26.3565 1.92681 26.803 1.80569 27.3119 1.80569C27.8209 1.80569 28.2662 1.92681 28.6479 2.16903C29.032 2.41126 29.3305 2.75135 29.5434 3.18932C29.7587 3.62728 29.8663 4.13987 29.8663 4.72709C29.8663 5.30941 29.7587 5.81833 29.5434 6.25385C29.3305 6.68936 29.032 7.02824 28.6479 7.27046C28.2662 7.51269 27.8209 7.6338 27.3119 7.6338ZM27.3119 6.85574C27.6985 6.85574 28.0166 6.75665 28.2662 6.55846C28.5157 6.36028 28.7005 6.0997 28.8204 5.77673C28.9402 5.45377 29.0002 5.10388 29.0002 4.72709C29.0002 4.35029 28.9402 3.99918 28.8204 3.67377C28.7005 3.34836 28.5157 3.08533 28.2662 2.8847C28.0166 2.68407 27.6985 2.58375 27.3119 2.58375C26.9254 2.58375 26.6073 2.68407 26.3577 2.8847C26.1082 3.08533 25.9234 3.34836 25.8035 3.67377C25.6836 3.99918 25.6237 4.35029 25.6237 4.72709C25.6237 5.10388 25.6836 5.45377 25.8035 5.77673C25.9234 6.0997 26.1082 6.36028 26.3577 6.55846C26.6073 6.75665 26.9254 6.85574 27.3119 6.85574ZM32.8474 7.64848C32.4901 7.64848 32.166 7.5812 31.8748 7.44663C31.5836 7.30961 31.3524 7.11265 31.1811 6.85574C31.0099 6.59639 30.9242 6.28321 30.9242 5.9162C30.9242 5.59323 30.9879 5.33143 31.1151 5.1308C31.2423 4.92772 31.4124 4.76868 31.6252 4.65368C31.8381 4.53869 32.073 4.45305 32.3299 4.39678C32.5892 4.33806 32.8498 4.29157 33.1116 4.25731C33.4542 4.21327 33.7319 4.18024 33.9447 4.15822C34.16 4.13375 34.3166 4.09338 34.4145 4.03711C34.5148 3.98083 34.565 3.88297 34.565 3.7435V3.71414C34.565 3.35203 34.4659 3.07065 34.2677 2.87002C34.072 2.66939 33.7747 2.56907 33.3759 2.56907C32.9624 2.56907 32.6382 2.6596 32.4033 2.84066C32.1684 3.02172 32.0032 3.21501 31.9078 3.42053L31.0857 3.12693C31.2325 2.78438 31.4283 2.51769 31.6729 2.32685C31.9201 2.13355 32.1892 1.99898 32.4804 1.92314C32.774 1.84484 33.0627 1.80569 33.3465 1.80569C33.5276 1.80569 33.7355 1.82771 33.9704 1.87175C34.2077 1.91335 34.4365 2.00021 34.6567 2.13233C34.8794 2.26445 35.0641 2.46386 35.2109 2.73056C35.3577 2.99725 35.4311 3.35447 35.4311 3.80222V7.51636H34.565V6.75298H34.5209C34.4622 6.87531 34.3643 7.00621 34.2273 7.14568C34.0903 7.28514 33.908 7.40381 33.6805 7.50168C33.4529 7.59955 33.1752 7.64848 32.8474 7.64848ZM32.9795 6.87042C33.322 6.87042 33.6107 6.80314 33.8456 6.66857C34.083 6.534 34.2616 6.36028 34.3815 6.14741C34.5038 5.93455 34.565 5.71067 34.565 5.47579V4.68305C34.5283 4.72709 34.4475 4.76746 34.3227 4.80416C34.2004 4.83841 34.0585 4.869 33.897 4.89591C33.738 4.92038 33.5826 4.9424 33.4309 4.96197C33.2817 4.9791 33.1605 4.99378 33.0676 5.00601C32.8425 5.03537 32.6321 5.08309 32.4363 5.14915C32.243 5.21276 32.0864 5.30941 31.9665 5.43908C31.8491 5.56631 31.7904 5.74003 31.7904 5.96024C31.7904 6.26119 31.9017 6.48873 32.1244 6.64288C32.3495 6.79457 32.6345 6.87042 32.9795 6.87042ZM37.012 7.51636V1.87909H37.8488V2.73056H37.9075C38.0103 2.45163 38.1962 2.22531 38.4654 2.05159C38.7345 1.87787 39.0379 1.79101 39.3755 1.79101C39.4392 1.79101 39.5187 1.79224 39.6141 1.79468C39.7095 1.79713 39.7817 1.8008 39.8306 1.80569V2.68651C39.8013 2.67917 39.734 2.66816 39.6288 2.65348C39.526 2.63636 39.4171 2.62779 39.3021 2.62779C39.0281 2.62779 38.7834 2.68529 38.5681 2.80029C38.3553 2.91284 38.1864 3.06943 38.0616 3.27006C37.9393 3.46824 37.8781 3.69457 37.8781 3.94903V7.51636H37.012ZM42.8144 7.6338C42.3447 7.6338 41.9299 7.51513 41.5703 7.2778C41.2106 7.03802 40.9292 6.70037 40.7261 6.26486C40.5231 5.82689 40.4215 5.30941 40.4215 4.71241C40.4215 4.1203 40.5231 3.60648 40.7261 3.17097C40.9292 2.73545 41.2118 2.39902 41.5739 2.16169C41.936 1.92436 42.3544 1.80569 42.8291 1.80569C43.1961 1.80569 43.486 1.86686 43.6989 1.9892C43.9142 2.10909 44.0782 2.2461 44.1907 2.40025C44.3057 2.55194 44.395 2.67673 44.4586 2.7746H44.532V6.71181e-06H45.3982V7.51636H44.5614V6.65022H44.4586C44.395 6.75298 44.3045 6.88265 44.187 7.03925C44.0696 7.19339 43.902 7.33163 43.6842 7.45397C43.4665 7.57386 43.1765 7.6338 42.8144 7.6338ZM42.9319 6.85574C43.2793 6.85574 43.5729 6.76521 43.8127 6.58415C44.0525 6.40065 44.2347 6.14741 44.3595 5.82444C44.4843 5.49903 44.5467 5.12346 44.5467 4.69773C44.5467 4.27689 44.4855 3.90866 44.3632 3.59303C44.2409 3.27495 44.0598 3.02783 43.82 2.85167C43.5802 2.67306 43.2842 2.58375 42.9319 2.58375C42.5649 2.58375 42.259 2.67795 42.0143 2.86635C41.7721 3.0523 41.5898 3.30554 41.4675 3.62606C41.3476 3.94413 41.2877 4.30136 41.2877 4.69773C41.2877 5.09899 41.3488 5.46355 41.4712 5.79141C41.596 6.11683 41.7795 6.37618 42.0217 6.56947C42.2664 6.76032 42.5697 6.85574 42.9319 6.85574ZM2.55442 24.6338C2.02592 24.6338 1.57083 24.509 1.18914 24.2595C0.807452 24.0099 0.513845 23.6661 0.30832 23.2282C0.102795 22.7902 3.19723e-05 22.2898 3.19723e-05 21.7271C3.19723e-05 21.1546 0.105241 20.6493 0.31566 20.2113C0.528525 19.7709 0.82458 19.4272 1.20382 19.18C1.58551 18.9305 2.03082 18.8057 2.53974 18.8057C2.93611 18.8057 3.29333 18.8791 3.6114 19.0259C3.92948 19.1727 4.19005 19.3782 4.39313 19.6425C4.59621 19.9067 4.72222 20.215 4.77115 20.5673H3.90501C3.83895 20.3104 3.69215 20.0829 3.4646 19.8847C3.2395 19.6841 2.93611 19.5838 2.55442 19.5838C2.21677 19.5838 1.92071 19.6718 1.66625 19.848C1.41424 20.0217 1.21728 20.2676 1.07537 20.5857C0.935906 20.9013 0.866174 21.272 0.866174 21.6977C0.866174 22.1332 0.934682 22.5125 1.0717 22.8355C1.21116 23.1584 1.4069 23.4092 1.65891 23.5878C1.91337 23.7664 2.21187 23.8557 2.55442 23.8557C2.77952 23.8557 2.98382 23.8166 3.16732 23.7383C3.35083 23.66 3.50619 23.5475 3.63342 23.4006C3.76065 23.2538 3.85118 23.0777 3.90501 22.8722H4.77115C4.72222 23.2049 4.60111 23.5046 4.40781 23.7713C4.21697 24.0356 3.96373 24.246 3.6481 24.4026C3.33492 24.5567 2.97036 24.6338 2.55442 24.6338ZM8.32747 24.6338C7.81855 24.6338 7.37203 24.5127 6.98789 24.2705C6.6062 24.0282 6.3077 23.6894 6.09239 23.2538C5.87952 22.8183 5.77309 22.3094 5.77309 21.7271C5.77309 21.1399 5.87952 20.6273 6.09239 20.1893C6.3077 19.7514 6.6062 19.4113 6.98789 19.169C7.37203 18.9268 7.81855 18.8057 8.32747 18.8057C8.83639 18.8057 9.2817 18.9268 9.66339 19.169C10.0475 19.4113 10.346 19.7514 10.5589 20.1893C10.7742 20.6273 10.8819 21.1399 10.8819 21.7271C10.8819 22.3094 10.7742 22.8183 10.5589 23.2538C10.346 23.6894 10.0475 24.0282 9.66339 24.2705C9.2817 24.5127 8.83639 24.6338 8.32747 24.6338ZM8.32747 23.8557C8.71406 23.8557 9.03213 23.7566 9.2817 23.5585C9.53126 23.3603 9.71599 23.0997 9.83588 22.7767C9.95577 22.4538 10.0157 22.1039 10.0157 21.7271C10.0157 21.3503 9.95577 20.9992 9.83588 20.6738C9.71599 20.3484 9.53126 20.0853 9.2817 19.8847C9.03213 19.6841 8.71406 19.5838 8.32747 19.5838C7.94089 19.5838 7.62282 19.6841 7.37325 19.8847C7.12368 20.0853 6.93895 20.3484 6.81906 20.6738C6.69918 20.9992 6.63923 21.3503 6.63923 21.7271C6.63923 22.1039 6.69918 22.4538 6.81906 22.7767C6.93895 23.0997 7.12368 23.3603 7.37325 23.5585C7.62282 23.7566 7.94089 23.8557 8.32747 23.8557ZM12.204 24.5164V18.8791H13.0408V19.7599H13.1142C13.2316 19.459 13.4213 19.2253 13.6831 19.0589C13.9449 18.8901 14.2593 18.8057 14.6263 18.8057C14.9982 18.8057 15.3077 18.8901 15.5548 19.0589C15.8044 19.2253 15.9989 19.459 16.1383 19.7599H16.1971C16.3414 19.4688 16.558 19.2375 16.8467 19.0663C17.1354 18.8926 17.4816 18.8057 17.8853 18.8057C18.3893 18.8057 18.8016 18.9635 19.1221 19.2791C19.4427 19.5923 19.6029 20.0804 19.6029 20.7435V24.5164H18.7368V20.7435C18.7368 20.3276 18.623 20.0303 18.3955 19.8517C18.1679 19.6731 17.9 19.5838 17.5917 19.5838C17.1953 19.5838 16.8883 19.7036 16.6705 19.9434C16.4528 20.1808 16.3439 20.4817 16.3439 20.8463V24.5164H15.4631V20.6554C15.4631 20.3349 15.3591 20.0768 15.1511 19.881C14.9431 19.6828 14.6752 19.5838 14.3473 19.5838C14.1222 19.5838 13.9118 19.6437 13.7161 19.7636C13.5228 19.8835 13.3662 20.0499 13.2463 20.2627C13.1289 20.4731 13.0702 20.7166 13.0702 20.9931V24.5164H12.204ZM21.1866 24.5164V18.8791H22.0233V19.7599H22.0967C22.2142 19.459 22.4038 19.2253 22.6656 19.0589C22.9274 18.8901 23.2418 18.8057 23.6088 18.8057C23.9807 18.8057 24.2902 18.8901 24.5374 19.0589C24.7869 19.2253 24.9814 19.459 25.1209 19.7599H25.1796C25.324 19.4688 25.5405 19.2375 25.8292 19.0663C26.1179 18.8926 26.4642 18.8057 26.8679 18.8057C27.3719 18.8057 27.7842 18.9635 28.1047 19.2791C28.4252 19.5923 28.5855 20.0804 28.5855 20.7435V24.5164H27.7193V20.7435C27.7193 20.3276 27.6056 20.0303 27.378 19.8517C27.1505 19.6731 26.8825 19.5838 26.5743 19.5838C26.1779 19.5838 25.8708 19.7036 25.6531 19.9434C25.4353 20.1808 25.3264 20.4817 25.3264 20.8463V24.5164H24.4456V20.6554C24.4456 20.3349 24.3416 20.0768 24.1336 19.881C23.9257 19.6828 23.6578 19.5838 23.3299 19.5838C23.1048 19.5838 22.8944 19.6437 22.6986 19.7636C22.5053 19.8835 22.3488 20.0499 22.2289 20.2627C22.1114 20.4731 22.0527 20.7166 22.0527 20.9931V24.5164H21.1866ZM31.828 24.6485C31.4708 24.6485 31.1466 24.5812 30.8554 24.4466C30.5643 24.3096 30.333 24.1126 30.1618 23.8557C29.9905 23.5964 29.9049 23.2832 29.9049 22.9162C29.9049 22.5932 29.9685 22.3314 30.0957 22.1308C30.2229 21.9277 30.393 21.7687 30.6059 21.6537C30.8187 21.5387 31.0536 21.4531 31.3105 21.3968C31.5699 21.3381 31.8304 21.2916 32.0922 21.2573C32.4348 21.2133 32.7125 21.1802 32.9254 21.1582C33.1407 21.1338 33.2973 21.0934 33.3951 21.0371C33.4954 20.9808 33.5456 20.883 33.5456 20.7435V20.7141C33.5456 20.352 33.4465 20.0707 33.2483 19.87C33.0526 19.6694 32.7553 19.5691 32.3565 19.5691C31.943 19.5691 31.6188 19.6596 31.3839 19.8407C31.149 20.0217 30.9839 20.215 30.8885 20.4205L30.0664 20.1269C30.2132 19.7844 30.4089 19.5177 30.6536 19.3268C30.9007 19.1336 31.1698 18.999 31.461 18.9231C31.7546 18.8448 32.0433 18.8057 32.3271 18.8057C32.5082 18.8057 32.7162 18.8277 32.951 18.8718C33.1884 18.9133 33.4171 19.0002 33.6374 19.1323C33.86 19.2645 34.0447 19.4639 34.1915 19.7306C34.3383 19.9972 34.4117 20.3545 34.4117 20.8022V24.5164H33.5456V23.753H33.5016C33.4428 23.8753 33.345 24.0062 33.208 24.1457C33.0709 24.2851 32.8887 24.4038 32.6611 24.5017C32.4336 24.5995 32.1559 24.6485 31.828 24.6485ZM31.9601 23.8704C32.3027 23.8704 32.5914 23.8031 32.8263 23.6686C33.0636 23.534 33.2422 23.3603 33.3621 23.1474C33.4844 22.9345 33.5456 22.7107 33.5456 22.4758V21.683C33.5089 21.7271 33.4282 21.7675 33.3034 21.8042C33.181 21.8384 33.0391 21.869 32.8776 21.8959C32.7186 21.9204 32.5632 21.9424 32.4115 21.962C32.2623 21.9791 32.1412 21.9938 32.0482 22.006C31.8231 22.0354 31.6127 22.0831 31.4169 22.1491C31.2237 22.2128 31.0671 22.3094 30.9472 22.4391C30.8297 22.5663 30.771 22.74 30.771 22.9602C30.771 23.2612 30.8823 23.4887 31.105 23.6429C31.3301 23.7946 31.6151 23.8704 31.9601 23.8704ZM36.8588 21.1252V24.5164H35.9926V18.8791H36.8294V19.7599H36.9028C37.0349 19.4736 37.2356 19.2437 37.5047 19.0699C37.7739 18.8938 38.1213 18.8057 38.547 18.8057C38.9287 18.8057 39.2627 18.884 39.549 19.0406C39.8352 19.1947 40.0579 19.4296 40.2169 19.7452C40.3759 20.0584 40.4555 20.4548 40.4555 20.9343V24.5164H39.5893V20.9931C39.5893 20.5502 39.4743 20.2052 39.2443 19.9581C39.0143 19.7085 38.6987 19.5838 38.2975 19.5838C38.021 19.5838 37.7739 19.6437 37.5561 19.7636C37.3408 19.8835 37.1707 20.0584 37.046 20.2884C36.9212 20.5184 36.8588 20.7973 36.8588 21.1252ZM44.1669 24.6338C43.6971 24.6338 43.2824 24.5151 42.9227 24.2778C42.563 24.038 42.2816 23.7004 42.0786 23.2649C41.8755 22.8269 41.774 22.3094 41.774 21.7124C41.774 21.1203 41.8755 20.6065 42.0786 20.171C42.2816 19.7354 42.5642 19.399 42.9264 19.1617C43.2885 18.9244 43.7069 18.8057 44.1815 18.8057C44.5485 18.8057 44.8385 18.8669 45.0513 18.9892C45.2667 19.1091 45.4306 19.2461 45.5431 19.4002C45.6581 19.5519 45.7474 19.6767 45.8111 19.7746H45.8845V17H46.7506V24.5164H45.9138V23.6502H45.8111C45.7474 23.753 45.6569 23.8827 45.5395 24.0392C45.422 24.1934 45.2544 24.3316 45.0367 24.454C44.8189 24.5739 44.529 24.6338 44.1669 24.6338ZM44.2843 23.8557C44.6317 23.8557 44.9253 23.7652 45.1651 23.5842C45.4049 23.4006 45.5872 23.1474 45.712 22.8244C45.8367 22.499 45.8991 22.1235 45.8991 21.6977C45.8991 21.2769 45.838 20.9087 45.7156 20.593C45.5933 20.275 45.4122 20.0278 45.1725 19.8517C44.9327 19.6731 44.6366 19.5838 44.2843 19.5838C43.9173 19.5838 43.6114 19.678 43.3668 19.8663C43.1245 20.0523 42.9423 20.3055 42.8199 20.6261C42.7 20.9441 42.6401 21.3014 42.6401 21.6977C42.6401 22.099 42.7013 22.4636 42.8236 22.7914C42.9484 23.1168 43.1319 23.3762 43.3741 23.5695C43.6188 23.7603 43.9222 23.8557 44.2843 23.8557Z" fill="#737373"/>
</svg>
