<svg width="66" height="25" viewBox="0 0 66 25" fill="none" xmlns="http://www.w3.org/2000/svg">
<path d="M6.08277 0.23487V7.75122H5.21663V0.23487H6.08277ZM9.95931 7.86866C9.45039 7.86866 9.00386 7.74755 8.61972 7.50532C8.23804 7.2631 7.93953 6.92423 7.72422 6.48871C7.51136 6.05319 7.40492 5.54427 7.40492 4.96195C7.40492 4.37473 7.51136 3.86215 7.72422 3.42418C7.93953 2.98622 8.23804 2.64612 8.61972 2.4039C9.00386 2.16167 9.45039 2.04056 9.95931 2.04056C10.4682 2.04056 10.9135 2.16167 11.2952 2.4039C11.6794 2.64612 11.9779 2.98622 12.1907 3.42418C12.406 3.86215 12.5137 4.37473 12.5137 4.96195C12.5137 5.54427 12.406 6.05319 12.1907 6.48871C11.9779 6.92423 11.6794 7.2631 11.2952 7.50532C10.9135 7.74755 10.4682 7.86866 9.95931 7.86866ZM9.95931 7.0906C10.3459 7.0906 10.664 6.99151 10.9135 6.79333C11.1631 6.59514 11.3478 6.33456 11.4677 6.0116C11.5876 5.68863 11.6476 5.33875 11.6476 4.96195C11.6476 4.58515 11.5876 4.23405 11.4677 3.90863C11.3478 3.58322 11.1631 3.32019 10.9135 3.11956C10.664 2.91893 10.3459 2.81862 9.95931 2.81862C9.57273 2.81862 9.25465 2.91893 9.00508 3.11956C8.75552 3.32019 8.57079 3.58322 8.4509 3.90863C8.33101 4.23405 8.27107 4.58515 8.27107 4.96195C8.27107 5.33875 8.33101 5.68863 8.4509 6.0116C8.57079 6.33456 8.75552 6.59514 9.00508 6.79333C9.25465 6.99151 9.57273 7.0906 9.95931 7.0906ZM16.126 7.86866C15.5975 7.86866 15.1424 7.74388 14.7607 7.49431C14.379 7.24475 14.0854 6.90098 13.8799 6.46302C13.6744 6.02505 13.5716 5.5247 13.5716 4.96195C13.5716 4.38942 13.6768 3.88417 13.8872 3.4462C14.1001 3.00579 14.3961 2.66202 14.7754 2.41491C15.1571 2.16534 15.6024 2.04056 16.1113 2.04056C16.5077 2.04056 16.8649 2.11396 17.183 2.26076C17.501 2.40757 17.7616 2.61309 17.9647 2.87734C18.1678 3.14158 18.2938 3.44987 18.3427 3.8022H17.4766C17.4105 3.54529 17.2637 3.31775 17.0362 3.11956C16.8111 2.91893 16.5077 2.81862 16.126 2.81862C15.7883 2.81862 15.4923 2.9067 15.2378 3.08286C14.9858 3.25658 14.7888 3.50248 14.6469 3.82055C14.5075 4.13618 14.4377 4.50686 14.4377 4.93259C14.4377 5.36811 14.5062 5.74735 14.6433 6.07032C14.7827 6.39329 14.9785 6.64408 15.2305 6.82269C15.4849 7.0013 15.7834 7.0906 16.126 7.0906C16.3511 7.0906 16.5554 7.05146 16.7389 6.97316C16.9224 6.89487 17.0778 6.78232 17.205 6.63551C17.3322 6.48871 17.4227 6.31254 17.4766 6.10702H18.3427C18.2938 6.43977 18.1727 6.7395 17.9794 7.00619C17.7885 7.27044 17.5353 7.48086 17.2197 7.63745C16.9065 7.79159 16.5419 7.86866 16.126 7.86866ZM21.2678 7.88334C20.9106 7.88334 20.5864 7.81606 20.2952 7.68149C20.004 7.54447 19.7728 7.34751 19.6016 7.0906C19.4303 6.83125 19.3447 6.51807 19.3447 6.15106C19.3447 5.82809 19.4083 5.56629 19.5355 5.36566C19.6627 5.16258 19.8328 5.00354 20.0456 4.88855C20.2585 4.77355 20.4934 4.68792 20.7503 4.63164C21.0097 4.57292 21.2702 4.52643 21.532 4.49218C21.8746 4.44814 22.1523 4.41511 22.3651 4.39309C22.5805 4.36862 22.737 4.32825 22.8349 4.27197C22.9352 4.2157 22.9854 4.11783 22.9854 3.97836V3.949C22.9854 3.58689 22.8863 3.30551 22.6881 3.10488C22.4924 2.90425 22.1951 2.80394 21.7963 2.80394C21.3828 2.80394 21.0586 2.89446 20.8237 3.07552C20.5888 3.25658 20.4237 3.44987 20.3282 3.6554L19.5061 3.36179C19.6529 3.01925 19.8487 2.75255 20.0934 2.56171C20.3405 2.36842 20.6096 2.23385 20.9008 2.158C21.1944 2.0797 21.4831 2.04056 21.7669 2.04056C21.948 2.04056 22.1559 2.06258 22.3908 2.10662C22.6282 2.14821 22.8569 2.23507 23.0771 2.36719C23.2998 2.49932 23.4845 2.69873 23.6313 2.96542C23.7781 3.23211 23.8515 3.58934 23.8515 4.03709V7.75122H22.9854V6.98784H22.9413C22.8826 7.11018 22.7848 7.24108 22.6477 7.38054C22.5107 7.52 22.3284 7.63867 22.1009 7.73654C21.8733 7.83441 21.5956 7.88334 21.2678 7.88334ZM21.3999 7.10528C21.7424 7.10528 22.0312 7.038 22.266 6.90343C22.5034 6.76886 22.682 6.59514 22.8019 6.38228C22.9242 6.16941 22.9854 5.94553 22.9854 5.71065V4.91791C22.9487 4.96195 22.8679 5.00232 22.7432 5.03902C22.6208 5.07328 22.4789 5.10386 22.3174 5.13077C22.1584 5.15524 22.003 5.17726 21.8513 5.19684C21.7021 5.21396 21.581 5.22864 21.488 5.24088C21.2629 5.27024 21.0525 5.31795 20.8567 5.38401C20.6634 5.44763 20.5069 5.54427 20.387 5.67395C20.2695 5.80118 20.2108 5.9749 20.2108 6.1951C20.2108 6.49605 20.3221 6.72359 20.5448 6.87774C20.7699 7.02944 21.0549 7.10528 21.3999 7.10528ZM27.884 2.11396V2.84798H24.9626V2.11396H27.884ZM25.8141 0.763363H26.6803V6.13638C26.6803 6.38105 26.7157 6.56456 26.7867 6.68689C26.8601 6.80678 26.9531 6.88753 27.0656 6.92912C27.1806 6.96827 27.3017 6.98784 27.429 6.98784C27.5244 6.98784 27.6027 6.98295 27.6638 6.97316C27.725 6.96093 27.7739 6.95114 27.8106 6.9438L27.9868 7.72186C27.9281 7.74388 27.8461 7.7659 27.7409 7.78792C27.6357 7.81239 27.5024 7.82462 27.3409 7.82462C27.0962 7.82462 26.8564 7.77202 26.6215 7.66681C26.3891 7.5616 26.1958 7.40134 26.0417 7.18603C25.89 6.97071 25.8141 6.69913 25.8141 6.37127V0.763363ZM29.1869 7.75122V2.11396H30.0531V7.75122H29.1869ZM29.6273 1.17441C29.4585 1.17441 29.3129 1.11692 29.1906 1.00192C29.0707 0.886923 29.0108 0.748683 29.0108 0.587199C29.0108 0.425715 29.0707 0.287475 29.1906 0.172478C29.3129 0.0574823 29.4585 -1.57356e-05 29.6273 -1.57356e-05C29.7962 -1.57356e-05 29.9405 0.0574823 30.0604 0.172478C30.1827 0.287475 30.2439 0.425715 30.2439 0.587199C30.2439 0.748683 30.1827 0.886923 30.0604 1.00192C29.9405 1.11692 29.7962 1.17441 29.6273 1.17441ZM33.9296 7.86866C33.4207 7.86866 32.9742 7.74755 32.59 7.50532C32.2083 7.2631 31.9098 6.92423 31.6945 6.48871C31.4817 6.05319 31.3752 5.54427 31.3752 4.96195C31.3752 4.37473 31.4817 3.86215 31.6945 3.42418C31.9098 2.98622 32.2083 2.64612 32.59 2.4039C32.9742 2.16167 33.4207 2.04056 33.9296 2.04056C34.4385 2.04056 34.8838 2.16167 35.2655 2.4039C35.6497 2.64612 35.9482 2.98622 36.161 3.42418C36.3763 3.86215 36.484 4.37473 36.484 4.96195C36.484 5.54427 36.3763 6.05319 36.161 6.48871C35.9482 6.92423 35.6497 7.2631 35.2655 7.50532C34.8838 7.74755 34.4385 7.86866 33.9296 7.86866ZM33.9296 7.0906C34.3162 7.0906 34.6343 6.99151 34.8838 6.79333C35.1334 6.59514 35.3181 6.33456 35.438 6.0116C35.5579 5.68863 35.6178 5.33875 35.6178 4.96195C35.6178 4.58515 35.5579 4.23405 35.438 3.90863C35.3181 3.58322 35.1334 3.32019 34.8838 3.11956C34.6343 2.91893 34.3162 2.81862 33.9296 2.81862C33.543 2.81862 33.2249 2.91893 32.9754 3.11956C32.7258 3.32019 32.5411 3.58322 32.4212 3.90863C32.3013 4.23405 32.2414 4.58515 32.2414 4.96195C32.2414 5.33875 32.3013 5.68863 32.4212 6.0116C32.5411 6.33456 32.7258 6.59514 32.9754 6.79333C33.2249 6.99151 33.543 7.0906 33.9296 7.0906ZM38.6723 4.36005V7.75122H37.8061V2.11396H38.6429V2.99478H38.7163C38.8484 2.70851 39.0491 2.47852 39.3182 2.3048C39.5874 2.12864 39.9348 2.04056 40.3605 2.04056C40.7422 2.04056 41.0762 2.11885 41.3625 2.27544C41.6487 2.42959 41.8714 2.66447 42.0304 2.9801C42.1895 3.29328 42.269 3.68965 42.269 4.16921V7.75122H41.4028V4.22793C41.4028 3.78507 41.2878 3.44008 41.0578 3.19296C40.8278 2.9434 40.5122 2.81862 40.111 2.81862C39.8345 2.81862 39.5874 2.87856 39.3696 2.99845C39.1543 3.11834 38.9842 3.29328 38.8595 3.52327C38.7347 3.75327 38.6723 4.03219 38.6723 4.36005ZM46.7584 9.86519V2.11396H47.5952V3.00946H47.698C47.7616 2.91159 47.8497 2.78681 47.9622 2.63511C48.0772 2.48097 48.2411 2.34395 48.454 2.22406C48.6693 2.10172 48.9605 2.04056 49.3275 2.04056C49.8021 2.04056 50.2205 2.15922 50.5827 2.39655C50.9448 2.63389 51.2274 2.97031 51.4304 3.40583C51.6335 3.84135 51.7351 4.35516 51.7351 4.94727C51.7351 5.54427 51.6335 6.06175 51.4304 6.49972C51.2274 6.93524 50.946 7.27289 50.5863 7.51266C50.2267 7.75 49.8119 7.86866 49.3422 7.86866C48.98 7.86866 48.6901 7.80872 48.4723 7.68883C48.2546 7.56649 48.087 7.42825 47.9695 7.27411C47.8521 7.11752 47.7616 6.98784 47.698 6.88508H47.6246V9.86519H46.7584ZM47.6099 4.93259C47.6099 5.35832 47.6723 5.73389 47.7971 6.05931C47.9218 6.38228 48.1041 6.63551 48.3439 6.81902C48.5837 7.00007 48.8773 7.0906 49.2247 7.0906C49.5868 7.0906 49.889 6.99518 50.1312 6.80434C50.3759 6.61105 50.5594 6.35169 50.6817 6.02628C50.8065 5.69842 50.8689 5.33385 50.8689 4.93259C50.8689 4.53622 50.8078 4.179 50.6854 3.86092C50.5655 3.5404 50.3832 3.28716 50.1386 3.10121C49.8963 2.91281 49.5917 2.81862 49.2247 2.81862C48.8724 2.81862 48.5763 2.90792 48.3366 3.08653C48.0968 3.2627 47.9157 3.50982 47.7934 3.82789C47.671 4.14352 47.6099 4.51175 47.6099 4.93259ZM53.0563 7.75122V2.11396H53.9224V7.75122H53.0563ZM53.4967 1.17441C53.3279 1.17441 53.1823 1.11692 53.06 1.00192C52.9401 0.886923 52.8801 0.748683 52.8801 0.587199C52.8801 0.425715 52.9401 0.287475 53.06 0.172478C53.1823 0.0574823 53.3279 -1.57356e-05 53.4967 -1.57356e-05C53.6655 -1.57356e-05 53.8099 0.0574823 53.9298 0.172478C54.0521 0.287475 54.1133 0.425715 54.1133 0.587199C54.1133 0.748683 54.0521 0.886923 53.9298 1.00192C53.8099 1.11692 53.6655 1.17441 53.4967 1.17441ZM56.375 4.36005V7.75122H55.5088V2.11396H56.3456V2.99478H56.419C56.5511 2.70851 56.7518 2.47852 57.0209 2.3048C57.2901 2.12864 57.6375 2.04056 58.0632 2.04056C58.4449 2.04056 58.7789 2.11885 59.0652 2.27544C59.3514 2.42959 59.5741 2.66447 59.7331 2.9801C59.8921 3.29328 59.9717 3.68965 59.9717 4.16921V7.75122H59.1055V4.22793C59.1055 3.78507 58.9905 3.44008 58.7605 3.19296C58.5305 2.9434 58.2149 2.81862 57.8137 2.81862C57.5372 2.81862 57.2901 2.87856 57.0723 2.99845C56.857 3.11834 56.6869 3.29328 56.5622 3.52327C56.4374 3.75327 56.375 4.03219 56.375 4.36005ZM3.03889 19.114V19.848H5.22258e-05V19.114H3.03889ZM0.910235 24.7512V18.3359C0.910235 18.0129 0.986084 17.7438 1.13778 17.5285C1.28948 17.3132 1.48644 17.1517 1.72867 17.044C1.97089 16.9364 2.22658 16.8825 2.49572 16.8825C2.70858 16.8825 2.8823 16.8997 3.01687 16.9339C3.15144 16.9682 3.25175 17 3.31782 17.0293L3.06825 17.778C3.02421 17.7634 2.96304 17.745 2.88475 17.723C2.8089 17.701 2.70858 17.69 2.5838 17.69C2.29753 17.69 2.09078 17.7621 1.96355 17.9065C1.83877 18.0509 1.77638 18.2625 1.77638 18.5414V24.7512H0.910235ZM5.75017 24.8833C5.39295 24.8833 5.06876 24.8161 4.7776 24.6815C4.48644 24.5445 4.25522 24.3475 4.08395 24.0906C3.91268 23.8313 3.82704 23.5181 3.82704 23.1511C3.82704 22.8281 3.89066 22.5663 4.01789 22.3657C4.14512 22.1626 4.31516 22.0035 4.52803 21.8885C4.74089 21.7736 4.97578 21.6879 5.23269 21.6316C5.49204 21.5729 5.75262 21.5264 6.01442 21.4922C6.35696 21.4481 6.63466 21.4151 6.84753 21.3931C7.06284 21.3686 7.21943 21.3282 7.3173 21.272C7.41762 21.2157 7.46777 21.1178 7.46777 20.9784V20.949C7.46777 20.5869 7.36868 20.3055 7.1705 20.1049C6.97476 19.9043 6.67748 19.8039 6.27866 19.8039C5.86517 19.8039 5.54098 19.8945 5.30609 20.0755C5.0712 20.2566 4.90605 20.4499 4.81063 20.6554L3.98853 20.3618C4.13533 20.0192 4.33107 19.7526 4.57574 19.5617C4.82286 19.3684 5.092 19.2338 5.38316 19.158C5.67677 19.0797 5.96548 19.0406 6.2493 19.0406C6.43036 19.0406 6.63833 19.0626 6.87322 19.1066C7.11055 19.1482 7.33932 19.2351 7.55953 19.3672C7.78218 19.4993 7.96691 19.6987 8.11371 19.9654C8.26051 20.2321 8.33392 20.5893 8.33392 21.0371V24.7512H7.46777V23.9878H7.42373C7.36501 24.1102 7.26714 24.2411 7.13013 24.3805C6.99311 24.52 6.81083 24.6387 6.58328 24.7365C6.35574 24.8344 6.07803 24.8833 5.75017 24.8833ZM5.88229 24.1053C6.22484 24.1053 6.51355 24.038 6.74844 23.9034C6.98577 23.7689 7.16438 23.5951 7.28427 23.3823C7.40661 23.1694 7.46777 22.9455 7.46777 22.7106V21.9179C7.43107 21.9619 7.35033 22.0023 7.22555 22.039C7.10321 22.0733 6.9613 22.1039 6.79982 22.1308C6.64078 22.1552 6.48541 22.1773 6.33372 22.1968C6.18446 22.214 6.06335 22.2286 5.97038 22.2409C5.74528 22.2702 5.53486 22.3179 5.33912 22.384C5.14583 22.4476 4.98924 22.5443 4.86935 22.6739C4.75191 22.8012 4.69318 22.9749 4.69318 23.1951C4.69318 23.496 4.80451 23.7236 5.02716 23.8777C5.25226 24.0294 5.53731 24.1053 5.88229 24.1053ZM14.3226 19.114L12.238 24.7512H11.3572L9.27254 19.114H10.2121L11.7682 23.6062H11.8269L13.383 19.114H14.3226ZM17.5541 24.8687C17.0452 24.8687 16.5987 24.7476 16.2145 24.5053C15.8328 24.2631 15.5343 23.9242 15.319 23.4887C15.1062 23.0532 14.9997 22.5443 14.9997 21.9619C14.9997 21.3747 15.1062 20.8621 15.319 20.4242C15.5343 19.9862 15.8328 19.6461 16.2145 19.4039C16.5987 19.1617 17.0452 19.0406 17.5541 19.0406C18.063 19.0406 18.5083 19.1617 18.89 19.4039C19.2742 19.6461 19.5727 19.9862 19.7855 20.4242C20.0008 20.8621 20.1085 21.3747 20.1085 21.9619C20.1085 22.5443 20.0008 23.0532 19.7855 23.4887C19.5727 23.9242 19.2742 24.2631 18.89 24.5053C18.5083 24.7476 18.063 24.8687 17.5541 24.8687ZM17.5541 24.0906C17.9407 24.0906 18.2588 23.9915 18.5083 23.7933C18.7579 23.5951 18.9426 23.3346 19.0625 23.0116C19.1824 22.6886 19.2424 22.3387 19.2424 21.9619C19.2424 21.5852 19.1824 21.234 19.0625 20.9086C18.9426 20.5832 18.7579 20.3202 18.5083 20.1196C18.2588 19.9189 17.9407 19.8186 17.5541 19.8186C17.1675 19.8186 16.8494 19.9189 16.5999 20.1196C16.3503 20.3202 16.1656 20.5832 16.0457 20.9086C15.9258 21.234 15.8659 21.5852 15.8659 21.9619C15.8659 22.3387 15.9258 22.6886 16.0457 23.0116C16.1656 23.3346 16.3503 23.5951 16.5999 23.7933C16.8494 23.9915 17.1675 24.0906 17.5541 24.0906ZM21.4306 24.7512V19.114H22.2674V19.9654H22.3261C22.4289 19.6865 22.6149 19.4602 22.884 19.2865C23.1531 19.1127 23.4565 19.0259 23.7942 19.0259C23.8578 19.0259 23.9373 19.0271 24.0327 19.0295C24.1282 19.032 24.2003 19.0357 24.2493 19.0406V19.9214C24.2199 19.914 24.1526 19.903 24.0474 19.8883C23.9447 19.8712 23.8358 19.8627 23.7208 19.8627C23.4467 19.8627 23.2021 19.9202 22.9868 20.0352C22.7739 20.1477 22.6051 20.3043 22.4803 20.5049C22.358 20.7031 22.2968 20.9294 22.2968 21.1839V24.7512H21.4306ZM25.276 24.7512V19.114H26.1421V24.7512H25.276ZM25.7164 18.1744C25.5476 18.1744 25.402 18.1169 25.2797 18.0019C25.1598 17.8869 25.0998 17.7487 25.0998 17.5872C25.0998 17.4257 25.1598 17.2875 25.2797 17.1725C25.402 17.0575 25.5476 17 25.7164 17C25.8852 17 26.0296 17.0575 26.1495 17.1725C26.2718 17.2875 26.333 17.4257 26.333 17.5872C26.333 17.7487 26.2718 17.8869 26.1495 18.0019C26.0296 18.1169 25.8852 18.1744 25.7164 18.1744ZM30.1801 19.114V19.848H27.2588V19.114H30.1801ZM28.1102 17.7634H28.9764V23.1364C28.9764 23.3811 29.0118 23.5646 29.0828 23.6869C29.1562 23.8068 29.2492 23.8875 29.3617 23.9291C29.4767 23.9683 29.5978 23.9878 29.7251 23.9878C29.8205 23.9878 29.8988 23.9829 29.9599 23.9732C30.0211 23.9609 30.07 23.9511 30.1067 23.9438L30.2829 24.7219C30.2242 24.7439 30.1422 24.7659 30.037 24.7879C29.9318 24.8124 29.7985 24.8246 29.637 24.8246C29.3923 24.8246 29.1525 24.772 28.9176 24.6668C28.6852 24.5616 28.4919 24.4013 28.3378 24.186C28.1861 23.9707 28.1102 23.6991 28.1102 23.3713V17.7634ZM33.786 24.8687C33.2428 24.8687 32.7743 24.7488 32.3804 24.509C31.9889 24.2668 31.6867 23.9291 31.4739 23.496C31.2634 23.0605 31.1582 22.5541 31.1582 21.9766C31.1582 21.3992 31.2634 20.8903 31.4739 20.4499C31.6867 20.007 31.9828 19.662 32.362 19.4149C32.7437 19.1653 33.189 19.0406 33.6979 19.0406C33.9915 19.0406 34.2815 19.0895 34.5677 19.1874C34.854 19.2852 35.1146 19.4443 35.3495 19.6645C35.5844 19.8822 35.7715 20.1709 35.911 20.5306C36.0505 20.8903 36.1202 21.3331 36.1202 21.8592V22.2262H31.7748V21.4775H35.2394C35.2394 21.1594 35.1758 20.8756 35.0485 20.626C34.9237 20.3765 34.7451 20.1795 34.5127 20.0352C34.2827 19.8908 34.0111 19.8186 33.6979 19.8186C33.3529 19.8186 33.0544 19.9043 32.8024 20.0755C32.5529 20.2443 32.3608 20.4646 32.2262 20.7361C32.0917 21.0077 32.0244 21.2989 32.0244 21.6096V22.1088C32.0244 22.5345 32.0978 22.8954 32.2446 23.1914C32.3938 23.485 32.6006 23.7089 32.8648 23.8631C33.1291 24.0148 33.4361 24.0906 33.786 24.0906C34.0136 24.0906 34.2191 24.0588 34.4026 23.9952C34.5885 23.9291 34.7488 23.8313 34.8834 23.7016C35.0179 23.5695 35.1219 23.4055 35.1953 23.2098L36.0321 23.4447C35.944 23.7285 35.796 23.9781 35.588 24.1934C35.3801 24.4062 35.1231 24.5726 34.8173 24.6925C34.5115 24.8099 34.1677 24.8687 33.786 24.8687ZM41.2106 21.3601V24.7512H40.3445V17.2349H41.2106V19.9948H41.284C41.4161 19.7036 41.6143 19.4724 41.8786 19.3011C42.1453 19.1274 42.5 19.0406 42.9429 19.0406C43.327 19.0406 43.6635 19.1176 43.9522 19.2718C44.2409 19.4235 44.4648 19.6571 44.6238 19.9728C44.7853 20.2859 44.866 20.6848 44.866 21.1692V24.7512H43.9999V21.2279C43.9999 20.7802 43.8837 20.434 43.6512 20.1893C43.4212 19.9422 43.1019 19.8186 42.6933 19.8186C42.4095 19.8186 42.155 19.8786 41.9299 19.9984C41.7073 20.1183 41.5311 20.2933 41.4015 20.5233C41.2742 20.7533 41.2106 21.0322 41.2106 21.3601ZM48.8141 24.8687C48.271 24.8687 47.8024 24.7488 47.4085 24.509C47.017 24.2668 46.7148 23.9291 46.502 23.496C46.2915 23.0605 46.1863 22.5541 46.1863 21.9766C46.1863 21.3992 46.2915 20.8903 46.502 20.4499C46.7148 20.007 47.0109 19.662 47.3901 19.4149C47.7718 19.1653 48.2171 19.0406 48.726 19.0406C49.0196 19.0406 49.3096 19.0895 49.5959 19.1874C49.8821 19.2852 50.1427 19.4443 50.3776 19.6645C50.6125 19.8822 50.7996 20.1709 50.9391 20.5306C51.0786 20.8903 51.1483 21.3331 51.1483 21.8592V22.2262H46.8029V21.4775H50.2675C50.2675 21.1594 50.2039 20.8756 50.0766 20.626C49.9519 20.3765 49.7732 20.1795 49.5408 20.0352C49.3108 19.8908 49.0392 19.8186 48.726 19.8186C48.3811 19.8186 48.0826 19.9043 47.8305 20.0755C47.581 20.2443 47.3889 20.4646 47.2543 20.7361C47.1198 21.0077 47.0525 21.2989 47.0525 21.6096V22.1088C47.0525 22.5345 47.1259 22.8954 47.2727 23.1914C47.4219 23.485 47.6287 23.7089 47.8929 23.8631C48.1572 24.0148 48.4642 24.0906 48.8141 24.0906C49.0417 24.0906 49.2472 24.0588 49.4307 23.9952C49.6167 23.9291 49.7769 23.8313 49.9115 23.7016C50.0461 23.5695 50.15 23.4055 50.2234 23.2098L51.0602 23.4447C50.9721 23.7285 50.8241 23.9781 50.6161 24.1934C50.4082 24.4062 50.1513 24.5726 49.8454 24.6925C49.5396 24.8099 49.1958 24.8687 48.8141 24.8687ZM54.1247 24.8833C53.7675 24.8833 53.4433 24.8161 53.1522 24.6815C52.861 24.5445 52.6298 24.3475 52.4585 24.0906C52.2873 23.8313 52.2016 23.5181 52.2016 23.1511C52.2016 22.8281 52.2652 22.5663 52.3925 22.3657C52.5197 22.1626 52.6897 22.0035 52.9026 21.8885C53.1155 21.7736 53.3504 21.6879 53.6073 21.6316C53.8666 21.5729 54.1272 21.5264 54.389 21.4922C54.7315 21.4481 55.0092 21.4151 55.2221 21.3931C55.4374 21.3686 55.594 21.3282 55.6919 21.272C55.7922 21.2157 55.8424 21.1178 55.8424 20.9784V20.949C55.8424 20.5869 55.7433 20.3055 55.5451 20.1049C55.3493 19.9043 55.0521 19.8039 54.6532 19.8039C54.2397 19.8039 53.9156 19.8945 53.6807 20.0755C53.4458 20.2566 53.2806 20.4499 53.1852 20.6554L52.3631 20.3618C52.5099 20.0192 52.7056 19.7526 52.9503 19.5617C53.1974 19.3684 53.4666 19.2338 53.7577 19.158C54.0513 19.0797 54.3401 19.0406 54.6239 19.0406C54.8049 19.0406 55.0129 19.0626 55.2478 19.1066C55.4851 19.1482 55.7139 19.2351 55.9341 19.3672C56.1568 19.4993 56.3415 19.6987 56.4883 19.9654C56.6351 20.2321 56.7085 20.5893 56.7085 21.0371V24.7512H55.8424V23.9878H55.7983C55.7396 24.1102 55.6417 24.2411 55.5047 24.3805C55.3677 24.52 55.1854 24.6387 54.9579 24.7365C54.7303 24.8344 54.4526 24.8833 54.1247 24.8833ZM54.2569 24.1053C54.5994 24.1053 54.8881 24.038 55.123 23.9034C55.3603 23.7689 55.539 23.5951 55.6588 23.3823C55.7812 23.1694 55.8424 22.9455 55.8424 22.7106V21.9179C55.8057 21.9619 55.7249 22.0023 55.6001 22.039C55.4778 22.0733 55.3359 22.1039 55.1744 22.1308C55.0154 22.1552 54.86 22.1773 54.7083 22.1968C54.559 22.214 54.4379 22.2286 54.345 22.2409C54.1199 22.2702 53.9094 22.3179 53.7137 22.384C53.5204 22.4476 53.3638 22.5443 53.2439 22.6739C53.1265 22.8012 53.0678 22.9749 53.0678 23.1951C53.0678 23.496 53.1791 23.7236 53.4017 23.8777C53.6268 24.0294 53.9119 24.1053 54.2569 24.1053ZM58.2894 24.7512V19.114H59.1262V19.9654H59.1849C59.2877 19.6865 59.4736 19.4602 59.7427 19.2865C60.0119 19.1127 60.3153 19.0259 60.6529 19.0259C60.7165 19.0259 60.7961 19.0271 60.8915 19.0295C60.9869 19.032 61.0591 19.0357 61.108 19.0406V19.9214C61.0787 19.914 61.0114 19.903 60.9062 19.8883C60.8034 19.8712 60.6945 19.8627 60.5795 19.8627C60.3055 19.8627 60.0608 19.9202 59.8455 20.0352C59.6326 20.1477 59.4638 20.3043 59.339 20.5049C59.2167 20.7031 59.1555 20.9294 59.1555 21.1839V24.7512H58.2894ZM64.9396 19.114V19.848H62.0182V19.114H64.9396ZM62.8697 17.7634H63.7358V23.1364C63.7358 23.3811 63.7713 23.5646 63.8422 23.6869C63.9156 23.8068 64.0086 23.8875 64.1212 23.9291C64.2362 23.9683 64.3573 23.9878 64.4845 23.9878C64.5799 23.9878 64.6582 23.9829 64.7194 23.9732C64.7806 23.9609 64.8295 23.9511 64.8662 23.9438L65.0424 24.7219C64.9836 24.7439 64.9017 24.7659 64.7965 24.7879C64.6913 24.8124 64.5579 24.8246 64.3964 24.8246C64.1517 24.8246 63.912 24.772 63.6771 24.6668C63.4446 24.5616 63.2514 24.4013 63.0972 24.186C62.9455 23.9707 62.8697 23.6991 62.8697 23.3713V17.7634Z" fill="#737373"/>
</svg>
