<svg width="20" height="8" viewBox="0 0 20 8" fill="none" xmlns="http://www.w3.org/2000/svg">
<path d="M4.12442e-05 5.71069V0.0734303H0.836822V0.954253H0.910224C1.02767 0.653305 1.21729 0.419643 1.47909 0.253265C1.74089 0.0844407 2.05529 2.86906e-05 2.4223 2.86906e-05C2.79421 2.86906e-05 3.10372 0.0844407 3.35084 0.253265C3.6004 0.419643 3.79492 0.653305 3.93438 0.954253H3.9931C4.13746 0.663092 4.354 0.431876 4.64271 0.260605C4.93142 0.0868875 5.27764 2.86906e-05 5.68135 2.86906e-05C6.18537 2.86906e-05 6.59765 0.157843 6.91817 0.47347C7.23869 0.786652 7.39895 1.27477 7.39895 1.93784V5.71069H6.53281V1.93784C6.53281 1.52189 6.41903 1.22462 6.19149 1.04601C5.96394 0.867394 5.69603 0.778088 5.38774 0.778088C4.99137 0.778088 4.6843 0.897978 4.46654 1.13776C4.24879 1.37509 4.13991 1.67604 4.13991 2.0406V5.71069H3.25908V1.84976C3.25908 1.52923 3.1551 1.2711 2.94713 1.07537C2.73915 0.877181 2.47124 0.778088 2.14338 0.778088C1.91828 0.778088 1.70786 0.838033 1.51212 0.957923C1.31883 1.07781 1.16224 1.24419 1.04235 1.45706C0.924905 1.66747 0.866183 1.91092 0.866183 2.1874V5.71069H4.12442e-05ZM10.6415 5.84282C10.2843 5.84282 9.96006 5.77553 9.6689 5.64096C9.37774 5.50394 9.14652 5.30698 8.97525 5.05008C8.80398 4.79072 8.71835 4.47754 8.71835 4.11053C8.71835 3.78756 8.78196 3.52576 8.90919 3.32513C9.03642 3.12205 9.20647 2.96302 9.41933 2.84802C9.6322 2.73302 9.86709 2.64739 10.124 2.59111C10.3833 2.53239 10.6439 2.48591 10.9057 2.45165C11.2483 2.40761 11.526 2.37458 11.7388 2.35256C11.9541 2.32809 12.1107 2.28772 12.2086 2.23144C12.3089 2.17517 12.3591 2.0773 12.3591 1.93784V1.90848C12.3591 1.54636 12.26 1.26499 12.0618 1.06436C11.8661 0.863724 11.5688 0.763408 11.17 0.763408C10.7565 0.763408 10.4323 0.853937 10.1974 1.03499C9.96251 1.21605 9.79735 1.40934 9.70193 1.61487L8.87983 1.32126C9.02663 0.97872 9.22237 0.712026 9.46705 0.521182C9.71417 0.32789 9.98331 0.19332 10.2745 0.117472C10.5681 0.0391763 10.8568 2.86906e-05 11.1406 2.86906e-05C11.3217 2.86906e-05 11.5296 0.0220491 11.7645 0.0660899C12.0019 0.107684 12.2306 0.194543 12.4508 0.326666C12.6735 0.45879 12.8582 0.658199 13.005 0.924892C13.1518 1.19159 13.2252 1.54881 13.2252 1.99656V5.71069H12.3591V4.94731H12.315C12.2563 5.06965 12.1584 5.20055 12.0214 5.34001C11.8844 5.47948 11.7021 5.59814 11.4746 5.69601C11.247 5.79388 10.9693 5.84282 10.6415 5.84282ZM10.7736 5.06476C11.1161 5.06476 11.4049 4.99747 11.6397 4.8629C11.8771 4.72833 12.0557 4.55461 12.1756 4.34175C12.2979 4.12888 12.3591 3.90501 12.3591 3.67012V2.87738C12.3224 2.92142 12.2416 2.96179 12.1169 2.99849C11.9945 3.03275 11.8526 3.06333 11.6911 3.09025C11.5321 3.11471 11.3767 3.13673 11.225 3.15631C11.0758 3.17344 10.9547 3.18812 10.8617 3.20035C10.6366 3.22971 10.4262 3.27742 10.2304 3.34348C10.0371 3.4071 9.88054 3.50374 9.76065 3.63342C9.64321 3.76065 9.58449 3.93437 9.58449 4.15457C9.58449 4.45552 9.69582 4.68307 9.91847 4.83721C10.1436 4.98891 10.4286 5.06476 10.7736 5.06476ZM14.8061 7.82467V0.0734303H15.6429V0.968933H15.7457C15.8093 0.871064 15.8974 0.746281 16.0099 0.594583C16.1249 0.44044 16.2888 0.303423 16.5017 0.183533C16.717 0.0611969 17.0082 2.86906e-05 17.3752 2.86906e-05C17.8498 2.86906e-05 18.2682 0.118695 18.6304 0.356027C18.9925 0.59336 19.2751 0.929785 19.4781 1.3653C19.6812 1.80082 19.7828 2.31463 19.7828 2.90674C19.7828 3.50374 19.6812 4.02123 19.4781 4.45919C19.2751 4.89471 18.9937 5.23236 18.634 5.47214C18.2744 5.70947 17.8596 5.82814 17.3899 5.82814C17.0277 5.82814 16.7378 5.76819 16.52 5.6483C16.3023 5.52597 16.1347 5.38773 16.0172 5.23358C15.8998 5.07699 15.8093 4.94731 15.7457 4.84455H15.6723V7.82467H14.8061ZM15.6576 2.89206C15.6576 3.31779 15.72 3.69337 15.8447 4.01878C15.9695 4.34175 16.1518 4.59499 16.3916 4.77849C16.6314 4.95955 16.925 5.05008 17.2724 5.05008C17.6345 5.05008 17.9367 4.95465 18.1789 4.76381C18.4236 4.57052 18.6071 4.31116 18.7294 3.98575C18.8542 3.65789 18.9166 3.29333 18.9166 2.89206C18.9166 2.49569 18.8554 2.13847 18.7331 1.82039C18.6132 1.49987 18.4309 1.24664 18.1863 1.06069C17.944 0.872287 17.6394 0.778088 17.2724 0.778088C16.9201 0.778088 16.624 0.867394 16.3843 1.04601C16.1445 1.22217 15.9634 1.46929 15.8411 1.78736C15.7187 2.10299 15.6576 2.47122 15.6576 2.89206Z" fill="#737373"/>
</svg>
