<svg width="69" height="27" viewBox="0 0 69 27" fill="none" xmlns="http://www.w3.org/2000/svg">
<path d="M0.866039 4.12519V7.51636H-0.000102761V6.71181e-06H0.866039V2.75992H0.939441C1.07156 2.46876 1.26975 2.23754 1.534 2.06627C1.80069 1.89255 2.15547 1.80569 2.59832 1.80569C2.98246 1.80569 3.31888 1.88276 3.6076 2.03691C3.89631 2.18861 4.12019 2.42227 4.27923 2.7379C4.44071 3.05108 4.52145 3.44989 4.52145 3.93435V7.51636H3.65531V3.99307C3.65531 3.54532 3.53909 3.1991 3.30665 2.95443C3.07666 2.70731 2.75736 2.58375 2.34876 2.58375C2.06494 2.58375 1.81048 2.6437 1.58538 2.76359C1.36273 2.88348 1.18656 3.05842 1.05688 3.28841C0.929654 3.5184 0.866039 3.79733 0.866039 4.12519ZM7.7649 7.64848C7.40767 7.64848 7.08348 7.5812 6.79232 7.44663C6.50116 7.30961 6.26995 7.11265 6.09867 6.85574C5.9274 6.59639 5.84177 6.28321 5.84177 5.9162C5.84177 5.59323 5.90538 5.33143 6.03261 5.1308C6.15984 4.92772 6.32989 4.76868 6.54276 4.65368C6.75562 4.53869 6.99051 4.45305 7.24741 4.39678C7.50677 4.33806 7.76734 4.29157 8.02914 4.25731C8.37169 4.21327 8.64939 4.18024 8.86225 4.15822C9.07757 4.13375 9.23416 4.09338 9.33203 4.03711C9.43234 3.98083 9.4825 3.88297 9.4825 3.7435V3.71414C9.4825 3.35203 9.38341 3.07065 9.18522 2.87002C8.98948 2.66939 8.69221 2.56907 8.29339 2.56907C7.87989 2.56907 7.5557 2.6596 7.32082 2.84066C7.08593 3.02172 6.92078 3.21501 6.82535 3.42053L6.00325 3.12693C6.15006 2.78438 6.34579 2.51769 6.59047 2.32685C6.83759 2.13355 7.10673 1.99898 7.39789 1.92314C7.69149 1.84484 7.98021 1.80569 8.26403 1.80569C8.44509 1.80569 8.65306 1.82771 8.88795 1.87175C9.12528 1.91335 9.35405 2.00021 9.57425 2.13233C9.7969 2.26445 9.98163 2.46386 10.1284 2.73056C10.2752 2.99725 10.3486 3.35447 10.3486 3.80222V7.51636H9.4825V6.75298H9.43846C9.37974 6.87531 9.28187 7.00621 9.14485 7.14568C9.00783 7.28514 8.82555 7.40381 8.59801 7.50168C8.37046 7.59955 8.09276 7.64848 7.7649 7.64848ZM7.89702 6.87042C8.23956 6.87042 8.52828 6.80314 8.76316 6.66857C9.00049 6.534 9.17911 6.36028 9.299 6.14741C9.42133 5.93455 9.4825 5.71067 9.4825 5.47579V4.68305C9.4458 4.72709 9.36506 4.76746 9.24027 4.80416C9.11794 4.83841 8.97603 4.869 8.81454 4.89591C8.65551 4.92038 8.50014 4.9424 8.34844 4.96197C8.19919 4.9791 8.07808 4.99378 7.9851 5.00601C7.76 5.03537 7.54958 5.08309 7.35385 5.14915C7.16055 5.21276 7.00396 5.30941 6.88407 5.43908C6.76663 5.56631 6.70791 5.74003 6.70791 5.96024C6.70791 6.26119 6.81924 6.48873 7.04189 6.64288C7.26699 6.79457 7.55203 6.87042 7.89702 6.87042ZM12.7957 4.12519V7.51636H11.9295V1.87909H12.7663V2.75992H12.8397C12.9718 2.47365 13.1725 2.24366 13.4416 2.06994C13.7108 1.89378 14.0582 1.80569 14.4839 1.80569C14.8656 1.80569 15.1996 1.88399 15.4859 2.04058C15.7721 2.19472 15.9948 2.42961 16.1538 2.74524C16.3128 3.05842 16.3924 3.45479 16.3924 3.93435V7.51636H15.5262V3.99307C15.5262 3.55021 15.4112 3.20522 15.1812 2.9581C14.9512 2.70854 14.6356 2.58375 14.2344 2.58375C13.9579 2.58375 13.7108 2.6437 13.493 2.76359C13.2777 2.88348 13.1076 3.05842 12.9829 3.28841C12.8581 3.5184 12.7957 3.79733 12.7957 4.12519ZM20.1038 7.6338C19.634 7.6338 19.2193 7.51513 18.8596 7.2778C18.4999 7.03802 18.2185 6.70037 18.0155 6.26486C17.8124 5.82689 17.7108 5.30941 17.7108 4.71241C17.7108 4.1203 17.8124 3.60648 18.0155 3.17097C18.2185 2.73545 18.5011 2.39902 18.8633 2.16169C19.2254 1.92436 19.6438 1.80569 20.1184 1.80569C20.4854 1.80569 20.7754 1.86686 20.9882 1.9892C21.2036 2.10909 21.3675 2.2461 21.48 2.40025C21.595 2.55194 21.6843 2.67673 21.748 2.7746H21.8214V6.71181e-06H22.6875V7.51636H21.8507V6.65022H21.748C21.6843 6.75298 21.5938 6.88265 21.4764 7.03925C21.3589 7.19339 21.1913 7.33163 20.9736 7.45397C20.7558 7.57386 20.4659 7.6338 20.1038 7.6338ZM20.2212 6.85574C20.5686 6.85574 20.8622 6.76521 21.102 6.58415C21.3418 6.40065 21.5241 6.14741 21.6489 5.82444C21.7736 5.49903 21.836 5.12346 21.836 4.69773C21.836 4.27689 21.7749 3.90866 21.6525 3.59303C21.5302 3.27495 21.3491 3.02783 21.1094 2.85167C20.8696 2.67306 20.5735 2.58375 20.2212 2.58375C19.8542 2.58375 19.5483 2.67795 19.3037 2.86635C19.0614 3.0523 18.8792 3.30554 18.7568 3.62606C18.6369 3.94413 18.577 4.30136 18.577 4.69773C18.577 5.09899 18.6382 5.46355 18.7605 5.79141C18.8853 6.11683 19.0688 6.37618 19.311 6.56947C19.5557 6.76032 19.8591 6.85574 20.2212 6.85574ZM29.5763 9.74777C29.1579 9.74777 28.7982 9.69395 28.4973 9.58629C28.1963 9.48108 27.9455 9.34162 27.7449 9.1679C27.5467 8.99663 27.3889 8.81312 27.2714 8.61739L27.9614 8.13293C28.0397 8.2357 28.1388 8.35314 28.2587 8.48526C28.3786 8.61983 28.5425 8.73605 28.7505 8.83392C28.9609 8.93424 29.2362 8.98439 29.5763 8.98439C30.0314 8.98439 30.4069 8.87429 30.703 8.65409C30.999 8.43388 31.1471 8.08889 31.1471 7.61912V6.47405H31.0737C31.01 6.57681 30.9195 6.70404 30.8021 6.85574C30.6871 7.00499 30.5207 7.13834 30.3029 7.25578C30.0876 7.37078 29.7965 7.42828 29.4295 7.42828C28.9744 7.42828 28.5658 7.32062 28.2036 7.10531C27.844 6.88999 27.5589 6.57681 27.3485 6.16576C27.1405 5.75471 27.0366 5.25558 27.0366 4.66837C27.0366 4.09094 27.1381 3.58813 27.3412 3.15996C27.5443 2.72933 27.8268 2.39658 28.189 2.16169C28.5511 1.92436 28.9695 1.80569 29.4441 1.80569C29.8111 1.80569 30.1023 1.86686 30.3176 1.9892C30.5354 2.10909 30.7018 2.2461 30.8168 2.40025C30.9342 2.55194 31.0247 2.67673 31.0883 2.7746H31.1764V1.87909H32.0132V7.67784C32.0132 8.16229 31.9031 8.55622 31.6829 8.85961C31.4651 9.16545 31.1715 9.38933 30.8021 9.53124C30.4351 9.6756 30.0265 9.74777 29.5763 9.74777ZM29.5469 6.65022C29.8943 6.65022 30.1879 6.5707 30.4277 6.41166C30.6675 6.25262 30.8498 6.02385 30.9746 5.72535C31.0993 5.42685 31.1617 5.06963 31.1617 4.65368C31.1617 4.24753 31.1006 3.88908 30.9782 3.57835C30.8559 3.26761 30.6748 3.02416 30.4351 2.848C30.1953 2.67183 29.8992 2.58375 29.5469 2.58375C29.1799 2.58375 28.874 2.67673 28.6294 2.86268C28.3872 3.04863 28.2049 3.2982 28.0825 3.61138C27.9626 3.92456 27.9027 4.272 27.9027 4.65368C27.9027 5.04516 27.9639 5.39137 28.0862 5.69232C28.211 5.99082 28.3945 6.22571 28.6367 6.39698C28.8814 6.5658 29.1848 6.65022 29.5469 6.65022ZM35.9622 7.6338C35.419 7.6338 34.9505 7.51391 34.5566 7.27413C34.1651 7.03191 33.8629 6.69426 33.6501 6.26119C33.4396 5.82567 33.3344 5.3192 33.3344 4.74177C33.3344 4.16434 33.4396 3.65542 33.6501 3.21501C33.8629 2.77215 34.159 2.42716 34.5382 2.18004C34.9199 1.93048 35.3652 1.80569 35.8741 1.80569C36.1677 1.80569 36.4577 1.85463 36.744 1.9525C37.0302 2.05037 37.2908 2.2094 37.5257 2.42961C37.7606 2.64737 37.9477 2.93608 38.0872 3.29575C38.2267 3.65542 38.2964 4.09828 38.2964 4.62432V4.99133H33.951V4.24263H37.4156C37.4156 3.92456 37.352 3.64074 37.2247 3.39117C37.1 3.14161 36.9213 2.94464 36.6889 2.80029C36.4589 2.65593 36.1873 2.58375 35.8741 2.58375C35.5292 2.58375 35.2307 2.66939 34.9786 2.84066C34.7291 3.00948 34.537 3.22969 34.4024 3.50128C34.2679 3.77286 34.2006 4.06402 34.2006 4.37476V4.87389C34.2006 5.29962 34.274 5.66051 34.4208 5.95657C34.57 6.25018 34.7768 6.47405 35.041 6.62819C35.3053 6.77989 35.6123 6.85574 35.9622 6.85574C36.1898 6.85574 36.3953 6.82393 36.5788 6.76032C36.7647 6.69426 36.925 6.59639 37.0596 6.46671C37.1942 6.33459 37.2981 6.17066 37.3715 5.97492L38.2083 6.2098C38.1202 6.49362 37.9722 6.74319 37.7642 6.9585C37.5563 7.17137 37.2994 7.33775 36.9935 7.45764C36.6877 7.57508 36.3439 7.6338 35.9622 7.6338ZM43.607 3.14161L42.829 3.36181C42.78 3.23214 42.7079 3.10613 42.6124 2.98379C42.5195 2.85901 42.3922 2.75625 42.2307 2.6755C42.0693 2.59476 41.8625 2.55439 41.6105 2.55439C41.2655 2.55439 40.978 2.63391 40.748 2.79295C40.5205 2.94954 40.4067 3.14895 40.4067 3.39117C40.4067 3.60648 40.485 3.77653 40.6416 3.90132C40.7982 4.0261 41.0429 4.13008 41.3756 4.21327L42.2124 4.4188C42.7164 4.54114 43.092 4.72831 43.3391 4.98032C43.5862 5.22989 43.7098 5.55163 43.7098 5.94556C43.7098 6.26853 43.6168 6.55724 43.4309 6.8117C43.2474 7.06616 42.9905 7.26679 42.6601 7.41359C42.3298 7.5604 41.9457 7.6338 41.5077 7.6338C40.9328 7.6338 40.4569 7.50902 40.0801 7.25945C39.7033 7.00988 39.4647 6.64532 39.3644 6.16576L40.1865 5.96024C40.2648 6.26363 40.4128 6.49118 40.6306 6.64288C40.8508 6.79457 41.1383 6.87042 41.4931 6.87042C41.8968 6.87042 42.2173 6.78479 42.4546 6.61351C42.6944 6.4398 42.8143 6.23182 42.8143 5.9896C42.8143 5.79386 42.7458 5.62993 42.6088 5.49781C42.4717 5.36324 42.2613 5.26292 41.9775 5.19686L41.038 4.97665C40.5217 4.85432 40.1425 4.6647 39.9002 4.40779C39.6605 4.14844 39.5406 3.82424 39.5406 3.43521C39.5406 3.11714 39.6299 2.83577 39.8085 2.59109C39.9895 2.34642 40.2354 2.15435 40.5462 2.01489C40.8593 1.87542 41.2141 1.80569 41.6105 1.80569C42.1683 1.80569 42.6063 1.92803 42.9244 2.1727C43.2449 2.41737 43.4725 2.74034 43.607 3.14161ZM47.4652 1.87909V2.61311H44.5438V1.87909H47.4652ZM45.3953 0.5285H46.2614V5.90152C46.2614 6.14619 46.2969 6.32969 46.3679 6.45203C46.4413 6.57192 46.5342 6.65266 46.6468 6.69426C46.7618 6.7334 46.8829 6.75298 47.0101 6.75298C47.1055 6.75298 47.1838 6.74808 47.245 6.7383C47.3062 6.72606 47.3551 6.71628 47.3918 6.70894L47.568 7.487C47.5093 7.50902 47.4273 7.53104 47.3221 7.55306C47.2169 7.57753 47.0835 7.58976 46.922 7.58976C46.6774 7.58976 46.4376 7.53715 46.2027 7.43195C45.9703 7.32674 45.777 7.16648 45.6228 6.95116C45.4711 6.73585 45.3953 6.46426 45.3953 6.1364V0.5285ZM52.3207 5.21154V1.87909H53.1869V7.51636H52.3207V6.56213H52.262C52.1299 6.8484 51.9244 7.09185 51.6454 7.29248C51.3665 7.49067 51.0142 7.58976 50.5885 7.58976C50.2361 7.58976 49.9229 7.51269 49.6489 7.35854C49.3749 7.20195 49.1596 6.96707 49.003 6.65389C48.8464 6.33826 48.7681 5.94066 48.7681 5.46111V1.87909H49.6342V5.40238C49.6342 5.81343 49.7492 6.1413 49.9792 6.38597C50.2117 6.63064 50.5077 6.75298 50.8674 6.75298C51.0827 6.75298 51.3017 6.69793 51.5243 6.58782C51.7494 6.47772 51.9378 6.3089 52.0895 6.08135C52.2437 5.85381 52.3207 5.56387 52.3207 5.21154ZM54.7733 7.51636V1.87909H55.6101V2.73056H55.6688C55.7716 2.45163 55.9575 2.22531 56.2266 2.05159C56.4958 1.87787 56.7992 1.79101 57.1368 1.79101C57.2004 1.79101 57.28 1.79224 57.3754 1.79468C57.4708 1.79713 57.543 1.8008 57.5919 1.80569V2.68651C57.5626 2.67917 57.4953 2.66816 57.3901 2.65348C57.2873 2.63636 57.1784 2.62779 57.0634 2.62779C56.7894 2.62779 56.5447 2.68529 56.3294 2.80029C56.1165 2.91284 55.9477 3.06943 55.8229 3.27006C55.7006 3.46824 55.6394 3.69457 55.6394 3.94903V7.51636H54.7733ZM60.8106 7.6338C60.2674 7.6338 59.7989 7.51391 59.4049 7.27413C59.0135 7.03191 58.7113 6.69426 58.4984 6.26119C58.288 5.82567 58.1828 5.3192 58.1828 4.74177C58.1828 4.16434 58.288 3.65542 58.4984 3.21501C58.7113 2.77215 59.0073 2.42716 59.3866 2.18004C59.7683 1.93048 60.2136 1.80569 60.7225 1.80569C61.0161 1.80569 61.3061 1.85463 61.5923 1.9525C61.8786 2.05037 62.1392 2.2094 62.374 2.42961C62.6089 2.64737 62.7961 2.93608 62.9356 3.29575C63.075 3.65542 63.1448 4.09828 63.1448 4.62432V4.99133H58.7994V4.24263H62.2639C62.2639 3.92456 62.2003 3.64074 62.0731 3.39117C61.9483 3.14161 61.7697 2.94464 61.5373 2.80029C61.3073 2.65593 61.0357 2.58375 60.7225 2.58375C60.3775 2.58375 60.079 2.66939 59.827 2.84066C59.5774 3.00948 59.3854 3.22969 59.2508 3.50128C59.1162 3.77286 59.0489 4.06402 59.0489 4.37476V4.87389C59.0489 5.29962 59.1223 5.66051 59.2691 5.95657C59.4184 6.25018 59.6251 6.47405 59.8894 6.62819C60.1536 6.77989 60.4607 6.85574 60.8106 6.85574C61.0381 6.85574 61.2437 6.82393 61.4272 6.76032C61.6131 6.69426 61.7734 6.59639 61.9079 6.46671C62.0425 6.33459 62.1465 6.17066 62.2199 5.97492L63.0567 6.2098C62.9686 6.49362 62.8206 6.74319 62.6126 6.9585C62.4046 7.17137 62.1477 7.33775 61.8419 7.45764C61.536 7.57508 61.1923 7.6338 60.8106 7.6338ZM68.4554 3.14161L67.6773 3.36181C67.6284 3.23214 67.5562 3.10613 67.4608 2.98379C67.3678 2.85901 67.2406 2.75625 67.0791 2.6755C66.9176 2.59476 66.7109 2.55439 66.4589 2.55439C66.1139 2.55439 65.8264 2.63391 65.5964 2.79295C65.3688 2.94954 65.2551 3.14895 65.2551 3.39117C65.2551 3.60648 65.3334 3.77653 65.49 3.90132C65.6465 4.0261 65.8912 4.13008 66.224 4.21327L67.0608 4.4188C67.5648 4.54114 67.9404 4.72831 68.1875 4.98032C68.4346 5.22989 68.5582 5.55163 68.5582 5.94556C68.5582 6.26853 68.4652 6.55724 68.2792 6.8117C68.0957 7.06616 67.8388 7.26679 67.5085 7.41359C67.1782 7.5604 66.7941 7.6338 66.3561 7.6338C65.7811 7.6338 65.3052 7.50902 64.9284 7.25945C64.5516 7.00988 64.3131 6.64532 64.2128 6.16576L65.0349 5.96024C65.1132 6.26363 65.2612 6.49118 65.4789 6.64288C65.6991 6.79457 65.9866 6.87042 66.3414 6.87042C66.7451 6.87042 67.0656 6.78479 67.303 6.61351C67.5428 6.4398 67.6626 6.23182 67.6626 5.9896C67.6626 5.79386 67.5941 5.62993 67.4571 5.49781C67.3201 5.36324 67.1097 5.26292 66.8259 5.19686L65.8863 4.97665C65.3701 4.85432 64.9908 4.6647 64.7486 4.40779C64.5088 4.14844 64.3889 3.82424 64.3889 3.43521C64.3889 3.11714 64.4782 2.83577 64.6568 2.59109C64.8379 2.34642 65.0838 2.15435 65.3945 2.01489C65.7077 1.87542 66.0625 1.80569 66.4589 1.80569C67.0167 1.80569 67.4547 1.92803 67.7728 2.1727C68.0933 2.41737 68.3208 2.74034 68.4554 3.14161ZM16.9121 24.6338C16.369 24.6338 15.9004 24.5139 15.5065 24.2741C15.115 24.0319 14.8128 23.6943 14.6 23.2612C14.3896 22.8257 14.2844 22.3192 14.2844 21.7418C14.2844 21.1643 14.3896 20.6554 14.6 20.215C14.8128 19.7722 15.1089 19.4272 15.4881 19.18C15.8698 18.9305 16.3151 18.8057 16.8241 18.8057C17.1177 18.8057 17.4076 18.8546 17.6939 18.9525C17.9801 19.0504 18.2407 19.2094 18.4756 19.4296C18.7105 19.6474 18.8977 19.9361 19.0371 20.2958C19.1766 20.6554 19.2463 21.0983 19.2463 21.6243V21.9913H14.9009V21.2426H18.3655C18.3655 20.9246 18.3019 20.6407 18.1747 20.3912C18.0499 20.1416 17.8713 19.9446 17.6388 19.8003C17.4088 19.6559 17.1372 19.5838 16.8241 19.5838C16.4791 19.5838 16.1806 19.6694 15.9286 19.8407C15.679 20.0095 15.4869 20.2297 15.3524 20.5013C15.2178 20.7729 15.1505 21.064 15.1505 21.3748V21.8739C15.1505 22.2996 15.2239 22.6605 15.3707 22.9566C15.52 23.2502 15.7267 23.4741 15.9909 23.6282C16.2552 23.7799 16.5623 23.8557 16.9121 23.8557C17.1397 23.8557 17.3452 23.8239 17.5287 23.7603C17.7147 23.6943 17.8749 23.5964 18.0095 23.4667C18.1441 23.3346 18.2481 23.1707 18.3215 22.9749L19.1582 23.2098C19.0702 23.4936 18.9221 23.7432 18.7142 23.9585C18.5062 24.1714 18.2493 24.3377 17.9434 24.4576C17.6376 24.5751 17.2938 24.6338 16.9121 24.6338ZM20.5639 24.5164V18.8791H21.4007V19.7599H21.4741C21.5915 19.459 21.7811 19.2253 22.0429 19.0589C22.3047 18.8901 22.6191 18.8057 22.9861 18.8057C23.358 18.8057 23.6676 18.8901 23.9147 19.0589C24.1642 19.2253 24.3588 19.459 24.4982 19.7599H24.5569C24.7013 19.4688 24.9178 19.2375 25.2066 19.0663C25.4953 18.8926 25.8415 18.8057 26.2452 18.8057C26.7492 18.8057 27.1615 18.9635 27.482 19.2791C27.8025 19.5923 27.9628 20.0804 27.9628 20.7435V24.5164H27.0967V20.7435C27.0967 20.3276 26.9829 20.0303 26.7553 19.8517C26.5278 19.6731 26.2599 19.5838 25.9516 19.5838C25.5552 19.5838 25.2481 19.7036 25.0304 19.9434C24.8126 20.1808 24.7038 20.4817 24.7038 20.8463V24.5164H23.8229V20.6554C23.8229 20.3349 23.7189 20.0768 23.511 19.881C23.303 19.6828 23.0351 19.5838 22.7072 19.5838C22.4821 19.5838 22.2717 19.6437 22.076 19.7636C21.8827 19.8835 21.7261 20.0499 21.6062 20.2627C21.4887 20.4731 21.43 20.7166 21.43 20.9931V24.5164H20.5639ZM31.8366 24.6338C31.3277 24.6338 30.8811 24.5127 30.497 24.2705C30.1153 24.0282 29.8168 23.6894 29.6015 23.2538C29.3886 22.8183 29.2822 22.3094 29.2822 21.7271C29.2822 21.1399 29.3886 20.6273 29.6015 20.1893C29.8168 19.7514 30.1153 19.4113 30.497 19.169C30.8811 18.9268 31.3277 18.8057 31.8366 18.8057C32.3455 18.8057 32.7908 18.9268 33.1725 19.169C33.5566 19.4113 33.8551 19.7514 34.068 20.1893C34.2833 20.6273 34.391 21.1399 34.391 21.7271C34.391 22.3094 34.2833 22.8183 34.068 23.2538C33.8551 23.6894 33.5566 24.0282 33.1725 24.2705C32.7908 24.5127 32.3455 24.6338 31.8366 24.6338ZM31.8366 23.8557C32.2232 23.8557 32.5412 23.7566 32.7908 23.5585C33.0404 23.3603 33.2251 23.0997 33.345 22.7767C33.4649 22.4538 33.5248 22.1039 33.5248 21.7271C33.5248 21.3503 33.4649 20.9992 33.345 20.6738C33.2251 20.3484 33.0404 20.0853 32.7908 19.8847C32.5412 19.6841 32.2232 19.5838 31.8366 19.5838C31.45 19.5838 31.1319 19.6841 30.8824 19.8847C30.6328 20.0853 30.4481 20.3484 30.3282 20.6738C30.2083 20.9992 30.1483 21.3503 30.1483 21.7271C30.1483 22.1039 30.2083 22.4538 30.3282 22.7767C30.4481 23.0997 30.6328 23.3603 30.8824 23.5585C31.1319 23.7566 31.45 23.8557 31.8366 23.8557ZM35.7131 18.8791H36.5793V24.9274C36.5793 25.2748 36.5193 25.5758 36.3994 25.8303C36.282 26.0847 36.1034 26.2817 35.8636 26.4211C35.6263 26.5606 35.3265 26.6303 34.9644 26.6303C34.9351 26.6303 34.9057 26.6303 34.8763 26.6303C34.847 26.6303 34.8176 26.6303 34.7882 26.6303V25.8229C34.8176 25.8229 34.8445 25.8229 34.869 25.8229C34.8935 25.8229 34.9204 25.8229 34.9497 25.8229C35.214 25.8229 35.4073 25.7446 35.5296 25.588C35.6519 25.4339 35.7131 25.2137 35.7131 24.9274V18.8791ZM36.1388 17.9396C35.97 17.9396 35.8244 17.8821 35.7021 17.7671C35.5822 17.6521 35.5223 17.5138 35.5223 17.3523C35.5223 17.1909 35.5822 17.0526 35.7021 16.9376C35.8244 16.8226 35.97 16.7651 36.1388 16.7651C36.3077 16.7651 36.452 16.8226 36.5719 16.9376C36.6943 17.0526 36.7554 17.1909 36.7554 17.3523C36.7554 17.5138 36.6943 17.6521 36.5719 17.7671C36.452 17.8821 36.3077 17.9396 36.1388 17.9396ZM38.1656 24.5164V18.8791H39.0318V24.5164H38.1656ZM38.6061 17.9396C38.4372 17.9396 38.2917 17.8821 38.1693 17.7671C38.0494 17.6521 37.9895 17.5138 37.9895 17.3523C37.9895 17.1909 38.0494 17.0526 38.1693 16.9376C38.2917 16.8226 38.4372 16.7651 38.6061 16.7651C38.7749 16.7651 38.9192 16.8226 39.0391 16.9376C39.1615 17.0526 39.2226 17.1909 39.2226 17.3523C39.2226 17.5138 39.1615 17.6521 39.0391 17.7671C38.9192 17.8821 38.7749 17.9396 38.6061 17.9396ZM45.815 24.6338C45.3061 24.6338 44.8596 24.5127 44.4755 24.2705C44.0938 24.0282 43.7953 23.6894 43.58 23.2538C43.3671 22.8183 43.2607 22.3094 43.2607 21.7271C43.2607 21.1399 43.3671 20.6273 43.58 20.1893C43.7953 19.7514 44.0938 19.4113 44.4755 19.169C44.8596 18.9268 45.3061 18.8057 45.815 18.8057C46.324 18.8057 46.7693 18.9268 47.151 19.169C47.5351 19.4113 47.8336 19.7514 48.0465 20.1893C48.2618 20.6273 48.3694 21.1399 48.3694 21.7271C48.3694 22.3094 48.2618 22.8183 48.0465 23.2538C47.8336 23.6894 47.5351 24.0282 47.151 24.2705C46.7693 24.5127 46.324 24.6338 45.815 24.6338ZM45.815 23.8557C46.2016 23.8557 46.5197 23.7566 46.7693 23.5585C47.0188 23.3603 47.2036 23.0997 47.3234 22.7767C47.4433 22.4538 47.5033 22.1039 47.5033 21.7271C47.5033 21.3503 47.4433 20.9992 47.3234 20.6738C47.2036 20.3484 47.0188 20.0853 46.7693 19.8847C46.5197 19.6841 46.2016 19.5838 45.815 19.5838C45.4285 19.5838 45.1104 19.6841 44.8608 19.8847C44.6113 20.0853 44.4265 20.3484 44.3066 20.6738C44.1867 20.9992 44.1268 21.3503 44.1268 21.7271C44.1268 22.1039 44.1867 22.4538 44.3066 22.7767C44.4265 23.0997 44.6113 23.3603 44.8608 23.5585C45.1104 23.7566 45.4285 23.8557 45.815 23.8557ZM50.499 22.4611L50.4843 21.3894H50.6605L53.1268 18.8791H54.1985L51.5707 21.5362H51.4973L50.499 22.4611ZM49.6916 24.5164V17H50.5577V24.5164H49.6916ZM53.2736 24.5164L51.0715 21.7271L51.6881 21.1252L54.3746 24.5164H53.2736Z" fill="#737373"/>
</svg>
