<svg width="32" height="10" viewBox="0 0 32 10" fill="none" xmlns="http://www.w3.org/2000/svg">
<path d="M-3.02814e-05 9.86522V2.11399H0.836751V3.00949H0.939514C1.00313 2.91162 1.09121 2.78684 1.20376 2.63514C1.31876 2.481 1.48269 2.34398 1.69555 2.22409C1.91086 2.10175 2.20203 2.04059 2.56903 2.04059C3.0437 2.04059 3.46209 2.15925 3.82421 2.39659C4.18632 2.63392 4.46892 2.97034 4.672 3.40586C4.87508 3.84138 4.97662 4.35519 4.97662 4.9473C4.97662 5.5443 4.87508 6.06179 4.672 6.49975C4.46892 6.93527 4.18755 7.27292 3.82788 7.5127C3.46821 7.75003 3.05349 7.86869 2.58372 7.86869C2.2216 7.86869 1.93166 7.80875 1.7139 7.68886C1.49614 7.56652 1.32854 7.42828 1.2111 7.27414C1.09366 7.11755 1.00313 6.98787 0.939514 6.88511H0.866112V9.86522H-3.02814e-05ZM0.851431 4.93262C0.851431 5.35835 0.913823 5.73392 1.03861 6.05934C1.16339 6.38231 1.34567 6.63554 1.58545 6.81905C1.82523 7.00011 2.11884 7.09063 2.46627 7.09063C2.82839 7.09063 3.13056 6.99521 3.37279 6.80437C3.61746 6.61108 3.80096 6.35172 3.9233 6.02631C4.04808 5.69845 4.11047 5.33388 4.11047 4.93262C4.11047 4.53625 4.04931 4.17903 3.92697 3.86095C3.80708 3.54043 3.6248 3.28719 3.38013 3.10124C3.1379 2.91285 2.83328 2.81865 2.46627 2.81865C2.11394 2.81865 1.81789 2.90795 1.57811 3.08656C1.33833 3.26273 1.15727 3.50985 1.03494 3.82792C0.912599 4.14355 0.851431 4.51178 0.851431 4.93262ZM6.29785 7.75125V2.11399H7.13463V2.96545H7.19335C7.29611 2.68652 7.48207 2.4602 7.75121 2.28648C8.02035 2.11276 8.32374 2.02591 8.66139 2.02591C8.725 2.02591 8.80452 2.02713 8.89995 2.02958C8.99537 2.03202 9.06755 2.03569 9.11648 2.04059V2.92141C9.08712 2.91407 9.01984 2.90306 8.91463 2.88838C8.81186 2.87125 8.70298 2.86269 8.58799 2.86269C8.31395 2.86269 8.06928 2.92019 7.85397 3.03518C7.6411 3.14773 7.47228 3.30432 7.3475 3.50495C7.22516 3.70314 7.16399 3.92946 7.16399 4.18392V7.75125H6.29785ZM10.1432 7.75125V2.11399H11.0093V7.75125H10.1432ZM10.5836 1.17444C10.4148 1.17444 10.2692 1.11695 10.1469 1.00195C10.027 0.886954 9.96703 0.748714 9.96703 0.58723C9.96703 0.425746 10.027 0.287505 10.1469 0.172509C10.2692 0.0575128 10.4148 1.4782e-05 10.5836 1.4782e-05C10.7524 1.4782e-05 10.8968 0.0575128 11.0167 0.172509C11.139 0.287505 11.2002 0.425746 11.2002 0.58723C11.2002 0.748714 11.139 0.886954 11.0167 1.00195C10.8968 1.11695 10.7524 1.17444 10.5836 1.17444ZM13.4619 4.36009V7.75125H12.5957V2.11399H13.4325V2.99481H13.5059C13.638 2.70854 13.8387 2.47855 14.1078 2.30483C14.3769 2.12867 14.7244 2.04059 15.1501 2.04059C15.5318 2.04059 15.8658 2.11888 16.152 2.27547C16.4383 2.42962 16.661 2.6645 16.82 2.98013C16.979 3.29331 17.0586 3.68968 17.0586 4.16924V7.75125H16.1924V4.22796C16.1924 3.7851 16.0774 3.44012 15.8474 3.193C15.6174 2.94343 15.3018 2.81865 14.9005 2.81865C14.6241 2.81865 14.3769 2.87859 14.1592 2.99848C13.9439 3.11837 13.7738 3.29331 13.649 3.5233C13.5243 3.7533 13.4619 4.03222 13.4619 4.36009ZM21.0929 2.11399V2.84801H18.1715V2.11399H21.0929ZM19.023 0.763394H19.8891V6.13641C19.8891 6.38108 19.9246 6.56459 19.9956 6.68692C20.069 6.80681 20.1619 6.88756 20.2745 6.92915C20.3895 6.9683 20.5106 6.98787 20.6378 6.98787C20.7332 6.98787 20.8115 6.98298 20.8727 6.97319C20.9339 6.96096 20.9828 6.95117 21.0195 6.94383L21.1957 7.72189C21.137 7.74391 21.055 7.76593 20.9498 7.78795C20.8446 7.81242 20.7112 7.82465 20.5497 7.82465C20.3051 7.82465 20.0653 7.77205 19.8304 7.66684C19.598 7.56163 19.4047 7.40137 19.2505 7.18606C19.0988 6.97074 19.023 6.69916 19.023 6.3713V0.763394ZM24.6988 7.86869C24.1556 7.86869 23.6871 7.7488 23.2931 7.50903C22.9017 7.2668 22.5995 6.92915 22.3866 6.49608C22.1762 6.06056 22.071 5.55409 22.071 4.97666C22.071 4.39923 22.1762 3.89031 22.3866 3.4499C22.5995 3.00704 22.8955 2.66206 23.2748 2.41494C23.6565 2.16537 24.1018 2.04059 24.6107 2.04059C24.9043 2.04059 25.1942 2.08952 25.4805 2.18739C25.7668 2.28526 26.0274 2.4443 26.2622 2.6645C26.4971 2.88226 26.6843 3.17097 26.8238 3.53064C26.9632 3.89031 27.033 4.33317 27.033 4.85922V5.22623H22.6876V4.47753H26.1521C26.1521 4.15945 26.0885 3.87563 25.9613 3.62607C25.8365 3.3765 25.6579 3.17954 25.4255 3.03518C25.1955 2.89082 24.9239 2.81865 24.6107 2.81865C24.2657 2.81865 23.9672 2.90428 23.7152 3.07555C23.4656 3.24438 23.2736 3.46458 23.139 3.73617C23.0044 4.00776 22.9371 4.29892 22.9371 4.60965V5.10878C22.9371 5.53452 23.0105 5.89541 23.1573 6.19146C23.3066 6.48507 23.5133 6.70894 23.7776 6.86309C24.0418 7.01479 24.3489 7.09063 24.6988 7.09063C24.9263 7.09063 25.1318 7.05883 25.3154 6.99521C25.5013 6.92915 25.6616 6.83128 25.7961 6.7016C25.9307 6.56948 26.0347 6.40555 26.1081 6.20981L26.9449 6.4447C26.8568 6.72852 26.7088 6.97808 26.5008 7.1934C26.2928 7.40626 26.0359 7.57264 25.7301 7.69253C25.4242 7.80997 25.0805 7.86869 24.6988 7.86869ZM28.3505 7.75125V2.11399H29.1873V2.96545H29.246C29.3488 2.68652 29.5347 2.4602 29.8039 2.28648C30.073 2.11276 30.3764 2.02591 30.7141 2.02591C30.7777 2.02591 30.8572 2.02713 30.9526 2.02958C31.048 2.03202 31.1202 2.03569 31.1692 2.04059V2.92141C31.1398 2.91407 31.0725 2.90306 30.9673 2.88838C30.8645 2.87125 30.7557 2.86269 30.6407 2.86269C30.3666 2.86269 30.122 2.92019 29.9066 3.03518C29.6938 3.14773 29.525 3.30432 29.4002 3.50495C29.2778 3.70314 29.2167 3.92946 29.2167 4.18392V7.75125H28.3505Z" fill="#737373"/>
</svg>
