<svg width="33" height="25" viewBox="0 0 33 25" fill="none" xmlns="http://www.w3.org/2000/svg">
<path d="M4.24275 3.3765L3.46469 3.59671C3.41575 3.46703 3.34357 3.34102 3.24815 3.21869C3.15518 3.0939 3.02795 2.99114 2.86646 2.9104C2.70498 2.82966 2.49823 2.78929 2.24622 2.78929C1.90123 2.78929 1.61374 2.8688 1.38374 3.02784C1.1562 3.18443 1.04243 3.38384 1.04243 3.62607C1.04243 3.84138 1.12072 4.01143 1.27731 4.13621C1.4339 4.26099 1.67858 4.36498 2.01133 4.44817L2.84811 4.65369C3.35214 4.77603 3.72771 4.9632 3.97483 5.21522C4.22195 5.46478 4.34551 5.78653 4.34551 6.18045C4.34551 6.50342 4.25253 6.79213 4.06658 7.04659C3.88308 7.30105 3.62617 7.50168 3.29586 7.64849C2.96555 7.79529 2.58142 7.86869 2.14345 7.86869C1.56847 7.86869 1.09258 7.74391 0.715787 7.49434C0.338991 7.24478 0.100435 6.88022 0.000119206 6.40066L0.82222 6.19513C0.900515 6.49853 1.04854 6.72607 1.2663 6.87777C1.48651 7.02947 1.774 7.10531 2.12877 7.10531C2.53248 7.10531 2.853 7.01968 3.09034 6.84841C3.33012 6.67469 3.45001 6.46672 3.45001 6.22449C3.45001 6.02875 3.3815 5.86482 3.24448 5.7327C3.10746 5.59813 2.89705 5.49781 2.61323 5.43175L1.67368 5.21155C1.15742 5.08921 0.778179 4.89959 0.535953 4.64268C0.296173 4.38333 0.176284 4.05914 0.176284 3.67011C0.176284 3.35203 0.265589 3.07066 0.4442 2.82599C0.625258 2.58131 0.871155 2.38925 1.18189 2.24978C1.49507 2.11032 1.84985 2.04059 2.24622 2.04059C2.80407 2.04059 3.24203 2.16292 3.56011 2.4076C3.88063 2.65227 4.10818 2.97524 4.24275 3.3765ZM8.01285 7.86869C7.46968 7.86869 7.00113 7.7488 6.6072 7.50903C6.21573 7.2668 5.91356 6.92915 5.70069 6.49608C5.49027 6.06056 5.38506 5.55409 5.38506 4.97666C5.38506 4.39923 5.49027 3.89031 5.70069 3.4499C5.91356 3.00704 6.20961 2.66206 6.58885 2.41494C6.97054 2.16537 7.41585 2.04059 7.92477 2.04059C8.21838 2.04059 8.50831 2.08952 8.79458 2.18739C9.08085 2.28526 9.34142 2.4443 9.57631 2.6645C9.8112 2.88226 9.99837 3.17097 10.1378 3.53064C10.2773 3.89031 10.347 4.33317 10.347 4.85922V5.22623H6.00164V4.47753H9.46621C9.46621 4.15945 9.40259 3.87563 9.27536 3.62607C9.15058 3.3765 8.97197 3.17954 8.73953 3.03518C8.50954 2.89082 8.23795 2.81865 7.92477 2.81865C7.57978 2.81865 7.28128 2.90428 7.02926 3.07555C6.7797 3.24438 6.58763 3.46458 6.45306 3.73617C6.31849 4.00776 6.25121 4.29892 6.25121 4.60965V5.10878C6.25121 5.53452 6.32461 5.89541 6.47141 6.19146C6.62066 6.48507 6.82741 6.70894 7.09166 6.86309C7.3559 7.01479 7.66297 7.09063 8.01285 7.09063C8.2404 7.09063 8.44592 7.05883 8.62943 6.99521C8.81538 6.92915 8.97564 6.83128 9.11021 6.7016C9.24478 6.56948 9.34876 6.40555 9.42217 6.20981L10.2589 6.4447C10.1709 6.72852 10.0228 6.97808 9.81487 7.1934C9.60689 7.40626 9.34999 7.57264 9.04415 7.69253C8.7383 7.80997 8.39454 7.86869 8.01285 7.86869ZM14.1162 2.11399V2.84801H11.1948V2.11399H14.1162ZM12.0463 0.763394H12.9124V6.13641C12.9124 6.38108 12.9479 6.56459 13.0189 6.68692C13.0923 6.80681 13.1852 6.88756 13.2978 6.92915C13.4128 6.9683 13.5339 6.98787 13.6611 6.98787C13.7565 6.98787 13.8348 6.98298 13.896 6.97319C13.9572 6.96096 14.0061 6.95117 14.0428 6.94383L14.219 7.72189C14.1603 7.74391 14.0783 7.76593 13.9731 7.78795C13.8679 7.81242 13.7345 7.82465 13.573 7.82465C13.3284 7.82465 13.0886 7.77205 12.8537 7.66684C12.6213 7.56163 12.428 7.40137 12.2738 7.18606C12.1221 6.97074 12.0463 6.69916 12.0463 6.3713V0.763394ZM17.8707 2.11399V2.84801H14.9493V2.11399H17.8707ZM15.8008 0.763394H16.6669V6.13641C16.6669 6.38108 16.7024 6.56459 16.7734 6.68692C16.8468 6.80681 16.9397 6.88756 17.0523 6.92915C17.1673 6.9683 17.2884 6.98787 17.4156 6.98787C17.5111 6.98787 17.5893 6.98298 17.6505 6.97319C17.7117 6.96096 17.7606 6.95117 17.7973 6.94383L17.9735 7.72189C17.9148 7.74391 17.8328 7.76593 17.7276 7.78795C17.6224 7.81242 17.489 7.82465 17.3275 7.82465C17.0829 7.82465 16.8431 7.77205 16.6082 7.66684C16.3758 7.56163 16.1825 7.40137 16.0283 7.18606C15.8766 6.97074 15.8008 6.69916 15.8008 6.3713V0.763394ZM19.1736 7.75125V2.11399H20.0397V7.75125H19.1736ZM19.614 1.17444C19.4452 1.17444 19.2996 1.11695 19.1773 1.00195C19.0574 0.886954 18.9974 0.748714 18.9974 0.58723C18.9974 0.425746 19.0574 0.287505 19.1773 0.172509C19.2996 0.0575128 19.4452 1.4782e-05 19.614 1.4782e-05C19.7828 1.4782e-05 19.9272 0.0575128 20.0471 0.172509C20.1694 0.287505 20.2306 0.425746 20.2306 0.58723C20.2306 0.748714 20.1694 0.886954 20.0471 1.00195C19.9272 1.11695 19.7828 1.17444 19.614 1.17444ZM22.4923 4.36009V7.75125H21.6261V2.11399H22.4629V2.99481H22.5363C22.6684 2.70854 22.8691 2.47855 23.1382 2.30483C23.4074 2.12867 23.7548 2.04059 24.1805 2.04059C24.5622 2.04059 24.8962 2.11888 25.1825 2.27547C25.4687 2.42962 25.6914 2.6645 25.8504 2.98013C26.0095 3.29331 26.089 3.68968 26.089 4.16924V7.75125H25.2228V4.22796C25.2228 3.7851 25.1078 3.44012 24.8778 3.193C24.6479 2.94343 24.3322 2.81865 23.931 2.81865C23.6545 2.81865 23.4074 2.87859 23.1896 2.99848C22.9743 3.11837 22.8042 3.29331 22.6795 3.5233C22.5547 3.7533 22.4923 4.03222 22.4923 4.36009ZM29.9472 9.98267C29.5288 9.98267 29.1691 9.92884 28.8682 9.82118C28.5672 9.71597 28.3164 9.57651 28.1158 9.40279C27.9176 9.23152 27.7598 9.04802 27.6423 8.85228L28.3323 8.36783C28.4106 8.47059 28.5097 8.58803 28.6296 8.72016C28.7495 8.85473 28.9134 8.97095 29.1214 9.06881C29.3318 9.16913 29.6071 9.21929 29.9472 9.21929C30.4023 9.21929 30.7778 9.10919 31.0739 8.88898C31.3699 8.66877 31.518 8.32379 31.518 7.85401V6.70894H31.4446C31.3809 6.81171 31.2904 6.93894 31.173 7.09063C31.058 7.23988 30.8916 7.37323 30.6738 7.49067C30.4585 7.60567 30.1674 7.66317 29.8004 7.66317C29.3453 7.66317 28.9367 7.55551 28.5745 7.3402C28.2149 7.12489 27.9298 6.81171 27.7194 6.40066C27.5114 5.98961 27.4075 5.49047 27.4075 4.90326C27.4075 4.32583 27.509 3.82303 27.7121 3.39485C27.9152 2.96423 28.1978 2.63147 28.5599 2.39659C28.922 2.15925 29.3404 2.04059 29.815 2.04059C30.182 2.04059 30.4732 2.10175 30.6885 2.22409C30.9063 2.34398 31.0727 2.481 31.1877 2.63514C31.3051 2.78684 31.3956 2.91162 31.4592 3.00949H31.5473V2.11399H32.3841V7.91274C32.3841 8.39719 32.274 8.79111 32.0538 9.09451C31.836 9.40035 31.5424 9.62422 31.173 9.76613C30.806 9.91049 30.3974 9.98267 29.9472 9.98267ZM29.9178 6.88511C30.2652 6.88511 30.5588 6.80559 30.7986 6.64655C31.0384 6.48752 31.2207 6.25875 31.3455 5.96025C31.4702 5.66174 31.5326 5.30452 31.5326 4.88858C31.5326 4.48242 31.4715 4.12398 31.3491 3.81324C31.2268 3.50251 31.0457 3.25906 30.806 3.08289C30.5662 2.90673 30.2701 2.81865 29.9178 2.81865C29.5508 2.81865 29.245 2.91162 29.0003 3.09757C28.7581 3.28352 28.5758 3.53309 28.4534 3.84627C28.3335 4.15945 28.2736 4.50689 28.2736 4.88858C28.2736 5.28006 28.3348 5.62627 28.4571 5.92721C28.5819 6.22572 28.7654 6.4606 29.0076 6.63187C29.2523 6.8007 29.5557 6.88511 29.9178 6.88511ZM7.81054 20.3765L7.03248 20.5967C6.98354 20.467 6.91136 20.341 6.81594 20.2187C6.72297 20.0939 6.59574 19.9911 6.43425 19.9104C6.27277 19.8297 6.06602 19.7893 5.81401 19.7893C5.46902 19.7893 5.18153 19.8688 4.95153 20.0278C4.72399 20.1844 4.61022 20.3838 4.61022 20.6261C4.61022 20.8414 4.68851 21.0114 4.8451 21.1362C5.00169 21.261 5.24637 21.365 5.57912 21.4482L6.4159 21.6537C6.91993 21.776 7.2955 21.9632 7.54262 22.2152C7.78974 22.4648 7.9133 22.7865 7.9133 23.1805C7.9133 23.5034 7.82032 23.7921 7.63437 24.0466C7.45087 24.3011 7.19396 24.5017 6.86365 24.6485C6.53334 24.7953 6.14921 24.8687 5.71124 24.8687C5.13626 24.8687 4.66037 24.7439 4.28358 24.4943C3.90678 24.2448 3.66823 23.8802 3.56791 23.4007L4.39001 23.1951C4.46831 23.4985 4.61633 23.7261 4.83409 23.8778C5.0543 24.0295 5.34179 24.1053 5.69656 24.1053C6.10027 24.1053 6.42079 24.0197 6.65813 23.8484C6.89791 23.6747 7.0178 23.4667 7.0178 23.2245C7.0178 23.0288 6.94929 22.8648 6.81227 22.7327C6.67525 22.5981 6.46484 22.4978 6.18102 22.4318L5.24147 22.2115C4.72521 22.0892 4.34597 21.8996 4.10374 21.6427C3.86396 21.3833 3.74407 21.0591 3.74407 20.6701C3.74407 20.352 3.83338 20.0707 4.01199 19.826C4.19305 19.5813 4.43894 19.3892 4.74968 19.2498C5.06286 19.1103 5.41764 19.0406 5.81401 19.0406C6.37186 19.0406 6.80982 19.1629 7.1279 19.4076C7.44842 19.6523 7.67597 19.9752 7.81054 20.3765ZM10.0832 17.2349V24.7513H9.2171V17.2349H10.0832ZM11.6696 24.7513V19.114H12.5358V24.7513H11.6696ZM12.1101 18.1744C11.9412 18.1744 11.7956 18.1169 11.6733 18.0019C11.5534 17.887 11.4935 17.7487 11.4935 17.5872C11.4935 17.4257 11.5534 17.2875 11.6733 17.1725C11.7956 17.0575 11.9412 17 12.1101 17C12.2789 17 12.4232 17.0575 12.5431 17.1725C12.6655 17.2875 12.7266 17.4257 12.7266 17.5872C12.7266 17.7487 12.6655 17.887 12.5431 18.0019C12.4232 18.1169 12.2789 18.1744 12.1101 18.1744ZM16.2508 24.8687C15.7811 24.8687 15.3663 24.75 15.0067 24.5127C14.647 24.2729 14.3656 23.9353 14.1626 23.4997C13.9595 23.0618 13.8579 22.5443 13.8579 21.9473C13.8579 21.3552 13.9595 20.8414 14.1626 20.4059C14.3656 19.9703 14.6482 19.6339 15.0103 19.3966C15.3725 19.1593 15.7908 19.0406 16.2655 19.0406C16.6325 19.0406 16.9225 19.1018 17.1353 19.2241C17.3506 19.344 17.5146 19.481 17.6271 19.6351C17.7421 19.7868 17.8314 19.9116 17.895 20.0095H17.9684V17.2349H18.8346V24.7513H17.9978V23.8851H17.895C17.8314 23.9879 17.7409 24.1175 17.6234 24.2741C17.506 24.4283 17.3384 24.5665 17.1206 24.6889C16.9029 24.8087 16.6129 24.8687 16.2508 24.8687ZM16.3683 24.0906C16.7157 24.0906 17.0093 24.0001 17.2491 23.819C17.4889 23.6355 17.6712 23.3823 17.7959 23.0593C17.9207 22.7339 17.9831 22.3584 17.9831 21.9326C17.9831 21.5118 17.9219 21.1435 17.7996 20.8279C17.6773 20.5098 17.4962 20.2627 17.2564 20.0866C17.0167 19.908 16.7206 19.8186 16.3683 19.8186C16.0013 19.8186 15.6954 19.9128 15.4508 20.1012C15.2085 20.2872 15.0262 20.5404 14.9039 20.861C14.784 21.179 14.7241 21.5362 14.7241 21.9326C14.7241 22.3339 14.7852 22.6984 14.9076 23.0263C15.0324 23.3517 15.2159 23.6111 15.4581 23.8044C15.7028 23.9952 16.0062 24.0906 16.3683 24.0906ZM22.9047 24.8687C22.3615 24.8687 21.893 24.7488 21.4991 24.509C21.1076 24.2668 20.8054 23.9292 20.5926 23.4961C20.3821 23.0606 20.2769 22.5541 20.2769 21.9767C20.2769 21.3992 20.3821 20.8903 20.5926 20.4499C20.8054 20.007 21.1015 19.6621 21.4807 19.4149C21.8624 19.1654 22.3077 19.0406 22.8166 19.0406C23.1102 19.0406 23.4002 19.0895 23.6864 19.1874C23.9727 19.2853 24.2333 19.4443 24.4682 19.6645C24.7031 19.8823 24.8902 20.171 25.0297 20.5306C25.1692 20.8903 25.2389 21.3332 25.2389 21.8592V22.2262H20.8935V21.4775H24.3581C24.3581 21.1595 24.2945 20.8756 24.1672 20.6261C24.0424 20.3765 23.8638 20.1795 23.6314 20.0352C23.4014 19.8908 23.1298 19.8186 22.8166 19.8186C22.4716 19.8186 22.1731 19.9043 21.9211 20.0756C21.6716 20.2444 21.4795 20.4646 21.3449 20.7362C21.2104 21.0078 21.1431 21.2989 21.1431 21.6097V22.1088C21.1431 22.5345 21.2165 22.8954 21.3633 23.1915C21.5125 23.4851 21.7193 23.7089 21.9835 23.8631C22.2478 24.0148 22.5548 24.0906 22.9047 24.0906C23.1323 24.0906 23.3378 24.0588 23.5213 23.9952C23.7072 23.9292 23.8675 23.8313 24.0021 23.7016C24.1366 23.5695 24.2406 23.4056 24.314 23.2098L25.1508 23.4447C25.0627 23.7285 24.9147 23.9781 24.7067 24.1934C24.4988 24.4063 24.2418 24.5726 23.936 24.6925C23.6302 24.81 23.2864 24.8687 22.9047 24.8687ZM26.5565 24.7513V19.114H27.3932V19.9654H27.452C27.5547 19.6865 27.7407 19.4602 28.0098 19.2865C28.279 19.1128 28.5823 19.0259 28.92 19.0259C28.9836 19.0259 29.0631 19.0271 29.1585 19.0296C29.254 19.032 29.3262 19.0357 29.3751 19.0406V19.9214C29.3457 19.9141 29.2784 19.9031 29.1732 19.8884C29.0705 19.8713 28.9616 19.8627 28.8466 19.8627C28.5726 19.8627 28.3279 19.9202 28.1126 20.0352C27.8997 20.1477 27.7309 20.3043 27.6061 20.505C27.4838 20.7031 27.4226 20.9295 27.4226 21.1839V24.7513H26.5565Z" fill="#737373"/>
</svg>
